<svg xmlns="http://www.w3.org/2000/svg" xmlns:xlink="http://www.w3.org/1999/xlink" width="63" height="29" viewBox="0 0 63 29">
  <defs>
    <clipPath id="clip-path">
      <rect id="Rectangle_56" data-name="Rectangle 56" width="17" height="11" transform="translate(767.933 133)" fill="#fff" stroke="#707070" stroke-width="1"/>
    </clipPath>
    <clipPath id="clip-path-2">
      <rect id="Rectangle_58" data-name="Rectangle 58" width="23" height="15" transform="translate(185 117)" fill="#fff" stroke="#707070" stroke-width="1"/>
    </clipPath>
    <clipPath id="clip-path-3">
      <rect id="Rectangle_59" data-name="Rectangle 59" width="23" height="15" transform="translate(210 117)" fill="#fff" stroke="#707070" stroke-width="1"/>
    </clipPath>
    <clipPath id="clip-path-4">
      <rect id="Rectangle_60" data-name="Rectangle 60" width="19" height="13" transform="translate(235.467 117)" fill="#fff" stroke="#707070" stroke-width="1"/>
    </clipPath>
    <clipPath id="clip-path-5">
      <rect id="Rectangle_57" data-name="Rectangle 57" width="17" height="11" transform="translate(234.933 133)" fill="#fff" stroke="#707070" stroke-width="1"/>
    </clipPath>
  </defs>
  <g id="VL" transform="translate(-193 -117)">
    <g id="Mask_Group_26" data-name="Mask Group 26" transform="translate(-550.933 2)" clip-path="url(#clip-path)">
      <g id="Not_Dimmable" data-name="Not Dimmable" transform="translate(770.154 133)">
        <path id="Path_237" data-name="Path 237" d="M13.5-18.614a1.963,1.963,0,0,0-1.174.661c-.14.169-4.558,7.429-4.651,7.638a1.925,1.925,0,0,0,.352,2.073,2,2,0,0,0,.94.564l.167.045h9.3l.175-.045a1.932,1.932,0,0,0,1.3-2.637c-.035-.083-.851-1.441-1.813-3.02s-1.966-3.233-2.236-3.675-.539-.867-.6-.942A1.941,1.941,0,0,0,13.5-18.614Zm.541.478a1.594,1.594,0,0,1,.521.195,1.77,1.77,0,0,1,.423.407c.039.059.623,1.015,1.3,2.124,1.347,2.216,1.845,3.036,2.639,4.34a10.981,10.981,0,0,1,.586,1.023,1.383,1.383,0,0,1,.026.92,1.443,1.443,0,0,1-1,.977l-.157.045H9.211l-.153-.045a1.438,1.438,0,0,1-1-.977,1.377,1.377,0,0,1,.026-.918c.041-.112.378-.682,1.231-2.084.647-1.064,1.471-2.421,1.833-3.015s.84-1.382,1.064-1.75c.442-.73.56-.881.8-1.034A1.448,1.448,0,0,1,14.038-18.136Z" transform="translate(-7.513 18.633)"/>
        <path id="Path_238" data-name="Path 238" d="M14.533-13.867a3.421,3.421,0,0,0-1.152.342l-.21.106-.122-.177c-.14-.2-.191-.244-.311-.244a.163.163,0,0,0-.153.073.194.194,0,0,0-.067.159c0,.075.018.11.128.265a1.189,1.189,0,0,1,.126.195.589.589,0,0,1-.108.1,3.039,3.039,0,0,0-.265.265,3.3,3.3,0,0,0,.1,4.539c.222.228.228.234.2.275-.134.175-.177.258-.177.342a.172.172,0,0,0,.067.155.171.171,0,0,0,.147.067c.122,0,.179-.039.285-.195a1.172,1.172,0,0,1,.1-.14s.061.031.128.071a3.417,3.417,0,0,0,.973.364,2.439,2.439,0,0,0,.647.047,2.822,2.822,0,0,0,.6-.035,3.556,3.556,0,0,0,.964-.344l.179-.1a.573.573,0,0,1,.108.136c.106.155.163.195.281.195a.235.235,0,0,0,.212-.3.974.974,0,0,0-.108-.177l-.094-.132.228-.232a3.3,3.3,0,0,0,.614-3.781,3.559,3.559,0,0,0-.779-1.023.589.589,0,0,1-.108-.1,1.189,1.189,0,0,1,.126-.195c.11-.155.128-.191.128-.265a.194.194,0,0,0-.067-.159A.163.163,0,0,0,17-13.839c-.12,0-.171.039-.311.244l-.122.175-.21-.1A3.3,3.3,0,0,0,14.533-13.867Zm.551.47a3.16,3.16,0,0,1,.759.163,1.235,1.235,0,0,1,.423.222c-.008.02-.146.22-.222.321a.988.988,0,0,1-.177-.073,2.281,2.281,0,0,0-1.009-.226,2.252,2.252,0,0,0-1.032.23,1.326,1.326,0,0,1-.14.065s-.047-.069-.1-.147a1.841,1.841,0,0,1-.112-.169c-.006-.014.049-.053.144-.1a2.911,2.911,0,0,1,1.205-.3C14.834-13.415,14.954-13.407,15.083-13.4Zm-1.9.818.12.169-.14.147a2.14,2.14,0,0,0-.543,1.028c-.043.208-.029.238.029.059a2.242,2.242,0,0,1,.317-.614,2.8,2.8,0,0,1,.431-.427c.026-.014.136.13.582.759.3.427.558.792.568.812A7.375,7.375,0,0,1,13.8-9.519c-.425.6-.783,1.089-.8,1.093a2.226,2.226,0,0,1-.45-.484,3.079,3.079,0,0,1-.488-1.135,4.343,4.343,0,0,1,.008-1.072,3.006,3.006,0,0,1,.44-1.038,3.732,3.732,0,0,1,.539-.594A1.14,1.14,0,0,1,13.186-12.579Zm3.721.043a2.838,2.838,0,0,1,.757,1.42,4.038,4.038,0,0,1,0,1.121,3,3,0,0,1-.478,1.085,2.226,2.226,0,0,1-.45.484c-.041-.01-1.567-2.177-1.553-2.208s.8-1.154.853-1.213c.028-.033.033-.031.077.029a1.825,1.825,0,0,1,.33.883c.008.061.022.094.039.094.037,0,.741-.114.747-.122a1.335,1.335,0,0,0-.041-.193,2.854,2.854,0,0,0-.295-.69,2.735,2.735,0,0,0-.415-.5c-.026-.018-.045-.037-.045-.047a2.146,2.146,0,0,1,.254-.352A2.275,2.275,0,0,1,16.906-12.536Zm-1.852-.006c.252.069.663.275.645.324s-.83,1.18-.844,1.166-.236-.33-.509-.714l-.494-.7.1-.035a1.607,1.607,0,0,1,.665-.085A2.07,2.07,0,0,1,15.054-12.542Zm.568,3.4c.38.537.7.989.7,1a1.77,1.77,0,0,1-.576.285,2.341,2.341,0,0,1-.881.13,2.341,2.341,0,0,1-.881-.13,1.7,1.7,0,0,1-.576-.287c.01-.022,1.264-1.8,1.4-1.988.047-.065.049-.065.083-.029C14.914-10.139,15.241-9.682,15.622-9.144Z" transform="translate(-8.588 17.367)"/>
      </g>
    </g>
    <g id="Mask_Group_28" data-name="Mask Group 28" transform="translate(8)" clip-path="url(#clip-path-2)">
      <g id="Layer_2" data-name="Layer 2" transform="translate(188.517 117.003)">
        <g id="Layer_1" data-name="Layer 1">
          <path id="Path_243" data-name="Path 243" d="M12.587,7.548h.587V9.457c0,.12.037.225.205.225s.2-.134.2-.242V7.548h.587V9.365c0,.424-.188.752-.792.752a.688.688,0,0,1-.789-.752V7.548"/>
          <path id="Path_244" data-name="Path 244" d="M14.98,9.217V9.4c0,.142.048.285.236.285.137,0,.2-.125.2-.251,0-.211-.174-.285-.328-.385a1.749,1.749,0,0,1-.447-.33.718.718,0,0,1-.171-.5.664.664,0,0,1,.6-.718,1.188,1.188,0,0,1,.142,0,.706.706,0,0,1,.743.649.669.669,0,0,1,0,.151h-.538c0-.145,0-.348-.194-.362a.179.179,0,0,0-.2.145v.023c-.017.151.06.228.179.308a4.649,4.649,0,0,1,.55.356.732.732,0,0,1,.216.6.681.681,0,0,1-.6.752.721.721,0,0,1-.157,0c-.541,0-.769-.3-.769-.635V9.217h.547"/>
          <path id="Path_245" data-name="Path 245" d="M7.1,12.305A4.856,4.856,0,1,0,2.259,7.434v.043A4.842,4.842,0,0,0,7.1,12.319h.02"/>
          <path id="Path_246" data-name="Path 246" d="M7.1,11.394A3.956,3.956,0,1,0,3.133,7.451h0A3.956,3.956,0,0,0,7.1,11.394" fill="#fff"/>
          <path id="Path_247" data-name="Path 247" d="M4.734,4.842h.894V7.748c0,.182.057.342.31.342s.308-.205.308-.367V4.874h.894V7.642c0,.647-.285,1.139-1.208,1.139-.758,0-1.2-.362-1.2-1.139v-2.8"/>
          <path id="Path_248" data-name="Path 248" d="M7.494,10.06V6.232h.894V9.294h1.1v.766H7.494"/>
          <path id="Path_249" data-name="Path 249" d="M5.825,9.289h.094c.043,0,.122,0,.125.105a.105.105,0,0,1-.1.111H5.825V9.291m0,.285h.114c.08,0,.1.051.1.111a.535.535,0,0,0,.02.151h.077c-.014,0-.02-.026-.023-.037s0-.088,0-.131a.114.114,0,0,0-.105-.114h0a.128.128,0,0,0,.114-.128c0-.14-.077-.171-.2-.171H5.759v.6h.066V9.591"/>
          <path id="Path_250" data-name="Path 250" d="M5.395,9.525a.544.544,0,1,0,.544-.544h0a.55.55,0,0,0-.544.544Zm.057,0a.49.49,0,1,1,.138.353.487.487,0,0,1-.138-.353Z"/>
          <path id="Path_251" data-name="Path 251" d="M1.005,8.428V8.26c0-.214-.077-.325-.185-.325-.185,0-.228.1-.228.262v1.25c0,.14.057.222.211.222.2,0,.216-.208.216-.359V9.083h.587V9.4c0,.43-.248.732-.855.732-.541,0-.752-.285-.752-.8V8.292a.7.7,0,0,1,.792-.8c.535,0,.8.216.8.726v.211H1.005"/>
          <path id="Path_252" data-name="Path 252" d="M1.655,3.367,1.561,3.3c-.131-.108-.225-.108-.285-.034A.168.168,0,0,0,1.31,3.5h.017l.732.55a.142.142,0,0,0,.2,0h0c.088-.12-.028-.219-.12-.285l-.134-.1.285-.359.179.134c.256.191.325.47.057.826a.5.5,0,0,1-.82.1L1.139,3.9A.51.51,0,0,1,.92,3.213a.538.538,0,0,1,.1-.131C1.239,2.8,1.5,2.7,1.8,2.928l.122.094-.254.345"/>
          <path id="Path_253" data-name="Path 253" d="M3.005,3.626l-1.2-1.4.33-.282.963,1.119.4-.345L3.734,3l-.729.629"/>
          <path id="Path_254" data-name="Path 254" d="M4.273,1.891l-.219.122-.285-.783h0l.5.661M4.3,2.66l-.145-.325.285-.168.231.285.382-.216L3.8.812l-.456.256L3.9,2.877l.376-.214"/>
          <path id="Path_255" data-name="Path 255" d="M5.44,1.481l.031.125c.026.1.08.185.214.154s.12-.122.1-.214c-.037-.151-.174-.179-.3-.219a1.2,1.2,0,0,1-.373-.157A.535.535,0,0,1,4.9.855.487.487,0,0,1,5.181.228H5.2A.57.57,0,0,1,5.3.205a.516.516,0,0,1,.655.322.447.447,0,0,1,.026.122l-.4.094c-.031-.1-.06-.248-.2-.225a.134.134,0,0,0-.12.142h0c.014.111.083.151.182.188a2.848,2.848,0,0,1,.453.16.535.535,0,0,1,.259.39.5.5,0,0,1-.285.641.39.39,0,0,1-.114.026c-.385.094-.6-.083-.658-.319L5.05,1.555l.39-.085"/>
          <path id="Path_256" data-name="Path 256" d="M6.836,1.273V1.4c0,.108.037.2.177.2s.142-.094.14-.188c0-.154-.131-.211-.248-.285A1.2,1.2,0,0,1,6.585.911.51.51,0,0,1,6.452.544.49.49,0,0,1,6.882,0H6.99a.516.516,0,0,1,.57.453.527.527,0,0,1,0,.134h-.4c0-.108,0-.256-.148-.262a.125.125,0,0,0-.145.1h0V.45A.228.228,0,0,0,7,.675a3.666,3.666,0,0,1,.4.256.547.547,0,0,1,.168.436.5.5,0,0,1-.416.57h0a.422.422,0,0,1-.12,0c-.4,0-.57-.211-.57-.453v-.2h.4"/>
          <path id="Path_257" data-name="Path 257" d="M7.8,1.917,8.175.108,8.6.2,8.226,2.005,7.8,1.917"/>
          <path id="Path_258" data-name="Path 258" d="M8.571,2.071,9.2.333l.957.348-.125.348-.553-.2-.111.308.507.185-.125.348-.507-.185-.268.735-.407-.148"/>
          <path id="Path_259" data-name="Path 259" d="M9.684,2.5,10.633.917l.373.222-.949,1.587L9.684,2.5"/>
          <path id="Path_260" data-name="Path 260" d="M10.337,2.894,11.553,1.5l.746.655-.242.276-.422-.367-.225.256.41.356-.245.279L11.169,2.6l-.262.3.441.387-.242.279-.769-.675"/>
          <path id="Path_261" data-name="Path 261" d="M12.727,3.19c.122.171.157.236,0,.37l-.479.365c-.194.154-.285.225-.447-.02l.926-.715M11.613,4.227a.664.664,0,0,0,.285.254.447.447,0,0,0,.43-.094l.652-.5a.467.467,0,0,0,.259-.413.994.994,0,0,0-.225-.439l-.285-.376-1.47,1.1.353.464"/>
          <path id="Path_262" data-name="Path 262" d="M3.261,14.122H2.544v.57h.8v.285H2.2V13.066H3.31v.285H2.544v.49h.718Z" fill="#231f20"/>
          <path id="Path_263" data-name="Path 263" d="M4.335,14.965V14.5H3.506v-.225l.746-1.139H4.66v1.105H4.9V14.5H4.66v.464Zm0-.726V13.41h0c-.057.114-.105.208-.162.31l-.336.5h0Z" fill="#231f20"/>
          <path id="Path_264" data-name="Path 264" d="M5.221,14.718a.735.735,0,0,0,.194,0,.681.681,0,0,0,.37-.14.7.7,0,0,0,.234-.407h0a.493.493,0,0,1-.4.165.538.538,0,0,1-.57-.5v-.066A.649.649,0,0,1,5.7,13.1h.031c.427,0,.655.336.655.78a1.117,1.117,0,0,1-.319.855,1,1,0,0,1-.627.251,1.268,1.268,0,0,1-.208,0Zm.191-.988a.3.3,0,0,0,.254.339H5.7a.33.33,0,0,0,.285-.151.2.2,0,0,0,.02-.1c0-.248-.088-.461-.313-.461C5.529,13.359,5.412,13.513,5.412,13.729Z" fill="#231f20"/>
          <path id="Path_265" data-name="Path 265" d="M7.121,13.444h0l-.336.168-.057-.262.444-.219h.285v1.832H7.121Z" fill="#231f20"/>
          <path id="Path_266" data-name="Path 266" d="M8.243,14.718a.715.715,0,0,0,.191,0,.706.706,0,0,0,.373-.134.7.7,0,0,0,.234-.407h0a.493.493,0,0,1-.4.165.538.538,0,0,1-.555-.521h0v-.046a.652.652,0,0,1,.632-.672h.028c.427,0,.655.336.655.78a1.139,1.139,0,0,1-.319.855,1,1,0,0,1-.627.251,1.268,1.268,0,0,1-.208,0Zm.179-.988a.308.308,0,0,0,.285.333h.037a.33.33,0,0,0,.285-.151.2.2,0,0,0,.02-.1c0-.248-.088-.461-.316-.461a.336.336,0,0,0-.3.37Z" fill="#231f20"/>
          <path id="Path_267" data-name="Path 267" d="M10.872,13.134v.222L10.1,14.965H9.733l.772-1.538H9.65v-.285Z" fill="#231f20"/>
          <path id="Path_268" data-name="Path 268" d="M12.419,14.04c0,.587-.231.957-.669.957s-.641-.385-.641-.943.234-.951.661-.951S12.419,13.5,12.419,14.04Zm-.971,0c0,.447.122.678.313.678s.31-.248.31-.686-.1-.678-.31-.678-.316.242-.313.7Z" fill="#231f20"/>
        </g>
      </g>
    </g>
    <g id="Mask_Group_29" data-name="Mask Group 29" transform="translate(4)" clip-path="url(#clip-path-3)">
      <g id="Layer_2-2" data-name="Layer 2" transform="translate(213.752 117)">
        <g id="Layer_1-2" data-name="Layer 1">
          <path id="Path_269" data-name="Path 269" d="M12.223,4.823H12.8V6.652c0,.111.028.222.194.222s.194-.139.194-.222V4.823h.554V6.6c0,.416-.194.721-.776.721-.5,0-.776-.222-.776-.721l.028-1.774" fill="#231f20"/>
          <path id="Path_270" data-name="Path 270" d="M2.439,12.5V10.061h.582v1.968h.693V12.5H2.439" fill="#231f20"/>
          <path id="Path_271" data-name="Path 271" d="M3.936,12.5V10.061h.582V12.5H3.936" fill="#231f20"/>
          <path id="Path_272" data-name="Path 272" d="M5.266,11.7v.166c0,.139.055.277.222.277s.194-.111.194-.249c0-.194-.166-.277-.333-.36a1.691,1.691,0,0,1-.443-.333.773.773,0,0,1-.166-.5.629.629,0,0,1,.582-.693H5.46a.665.665,0,0,1,.721.637h0v.166H5.654c0-.139,0-.333-.194-.36-.083-.028-.166.055-.194.139h0v.028c-.028.139.055.222.166.3.194.111.36.222.527.333a.734.734,0,0,1,.222.582.657.657,0,0,1-.582.721H5.46c-.527,0-.748-.3-.748-.61V11.7h.554" fill="#231f20"/>
          <path id="Path_273" data-name="Path 273" d="M6.375,10.061h1.5v.5H7.4V12.5H6.818V10.56H6.375v-.5" fill="#231f20"/>
          <path id="Path_274" data-name="Path 274" d="M8.093,12.5V10.061H9.4v.5H8.647V11h.721v.5H8.647v.527h.776V12.5H8.093" fill="#231f20"/>
          <path id="Path_275" data-name="Path 275" d="M10.282,10.5c.277,0,.36.028.388.3v.8c0,.333,0,.471-.388.443V10.5m.194,2a1.014,1.014,0,0,0,.5-.111.643.643,0,0,0,.249-.527V10.781a.657.657,0,0,0-.249-.61,1.244,1.244,0,0,0-.637-.111H9.7V12.5h.776" fill="#231f20"/>
          <path id="Path_276" data-name="Path 276" d="M14.523,6.43V6.6c0,.139.055.277.222.277s.194-.111.194-.249c0-.194-.166-.277-.333-.388a2.511,2.511,0,0,1-.443-.3.773.773,0,0,1-.166-.5.629.629,0,0,1,.582-.693h.139a.665.665,0,0,1,.721.637h0v.139h-.471c0-.139,0-.333-.194-.36-.083-.028-.166.055-.194.139v.028a.319.319,0,0,0,.166.3c.194.111.36.222.527.333a.734.734,0,0,1,.222.582.657.657,0,0,1-.582.721h-.139c-.527,0-.748-.3-.748-.61V6.4l.5.028" fill="#231f20"/>
          <path id="Path_277" data-name="Path 277" d="M6.873,9.423a4.712,4.712,0,1,1,4.712-4.712A4.712,4.712,0,0,1,6.873,9.423m0-.887A3.839,3.839,0,1,0,3.049,4.712h0A3.833,3.833,0,0,0,6.873,8.536" fill="#231f20"/>
          <path id="Path_278" data-name="Path 278" d="M4.573,2.19h.859v2.8c0,.166.055.333.3.333s.3-.194.3-.36V2.19h.887V4.878c0,.637-.277,1.109-1.164,1.109-.748,0-1.164-.36-1.164-1.109L4.573,2.19" fill="#231f20"/>
          <path id="Path_279" data-name="Path 279" d="M7.261,7.234V3.52h.887V6.513H9.2v.721H7.261" fill="#231f20"/>
          <path id="Path_280" data-name="Path 280" d="M.97,5.682V5.515c0-.222-.083-.3-.194-.3-.194,0-.222.083-.222.249V6.652c0,.139.055.222.194.222.194,0,.222-.194.222-.36V6.291h.582v.3c0,.416-.249.721-.831.721C.194,7.317,0,7.04,0,6.541v-1a.679.679,0,0,1,.776-.776c.527,0,.776.222.776.693v.194L.97,5.682" fill="#231f20"/>
          <g id="E489939">
            <path id="Path_281" data-name="Path 281" d="M2.824,14.135h-.7v.554h.787v.277H1.779V13.087H2.866v.277H2.12v.493h.7Z"/>
            <path id="Path_282" data-name="Path 282" d="M3.88,14.966V14.5H3.065v-.222L3.8,13.168h.4v1.086h.233v.258H4.2v.455Zm0-.715v-.815h0c-.055.114-.1.205-.158.3l-.33.493h0Z"/>
            <path id="Path_283" data-name="Path 283" d="M4.59,14.493a.5.5,0,0,1,.338-.468h0a.438.438,0,0,1-.277-.4.538.538,0,0,1,.615-.5c.388,0,.554.233.554.455a.452.452,0,0,1-.277.407h0a.485.485,0,0,1,.344.455c0,.322-.277.538-.657.538S4.59,14.745,4.59,14.493Zm.953-.017c0-.183-.136-.277-.335-.338a.33.33,0,0,0-.277.316.277.277,0,0,0,.3.291.277.277,0,0,0,.31-.269ZM4.989,13.6c0,.147.122.236.294.277a.291.291,0,0,0,.224-.277.241.241,0,0,0-.258-.255.238.238,0,0,0-.261.255Z"/>
            <path id="Path_284" data-name="Path 284" d="M6.239,14.711a.9.9,0,0,0,.188,0,.682.682,0,0,0,.366-.139.665.665,0,0,0,.23-.4h0a.5.5,0,0,1-.394.161.532.532,0,0,1-.554-.554.637.637,0,0,1,.651-.643c.419,0,.643.33.643.768a1.109,1.109,0,0,1-.313.831.992.992,0,0,1-.615.247,1.347,1.347,0,0,1-.205,0Zm.177-.965a.3.3,0,0,0,.3.33A.327.327,0,0,0,7,13.927a.205.205,0,0,0,.019-.1c0-.244-.089-.455-.31-.455-.172,0-.3.152-.3.371Z"/>
            <path id="Path_285" data-name="Path 285" d="M7.724,14.711a.9.9,0,0,0,.188,0,.682.682,0,0,0,.366-.139.665.665,0,0,0,.23-.4h0a.5.5,0,0,1-.394.161.532.532,0,0,1-.554-.554.637.637,0,0,1,.651-.643c.419,0,.643.33.643.768a1.109,1.109,0,0,1-.313.831.992.992,0,0,1-.615.247,1.347,1.347,0,0,1-.205,0Zm.177-.965a.3.3,0,0,0,.3.33.327.327,0,0,0,.291-.15.205.205,0,0,0,.019-.1c0-.244-.089-.455-.31-.455a.334.334,0,0,0-.3.371Z"/>
            <path id="Path_286" data-name="Path 286" d="M9.146,14.6a.892.892,0,0,0,.41.111c.261,0,.366-.147.363-.277,0-.213-.2-.3-.407-.3H9.354v-.249h.152c.158,0,.358-.072.358-.252,0-.122-.091-.224-.277-.224a.726.726,0,0,0-.369.114l-.078-.247a.973.973,0,0,1,.518-.139c.371,0,.554.205.554.441A.441.441,0,0,1,9.881,14h0a.455.455,0,0,1,.4.449c0,.3-.255.554-.7.554a.984.984,0,0,1-.5-.125Z"/>
            <path id="Path_287" data-name="Path 287" d="M10.7,14.711a.9.9,0,0,0,.188,0,.682.682,0,0,0,.366-.139.665.665,0,0,0,.23-.4h0a.5.5,0,0,1-.394.161.532.532,0,0,1-.554-.554.637.637,0,0,1,.651-.643c.419,0,.643.33.643.768a1.109,1.109,0,0,1-.313.831.992.992,0,0,1-.615.247,1.347,1.347,0,0,1-.205,0Zm.177-.965a.3.3,0,0,0,.3.33.327.327,0,0,0,.291-.15.205.205,0,0,0,.019-.1c0-.244-.089-.455-.31-.455-.172,0-.3.152-.3.371Z"/>
          </g>
          <circle id="Ellipse_5" data-name="Ellipse 5" cx="0.502" cy="0.502" r="0.502" transform="translate(5.219 6.214)" fill="none" stroke="#000" stroke-width="0.055"/>
          <path id="Path_288" data-name="Path 288" d="M5.61,6.483H5.7c.042,0,.119,0,.122.1a.1.1,0,0,1-.086.105H5.61V6.483m0,.277h.114c.075,0,.1.05.1.108a.521.521,0,0,0,.019.147h.075a.158.158,0,0,1-.022-.036V6.851a.108.108,0,0,0-.1-.108h0A.125.125,0,0,0,5.9,6.618c0-.133-.075-.166-.194-.166h-.15v.579h.064V6.754"/>
        </g>
      </g>
    </g>
    <g id="Mask_Group_30" data-name="Mask Group 30" transform="translate(1.533 1)" clip-path="url(#clip-path-4)">
      <g id="Layer_2-3" data-name="Layer 2" transform="translate(236.503 121.312)">
        <g id="Ebene_1" data-name="Ebene 1" transform="translate(0 0)">
          <path id="Path_289" data-name="Path 289" d="M0,4.323V.092H2.18A3.131,3.131,0,0,1,3.109.2a.975.975,0,0,1,.515.384,1.174,1.174,0,0,1,.191.687,1.169,1.169,0,0,1-.153.608,1.153,1.153,0,0,1-.392.414,1.608,1.608,0,0,1-.46.169,1.308,1.308,0,0,1,.341.155,1.362,1.362,0,0,1,.207.223,1.507,1.507,0,0,1,.183.272l.64,1.221H2.692l-.7-1.311a.97.97,0,0,0-.24-.324.545.545,0,0,0-.322-.1H1.319V4.313ZM1.319,1.806h.545a1.986,1.986,0,0,0,.346-.057.332.332,0,0,0,.213-.134A.392.392,0,0,0,2.5,1.37a.392.392,0,0,0-.131-.316A.79.79,0,0,0,1.888.945H1.319Z" transform="translate(0 -0.019)" fill="#231f20"/>
          <path id="Path_290" data-name="Path 290" d="M5.716,3.188A1.534,1.534,0,0,1,6.19,2.03a1.768,1.768,0,0,1,1.281-.458,1.763,1.763,0,0,1,1.4.545,1.556,1.556,0,0,1,.379,1.06,1.537,1.537,0,0,1-.471,1.161,1.793,1.793,0,0,1-1.3.436,1.823,1.823,0,0,1-1.2-.376A1.515,1.515,0,0,1,5.716,3.188Zm1.18,0a.916.916,0,0,0,.166.6.523.523,0,0,0,.42.2A.529.529,0,0,0,7.9,3.8a.967.967,0,0,0,.163-.624.9.9,0,0,0-.166-.58.507.507,0,0,0-.4-.207.545.545,0,0,0-.439.207.926.926,0,0,0-.169.594Z" transform="translate(-1.509 -0.41)" fill="#231f20"/>
          <path id="Path_291" data-name="Path 291" d="M11.385.093h1.308V1.569h1.428V.093h1.316V4.324H14.121V2.61H12.693V4.324H11.385Z" transform="translate(-3.006 -0.02)" fill="#231f20"/>
          <path id="Path_292" data-name="Path 292" d="M17.772,2.889l1.248-.076a.973.973,0,0,0,.163.463.684.684,0,0,0,.575.272.632.632,0,0,0,.428-.131.373.373,0,0,0,0-.6,1.733,1.733,0,0,0-.67-.243,2.823,2.823,0,0,1-1.226-.515,1.03,1.03,0,0,1-.368-.817A1.112,1.112,0,0,1,18.11.631a1.237,1.237,0,0,1,.575-.466A2.621,2.621,0,0,1,19.723,0a2.117,2.117,0,0,1,1.234.3,1.311,1.311,0,0,1,.507.962l-1.24.074a.659.659,0,0,0-.207-.417.668.668,0,0,0-.433-.128.545.545,0,0,0-.343.1.3.3,0,0,0-.114.234.237.237,0,0,0,.093.183,1.112,1.112,0,0,0,.46.155,5.45,5.45,0,0,1,1.226.371,1.283,1.283,0,0,1,.545.469,1.191,1.191,0,0,1,.169.624,1.338,1.338,0,0,1-.226.749,1.409,1.409,0,0,1-.627.52,2.561,2.561,0,0,1-1.019.177,2.09,2.09,0,0,1-1.493-.42,1.635,1.635,0,0,1-.482-1.06Z" transform="translate(-4.693 0.006)" fill="#231f20"/>
        </g>
      </g>
    </g>
    <g id="Mask_Group_27" data-name="Mask Group 27" transform="translate(-38.933 2)" clip-path="url(#clip-path-5)">
      <g id="IP65" transform="translate(235 134.523)">
        <path id="Path_239" data-name="Path 239" d="M6.361-11.258a2.5,2.5,0,0,0-.881.275l-.153.085v-.25H3.777v7.834h1.55v-3.08l.151.074a2.143,2.143,0,0,0,1.046.236,2.4,2.4,0,0,0,1.718-.68,2.611,2.611,0,0,0,.738-1.821,2.4,2.4,0,0,0-1.988-2.666A3.761,3.761,0,0,0,6.361-11.258Zm.395,1.228a1.173,1.173,0,0,1,.752.856,2.835,2.835,0,0,1,.033.81,1.136,1.136,0,0,1-1.16,1.1,1.2,1.2,0,0,1-.537-.118,1.27,1.27,0,0,1-.463-.467l-.056-.12.006-.676.006-.676.072-.143A1.116,1.116,0,0,1,6.755-10.03Z" transform="translate(-1.979 11.269)"/>
        <path id="Path_240" data-name="Path 240" d="M13.537-11.25c-1.015.1-1.368.378-1.5,1.188-.048.283-.048,4.89,0,5.242.105.8.376,1.172.986,1.35a3.636,3.636,0,0,0,1.184.126,3.81,3.81,0,0,0,1.122-.1c.666-.167.947-.519,1.071-1.333a19.508,19.508,0,0,0,.031-2.17c-.037-.635-.087-.821-.267-1.017a1.371,1.371,0,0,0-1.106-.409,1.7,1.7,0,0,0-1.081.322c-.11.072-.2.132-.207.132s-.006-1.569.012-1.734c.033-.3.124-.38.422-.38.262,0,.368.052.426.213a1.855,1.855,0,0,1,.035.356l.012.285h1.589l-.01-.544a3.751,3.751,0,0,0-.043-.674c-.12-.471-.5-.742-1.16-.829A14.215,14.215,0,0,0,13.537-11.25Zm.951,4.167a.41.41,0,0,1,.112.112c.039.07.041.107.045,1.054a4.632,4.632,0,0,1-.031,1.085c-.048.138-.122.18-.345.192a.485.485,0,0,1-.387-.093c-.1-.1-.11-.182-.11-1.174a3.932,3.932,0,0,1,.037-1,.278.278,0,0,1,.194-.2A.815.815,0,0,1,14.488-7.083Z" transform="translate(-4.172 11.267)"/>
        <path id="Path_241" data-name="Path 241" d="M18.556-11.138s-.008.943-.008,2.083v2.073h1.5l.012-.172c.027-.372.112-.457.469-.459.24,0,.356.045.42.161L21-7.364v2.5l-.048.087c-.07.132-.141.161-.387.161-.325,0-.389-.056-.424-.368-.012-.093-.021-.316-.021-.5V-5.8l-.821,0-.823.006,0,.492a3.529,3.529,0,0,0,.128,1.126.962.962,0,0,0,.55.645,3.19,3.19,0,0,0,1.468.217,3.791,3.791,0,0,0,1.224-.126c.546-.157.783-.473.885-1.176.037-.254.043-2.437.008-2.856a3.389,3.389,0,0,0-.145-.781c-.163-.438-.521-.616-1.238-.618a1.572,1.572,0,0,0-.506.045,1.619,1.619,0,0,0-.577.306l-.136.112V-9.813h2.336l0-.663-.006-.661-1.949,0C19.443-11.144,18.56-11.142,18.556-11.138Z" transform="translate(-5.898 11.235)"/>
        <path id="Path_242" data-name="Path 242" d="M1.325-7.188v3.917h1.55v-7.834H1.325Z" transform="translate(-1.325 11.225)"/>
      </g>
    </g>
  </g>
</svg>
