<?xml version="1.0" encoding="UTF-8"?>
<!DOCTYPE svg PUBLIC "-//W3C//DTD SVG 1.1//EN" "http://www.w3.org/Graphics/SVG/1.1/DTD/svg11.dtd">
<!-- Creator: CorelDRAW 2021 (64-Bit Not for commercial use) -->
<svg xmlns="http://www.w3.org/2000/svg" xml:space="preserve" width="0.913787in" height="0.420067in" version="1.1" style="shape-rendering:geometricPrecision; text-rendering:geometricPrecision; image-rendering:optimizeQuality; fill-rule:evenodd; clip-rule:evenodd"
viewBox="0 0 254.65 117.06"
 xmlns:xlink="http://www.w3.org/1999/xlink"
 xmlns:xodm="http://www.corel.com/coreldraw/odm/2003">
 <defs>
  <style type="text/css">
   <![CDATA[
    .str3 {stroke:#373435;stroke-width:1.43;stroke-miterlimit:3.864}
    .str2 {stroke:#373435;stroke-width:1.49;stroke-miterlimit:3.864}
    .str4 {stroke:#373435;stroke-width:1.51;stroke-miterlimit:3.864}
    .str0 {stroke:#231F20;stroke-width:1.1;stroke-miterlimit:2.61313}
    .str1 {stroke:#373435;stroke-width:0.84;stroke-miterlimit:22.9256}
    .fil7 {fill:none}
    .fil11 {fill:none;fill-rule:nonzero}
    .fil8 {fill:#373435}
    .fil12 {fill:#373435}
    .fil6 {fill:#010101}
    .fil2 {fill:#231F20}
    .fil3 {fill:white}
    .fil9 {fill:#373435;fill-rule:nonzero}
    .fil10 {fill:#373435;fill-rule:nonzero}
    .fil1 {fill:black;fill-rule:nonzero}
    .fil4 {fill:#010101;fill-rule:nonzero}
    .fil0 {fill:#231F20;fill-rule:nonzero}
    .fil5 {fill:white;fill-rule:nonzero}
   ]]>
  </style>
 </defs>
 <g id="Layer_x0020_1">
  <metadata id="CorelCorpID_0Corel-Layer"/>
  <g id="UI_icons">
   <g>
    <path class="fil0" d="M10.96 26.03l-0.15 -22.59 11.57 -0.05c1.75,-0.13 3.26,0.09 4.93,0.53 1.1,0.36 1.97,1.06 2.8,1.97 0.61,1.06 0.98,2.48 1,3.65 0.02,1.17 -0.34,2.29 -0.86,3.18 -0.54,1.09 -1.22,1.77 -2.06,2.23 -0.83,0.46 -1.65,0.73 -2.46,1 0.57,0.08 1.3,0.39 1.8,0.85 0.35,0.25 0.86,0.71 1.18,1.14 0.32,0.44 0.64,0.87 0.94,1.5l3.28 6.51 -7.9 0.01 -3.6 -6.95c-0.29,-0.63 -0.77,-1.28 -1.28,-1.75 -0.51,-0.47 -1.08,-0.55 -1.64,-0.63l-0.59 0.11 0 9.15 -6.95 0.14zm6.81 -13.59l2.89 0.03c0.78,-0.08 1.37,-0.19 1.97,-0.29 0.41,-0.14 0.81,-0.27 1.08,-0.81 0.25,-0.36 0.49,-0.71 0.39,-1.3 0.08,-0.58 -0.21,-1.2 -0.72,-1.66 -0.69,-0.49 -1.64,-0.63 -2.61,-0.58l-2.91 0.16 -0.08 4.46z"/>
    <path class="fil0" d="M33.16 17.81c-0.04,-2.34 0.89,-4.73 2.46,-6.25 1.79,-1.68 4.25,-2.68 6.72,-2.51 2.72,-0.18 5.47,0.8 7.48,2.85 1.31,1.56 1.97,3.6 1.85,5.72 0.23,2.36 -0.67,4.57 -2.43,6.06 -1.79,1.69 -4.25,2.68 -6.91,2.49 -2.13,0.08 -4.34,-0.64 -6.25,-2.09 -1.91,-1.45 -3.08,-3.95 -2.93,-6.27zm6.17 -0.06c-0.17,1.14 0.26,2.18 0.87,3.24 0.48,0.65 1.4,0.98 2.18,0.9 0.95,0.14 1.78,-0.32 2.27,-1.02 0.71,-0.87 0.9,-2.21 0.88,-3.37 0.14,-0.95 -0.25,-2.18 -0.9,-3.05 -0.48,-0.66 -1.21,-0.95 -2.15,-1.09 -0.79,0.08 -1.63,0.53 -2.3,1.22 -0.52,0.9 -0.87,2.01 -0.86,3.18z"/>
    <polygon class="fil0" points="55.16,3.14 62.08,3.19 62.1,10.97 69.61,10.91 69.6,3.13 76.56,2.98 76.68,25.76 69.57,25.69 69.56,16.54 62.04,16.6 62.04,25.75 55.12,25.71 "/>
    <path class="fil0" d="M79.93 18.07l6.6 -0.39c0.08,0.78 0.5,1.82 0.99,2.47 0.64,0.87 1.9,1.45 3.06,1.42 0.76,0.12 1.57,-0.15 2.22,-0.65 0.87,-0.65 1.06,-1.98 0.42,-2.85 -0.16,-0.22 -0.34,-0.24 -0.51,-0.47 -1.08,-0.55 -2.15,-1.09 -3.5,-1.1 -2.23,-0.52 -4.6,-1.45 -6.51,-2.9 -1.21,-0.96 -1.93,-2.62 -1.89,-4.17 -0.02,-1.17 0.36,-2.47 0.88,-3.37 0.73,-1.06 1.84,-2.06 3.06,-2.47 1.84,-0.71 3.62,-1.03 5.53,-0.94 2.35,-0.23 4.58,0.28 6.52,1.54 1.56,1.2 2.62,3.11 2.72,5.07l-6.64 0.58c-0.05,-0.98 -0.31,-1.79 -1.01,-2.29 -0.69,-0.5 -1.42,-0.79 -2.21,-0.71 -0.75,-0.11 -1.37,0.19 -1.81,0.51 -0.43,0.33 -0.71,0.87 -0.76,1.25 0.13,0.41 0.27,0.82 0.61,1.07 0.7,0.49 1.45,0.6 2.4,0.74 2.26,0.33 4.47,1.04 6.46,1.93 1.27,0.57 2.1,1.47 2.89,2.56 0.62,1.06 0.85,2.07 0.87,3.24 -0.04,1.56 -0.42,2.86 -1.18,4.1 -0.76,1.25 -1.87,2.26 -3.3,2.82 -1.62,0.54 -3.62,1.03 -5.35,0.97 -3.86,0.02 -6.44,-0.75 -7.94,-2.33 -1.53,-1.4 -2.38,-3.47 -2.64,-5.64z"/>
   </g>
   <g id="IP65">
    <path class="fil1" d="M138.24 0.14c-1.2,0.09 -2.68,0.5 -3.65,1.11l-0.52 0.22 0.03 -0.42 -0.05 -0.61 -3.07 0.04 -3.07 0.04 0.19 15.72 -0.05 15.62 3.07 -0.04 3.07 -0.04 0.13 -6.09 -0.12 -6.19 0.58 0.38c1.32,0.69 2.59,0.79 4.11,0.98 2.65,-0.07 5.1,-1.1 6.84,-2.86 1.9,-1.83 2.74,-4.27 2.93,-7.26 0.1,-5.66 -3.12,-9.92 -7.94,-10.61 -0.67,-0.13 -1.95,-0.22 -2.47,-0zm1.4 4.82c1.43,0.44 2.62,1.82 3.11,3.48 0.22,0.53 0.19,2.42 0.13,3.28 -0.44,2.89 -2.07,4.4 -4.54,4.39 -0.85,-0.06 -1.53,-0.19 -2.1,-0.57 -0.67,-0.14 -1.54,-1.23 -1.84,-1.94l-0.33 -0.28 0.09 -2.74 -0.08 -2.67 0.38 -0.58c0.98,-2.07 3.09,-2.95 5.18,-2.37z"/>
    <path class="fil1" d="M157.95 0c-4.13,0.48 -5.48,1.67 -6.02,4.8 -0.15,1.11 -0.05,19.57 0.12,20.96 0.55,3.3 1.57,4.75 4.09,5.36 1.43,0.44 2.28,0.5 4.57,0.58 2.47,0.01 3.25,-0.11 4.55,-0.44 2.61,-0.67 3.71,-1.97 4.18,-5.28 0.15,-1.11 0.16,-6.52 0.04,-8.76 -0.19,-2.41 -0.31,-3.2 -1.04,-3.94 -1.11,-1.2 -2.36,-1.71 -4.41,-1.69 -1.87,-0.05 -2.93,0.39 -4.18,1.33 -0.52,0.22 -0.88,0.37 -0.88,0.37 -0.17,0.08 -0.12,-6.19 0.01,-6.86 0.15,-1.11 0.43,-1.43 1.63,-1.52 1.02,-0.01 1.35,0.27 1.64,0.98 0,0 0.12,0.78 0.17,1.39l0.02 1.03 3.14 0.14 3.25 -0.11 -0.12 -2.24c0.01,-1.45 -0.11,-2.23 -0.26,-2.59 -0.39,-1.92 -1.86,-2.97 -4.48,-3.33 -1.1,-0.16 -5.02,-0.18 -6.05,-0.17zm3.89 16.68c0.07,0.17 0.32,0.28 0.4,0.45 0.15,0.36 0.22,0.53 0.15,4.3 0.03,3.53 0.18,3.88 -0.02,4.38 -0.2,0.5 -0.56,0.65 -1.34,0.76 -0.85,-0.06 -1.27,-0.09 -1.59,-0.37 -0.4,-0.46 -0.38,-0.88 -0.55,-4.77 0.04,-3.34 0.15,-3.59 0.18,-4.02 0.19,-0.5 0.37,-0.57 0.9,-0.8 0.35,-0.14 1.45,0.02 1.87,0.05z"/>
    <path class="fil1" d="M170.89 0.41c0,0 0.11,3.7 0.16,8.25l-0.02 8.33 3.08 -0.04 2.9 0.03 0.13 -0.68c0.01,-1.46 0.28,-1.79 1.73,-1.77 1.02,-0.01 1.52,0.19 1.67,0.55l0.15 0.36 0.03 4.98 0.1 5.16 -0.1 0.25c-0.38,0.57 -0.56,0.65 -1.58,0.66 -1.28,-0.09 -1.52,-0.19 -1.7,-1.58 -0.07,-0.18 -0.09,-1.21 -0.14,-1.82l0.01 -1.46 -3.25 0.11 -3.25 0.11 -0.03 1.89c0.11,2.24 0.21,3.45 0.65,4.51 0.34,1.32 1.07,2.05 2.13,2.64 1.5,0.62 2.77,0.71 5.85,0.68 2.55,0.18 3.5,-0.01 4.79,-0.35 2.18,-0.7 3.11,-1.92 3.55,-4.81 0.23,-0.93 0.1,-9.61 -0.04,-11.42 -0.1,-1.21 -0.37,-2.35 -0.66,-3.05 -0.57,-1.85 -2.06,-2.47 -4.96,-2.5 -1.02,0.01 -1.45,-0.02 -1.98,0.2 -0.7,0.29 -1.57,0.66 -2.2,1.13l-0.63 0.47 0.09 -2.74 -0.17 -2.85 4.77 0.09 4.53 -0.02 -0.09 -2.67 0.09 -2.74 -7.77 0.13c-4.34,-0.05 -7.84,-0.05 -7.84,-0.05z"/>
    <polygon class="fil1" points="120.84,16.15 121.04,31.87 124.11,31.84 127.18,31.8 127.06,16.25 126.87,0.53 123.8,0.57 120.72,0.6 "/>
   </g>
   <g id="CB">
    <g id="Layer_2" data-name="Layer 2">
     <g id="Layer_1-2" data-name="Layer 1">
      <polygon class="fil2" points="225.68,0.73 223.47,0.73 222.54,0.75 221.63,0.8 220.73,0.9 219.86,1.03 218.99,1.19 218.14,1.38 217.32,1.61 216.5,1.87 215.71,2.16 214.93,2.48 214.18,2.83 213.45,3.21 212.75,3.61 212.07,4.04 211.42,4.5 210.8,4.97 210.2,5.48 209.64,6 209.1,6.55 208.6,7.12 208.14,7.7 207.7,8.3 207.31,8.93 206.94,9.57 206.62,10.23 206.34,10.89 206.1,11.58 205.89,12.28 205.74,12.99 205.62,13.71 205.56,14.43 205.53,15.17 205.53,15.17 205.52,15.99 205.56,16.78 205.64,17.56 205.78,18.32 205.95,19.07 206.17,19.79 206.44,20.49 206.75,21.18 207.1,21.85 207.48,22.5 207.9,23.11 208.37,23.72 208.87,24.29 209.4,24.83 209.96,25.36 210.56,25.85 211.19,26.34 211.84,26.78 212.52,27.19 213.25,27.58 213.98,27.93 214.74,28.26 215.53,28.55 216.34,28.81 217.16,29.03 218.02,29.22 218.89,29.39 219.77,29.51 220.67,29.6 221.59,29.64 222.51,29.66 223.47,29.63 225.68,29.63 225.68,25.87 223.56,25.87 222.83,25.87 222.11,25.85 221.4,25.8 220.7,25.72 220.02,25.61 219.36,25.48 218.7,25.33 218.06,25.14 217.44,24.94 216.84,24.71 216.25,24.46 215.69,24.19 215.14,23.89 214.62,23.58 214.12,23.25 213.64,22.89 213.2,22.52 212.77,22.14 212.37,21.73 212,21.3 211.66,20.87 211.35,20.42 211.06,19.95 210.82,19.46 210.6,18.97 210.42,18.46 210.27,17.94 210.16,17.41 210.08,16.87 210.05,16.32 210.05,15.75 210.09,15.17 210.09,15.17 210.1,14.63 210.16,14.09 210.24,13.56 210.36,13.03 210.51,12.51 210.7,12.01 210.91,11.51 211.15,11.02 211.42,10.55 211.72,10.09 212.04,9.64 212.4,9.21 212.77,8.78 213.18,8.39 213.59,7.99 214.04,7.62 214.52,7.27 215,6.94 215.51,6.61 216.04,6.31 216.59,6.03 217.15,5.78 217.73,5.54 218.33,5.32 218.93,5.13 219.56,4.96 220.2,4.82 220.85,4.7 221.51,4.61 222.19,4.54 222.87,4.49 223.56,4.48 225.68,4.48 225.68,0.73 "/>
      <path class="fil2" d="M228.82 0.42l13.27 0 0.54 0.06 0.55 0.09 0.53 0.13 0.53 0.15 0.52 0.2 0.5 0.22 0.48 0.26 0.47 0.29 0.45 0.32 0.43 0.34 0.4 0.38 0.38 0.39 0.36 0.42 0.33 0.43 0.29 0.45 0.26 0.48 0.23 0.49 0.18 0.51 0.15 0.52 0.11 0.54 0.06 0.55 0 0.57 0 0.57 -0.08 0.58 -0.13 0.59 -0.18 0.6 -0.25 0.6 -0.29 0.6 -0.37 0.6 -0.42 0.61 -0.48 0.6 -0.55 0.6 0.63 0.44 0.6 0.48 0.53 0.5 0.49 0.54 0.43 0.56 0.39 0.58 0.34 0.6 0.29 0.62 0.23 0.63 0.19 0.63 0.13 0.65 0.08 0.65 0 0.64 0 0.65 -0.08 0.65 -0.12 0.63 -0.17 0.62 -0.23 0.61 -0.28 0.59 -0.33 0.56 -0.39 0.55 -0.44 0.51 -0.49 0.48 -0.54 0.45 -0.6 0.41 -0.65 0.38 -0.7 0.34 -0.76 0.29 -0.81 0.24 -0.87 0.19 -0.96 0.13 -0.96 0.08 -13.23 0 0 -29.55zm4.61 4.68l8.61 0 0.16 0 0.15 0 0.15 0 0.15 0 0.14 0 0.14 0.06 0.14 0.07 0.13 0.07 0.13 0.08 0.13 0.09 0.13 0.09 0.13 0.1 0.12 0.1 0.11 0.11 0.05 0.36 0.11 0.12 0.1 0.12 0.09 0.13 0.09 0.13 0.07 0.13 0.08 0.13 0.06 0.14 0.06 0.14 0.06 0.14 0 0.15 0 0.15 0 0.15 0 0.15 0 1.56 0 0.16 0 0.15 0 0.15 0 0.15 -0.06 0.14 -0.06 0.14 -0.06 0.14 -0.08 0.13 -0.07 0.13 -0.09 0.13 -0.09 0.13 -0.1 0.13 -0.11 0.12 -0.11 0.12 -0.11 0.1 -0.12 0.11 -0.13 0.1 -0.13 0.09 -0.13 0.09 -0.13 0.08 -0.13 0.07 -0.14 0.07 -0.14 0.06 -0.14 0.05 -0.15 0 -0.15 0 -0.15 0 -0.16 0 -8.56 0 0 -7.19zm0 11.8l9.31 0 0.18 0 0.17 0 0.17 0 0.17 0 0.16 0.05 0.16 0.06 0.15 0.06 0.16 0.08 0.14 0.08 0.15 0.09 0.13 0.09 0.14 0.1 0.13 0.11 0.13 0.12 0.13 0.12 0.12 0.12 0.11 0.13 0.11 0.13 0.1 0.13 0.1 0.14 0.08 0.14 0.09 0.15 0.07 0.15 0.07 0.15 0 0.16 0 0.16 0.08 0.25 0 0.17 0 0.17 0 1.77 0 0.17 0 0.17 0 0.17 0 0.16 0 0.16 -0.07 0.15 -0.07 0.16 -0.09 0.14 -0.08 0.15 -0.1 0.13 -0.1 0.14 -0.11 0.13 -0.11 0.13 -0.12 0.13 -0.13 0.12 -0.13 0.11 -0.13 0.11 -0.14 0.1 -0.13 0.1 -0.15 0.09 -0.14 0.08 -0.16 0.07 -0.15 0.07 -0.16 0.05 -0.16 0.05 -0.17 0 -0.17 0 -0.17 0 -9.57 0 0 -7.93z"/>
     </g>
    </g>
   </g>
   <g id="CE" data-name="Layer 2">
    <g id="Layer_1-2_0" data-name="Layer 1">
     <polygon class="fil3" points="52.96,105.06 108.48,105.06 108.48,49.55 52.96,49.55 52.96,105.06 "/>
     <path class="fil2" d="M76.66 97.86c-11.26,-0.13 -20.32,-9.3 -20.32,-20.56 0,-11.26 9.06,-20.43 20.32,-20.56l2.78 -0 0 5.56 -2.78 0c-8.28,0 -15,6.72 -15,15 0,8.28 6.72,15 15,15l2.78 0 0 5.55 -2.78 0z"/>
     <path class="fil2" d="M100.92 92.31l2.78 0 0 5.55 -2.78 0c-0.08,-0 -0.16,0 -0.24,0 -11.35,0 -20.56,-9.21 -20.56,-20.56 0,-11.35 9.21,-20.56 20.56,-20.56 0.08,0 0.17,0 0.24,0l2.78 -0 0 5.56 -2.78 0c-7.21,0.01 -13.4,5.15 -14.74,12.23l12.04 -0 0 5.55 -12.04 0c1.34,7.08 7.53,12.21 14.73,12.22l0 0z"/>
    </g>
   </g>
   <g id="REACH">
    <path class="fil4" d="M119.69 64.96l27.36 0c0.5,0 0.91,0.41 0.91,0.91l0 33.72c0,0.5 -0.41,0.91 -0.91,0.91l-27.36 0c-0.5,0 -0.91,-0.41 -0.91,-0.91l0 -33.72c0,-0.5 0.41,-0.91 0.91,-0.91z"/>
    <polygon class="fil5" points="133.33,70.75 133.85,71.75 135,71.91 134.16,72.7 134.36,73.8 133.33,73.28 132.3,73.8 132.5,72.7 131.67,71.91 132.82,71.75 "/>
    <polygon class="fil5" points="127.84,72.27 128.36,73.28 129.51,73.44 128.68,74.22 128.87,75.32 127.84,74.8 126.81,75.32 127.01,74.22 126.17,73.44 127.33,73.28 "/>
    <polygon class="fil5" points="123.82,76.24 124.33,77.24 125.48,77.4 124.65,78.18 124.85,79.29 123.82,78.76 122.79,79.29 122.99,78.18 122.15,77.4 123.3,77.24 "/>
    <polygon class="fil5" points="138.87,72.27 139.38,73.28 140.53,73.44 139.7,74.22 139.9,75.32 138.87,74.8 137.84,75.32 138.03,74.22 137.2,73.44 138.35,73.28 "/>
    <polygon class="fil5" points="142.89,76.24 143.41,77.24 144.56,77.4 143.72,78.18 143.92,79.29 142.89,78.76 141.86,79.29 142.06,78.18 141.22,77.4 142.38,77.24 "/>
    <polygon class="fil5" points="144.36,81.29 144.87,82.29 146.02,82.46 145.19,83.24 145.39,84.34 144.36,83.82 143.33,84.34 143.52,83.24 142.69,82.46 143.84,82.29 "/>
    <polygon class="fil5" points="142.89,86.71 143.41,87.72 144.56,87.88 143.72,88.66 143.92,89.76 142.89,89.24 141.86,89.76 142.06,88.66 141.22,87.88 142.38,87.72 "/>
    <polygon class="fil5" points="138.87,90.58 139.38,91.59 140.53,91.75 139.7,92.53 139.9,93.63 138.87,93.11 137.84,93.63 138.03,92.53 137.2,91.75 138.35,91.59 "/>
    <polygon class="fil5" points="133.32,92.11 133.84,93.11 134.99,93.27 134.15,94.05 134.35,95.16 133.32,94.64 132.29,95.16 132.49,94.05 131.65,93.27 132.8,93.11 "/>
    <polygon class="fil5" points="127.84,90.58 128.36,91.59 129.51,91.75 128.68,92.53 128.87,93.63 127.84,93.11 126.81,93.63 127.01,92.53 126.17,91.75 127.33,91.59 "/>
    <polygon class="fil5" points="123.82,86.71 124.33,87.72 125.48,87.88 124.65,88.66 124.85,89.76 123.82,89.24 122.79,89.76 122.99,88.66 122.15,87.88 123.3,87.72 "/>
    <polygon class="fil5" points="122.35,81.29 122.87,82.29 124.02,82.46 123.19,83.24 123.38,84.34 122.35,83.82 121.32,84.34 121.52,83.24 120.69,82.46 121.84,82.29 "/>
    <g>
     <path id="path0" class="fil6" d="M138 56.44c-3.28,0.73 -3.44,6.15 -0.22,6.99 0.29,0.06 0.59,0.09 0.89,0.09 0.62,0 1.24,-0.13 1.81,-0.38l0.27 -0.14 0 -0.69c0,-0.06 0,-0.12 0,-0.17 0,-0.17 -0.01,-0.34 -0.03,-0.52 -0.02,0 -0.24,0.11 -0.5,0.25 -1.64,0.87 -3.26,-0.09 -3.25,-1.95 0,-1.72 1.64,-2.68 3.25,-1.91l0.46 0.22 0 -1.37 -0.42 -0.18c-0.47,-0.21 -0.99,-0.32 -1.5,-0.32 -0.26,0 -0.51,0.03 -0.76,0.08l0 0.01zm-18.34 3.49l0 3.51 1.46 0 0 -1.44c0.03,-1.01 0,-1.28 0.48,-1.28 0.46,0.02 0.77,0.34 1.33,1.63l0.47 1.09 1.57 0 -0.6 -1.34c-0.24,-0.58 -0.55,-1.15 -0.9,-1.68l-0.29 -0.34 0.29 -0.24c0.99,-0.82 0.75,-2.58 -0.41,-3.17 -0.35,-0.18 -0.51,-0.19 -1.9,-0.23l-1.51 -0.04 0 3.51 -0 0zm5.46 0l0 3.51 3.92 0 0 -1.24 -2.48 0 0 -1.73 2.26 0 0 -1.15 -1.11 -0.02 -1.11 -0.02 -0.02 -0.8 -0.02 -0.8 2.41 0 0 -1.24 -3.86 0 0 3.5 0 -0.01zm6.41 -3.31c-0.04,0.1 -0.58,1.61 -1.21,3.36 -0.63,1.74 -1.16,3.24 -1.18,3.32 -0.03,0.13 0.04,0.14 0.75,0.14l0.79 0 0.24 -0.79 0.24 -0.78 1.2 0.02 1.2 0.02 0.23 0.74 0.23 0.74 0.81 0.02 0.81 0.02 -0.06 -0.18c-0.19,-0.55 -2.42,-6.53 -2.48,-6.67 -0.13,-0.26 -1.5,-0.24 -1.59,0.02l-0.01 0zm9.97 3.32l0 3.51 1.46 0 0.02 -1.46 0.02 -1.46 1.36 -0.02 1.36 -0.02 0 2.96 1.46 0 0 -7.01 -1.46 0 0 2.88 -2.77 0 0 -2.88 -1.46 0 0 3.5 0.01 0zm-19.32 -2.23c0.91,0.44 0.47,1.7 -0.61,1.73l-0.42 0.01 -0.02 -0.92 -0.02 -0.93 0.4 0c0.23,0 0.45,0.04 0.66,0.12l-0 -0.01zm10.82 2.54l0.18 0.55 -1.64 0 0.26 -0.8c0.14,-0.44 0.33,-1.03 0.41,-1.31l0.15 -0.5 0.23 0.76c0.13,0.41 0.32,1 0.42,1.31z"/>
    </g>
    <g>
     <path id="path0-2" class="fil6" d="M120.47 101.36c-1.48,0.16 -1.89,2.46 -0.56,3.12 0.26,0.13 1.09,0.16 1.39,0.05l0.14 -0.06 0.01 -0.33 0.01 -0.34 -0.21 0.09c-0.78,0.34 -1.44,-0.12 -1.39,-0.99 0.04,-0.77 0.66,-1.15 1.38,-0.86 0.11,0.05 0.2,0.08 0.21,0.08 0,-0.06 0,-0.12 0,-0.17 0,-0.06 -0,-0.12 -0,-0.17l0 -0.35 -0.18 -0.04c-0.17,-0.04 -0.34,-0.05 -0.52,-0.05 -0.1,0 -0.19,0.01 -0.28,0.02l0 0zm2.57 0c-0.76,0.09 -1.26,0.75 -1.26,1.66 0,1.99 2.63,2.2 2.93,0.24 0.18,-1.17 -0.58,-2.04 -1.67,-1.9l0 0zm20.21 0c-1.48,0.16 -1.89,2.46 -0.55,3.12 0.26,0.13 1.09,0.16 1.38,0.05l0.15 -0.06 0.01 -0.33 0.01 -0.34 -0.21 0.09c-0.78,0.34 -1.44,-0.12 -1.39,-0.99 0.04,-0.77 0.66,-1.15 1.38,-0.86 0.11,0.05 0.2,0.08 0.21,0.08 0.01,-0.08 0.01,-0.17 0.01,-0.26 0,-0.03 -0,-0.06 -0,-0.09l0 -0.35 -0.19 -0.04c-0.17,-0.04 -0.34,-0.05 -0.52,-0.05 -0.09,0 -0.19,0.01 -0.28,0.02l-0.01 0zm-17.98 1.62l0 1.59 0.62 0 0 -1.15c0,-0.63 0.01,-1.13 0.02,-1.09 0.01,0.03 0.18,0.53 0.36,1.1 0.18,0.57 0.35,1.07 0.37,1.09 0.01,0.03 0.09,0.05 0.31,0.04l0.29 -0.01 0.08 -0.25 0.38 -1.16 0.3 -0.91 0 2.34 0.69 0 0 -3.17 -1 0 -0.35 1.1c-0.36,1.15 -0.38,1.19 -0.42,0.98 -0.01,-0.07 -0.16,-0.57 -0.34,-1.1l-0.32 -0.98 -1.01 0 0 1.59 0.01 0zm4.11 0l0 1.59 0.69 0 0 -1.08 0.19 0c0.85,0 1.33,-0.43 1.3,-1.17 -0.02,-0.39 -0.15,-0.62 -0.45,-0.78l-0.22 -0.12 -0.76 -0.01 -0.76 -0.01 0 1.58 0 0.01zm2.66 -0.01l0 1.59 1.79 0 0 -0.58 -1.09 0 0 -2.58 -0.69 0 0 1.59 -0 -0.01zm2.22 0.01l0 1.59 0.69 0 0 -3.18 -0.69 0 0 1.59 0 0zm1.61 -0.05c-0.29,0.85 -0.53,1.56 -0.55,1.59 -0.02,0.03 0.07,0.05 0.36,0.05l0.38 0 0.11 -0.35 0.11 -0.35 1.05 0 0.1 0.35 0.1 0.35 0.38 0c0.03,0 0.06,0 0.09,0 0.09,0 0.19,-0.01 0.28,-0.03 0,-0.02 -0.23,-0.73 -0.52,-1.59l-0.52 -1.56 -0.84 0 -0.53 1.54 0 0zm2.8 0.05l0 1.59 0.66 0 0.01 -1.07 0 -1.07 0.66 1.07 0.66 1.07 0.71 0 0 -3.17 -0.65 0 -0.01 1.04 0 1.04 -0.64 -1.04 -0.64 -1.04 -0.75 0 0 1.59 -0.01 -0zm6.13 0l0 1.59 1.82 0 0 -0.58 -1.13 0 0 -0.73 0.98 0 0 -0.58 -0.98 0 0 -0.7 1.06 0 0 -0.58 -1.76 0 0 1.59 0.01 -0.01zm-21.21 -0.94c0.32,0.17 0.5,0.84 0.36,1.36 -0.21,0.83 -1.19,0.8 -1.39,-0.04 -0.21,-0.9 0.38,-1.67 1.02,-1.32l0 0zm6.97 -0.05c0.5,0.22 0.33,0.88 -0.24,0.94l-0.25 0.03 0 -1.02 0.18 0c0.1,0 0.21,0.02 0.3,0.05l0 0zm6.59 1.28c0,0.04 -0.09,0.05 -0.35,0.05 -0.22,0 -0.35,-0.01 -0.35,-0.04 0,-0.03 0.08,-0.3 0.17,-0.62l0.17 -0.58 0.18 0.57c0.1,0.31 0.18,0.6 0.18,0.62l-0.01 0zm0 0l0 0 0 0z" data-name="path0"/>
    </g>
    <polygon class="fil7 str0" points="117.36,106.22 149.45,106.22 149.45,54.6 117.36,54.6 "/>
   </g>
   <g>
    <g id="_2470535743136">
     <path class="fil1" d="M226.96 55.9c-4.06,0.27 -8.01,1.31 -11.48,3.04 -1.88,0.94 -3.39,1.92 -4.97,3.22 -0.79,0.66 -2.33,2.22 -2.98,3.02 -2.11,2.65 -3.34,5.39 -3.82,8.53 -0.15,0.97 -0.19,2.88 -0.08,3.87 0.22,2.09 0.77,3.96 1.7,5.82 1.84,3.69 5.06,6.9 9.18,9.16 3.56,1.96 7.44,3.09 12,3.52 0.82,0.08 4.4,0.08 5.22,0 2.95,-0.27 5.39,-0.79 7.9,-1.68 4.63,-1.64 8.6,-4.4 11.27,-7.83 2.01,-2.57 3.23,-5.43 3.66,-8.53 0.11,-0.8 0.13,-2.76 0.04,-3.61 -0.36,-3.37 -1.63,-6.39 -3.9,-9.24 -0.64,-0.8 -2.17,-2.36 -2.98,-3.02 -1.57,-1.29 -3.08,-2.28 -4.97,-3.22 -3.51,-1.75 -7.43,-2.78 -11.59,-3.05 -0.79,-0.05 -3.41,-0.05 -4.21,0l0 0zm4.21 1.51c6.01,0.38 11.65,2.55 15.78,6.06 0.65,0.56 1.81,1.73 2.33,2.35 2.22,2.66 3.51,5.61 3.84,8.8 0.06,0.64 0.06,2.12 0,2.76 -0.32,3.15 -1.58,6.05 -3.76,8.71 -0.53,0.64 -1.68,1.81 -2.33,2.37 -2.42,2.07 -5.21,3.62 -8.43,4.7 -6.01,2.01 -12.93,2.01 -18.94,0 -3.8,-1.27 -7.02,-3.21 -9.58,-5.78 -1.46,-1.47 -2.48,-2.86 -3.34,-4.58 -1.14,-2.25 -1.65,-4.38 -1.65,-6.82 0,-2.69 0.69,-5.19 2.11,-7.64 1.19,-2.05 3.06,-4.13 5.17,-5.72 4.03,-3.03 9.19,-4.86 14.74,-5.22 1.3,-0.08 2.71,-0.08 4.08,0l0 0z"/>
     <path class="fil1" d="M224.13 64.81c-0.53,0.05 -1.2,0.16 -1.71,0.29 -3.91,0.98 -6.94,4.23 -7.83,8.38 -0.19,0.9 -0.22,1.19 -0.22,2.46 0,1.05 0.02,1.28 0.1,1.77 0.3,1.73 0.86,3.18 1.76,4.53 0.45,0.67 0.83,1.13 1.42,1.73 1.83,1.83 4.21,2.88 6.81,3.02l0.55 0.03 0 -1.73 0 -1.73 -0.46 -0.03c-2.5,-0.14 -4.73,-1.65 -5.9,-4 -0.59,-1.18 -0.85,-2.28 -0.85,-3.65 0,-1.36 0.26,-2.46 0.86,-3.67 0.93,-1.86 2.6,-3.25 4.54,-3.78 0.37,-0.1 1.13,-0.22 1.44,-0.22l0.21 0 -0.03 -1.33c-0.01,-0.73 -0.04,-1.51 -0.05,-1.73l-0.03 -0.4 -0.22 0.01c-0.13,0 -0.3,0.01 -0.4,0.02l0 0z"/>
     <path class="fil1" d="M232.33 64.81c-0.53,0.05 -1.19,0.16 -1.71,0.29 -3.91,0.98 -6.94,4.23 -7.83,8.38 -0.19,0.9 -0.22,1.19 -0.22,2.46 0,1.05 0.02,1.28 0.1,1.77 0.3,1.73 0.86,3.18 1.76,4.53 0.45,0.67 0.82,1.13 1.42,1.73 1.83,1.83 4.21,2.88 6.81,3.02l0.55 0.03 0 -1.73 0 -1.73 -0.46 -0.03c-2.5,-0.14 -4.73,-1.65 -5.9,-4 -0.59,-1.18 -0.85,-2.28 -0.85,-3.65 0,-1.36 0.26,-2.46 0.86,-3.67 0.93,-1.86 2.6,-3.25 4.54,-3.78 0.37,-0.1 1.14,-0.22 1.44,-0.22l0.21 0 -0.03 -1.33c-0.01,-0.73 -0.03,-1.51 -0.05,-1.73l-0.03 -0.4 -0.22 0.01c-0.13,0 -0.3,0.01 -0.4,0.02l0 0z"/>
     <path class="fil1" d="M240.53 64.81c-0.53,0.05 -1.19,0.16 -1.71,0.29 -3.91,0.98 -6.94,4.23 -7.83,8.38 -0.19,0.9 -0.22,1.19 -0.22,2.46 0,1.05 0.02,1.28 0.1,1.77 0.3,1.73 0.86,3.18 1.76,4.53 0.45,0.67 0.82,1.13 1.42,1.73 1.83,1.83 4.21,2.88 6.81,3.02l0.55 0.03 0 -1.73 0 -1.73 -0.46 -0.03c-2.5,-0.14 -4.73,-1.65 -5.9,-4 -0.59,-1.18 -0.85,-2.28 -0.85,-3.65 0,-1.36 0.26,-2.46 0.86,-3.67 0.93,-1.86 2.6,-3.25 4.54,-3.78 0.37,-0.1 1.13,-0.22 1.44,-0.22l0.21 0 -0.03 -1.33c-0.01,-0.73 -0.04,-1.51 -0.05,-1.73l-0.03 -0.4 -0.22 0.01c-0.13,0 -0.3,0.01 -0.4,0.02l0 0z"/>
    </g>
   </g>
   <g id="BSMI">
    <g id="_2470535742080">
     <path class="fil8" d="M180.75 83.32c7.64,0 14.02,-5.26 15.59,-12.28l-3.93 0c-1.48,4.94 -6.14,8.55 -11.66,8.55 -5.52,0 -10.18,-3.61 -11.66,-8.55l-3.93 0c1.57,7.03 7.95,12.28 15.59,12.28zm15.4 -19.76c-1.84,-6.65 -8.04,-11.54 -15.4,-11.54 -7.36,0 -13.56,4.89 -15.4,11.54l3.99 0c1.71,-4.56 6.17,-7.81 11.41,-7.81 5.24,0 9.71,3.25 11.41,7.81l3.99 0z"/>
     <polygon class="fil8" points="189.67,64.55 185.16,60.55 196.7,67.35 184.82,74.36 189.55,70.12 165.55,70.06 185.05,67.38 165.39,64.63 "/>
     <path class="fil8" d="M165.15 65.72c-0.06,0.54 -0.09,1.08 -0.09,1.63 0,0.55 0.03,1.1 0.09,1.63l3.83 0c-0.07,-0.53 -0.11,-1.08 -0.11,-1.63 0,-0.55 0.04,-1.1 0.11,-1.63l-3.83 0z"/>
    </g>
    <path class="fil9 str1" d="M163.84 94.22c0.94,-0.11 1.59,-0.35 1.97,-0.72 0.29,-0.31 0.44,-0.74 0.45,-1.27 0,-0.69 -0.22,-1.21 -0.66,-1.57 -0.48,-0.38 -1.18,-0.57 -2.11,-0.58l-3.79 0c-0.14,0 -0.2,0.06 -0.2,0.19 0,0.11 0.07,0.17 0.2,0.18 0.54,0 0.84,0.06 0.93,0.19 0.07,0.09 0.1,0.25 0.1,0.47l0 6.09c0,0.3 -0.04,0.49 -0.12,0.58 -0.07,0.09 -0.34,0.13 -0.81,0.13 -0.11,0 -0.17,0.07 -0.17,0.21 0,0.11 0.05,0.17 0.17,0.18l2.81 0c0.12,0 0.18,-0.06 0.19,-0.19 0,-0.13 -0.06,-0.2 -0.18,-0.2 -0.47,0 -0.75,-0.03 -0.86,-0.1 -0.1,-0.07 -0.15,-0.27 -0.16,-0.61l0 -2.98 1.28 0 2.64 4.09 1.79 0c0.13,0 0.2,-0.06 0.21,-0.19 0,-0.13 -0.07,-0.2 -0.21,-0.2 -0.58,0 -0.96,-0.07 -1.14,-0.22 -0.16,-0.13 -0.93,-1.29 -2.32,-3.47zm-2.25 -0.3l0 -2.79c0,-0.22 0.06,-0.39 0.18,-0.49 0.11,-0.12 0.63,-0.18 1.55,-0.18 0.49,0 0.9,0.12 1.23,0.37 0.47,0.36 0.71,0.84 0.72,1.43 0,0.43 -0.13,0.8 -0.39,1.12 -0.31,0.36 -0.79,0.54 -1.42,0.55l-1.87 0zm8.65 0.31c0.57,0 1.04,0.09 1.41,0.27 0.27,0.13 0.49,0.35 0.66,0.65 0.3,0.56 0.31,1.14 0.03,1.75 -0.2,0.36 -0.45,0.6 -0.74,0.73 -0.54,0.23 -1.13,0.17 -1.79,-0.19 -0.27,-0.13 -0.5,-0.13 -0.68,0 -0.09,0.07 -0.14,0.15 -0.14,0.25 0,0.07 0.03,0.16 0.1,0.28 0.18,0.22 0.7,0.33 1.55,0.33 0.42,0 0.85,-0.09 1.26,-0.26 0.52,-0.25 0.88,-0.59 1.1,-1.04 0.25,-0.46 0.37,-0.93 0.37,-1.42 0,-0.52 -0.14,-0.95 -0.43,-1.3 -0.16,-0.2 -0.49,-0.45 -1.01,-0.74 0.38,-0.36 0.64,-0.65 0.78,-0.87 0.16,-0.29 0.25,-0.61 0.26,-0.95 0,-0.4 -0.17,-0.76 -0.5,-1.07 -0.31,-0.27 -0.74,-0.4 -1.27,-0.4 -0.77,0 -1.4,0.36 -1.89,1.09 -0.13,0.2 -0.2,0.33 -0.2,0.39 0,0.07 0.04,0.11 0.11,0.11 0.02,0 0.19,-0.17 0.51,-0.52 0.22,-0.23 0.56,-0.35 1.01,-0.36 0.89,0 1.35,0.44 1.35,1.31 0,0.47 -0.18,0.88 -0.55,1.23 -0.27,0.25 -0.71,0.42 -1.3,0.52l0 0.2zm6.04 -2.93c0.31,-0.07 0.53,-0.1 0.66,-0.11 0.16,0 0.26,0.05 0.3,0.14 0.05,0.09 0.07,1.81 0.07,5.17 0,0.69 -0.02,1.11 -0.07,1.24 -0.02,0.07 -0.09,0.15 -0.19,0.23 -0.11,0.04 -0.35,0.09 -0.71,0.14l0 0.21 2.9 0 0 -0.23c-0.34,-0.01 -0.53,-0.02 -0.59,-0.05 -0.18,-0.03 -0.29,-0.11 -0.32,-0.25 -0.04,-0.09 -0.06,-2.62 -0.06,-7.6l-2.02 0.93c0.01,0.05 0.02,0.1 0.03,0.16zm5.79 7.04l4.49 0c0.04,-0.16 0.09,-0.31 0.14,-0.45 0.03,-0.14 0.16,-0.49 0.39,-1.05l-0.21 0c-0.16,0.29 -0.37,0.48 -0.65,0.56 -0.36,0.07 -1.41,0.1 -3.16,0.11 1.65,-1.56 2.72,-2.81 3.21,-3.73 0.21,-0.54 0.32,-0.98 0.32,-1.34 0,-0.43 -0.08,-0.8 -0.25,-1.12 -0.2,-0.38 -0.48,-0.67 -0.84,-0.86 -0.32,-0.16 -0.7,-0.23 -1.13,-0.23 -0.85,0 -1.46,0.38 -1.84,1.15 -0.09,0.2 -0.17,0.51 -0.26,0.92l0.18 0c0.21,-0.43 0.43,-0.74 0.66,-0.93 0.27,-0.21 0.55,-0.32 0.85,-0.32 0.57,0 1.02,0.21 1.35,0.63 0.25,0.29 0.37,0.73 0.37,1.32 0,0.67 -0.3,1.41 -0.88,2.22 -0.81,0.97 -1.72,1.93 -2.75,2.87l0 0.26zm7.55 -7.04c0.31,-0.07 0.53,-0.1 0.66,-0.11 0.16,0 0.26,0.05 0.3,0.14 0.04,0.09 0.07,1.81 0.07,5.17 0,0.69 -0.02,1.11 -0.07,1.24 -0.02,0.07 -0.09,0.15 -0.19,0.23 -0.11,0.04 -0.35,0.09 -0.72,0.14l0 0.21 2.9 0 0 -0.23c-0.34,-0.01 -0.53,-0.02 -0.59,-0.05 -0.18,-0.03 -0.29,-0.11 -0.32,-0.25 -0.05,-0.09 -0.06,-2.62 -0.06,-7.6l-2.02 0.93c0.01,0.05 0.02,0.1 0.03,0.16zm7.3 2.93c0.57,0 1.04,0.09 1.41,0.27 0.27,0.13 0.49,0.35 0.66,0.65 0.3,0.56 0.31,1.14 0.04,1.75 -0.2,0.36 -0.45,0.6 -0.74,0.73 -0.54,0.23 -1.13,0.17 -1.79,-0.19 -0.27,-0.13 -0.49,-0.13 -0.68,0 -0.09,0.07 -0.14,0.15 -0.14,0.25 0,0.07 0.03,0.16 0.1,0.28 0.18,0.22 0.7,0.33 1.55,0.33 0.43,0 0.85,-0.09 1.26,-0.26 0.51,-0.25 0.88,-0.59 1.1,-1.04 0.25,-0.46 0.37,-0.93 0.37,-1.42 0,-0.52 -0.14,-0.95 -0.44,-1.3 -0.16,-0.2 -0.49,-0.45 -1.01,-0.74 0.38,-0.36 0.64,-0.65 0.78,-0.87 0.16,-0.29 0.25,-0.61 0.26,-0.95 0,-0.4 -0.17,-0.76 -0.5,-1.07 -0.31,-0.27 -0.74,-0.4 -1.27,-0.4 -0.77,0 -1.4,0.36 -1.89,1.09 -0.13,0.2 -0.2,0.33 -0.2,0.39 0,0.07 0.04,0.11 0.11,0.11 0.02,0 0.19,-0.17 0.51,-0.52 0.22,-0.23 0.56,-0.35 1.01,-0.36 0.89,0 1.34,0.44 1.35,1.31 0,0.47 -0.18,0.88 -0.55,1.23 -0.27,0.25 -0.71,0.42 -1.3,0.52l0 0.2zm-27.56 11.43c0.94,-0.11 1.59,-0.35 1.97,-0.72 0.29,-0.31 0.44,-0.74 0.45,-1.27 0,-0.69 -0.22,-1.21 -0.66,-1.57 -0.48,-0.38 -1.18,-0.57 -2.11,-0.58l-3.79 0c-0.14,0 -0.2,0.06 -0.2,0.19 0,0.11 0.07,0.17 0.2,0.18 0.54,0 0.84,0.06 0.93,0.19 0.07,0.09 0.1,0.25 0.1,0.47l0 6.09c0,0.3 -0.04,0.49 -0.12,0.58 -0.07,0.09 -0.34,0.13 -0.8,0.13 -0.11,0 -0.17,0.07 -0.17,0.21 0,0.11 0.05,0.17 0.17,0.18l2.81 0c0.12,0 0.18,-0.06 0.19,-0.19 0,-0.14 -0.06,-0.2 -0.18,-0.2 -0.47,0 -0.75,-0.03 -0.86,-0.1 -0.1,-0.07 -0.15,-0.27 -0.16,-0.61l0 -2.98 1.28 0 2.64 4.09 1.79 0c0.13,0 0.2,-0.06 0.21,-0.19 0,-0.14 -0.07,-0.2 -0.21,-0.2 -0.58,0 -0.96,-0.07 -1.14,-0.22 -0.16,-0.13 -0.93,-1.29 -2.32,-3.47zm-2.25 -0.3l0 -2.79c0,-0.22 0.06,-0.39 0.18,-0.49 0.11,-0.12 0.63,-0.18 1.55,-0.18 0.49,0 0.9,0.12 1.23,0.37 0.47,0.36 0.71,0.83 0.72,1.43 0,0.43 -0.13,0.8 -0.39,1.12 -0.31,0.36 -0.79,0.54 -1.42,0.55l-1.87 0zm9.42 -1.47c-0.77,0 -1.39,0.28 -1.87,0.83 -0.43,0.5 -0.65,1.17 -0.66,2 0,0.92 0.23,1.67 0.69,2.25 0.45,0.56 1.07,0.84 1.84,0.84 0.86,0 1.52,-0.35 2,-1.05 0.33,-0.5 0.51,-1.13 0.51,-1.88 0,-0.63 -0.1,-1.15 -0.29,-1.56 -0.21,-0.45 -0.52,-0.8 -0.93,-1.06 -0.38,-0.23 -0.81,-0.35 -1.31,-0.36zm-0.05 0.34c0.23,0 0.45,0.05 0.65,0.14 0.2,0.07 0.39,0.23 0.58,0.46 0.36,0.47 0.54,1.15 0.54,2.05 0,0.63 -0.1,1.17 -0.29,1.62 -0.29,0.63 -0.76,0.95 -1.41,0.96 -0.36,0 -0.66,-0.1 -0.92,-0.3 -0.29,-0.22 -0.49,-0.54 -0.61,-0.95 -0.12,-0.43 -0.18,-0.89 -0.19,-1.39 0,-1.09 0.25,-1.85 0.75,-2.28 0.22,-0.2 0.52,-0.31 0.9,-0.31zm5.61 1.17l0 -2.82c0,-0.18 0.04,-0.31 0.12,-0.39 0.12,-0.12 0.4,-0.18 0.85,-0.18 0.1,0 0.15,-0.06 0.16,-0.18 0,-0.11 -0.05,-0.17 -0.16,-0.18l-2.86 0c-0.13,0 -0.2,0.06 -0.2,0.18 0,0.11 0.07,0.17 0.2,0.18 0.45,0 0.74,0.07 0.87,0.2 0.1,0.09 0.15,0.27 0.16,0.54l0 5.91c0,0.25 -0.03,0.41 -0.1,0.49 -0.11,0.13 -0.37,0.2 -0.76,0.21 -0.13,0 -0.2,0.06 -0.21,0.19 0,0.1 0.06,0.15 0.19,0.16l2.76 0c0.12,0 0.18,-0.06 0.19,-0.17 0,-0.11 -0.06,-0.17 -0.19,-0.18 -0.41,0 -0.68,-0.04 -0.82,-0.12 -0.14,-0.09 -0.22,-0.3 -0.22,-0.62l0 -2.96 4.11 0 0 2.94c0,0.29 -0.04,0.48 -0.11,0.58 -0.09,0.11 -0.34,0.17 -0.76,0.18 -0.13,0 -0.2,0.06 -0.2,0.18 0,0.11 0.07,0.17 0.2,0.17l2.69 0c0.14,0 0.22,-0.06 0.22,-0.17 0,-0.11 -0.07,-0.17 -0.22,-0.18 -0.36,0 -0.6,-0.04 -0.73,-0.11 -0.16,-0.09 -0.24,-0.31 -0.25,-0.65l0 -5.99c0,-0.18 0.03,-0.31 0.08,-0.4 0.1,-0.12 0.38,-0.18 0.85,-0.18 0.13,0 0.2,-0.06 0.21,-0.19 0,-0.12 -0.07,-0.18 -0.21,-0.19l-2.72 0c-0.13,0 -0.2,0.06 -0.21,0.18 0,0.11 0.07,0.17 0.21,0.18 0.4,0 0.67,0.05 0.79,0.16 0.09,0.09 0.14,0.22 0.14,0.4l0 2.83 -4.09 0zm12.49 -3.8c-0.03,-0.11 -0.09,-0.17 -0.18,-0.17 -0.28,0.18 -0.44,0.27 -0.48,0.28 -0.07,-0.01 -0.16,-0.04 -0.26,-0.09 -0.94,-0.5 -1.81,-0.5 -2.63,0.01 -0.05,0.02 -0.11,0.06 -0.17,0.11 -0.56,0.43 -0.84,1 -0.84,1.71 0,0.56 0.21,1.04 0.63,1.46 0.34,0.3 0.93,0.59 1.8,0.88 1.21,0.36 1.91,0.83 2.08,1.39 0.03,0.12 0.05,0.27 0.06,0.45 0,0.47 -0.17,0.86 -0.5,1.17 -0.31,0.3 -0.74,0.45 -1.29,0.46 -0.65,0 -1.21,-0.21 -1.69,-0.63 -0.33,-0.29 -0.73,-0.82 -1.19,-1.59 -0.05,-0.07 -0.09,-0.1 -0.15,-0.1 -0.12,0 -0.17,0.06 -0.17,0.19 0,0.03 0.01,0.06 0.03,0.1l0.81 2.23c0.04,0.11 0.11,0.17 0.2,0.17 0.07,0 0.12,-0.04 0.15,-0.12 0.02,-0.05 0.04,-0.11 0.07,-0.17 0.04,-0.07 0.11,-0.1 0.21,-0.1 0.04,0 0.1,0.01 0.16,0.02 1.05,0.32 1.87,0.42 2.46,0.29 0.25,-0.07 0.48,-0.17 0.72,-0.3 0.74,-0.45 1.11,-1.09 1.11,-1.92 0,-0.58 -0.2,-1.07 -0.6,-1.48 -0.32,-0.32 -0.96,-0.63 -1.91,-0.94 -0.63,-0.2 -1.07,-0.38 -1.32,-0.54 -0.47,-0.29 -0.7,-0.7 -0.7,-1.24 0,-0.43 0.14,-0.8 0.43,-1.09 0.27,-0.27 0.62,-0.42 1.05,-0.43 0.52,0 1.01,0.22 1.47,0.65 0.37,0.34 0.7,0.81 1,1.39 0.04,0.07 0.1,0.11 0.18,0.12 0.1,0 0.15,-0.05 0.16,-0.17l-0.67 -2.02z"/>
   </g>
   <g id="Trash">
    <polygon class="fil10" points="4.5,117.06 48.42,117.06 48.42,106.1 4.5,106.1 "/>
    <polygon class="fil10" points="18.21,87.6 32.74,87.6 32.74,86.2 18.21,86.2 "/>
    <polygon class="fil10" points="-0,40.26 50.17,94.19 49.2,95.14 -0,42.15 "/>
    <polygon class="fil10" points="52.97,40.26 0.82,94.24 1.84,95.13 52.97,42.14 "/>
    <polygon class="fil10" points="18.08,89.82 20.87,89.82 20.87,87.07 18.08,87.07 "/>
    <polygon class="fil10" points="23.68,62.27 32.99,62.27 32.99,59.3 23.68,59.3 "/>
    <polygon class="fil10" points="17.15,51.23 19.78,51.23 19.78,45.83 17.15,45.83 "/>
    <polygon class="fil11 str2" points="37.25,54.67 40.94,54.67 40.94,58.63 37.25,58.63 "/>
    <path class="fil10" d="M37.53 49.72c0,-1.13 0.92,-2.06 2.05,-2.06 1.14,0 2.06,0.93 2.06,2.06 0,1.13 -0.92,2.05 -2.06,2.05 -1.13,0 -2.05,-0.92 -2.05,-2.05z"/>
    <path class="fil11 str3" d="M38.06 50.76c0.01,0.08 0.01,0.12 0.01,0.12l-2.57 31.87"/>
    <line class="fil11 str3" x1="18.2" y1="86.91" x2="15.12" y2= "50.88" />
    <path class="fil12" d="M30.96 85.41c0,-2.43 1.97,-4.41 4.41,-4.41 2.43,0 4.41,1.98 4.41,4.41 0,2.44 -1.97,4.41 -4.41,4.41 -2.43,0 -4.41,-1.97 -4.41,-4.41zm2.11 0c0,1.27 1.03,2.3 2.29,2.3 1.26,0 2.3,-1.03 2.3,-2.3 0,-1.26 -1.03,-2.29 -2.3,-2.29 -1.27,0 -2.29,1.03 -2.29,2.29z"/>
    <path class="fil10" d="M33.88 85.41c0,-0.81 0.66,-1.48 1.48,-1.48 0.82,0 1.48,0.67 1.48,1.48 0,0.82 -0.66,1.49 -1.48,1.49 -0.82,0 -1.48,-0.67 -1.48,-1.49z"/>
    <polygon class="fil10" points="12.38,51.4 37.82,51.4 37.82,49.86 12.38,49.86 "/>
    <path class="fil10" d="M23.87 45.05l7.24 0 0 3.34 -7.24 0 0 -3.34zm5.97 1.31l-4.7 0 0 0.71 4.7 0 0 -0.71z"/>
    <path class="fil11 str4" d="M30.44 46.34c7.77,0.74 7.52,3.76 7.63,4.42"/>
    <path class="fil11 str4" d="M14.72 50.76c-0.08,-0.7 0.04,-4.1 9.69,-4.54"/>
   </g>
  </g>
 </g>
</svg>
