<?xml version="1.0" encoding="UTF-8"?>
<!DOCTYPE svg PUBLIC "-//W3C//DTD SVG 1.1//EN" "http://www.w3.org/Graphics/SVG/1.1/DTD/svg11.dtd">
<!-- Creator: CorelDRAW 2021 (64-Bit Not for commercial use) -->
<svg xmlns="http://www.w3.org/2000/svg" xml:space="preserve" width="0.987673in" height="0.392543in" version="1.1" style="shape-rendering:geometricPrecision; text-rendering:geometricPrecision; image-rendering:optimizeQuality; fill-rule:evenodd; clip-rule:evenodd"
viewBox="0 0 5500.52 2186.14"
 xmlns:xlink="http://www.w3.org/1999/xlink"
 xmlns:xodm="http://www.corel.com/coreldraw/odm/2003">
 <defs>
  <style type="text/css">
   <![CDATA[
    .str2 {stroke:#373435;stroke-width:28.55;stroke-miterlimit:3.864}
    .str1 {stroke:#373435;stroke-width:29.86;stroke-miterlimit:3.864}
    .str3 {stroke:#373435;stroke-width:30.24;stroke-miterlimit:3.864}
    .str0 {stroke:#231F20;stroke-width:21.93;stroke-miterlimit:2.61313}
    .fil7 {fill:none}
    .fil9 {fill:none;fill-rule:nonzero}
    .fil10 {fill:#373435}
    .fil6 {fill:#010101}
    .fil2 {fill:#231F20}
    .fil3 {fill:white}
    .fil8 {fill:#373435;fill-rule:nonzero}
    .fil1 {fill:black;fill-rule:nonzero}
    .fil4 {fill:#010101;fill-rule:nonzero}
    .fil0 {fill:#231F20;fill-rule:nonzero}
    .fil5 {fill:white;fill-rule:nonzero}
   ]]>
  </style>
 </defs>
 <g id="LP1">
  <metadata id="CorelCorpID_0Corel-Layer"/>
  <g id="_1853403964848">
   <g>
    <path class="fil0" d="M15.06 641.16l-2.87 -429.66 220.05 -0.96c33.28,-2.43 62.01,1.67 93.69,10.11 20.98,6.8 37.43,20.22 53.21,37.45 11.62,20.17 18.68,47.14 19.08,69.33 0.39,22.28 -6.49,43.5 -16.29,60.54 -10.35,20.74 -23.26,33.57 -39.16,42.38 -15.9,8.7 -31.42,13.88 -46.83,18.97 10.88,1.62 24.69,7.35 34.29,16.2 6.69,4.67 16.42,13.55 22.5,21.77 6.03,8.33 12.23,16.58 17.78,28.53l62.44 123.84 -150.28 0.13 -68.5 -132.17c-5.55,-11.93 -14.69,-24.36 -24.45,-33.17 -9.63,-8.86 -20.48,-10.46 -31.2,-12.02l-11.23 2.02 0 174 -132.23 2.72zm129.52 -258.46l54.88 0.61c14.91,-1.51 26.14,-3.55 37.45,-5.55 7.76,-2.59 15.41,-5.09 20.59,-15.46 4.67,-6.78 9.32,-13.46 7.35,-24.78 1.58,-10.98 -3.99,-22.8 -13.75,-31.64 -13.18,-9.34 -31.2,-12.02 -49.68,-11.09l-55.32 3 -1.51 84.9z"/>
    <path class="fil0" d="M437.33 484.89c-0.79,-44.47 16.86,-90.01 46.77,-118.93 34.01,-32.03 80.82,-51 127.92,-47.8 51.79,-3.49 104.08,15.24 142.23,54.18 24.91,29.62 37.56,68.43 35.26,108.86 4.41,44.97 -12.7,86.94 -46.15,115.26 -33.99,32.03 -80.82,51 -131.49,47.34 -40.56,1.45 -82.51,-12.1 -118.77,-39.75 -36.27,-27.5 -58.54,-75.12 -55.76,-119.17zm117.35 -1.18c-3.18,21.71 4.98,41.42 16.6,61.57 9.17,12.43 26.68,18.7 41.46,17.17 18,2.67 33.88,-5.99 43.24,-19.45 13.42,-16.55 17.1,-41.99 16.66,-64.18 2.67,-18.09 -4.85,-41.4 -17.08,-57.99 -9.12,-12.54 -22.98,-18.18 -40.83,-20.83 -14.93,1.53 -30.92,10.17 -43.76,23.18 -9.8,17.04 -16.58,38.26 -16.29,60.54z"/>
    <polygon class="fil0" points="855.66,205.95 987.43,206.8 987.67,354.87 1130.63,353.71 1130.43,205.69 1262.73,202.84 1265.08,636.07 1129.71,634.73 1129.58,460.79 986.6,461.98 986.6,635.87 854.93,635.13 "/>
    <path class="fil0" d="M1326.84 489.82l125.59 -7.39c1.51,14.93 9.56,34.62 18.83,47.05 12.21,16.6 36.13,27.6 58.21,27.03 14.43,2.21 29.82,-2.92 42.14,-12.3 16.49,-12.37 20.17,-37.62 7.94,-54.24 -2.96,-4.19 -6.53,-4.67 -9.65,-8.86 -20.46,-10.41 -40.94,-20.83 -66.59,-20.9 -42.43,-9.98 -87.46,-27.63 -123.73,-55.12 -22.96,-18.18 -36.66,-49.82 -35.98,-79.37 -0.39,-22.19 6.93,-47.01 16.8,-64.13 13.9,-20.17 35.06,-39.18 58.13,-46.9 34.99,-13.42 68.89,-19.54 105.24,-17.89 44.6,-4.45 87.16,5.39 123.93,29.34 29.62,22.85 49.9,59.13 51.81,96.36l-126.23 11.07c-0.9,-18.62 -5.96,-34.12 -19.29,-43.48 -13.2,-9.43 -27.01,-15.06 -41.94,-13.55 -14.3,-2.17 -26.14,3.55 -34.38,9.71 -8.24,6.21 -13.42,16.55 -14.49,23.72 2.48,7.87 5.06,15.63 11.6,20.3 13.33,9.3 27.63,11.38 45.63,14.03 43.06,6.29 84.98,19.84 122.85,36.62 24.05,10.94 39.86,28 55.03,48.79 11.75,20.19 16.23,39.4 16.64,61.59 -0.75,29.58 -7.96,54.4 -22.45,78.08 -14.54,23.83 -35.56,42.89 -62.82,53.67 -30.78,10.33 -68.87,19.54 -101.65,18.4 -73.36,0.33 -122.43,-14.32 -150.98,-44.31 -29.12,-26.55 -45.32,-65.93 -50.19,-107.33z"/>
   </g>
   <g id="IP65">
    <path class="fil1" d="M2260.71 142.72c-21.18,1.51 -47.18,8.75 -64.46,19.6l-9.25 3.88 0.53 -7.5 -0.86 -10.7 -54.2 0.61 -54.18 0.75 3.4 277.36 -0.94 275.61 54.16 -0.72 54.22 -0.64 2.35 -107.35 -2.15 -109.15 10.2 6.78c23.26,12.23 45.67,13.86 72.53,17.28 46.79,-1.27 90.03,-19.36 120.66,-50.45 33.57,-32.36 48.37,-75.32 51.64,-128.07 1.84,-99.85 -55.03,-175.03 -140.04,-187.23 -11.84,-2.39 -34.36,-3.95 -43.59,-0.07zm24.64 85.09c25.13,7.85 46.13,32.03 54.84,61.39 3.92,9.36 3.27,42.69 2.28,57.77 -7.7,50.91 -36.44,77.68 -80.1,77.49 -15,-1.03 -26.95,-3.4 -36.99,-10.09 -11.86,-2.41 -27.23,-21.73 -32.38,-34.2l-5.74 -4.91 1.51 -48.37 -1.43 -47.07 6.64 -10.17c17.32,-36.51 54.44,-52.07 91.37,-41.83z"/>
    <path class="fil1" d="M2608.41 140.33c-72.79,8.42 -96.61,29.4 -106.17,84.74 -2.72,19.51 -0.86,345.27 2.08,369.71 9.8,58.3 27.74,83.8 72.18,94.57 25.13,7.83 40.12,8.86 80.69,10.28 43.59,0.09 57.27,-1.95 80.18,-7.85 45.98,-11.86 65.45,-34.73 73.67,-93.14 2.72,-19.54 2.74,-114.96 0.81,-154.53 -3.4,-42.6 -5.48,-56.39 -18.29,-69.44 -19.65,-21.09 -41.66,-30.15 -77.73,-29.73 -33.06,-0.88 -51.64,6.91 -73.74,23.48 -9.23,3.88 -15.52,6.47 -15.52,6.47 -3.05,1.32 -2.06,-109.21 0.2,-121.07 2.72,-19.51 7.63,-25.3 28.81,-26.82 17.98,-0.24 23.79,4.78 28.92,17.23 0,0 2.19,13.75 3.07,24.43l0.33 18.2 55.43 2.48 57.38 -2 -2.02 -39.55c0.18,-25.65 -2.02,-39.4 -4.58,-45.69 -6.88,-33.81 -32.84,-52.34 -79.04,-58.7 -19.43,-2.87 -88.54,-3.27 -106.67,-3.07zm68.61 294.25c1.32,3.05 5.66,4.93 6.99,8 2.61,6.27 3.92,9.36 2.7,75.91 0.59,62.16 3.16,68.45 -0.31,77.22 -3.6,8.86 -9.87,11.45 -23.57,13.46 -14.91,-1.07 -22.39,-1.58 -28.04,-6.53 -7.06,-8.13 -6.64,-15.59 -9.78,-84.06 0.72,-58.94 2.59,-63.37 3.09,-70.89 3.42,-8.88 6.56,-10.13 15.9,-14.03 6.18,-2.52 25.52,0.37 33.02,0.92z"/>
    <path class="fil1" d="M2836.68 147.58c0,0 1.86,65.21 2.76,145.57l-0.33 146.9 54.33 -0.66 51.09 0.59 2.28 -11.91c0.11,-25.78 4.93,-31.51 30.56,-31.18 18,-0.15 26.82,3.44 29.42,9.71l2.59 6.31 0.48 87.77 1.73 91.04 -1.73 4.41c-6.71,10.06 -9.87,11.42 -27.85,11.66 -22.56,-1.67 -26.84,-3.42 -29.88,-27.89 -1.27,-3.18 -1.6,-21.36 -2.46,-32.06l0.15 -25.7 -57.38 2 -57.29 1.95 -0.55 33.26c1.95,39.58 3.64,60.82 11.47,79.53 6.05,23.24 18.81,36.2 37.62,46.61 26.49,11.01 48.92,12.61 103.14,11.99 44.93,3.16 61.66,-0.22 84.57,-6.12 38.48,-12.39 54.88,-33.92 62.6,-84.85 4.08,-16.42 1.71,-169.44 -0.68,-201.45 -1.73,-21.33 -6.49,-41.37 -11.62,-53.83 -10,-32.6 -36.42,-43.48 -87.53,-44.09 -18.02,0.13 -25.54,-0.37 -34.88,3.53 -12.34,5.09 -27.74,11.64 -38.83,19.97l-11.07 8.27 1.64 -48.39 -2.92 -50.23 84.15 1.51 79.83 -0.29 -1.58 -47.14 1.6 -48.28 -137.1 2.32c-76.61,-0.96 -138.35,-0.86 -138.35,-0.86z"/>
    <polygon class="fil1" points="1953.86,425.19 1957.3,702.53 2011.5,701.91 2065.72,701.28 2063.62,427.01 2060.16,149.56 2005.98,150.28 1951.78,150.89 "/>
   </g>
   <g>
    <path class="fil1" d="M3945.36 37.23c13.33,1.91 28.68,6.38 38.92,14.67 8.31,5.7 24.29,21.66 30.06,29.27 3.86,5.13 49.03,75.16 99.35,157.27 100.64,164.27 138.07,224.17 198.06,319.04 25.81,44.58 40.56,69.46 42.03,76.46 8.44,21.66 9.82,44.55 4.39,68.78 -13.59,34.38 -37.43,60.47 -72.97,71.3l-13.97 2.59 -335.9 1.86 -337.86 -0.59 -10.83 -3.84c-35.02,-9.58 -63.19,-36.31 -74.39,-71.98 -8.44,-21.66 -5.48,-43.94 0.02,-68.06 3.14,-6.42 29.34,-50.34 90.58,-152.91 46.9,-79.55 105.64,-180.16 131.93,-224.15 26.22,-43.92 61.26,-102.55 78.08,-127.32 29.97,-54.86 40.72,-66.9 57.73,-75.86 22.78,-17.15 48.13,-20.33 74.79,-16.53zm-38.39 -35.04c-32.32,4.47 -66.52,22.34 -85.99,49.07 -10.59,12.06 -331.28,547.66 -338.1,564.79 -22.43,49.11 -10.35,112.19 27.5,151.66 19.84,20.96 42.82,35.63 71.46,42.03l10.85 3.84 342.96 -3.27 342.24 1.32 13.99 -2.59c82.42,-22.3 126.56,-115.81 94,-195.49 -3.79,-5.04 -65.1,-107.02 -136.07,-221.58 -72.9,-117.24 -149.58,-239.47 -170.25,-271.9 -18.18,-34.4 -39.38,-62.38 -45.17,-70.03 -28.9,-38.26 -78.63,-56.68 -127.41,-47.84z"/>
    <path class="fil1" d="M3989.59 609.12c28.99,38.19 51.5,73.19 51.5,73.19 1.93,2.63 -24.62,14.76 -41.09,19.12 -24.03,10.15 -35.45,10.9 -64.66,8.92 -29.86,2.54 -43.19,0.66 -64.88,-7.04 -17.26,-6.97 -42.71,-19.71 -44.64,-22.19 2.48,-1.93 94.61,-131.93 103.34,-146.57 3.11,-6.29 3.11,-6.29 6.99,-1.29 0,0 25.06,33.15 53.43,75.86zm-43.63 -251.56c17.8,2.57 47.12,20.43 46.57,24.84 -2.57,1.84 -58.91,84.66 -60.87,82.13 -2.48,1.93 -17.34,-22.87 -38.55,-50.87l-36.07 -52.99 6.88 -1.23c16.51,-4.43 26,-7.67 48.32,-4.47 15.87,0.04 27.19,-0.64 33.7,2.59zm133.88 -1.25c30.21,29.29 48.24,63.63 58.85,103.73 2.1,18.51 2.57,66.22 0.15,84.06 -6.07,28.68 -19.05,58.61 -33.48,81.54 -10.7,12.15 -32.1,36.35 -33.99,33.72 -2.52,1.95 -117.13,-159.73 -114.63,-161.68 -1.84,-2.54 56.99,-87.29 59.48,-89.22 2.57,-1.84 5.06,-3.77 6.36,3.22 11.64,15.33 20.02,36.92 25.41,64.97 1.93,2.48 1.29,6.99 3.92,5.06l53.24 -8.29c0,0 -1.34,-6.99 -2.67,-14.05 -4.69,-16.47 -13.11,-38.17 -22.76,-50.93 -5.13,-12.1 -25.02,-33.04 -28.94,-38.11 -4.41,-0.7 -4.41,-0.7 -6.36,-3.2 2.52,-1.95 19.45,-26.82 19.45,-26.82 0,0 10.24,8.29 15.96,15.98zm-271.77 -2.63l9.65 12.76 -10.68 12.15c-20.79,19.73 -33.2,45.21 -39.36,73.85 -4.21,15.26 -2.39,17.83 1.36,7.06 6.84,-17.3 13.64,-34.4 24.36,-46.48 5.66,-8.38 24.47,-30.59 31.44,-31.86 0,0 7.65,10.17 42.45,56.02 23.15,30.5 39.95,57.95 41.88,60.43 1.91,2.65 -9.38,19.12 -53.81,80.93 -33.35,45.21 -56.44,82.84 -58.39,80.2 -2.48,1.93 -22.39,-19.08 -33.96,-34.34 -17.37,-22.89 -29.1,-54.11 -36.35,-84.72 -2.74,-13.99 -3.18,-61.72 1.14,-77.07 3.51,-26.71 14.08,-54.75 28.53,-77.68 8.09,-10.13 37.69,-44.55 42.01,-43.94 0,0 3.92,5.06 9.74,12.7zm137.19 -59.77c20.3,0.64 40.06,5.66 57.25,12.7 15.33,4.49 30.1,13.4 31.95,15.94 0,0 -11.23,16.55 -16.9,24.86 0,0 -6.36,-3.2 -12.67,-6.4 -25.63,-12.74 -47.78,-15.92 -77.09,-17.8 -24.8,-1.25 -50.71,6.36 -74.77,16.49 -5,3.88 -7.56,5.72 -7.56,5.72 0,0 -3.92,-5.06 -7.72,-10.09 -5.79,-7.65 -9.65,-12.78 -9.65,-12.78 -2,-2.57 5.06,-3.77 10.06,-7.65 29.12,-13.94 48.04,-20.39 89.37,-23.59 0,0 8.81,1.25 17.74,2.61zm-38.37 -35.04c-29.88,2.52 -58.37,12.13 -84.92,24.23l-17.1 8.88 -9.65 -12.78c-8.99,-17.1 -13.4,-17.8 -22.41,-19.1 -4.41,-0.55 -6.97,1.29 -10.02,7.67 -5.04,3.77 -5.04,3.77 -3.68,10.83 -0.64,4.52 -1.18,8.92 6.47,19.12 5.77,7.63 9.69,12.7 11.58,15.26 0,0 -5,3.86 -7.56,5.7 -4.98,3.88 -13.18,14.1 -20.79,19.73 -85.4,96.78 -82.13,242.65 12.17,335.64 15.98,15.98 15.98,15.98 15.41,20.39 -10.66,12.15 -13.77,18.44 -12.39,25.5 -3.25,6.34 -1.23,8.92 3.22,9.47 3.84,5.15 5.77,7.63 10.17,8.33 9.54,-3.16 12.04,-5.09 20.22,-15.3 3.14,-6.42 8.2,-10.2 8.2,-10.2 0,0 4.39,0.68 10.83,3.84 16.6,11.47 44.62,22.34 71.37,26.07 15.33,4.49 19.67,5.11 47.01,4.52 24.84,1.25 34.31,-1.97 45.69,-2.57 23.53,-5.72 49.44,-13.31 68.93,-24.21 7.7,-5.72 12.67,-9.58 12.67,-9.58 2,2.59 3.86,5.13 7.7,10.26 9.74,12.7 11.58,15.26 23.07,14.6 8.84,1.27 17.01,-8.95 14.43,-22.93 0,0 -3.92,-5.06 -7.78,-10.17l-7.72 -10.13 18.22 -17.87c71.11,-73.87 85.86,-185.36 41.81,-280.19 -14.89,-24.82 -39.95,-57.95 -60.45,-74.55 -1.93,-2.5 -5.77,-7.63 -5.77,-7.63 0,0 3.05,-6.38 8.75,-14.65 8.18,-10.22 8.73,-14.62 9.36,-19.14 0.55,-4.41 -1.38,-6.91 -5.22,-12.04 -3.88,-5.15 -8.35,-5.77 -12.78,-6.36 -6.91,1.23 -12.04,5.11 -20.79,19.76l-10.63 11.97 -14.69 -8.81c-42.82,-19.8 -89.24,-28.64 -132.94,-23.57z"/>
   </g>
   <g id="CB">
    <g id="Layer_2" data-name="Layer 2">
     <g id="Layer_1-2" data-name="Layer 1">
      <polygon class="fil2" points="5068.54,200.53 5031.4,200.53 5015.9,200.86 5000.55,201.83 4985.53,203.45 4970.84,205.53 4956.3,208.27 4942.09,211.52 4928.21,215.4 4914.49,219.74 4901.25,224.59 4888.16,229.91 4875.57,235.75 4863.29,242.19 4851.5,248.81 4840.2,256.09 4829.22,263.83 4818.87,271.75 4808.87,280.3 4799.33,289.03 4790.3,298.24 4781.9,307.77 4774.14,317.62 4766.88,327.62 4760.26,338.12 4754.12,348.95 4748.79,359.94 4743.95,371.07 4739.91,382.69 4736.52,394.32 4733.93,406.26 4732,418.39 4730.86,430.49 4730.38,442.92 4730.38,442.92 4730.22,456.65 4730.86,469.89 4732.33,482.98 4734.59,495.74 4737.48,508.33 4741.21,520.45 4745.73,532.23 4750.9,543.7 4756.71,555.01 4763.16,565.82 4770.26,576.17 4778.02,586.34 4786.42,595.86 4795.3,605.07 4804.84,613.95 4814.84,622.19 4825.34,630.26 4836.32,637.69 4847.79,644.64 4859.89,651.09 4872.17,657.07 4884.93,662.56 4898.18,667.4 4911.73,671.77 4925.63,675.47 4939.99,678.72 4954.53,681.46 4969.39,683.56 4984.41,685.01 4999.91,685.64 5015.41,685.97 5031.4,685.49 5068.54,685.49 5068.54,622.5 5033.02,622.5 5020.74,622.5 5008.64,622.19 4996.69,621.23 4985.05,619.93 4973.58,618.16 4962.44,615.9 4951.46,613.31 4940.65,610.24 4930.3,606.84 4920.12,602.96 4910.28,598.77 4900.92,594.26 4891.71,589.24 4882.98,584.08 4874.58,578.43 4866.52,572.44 4859.08,566.3 4851.98,559.86 4845.2,552.9 4839.06,545.8 4833.25,538.54 4828.08,530.94 4823.23,523.02 4819.2,514.95 4815.49,506.73 4812.42,498.16 4809.99,489.43 4808.06,480.4 4806.77,471.36 4806.28,462.15 4806.28,452.62 4806.92,442.92 4806.92,442.92 4807.1,433.89 4808.06,424.68 4809.51,415.8 4811.46,406.92 4814.02,398.2 4817.09,389.8 4820.65,381.4 4824.68,373.33 4829.22,365.42 4834.22,357.65 4839.7,350.07 4845.69,342.81 4851.98,335.71 4858.78,329.09 4865.7,322.46 4873.29,316.17 4881.21,310.34 4889.3,304.7 4897.85,299.2 4906.73,294.2 4915.94,289.51 4925.45,285.32 4935.14,281.29 4945.16,277.56 4955.34,274.34 4965.84,271.6 4976.65,269.16 4987.48,267.23 4998.62,265.61 5009.91,264.49 5021.38,263.68 5033.02,263.51 5068.54,263.51 5068.54,200.53 "/>
      <path class="fil2" d="M5121.18 195.36l222.7 0 9.03 0.96 9.21 1.47 8.88 2.26 8.88 2.59 8.73 3.38 8.4 3.73 8.07 4.36 7.92 4.85 7.59 5.33 7.28 5.63 6.78 6.31 6.47 6.45 5.96 7.1 5.5 7.28 4.85 7.59 4.36 8.07 3.86 8.24 3.07 8.55 2.59 8.73 1.78 9.03 0.96 9.21 0 9.54 0 9.52 -1.29 9.69 -2.26 9.87 -3.07 10 -4.19 10.02 -4.85 10 -6.14 10.02 -7.1 10.17 -8.07 10.02 -9.21 10 10.5 7.43 10 8.09 8.88 8.4 8.24 9.03 7.26 9.36 6.62 9.69 5.66 10.02 4.85 10.33 3.88 10.5 3.22 10.66 2.26 10.81 1.29 10.83 0 10.81 0 10.83 -1.29 10.81 -1.93 10.5 -2.92 10.33 -3.86 10.17 -4.69 9.87 -5.48 9.36 -6.47 9.21 -7.43 8.55 -8.22 8.07 -9.06 7.61 -10.02 6.93 -10.96 6.31 -11.8 5.63 -12.76 4.85 -13.57 4.03 -14.51 3.25 -16.16 2.26 -16.16 1.29 -222.04 0 0 -495.79zm77.35 78.49l144.54 0 2.74 0 2.59 0 2.59 0 2.59 0 2.41 0 2.43 0.96 2.41 1.14 2.26 1.12 2.26 1.29 2.1 1.45 2.1 1.47 2.1 1.6 1.93 1.62 1.78 1.78 0.81 5.96 1.78 1.95 1.62 1.93 1.45 2.1 1.45 2.26 1.14 2.26 1.29 2.26 0.96 2.43 0.96 2.41 0.96 2.43 0 2.59 0 2.57 0 2.59 0 2.59 0 26.16 0 2.76 0 2.57 0 2.59 0 2.59 -0.96 2.43 -0.96 2.41 -0.96 2.41 -1.29 2.28 -1.14 2.26 -1.45 2.08 -1.45 2.1 -1.62 2.1 -1.78 1.93 -1.78 1.95 -1.78 1.6 -1.93 1.78 -2.1 1.62 -2.1 1.45 -2.1 1.47 -2.26 1.29 -2.26 1.12 -2.41 1.14 -2.43 0.96 -2.41 0.81 -2.59 0 -2.59 0 -2.59 0 -2.74 0 -143.57 0 0 -120.64zm0 197.99l156.16 0 3.07 0 2.92 0 2.89 0 2.92 0 2.74 0.79 2.74 0.99 2.59 0.96 2.76 1.29 2.41 1.29 2.59 1.45 2.26 1.45 2.41 1.62 2.1 1.78 2.26 1.93 2.1 1.95 1.93 1.93 1.78 2.26 1.78 2.26 1.62 2.26 1.62 2.43 1.29 2.41 1.45 2.59 1.14 2.59 1.12 2.59 0 2.74 0 2.74 1.29 4.21 0 2.89 0 2.92 0 29.71 0 2.92 0 2.89 0 2.92 0 2.74 0 2.74 -1.14 2.59 -1.12 2.74 -1.45 2.43 -1.29 2.59 -1.62 2.26 -1.62 2.41 -1.78 2.26 -1.78 2.1 -1.93 2.1 -2.1 1.93 -2.26 1.78 -2.1 1.78 -2.41 1.62 -2.26 1.62 -2.59 1.45 -2.43 1.29 -2.74 1.12 -2.59 1.14 -2.74 0.81 -2.74 0.81 -2.92 0 -2.89 0 -2.92 0 -160.52 0 0 -133.07z"/>
     </g>
    </g>
   </g>
  </g>
  <g id="_1853403944880">
   <g id="Layer_2_0" data-name="Layer 2">
    <g id="Layer_1-2_1" data-name="Layer 1">
     <polygon class="fil3" points="1145.67,1924 2030.56,1924 2030.56,1039.11 1145.67,1039.11 1145.67,1924 "/>
     <path class="fil2" d="M1523.39 1809.24c-179.42,-2.15 -323.85,-148.26 -323.85,-327.7 0,-179.44 144.43,-325.56 323.85,-327.68l44.29 -0.02 0 88.6 -44.29 0c-132.04,0 -239.12,107.09 -239.12,239.12 0,132.04 107.09,239.12 239.12,239.12l44.29 0 0 88.56 -44.29 0z"/>
     <path class="fil2" d="M1910.01 1720.68l44.25 0 0 88.56 -44.25 0c-1.25,-0.02 -2.61,0.02 -3.88,0.02 -180.95,0 -327.73,-146.77 -327.73,-327.73 0,-180.98 146.77,-327.73 327.73,-327.73 1.27,0 2.63,0.04 3.88,0.04l44.25 -0.02 0 88.6 -44.25 0c-114.91,0.18 -213.56,82.07 -234.87,194.96l191.9 0 0 88.45 -191.87 0c21.36,112.87 119.96,194.68 234.85,194.83l0 0z"/>
    </g>
   </g>
  </g>
  <g id="REACH">
   <path class="fil4" d="M2374.07 1236.9l504.08 0c9.27,0 16.8,7.52 16.8,16.8l0 621.18c0,9.27 -7.52,16.77 -16.8,16.77l-504.08 0c-9.25,0 -16.77,-7.5 -16.77,-16.77l0 -621.18c0,-9.27 7.52,-16.8 16.77,-16.8z"/>
   <polygon class="fil5" points="2625.38,1343.6 2634.86,1362.08 2656.08,1365.06 2640.73,1379.47 2644.35,1399.81 2625.38,1390.21 2606.4,1399.81 2610.01,1379.47 2594.69,1365.06 2615.89,1362.08 "/>
   <polygon class="fil5" points="2524.26,1371.68 2533.73,1390.21 2554.94,1393.17 2539.59,1407.55 2543.23,1427.9 2524.26,1418.3 2505.29,1427.9 2508.89,1407.55 2493.54,1393.17 2514.77,1390.21 "/>
   <polygon class="fil5" points="2450.15,1444.7 2459.65,1463.18 2480.83,1466.16 2465.48,1480.57 2469.12,1500.87 2450.15,1491.29 2431.19,1500.87 2434.8,1480.57 2419.43,1466.16 2440.64,1463.18 "/>
   <polygon class="fil5" points="2727.4,1371.68 2736.88,1390.21 2758.08,1393.17 2742.75,1407.55 2746.37,1427.9 2727.4,1418.3 2708.39,1427.9 2712.03,1407.55 2696.69,1393.17 2717.91,1390.21 "/>
   <polygon class="fil5" points="2801.49,1444.7 2810.99,1463.18 2832.19,1466.16 2816.82,1480.57 2820.48,1500.87 2801.49,1491.29 2782.53,1500.87 2786.14,1480.57 2770.8,1466.16 2792.02,1463.18 "/>
   <polygon class="fil5" points="2828.5,1537.84 2838,1556.32 2859.22,1559.32 2843.87,1573.69 2847.51,1594.03 2828.5,1584.43 2809.54,1594.03 2813.16,1573.69 2797.83,1559.32 2819.03,1556.32 "/>
   <polygon class="fil5" points="2801.49,1637.69 2810.99,1656.19 2832.19,1659.15 2816.82,1673.54 2820.48,1693.88 2801.49,1684.28 2782.53,1693.88 2786.14,1673.54 2770.8,1659.15 2792.02,1656.19 "/>
   <polygon class="fil5" points="2727.4,1709.03 2736.88,1727.52 2758.08,1730.48 2742.75,1744.88 2746.37,1765.21 2727.4,1755.63 2708.39,1765.21 2712.03,1744.88 2696.69,1730.48 2717.91,1727.52 "/>
   <polygon class="fil5" points="2625.16,1737.12 2634.66,1755.63 2655.88,1758.57 2640.49,1772.97 2644.13,1793.32 2625.16,1783.71 2606.2,1793.32 2609.82,1772.97 2594.47,1758.57 2615.69,1755.63 "/>
   <polygon class="fil5" points="2524.26,1709.03 2533.73,1727.52 2554.94,1730.48 2539.59,1744.88 2543.23,1765.21 2524.26,1755.63 2505.29,1765.21 2508.89,1744.88 2493.54,1730.48 2514.77,1727.52 "/>
   <polygon class="fil5" points="2450.15,1637.69 2459.65,1656.19 2480.83,1659.15 2465.48,1673.54 2469.12,1693.88 2450.15,1684.28 2431.19,1693.88 2434.8,1673.54 2419.43,1659.15 2440.64,1656.19 "/>
   <polygon class="fil5" points="2423.12,1537.84 2432.59,1556.32 2453.79,1559.32 2438.46,1573.69 2442.08,1594.03 2423.12,1584.43 2404.15,1594.03 2407.79,1573.69 2392.4,1559.32 2413.62,1556.32 "/>
   <g>
    <path id="path0" class="fil6" d="M2711.4 1079.92c-60.43,13.44 -63.41,113.29 -4.03,128.79 5.39,1.12 10.92,1.67 16.44,1.67 11.49,0 22.85,-2.41 33.33,-7.06l5.04 -2.54 0 -12.67c0.04,-1.05 0.07,-2.13 0.07,-3.18 0,-3.18 -0.22,-6.36 -0.59,-9.49 -0.29,0 -4.45,2.08 -9.27,4.63 -30.21,16.07 -59.99,-1.71 -59.88,-35.91 0,-31.68 30.21,-49.44 59.95,-35.28l8.4 3.97 0 -25.21 -7.7 -3.35c-8.7,-3.88 -18.15,-5.92 -27.69,-5.92 -4.71,0 -9.45,0.5 -14.05,1.47l0 0.11zm-337.97 64.22l0 64.75 26.86 0 0 -26.55c0.57,-18.59 0,-23.5 8.92,-23.5 8.44,0.31 14.27,6.25 24.58,29.95l8.73 20.13 29.01 0 -11.16 -24.6c-4.47,-10.77 -10.02,-21.16 -16.47,-30.87l-5.37 -6.34 5.37 -4.43c18.15,-15.09 13.88,-47.64 -7.65,-58.37 -6.51,-3.38 -9.41,-3.6 -34.93,-4.21l-27.82 -0.64 0 64.68 -0.07 0zm100.62 0l0 64.75 72.29 0 0 -22.82 -45.67 0 0 -31.88 41.68 0 0 -21.18 -20.43 -0.42 -20.46 -0.44 -0.39 -14.8 -0.39 -14.76 44.36 0 0 -22.8 -71.06 0 0 64.51 0.09 -0.15zm117.98 -60.93c-0.64,1.89 -10.66,29.71 -22.25,61.87 -11.62,32.14 -21.36,59.62 -21.73,61.09 -0.59,2.41 0.68,2.65 13.9,2.65l14.56 0 4.52 -14.47 4.49 -14.43 22.12 0.39 22.15 0.42 4.32 13.66 4.34 13.66 14.93 0.44 14.91 0.42 -1.18 -3.35c-3.44,-10.09 -44.51,-120.26 -45.61,-122.78 -2.32,-4.87 -27.67,-4.49 -29.38,0.44l-0.09 0zm183.63 61.09l0 64.59 26.86 0 0.37 -26.86 0.37 -26.86 25.11 -0.42 25.15 -0.42 0 54.55 26.84 0 0 -129.1 -26.84 0 0 53.13 -51.13 0 0 -53.13 -26.86 0 0 64.51 0.13 0zm-355.92 -41.05c16.77,8.02 8.64,31.31 -11.23,31.79l-7.65 0.18 -0.31 -16.97 -0.39 -17.08 7.45 0c4.17,0 8.29,0.77 12.19,2.21l-0.07 -0.13zm199.35 46.77l3.35 10.06 -30.21 0 4.8 -14.8c2.61,-8.13 6.01,-18.97 7.52,-24.07l2.72 -9.25 4.17 13.99c2.35,7.59 5.79,18.44 7.65,24.07z"/>
   </g>
   <g>
    <path id="path0-2" class="fil6" d="M2388.34 1907.57c-27.32,2.98 -34.84,45.28 -10.24,57.47 4.8,2.39 20.15,2.92 25.52,0.9l2.67 -1.03 0.2 -6.18 0.22 -6.18 -3.9 1.73c-14.43,6.29 -26.44,-2.26 -25.59,-18.18 0.81,-14.19 12.13,-21.25 25.39,-15.87 2.04,0.83 3.75,1.51 3.86,1.51 0.07,-1.05 0.09,-2.13 0.09,-3.18 0,-1.07 -0.02,-2.15 -0.09,-3.2l0 -6.38 -3.35 -0.7c-3.14,-0.66 -6.34,-1.01 -9.54,-1.01 -1.75,0 -3.51,0.11 -5.24,0.31l0 0zm47.29 0c-14.03,1.75 -23.2,13.79 -23.2,30.59 0,36.64 48.41,40.61 54.03,4.39 3.35,-21.55 -10.68,-37.49 -30.83,-34.97l0 0zm372.26 0c-27.3,2.98 -34.8,45.28 -10.06,57.47 4.8,2.39 20.13,2.92 25.5,0.9l2.7 -1.03 0.2 -6.18 0.18 -6.18 -3.86 1.73c-14.45,6.29 -26.46,-2.26 -25.59,-18.18 0.81,-14.19 12.13,-21.25 25.37,-15.87 2.02,0.83 3.77,1.51 3.86,1.51 0.13,-1.56 0.2,-3.14 0.2,-4.71 0,-0.55 0,-1.12 -0.02,-1.67l0 -6.38 -3.53 -0.7c-3.14,-0.66 -6.34,-1.01 -9.56,-1.01 -1.73,0 -3.51,0.11 -5.24,0.31l-0.13 0zm-331.3 29.88l0 29.23 11.4 0 0 -21.22c0,-11.66 0.22,-20.74 0.42,-20.13 0.2,0.59 3.35,9.74 6.71,20.3 3.35,10.57 6.51,19.67 6.71,20.15 0.2,0.46 1.71,0.86 5.74,0.72l5.39 -0.22 1.49 -4.65 6.95 -21.38 5.44 -16.77 0 43.15 12.74 0 0 -58.45 -18.46 0 -6.36 20.3c-6.73,21.11 -6.95,21.84 -7.67,18.04 -0.22,-1.27 -3,-10.44 -6.23,-20.33l-5.85 -18.02 -18.55 0 0 29.27 0.13 0zm75.73 0l0 29.29 12.74 0 0 -19.97 3.57 0c15.7,0 24.49,-7.96 23.86,-21.62 -0.33,-7.28 -2.67,-11.38 -8.24,-14.41l-3.97 -2.13 -13.97 -0.24 -13.99 -0.24 0 29.14 0 0.18zm49 -0.18l0 29.23 32.89 0 0 -10.7 -20.13 0 0 -47.62 -12.74 0 0 29.27 -0.02 -0.18zm40.98 0.18l0 29.23 12.76 0 0 -58.5 -12.76 0 0 29.27 0 0zm29.6 -0.92c-5.33,15.61 -9.8,28.77 -10.06,29.27 -0.26,0.5 1.38,0.88 6.71,0.88l6.99 0 1.93 -6.4 1.95 -6.45 19.27 0 1.82 6.45 1.84 6.4 6.91 0c0.57,0.04 1.14,0.07 1.71,0.07 1.75,0 3.51,-0.2 5.22,-0.61 0,-0.29 -4.3,-13.42 -9.58,-29.23l-9.56 -28.72 -15.48 0 -9.74 28.35 0.07 0zm51.57 0.92l0 29.23 12.15 0 0.2 -19.78 0 -19.76 12.08 19.73 12.08 19.73 13.11 0 0 -58.43 -11.95 0 -0.22 19.23 0 19.21 -11.73 -19.21 -11.75 -19.21 -13.77 0 0 29.27 -0.2 -0.02zm112.98 0.02l0 29.25 33.57 0 0 -10.72 -20.81 0 0 -13.42 18.11 0 0 -10.68 -18.11 0 0 -12.85 19.47 0 0 -10.72 -32.36 0 0 29.27 0.13 -0.13zm-390.85 -17.32c5.9,3.2 9.23,15.41 6.71,25.02 -3.86,15.26 -22.01,14.8 -25.61,-0.64 -3.9,-16.6 7.04,-30.76 18.83,-24.38l0.07 0zm128.35 -0.83c9.23,4.12 6.14,16.27 -4.39,17.32l-4.54 0.46 0 -18.77 3.35 0c1.89,0.02 3.77,0.35 5.55,0.99l0.02 0zm121.38 23.64c0,0.66 -1.71,0.9 -6.38,0.9 -4.12,0 -6.38,-0.26 -6.38,-0.77 0,-0.5 1.4,-5.57 3.16,-11.45l3.16 -10.72 3.35 10.59c1.75,5.79 3.35,10.96 3.35,11.45l-0.26 0zm0 0l0 0 0 0z" data-name="path0"/>
   </g>
   <polygon class="fil7 str0" points="2331.14,1997.1 2922.43,1997.1 2922.43,1046.08 2331.14,1046.08 "/>
  </g>
  <g id="Trash">
   <polygon class="fil8" points="77.51,2186.14 834.39,2186.14 834.39,1997.16 77.51,1997.16 "/>
   <polygon class="fil8" points="313.74,1678.43 564.09,1678.43 564.09,1654.4 313.74,1654.4 "/>
   <polygon class="fil8" points="-0,862.78 864.52,1791.91 847.81,1808.36 -0,895.3 "/>
   <polygon class="fil8" points="912.64,862.78 14.1,1792.88 31.68,1808.25 912.64,895.19 "/>
   <polygon class="fil8" points="311.5,1716.77 359.56,1716.77 359.56,1669.39 311.5,1669.39 "/>
   <polygon class="fil8" points="408.04,1242.01 568.52,1242.01 568.52,1190.79 408.04,1190.79 "/>
   <polygon class="fil8" points="295.43,1051.7 340.82,1051.7 340.82,958.71 295.43,958.71 "/>
   <polygon class="fil9 str1" points="641.88,1111.12 705.36,1111.12 705.36,1179.26 641.88,1179.26 "/>
   <path class="fil8" d="M646.62 1025.71c0,-19.56 15.85,-35.52 35.39,-35.52 19.6,0 35.5,15.96 35.5,35.52 0,19.54 -15.9,35.39 -35.5,35.39 -19.54,0 -35.39,-15.85 -35.39,-35.39z"/>
   <path class="fil9 str2" d="M655.8 1043.67c0.24,1.38 0.24,2.1 0.24,2.1l-44.22 549.24"/>
   <line class="fil9 str2" x1="313.67" y1="1666.48" x2="260.5" y2= "1045.75" />
   <path class="fil10" d="M533.37 1640.76c0,-41.86 33.99,-75.91 75.93,-75.91 41.92,0 75.91,34.05 75.91,75.91 0,41.99 -33.99,76 -75.91,76 -41.94,0 -75.93,-34.01 -75.93,-76zm36.4 0c0,21.86 17.67,39.58 39.53,39.58 21.77,0 39.55,-17.72 39.55,-39.58 0,-21.73 -17.78,-39.51 -39.55,-39.51 -21.86,0 -39.53,17.78 -39.53,39.51z"/>
   <path class="fil8" d="M583.86 1640.76c0,-14.01 11.4,-25.5 25.48,-25.5 14.1,0 25.5,11.49 25.5,25.5 0,14.14 -11.4,25.61 -25.5,25.61 -14.08,0 -25.48,-11.47 -25.48,-25.61z"/>
   <polygon class="fil8" points="213.25,1054.72 651.66,1054.72 651.66,1028.15 213.25,1028.15 "/>
   <path class="fil8" d="M411.22 945.38l124.71 0 0 57.58 -124.71 0 0 -57.58zm102.88 22.52l-80.97 0 0 12.19 80.97 0 0 -12.19z"/>
   <path class="fil9 str3" d="M524.45 967.5c133.95,12.76 129.58,64.77 131.51,76.17"/>
   <path class="fil9 str3" d="M253.55 1043.67c-1.38,-12.15 0.68,-70.71 167.01,-78.3"/>
  </g>
 </g>
</svg>
