<?xml version="1.0" encoding="UTF-8"?>
<!DOCTYPE svg PUBLIC "-//W3C//DTD SVG 1.1//EN" "http://www.w3.org/Graphics/SVG/1.1/DTD/svg11.dtd">
<!-- Creator: CorelDRAW 2021 (64-Bit Not for commercial use) -->
<svg xmlns="http://www.w3.org/2000/svg" xml:space="preserve" width="0.976035in" height="0.175654in" version="1.1" style="shape-rendering:geometricPrecision; text-rendering:geometricPrecision; image-rendering:optimizeQuality; fill-rule:evenodd; clip-rule:evenodd"
viewBox="0 0 315.4 56.76"
 xmlns:xlink="http://www.w3.org/1999/xlink"
 xmlns:xodm="http://www.corel.com/coreldraw/odm/2003">
 <defs>
  <style type="text/css">
   <![CDATA[
    .fil0 {fill:#FEFEFE}
   ]]>
  </style>
 </defs>
 <g id="Box_Label">
  <metadata id="CorelCorpID_0Corel-Layer"/>
  <g id="Filamento_logo">
   <polygon class="fil0" points="16.32,32.33 33.9,17.14 36.82,20.55 19.28,35.75 "/>
   <path class="fil0" d="M23.67 56.76c-13.49,-2.19 -23.67,-14.3 -23.67,-28.18 0,-15.76 12.77,-28.58 28.48,-28.58 15.71,0 28.48,12.82 28.48,28.58 0,12.43 -7.94,23.38 -19.77,27.24 -0.15,0.06 -0.24,0.08 -0.35,0.08 -0.55,0 -1.05,-0.58 -1.06,-0.59l-11.98 -14.35 17.65 -15.22 2.86 3.35 -14.12 12.26 7.56 9.47 0.29 -0.13c8.78,-3.84 14.46,-12.52 14.46,-22.11 0,-13.29 -10.77,-24.1 -24.02,-24.1 -13.25,0 -24.02,10.81 -24.02,24.1 0,11.69 8.32,21.66 19.79,23.72l-0 0c-0.01,0 0.01,0.03 0.02,0.04 0.06,0.07 0.08,0.14 0.06,0.3l-0.45 4.03c-0.01,0.07 -0.05,0.09 -0.12,0.09l-0.09 -0z"/>
   <polygon class="fil0" points="110.72,28.91 105.3,28.91 105.3,3.45 110.72,3.45 "/>
   <path class="fil0" d="M135.61 28.91l-5.76 0c-1.42,0 -2.39,-0.01 -2.9,-0.04 -3.69,-0.18 -6.23,-1.53 -7.63,-4.04 -0.76,-1.35 -1.14,-3.71 -1.14,-7.1l0 -14.27 5.42 0 0 14.27c0,1.42 0.07,2.63 0.23,3.62 0.25,1.58 1.27,2.52 3.05,2.82 0.74,0.13 1.92,0.19 3.55,0.19l5.19 0 0 4.54z"/>
   <path class="fil0" d="M167.04 28.91l-6.32 0 -2.45 -5.92 -9.72 0 -2.45 5.92 -6.36 0 10.53 -25.45 6.22 0 10.53 25.45zm-9.98 -10.46l0 0 -3.64 -8.89 -3.64 8.89 7.28 0z"/>
   <polygon class="fil0" points="201.69,28.91 196.54,28.91 196.54,9.79 189.86,28.91 184.29,28.91 177.99,9.79 177.99,28.91 172.84,28.91 172.84,3.45 180.77,3.45 187.12,23.34 193.78,3.45 201.69,3.45 "/>
   <path class="fil0" d="M228.72 28.91l-7.06 0c-2.72,0 -4.82,-0.21 -6.29,-0.63 -1.48,-0.42 -2.72,-1.17 -3.74,-2.23 -2.24,-2.34 -3.36,-5.62 -3.36,-9.84 0,-4.68 1.44,-8.24 4.31,-10.69 0.91,-0.76 1.88,-1.3 2.9,-1.6 1.02,-0.31 2.38,-0.46 4.08,-0.46l9.16 0 0 4.54 -7.06 0c-1.83,0 -3.17,0.13 -4.02,0.38 -0.85,0.25 -1.56,0.75 -2.12,1.49 -0.38,0.51 -0.63,1 -0.76,1.49 -0.13,0.48 -0.24,1.36 -0.34,2.63l14.31 0 0 4.54 -14.31 0c0.18,2.16 0.82,3.68 1.92,4.54 1.11,0.86 2.96,1.3 5.55,1.3l6.83 0 0 4.54z"/>
   <polygon class="fil0" points="259.36,28.91 252.72,28.91 242.31,10.25 242.31,28.91 237.15,28.91 237.15,3.45 244.06,3.45 254.21,22.41 254.21,3.45 259.36,3.45 "/>
   <polygon class="fil0" points="287.63,7.99 279.23,7.99 279.23,28.91 273.81,28.91 273.81,7.99 265.69,7.99 265.69,3.45 287.63,3.45 "/>
   <path class="fil0" d="M315.4 16.73c0,4.02 -1.04,7.08 -3.13,9.18 -2.08,2.1 -5.12,3.15 -9.12,3.15 -4.22,0 -7.42,-1.08 -9.6,-3.24 -2.18,-2.16 -3.26,-5.33 -3.26,-9.5 0,-8.7 4.18,-13.05 12.55,-13.05 4.3,0 7.47,1.09 9.5,3.28 2.04,2.19 3.05,5.58 3.05,10.19zm-5.95 -0.57l0 0c0,-5.72 -2.17,-8.58 -6.49,-8.58 -2.37,0 -4.07,0.67 -5.13,2.02 -1.05,1.35 -1.58,3.52 -1.58,6.53 0,3 0.54,5.2 1.62,6.58 1.08,1.39 2.78,2.08 5.1,2.08 4.32,0 6.49,-2.87 6.49,-8.62z"/>
   <polygon class="fil0" points="96.84,8.8 71.89,8.8 71.89,3.67 96.84,3.67 "/>
   <polygon class="fil0" points="96.84,18.89 76.95,18.89 76.95,28.99 71.89,28.99 71.89,13.77 96.84,13.77 "/>
   <path class="fil0" d="M72.9 51.37l7.2 0c2.52,0 3.5,-0.73 3.5,-2.57 0,-1.22 -0.52,-2.1 -1.45,-2.4 -0.45,-0.15 -1.1,-0.2 -2.55,-0.2l-1.38 0c-2,0 -3.27,-0.25 -4.15,-0.8 -1.15,-0.73 -1.77,-1.97 -1.77,-3.55 0,-1.82 0.85,-3.37 2.27,-4.25 0.95,-0.55 2.12,-0.77 4.2,-0.77l6.85 0 0 2.12 -6.85 0c-1.48,0 -2.12,0.12 -2.7,0.47 -0.58,0.4 -0.95,1.15 -0.95,2.05 0,1.67 1.03,2.32 3.65,2.32l1 0c2.82,0 4,0.23 4.92,0.9 1.07,0.82 1.72,2.3 1.72,4.02 0,1.9 -0.82,3.38 -2.3,4.12 -0.97,0.5 -1.95,0.65 -4.35,0.65l-6.87 0 0 -2.12z"/>
   <path class="fil0" d="M101.07 38.95l-4.85 0c-3.32,-0.15 -4.95,1.47 -5.1,5.1l9.95 0 0 2.12 -9.97 0c0.08,3.52 1.85,5.37 4.97,5.2l5 0 0 2.12 -5.47 0c-2.87,0 -4.45,-0.6 -5.7,-2.15 -1.2,-1.52 -1.73,-3.3 -1.73,-5.85 0,-3.32 0.9,-5.67 2.78,-7.25 1.2,-1 2.82,-1.42 5.42,-1.42l4.7 0 0 2.12z"/>
   <path class="fil0" d="M115.96 38.95l-4.85 0c-3.32,-0.15 -4.95,1.47 -5.1,5.1l9.95 0 0 2.12 -9.97 0c0.07,3.52 1.85,5.37 4.97,5.2l5 0 0 2.12 -5.47 0c-2.87,0 -4.45,-0.6 -5.7,-2.15 -1.2,-1.52 -1.73,-3.3 -1.73,-5.85 0,-3.32 0.9,-5.67 2.77,-7.25 1.2,-1 2.82,-1.42 5.42,-1.42l4.7 0 0 2.12z"/>
   <polygon class="fil0" points="118.91,36.82 121.59,36.82 121.59,53.5 118.91,53.5 "/>
   <polygon class="fil0" points="127.73,53.5 125.16,53.5 125.16,36.82 128.33,36.82 136.86,50.17 136.86,36.82 139.43,36.82 139.43,53.5 136.36,53.5 127.73,40.2 "/>
   <path class="fil0" d="M156.43 43.95l0 9.55 -6.17 0c-3.22,0 -4.62,-0.4 -6.05,-1.75 -1.47,-1.42 -2.15,-3.45 -2.15,-6.5 0,-3.7 1,-6.12 3.08,-7.37 1.25,-0.77 2.62,-1.05 5.25,-1.05l6.05 0 0 2.12 -5.82 0c-2.17,0 -2.72,0.1 -3.6,0.65 -1.42,0.87 -2.12,2.67 -2.12,5.45 0,2.15 0.25,3.35 0.98,4.47 0.92,1.45 1.97,1.85 4.75,1.85l3.15 0 0 -5.3 -5.12 0 0 -2.12 7.8 0z"/>
   <polygon class="fil0" points="165.83,36.82 168.5,36.82 168.5,53.5 165.83,53.5 "/>
   <path class="fil0" d="M171.77 51.37l7.2 0c2.52,0 3.5,-0.73 3.5,-2.57 0,-1.22 -0.52,-2.1 -1.45,-2.4 -0.45,-0.15 -1.1,-0.2 -2.55,-0.2l-1.37 0c-2,0 -3.27,-0.25 -4.15,-0.8 -1.15,-0.73 -1.77,-1.97 -1.77,-3.55 0,-1.82 0.85,-3.37 2.27,-4.25 0.95,-0.55 2.12,-0.77 4.2,-0.77l6.85 0 0 2.12 -6.85 0c-1.47,0 -2.12,0.12 -2.7,0.47 -0.58,0.4 -0.95,1.15 -0.95,2.05 0,1.67 1.02,2.32 3.65,2.32l1 0c2.82,0 4,0.23 4.92,0.9 1.08,0.82 1.72,2.3 1.72,4.02 0,1.9 -0.82,3.38 -2.3,4.12 -0.97,0.5 -1.95,0.65 -4.35,0.65l-6.87 0 0 -2.12z"/>
   <path class="fil0" d="M201.99 51.37c2.28,0 3.4,-0.9 3.4,-2.77 0,-1.85 -0.92,-2.6 -3.18,-2.6l-5.3 0 0 5.37 5.07 0zm0.23 -7.5l0 0c1.08,0 1.65,-0.12 2.12,-0.5 0.55,-0.42 0.87,-1.12 0.87,-1.97 0,-0.75 -0.25,-1.42 -0.7,-1.85 -0.47,-0.48 -0.95,-0.6 -2.3,-0.6l-5.3 0 0 4.92 5.3 0zm-7.97 -7.05l0 0 7.97 0c2.57,0 3.68,0.3 4.57,1.23 0.75,0.77 1.17,1.87 1.17,3.05 0,1.8 -0.82,3.02 -2.57,3.82 1.97,0.7 2.82,1.88 2.82,3.85 0,1.6 -0.65,2.95 -1.8,3.77 -0.95,0.65 -2.42,0.95 -4.85,0.95l-7.32 0 0 -16.67z"/>
   <path class="fil0" d="M222.91 38.95l-4.85 0c-3.32,-0.15 -4.95,1.47 -5.1,5.1l9.95 0 0 2.12 -9.97 0c0.08,3.52 1.85,5.37 4.97,5.2l5 0 0 2.12 -5.47 0c-2.88,0 -4.45,-0.6 -5.7,-2.15 -1.2,-1.52 -1.72,-3.3 -1.72,-5.85 0,-3.32 0.9,-5.67 2.77,-7.25 1.2,-1 2.83,-1.42 5.42,-1.42l4.7 0 0 2.12z"/>
   <path class="fil0" d="M228.46 36.82l0 9.7c0,2.12 0.23,3.1 0.78,3.72 0.82,0.8 1.9,1.15 3.6,1.12l3.57 0 0 2.12 -4.1 0c-4.62,0.08 -6.65,-2 -6.52,-6.65l0 -10.02 2.67 0z"/>
   <polygon class="fil0" points="238.2,36.82 240.88,36.82 240.88,53.5 238.2,53.5 "/>
   <path class="fil0" d="M256.4 38.95l-4.85 0c-3.32,-0.15 -4.95,1.47 -5.1,5.1l9.95 0 0 2.12 -9.97 0c0.08,3.52 1.85,5.37 4.97,5.2l5 0 0 2.12 -5.47 0c-2.88,0 -4.45,-0.6 -5.7,-2.15 -1.2,-1.52 -1.73,-3.3 -1.73,-5.85 0,-3.32 0.9,-5.67 2.77,-7.25 1.2,-1 2.82,-1.42 5.42,-1.42l4.7 0 0 2.12z"/>
   <polygon class="fil0" points="268.15,53.5 264.97,53.5 257.82,36.82 260.9,36.82 266.6,51 272.37,36.82 275.24,36.82 "/>
   <polygon class="fil0" points="277.02,36.82 279.69,36.82 279.69,53.5 277.02,53.5 "/>
   <polygon class="fil0" points="285.84,53.5 283.27,53.5 283.27,36.82 286.44,36.82 294.97,50.17 294.97,36.82 297.54,36.82 297.54,53.5 294.47,53.5 285.84,40.2 "/>
   <path class="fil0" d="M314.54 43.95l0 9.55 -6.17 0c-3.22,0 -4.62,-0.4 -6.05,-1.75 -1.47,-1.42 -2.15,-3.45 -2.15,-6.5 0,-3.7 1,-6.12 3.08,-7.37 1.25,-0.77 2.62,-1.05 5.25,-1.05l6.05 0 0 2.12 -5.82 0c-2.17,0 -2.72,0.1 -3.6,0.65 -1.42,0.87 -2.12,2.67 -2.12,5.45 0,2.15 0.25,3.35 0.98,4.47 0.92,1.45 1.97,1.85 4.75,1.85l3.15 0 0 -5.3 -5.12 0 0 -2.12 7.8 0z"/>
  </g>
 </g>
</svg>
