<?xml version="1.0" encoding="UTF-8"?>
<!DOCTYPE svg PUBLIC "-//W3C//DTD SVG 1.1//EN" "http://www.w3.org/Graphics/SVG/1.1/DTD/svg11.dtd">
<!-- Creator: CorelDRAW 2021 (64-Bit Not for commercial use) -->
<svg xmlns="http://www.w3.org/2000/svg" xml:space="preserve" width="0.942409in" height="1.05426in" version="1.1" style="shape-rendering:geometricPrecision; text-rendering:geometricPrecision; image-rendering:optimizeQuality; fill-rule:evenodd; clip-rule:evenodd"
viewBox="0 0 260.15 291.02"
 xmlns:xlink="http://www.w3.org/1999/xlink"
 xmlns:xodm="http://www.corel.com/coreldraw/odm/2003">
 <defs>
  <style type="text/css">
   <![CDATA[
    .str0 {stroke:black;stroke-width:1.92;stroke-linecap:round;stroke-linejoin:round;stroke-miterlimit:2.61313}
    .fil0 {fill:none}
   ]]>
  </style>
 </defs>
 <g id="Box_Label_Korean">
  <metadata id="CorelCorpID_0Corel-Layer"/>
  <g id="_2654121228224">
   <g id="Layer_2" data-name="Layer 2">
    <g id="Layer_1-2" data-name="Layer 1">
     <path class="fil0 str0" d="M88.63 116.41l0 -0.67m-4.83 1.21l0 -0.54m4.7 1.07l0 -0.4m-8.59 2.89l0 0 0.13 0.81 0.27 0.67 0.67 0.67 0.81 0.54m9.13 0l0 0.27 -0.13 0.13 -0.13 0.13m0.27 -0.54l0.81 -0.54 0.54 -0.67 0.4 -0.67 0.13 -0.81m0 -1.75l-0.13 0.67 -0.4 0.67 -0.54 0.67 -0.81 0.54m-7.65 -6.18l-0.27 -0.13 -0.54 0 -0.27 0.13m-0.4 6.18l-0.81 -0.54 -0.67 -0.67 -0.27 -0.67 -0.13 -0.67m116.6 -20.88l0 0.27 -0.13 0.13m0.13 -0.4l0.81 -0.54 0.67 -0.67 0.4 -0.67 0 -0.81m0 -1.75l0 0.67 -0.4 0.67 -0.67 0.67 -0.81 0.54m-0.27 -1.21l0 0.2 0.27 0.4 0 0.67m1.74 -12.08l-1.34 -2.42 -0.13 -0.13m-1.07 -18.66l-0.67 -0.54m0.54 23.09l1.21 -0.94m-0.94 1.61l2.68 -2.15m0 24.57l-1.61 -1.21m1.48 1.21l-0.94 -0.54 -0.13 -0.13m-0.4 -0.54l-0.13 0m-11.55 -41.08l0.13 5.24m-124.45 14.7l-0.67 1.88 -1.07 4.03 -0.4 4.03 0.4 4.03 0.94 3.89 1.61 3.89 2.28 3.76 2.95 3.62m118.14 -44.17l-0.27 0 -0.13 -0.13 -0.13 0.13 -0.13 0m4.3 3.49l0.27 -0.13 0.27 0.13m5.77 9.93l0.13 0m-133.04 18.26l1.61 3.49 2.28 3.76 2.82 3.49m-2.01 1.75l-2.95 -3.63 -2.28 -3.76 -1.61 -3.89 -0.94 -4.03 -0.4 -3.89 0.4 -4.03 1.07 -4.03 0.81 -2.28m17.32 41.89l-4.9 -3.02 -4.3 -3.36 -3.63 -3.49 -3.09 -3.76 -2.42 -3.89 -1.07 -2.15m10.34 -13.83l-2.89 -3.83 -2.28 -3.89 -1.61 -3.89 -0.94 -4.16 -0.13 -2.68m12.62 -24.16l-1.61 1.48 -3.36 3.62 -2.69 3.76 -2.01 3.89 -1.21 4.03 -0.67 4.03 0.27 4.16 0.94 4.03 1.61 3.89 2.28 3.89 3.09 3.63m6.85 -3.76l-3.22 -3.36 -2.55 -3.49 -2.01 -3.62 -1.21 -3.76 -0.54 -3.76 0.13 -3.89 0.81 -3.76 1.48 -3.69 2.28 -3.49 2.82 -3.49 2.82 -2.69m25.64 15.77l0.27 1.88 0.81 2.42 1.61 2.42 2.28 2.15 2.82 1.88m-18.8 44.3l0.13 0.13 0.13 0.27 0.13 0.4m-26.45 -5.37l13.69 1.34m-11.41 -1.74l11.95 1.21m6.71 -2.01l0.13 -24.84m23.76 -13.69l3.22 1.61 3.76 1.34 4.03 0.81 4.3 0.54 4.3 0.13 4.3 -0.27 4.16 -0.81 3.89 -1.07 3.49 -1.48 3.09 -1.75 2.42 -2.01 2.01 -2.28 1.21 -2.42 0.54 -2.42 0 -0.67m45.11 42.83l-1.07 2.28 -2.42 3.89 -3.09 3.76 -3.76 3.49 -4.3 3.36 -4.83 3.09 -5.37 2.82 -5.77 2.42 -6.18 2.15 -6.44 1.88 -6.85 1.34 -6.98 0.94 -7.12 0.67 -7.12 0.27 -7.25 -0.27 -7.12 -0.67 -6.98 -0.94 -6.85 -1.34 -6.44 -1.88 -6.18 -2.15 -5.77 -2.42 -5.37 -2.82m118.41 -46.72l0.27 0.54 1.48 2.42m-108.34 46.58l2.15 0.81 2.28 0.81 2.42 0.81m58 -96.12l3.22 0.94 3.76 1.21 3.76 1.48 3.36 1.61 3.36 1.75m-91.56 43.63l-3.36 -3.22 -2.68 -3.49 -2.15 -3.62 -1.34 -3.62 -0.67 -3.76 0.13 -3.76 0.67 -3.76 1.48 -3.62 2.15 -3.62 2.82 -3.36 3.49 -3.22 4.03 -2.95 4.56 -2.68 5.1 -2.42 5.5 -2.01 4.43 -1.34m4.03 43.5l3.49 1.75 4.03 1.34 4.3 1.07 4.56 0.67 4.7 0.13 4.56 -0.13 4.56 -0.67 4.43 -0.94 4.03 -1.48 3.49 -1.75 3.09 -2.01 2.55 -2.28 1.88 -2.42 1.07 -2.69 0.4 -2.68 -0.27 -2.69 -0.94 -2.68 -1.75 -2.42 -0.81 -0.94m-52.36 0l-0.4 0.4 -1.88 2.55 -1.21 2.55 -0.4 2.68 0.27 2.69 1.07 2.69 1.75 2.55 2.28 2.28 2.95 2.15m5.91 -55.71l-2.55 -1.75 -2.01 -2.01 -1.34 -2.01 -0.67 -2.28 -0 -2.28 0.67 -2.15 1.34 -2.15 1.95 -1.95 2.55 -1.61 0.81 -0.54m25.51 0.67l0.54 0.27m-22.15 12.75l-2.01 -1.34 -1.48 -1.75 -0.87 -1.95 -0.13 -1.88 0.54 -1.88 1.07 -1.75 1.88 -1.61 1.74 -0.94m86.19 72.9l0 -7.52m-151.97 0.27l0 7.38m162.44 5.24l0 -6.85m-172.91 0.4l0 6.58m181.91 6.18l0 -6.18m-190.9 0.27l0 6.18m22.15 5.77l0.13 -0.13 0 -0.13m176 1.61l0 -6.18m-205.54 0.4l0 6.04m211.17 7.79l0 -6.18m-216.88 0.34l0 6.18m220.71 8.59l0 -6.71m-224.26 0.34l0 6.71m226.14 9.06l0 -7.52m-227.96 0.27l0 7.52m227.82 9.67l0 -8.86m-227.69 0.4l0 8.99m225.67 10.2l0 -11.14m-223.53 0.4l0 11.28m62.56 13.16l0 -18.66m135.06 116.66l0 0m-110.82 -6.18l0 0m151.84 -44.84l0 -2.82 -0.4 -5.37 -1.21 -5.24 -1.75 -5.24 -2.55 -5.1 -1.34 -2.55m-31.95 77.73l0 -0.27m-207.35 -77.4l-2.55 4.56 -2.28 5.1 -1.48 5.37 -0.81 5.24 -0.27 5.37 0 0.67m128.21 71.62l4.77 0 9.26 -0.54 9.26 -0.81 8.99 -1.21 9 -1.61 8.73 -1.88 8.32 -2.42 8.19 -2.68 7.79 -2.95 7.25 -3.36 6.98 -3.62m-209.36 -79.81l-1.07 1.48 -2.82 5.1 -2.08 5.24 -1.61 5.37 -0.81 5.37 -0.27 5.37 0.54 5.37 1.07 5.37 1.88 5.24 2.55 5.24 3.09 5.1 3.76 4.97 4.43 4.7 4.97 4.56 5.5 4.3 6.04 4.16 6.58 3.89 6.98 3.49 7.52 3.22 7.79 2.95 8.19 2.55 8.59 2.28 8.73 1.88 4.43 0.81m126.33 -18.8l6.44 -4.03 5.77 -4.16 5.37 -4.43 4.7 -4.7 4.16 -4.83 3.49 -4.97 2.82 -5.1 2.28 -5.24 1.48 -5.37 0.94 -5.37 0.13 -5.37 -0.4 -5.37 -1.21 -5.37 -1.88 -5.24 -2.42 -5.24 -2.69 -4.43m-165.73 -49.27l-0.67 0.27 0 0.13m3.09 -10.87l0 -1.48m1.07 1.61l0 -1.48m-2.48 1.48l0 -1.48m2.82 1.88l0 -1.48m0 1.48l0.13 0 0 0.13 0.4 0m-0.81 -0.54l0 0 0 0.27 0.13 0 0.13 0.13m-0.54 -0.67l0.13 0 0 0.13 0.13 0 0 0.13m-1.07 -0.13l0 -0.13 0.81 0m-2.28 0.27l0.13 0.13 0.67 -0 0.13 -0.13 0.27 0 0.13 -0.13 0.13 0m-2.15 0.27l0.13 -0.13 0.54 0m-1.81 -1.95l1.48 -0.54 1.61 -0.13 1.61 0.13 1.48 0.54 0.94 0.81 0.27 1.07 -0.27 0.94 -0.94 0.81m-0.54 -1.88l0.2 0 0 -0.13 0.13 0 0 -0.27 -0.13 0 0 -0.13m-0.54 1.34l-0.13 0 0 -0.4 0.13 -0.13 0.13 -0.13 0.13 0 0.13 -0.13m-1.21 1.34l0.54 0 0.13 -0.13 0.13 0 0 -0.4m-2.28 0.67l0.13 0 0.13 -0.13 0.27 0 0.13 -0.13 0.67 0 0.13 0.13m-2.28 0.27l0.13 0 0.13 0.13 0.13 -0 0.13 -0.13 0.13 0 0.13 -0.13m-1.07 -0.13l0 0 0 0.13 0.13 0 0 0.13 0.13 0m-0.54 -0.67l0 0 0.13 0.13 0.13 0.13 0 0.13m-1.07 -0.54l0.67 0 0 0.13 0.13 0m-1.21 -0.27l0.27 0 0.13 0.13m-0.27 -0.67l-0.13 0 0 0.13 -0.13 0 0 0.27 0.13 0 0 0.13m0.54 -1.34l0.13 0 0 0.4 -0.13 0.13 -0.13 0.13 -0.13 0 -0.13 0.13m1.21 -1.34l-0.54 0 -0.13 0.13 -0.13 0 0 0.4m2.28 -0.67l-0.13 0 -0.13 0.13 -0.27 0 -0.13 0.13 -0.67 0 -0.13 -0.13m2.28 -0.27l-0.81 0 0 0.13m1.07 0.13l0 0 0 -0.13 -0.13 0 0 -0.13 -0.13 0m0.54 0.67l0 0 -0.13 -0.13 -0.13 0 0 -0.27m1.07 0.67l-0.13 -0.13 -0.54 0 0 -0.13 -0.13 0m1.21 0.27l-0.4 0m-6.85 4.97l0 1.88m0 0l0.94 0.4 1.21 0.4 1.21 0.13 1.21 0.13 1.21 -0.13 1.21 -0.13 1.21 -0.4 0.94 -0.4m0 -1.88l-0.94 0.54 -1.21 0.27 -1.21 0.27 -2.42 0 -1.21 -0.27 -1.21 -0.27 -0.94 -0.54m7.65 -2.55l0.27 0.13 0.27 0.27 0.27 0.4 0.27 0.27 0.13 0.4 0.13 0.4 0.13 0.4 0 0.27m-1.48 -2.55l-1.48 0.54 -1.61 0.13 -1.61 -0.13 -1.48 -0.54 -0.94 -0.81 -0.27 -0.94 0.27 -1.07 0.94 -0.81m115.05 -31.28l0 0m0 0l-0.13 0.13m0 0l0.13 0m-0.13 0l-0.67 0 -0.4 -0.13 -0.27 -0.13 -0.13 -0.13m0 0.81l0.13 -0.13 0 -0.54 -0.13 -0.13m0 0l-0.13 -0.27 0 -0.27m-41.48 -46.99l1.07 0.27 4.03 1.07 3.76 1.34 3.49 1.48 3.49 1.61 3.22 1.75m24.16 40.27l0.13 0m-0.13 0.13l0 -0.13m-1.61 0.54l0.67 -0.13 0.94 -0.27m-1.75 -0.94l-0.67 -19.2m0.67 19.2l0 0.27 -0.13 0.13m-0.54 -19.6l-0.13 -0.67 -0.13 -0.4m0.27 1.07l0 0 0 0.13 -0.13 0.13 0 0.13m-0.81 -2.01l0.13 0.13 0 0.81m-0.13 -0.94l-4.16 -1.21m4.16 1.21l-1.34 -2.28 -1.48 -2.28 -1.88 -2.15 -2.01 -2.15 -2.28 -2.01 -2.42 -2.01 -2.69 -1.88 -2.95 -1.75m12.89 15.3l0.13 0.27 0.13 0.13 0 0.27 -0.13 0.27m-0.13 -0.94l-1.07 0 -1.07 0.54m-14.5 -17.99l2.95 1.75 2.82 2.01 2.42 2.15 2.28 2.15 2.01 2.28 1.75 2.28 1.34 2.42 1.07 2.42m-16.65 -17.45l-0.27 -0.13 -0.13 -0.13 -0.54 0 -0.27 0.13 -0.13 0 -0.27 0.13 -0.27 0.13m24.17 39.74l0 0.54 0.27 0.4m-0.94 -20.14l0.67 19.2m-1.34 -20.27l0.4 0.27 0.13 0.4 0.13 0.4m-4.83 -2.28l2.42 0.67 1.75 0.54m-5.77 -0.54l0.94 -0.67 0.67 0m-1.61 0.67l-4.16 3.49m4.16 -3.49l0 -0.4 -0.13 -0.27 -0.27 -0.27 -0.27 -0.13m9.8 22.29l1.34 3.09 1.07 2.95 0.54 3.09 0.27 3.22 -0.27 3.09 -0.54 3.09 -1.07 3.09 -1.34 2.95m0 -24.57l0 0m-0.13 24.57l0 0m0.13 0l0 0m-0.13 0l0 0m0 0l0.13 0m-0.13 0l-0.13 0m-13.02 -42.29l-0.4 0.27 -0.27 0.27 -0.27 0.4 -0.13 0.27 -0.27 0.4 0 0.27 -0.13 0.4 0 0.4m0.67 -3.76l0.13 0 0.13 0.13 0.13 0.13 0.13 0.13 0.13 0.13 0 0.13 0.13 0.13 0 0.27m-118.27 49.14l-0.13 0m0 0l0 0 0 0.13m0.13 0l0 0 0 -0.13m2.15 -0.27l-0.27 -0.27 -0.13 -0.13 -0.13 -0.13 0 -0.27m-1.07 0.94l-0.13 0 -0.13 0.13 -0.27 0m1.61 -1.07l-0.27 0.27 -0.27 0.13 -0.27 0.27 -0.27 0.27m1.34 -1.61l0 0.4 -0.27 0.27m116.53 -43.09l0 0m5.77 5.77l0.27 0 -0.13 0.13m-124.05 38.4l1.21 -0.13 0.94 -0.27m-2.28 0.4l0.13 0m-0.13 0l0 0m-6.18 -21.48l0 0.67 0.4 4.03 0.94 3.89 0.13 0.27m-5.64 4.83l0 1.88 0.4 4.03 1.21 4.03 1.88 3.89 2.42 3.76 3.09 3.63 3.62 3.49 4.16 3.22 4.7 2.95m-8.73 -44.44l-0.4 19.47m0.67 0.27l-0.4 0 -0.13 -0.13 -0.13 -0.13m-2.01 1.75l-0.13 0 0 0.13m-7.79 -7.52l-0.67 -1.88 -1.07 -4.16 -0.4 -4.16 0.4 -4.16 1.07 -4.16 1.48 -3.49m1.61 -10.2l0 -0.94m9.26 17.18l-0.54 0.54 -0.4 0.54 -0.27 0.54 -0.13 0.54m0.67 0.27l-0.13 0 -0.27 -0.13 -0.13 0 -0.13 -0.13m11.55 -6.71l-1.75 0.13 -1.61 0.67m-6.85 3.76l0 0.27 0.13 0.27 0.13 0.13 0.13 0.27m6.44 -4.7l0.13 0.27 0 0.13 0.13 0.27 0.13 0.27m4.43 -43.36l-1.34 0.81 -4.56 3.09 -2.42 1.88m3.49 36.65l-6.85 3.76m7.65 -42.83l0.67 -0.54 4.03 -3.09 4.56 -2.69 5.1 -2.55 5.5 -2.15 5.77 -1.75 1.07 -0.27m-24.16 51.28l-0.13 0.27 0 0.94m7.25 0.81l0 -1.07 0.13 -0.13 0 -0.13m8.86 44.71l0.13 0m-3.36 -12.49l0 0.27 -0.13 0.13 -0.27 0 0 0.13m3.63 11.95l0 0m0 -0.13l0 0.13m0.13 -1.61l0 -0.13 0.54 0m-0.54 0.13l0 0.81 -0.13 0.67m0.13 0l-0.13 0m-3.63 -11.81l3.63 11.95m0 0l-2.42 -0.67 -2.28 -0.81 -2.28 -0.94 -2.15 -0.81 -2.15 -0.94 -2.15 -1.07 -2.01 -1.07 -1.88 -1.07m0 0l-1.88 -1.07 -1.88 -1.21 -1.61 -1.21 -1.74 -1.21 -1.48 -1.21 -1.48 -1.34 -1.48 -1.34 -1.21 -1.34m0 0l-0.13 0m0 0l1.34 1.34 1.34 1.34 1.48 1.34 1.61 1.21 1.61 1.34 1.75 1.21 1.75 1.07 1.88 1.21m17.45 7.38l0 -0.13m-4.7 -42.02l-0.4 -0.27 -0.54 -0.27 -0.54 -0.13 -0.54 -0.27 -0.54 -0.13 -0.54 -0.13 -0.67 0 -0.54 -0.13m4.97 29.67l0.13 0 0.27 0.27 0.13 0.4 0.13 0.27 0.13 0.27m0.81 -26.98l-0.13 -0.4 -0.13 -0.27 -0.27 -0.4 -0.27 -0.27 -0.27 -0.4 -0.27 -0.27 -0.4 -0.27 -0.54 -0.27m0.67 -1.21l-0.13 0.13 0 0.13 -0.13 0.13 -0.13 0.13 -0.13 0.13 0 0.4 -0.13 0.13m-4.3 -1.34l-7.25 -0.81m-2.82 0.54l1.48 -0.54 1.34 0m-9.67 4.3l3.89 -2.15 2.95 -1.61m-7.92 5.24l0.13 -0.4 0.13 -0.4 0.4 -0.4 0.4 -0.27m-1.54 20.94l0.4 -19.47m-0.81 20.67l0.27 -0.67 0.13 -0.54m25.91 -21.48l-0.13 0.13 -0.13 0 -0.13 0.13 -0.13 0.13 -0.13 0 -0.13 0.27 0 0.13 -0.13 0.13m1.34 4.16l0.13 -0.27 0.13 -0.27 0.27 -0.27 0.4 0m0.67 33.43l-0.13 -0.13 -0.27 0 0 -0.13 -0.13 -0.13m1.07 -19.06l-0.13 0 -0.13 -0.13 -0.13 -0.13 -0.13 0m14.37 -55.71l-2.82 -1.88 -2.15 -2.15 -1.54 -2.35 -0.94 -2.42 -0.13 -2.42 0.54 -2.55 0.27 -0.54m50.34 0l0.67 1.75 0.13 2.55 -0.54 2.42 -1.21 2.42 -1.88 2.15 -2.55 2.01 -2.95 1.88 -3.49 1.34 -3.89 1.07 -4.16 0.81 -4.16 0.27 -4.3 -0.13 -4.3 -0.54 -3.89 -0.81 -3.76 -1.34 -3.22 -1.61m-14.9 44.71l-0.27 0.13 -0.13 0.13 -0.13 0 -0.13 0.13m1.75 8.06l-0.27 0.13 -0.13 -0 -0.13 0.13 -0.13 0m-1.48 -10.61l-1.34 -4.16m0 0l-0.81 26.98m0 0l3.36 10.87m-0.13 -1.48l0 0.67 0.13 0.81m0.4 -20.81l-0.54 19.33m0.4 -21.61l0.13 1.21 0 1.07m-1.21 -10.61l0.67 4.7 0.4 3.62m-1.48 -10.61l0.27 1.07 0.13 1.21m102.03 8.73l0.13 0m-101.36 24.3l0 -0.07m0.54 -1.61l-0.13 -0.54 0 -0.4m-0.4 2.55l0 0 0 -0.13 0.27 -0.27 0.27 -0.54 0 -0.67m-0.54 1.61l6.18 1.75 6.58 1.34 6.71 0.94 6.98 0.54 6.85 0.27 6.98 -0.27 6.85 -0.54 6.71 -1.07 6.58 -1.34 6.31 -1.75 5.91 -2.01 5.64 -2.42 5.1 -2.68 4.7 -2.95 4.16 -3.22 3.62 -3.36 2.95 -3.62 2.42 -3.76m-0.54 -0.27l0.13 0.13 0.27 0 0.13 0.13m-1.48 -1.21l0.13 0.4 0.27 0.27 0.13 0.13 0.4 0.13m-1.07 -1.88l0 0.4 0.13 0.54m-118.81 31.28l0.27 -10.87m-0.27 10.87l5.24 2.82 5.64 2.42 5.91 2.01 6.31 1.88 6.58 1.34 6.85 1.07 6.85 0.67 7.12 0.27 6.98 -0.13 6.98 -0.4 6.85 -0.94 6.71 -1.21 6.44 -1.61 6.18 -1.88 5.77 -2.28 5.37 -2.55 4.97 -2.95 4.43 -3.09 4.03 -3.36 3.36 -3.49 2.68 -3.76 2.15 -3.89 1.48 -3.89 0.81 -4.03 0.27 -3.89m-125.66 20l0 -0.27 0.13 -0.27 0.13 -0.4 0.13 -0.27 0.13 -0.27 0.27 -0.27 0.27 -0.27 0.13 -0.13m121.09 -39.87l1.61 3.76 1.07 4.16 0.27 4.16 -0.27 4.16 -1.07 4.16 -0.67 1.75m-2.95 -23.9l-0.13 0m0.13 24.57l1.48 -2.95 0.94 -3.09 0.67 -3.09 0.13 -3.09 -0.13 -3.22 -0.67 -3.09 -0.94 -2.95 -1.48 -3.09m-0.13 24.57l0 0.13 0.13 0 0 -0.13m-0.13 0l-2.42 3.89 -2.95 3.49 -3.63 3.49 -4.16 3.22 -4.7 2.95 -5.24 2.68 -5.5 2.42 -6.04 2.01 -6.31 1.75 -6.44 1.34 -6.71 0.94 -6.98 0.67 -6.85 0.13 -6.98 -0.13 -6.85 -0.54 -6.71 -1.07 -6.58 -1.21 -6.31 -1.75m-0.13 0.13l0 0 0 -0.13 0.13 0m-17.59 -7.25l2.01 1.07 2.01 0.94 2.01 1.07 2.15 0.94 2.28 0.94 0.13 0m94.38 -59.41l4.3 3.49m-4.3 -9.53l-0.67 0.67 -0.54 0.67 -0.27 0.81 -0.13 0.81 0.13 0.81 0.27 0.81 0.54 0.81 0.67 0.67m4.3 -9.53l-4.3 3.49m-12.08 -21.35l2.95 1.88 2.82 2.01 2.42 2.15 2.28 2.15 1.88 2.28 1.61 2.42 1.34 2.42 1.07 2.55m-100.69 26.45l-7.25 -0.67m12.08 2.15l-0.4 -0.27 -0.67 -0.27 -0.54 -0.13 -0.54 -0.27 -0.67 -0.13 -0.67 -0.13 -0.67 -0.13 -0.67 -0.13m7.38 4.3l-0.13 -0.4 -0.13 -0.27 -0.27 -0.4 -0.27 -0.4 -0.4 -0.4 -0.4 -0.27 -0.4 -0.27 -0.54 -0.4m3.89 7.12l-1.34 -4.3m13.56 -11.95l-0.13 -0.13 -0.13 0 0 -0.13 -0.27 0m-11.55 19.2l-0.13 -1.48 0 -1.21m91.96 -22.02l1.07 0.94 1.07 1.34m-2.15 -2.28l-1.61 3.62 -2.28 3.62 -2.95 3.36 -3.49 3.09 -4.16 2.95 -4.7 2.69 -5.1 2.28 -5.64 2.01 -5.77 1.61 -6.18 1.21 -6.44 0.94 -6.44 0.4 -6.58 0 -6.44 -0.4 -6.44 -0.67 -6.18 -1.21 -5.91 -1.61 -5.64 -1.88m99.21 -9.4l0.67 19.06m-99.21 23.76l0.54 -19.47m-0.54 19.47l6.18 1.61 6.44 1.34 6.58 0.94 6.71 0.67 6.85 0.13 6.71 -0.13 6.85 -0.67 6.58 -0.94 6.44 -1.34 6.18 -1.61 5.77 -2.01 5.5 -2.42 4.97 -2.55 4.7 -2.95 4.03 -3.22 3.49 -3.36 2.95 -3.49 2.28 -3.76m-1.61 -21.75l0.4 0.81 0.27 0.67 0.13 0.67 0.13 0.54m-98 23.36l0 -2.82m98 -20.54l-2.55 3.89 -3.09 3.62 -3.76 3.49 -4.3 3.22 -4.97 2.95 -5.37 2.68 -5.91 2.28 -6.31 2.01 -6.58 1.61 -6.85 1.07 -6.98 0.81 -7.11 0.4 -7.12 -0.13 -6.98 -0.54 -6.98 -0.94 -6.71 -1.34 -6.44 -1.75m92.9 -33.7l4.16 7.65m-4.16 -7.65l-1.75 3.62 -2.42 3.62 -3.09 3.36 -3.76 3.09 -4.3 2.95 -4.7 2.69 -5.24 2.28 -5.64 2.01 -6.04 1.75 -6.18 1.21 -6.44 0.94 -6.58 0.4 -6.58 0.13 -6.58 -0.4 -6.58 -0.67 -6.31 -1.07 -6.04 -1.61 -5.77 -1.88m1.07 8.46l-1.07 -8.46m1.07 8.46l6.44 1.75 6.58 1.34 6.85 0.94 7.12 0.54 6.98 0.13 7.11 -0.27 6.98 -0.81 6.71 -1.07 6.58 -1.61 6.18 -2.01 5.91 -2.28 5.37 -2.69 4.83 -2.95 4.3 -3.22 3.76 -3.49 2.95 -3.62 2.42 -3.89m-90.15 -40.48l0.13 1.88 0.94 2.28 1.48 2.28 2.15 2.01 2.69 1.88m0 -8.32l0 4.16m0 -9.8l-3.02 -2.08 -2.42 -2.28 -1.48 -2.69 -0.4 -2.55m7.38 3.89l-3.09 -2.01 -2.42 -2.28 -1.48 -2.69 -0.4 -2.55m7.38 29.13l3.22 1.48 3.49 1.34 3.89 0.81 4.03 0.54 4.16 0.13 4.16 -0.4 4.03 -0.67 3.76 -1.07 3.36 -1.34 2.95 -1.75 2.42 -1.88 1.88 -2.15 1.07 -2.42 0.54 -2.28 0 -0.6m-42.83 -14.9l-2.55 -1.61 -2.01 -1.68 -2.28 -3.62 -0.54 -3.49 0.13 -0.54m5.37 -9.4l0.54 -0.54 0.54 -0.4m-1.07 0.94l-0.27 0.13 -0.13 0.13m13.29 1.88l-1.75 -1.34 -0.94 -1.48 -0.13 -1.48 0.54 -1.61 1.34 -1.34 1.88 -1.07 2.42 -0.81 2.69 -0.27 2.68 0.13 2.55 0.54 2.15 0.94m18.39 30.47l-0.4 2.95 -1.48 2.95 -2.28 2.68 -3.22 2.42 -3.76 1.88 -4.3 1.61 -4.83 0.94 -4.83 0.54 -4.97 -0.13 -4.7 -0.67 -4.43 -1.21 -3.76 -1.61m0 0l0 -1.48m5.24 -36.52l-0.27 0.27 -1.48 1.75 -0.81 1.88 0 2.01 0.81 1.88 1.48 1.88 2.01 1.48m35.98 8.86l-0.4 2.95 -1.48 2.95 -2.28 2.68 -3.22 2.42 -3.76 1.88 -4.3 1.61 -4.83 0.94 -4.83 0.54 -4.97 -0.13 -4.7 -0.67 -4.43 -1.21 -3.76 -1.61m24.57 -37.19l1.61 1.21 0.94 1.48 0.13 1.61 -0.54 1.48 -1.34 1.34 -1.88 1.21 -2.42 0.67 -2.55 0.4 -2.68 -0.13 -2.55 -0.54 -2.15 -0.94m-4.16 8.19l2.68 1.21 3.09 0.94 3.36 0.4 3.36 0 3.36 -0.4 3.09 -0.94 2.69 -1.21 2.15 -1.48 1.48 -1.88 0.67 -1.88 0 -2.01 -0.67 -1.88 -1.48 -1.75 -0.27 -0.27m12.49 14.36l-0.4 2.95 -1.48 2.95 -2.28 2.69 -3.22 2.42 -3.76 1.88 -4.3 1.61 -4.83 0.94 -4.83 0.54 -4.97 -0.13 -4.7 -0.67 -4.43 -1.21 -3.76 -1.61m28.86 -28.19l2.15 1.48 1.48 1.75 0.81 1.74 0.13 1.88 -0.4 1.88 -1.21 1.75 -1.75 1.61 -2.42 1.34 -2.68 1.07 -3.09 0.67 -3.22 0.27 -3.36 -0.13 -3.09 -0.4 -2.95 -0.94 -2.55 -1.21m-13.69 13.56l-0.4 2.15 0.4 2.68 1.48 2.55 2.42 2.28 3.09 2.01m-0 0l3.76 1.61 4.43 1.21 4.7 0.67 4.97 0.13 4.83 -0.54 4.83 -0.94 4.3 -1.61 3.76 -1.88 3.22 -2.42 2.28 -2.68 1.48 -2.95 0.4 -2.95 -0.27 -2.15m-49.67 -2.82l-0.4 2.15 0.4 2.68 1.48 2.55 2.42 2.28 3.09 2.01m-0 0l3.76 1.61 4.43 1.21 4.7 0.67 4.97 0.13 4.83 -0.54 4.83 -0.94 4.3 -1.61 3.76 -1.88 3.22 -2.42 2.28 -2.68 1.48 -2.95 0.4 -2.95 -0.27 -2.15m-49.67 -3.22l-0.4 2.55 0.4 2.69 1.48 2.55 2.42 2.28 3.09 2.01m-0 0l6.44 2.42 7.52 1.07 7.79 -0.27 7.52 -1.75 6.44 -2.95 4.56 -3.89 2.42 -4.7 0 -4.83m0 0l-0.67 -1.88 -0.27 -0.27m-1.34 6.31l0 0.13 -1.34 2.55 -2.15 2.55 -2.82 2.15 -3.49 1.88 -4.03 1.34 -4.3 0.94 -4.43 0.4 -4.56 0 -4.3 -0.54 -4.03 -1.07 -3.49 -1.48m0 0l-2.82 -1.88 -2.15 -2.15 -0.81 -1.34m43.9 4.03l-0.4 0.67 -0.13 0.13 -0.81 1.07 -0.81 0.94 -1.07 0.94 -1.07 0.94 -1.21 0.81 -3.49 1.88 -4.03 1.34 -4.3 0.94 -4.43 0.4 -4.56 0 -4.3 -0.54 -4.03 -1.07 -3.49 -1.48m0 0l-2.82 -1.88 -2.15 -2.15 -0.81 -1.34m43.77 4.16l-0.4 0.67 -2.15 2.55 -2.82 2.15 -3.49 1.88 -4.03 1.34 -4.3 0.94 -4.43 0.4 -4.56 0 -4.3 -0.54 -4.03 -1.07 -3.56 -1.41m0 0l-2.82 -1.88 -2.15 -2.15 -0.81 -1.34m43.77 4.16l-0.4 0.67 -2.15 2.55 -2.82 2.15 -3.49 1.88 -4.03 1.34 -4.3 0.94 -4.43 0.4 -4.56 0 -4.3 -0.54 -4.03 -1.07 -3.49 -1.48m-0 0l-1.48 1.88m0 0l3.76 1.61 4.43 1.21 4.7 0.67 4.97 0.13 4.83 -0.54 4.83 -0.94 4.36 -1.61 3.76 -1.88 3.22 -2.42 2.28 -2.68 1.48 -2.95 0.4 -2.95 -0.27 -2.15m-3.09 -24.3l0.94 1.21 1.21 2.95 0.13 3.09 -0.81 2.69 -1.48 2.55 -2.15 2.15 -2.42 1.75 -1.34 0.81 -1.48 0.81 -1.61 0.67 -4.83 1.48 -5.1 0.94 -4.97 0.13 -4.7 -0.27 -4.16 -0.81 -3.62 -1.07 -3.09 -1.34m33.56 -22.96l2.55 1.61 1.88 2.01 1.34 2.15 0.67 2.15 0 2.28 -0.67 2.28 -1.34 2.01 -1.88 2.01 -2.55 1.75 -3.09 1.48 -3.36 1.07 -3.63 0.81 -3.89 0.4 -3.89 0 -3.89 -0.4 -3.62 -0.81 -3.36 -1.07 -2.95 -1.48m81.76 43.5l0.27 0.54 0.13 0.94 0.13 0.54 0 0.27m7.79 0.67l-2.28 0 -2.42 1.07m6.18 -0.27l1.48 0.67 0.81 0.81 0.4 0.81 0.27 0.81 0.13 0.67 0 0.4m-4.56 -4.97l0.94 0.4m-145.26 0.81l-2.55 -0.94 -2.28 0m0 0l-0.81 0.4m-0.54 0.4l-1.48 0.67 -0.81 0.81 -0.54 0.81 -0.27 0.81 -0.13 0.67 0 0.4m164.46 0.81l-2.55 -0.13 -2.95 0.81m6.71 0.13l1.75 0.94 0.94 0.81 0.54 0.81 0.27 0.94 0.13 0.67 0.13 0.54m-3.49 -4.7l-1.48 -0.81m-164.99 0.74l-2.95 -0.67 -2.55 0.13m0 0l-1.48 0.81m0.27 0.13l-1.75 0.81 -0.94 0.81 -0.54 0.81 -0.27 0.94 -0.13 0.67 -0.13 0.54m156.53 -8.86l3.49 -1.88m1.48 0.67l-0.27 -0.13 -0.13 0 -0.13 -0.13 -0.27 -0.13 -0.13 0 -0.13 -0.13 -0.27 -0.13 -0.13 0m-139.62 0.13l1.48 0.81m-1.48 -0.81l-0.13 0.13 -0.13 0.13 -0.27 0 -0.13 0.13 -0.13 0.13 -0.27 0 -0.13 0.13 -0.13 0.13m165.53 10.87l-2.82 -0.4 -3.09 0.54m6.98 0.81l2.01 0.94 1.07 0.94 0.54 0.81 0.4 0.94 0.13 0.67 0.13 0.67m-5.37 -5.91l2.01 0.94 0.4 0.4m-185.13 -0.94l-3.36 -0.54 -2.69 0.4m0 0l-2.01 1.07 -0.4 0.27m1.34 -0.4l-1.88 0.94 -1.07 0.94 -0.54 0.81 -0.4 0.94 -0.27 0.67 -0.13 0.81m171.03 -17.45l2.55 -0.94 2.15 0m-4.7 0.94l-4.83 2.82m-135.06 -1.21l-2.55 -1.34m-4.83 -0.94l2.28 -0.13 2.55 1.07m139.89 9.4l3.22 -1.34 7.79 -3.36m1.34 0.81l-0.13 -0.13 -0.13 0 -0.13 -0.13 -0.13 -0.13 -0.13 0 -0.13 -0.13 -0.13 0 -0.13 -0.13m0 0l0 0 -0.13 -0.13 -0.13 0m-159.49 0.13l10.2 4.3 0.67 0.27m-10.87 -4.56l-0.13 0.13 -0.13 0.13 -0.13 0.13 -0.13 0.13 -0.27 0 -0.13 0.13 -0.13 0.13 -0.13 0.13m162.04 -0.27l2.95 -0.74 2.42 0.13m-5.37 0.67l-10.07 4.3 -1.61 0.67m-138.41 0.07l-4.03 -1.61 -7.92 -3.22m-5.5 -0.54l2.55 -0.27 2.95 0.81m182.98 12.49l-3.09 -0.67 -3.36 0.4m7.25 1.21l2.15 1.21 1.21 1.07 0.54 0.81 0.54 0.94 0.27 0.67 0.13 0.67 0 0.34 -0.13 0m-5.5 -6.58l2.15 1.21 1.21 1.07m-200.7 -2.28l-3.63 -0.27 -2.95 0.67m0 0l-2.15 1.21 -1.21 1.07m2.55 -1.34l-2.15 1.07 -1.07 1.07 -0.67 0.94 -0.54 0.94 -0.13 0.67 -0.13 0.67 -0.13 0.13 0.13 0.13m179.36 -9.06l7.79 -2.55 8.73 -2.69m1.07 0.94l-0.13 -0.13 -0.13 -0.13 -0.13 -0.13 -0.13 -0.13 -0.13 0 -0.13 -0.13 -0.13 -0.13 -0.13 -0.13m-176.81 0.27l11.28 3.36 5.64 1.75m-16.92 -5.1l-0.13 0.13 -0.13 0.13 -0.13 0 -0.13 0.13 -0.13 0.13 -0.13 0.13 -0.13 0.13 -0.13 0.13m178.96 -0.27l3.22 -0.54 2.69 0.4m-5.91 0.13l-11.14 3.49 -6.18 1.88m-144.18 0.13l-8.59 -2.55 -8.86 -2.68m-6.04 -0.13l2.95 -0.4 3.09 0.54m163.65 10.47l-0.81 0.13m-147.27 -0.13l0.81 0.13 0.54 0.27m180.36 3.15l-3.22 -0.81 -3.63 0m7.38 1.88l2.28 1.21 1.21 1.21 0.67 0.94 0.54 0.94 0.27 0.67 0.13 0.81 0 0.13m-5.64 -6.98l2.15 1.34 1.34 1.21 0.81 1.07 0.13 0.13m-213.19 -4.3l-3.76 0 -3.09 0.94m0 0l-2.28 1.34 -1.34 1.21 -0.6 1.07 -0.13 0.27m3.76 -2.95l-2.15 1.34 -1.21 1.21 -0.67 0.81 -0.54 1.07 -0.27 0.67 -0.27 0.67 0 0.27m187.68 -10.87l11.95 -2.69 9.4 -2.01m0.81 0.94l-0.13 -0.13 0 -0.13 -0.13 -0.13 -0.13 -0.13 -0.13 0 -0.13 -0.13 0 -0.13 -0.13 -0.13m-21.34 4.7l0 0 0.13 0.13 0.13 0.13 0.13 0.13 0.13 0.13 0 0.13 0.13 0.13 0.13 0.13m-170.36 -5.37l12.08 2.42 9.4 2.01m-21.48 -4.43l-0.13 0.13 -0.13 0.13 -0.13 0.13 -0.13 0.13 -0.13 0.13 -0.13 0.13 -0.13 0.13m21.61 4.43l0.13 0 0 -0.13 0.13 -0.13 0.13 -0.13 0.13 -0.13 0.13 -0.13 0 -0.13 0.13 -0.13m145.8 41.42l0 -18.8m-143.51 0l0 16.65m149.96 -33.7l-0.67 0.13 -0.67 0.13m-155.19 -0.13l0.81 0.13 0.67 0.13m152.24 0.13l1.48 -0.27m0 0l0.13 0.13 0 0.2 0.13 0.13 0 0.13 0.13 0.13 0 0.13 0.13 0.13 0.13 0.13m18.66 -10.74l3.62 -0.27 2.82 0.54m-6.44 -0.27l-11.95 2.68 -9.4 2.01m0 0l-0.81 0.13 -0.54 0.13m0 0l-0.13 0.13m-150.23 4.7l1.48 0.27m-2.01 0.67l0 0 0.13 -0.13 0 -0.13 0.13 -0.13 0 -0.13 0.13 -0.13 0 -0.13 0.13 -0.13m2.01 -5.1l0.81 0.27 0.54 0.13m-1.34 -0.4l-12.08 -2.42 -9.53 -2.01m-6.44 0.4l3.09 -0.67 3.36 0.27m23.09 4.83l-0.13 0m148.82 4.83l-0.94 0.4 -0.81 0.4m2.28 0.27l0 -0.13 -0.13 -0.13 0 -0.13 -0.13 -0.13 0 -0.13 -0.13 -0.13 -0.13 -0.13 0 -0.13m-148.88 0.94l-0.13 -0.13 -0.81 -0.4 -0.94 -0.27m0 0l0 0.13 -0.13 0.13 -0.13 0.13 0 0.13 -0.13 0.13 0 0.13 -0.13 0.13 0 0.13m154.12 -1.75l12.75 -1.61 9.93 -1.34m0.54 1.07l0 -0.13 -0.07 -0.13 0 -0.13 -0.13 -0.13 0 -0.13 -0.13 -0.13 -0.13 -0.13 0 -0.13m-22.69 2.95l0.13 0.13 0.13 0.13 0 0.13 0.13 0.13 0 0.13 0.13 0.13 0 0.13 0.13 0.13m-179.9 -3.76l12.75 1.61 9.93 1.21m-22.69 -2.82l0 0.13 -0.13 0.13 -0.13 0.13 0 0.13 -0.13 0.13 0 0.13 -0.13 0.13 0 0.13m22.69 2.82l0 -0.13 0.13 -0.13 0.13 -0.13 0 -0.13 0.13 -0.13 0 -0.13 0.13 -0.13 0 -0.13m190.1 6.04l-3.36 -1.07 -3.76 -0.27m7.52 2.42l2.28 1.48 1.21 1.21 0.81 0.94 0.54 1.07 0.27 0.67 0.27 0.81 0 0.13m-5.77 -7.38l2.28 1.48 1.34 1.34 0.81 1.07 0.54 1.21 0.4 0.81m-42.69 18.06l0 -20.2m-148.95 0l0 18.26m-30.21 -23.09l-4.03 0.4 -3.22 1.07m0 0l-2.28 1.48 -1.34 1.34 -0.81 1.21 -0.54 1.21 -0.4 0.81m5.1 -4.97l-2.28 1.48 -1.34 1.21 -0.67 0.94 -0.67 1.07 -0.27 0.67 -0.13 0.81 -0.13 0.13m198.89 -7.99l-0.81 0.13 -0.67 0m-160.83 0l0.81 0 0.67 0.13m157.88 0.13l1.48 -0.27m0 0l0.13 0.13 0 0.13 0.13 0.13 0 0.27 0.13 0.13 0 0.33m-159.76 -0.94l1.48 0.13m-1.88 0.94l0 -0.13 0.13 -0.13 0 -0.27 0.13 -0.13 0 -0.27 0.13 -0.13m157.88 0.13l-0.94 0.13 -0.81 0.4 -0.67 0.4 -0.54 0.54 -0.67 1.07 -0.13 0.94m4.16 -2.42l-0.13 -0.13 0 -0.27 -0.13 -0.13 0 -0.27 -0.13 -0.13 0 -0.13m-3.36 4.56l0 -0.13 -0.13 -0.13 0 -0.27 -0.13 -0.13 0 -0.27 -0.13 -0.13m-148.95 0l-0.27 -1.07 -0.4 -0.67 -0.4 -0.54 -0.94 -0.67 -0.81 -0.27 -0.94 -0.27m0 0l0 0.13 -0.13 0.13 0 0.27 -0.13 0.13 0 0.27 -0.13 0.13m4.16 2.42l0 0.13 -0.13 0.13 0 0.27 -0.13 0.13 0 0.27 -0.13 0.13m148.48 -8.06l0.67 -0.67 0.81 -0.4 0.81 -0.27m-3.49 13.83l0 16.65m29 -33.97l3.96 0 2.95 0.81m-6.85 -0.81l-12.62 1.61 -9.93 1.34m0 0l-0.81 0.13 -0.54 0.13m0 0l-1.61 0.27m-154.79 -0.4l0.81 0.13 0.67 0m-1.48 -0.13l-12.75 -1.61 -9.93 -1.21m-6.98 0.81l3.36 -0.81 3.62 0m29.27 33.56l0 -16.58m-3.62 -13.69l0.81 0.27 0.81 0.4 0.67 0.54m-2.28 -1.21l-1.48 -0.4m153.31 23.76l0 -9.4m-151.84 0l0 5.37m157.07 -15.04l13.16 -0.67 10.34 -0.54m0.4 1.07l-0.13 -0.13 0 -0.27 -0.13 -0.13 0 -0.27 -0.13 -0.13 0 -0.13m-23.49 1.21l0.13 0.13 0 0.27 0.13 0.13 0 0.27 0.13 0.13 0 0.13m-186.2 -2.01l13.16 0.67 10.34 0.4m-23.49 -1.07l-0.13 0.13 0 0.27 -0.13 0.13 0 0.34 -0.13 0.13 0 0.13m23.49 1.07l0 -0.13 0.13 -0.13 0 -0.27 0.13 -0.13 0 -0.27 0.13 -0.13m163.92 6.18l-1.48 0m-164.05 0l1.48 0m160.97 0l1.61 0m0 0l0 0.67 0.13 0.13 0 0.27m-162.71 -1.14l1.61 0.13m-1.61 0.94l0 -1.07m160.97 0l-0.94 0.13 -0.81 0.27 -0.67 0.54 -0.54 0.4 -0.67 1.07 -0.13 0.94m3.89 -2.28l0 -0.67 -0.13 -0.13 0 -0.27m-3.63 4.43l0 -0.27 -0.13 -0.13 0 -0.67m-151.84 0l-0.27 -1.21 -0.27 -0.54 -0.54 -0.54 -0.94 -0.54 -0.81 -0.27 -0.94 -0.13m0 0l0 0.67 -0.13 0.13 0 0.27m3.89 2.15l0 1.07m189.83 -2.15l-3.49 -1.34 -3.76 -0.4m7.38 2.95l2.28 1.61 1.34 1.34 0.81 1.07 0.54 1.07 0.27 0.67 0.27 0.81 0 0.13 0.13 0m-5.77 -7.92l2.28 1.75 1.34 1.48 0.81 1.07 0.54 1.34 0.4 0.81 0.27 1.07 0 0.4 0.13 0m-226.35 -9.4l-3.89 0.54 -3.36 1.34m0 0l-2.28 1.75 -1.34 1.48 -0.81 1.21 -0.67 1.21 -0.27 0.94 -0.27 0.94 0 0.4m5.64 -6.85l-2.42 1.75 -1.34 1.34 -0.67 0.94 -0.67 1.07 -0.27 0.81 -0.27 0.67 0 0.27m194.39 -11.95l0.27 -1.21 0.4 -0.54 0.4 -0.54 0.94 -0.67 0.81 -0.4 0.94 -0.13m-3.76 3.49l0 15.71m30.14 -20.74l3.89 0.27 3.22 1.07m-7.12 -1.34l-13.16 0.67 -10.34 0.54m0 0l-0.81 0.13 -0.67 0m0 0l-1.48 0.27m-160.16 -0.27l0.81 0 0.67 0.13m-1.48 -0.13l-13.16 -0.54 -10.34 -0.54m-7.05 1.41l3.36 -1.21 3.76 -0.27m30.21 20.54l0 -15.71m-3.76 -3.49l0.94 0.27 0.94 0.27 0.67 0.54 0.54 0.54 0.54 1.07 0.13 0.81m-3.76 -3.49l-1.48 -0.13m162.85 4.97l13.29 0.27 10.61 0.27m0.13 1.07l0 -0.13 -0.13 -0.13 0 -0.81m-23.9 -0.54l0 0.54 0.13 0.13 0 0.4m-189.56 -0.27l13.43 -0.4 10.47 -0.4m-23.9 0.81l0 0.94 -0.13 0.13m23.9 -0.81l0.13 -0.13 0 -0.94m162.58 6.04l1.61 0m1.48 0.13l-0.81 0 -0.67 -0.13m0 0l0 0.4 -0.13 0.13 0 0.67m-162.58 -1.07l1.48 0m-3.09 0.13l0.94 -0.13 0.67 0m0.13 1.07l-0.13 -0.13 0 -0.94m200.97 87.26l0 -74.24m-39.87 -13.16l-0.94 0.13 -0.81 0.13 -0.67 0.4 -0.54 0.4 -0.67 1.07 -0.13 0.81m3.63 -1.88l0 -0.27 0.13 -0.13 0 -0.67m-155.73 3.09l-0.27 -1.21 -0.4 -0.54 -0.54 -0.4 -0.94 -0.54 -0.67 -0.27 -1.07 0m0 0l0 0.27 0.13 0.13 0 0.67m-39.87 86.59l0 -74.24m205 123.51l6.18 -3.89 5.64 -4.03 5.1 -4.3 4.43 -4.56 4.03 -4.7 3.22 -4.83 2.68 -4.97 2.01 -5.1 1.34 -5.24 0.67 -5.1 0.13 -2.69m-6.91 -82.63l-3.49 -1.61 -3.76 -0.81m7.12 3.49l2.42 1.75 1.34 1.48 0.67 1.07 0.67 1.21 0.27 0.67 0.27 0.81 0.13 0.13 0 0m-5.64 -8.19l2.28 1.75 1.34 1.61 0.81 1.21 0.54 1.34 0.4 0.94 0.13 0.94 0.13 0.27 0 0.13m-226.35 -10.34l-4.03 0.94 -3.22 1.61m0 0l-2.42 1.88 -1.34 1.48 -0.67 1.21 -0.67 1.34 -0.27 0.94 -0.27 0.94 0 0.4m5.77 -7.11l-2.35 1.68 -1.34 1.48 -0.67 1.07 -0.67 1.07 -0.27 0.81 -0.4 0.81 0 0.13m195.6 -15.17l0.27 -1.21 0.27 -0.54 0.54 -0.54 0.94 -0.67 0.81 -0.27 0.94 -0.13m-3.76 3.36l0 4.16m30.74 -6.98l3.89 0.54 3.36 1.34m-7.25 -1.88l-13.42 -0.4 -10.47 -0.13m0 0l-1.48 0m0 0l-1.61 0m-162.71 0l1.61 0m-1.61 0l-13.29 0.54 -10.61 0.27m-7.12 1.88l3.36 -1.34 3.76 -0.54m30.88 6.98l0 -4.43m-3.89 -3.22l0.94 0.13 0.94 0.27 0.67 0.4 0.54 0.54 0.54 0.94 0.27 0.94m-3.89 -3.22l-1.48 -0.13m159.89 11.01l1.48 0.13m-160.23 0.2l1.61 -0.27m160.03 0.4l-0.81 -0.13 -0.67 -0.13m0 0l0 0.27 -0.13 0.13 0 0.27 -0.13 0.13 0 0.27m-161.37 -0.81l0.81 -0.13 0.67 0m0.4 1.07l0 -0.13 -0.13 -0.13 0 -0.13 -0.13 -0.13 0 -0.27 -0.13 -0.13 0 -0.13m158.68 -0.27l-0.94 0 -0.81 0.13 -0.67 0.27 -0.54 0.4 -0.67 0.94 0 0.13m3.22 -0.81l0.13 -0.13 0 -0.27 0.13 -0.13 0 -0.27 0.13 -0.13 0 -0.13m-153.58 1.88l-0.13 -0.27 -0.27 -0.54 -0.54 -0.4 -0.94 -0.54 -0.67 -0.13 -0.94 0m0 0l0 0.27 0.13 0.13 0 0.27 0.13 0.13 0 0.27m161.1 -6.98l13.42 1.34 10.47 1.07m-0.13 1.07l0 -0.54 0.13 -0.13 0 -0.4m-23.9 -2.42l0 0.54 -0.13 0.13 0 0.4m-189.43 1.61l13.29 -1.48 10.47 -1.07m-23.76 2.55l0 0.81 0.13 0.13 0 0.13m23.76 -2.55l0 -0.94 -0.13 -0.13m200.57 96.12l0 -74.24m-235.14 74.44l0 -74.11m193.45 -18.53l0.27 -1.07 0.4 -0.54 0.4 -0.54 0.94 -0.54 0.81 -0.13 0.94 -0.13m-3.76 2.95l0 2.69m30.74 -3.02l4.03 0.81 3.22 1.61m-7.25 -2.42l-13.43 -1.34 -10.47 -1.07m0 0l-1.48 0m0 0l-1.61 -0.13m-162.44 0.27l0.94 0 0.67 -0.13m-1.61 0.13l-13.29 1.41 -10.47 1.07m-7.25 2.55l3.36 -1.75 3.89 -0.81m30.61 2.82l0 -2.55m-3.76 -2.95l0.94 0 0.94 0.27 0.67 0.4 0.54 0.4 0.54 0.94 0.13 0.94m-3.76 -2.95l-1.48 0m157.21 10.61l1.48 0.27m34.77 1.34l-3.49 -1.88 -3.76 -1.07m6.85 4.03l2.28 2.01 1.34 1.61 0.81 1.07 0.67 1.21 0.27 0.81 0.27 0.81 0.13 0.13m-5.37 -8.73l2.28 2.15 1.21 1.61 0.81 1.21 0.54 1.34 0.27 0.94 0.27 1.07 0 0.4m-195.06 -9.94l1.48 -0.27m151.97 -0.13l-0.94 0 -0.81 0.13 -0.67 0.27 -0.54 0.27 -0.4 0.67m2.69 -0.27l0.13 -0.13 0 -0.13 0.13 -0.13 0 -0.13 0.13 -0.13 0.13 -0.13 0 -0.13 0.13 -0.13m-148.75 1.34l-0.27 -0.4 -0.4 -0.4 -0.94 -0.4 -0.67 -0.13 -0.94 0.13m0 -0l0 0.13 0.13 0.13 0.13 0.13 0 0.13 0.13 0.13 0 0.13 0.13 0.13 0 0.2m154.25 -0.54l-0.81 -0.27 -0.54 -0.13m0 0l-0.13 0.13 0 0.13 -0.13 0.13 0 0.13 -0.13 0.13 -0.13 0.13 0 0.13 -0.13 0.13m-181.77 -2.28l-4.03 1.21 -3.09 1.75m0 0l-2.42 2.15 -1.21 1.61 -0.81 1.34 -0.54 1.34 -0.27 0.94 -0.13 0.94 -0.13 0.27 0 0.13m5.91 -7.65l-2.42 2.01 -1.21 1.48 -0.81 1.21 -0.67 1.21 -0.4 0.81 -0.27 0.81 0 0.13 -0.13 0m38.66 -10.07l0.81 -0.13 0.67 -0.13m0.54 1.07l0 -0.13 -0.13 -0.13 0 -0.13 -0.13 -0.13 0 -0.13 -0.13 -0.13 -0.13 -0.13 0 -0.13m158.95 -5.77l13.16 2.28 10.34 1.74m-0.27 1.07l0 -0.27 0.13 -0.13 0 -0.27 0.13 -0.13 0 -0.27m-23.49 -4.03l0 0.27 -0.13 0.13 0 0.27 -0.13 0.13 0 0.27m-186.2 3.36l13.02 -2.55 10.34 -1.88m-23.36 4.43l0 0.27 0.13 0.13 0 0.27 0.13 0.13 0 0.27m23.49 -4.43l0 -0.13 -0.13 -0.13 0 -0.27 -0.13 -0.13 0 -0.27 -0.13 -0.13m153.72 11.01l-0.94 -0.13 -0.67 0 -0.67 0.27 -0.4 0.27 -0.27 0.27m-138.41 -0l0 0 -0.4 -0.4 -0.81 -0.27 -0.81 -0.13 -0.81 0.13m144.18 0l1.34 0.4m-2.15 0.54l0 -0.13 0.13 0 0.13 -0.13 0.13 -0.13 0.13 -0.13 0 -0.13 0.13 -0.13 0.13 -0.13m-145.66 0.54l1.48 -0.54m0 0l0.13 0.13 0 0.13 0.13 0.13 0.13 0.13 0.13 0.13 0.13 0.13 0 0.13 0.13 0.13m184.86 86.59l0 -74.11m-38.8 -12.75l-0.67 -0.27 -0.67 -0.13m0 0l0 0.13 -0.13 0.13 -0.13 0.13 -0.13 0.13 -0.13 0.13 0 0.13 -0.13 0 -0.13 0.13m-147.61 -0.4l0.81 -0.27 0.54 -0.13m0.94 0.94l-0.13 -0.13 -0.13 -0.13 -0.13 -0.13 0 -0.13 -0.13 -0.13 -0.13 -0.13 -0.13 -0.13 -0.13 0m148.01 -8.26l0.27 -1.07 0.4 -0.54 0.4 -0.54 0.94 -0.4 0.81 -0.13 0.94 0m-3.76 2.69l0 2.01m30.34 -0.27l3.89 1.21 3.22 1.74m-7.12 -2.95l-13.16 -2.28 -10.34 -1.75m0 0l-0.94 -0.13 -0.54 -0.13m0 0l-1.61 -0.13m-191.58 98.41l0 -74.24m32.22 -23.76l0.81 -0.13 0.67 0m-1.48 0.13l-13.16 2.42 -10.34 2.01m-6.98 2.95l3.36 -1.88 3.62 -1.07m30.21 0l0 -2.15m-3.76 -2.69l0.94 0 0.81 0.13 0.81 0.4 0.4 0.4 0.67 0.94 0.13 0.81m-3.76 -2.69l-1.48 0.27m188.22 14.5l-3.22 -2.08 -3.63 -1.34m6.18 4.43l2.28 2.28 1.34 1.61 0.81 1.21 0.54 1.21 0.4 0.81 0.27 0.81 0.13 0.13 0 0.13m-5.1 -9.13l2.15 2.15 1.34 1.75 0.67 1.34 0.54 1.34 0.27 0.94 0.13 1.07 0 0.54m-215.07 -12.42l-3.76 1.48 -3.09 2.01m0 0l-2.28 2.28 -1.21 1.74 -0.67 1.34 -0.54 1.48 -0.27 0.81 -0.13 1.07 0 0.4m5.77 -8.06l-2.28 2.15 -1.34 1.61 -0.67 1.21 -0.67 1.34 -0.4 0.67 -0.27 0.94 -0.13 0.13m192.25 -18.79l12.75 3.22 10.07 2.69m-0.67 0.94l0.13 -0.13 0 -0.13 0.13 -0.13 0 -0.13 0.13 0 0.13 -0.13 0 -0.13 0.13 -0.13m-22.82 -5.91l0 0.13 -0.13 0.13 0 0.13 -0.13 0.13 0 0.13 -0.13 0.13 -0.13 0.13 0 0.13m-179.76 5.1l12.62 -3.49 9.93 -2.68m-22.55 6.18l0 0.13 0.13 0.13 0.13 0.13 0 0.13 0.13 0.13 0 0.13 0.13 0.13 0.13 0.13m22.55 -6.18l-0.13 -0.13 0 -0.13 -0.13 -0.13 0 -0.07 -0.13 -0.13 -0.13 -0.13 0 -0.13 -0.13 -0.13m145.93 10.2l-0.81 -0.13 -0.67 0 -0.67 0.13 -0.4 0.27m-128.88 0.13l-0.27 -0.27 -0.81 -0.27 -0.67 0 -0.81 0.27m133.98 -0.13l1.34 0.54m-2.42 0.4l0.13 -0.13 0.13 -0.13 0.13 0 0.13 -0.13 0.13 -0.13 0.13 -0.13 0.13 -0.13 0.13 -0.13m-135.32 0.54l1.34 -0.4m0 0l0.13 0.13 0.13 -0 0.13 0.13 0.13 0.13 0.13 0.13 0.13 0.13 0.13 0.13 0.13 0m135.46 0.13l-0.67 -0.27 -0.54 -0.27m0 0l-0.13 0.13 -0.13 0.13 -0.13 0.13 -0.13 0 -0.13 0.13 -0.13 0.13 -0.13 0.13 -0.13 0.13m-136.87 -0.4l0.67 -0.27 0.54 -0.27m1.07 0.94l-0.13 -0.13 -0.13 0 -0.13 -0.13 -0.13 -0.13 -0.13 -0.13 -0.13 -0.13 -0.13 -0.13 -0.13 -0.13m140.09 -7.99l0.27 -1.07 0.4 -0.54 0.4 -0.4 0.94 -0.4 1.61 0m-3.62 2.42l0 2.15m36.11 87.13l0 -81.76m-6.85 -3.49l3.76 1.48 3.09 2.01m-6.85 -3.49l-12.75 -3.22 -9.93 -2.55m-0 0l-0.81 -0.27 -0.67 -0.13m0 0l-1.48 -0.27m-153.58 0.67l0.81 -0.13 0.54 -0.13m-1.34 0.27l-12.62 3.49 -9.93 2.69m-6.85 3.49l3.22 -2.15 3.62 -1.34m-6.85 3.49l0 81.62m35.84 -87.4l0 -2.15m-3.69 -2.22l0.94 -0.13 0.81 0.13 0.67 0.27 0.54 0.27 0.54 0.94 0.13 0.81m-3.62 -2.28l-1.48 0.27m184.59 100.15l0 -74.11m-215.07 74.51l0 -74.11m182.18 -21.48l12.08 4.3 9.53 3.22m-21.61 -7.52l0 0.13 -0.13 0.13 -0.13 0.13 -0.13 0.13 0 0.13 -0.13 0.13 -0.13 0.13 -0.13 0m-13.29 8.32l-0.67 -0.27 -0.67 0 -0.54 0.13 -0.27 0.13m-117.2 0l0 0 -0.67 -0.27 -0.67 0.13 -0.67 0.27m-35.58 -1.48l11.95 -4.43 9.4 -3.36m0.94 0.94l-0.13 -0.13 -0.13 -0.13 -0.13 -0.13 0 -0.13 -0.13 0 -0.13 -0.13 -0.13 -0.13 -0.13 -0.13m135.59 9.13l1.21 0.67m-2.42 0.13l0.13 0 0.13 -0.13 0.13 -0.13 0.27 -0.13 0.13 0 0.13 -0.13 0.13 -0.13 0.13 -0.13m-122.57 0.67l1.21 -0.54m0 0l0.13 0 0.13 0.13 0.13 0.13 0.13 0.13 0.34 0 0.13 0.13 0.13 0.13 0.13 0.13m162.44 1.34l-3.22 -2.28 -3.36 -1.74m5.64 5.1l2.15 2.28 1.34 1.74 0.67 1.21 0.67 1.34 0.27 0.81 0.4 0.81 0 0.27 0.13 0m-4.7 -9.53l2.01 2.42 1.21 1.75 0.54 1.48 0.54 1.34 0.27 1.07 0.13 0.94 0 0.54m-12.08 -12.49l0 -0.13 0.13 -0.13 0.13 -0.13 0.13 -0.13 0.13 -0.13 0 -0.13 0.13 -0.13 0.13 -0.13m-33.43 2.95l-0.54 -0.27 -0.54 -0.27m0 0l-0.13 0 -0.13 0.13 -0.13 0.13 -0.27 0.13 -0.13 0.13 -0.13 0 -0.13 0.13 -0.13 0.13m-156.94 -2.82l-3.49 1.75 -2.95 2.28m0 0l-2.15 2.42 -1.07 1.88 -0.67 1.34 -0.54 1.48 -0.13 0.94 -0.13 0.94 0 0.54m5.5 -8.59l-2.15 2.28 -1.21 1.75 -0.67 1.34 -0.67 1.21 -0.27 0.81 -0.4 0.94 0 0.13 -0.13 0.13m11.14 -13.56l0.13 0 0.13 0.13 0.13 0.13 0 0.13 0.13 0.13 0.13 0.13 0.13 0.13 0 0.13m32.49 1.75l0.54 -0.4 0.54 -0.27m1.21 0.81l-0.13 0 -0.13 -0.13 -0.13 -0.13 -0.13 -0.13 -0.27 -0.13 -0.13 0 -0.13 -0.13 -0.13 -0.13m129.69 -7.65l0.27 -1.07 0.27 -0.4 0.54 -0.4 0.81 -0.27 0.67 -0.13 0.94 0.13m-3.49 2.15l0 2.55m34.23 89.41l0 -81.62m-6.44 -4.03l3.49 1.75 2.95 2.28m-6.44 -4.03l-12.08 -4.3 -9.53 -3.36m0 0l-0.67 -0.13 -0.67 -0.27m0 0l-1.34 -0.4m-145.26 0.94l0.67 -0.27 0.67 -0.13m-1.34 0.4l-11.95 4.3 -9.53 3.49m-6.44 4.03l3.09 -2.42 3.36 -1.61m-6.44 4.03l0 81.76m33.96 -89.88l0 -2.42m-3.36 -2.15l0.94 -0.13 0.67 0 0.67 0.27 0.4 0.27 0.54 0.81 0.13 0.94m-3.36 -2.15l-1.34 0.4m126.06 12.89l-0.67 -0.27 -0.54 -0.13 -0.54 0.13m-103.37 0.13l-0.54 -0.13 -0.54 0 -0.67 0.4m106.86 -0.13l1.07 0.67m-2.55 0.13l0.13 -0.13 0.27 0 0.13 -0.13 0.13 -0.13 0.27 -0.13 0.13 0 0.13 -0.13 0.27 -0.13m-107.8 0.81l0.94 -0.67m-0 0l0.27 0 0.13 0.13 0.13 0.13 0.27 0 0.13 0.13 0.13 0.13 0.27 0 0.13 0.13m107.4 0.67l-0.54 -0.4 -0.4 -0.4m0 0l-0.27 0.13 -0.13 0.13 -0.13 0.13 -0.27 0 -0.13 0.13 -0.13 0.13 -0.27 0 -0.13 0.13m-108.47 0l0.54 -0.4 0.54 -0.27m1.34 0.67l-0.13 0 -0.13 -0.13 -0.27 -0.13 -0.13 0 -0.13 -0.13 -0.27 -0.13 -0.13 0 -0.13 -0.13m123.91 -8.86l11.14 5.1 8.86 4.03m-20 -9.13l-0.13 0.13 -0.13 0.13 -0.13 0 -0.13 0.13 -0.13 0.13 -0.13 0.13 -0.13 0.13 -0.13 0.13m-157.81 8.52l11.01 -5.24 8.73 -4.16m1.07 0.94l-0.13 -0.13 -0.13 0 -0.13 -0.13 -0.13 -0.13 -0.13 -0.13 -0.13 -0.13 -0.13 -0.13 -0.13 -0.13m169.49 97.53l0 -74.24m-199.36 0.4l0 74.11m144.72 -86.05l-0.54 -0.27 -0.54 -0.13 -0.4 0m-87.67 0l-0.27 0 -0.54 0.13 -0.54 0.4m140.83 1.61l-2.82 -2.55 -3.22 -1.88m4.97 5.37l2.01 2.55 1.21 1.75 0.67 1.34 0.67 1.34 0.27 0.81 0.27 0.94 0.13 0.13 0.13 0m-4.3 -9.8l1.88 2.55 1.07 1.88 0.67 1.48 0.4 1.48 0.13 0.94 0.13 1.07 0 0.4m-11.41 -13.29l0.13 -0.13 0.13 -0.13 0.13 -0.13 0.13 -0.13 0.13 -0.13 0.13 0 0.13 -0.13 0.13 -0.13m-178.82 0.27l-3.36 2.01 -2.68 2.55m0 0l-1.88 2.55 -1.07 1.88 -0.54 1.48 -0.54 1.48 -0.13 0.94 -0.13 1.07 0 0.27 0.13 0.13m5.24 -8.99l-2.01 2.55 -1.07 1.75 -0.81 1.34 -0.54 1.34 -0.4 0.81 -0.27 0.94 -0.13 0.13 0 0.13m10.2 -14.36l0.13 0.13 0.13 0 0.13 0.13 0.13 0.13 0.13 0.13 0.13 0.13 0.13 0.13 0.13 0.13m133.44 1.48l0.81 0.81m-2.42 -0.13l0.13 -0.13 0.27 0 0.13 -0.13 0.27 0 0.13 -0.13 0.27 -0.13 0.13 0 0.27 -0.13m-91.29 0.81l0.81 -0.67m0 0l0.27 0 0.13 0.13 0.27 0 0.13 0.13 0.27 0 0.13 0.13 0.27 0.13 0.13 0m106.33 -10.74l0.27 -1.07 0.27 -0.4 0.4 -0.4 0.81 -0.13 0.67 0 0.81 0.13m-3.22 1.88l0 3.09m31.82 91.29l0 -81.62m-6.04 -4.43l3.36 2.08 2.68 2.42m-6.04 -4.43l-11.14 -5.1 -8.86 -4.03m0 0l-0.67 -0.4 -0.54 -0.13m0 0l-1.34 -0.54m-134.38 1.07l0.67 -0.27 0.54 -0.27m-1.21 0.54l-11.14 5.24 -8.59 4.16m-6.04 4.43l2.82 -2.55 3.22 -1.88m-6.04 4.43l0 81.76m31.41 -91.56l0 -3.22m-3.09 -1.88l0.81 -0.13 0.67 0 0.54 0.13 0.54 0.27 0.4 0.81 0.13 0.81m-3.09 -1.88l-1.34 0.54m114.11 13.02l-0.4 -0.54 -0.4 -0.27m0 0l-0.13 0 -0.27 0.13 -0.13 0.13 -0.27 0 -0.13 0.13 -0.27 0 -0.13 0.13 -0.27 0m-91.29 0.27l0.4 -0.4 0.4 -0.4m1.61 0.67l-0.27 -0.13 -0.13 0 -0.27 -0.13 -0.13 -0.13 -0.27 0 -0.13 -0.13 -0.27 0 -0.13 -0.13m109.01 -7.65l10.2 5.91 7.92 4.7m-18.12 -10.61l-0.13 0.13 -0.13 0.13 -0.13 0.13 -0.13 0 -0.13 0.13 -0.27 0.13 -0.13 0.13 -0.13 0m-142.57 10.07l9.93 -6.04 7.92 -4.7m1.21 0.81l0 0 -0.13 -0.13 -0.13 0m0 0l-0.13 -0.13 -0.13 -0.13 -0.13 0 -0.13 -0.13 -0.13 0 0 -0.13 -0.13 -0.13 -0.13 0m99.21 9.8l-0.54 -0.4 -0.27 -0.13 -0.27 0m-70.35 0.13l-0.27 -0.13 -0.27 0.13 -0.54 0.4m72.49 0l0.67 0.81m-2.42 -0.27l0.27 -0.13 0.4 0 0.13 -0.13 0.27 0 0.27 -0.13 0.13 0 0.27 -0.13m-73.17 0.94l0.67 -0.94m0 0l0.27 0.13 0.27 0 0.13 0.13 0.27 0 0.13 0.13 0.27 0 0.27 0.13 0.13 0m72.09 1.07l-0.4 -0.4 -0.27 -0.4m0 0l-0.27 0.13 -0.13 0 -0.27 0.13 -0.13 0 -0.27 0.13 -0.4 0 -0.27 0.13m-72.76 0.4l0.4 -0.54 0.27 -0.27m1.75 0.4l-0.27 0 -0.13 -0.13 -0.27 0 -0.13 -0.13 -0.27 0 -0.13 -0.13 -0.54 0m127.27 88.87l0 -74.11m-63.77 -13.29l-0.27 -0.4 -0.27 -0.27 -0.13 0m-51.82 0.13l-0.13 0 -0.27 0.13 -0.27 0.4m-63.37 87.67l0 -74.11m146.47 -24.57l0.27 -1.07 0.27 -0.4 0.4 -0.27 0.67 -0.27 0.54 0 0.81 0.27m-2.95 1.75l0 4.03m28.86 92.63l0 -81.62m-5.5 -4.97l-10.2 -5.91 -7.92 -4.7m0 0l-0.67 -0.27 -0.4 -0.27m0 0l-1.21 -0.67m-121.23 1.34l0.67 -0.4 0.4 -0.27m-1.07 0.67l-9.93 6.04 -7.92 4.7m-5.37 4.97l0 81.62m28.33 -92.77l0 -4.16m-2.82 -1.61l0.67 -0.27 0.67 -0.13 0.54 0.13 0.4 0.27 0.4 0.81 0.13 0.81m-2.82 -1.61l-1.21 0.54m87.26 12.08l0.54 0.81m-2.28 -0.4l0.13 -0.13 0.54 0 0.13 -0.13 0.54 0 0.13 -0.13 0.27 0m-53.7 0.94l0.54 -0.94m0 0l0.27 0 0.13 0.13 0.54 0 0.13 0.13 0.54 0 0.13 0.13m110.22 3.63l1.88 2.68 1.07 1.88 0.54 1.34 0.67 1.34 0.27 0.94 0.27 0.81 0.13 0.27 0.13 0m-3.76 -10.07l1.75 2.55 0.94 2.01 0.54 1.48 0.4 1.48 0.13 1.07 0 1.48m-3.76 -10.07l-2.55 -2.82 -2.95 -2.15m-1.21 0.81l0.13 -0.13 0.13 0 0.27 -0.13 0.13 -0.13 0.13 -0.13 0.13 0 0.13 -0.13 0.13 -0.13m-1.21 0.81l3.09 2.28 2.42 2.69m-170.36 0.27l2.55 -2.82 2.82 -2.15m-0.27 -0.13l0.13 0 0 0.13 0.13 0m-1.21 -0.81l0.13 0 0 0.13 0.13 0.13 0.13 0 0.13 0.13 0.13 0 0.13 0.13 0.13 0.13m-0.94 -0.67l-3.09 2.28 -2.42 2.68m0 0l-1.75 2.69 -0.94 2.01 -0.4 1.48 -0.4 1.48 -0.13 0.94 -0.13 1.07 0.13 0.27 0 0.13m0 0l0.13 0 0 -0.13 0.13 -0.27 0.27 -0.67 0.4 -1.34m0 0l1.74 -3.49 2.28 -3.36m101.49 -2.69l-0.13 -0.4 -0.27 -0.27m-32.22 0.13l-0.13 -0.13 -0.13 0.27 -0.13 0.4m44.17 0.13l-0.27 -0.54 -0.27 -0.4m0 0l-0.27 0.13 -0.4 0 -0.27 0.13 -0.4 0 -0.27 0.13 -0.13 0m-52.89 0.54l0.27 -0.54 0.13 -0.27m1.88 0.27l-0.54 0 -0.13 -0.13 -0.54 0 -0.13 -0.13 -0.54 0m33.29 1.61l0 -0.54 -0.13 -0.13m-12.08 0l0 0 0 0.13 -0.13 0.54m22.69 -0.94l0.4 0.94m-2.28 -0.67l0.27 0 0.27 -0.13 0.94 0 0.13 -0.13 0.27 0m-33.29 0.94l0.27 -0.94m0 0l0.27 0 0.13 0.13 0.94 0 0.27 0.13 0.27 0m70.08 -9.67l8.86 6.58 7.12 5.24m-15.98 -11.81l-0.13 0 -0.27 0.13 -0.13 0.13 -0.13 0 -0.27 0.13 -0.13 0.13 -0.13 0 -0.27 0.13m-124.99 11.41l8.73 -6.85 6.85 -5.24m1.48 0.81l-0.13 -0.13 -0.27 -0.13 -0.13 0 -0.13 -0.13 -0.27 -0.13 -0.13 -0.13 -0.13 0 -0.27 -0.13m61.62 10.34l0.13 0.81m-2.01 -0.81l1.88 0m-12.49 0.81l0.13 -0.81m0 0l1.88 0m21.48 0.81l-0.13 -0.4 -0.13 -0.4m0 0l-0.81 0 -0.13 0.13 -0.94 0m-32.09 0.81l0.13 -0.54 0.13 -0.4m1.88 0.13l-0.94 0 -0.27 -0.13 -0.67 0m23.22 1.75l-0.13 -0.54 0 -0.4m0 0l-0.54 0 -0.13 0.13 -1.21 -0m-10.74 0.81l0 -0.94m2.01 0.13l-1.21 0 -0.27 -0.13 -0.54 0m55.71 -10.34l0.27 -1.07 0.13 -0.4 0.4 -0.27 0.54 -0.13 0.54 0 0.67 0.4m-2.55 1.48l0 5.5m20.54 6.18l-8.86 -6.58 -7.12 -5.24m0 0l-0.54 -0.4 -0.4 -0.27m0 0l-1.07 -0.67m-105.92 1.48l0.54 -0.54 0.4 -0.27m-0.94 0.81l-8.73 6.71 -6.98 5.24m20.14 -6.31l0 -5.64m-2.42 -1.48l0.67 -0.27 0.54 -0.13 0.4 0.13 0.4 0.13 0.4 0.81 0 0.81m-2.42 -1.48l-1.07 0.67m127.81 99.48l0 -81.62m4.43 83.77l0 -74.11m-158.08 74.37l0 -74.11m4.43 -9.67l0 81.62m149.15 -81.89l1.61 2.82 0.94 1.88 0.67 1.48 0.4 1.48 0.4 0.81 0.27 0.94 0.13 0.13 0 0.13m-3.09 -10.47l1.61 2.82 0.81 2.01 0.4 1.61 0.27 1.48 0.13 0.94 0 1.61 -0.13 0m-3.09 -10.47l-2.28 -2.95 -2.42 -2.28m-1.48 0.67l0.13 0 0.27 -0.13 0.13 -0.13 0.13 0 0.27 -0.13 0.13 -0.13 0.13 0 0.27 -0.13m-1.48 0.67l2.69 2.55 2.15 2.82m-27.92 -13.96l7.65 7.25 5.91 5.64m-13.56 -12.89l-0.13 0 -0.13 0.13 -0.27 0 -0.13 0.13 -0.27 -0 -0.13 0.13 -0.27 0.13 -0.13 0m-121.23 12.89l-1.48 2.95 -0.81 2.01 -0.4 1.48 -0.27 1.61 -0.13 0.94 0 1.34 0.13 0 0 0.13m4.43 -9.67l-1.61 2.69 -0.94 2.01 -0.54 1.34 -0.54 1.48 -0.27 0.94 -0.4 0.94 0 0.13 -0.13 0.13m4.43 -9.67l2.28 -3.09 2.42 -2.28m-1.34 -0.67l0.13 0 0.13 0.13 0.27 0.13 0.13 0 0.13 0.13 0.27 0.13 0.13 0 0.13 0.13m-1.34 -0.67l-2.69 2.42 -2.15 2.82m15.84 -0.4l7.38 -7.25 5.77 -5.77m1.61 0.54l-0.27 0 -0.13 -0.13 -0.27 0 -0.13 -0.13 -0.27 0 -0.13 -0.13 -0.27 -0.13 -0.13 0m88.34 0.27l0.13 -0.94 0.13 -0.4 0.4 -0.27 0.4 -0.13 0.54 0.13 0.54 0.4m-2.15 1.21l0 7.92m17.32 5.37l-7.52 -7.25 -5.91 -5.77m0 0l-0.54 -0.4 -0.4 -0.4m0 0l-0.81 -0.67m-88.87 1.48l0.4 -0.4 0.4 -0.27m-0.81 0.67l-7.38 7.38 -5.77 5.77m16.92 -5.1l0 -8.19m-2.15 -1.34l0.54 -0.4 0.54 -0.13 0.27 0.13 0.4 0.13 0.27 0.67 0.13 0.94m-2.15 -1.34l-0.81 0.81m82.03 3.22l6.04 7.79 4.7 6.18m-10.74 -13.96l-0.27 0.13 -0.13 0 -0.27 0.13 -0.07 0 -0.27 0.13 -0.27 0 -0.13 0.13 -0.27 0m26.98 97.2l0 -81.62m4.03 84.04l0 -74.11m-114.78 -11.95l5.77 -7.79 4.56 -6.18m1.75 0.4l-0.13 0 -0.27 -0.13 -0.4 0 -0.27 -0.13 -0.13 0 -0.27 -0.13 -0.27 0m157.21 32.76l0.4 2.01 0.67 5.24 0 5.24 -0.67 5.24 -1.34 5.1 -2.01 5.1 -2.68 4.97 -3.22 4.83 -4.03 4.7 -4.43 4.56 -5.1 4.3 -5.64 4.03 -6.18 3.89m32.22 -44.57l0 0 0.94 -0.13 0.67 -0.13 0.27 0 0.13 -0.13m-6.04 8.99l2.01 0.13 1.75 0 0.13 -0.13 0.13 0m-9.8 8.19l3.76 0.54 0.94 0.13 0.94 0 0.13 -0.13m-5.91 -0.54l0.13 0m-0.13 8.86l0 0m-5.64 -0.94l3.49 0.81 0.94 0.27 1.07 0 0.13 -0.13m-7.79 -1.61l2.15 0.67m-2.15 8.86l0 -0.13m-5.37 -1.34l3.22 1.21 0.94 0.13 0.67 0.13 0.54 0m-9.53 -2.95l4.16 1.48m-4.16 8.59l0 0 0 -0.13m-4.97 -1.61l2.95 1.34 0.81 0.27 0.67 0.27 0.4 0 0.13 -0.13m-11.01 -4.7l6.04 2.95m-6.18 8.19l0.13 0 0 -0.13m-4.56 -2.01l2.68 1.61 0.67 0.4 0.54 0.13 0.54 0m-12.22 -7.12l7.79 4.97m-7.92 7.65l0.13 0 0 -0.13m-4.16 -2.28l2.28 1.75 0.67 0.4 0.54 0.27 0.54 0m-13.29 -10.34l9.26 7.92m-129.28 2.42l0 0 0 0.27 0.13 0m3.89 -2.42l9.4 -8.32m-25.84 5.24l0.54 0 0.81 -0.27 0.94 -0.54 2.15 -1.34m-4.56 2.01l0 0 0 0.13 0.13 0m4.43 -2.15l7.92 -5.24m-23.49 0.94l0.13 0.13 0.47 0 0.81 -0.27 1.21 -0.4 2.42 -1.21m-5.1 1.61l0 0.13 0.13 0m4.97 -1.75l6.04 -3.09m-20.54 -2.28l0 0 0.13 0.13 0.4 0 0.81 -0.13 1.21 -0.4 2.69 -0.94m-5.37 1.21l0 0.13 0.13 0m5.24 -1.34l4.16 -1.75m-17.32 -4.7l0.13 0 0.13 0.13 0.27 0 0.81 -0.13 1.34 -0.27 2.82 -0.67m-5.5 0.81l0 0 0 0.13m5.5 -0.94l2.28 -0.67m-13.83 -6.71l0.13 0 0.13 0.13 1.07 0 1.34 -0.27 3.09 -0.54m0 0l0.27 0m-10.2 -8.26l0.13 0.13 0.13 0.13 2.42 0 1.48 -0.13m-6.18 -8.99l0 0 0.13 0.13 0.27 0 0.81 0.13 0.81 0m92.9 42.42l0 0m-96.12 -42.83l0 2.69 0.67 5.1 1.34 5.24 2.01 5.1 2.69 4.97 3.36 4.83 3.89 4.7 4.56 4.56 5.1 4.3 5.64 4.03 6.04 3.89m0 0l6.71 3.49 6.98 3.22 7.52 2.95 7.79 2.68 8.19 2.15 8.32 2.01 8.73 1.48 8.73 1.21 8.99 0.67 9 0.4 8.99 0 8.99 -0.4 9 -0.67 8.86 -1.21 8.59 -1.48 8.46 -2.01 8.05 -2.15 7.92 -2.68 7.38 -2.95 7.12 -3.22 6.58 -3.49m-0 -4.7l0 4.7m0 -4.7l-6.58 3.49 -7.12 3.42 -7.38 2.82 -7.92 2.68 -8.05 2.28 -8.46 1.88 -8.59 1.48 -8.86 1.21 -9 0.81 -8.99 0.4 -8.99 0 -9 -0.4 -8.99 -0.81 -8.73 -1.21 -8.73 -1.48 -8.32 -1.88 -8.19 -2.28 -7.79 -2.68 -7.52 -2.82 -6.98 -3.36 -6.71 -3.49m0 0l-6.04 -3.89 -5.64 -4.03 -5.1 -4.3 -4.56 -4.56 -3.89 -4.7 -3.36 -4.83 -2.69 -4.97 -2.01 -5.1 -1.34 -5.1 -0.67 -5.24 0 -5.24 0.67 -5.24 0.54 -1.88m53.3 67.39l0 -74.11m0 74.11l0.54 0 0.67 -0.4 0.94 -0.54 1.75 -1.48m0 -81.76l0 81.76m125.26 -81.89l1.48 2.82 0.81 2.15 0.54 1.34 0.4 1.48 0.27 0.94 0.27 0.94 0.13 0.13 0 0.13 0.13 0m-2.42 -10.61l1.34 2.95 0.54 2.01 0.4 1.61 0.27 1.48 0 2.42 -0.13 0.13m-2.42 -10.61l-1.88 -3.09 -2.15 -2.55m-1.61 0.67l0.13 -0.13 0.27 0 0.13 -0.13 0.27 -0.13 0.13 0 0.27 -0.13 0.13 0 0.27 -0.13m-1.61 0.67l2.28 2.55 1.75 3.09m-126.87 -0.4l-1.21 2.95 -0.67 2.15 -0.27 1.48 -0.27 1.48 0 2.42 0.13 0.13m3.89 -10.07l-1.34 2.95 -0.81 2.01 -0.54 1.48 -0.4 1.48 -0.27 0.81 -0.4 0.94 0 0.27 -0.13 0.13m3.89 -10.07l1.88 -3.09 2.15 -2.55m-1.61 -0.67l0.13 0.13 0.27 0.13 0.13 0 0.27 0.13 0.13 0 0.27 0.13 0.13 0 0.27 0.13m-1.61 -0.67l-2.15 2.68 -1.88 3.09m91.69 -13.16l4.3 8.19 3.49 6.31m-7.79 -14.5l-0.54 0 -0.13 0.13 -0.54 0 -0.13 0.13 -0.54 0m-60.81 14.36l4.16 -8.19 3.36 -6.44m1.75 0.4l-0.13 -0.13 -0.54 0 -0.13 -0.13 -0.54 0 -0.13 -0.13 -0.27 0m60.28 -2.55l0.13 -0.94 0.13 -0.4 0.27 -0.27 0.4 0 0.4 0.13 0.4 0.4m-1.75 1.07l0 12.08m6.31 77.6l10.87 12.35m-3.36 -87.67l-6.04 -7.65 -4.7 -6.18m0 0l-0.4 -0.54 -0.27 -0.27m0 0l-0.67 -0.81m-70.35 1.61l0.4 -0.4 0.27 -0.4m-0.67 0.81l-5.77 7.92 -4.56 6.04m-3.22 87.66l10.87 -12.89m5.64 -76.39l0 -12.89m-1.61 -1.07l0.4 -0.4 0.4 -0.13 0.27 0 0.27 0.13 0.27 0.67 0 0.81m-1.61 -1.07l-0.67 0.81m88.47 104.98l0.13 0 0 -0.13 0.13 -0.13m-3.62 -2.42l0 -81.62m0 81.62l1.75 1.88 0.67 0.54 0.4 0.27 0.54 0m0 0l0 -74.11m-106.33 73.97l0 0 0.13 0.13 0 0.13 0.13 0m0 0l0 -74.11m0 74.11l0.13 0.13 0.13 0 0.13 -0.13 0.13 0 0.67 -0.4 0.67 -0.67 1.48 -1.61m0 -81.62l0 81.62m66.59 -98l2.69 8.46 2.15 6.71m-4.83 -15.17l-0.27 0.13 -0.94 -0 -0.27 0.13 -0.4 0m-36.92 14.9l2.55 -8.46 2.01 -6.58m1.88 0.13l-0.81 0 -0.13 -0.13 -0.94 0m66.99 16.11l1.07 2.95 0.67 2.15 0.4 1.48 0.4 1.48 0.27 0.94 0.27 0.94 0.13 0.13 0 0.13 0.13 0m-1.75 -10.74l1.07 2.95 0.54 2.15 0.13 1.61 0.13 1.48 0.13 1.07 -0.13 1.07 0 0.27 -0.13 -0 0 0.13m-1.75 -10.74l-1.48 -3.36 -1.75 -2.55m-1.75 0.4l0.54 0 0.13 -0.13 0.27 0 0.13 -0.13 0.27 0 0.13 -0.13 0.27 0m-1.75 0.4l1.88 2.82 1.48 3.22m-101.09 -0.4l-0.94 3.09 -0.54 2.15 -0.13 1.48 -0.13 1.61 -0.13 0.94 0.13 1.07 0 0.27 0.13 0.13m3.36 -10.2l-1.07 2.95 -0.67 2.01 -0.4 1.48 -0.4 1.61 -0.27 0.94 -0.27 0.94 -0.13 0.27 -0.13 0m3.36 -10.2l1.48 -3.36 1.75 -2.68m-1.75 -0.4l0.13 0 0.27 0.13 0.27 0 0.13 0.13 0.27 0 0.13 0.13 0.54 0m-1.75 -0.4l-1.75 2.82 -1.48 3.09m57.59 -14.9l0.94 8.59 0.81 6.71m-1.75 -15.3l-1.48 0 -0.27 0.13 -0.13 0m-12.22 15.17l0.67 -8.59 0.67 -6.71m1.88 0.13l-0.54 0 -0.13 -0.13 -1.21 0m29.8 -2.95l0.13 -0.94 0.13 -0.4 0.13 -0.27 0.27 0 0.27 0.13 0.4 0.54m-1.34 0.94l0 22.96m0.67 60.41l11.95 19.74m-2.42 -87.8l-4.43 -8.19 -3.49 -6.44m0 0l-0.27 -0.4 -0.13 -0.4m0 0l-0.54 -0.81m-50.61 1.75l0.27 -0.54 0.27 -0.4m-0.54 0.94l-4.16 8.19 -3.36 6.44m8.59 68.87l0.13 -0.27m-0.4 0.67l0.13 -0.27m-10.74 18.8l10.47 -18.12m1.48 -5.64l0 -79.48m-1.21 -0.94l0.4 -0.4 0.27 -0.27 0.13 0 0.27 0.13 0.13 0.67 0 0.81m-1.21 -0.94l-0.4 0.81m64.04 106.19l0.13 0 0.13 -0.13 0 -0.27m-2.95 -2.55l0 -81.62m0 81.62l1.34 2.01 0.4 0.54 0.4 0.27 0.13 0.13 0.4 0m0 0l0 -74.11m-77.33 73.84l0 0.27 0.13 0 0 0.13 0.13 0m0 0l0 -74.11m0 74.11l0.4 0 0.13 -0.13 0.54 -0.4 0.54 -0.67 1.07 -1.75m0 -81.62l0 81.62m44.44 -22.96l2.28 -0.13 2.82 -0.27m-17.99 0.67l8.06 0m-17.99 -0.67l4.3 0.4 1.48 0.13m44.3 -58.93l0.81 3.09 0.54 2.15 0.27 1.48 0.4 1.48 0.27 0.94 0.27 0.94 0 0.27 0.13 0.13m-0.94 -10.87l0.67 3.09 0.4 2.15 0.13 1.61 0 2.55 -0.13 1.07 0 0.27 -0.13 0.13m-0.94 -10.87l-1.07 -3.36 -1.34 -2.82m-1.75 0.4l0.27 0 0.13 -0.13 0.54 0 0.13 -0.13 0.54 0 0.13 -0.13m-1.75 0.4l1.34 2.95 1.07 3.22m-22.15 -20l0 -1.34 0.13 -0.27 0.27 0 0.13 0.13 0.13 0.54m-0.67 0.94l0 82.29m0 0l7.65 21.61m-1.48 -88.07l-2.69 -8.46 -2.15 -6.58m0 0l-0.13 -0.54 -0.13 -0.4m0 0l-0.4 -0.81m-51.95 20.67l-0.67 3.09 -0.4 2.28 -0.13 1.48 0 2.55 0.13 1.07 0 0.27 0.13 0 0 0.13m2.69 -10.47l-0.81 2.95 -0.4 2.15 -0.4 1.48 -0.4 1.61 -0.13 0.94 -0.27 0.94 -0.13 0.27 0 0.13 -0.13 0m2.69 -10.47l1.07 -3.49 1.21 -2.68m-1.75 -0.4l0.27 0.13 0.4 0 0.27 0.13 0.67 0 0.13 0.13m-1.75 -0.4l-1.21 2.95 -1.07 3.22m22.15 -18.93l0.13 -0.54 0.13 -0.4m-0.27 0.94l-2.55 8.46 -2.01 6.71m-1.34 87.93l7.12 -21.61m0 0l0 -82.3m-0.27 -1.61l0.13 0.13 0.13 0.67 0 0.81m-0.67 -0.94l0.13 -0.4 0.13 -0.27 0.13 0m-0.4 0.67l-0.27 0.81m18.93 0.81l0 -1.61 0.13 0 0 0.27 0.13 0.4m-0.27 0.94l0 82.3m0 0l2.82 22.02m-0.54 -88.07l-1.07 -8.59 -0.67 -6.71m0 0l-0.13 -0.54 0 -0.4m0 -0l-0.13 -0.94m-8.73 1.88l0 -0.54 0.13 -0.4m-0.13 0.94l-0.81 8.59 -0.54 6.71m-0.4 88.07l2.15 -22.02m0 0l0 -82.29m-0.13 -1.61l0.13 0.13 0 1.48m-0.27 -0.94l0.13 -0.4 0 -0.27m-0.13 0.67l0 0.94m27.92 106.33l0.13 0 0.13 -0.13 0.13 0 0 -0.13 0.13 -0.54m-2.55 -2.28l0 -81.76m0 81.76l0.94 2.01 0.27 0.54 0.4 0.4 0.13 0 0.13 0.13 0.13 0m0 0l0 -74.24m-47.12 73.57l0 0.13 0.13 0.27 0 0.13 0.13 0.13 0.13 0m0 0l0 -74.11m0 74.11l0.4 0 0.13 -0.13 0.4 -0.4 0.4 -0.81 0.67 -1.75m0 -81.62l0 81.62m42.69 -81.76l0.54 3.09 0.4 2.28 0.27 1.48 0.27 1.61 0.13 0.94 0.27 0.94 0.13 0.27m-0.13 -10.87l0.4 3.09 0.13 2.28 0.13 1.48 -0.13 1.61 0 1.07 -0.13 1.07 -0.13 0.27 -0.13 0m-0.13 -10.87l-0.67 -3.36 -0.81 -2.82m-1.88 0.13l0.67 0 0.27 -0.13 0.94 0m-1.88 0.13l0.81 3.09 0.67 3.22m-44.57 -0.13l-0.4 3.09 -0.13 2.28 0 3.09 0.13 1.07 0.13 0.94 0 0.27 0.13 0.13m2.01 -10.6l-0.54 2.95 -0.27 2.28 -0.27 1.48 -0.27 1.61 -0.27 0.94 -0.13 0.94 -0.13 0.27 -0.13 0.13m2.01 -10.6l0.67 -3.49 0.67 -2.82m-1.88 -0.27l0.27 0 0.27 0.13 0.94 0 0.13 0.13 0.27 0m-1.88 -0.27l-0.67 3.09 -0.67 3.22m31.15 86.19l0 0 0.13 -0.13 0.13 0 0.13 -0.13 0.13 -0.54 0.13 -0.81 0 -0.13m-2.01 -1.48l0.4 2.15 0.27 0.54 0.13 0.27 0.13 0.13 0.13 0 0.13 0.13 0.13 0m0 -74.24l0 74.24m-1.34 -3.22l0 -81.76m-15.04 83.1l0 0.67 0.13 0.67 0.13 0.27 0.13 0.13 0.13 0.13 0.13 0m0 -74.11l0 74.11m0 0l0.27 0 0 -0.13 0.13 0 0.27 -0.54 0.27 -0.81 0.4 -1.75m0 -81.76l0 81.76m13.02 -81.76l0.13 3.22 0.27 2.15 0.13 1.61 0.13 1.48 0.27 0.94 0.13 1.07 0.13 0.27 0.13 -0m0.54 -10.74l0.13 3.09 0 2.15 -0.13 1.61 -0.13 1.48 0 1.07 -0.27 1.07 -0.13 0.27m0.54 -10.74l-0.27 -3.49 -0.27 -2.95m-1.88 0.13l0.67 0 0.27 -0.13 0.94 0m-1.88 0.13l0.27 2.95 0.27 3.36m-15.04 0l0 6.98 0.13 1.48 0.13 0.94 0.13 1.07 0.13 0.27 0.13 0.13m1.34 -10.87l-0.27 3.09 -0.13 2.28 -0.13 1.48 -0.27 1.61 -0.13 0.94 -0.27 1.07 0 0.27 -0.13 -0 0 0.13m1.34 -10.87l0.13 -3.49 0.27 -2.82m-1.88 -0.13l0.13 0 0.27 0.13 1.48 0m-1.88 -0.13l-0.27 3.09 -0.27 3.36m127 37.32l0.67 -1.88 1.34 -5.1 0.67 -5.24 0 -2.69m-0.94 -10.74l0.27 1.07 0.67 5.24 0 5.24 -0.67 5.24 -1.34 5.1 -2.15 5.1 -2.68 5.1 -3.22 4.83 -4.03 4.7 -4.56 4.56 -5.1 4.43 -5.64 4.03 -6.18 3.89m-207.55 -47.79l0.13 2.69 0.67 5.24 1.34 5.1 0.54 1.74m42.15 37.86l-2.55 -1.34 -6.71 -3.49 -6.18 -3.89 -5.64 -4.03 -5.1 -4.43 -4.56 -4.56 -3.89 -4.7 -3.36 -4.83 -2.68 -5.1 -2.01 -5.1 -1.34 -5.1 -0.67 -5.24 0 -5.24 0.67 -5.24 0.13 -1.21m206.61 58.67l-6.71 3.49 -3.22 1.61m-101.09 -11.68l0.13 0.67m-0.13 -1.48l0.13 0.67m-0.13 -1.48l0.13 0.67m-0.13 -1.34l0.13 0.54m-0.13 -1.34l0.13 0.54m0 3.22l0.4 0.54 0.81 0.4 0.27 0m-1.61 -5.5l0.13 0.67m-0.13 3.09l0 0 0.13 -0.13m0 0.67l-0.13 -0.54m1.61 1.48l-0.27 -0.13 -0.81 -0.4 -0.4 -0.4m1.48 0.67l-0.67 -0.4 -0.27 -0.27m-0.54 -0.54l0.4 0.54 0.81 0.4 0.27 0m-1.48 -1.21l0 0.27m-0.13 -4.56l0.13 0.67m-0.13 3.09l0.13 0m0 0.54l-0.13 -0.54m1.61 1.48l-0.27 0 -0.81 -0.4 -0.4 -0.54m1.48 0.67l-0.67 -0.27 -0.27 -0.27m-0.54 -0.67l0.4 0.54 0.81 0.4 0.27 0.13m-1.48 -1.34l0 0.27m-0.13 -4.43l0.13 0.54m-0.13 -0.54l0 0m0 3.76l0 -0.13 0.13 0m0 0.54l-0.13 -0.4m1.61 1.34l-0.27 0 -0.81 -0.4 -0.4 -0.54m1.48 0.67l-0.67 -0.27 -0.27 -0.27m-0.54 -0.67l0.4 0.54 0.81 0.4 0.27 0.13m-1.48 -1.34l0 0.27m-0.13 -0.67l0 -0.13 0.13 0m0 0.54l-0.13 -0.4m1.61 1.34l-0.27 0 -0.81 -0.4 -0.4 -0.54m1.48 0.67l-0.67 -0.27 -0.27 -0.27m-0.4 -4.16l-0.13 0.27 0.13 0.4m-0.13 2.82l0.4 0.67 0.81 0.4 0.27 0m-1.48 -1.21l0 0.13m-0.13 -0.67l0 0 0.13 -0.13m0 0.67l-0.13 -0.54m1.61 1.48l-0.27 -0.13 -0.81 -0.4 -0.4 -0.4m1.48 0.54l-0.67 -0.27 -0.27 -0.27m-0.54 -0.54l0.4 0.54 0.81 0.4 0.27 0m-1.48 -1.21l0 0.27m0.4 -1.88l0.67 0.4m-1.21 0.67l0 0 0.13 -0.13m0 0.67l-0.13 -0.54m1.61 1.48l-0.27 -0.13 -0.81 -0.4 -0.4 -0.4m1.48 0.67l-0.67 -0.4 -0.27 -0.27m-0.54 -0.54l0.4 0.54 0.81 0.4 0.27 0m-1.48 -1.21l0 0.27m0.27 -2.69l0 0 0 0.54m-0.4 1.34l0.13 0m0 0.54l-0.13 -0.54m1.61 1.48l-0.27 0 -0.81 -0.4 -0.4 -0.54m1.48 0.67l-0.67 -0.27 -0.27 -0.4m-0.54 -0.54l0.4 0.54 0.67 0.4 0.4 0.13m-1.48 -1.34l0 0.27m1.48 0.4l-0.67 -0.27 -0.27 -0.27m-0.67 -0.4l0.13 -0.4m0 0.67l-0.13 -0.27m0.13 0.27l0.4 0.4 0.54 0.4 0.54 0.13m-1.34 -1.21l0.13 -0.4m-0.13 0.4l0.13 0.13 0.13 0.13m0.67 0.4l-0.4 -0.13 -0.27 -0.27m0.67 0.4l0.4 0.13m-1.21 -1.21l-0.13 -0.54m1.34 1.34l-0.13 -0.13 -0.67 -0.27 -0.27 -0.13 -0.13 -0.27m1.21 0.54l-0.67 -0.27 -0.4 -0.4 -0.13 -0.27m0.4 -1.48l0 -0.54 0.27 -0.4 0.54 -0.27m-1.21 2.68l0.4 -1.48m-0.4 1.48l0.4 0.4 0.67 0.4 0.13 0m0 -1.75l-0.4 -0.13 -0.4 -0.4m144.99 -23.63l0.54 -2.68 0.67 -5.24 0 -5.24 -0.67 -5.24 -0.81 -3.62m-32.09 72.36l6.31 -3.89 5.77 -4.3 5.24 -4.43 4.7 -4.56 4.03 -4.83 3.49 -5.1 2.69 -5.1 2.15 -5.24 0.94 -3.22m-32.89 32.49l6.31 -4.03 5.91 -4.16 5.24 -4.43 4.83 -4.7 4.16 -4.83 3.49 -5.1 2.82 -5.1 2.15 -5.24 1.61 -5.37 0.67 -3.49m-11.81 19.06l0.81 -1.34 2.82 -5.1 2.01 -5.24 1.34 -5.24 0.67 -5.37 0.13 -2.69m2.69 10.2l-0.54 1.61 -2.15 5.37 -2.82 5.1 -3.62 5.1 -4.16 4.83 -4.7 4.7 -5.37 4.43 -5.77 4.3 -6.44 3.89m-1.34 -2.28l6.31 -3.89 5.77 -4.16 5.24 -4.43 4.7 -4.56 4.16 -4.83 3.36 -4.97 2.95 -5.1 2.15 -5.1 1.48 -5.37 0.94 -5.24 0.13 -2.55m-35.64 51.55l6.31 -4.03 5.91 -4.16 5.37 -4.56 4.83 -4.7 4.16 -4.83 3.49 -5.1 2.82 -5.1 2.28 -5.37 1.48 -5.37 0.94 -5.37 0.13 -4.16m-191.71 76.12l3.76 1.21 8.32 2.28 8.59 2.01 8.86 1.61 9 1.34 9.13 0.81 9.26 0.4 9.26 0.13 9.13 -0.4 9.26 -0.81 8.99 -1.07 8.86 -1.48 8.73 -2.01 8.32 -2.28 5.77 -1.75m58.4 -80.28l0.27 1.34 0.67 5.24 0.13 2.01m-244.2 0l0.13 -2.01 0.67 -5.24 0.27 -1.21m0.67 -3.62l-0.94 3.62 -0.67 5.24 0 5.24 0.67 5.24 0.67 2.68m240.31 -31.41l0.13 0.27 2.01 5.24 1.34 5.37 0.67 5.24 0 5.37 -0.67 5.37 -1.34 5.37 -2.01 5.1 -2.82 5.1 -3.36 5.1 -4.03 4.7 -4.56 4.7 -5.24 4.43 -5.77 4.16 -6.31 3.89m-168.48 3.76l-0.13 -0.13 -6.71 -3.62 -6.31 -3.89 -5.77 -4.16 -5.24 -4.43 -4.7 -4.7 -4.03 -4.7 -3.36 -5.1 -2.68 -5.1 -2.15 -5.1 -1.34 -5.37 -0.67 -5.37 0 -5.37 0.67 -5.24 1.34 -5.37 2.15 -5.24 0.13 -0.13m207.28 69.27l-6.85 3.62 0 0.13m-167.48 -4.36l6.71 3.62 7.12 3.36 7.65 2.95 7.92 2.69 8.19 2.28 8.59 1.88 8.73 1.61 9 1.21 8.99 0.67 9.26 0.4 9.13 0 9.13 -0.4 9 -0.67 8.99 -1.21 8.73 -1.61 8.59 -1.88 8.32 -2.28 7.92 -2.69 7.52 -2.95 7.25 -3.36 6.71 -3.62m-206.41 -65.51l-0.94 2.28 -1.34 5.24 -0.67 5.37 0 5.3 0.67 5.24 1.34 5.24 2.01 5.24 2.68 5.1 3.36 4.83 4.03 4.83 4.56 4.56 5.24 4.43 5.64 4.03 6.31 3.89m173.45 0l6.18 -3.89 5.77 -4.03 5.1 -4.43 4.56 -4.56 4.03 -4.83 3.36 -4.83 2.69 -5.1 2.01 -5.24 1.34 -5.24 0.81 -5.24 0 -5.24 -0.81 -5.37 -1.34 -5.24 -0.81 -2.42m-243.26 37.79l0.81 2.82 2.01 5.24 2.68 5.1 3.36 5.1 4.03 4.83 4.56 4.56 5.24 4.56 5.77 4.16 6.31 4.03 6.71 3.62 7.25 3.36 7.65 3.09 8.06 2.69 8.32 2.42 8.59 2.01 8.86 1.61 9.13 1.21 9.13 0.81 9.26 0.54 9.4 0 9.26 -0.27 9.26 -0.81 9 -1.21 8.99 -1.48 8.73 -1.88 8.32 -2.28 8.19 -2.68 7.79 -2.95 7.25 -3.36 6.98 -3.49m0 0l0.13 -0.13 0.13 -0.13 0.13 0 0.13 -0.13 0.13 0 0.13 -0.13 0.13 0 0.13 -0.13m-212.38 -60.55l0.13 2.68 0.67 5.37 1.34 5.24 2.15 5.24 2.68 5.1 0.81 1.34m-11.68 -19.06l0.13 0.81 1.21 5.37 1.88 5.37 2.42 5.1 3.22 5.1 3.89 4.97 4.43 4.83 4.97 4.56 5.64 4.3 6.04 4.03 6.71 3.89 7.12 3.49 7.52 3.22 7.92 2.95 8.19 2.55 8.59 2.28 8.86 1.75 8.99 1.48 9.13 1.07 9.26 0.67 9.4 0.4 9.4 -0.13 9.4 -0.54 9.13 -0.81 9.13 -1.34 9 -1.61 8.73 -2.01 8.32 -2.42 8.19 -2.68 7.65 -3.09 7.38 -3.49 6.85 -3.62m-0.13 -5.24l-0.13 -0.13 -0.54 0 -0.13 0.13 -0.13 0.13m-0.94 0.54l0.13 -0.13 0.13 0 0.13 -0.13 0.13 0 0.13 -0.13 0.13 -0.13 0.13 0m-216.61 -50.08l0.54 4.7 1.07 5.24 1.88 5.24 2.42 5.1 3.09 5.1 3.76 4.83 4.3 4.7 4.97 4.56 5.5 4.3 5.91 4.03 6.58 3.76 6.98 3.49 7.38 3.22 7.65 2.95 8.19 2.55 8.46 2.15 8.59 1.88 8.86 1.48 9.13 1.07 9.13 0.81 9.13 0.27 9.26 -0 9.26 -0.4 9.13 -0.81 8.99 -1.21 8.86 -1.61 8.59 -2.01 8.32 -2.28 8.06 -2.69 7.65 -2.95 7.25 -3.22 6.85 -3.62m-215.47 -37.59l1.61 4.3 2.42 5.24 3.22 5.1 3.89 4.97 4.43 4.83 5.1 4.56 5.5 4.3 6.18 4.16 6.71 3.76 7.12 3.62 7.52 3.22 7.92 2.95 8.32 2.55 8.59 2.15 8.86 1.88 8.99 1.48 9.26 1.07 9.26 0.67 9.4 0.27 9.4 0 9.4 -0.54 9.26 -0.94 9.13 -1.21 9 -1.75 8.73 -2.01 8.46 -2.42 8.06 -2.69 7.79 -3.09 7.38 -3.36 6.85 -3.76m0.27 -0.94l-0.27 0.94m28.59 -82.83l0 0.13 3.22 5.1 2.55 5.24 1.88 5.37 1.21 5.37 0.54 5.5 -0.13 5.37 -0.94 5.37 -1.48 5.37 -2.28 5.37 -2.82 5.1 -3.49 5.1 -4.16 4.83 -4.83 4.7 -5.37 4.56 -5.91 4.3 -6.31 3.89m-0.67 -0.27l0 0 -0.13 0.13 -0.13 0 -0.13 0.13 -0.13 0.13 -0.13 0 -0.13 0.13 -0.13 0m-125.39 18.26l4.56 0.67 9.13 1.07 9.26 0.81 9.26 0.27 4.7 0m90.08 -21.35l-6.98 3.76 -7.38 3.36 -7.65 3.09 -8.19 2.82 -8.46 2.42 -8.73 2.01 -8.99 1.61 -9.13 1.34 -9.4 0.81 -9.4 0.54 -9.4 0.13 -9.4 -0.4 -9.4 -0.67 -9.26 -1.07 -9 -1.48 -8.86 -1.88 -8.59 -2.15 -8.32 -2.55 -7.92 -2.95 -7.65 -3.22 -7.12 -3.63 -6.71 -3.76 -6.18 -4.16 -5.64 -4.43 -4.97 -4.56 -4.43 -4.83 -3.89 -4.97 -3.22 -5.1 -2.55 -5.24 -1.95 -5.17 -1.21 -5.5 -0.54 -5.37 0.13 -5.5 0.94 -5.37 1.48 -5.37 2.28 -5.37 2.82 -5.1 1.88 -2.69m-9.53 29.13l0 1.34 0.54 5.5 1.21 5.37 1.88 5.37 2.55 5.24 3.22 5.1 3.89 4.97 4.43 4.83 4.97 4.56 5.64 4.43 6.18 4.03 6.71 3.89 7.12 3.49 7.65 3.36 7.92 2.82 8.32 2.68 8.59 2.15 8.86 1.88 9 1.48 9.26 1.07 9.4 0.67 9.4 0.27 9.4 0 9.4 -0.54 9.4 -0.94 9.13 -1.21 9 -1.74 8.73 -2.01 8.46 -2.42 8.19 -2.68 7.65 -3.09 7.38 -3.49 6.98 -3.63m0 -1.21l0 1.21m-137.07 -139.82l0 -1.14m4.03 0.94l0 0.67m2.28 5.64l0.81 -0.54 0.94 -1.07 0.4 -1.21 0 -0.27m-12.89 -1.88l0 1.75m12.89 -1.88l-0.13 -0.94 -0.54 -1.21 -1.07 -0.94 -1.34 -0.81 -1.88 -0.54 -1.88 -0.13 -2.01 0.27 -1.75 0.81m-2.28 5.37l0.13 0.94 0.67 1.21 1.21 0.94 1.48 0.67 1.88 0.4 2.01 0 1.88 -0.4 1.48 -0.54m2.15 -3.22l0 -1.75m-10.61 -3.62l-0.81 0.54 -0.94 1.21 -0.54 1.21 0 0.67m116.39 -20.41l0.67 -0.4 0.94 -1.07 0.4 -1.21 0 -0.27m0 -2.01l0 -0.94 -0.67 -1.21 -1.07 -1.07 -0.54 -0.27m2.28 5.37l0 -1.75m-2.68 -30.74l-0.94 -1.48 -2.42 -3.62 -3.09 -3.36 -3.49 -3.22 -3.96 -3.09 -3.09 -1.88m0 0l-0.13 -0.13m-0.54 -0.27l-3.76 -2.15m22.69 63.64l-0.13 -0.67 -0.13 -0.27 0 -0.13m0.67 1.61l-0.13 -0.13 -0.13 -0.13 -0.13 -0.27m-11.81 -36.11l-0.54 -0.54 -0.67 -0.94 -0.13 -0.81m5.5 5.77l-4.16 -3.49m6.04 5.77l-0.94 -1.34 -0.94 -0.94m6.71 12.35l-0.13 -0.54 -0.13 -0.67 -0.13 -0.54 -0.4 -0.67m0 0l-1.75 -3.49 -2.28 -4.16m-129.82 -2.15l-0.67 19.2m-3.89 2.95l-0.27 10.74m4.56 -24.43l-0.94 1.61 -0.27 0.54m13.96 -33.56l-0.94 0.67 -3.36 3.36 -2.82 3.63 -2.28 3.76 -1.61 3.89 -1.07 3.89 -0.4 3.89 0 0.94m24.7 -32.22l-3.76 2.15m21.82 -1.75l-0.2 20.88m-6.71 67.73l-2.95 -0.94 -4.97 -1.88m67.12 -64.84l-0.27 -20.94m47.79 63.63l-0.4 -10.74m-3.22 -11.81l-0.81 -1.48 -2.42 -3.63 -0.54 -0.67m-91.56 -44.3l0 8.99m0 -14.63l0 1.48m0 -7.12l0 1.48m50.34 18.8l0 -6.18m-30.14 -35.38l-3.62 0.67 -3.76 1.21 -2.55 1.21m30.74 0.54l-1.81 -1.01 -3.49 -1.34 -3.62 -0.94 -1.61 -0.13m-13.16 1.34l-4.7 4.03m-2.28 -2.42l-0.54 0.13 -2.82 1.81 -0.27 0.27m-1.34 1.21l-0.81 0.67 -1.88 2.42 -1.48 2.55 -0.81 2.69 -0.13 0.81m50.08 15.44l0 -1.48m0 -4.16l0 -1.41m0 -4.16l0 -1.48m-3.36 -9.67l-0.67 -0.94 -2.28 -2.15 -2.82 -2.01 -0.54 -0.27m51.02 67.8l0 -3.49m12.35 7.65l0 -2.01m-158.28 0.27l0 1.88m156.27 -5.91l-1.61 -0.81m-150.9 0.13l-1.61 0.81m167.28 11.41l0 -1.21m-180.43 0.27l0 1.21m178.28 -5.37l-1.34 -0.94m-173.32 0.27l-1.48 0.94m187.82 11.95l0 -1.07m-199.5 0.4l0 0.94m197.75 -4.97l-1.34 -1.07m-193.32 0.27l-1.21 1.07m205.54 12.62l0 -1.34m-215.2 0.4l0 1.34m213.86 -4.83l-1.07 -1.21m-211.18 1.34l-0.27 0.27m1.07 -1.21l-0.81 0.94m219.5 13.83l0 -2.42m-227.02 0.4l0 2.42m226.21 -5.1l-0.4 -0.94m-224.47 0.54l-0.54 0.81m230.37 14.9l0 -4.3m-235.27 0.4l0 4.43m234.94 -5.91l-0.13 -0.4m-234.4 0.54l-0.13 0.27m237.08 83.77l0 -74.17m-239.23 0.4l0 74.11m239.23 8.73l0 -74.24m-239.23 0.4l0 74.24m195.6 -84.98l-0.13 0.94m-151.77 0l-0.13 -0.94m196.94 84.85l0 -4.7m-45.91 -75.05l-0.4 1.07m-149.15 0.07l-0.4 -1.07m192.58 88.34l0 -74.11m-235.14 0.34l0 74.11m190.17 -83.57l-0.54 1.07m-144.18 0l-0.67 -0.94m186.34 91.83l0 -74.24m-227.02 0.4l0 74.24m182.58 -87.26l-0.81 0.94m-136.67 0l-0.94 -0.94m133.71 4.83l-1.07 0.94m-126.87 0l-0.94 -0.94m172.11 90.48l0 -74.37m-215.07 0.4l0 74.24m165.93 -86.19l-1.21 0.81m-114.65 0l-1.34 -0.81m110.35 4.03l-1.48 0.81m-100.42 0l-1.48 -0.67m-17.72 -28.33l0 14.77m169.36 103.04l0 -74.51m-199.49 0.4l0 74.37m143.38 -86.32l-1.61 0.67m-84.44 0l-1.61 -0.67m79.07 2.95l-1.75 0.54m-66.86 0l-1.75 -0.54m125.52 90.22l0 -74.51m-180.43 0.27l0 74.51m115.99 -88.2l-1.88 0.4m-48.06 0l-1.88 -0.4m42.02 1.61l-1.88 0.27m-28.46 0l-1.88 -0.27m22.15 0.81l-2.01 0.13m-8.19 0l-1.88 -0.13m85.38 91.96l0 -74.71m-158.28 0.27l0 74.78m145.93 5.24l0 -75.18m-133.44 0.4l0 74.91m-54.37 -57.46l0 4.7m174.39 57.06l0 -75.45m-106.59 0.13l0 75.45m92.1 3.22l0 -76.12m-77.6 0.13l0 76.12m107.8 -130.22l0 -14.7m-45.11 146.73l0 -77.19m-47.66 0l0 77.33m32.35 0.13l0 -79.21m-17.05 -0.54l0 79.61m129.69 -60.68l0 -1.88m-243.13 0l0 1.95m96.79 34.77l-0.13 0.4m0.67 -2.15l-0.4 1.48m148.35 -14.9l0 -0.13m0.27 -19.74l0 -2.42m4.03 8.32l0 0m-1.34 4.3l0.4 -1.07m2.01 -13.29l0 -1.07m-253.13 2.82l0 2.42m0.27 19.74l0.13 0.13m-4.3 -13.96l0 0m0.81 3.22l0.4 1.07m-2.42 -15.44l0 1.07"/>
    </g>
   </g>
  </g>
 </g>
</svg>
