<svg xmlns="http://www.w3.org/2000/svg" xmlns:xlink="http://www.w3.org/1999/xlink" width="133" height="13" viewBox="0 0 133 13">
  <defs>
    <clipPath id="clip-path">
      <rect id="Rectangle_88" data-name="Rectangle 88" width="13" height="10" transform="translate(933.375 294)" fill="#fff" stroke="#707070" stroke-width="1"/>
    </clipPath>
    <clipPath id="clip-path-2">
      <rect id="Rectangle_85" data-name="Rectangle 85" width="22" height="13" transform="translate(164 296)" fill="#fff" stroke="#707070" stroke-width="1"/>
    </clipPath>
    <clipPath id="clip-path-3">
      <rect id="Rectangle_86" data-name="Rectangle 86" width="18" height="11" transform="translate(223.308 296)" fill="#fff" stroke="#707070" stroke-width="1"/>
    </clipPath>
    <clipPath id="clip-path-4">
      <rect id="Rectangle_87" data-name="Rectangle 87" width="22" height="13" transform="translate(193 296)" fill="#fff" stroke="#707070" stroke-width="1"/>
    </clipPath>
    <clipPath id="clip-path-5">
      <rect id="Rectangle_89" data-name="Rectangle 89" width="16" height="9" transform="translate(311.015 296.236)" fill="#fff" stroke="#707070" stroke-width="1"/>
    </clipPath>
  </defs>
  <g id="UL_Icons_VL" data-name="UL Icons VL" transform="translate(-182 -296)">
    <g id="Mask_Group_32" data-name="Mask Group 32" transform="translate(-631.375 3)" clip-path="url(#clip-path)">
      <g id="Not_Dimmable" data-name="Not Dimmable" transform="translate(934.167 294)">
        <path id="Path_297" data-name="Path 297" d="M13.454-19.858a1.784,1.784,0,0,0-1.067.6c-.127.154-4.144,6.754-4.228,6.943a1.75,1.75,0,0,0,.32,1.884,1.82,1.82,0,0,0,.855.513l.152.041h8.456l.159-.041a1.756,1.756,0,0,0,1.185-2.4c-.032-.075-.774-1.31-1.648-2.746S15.85-18,15.6-18.4s-.49-.788-.547-.856A1.765,1.765,0,0,0,13.454-19.858Zm.492.434a1.45,1.45,0,0,1,.474.177,1.609,1.609,0,0,1,.384.37c.036.054.567.922,1.18,1.931,1.225,2.015,1.677,2.76,2.4,3.945a9.982,9.982,0,0,1,.533.93,1.258,1.258,0,0,1,.023.837,1.312,1.312,0,0,1-.908.888l-.143.041H9.557l-.139-.041a1.307,1.307,0,0,1-.912-.888,1.252,1.252,0,0,1,.023-.835c.038-.1.343-.62,1.119-1.895.588-.967,1.337-2.2,1.666-2.741l.967-1.591c.4-.663.509-.8.729-.94A1.316,1.316,0,0,1,13.946-19.424Z" transform="translate(-8.014 19.876)"/>
        <path id="Path_298" data-name="Path 298" d="M15.031-14.794a3.11,3.11,0,0,0-1.048.311l-.191.1-.111-.161c-.127-.186-.173-.222-.282-.222a.148.148,0,0,0-.139.066.177.177,0,0,0-.061.145c0,.068.016.1.116.241a1.081,1.081,0,0,1,.114.177.536.536,0,0,1-.1.095,2.762,2.762,0,0,0-.241.241,3,3,0,0,0,.091,4.126c.2.207.207.213.179.25-.122.159-.161.234-.161.311a.156.156,0,0,0,.061.141.155.155,0,0,0,.134.061c.111,0,.163-.036.259-.177a1.066,1.066,0,0,1,.093-.127s.055.029.116.064a3.106,3.106,0,0,0,.885.331,2.217,2.217,0,0,0,.588.043,2.565,2.565,0,0,0,.545-.032,3.233,3.233,0,0,0,.876-.313l.163-.089a.521.521,0,0,1,.1.123c.1.141.148.177.256.177a.214.214,0,0,0,.193-.272.885.885,0,0,0-.1-.161l-.086-.12.207-.211a3,3,0,0,0,.558-3.438,3.235,3.235,0,0,0-.708-.93.536.536,0,0,1-.1-.095,1.081,1.081,0,0,1,.114-.177c.1-.141.116-.173.116-.241a.177.177,0,0,0-.061-.145.148.148,0,0,0-.139-.066c-.109,0-.156.036-.282.222l-.111.159-.191-.095A3,3,0,0,0,15.031-14.794Zm.5.427a2.873,2.873,0,0,1,.69.148,1.123,1.123,0,0,1,.384.2c-.007.018-.132.2-.2.291a.9.9,0,0,1-.161-.066A2.074,2.074,0,0,0,15.325-14a2.048,2.048,0,0,0-.939.209,1.206,1.206,0,0,1-.127.059s-.043-.063-.095-.134a1.674,1.674,0,0,1-.1-.154c-.005-.013.045-.048.13-.089a2.646,2.646,0,0,1,1.1-.275C15.3-14.383,15.413-14.376,15.531-14.367Zm-1.725.744.109.154-.127.134a1.945,1.945,0,0,0-.493.935c-.039.189-.027.216.027.054a2.038,2.038,0,0,1,.288-.558A2.543,2.543,0,0,1,14-13.293c.023-.013.123.118.529.69.275.388.508.72.517.738a6.705,6.705,0,0,1-.685,1.023c-.386.543-.711.99-.724.994a2.024,2.024,0,0,1-.409-.44,2.8,2.8,0,0,1-.443-1.031,3.949,3.949,0,0,1,.007-.974,2.733,2.733,0,0,1,.4-.944,3.393,3.393,0,0,1,.49-.54A1.036,1.036,0,0,1,13.806-13.623Zm3.382.039a2.58,2.58,0,0,1,.688,1.291,3.671,3.671,0,0,1,0,1.019,2.73,2.73,0,0,1-.434.987,2.023,2.023,0,0,1-.409.44c-.038-.009-1.425-1.979-1.412-2.008s.729-1.049.776-1.1c.025-.03.03-.029.07.027a1.659,1.659,0,0,1,.3.8c.007.055.02.086.036.086.034,0,.674-.1.679-.111a1.214,1.214,0,0,0-.038-.175,2.594,2.594,0,0,0-.268-.627,2.486,2.486,0,0,0-.377-.458c-.023-.016-.041-.034-.041-.043a1.951,1.951,0,0,1,.231-.32A2.068,2.068,0,0,1,17.188-13.584ZM15.5-13.589c.229.063.6.25.586.295s-.754,1.073-.767,1.06-.215-.3-.463-.649l-.449-.635.095-.032a1.461,1.461,0,0,1,.6-.077A1.882,1.882,0,0,1,15.5-13.589Zm.517,3.089c.345.488.633.9.638.914a1.609,1.609,0,0,1-.524.259,2.128,2.128,0,0,1-.8.118,2.128,2.128,0,0,1-.8-.118,1.544,1.544,0,0,1-.524-.261c.009-.02,1.149-1.638,1.276-1.807.043-.059.045-.059.075-.027S15.674-10.99,16.021-10.5Z" transform="translate(-9.626 17.976)"/>
      </g>
    </g>
    <g id="Mask_Group_29" data-name="Mask Group 29" transform="translate(18)" clip-path="url(#clip-path-2)">
      <g id="Layer_2" data-name="Layer 2" transform="translate(168.081 296.003)">
        <g id="Layer_1" data-name="Layer 1">
          <path id="Path_247" data-name="Path 247" d="M10.909,6.542h.509V8.2c0,.1.032.2.178.2s.175-.116.175-.21V6.542h.509V8.117c0,.368-.163.652-.686.652a.6.6,0,0,1-.684-.652V6.542"/>
          <path id="Path_248" data-name="Path 248" d="M12.982,7.988v.158c0,.123.042.247.2.247.118,0,.17-.109.17-.217,0-.183-.151-.247-.284-.333a1.516,1.516,0,0,1-.388-.286.622.622,0,0,1-.148-.434.575.575,0,0,1,.518-.622,1.029,1.029,0,0,1,.123,0,.612.612,0,0,1,.644.563.58.58,0,0,1,0,.131h-.467c0-.126,0-.3-.168-.314a.156.156,0,0,0-.175.126v.02c-.015.131.052.2.156.267a4.029,4.029,0,0,1,.476.309.634.634,0,0,1,.188.518.59.59,0,0,1-.521.652.625.625,0,0,1-.136,0c-.469,0-.667-.262-.667-.55V7.988h.474"/>
          <path id="Path_249" data-name="Path 249" d="M6.154,10.664a4.209,4.209,0,1,0-4.2-4.221V6.48a4.2,4.2,0,0,0,4.2,4.2h.017"/>
          <path id="Path_250" data-name="Path 250" d="M6.154,9.874A3.429,3.429,0,1,0,2.715,6.458h0A3.429,3.429,0,0,0,6.154,9.874" fill="#fff"/>
          <path id="Path_251" data-name="Path 251" d="M4.1,4.2h.775V6.715c0,.158.049.3.269.3s.267-.178.267-.318V4.224h.775v2.4c0,.56-.247.987-1.047.987C4.485,7.611,4.1,7.3,4.1,6.623V4.2"/>
          <path id="Path_252" data-name="Path 252" d="M6.495,8.719V5.4H7.27V8.055h.95v.664H6.495"/>
          <path id="Path_253" data-name="Path 253" d="M5.048,8.05H5.13c.037,0,.106,0,.109.091a.091.091,0,0,1-.084.1H5.048V8.053m0,.247h.1c.069,0,.089.044.089.1a.464.464,0,0,0,.017.131H5.32c-.012,0-.017-.022-.02-.032s0-.077,0-.114a.1.1,0,0,0-.091-.1h0a.111.111,0,0,0,.1-.111c0-.121-.067-.148-.173-.148H4.992v.516h.057V8.312"/>
          <path id="Path_254" data-name="Path 254" d="M4.676,8.255a.472.472,0,1,0,.472-.472h0a.476.476,0,0,0-.472.472Zm.049,0a.425.425,0,1,1,.12.306.422.422,0,0,1-.12-.306Z"/>
          <path id="Path_255" data-name="Path 255" d="M.871,7.3V7.159c0-.185-.067-.281-.16-.281-.16,0-.2.084-.2.227V8.188c0,.121.049.193.183.193.173,0,.188-.18.188-.311v-.2h.509v.274c0,.373-.215.634-.741.634C.183,8.781,0,8.534,0,8.087v-.9a.6.6,0,0,1,.686-.694c.464,0,.694.188.694.629V7.3H.871"/>
          <path id="Path_256" data-name="Path 256" d="M1.434,2.918l-.081-.059c-.114-.094-.2-.094-.247-.03a.146.146,0,0,0,.03.207H1.15l.634.476a.123.123,0,0,0,.175,0h0c.077-.1-.025-.19-.1-.247L1.74,3.177l.247-.311.156.116c.222.165.281.407.049.716a.433.433,0,0,1-.711.086l-.494-.4A.442.442,0,0,1,.8,2.785a.467.467,0,0,1,.084-.114c.193-.247.417-.328.679-.133l.106.081-.22.3"/>
          <path id="Path_257" data-name="Path 257" d="M2.6,3.143,1.56,1.928l.286-.244.834.97.348-.3.207.242L2.6,3.143"/>
          <path id="Path_258" data-name="Path 258" d="M3.7,1.639l-.19.106-.247-.679h0l.437.573m.027.667L3.6,2.024l.247-.146.2.247.331-.188L3.293.7,2.9.926l.479,1.568L3.7,2.308"/>
          <path id="Path_259" data-name="Path 259" d="M4.715,1.284l.027.109c.022.089.069.16.185.133s.1-.106.084-.185c-.032-.131-.151-.156-.262-.19a1.037,1.037,0,0,1-.323-.136A.464.464,0,0,1,4.244.741.422.422,0,0,1,4.49.2h.015a.494.494,0,0,1,.086-.02.447.447,0,0,1,.568.279.388.388,0,0,1,.022.106L4.836.644C4.809.555,4.784.43,4.661.449a.116.116,0,0,0-.1.123h0c.012.1.072.131.158.163a2.469,2.469,0,0,1,.393.138.464.464,0,0,1,.225.338.434.434,0,0,1-.247.555.338.338,0,0,1-.1.022c-.333.081-.518-.072-.57-.276l-.039-.165.338-.074"/>
          <path id="Path_260" data-name="Path 260" d="M5.925,1.1v.111c0,.094.032.173.153.17S6.2,1.3,6.2,1.222c0-.133-.114-.183-.215-.247A1.044,1.044,0,0,1,5.707.79.442.442,0,0,1,5.591.472.425.425,0,0,1,5.964,0h.094a.447.447,0,0,1,.494.393.457.457,0,0,1,0,.116H6.206c0-.094,0-.222-.128-.227A.109.109,0,0,0,5.952.37h0V.39a.2.2,0,0,0,.118.2,3.177,3.177,0,0,1,.348.222.474.474,0,0,1,.146.378.432.432,0,0,1-.36.494h0a.365.365,0,0,1-.1,0c-.346,0-.494-.183-.494-.393V1.113h.348"/>
          <path id="Path_261" data-name="Path 261" d="M6.761,1.661,7.085.094l.37.077L7.129,1.738l-.368-.077"/>
          <path id="Path_262" data-name="Path 262" d="M7.428,1.795,7.976.289l.829.3L8.7.891,8.218.718l-.1.267.439.16-.109.3-.439-.16-.232.637-.353-.128"/>
          <path id="Path_263" data-name="Path 263" d="M8.393,2.17,9.215.795l.323.193L8.717,2.362,8.393,2.17"/>
          <path id="Path_264" data-name="Path 264" d="M8.959,2.508l1.054-1.2.647.568-.21.239-.365-.318-.2.222.355.309-.212.242-.353-.309-.227.259.383.336-.21.242-.667-.585"/>
          <path id="Path_265" data-name="Path 265" d="M11.03,2.765c.106.148.136.2,0,.321l-.415.316c-.168.133-.247.2-.388-.017l.8-.62m-.965.9a.575.575,0,0,0,.247.22.388.388,0,0,0,.373-.081l.565-.432a.4.4,0,0,0,.225-.358.862.862,0,0,0-.2-.38l-.247-.326-1.274.953.306.4"/>
          <path id="Path_266" data-name="Path 266" d="M2.827,12.239H2.2v.494H2.9v.247H1.911V11.323h.958v.247H2.2v.425h.622Z" fill="#231f20"/>
          <path id="Path_267" data-name="Path 267" d="M3.757,12.97v-.4H3.039v-.2l.647-.987h.353v.958h.207v.227H4.039v.4Zm0-.629v-.718h0c-.049.1-.091.18-.141.269l-.291.434h0Z" fill="#231f20"/>
          <path id="Path_268" data-name="Path 268" d="M4.525,12.755a.637.637,0,0,0,.168,0,.59.59,0,0,0,.321-.121.6.6,0,0,0,.2-.353h0a.427.427,0,0,1-.346.143.467.467,0,0,1-.494-.437v-.057a.563.563,0,0,1,.56-.575h.027c.37,0,.568.291.568.676a.968.968,0,0,1-.276.741.869.869,0,0,1-.543.217,1.1,1.1,0,0,1-.18,0ZM4.69,11.9a.262.262,0,0,0,.22.294h.027a.286.286,0,0,0,.247-.131.175.175,0,0,0,.017-.086c0-.215-.077-.4-.272-.4C4.792,11.578,4.69,11.711,4.69,11.9Z" fill="#231f20"/>
          <path id="Path_269" data-name="Path 269" d="M6.171,11.652h0L5.88,11.8l-.049-.227.385-.19h.247v1.587H6.171Z" fill="#231f20"/>
          <path id="Path_270" data-name="Path 270" d="M7.144,12.755a.62.62,0,0,0,.165,0,.612.612,0,0,0,.323-.116.6.6,0,0,0,.2-.353h0a.427.427,0,0,1-.346.143.467.467,0,0,1-.481-.452h0v-.039a.565.565,0,0,1,.548-.583h.025c.37,0,.568.291.568.676a.987.987,0,0,1-.276.741.869.869,0,0,1-.543.217,1.1,1.1,0,0,1-.18,0ZM7.3,11.9a.267.267,0,0,0,.247.289h.032a.286.286,0,0,0,.247-.131.175.175,0,0,0,.017-.086c0-.215-.077-.4-.274-.4a.291.291,0,0,0-.264.321Z" fill="#231f20"/>
          <path id="Path_271" data-name="Path 271" d="M9.423,11.383v.193L8.751,12.97H8.435L9.1,11.637H8.364V11.39Z" fill="#231f20"/>
          <path id="Path_272" data-name="Path 272" d="M10.763,12.168c0,.509-.2.829-.58.829s-.555-.333-.555-.817.2-.825.573-.825S10.763,11.7,10.763,12.168Zm-.842,0c0,.388.106.588.272.588s.269-.215.269-.595-.089-.588-.269-.588-.274.21-.272.607Z" fill="#231f20"/>
        </g>
      </g>
    </g>
    <g id="Mask_Group_30" data-name="Mask Group 30" transform="translate(23.692 1)" clip-path="url(#clip-path-3)">
      <g id="Layer_2-2" data-name="Layer 2" transform="translate(223 299.094)">
        <g id="Ebene_1" data-name="Ebene 1" transform="translate(0 0)">
          <path id="Path_273" data-name="Path 273" d="M0,4.742V.088H2.4A3.443,3.443,0,0,1,3.419.205a1.073,1.073,0,0,1,.566.423,1.292,1.292,0,0,1,.21.755,1.286,1.286,0,0,1-.168.668,1.268,1.268,0,0,1-.432.455,1.768,1.768,0,0,1-.506.186,1.438,1.438,0,0,1,.375.171,1.5,1.5,0,0,1,.228.246,1.657,1.657,0,0,1,.2.3l.7,1.343H2.961L2.194,3.31a1.067,1.067,0,0,0-.264-.357.6.6,0,0,0-.354-.108H1.45V4.73ZM1.45,1.973h.6A2.185,2.185,0,0,0,2.43,1.91a.366.366,0,0,0,.234-.147.432.432,0,0,0,.09-.27.432.432,0,0,0-.144-.348.869.869,0,0,0-.533-.12H1.45Z" transform="translate(0 -0.008)" fill="#231f20"/>
          <path id="Path_274" data-name="Path 274" d="M5.468,3.281a1.687,1.687,0,0,1,.521-1.274A1.945,1.945,0,0,1,7.4,1.5a1.939,1.939,0,0,1,1.534.6,1.711,1.711,0,0,1,.417,1.166A1.69,1.69,0,0,1,8.83,4.546,1.972,1.972,0,0,1,7.4,5.025a2,2,0,0,1-1.316-.414,1.666,1.666,0,0,1-.617-1.331Zm1.3,0a1.007,1.007,0,0,0,.183.665.575.575,0,0,0,.461.219.581.581,0,0,0,.461-.213,1.064,1.064,0,0,0,.18-.686.989.989,0,0,0-.183-.638A.557.557,0,0,0,7.434,2.4a.6.6,0,0,0-.482.228,1.019,1.019,0,0,0-.186.653Z" transform="translate(-0.841 -0.226)" fill="#231f20"/>
          <path id="Path_275" data-name="Path 275" d="M10.89.089h1.438V1.713H13.9V.089h1.447V4.742H13.9V2.857h-1.57V4.742H10.89Z" transform="translate(-1.675 -0.009)" fill="#231f20"/>
          <path id="Path_276" data-name="Path 276" d="M17,3.179l1.372-.084a1.07,1.07,0,0,0,.18.509.752.752,0,0,0,.632.3.7.7,0,0,0,.47-.144.411.411,0,0,0,0-.656,1.906,1.906,0,0,0-.737-.267,3.1,3.1,0,0,1-1.349-.566,1.133,1.133,0,0,1-.4-.9,1.223,1.223,0,0,1,.207-.677A1.36,1.36,0,0,1,18,.182,2.883,2.883,0,0,1,19.145,0,2.328,2.328,0,0,1,20.5.332,1.441,1.441,0,0,1,21.06,1.39L19.7,1.47a.725.725,0,0,0-.228-.458.734.734,0,0,0-.476-.141.6.6,0,0,0-.378.1.327.327,0,0,0-.126.258.261.261,0,0,0,.1.2,1.223,1.223,0,0,0,.506.171,5.993,5.993,0,0,1,1.349.408,1.411,1.411,0,0,1,.6.515,1.31,1.31,0,0,1,.186.686,1.471,1.471,0,0,1-.249.824,1.549,1.549,0,0,1-.689.572,2.817,2.817,0,0,1-1.121.195,2.3,2.3,0,0,1-1.642-.461A1.8,1.8,0,0,1,17,3.179Z" transform="translate(-2.615 0.006)" fill="#231f20"/>
        </g>
      </g>
    </g>
    <g id="Mask_Group_31" data-name="Mask Group 31" transform="translate(22)" clip-path="url(#clip-path-4)">
      <g id="Layer_2-3" data-name="Layer 2" transform="translate(197.285 296)">
        <g id="Layer_1-2" data-name="Layer 1">
          <path id="Path_277" data-name="Path 277" d="M10.593,4.18h.5V5.765c0,.1.024.192.168.192s.168-.12.168-.192V4.18h.48V5.717c0,.36-.168.625-.673.625-.432,0-.673-.192-.673-.625l.024-1.537" fill="#231f20"/>
          <path id="Path_278" data-name="Path 278" d="M2.114,10.833V8.719h.5v1.705h.6v.408h-1.1" fill="#231f20"/>
          <path id="Path_279" data-name="Path 279" d="M3.411,10.833V8.719h.5v2.114h-.5" fill="#231f20"/>
          <path id="Path_280" data-name="Path 280" d="M4.564,10.137v.144c0,.12.048.24.192.24s.168-.1.168-.216c0-.168-.144-.24-.288-.312A1.465,1.465,0,0,1,4.252,9.7a.67.67,0,0,1-.144-.432.545.545,0,0,1,.5-.6h.12a.576.576,0,0,1,.625.552h0v.144H4.9c0-.12,0-.288-.168-.312-.072-.024-.144.048-.168.12h0V9.2c-.024.12.048.192.144.264.168.1.312.192.456.288a.637.637,0,0,1,.192.5.569.569,0,0,1-.5.625h-.12c-.456,0-.649-.264-.649-.528v-.216h.48" fill="#231f20"/>
          <path id="Path_281" data-name="Path 281" d="M5.525,8.719h1.3v.432H6.413v1.681h-.5V9.152H5.525V8.719" fill="#231f20"/>
          <path id="Path_282" data-name="Path 282" d="M7.014,10.833V8.719H8.143v.432H7.494v.384h.625v.432H7.494v.456h.673v.408H7.014" fill="#231f20"/>
          <path id="Path_283" data-name="Path 283" d="M8.911,9.1c.24,0,.312.024.336.264v.7c0,.288,0,.408-.336.384V9.1m.168,1.729a.879.879,0,0,0,.432-.1.557.557,0,0,0,.216-.456V9.344a.569.569,0,0,0-.216-.528,1.079,1.079,0,0,0-.552-.1H8.407v2.114H9.08" fill="#231f20"/>
          <path id="Path_284" data-name="Path 284" d="M12.587,5.573v.144c0,.12.048.24.192.24s.168-.1.168-.216c0-.168-.144-.24-.288-.336a2.176,2.176,0,0,1-.384-.264.67.67,0,0,1-.144-.432.545.545,0,0,1,.5-.6h.12a.576.576,0,0,1,.625.552h0v.12h-.408c0-.12,0-.288-.168-.312-.072-.024-.144.048-.168.12v.024a.276.276,0,0,0,.144.264c.168.1.312.192.456.288a.637.637,0,0,1,.192.5.569.569,0,0,1-.5.625H12.8c-.456,0-.649-.264-.649-.528V5.549l.432.024" fill="#231f20"/>
          <path id="Path_285" data-name="Path 285" d="M5.957,8.167A4.083,4.083,0,1,1,10.04,4.083,4.083,4.083,0,0,1,5.957,8.167m0-.769A3.327,3.327,0,1,0,2.642,4.083h0A3.322,3.322,0,0,0,5.957,7.4" fill="#231f20"/>
          <path id="Path_286" data-name="Path 286" d="M3.963,1.9h.745V4.324c0,.144.048.288.264.288s.264-.168.264-.312V1.9h.769v2.33c0,.552-.24.961-1.009.961-.649,0-1.009-.312-1.009-.961L3.963,1.9" fill="#231f20"/>
          <path id="Path_287" data-name="Path 287" d="M6.293,6.269V3.051h.769V5.645h.913v.625H6.293" fill="#231f20"/>
          <path id="Path_288" data-name="Path 288" d="M.841,4.924V4.78c0-.192-.072-.264-.168-.264-.168,0-.192.072-.192.216V5.765c0,.12.048.192.168.192.168,0,.192-.168.192-.312V5.453h.5v.264c0,.36-.216.625-.721.625C.168,6.341,0,6.1,0,5.669V4.8a.588.588,0,0,1,.673-.673c.456,0,.673.192.673.6V4.9l-.5.024" fill="#231f20"/>
          <g id="E489939">
            <path id="Path_289" data-name="Path 289" d="M2.448,12.25h-.61v.48H2.52v.24H1.542V11.342h.942v.24H1.838v.428h.61Z"/>
            <path id="Path_290" data-name="Path 290" d="M3.363,12.971v-.406H2.657v-.192l.637-.961h.348v.942h.2v.223h-.2v.394Zm0-.62v-.706h0c-.048.1-.089.178-.137.264l-.286.428h0Z"/>
            <path id="Path_291" data-name="Path 291" d="M3.978,12.56a.432.432,0,0,1,.293-.406h0a.38.38,0,0,1-.24-.346.466.466,0,0,1,.533-.435c.336,0,.48.2.48.394a.392.392,0,0,1-.24.353h0a.42.42,0,0,1,.3.394c0,.279-.24.466-.569.466S3.978,12.779,3.978,12.56Zm.826-.014c0-.159-.118-.24-.291-.293a.286.286,0,0,0-.24.274.24.24,0,0,0,.262.252.24.24,0,0,0,.269-.233Zm-.48-.757c0,.127.106.2.255.24a.252.252,0,0,0,.195-.24.209.209,0,0,0-.223-.221.207.207,0,0,0-.226.221Z"/>
            <path id="Path_292" data-name="Path 292" d="M5.407,12.75a.783.783,0,0,0,.163,0,.591.591,0,0,0,.317-.12.576.576,0,0,0,.2-.346h0a.432.432,0,0,1-.341.139.461.461,0,0,1-.48-.48.552.552,0,0,1,.564-.557c.363,0,.557.286.557.665a.961.961,0,0,1-.271.721.86.86,0,0,1-.533.214,1.167,1.167,0,0,1-.178,0Zm.154-.836a.259.259,0,0,0,.257.286.283.283,0,0,0,.252-.13.178.178,0,0,0,.017-.084c0-.211-.077-.394-.269-.394-.149,0-.257.132-.257.322Z"/>
            <path id="Path_293" data-name="Path 293" d="M6.694,12.75a.783.783,0,0,0,.163,0,.591.591,0,0,0,.317-.12.576.576,0,0,0,.2-.346h0a.432.432,0,0,1-.341.139.461.461,0,0,1-.48-.48.552.552,0,0,1,.564-.557c.363,0,.557.286.557.665a.961.961,0,0,1-.271.721.86.86,0,0,1-.533.214,1.167,1.167,0,0,1-.178,0Zm.154-.836a.259.259,0,0,0,.257.286.283.283,0,0,0,.252-.13.178.178,0,0,0,.017-.084c0-.211-.077-.394-.269-.394a.289.289,0,0,0-.257.322Z"/>
            <path id="Path_294" data-name="Path 294" d="M7.927,12.656a.773.773,0,0,0,.356.1c.226,0,.317-.127.315-.24,0-.185-.173-.264-.353-.264H8.107v-.216h.132c.137,0,.31-.062.31-.219,0-.106-.079-.195-.24-.195a.629.629,0,0,0-.319.1L7.922,11.5a.843.843,0,0,1,.449-.12c.322,0,.48.178.48.382a.382.382,0,0,1-.288.365h0a.394.394,0,0,1,.343.389c0,.264-.221.48-.608.48a.853.853,0,0,1-.437-.108Z"/>
            <path id="Path_295" data-name="Path 295" d="M9.269,12.75a.783.783,0,0,0,.163,0,.591.591,0,0,0,.317-.12.576.576,0,0,0,.2-.346h0a.432.432,0,0,1-.341.139.461.461,0,0,1-.48-.48.552.552,0,0,1,.564-.557c.363,0,.557.286.557.665a.961.961,0,0,1-.271.721.86.86,0,0,1-.533.214,1.167,1.167,0,0,1-.178,0Zm.154-.836a.259.259,0,0,0,.257.286.283.283,0,0,0,.252-.13.178.178,0,0,0,.017-.084c0-.211-.077-.394-.269-.394-.149,0-.257.132-.257.322Z"/>
          </g>
          <circle id="Ellipse_5" data-name="Ellipse 5" cx="0.435" cy="0.435" r="0.435" transform="translate(4.523 5.385)" fill="none" stroke="#000" stroke-width="0.048"/>
          <path id="Path_296" data-name="Path 296" d="M4.862,5.618h.079c.036,0,.1,0,.106.089a.084.084,0,0,1-.074.091h-.11v-.18m0,.24h.1c.065,0,.084.043.084.094a.452.452,0,0,0,.017.127h.065a.137.137,0,0,1-.019-.031v-.11a.094.094,0,0,0-.089-.094h0a.108.108,0,0,0,.1-.108c0-.115-.065-.144-.168-.144h-.13v.5h.055v-.24"/>
        </g>
      </g>
    </g>
    <g id="Mask_Group_33" data-name="Mask Group 33" transform="translate(-35.015 1.764)" clip-path="url(#clip-path-5)">
      <g id="IP65" transform="translate(311 296.957)">
        <path id="Path_299" data-name="Path 299" d="M6.068-10.769a2.379,2.379,0,0,0-.837.261l-.145.081v-.238H3.613V-3.22H5.086V-6.147l.143.071a2.037,2.037,0,0,0,.994.224A2.278,2.278,0,0,0,7.856-6.5a2.481,2.481,0,0,0,.7-1.731,2.278,2.278,0,0,0-1.89-2.534A3.574,3.574,0,0,0,6.068-10.769ZM6.443-9.6a1.115,1.115,0,0,1,.715.813,2.694,2.694,0,0,1,.031.77,1.08,1.08,0,0,1-1.1,1.047,1.138,1.138,0,0,1-.511-.112,1.207,1.207,0,0,1-.44-.444l-.053-.114.006-.642L5.1-8.926l.069-.136A1.06,1.06,0,0,1,6.443-9.6Z" transform="translate(-1.904 10.779)"/>
        <path id="Path_300" data-name="Path 300" d="M12.939-10.761c-.965.092-1.3.359-1.426,1.13-.045.269-.045,4.648,0,4.982.1.762.358,1.114.937,1.283a3.456,3.456,0,0,0,1.126.12,3.621,3.621,0,0,0,1.067-.1c.633-.159.9-.493,1.018-1.267a18.54,18.54,0,0,0,.029-2.063c-.035-.6-.083-.78-.253-.966a1.3,1.3,0,0,0-1.051-.389,1.617,1.617,0,0,0-1.027.306c-.1.069-.193.126-.2.126s-.006-1.491.012-1.648c.031-.285.118-.361.4-.361.249,0,.35.049.4.2a1.763,1.763,0,0,1,.033.338l.012.271h1.511l-.01-.517a3.565,3.565,0,0,0-.041-.64c-.114-.448-.473-.705-1.1-.788A13.509,13.509,0,0,0,12.939-10.761Zm.9,3.96a.389.389,0,0,1,.106.106c.037.067.039.1.043,1a4.4,4.4,0,0,1-.029,1.031c-.045.132-.116.171-.328.183a.461.461,0,0,1-.367-.088c-.1-.09-.1-.173-.1-1.116a3.737,3.737,0,0,1,.035-.955.264.264,0,0,1,.185-.187A.775.775,0,0,1,13.843-6.8Z" transform="translate(-4.038 10.777)"/>
        <path id="Path_301" data-name="Path 301" d="M17.749-10.654s-.008.9-.008,1.98V-6.7h1.428l.012-.163c.026-.354.106-.434.446-.436.228,0,.338.043.4.153l.043.083V-4.69l-.045.083c-.067.126-.134.153-.367.153-.308,0-.369-.053-.4-.35-.012-.088-.02-.3-.02-.471v-.308l-.78,0-.782.006,0,.468A3.354,3.354,0,0,0,17.8-4.036a.915.915,0,0,0,.523.613,3.032,3.032,0,0,0,1.395.206,3.6,3.6,0,0,0,1.163-.12c.519-.149.744-.45.841-1.118.035-.242.041-2.316.008-2.715a3.221,3.221,0,0,0-.138-.743c-.155-.416-.5-.585-1.177-.587a1.494,1.494,0,0,0-.481.043,1.539,1.539,0,0,0-.548.291l-.13.106V-9.394h2.22l0-.631-.006-.629-1.852,0C18.592-10.66,17.753-10.658,17.749-10.654Z" transform="translate(-5.719 10.746)"/>
        <path id="Path_302" data-name="Path 302" d="M1.267-6.9v3.722H2.74v-7.445H1.267Z" transform="translate(-1.267 10.736)"/>
      </g>
    </g>
  </g>
</svg>
