<?xml version="1.0" encoding="UTF-8"?>
<!DOCTYPE svg PUBLIC "-//W3C//DTD SVG 1.1//EN" "http://www.w3.org/Graphics/SVG/1.1/DTD/svg11.dtd">
<!-- Creator: CorelDRAW 2021 (64-Bit Not for commercial use) -->
<svg xmlns="http://www.w3.org/2000/svg" xml:space="preserve" width="0.897181in" height="1.15104in" version="1.1" style="shape-rendering:geometricPrecision; text-rendering:geometricPrecision; image-rendering:optimizeQuality; fill-rule:evenodd; clip-rule:evenodd"
viewBox="0 0 480.99 617.08"
 xmlns:xlink="http://www.w3.org/1999/xlink"
 xmlns:xodm="http://www.corel.com/coreldraw/odm/2003">
 <defs>
  <style type="text/css">
   <![CDATA[
    .str0 {stroke:black;stroke-width:3.72;stroke-linecap:round;stroke-linejoin:round;stroke-miterlimit:2.61313}
    .fil0 {fill:none}
   ]]>
  </style>
 </defs>
 <g id="Box_Label_Korean">
  <metadata id="CorelCorpID_0Corel-Layer"/>
  <g id="_2618225533440">
   <g id="Layer_2" data-name="Layer 2">
    <g id="Layer_1-2" data-name="Layer 1">
     <path class="fil0 str0" d="M363.25 259.29l0 0.5 -0.25 0.25m0.25 -0.75l1.49 -1.24 1.24 -0.99 0.75 -1.49 0 -1.24m0 -3.47l0 1.49 -0.75 1.24 -1.24 1.24 -1.49 0.99m-0.5 -2.48l0 0.5 0.25 0.74 0.25 0.5 0 0.75m-199.24 38.71l0 -1.49m-8.93 2.48l0 -0.99m8.69 1.74l0 -0.5m-15.88 5.21l0 0 0.25 1.24 0.5 1.49 1.24 0.99 1.49 1.24m16.87 0l0 0.5 -0.25 0.25 -0.25 0m0.5 -0.74l1.49 -1.24 0.99 -0.99 0.75 -1.49 0.25 -1.24m0 -3.47l-0.25 1.49 -0.75 1.24 -0.99 1.24 -1.49 0.99m-14.14 -11.41l-0.5 -0.25 -1.49 0m-0.74 11.66l-1.49 -0.99 -1.24 -1.24 -0.5 -1.24 -0.25 -1.24m232.74 -73.2l0 -13.89m-280.87 0.25l0 13.9m300.23 9.43l0 -12.41m-319.58 0.5l0 12.41m336.21 11.41l0 -11.66m-352.83 0.75l0 11.41m40.94 10.67l0.25 -0.25 0 -0.25m325.29 2.98l0 -11.41m-379.88 0.74l0 11.17m390.3 14.39l0 -11.41m-400.72 0.5l0 11.41m407.91 15.88l0 -12.41m-414.61 0.5l0 12.66m418.09 16.38l0 -13.9m-421.56 0.75l0 13.89m421.31 17.86l0 -16.37m-420.82 0.5l0 16.87m417.1 18.86l0 -20.59m-413.37 0.74l0 20.84m115.87 24.32l0 -34.49m249.61 215.62l0 0m-204.95 -11.29l0 0m280.63 -82.87l0 -5.21 -0.75 -9.92 -2.23 -9.68 -3.23 -9.68 -4.71 -9.43 -2.73 -4.72m-58.8 143.42l0 -0.25m-383.47 -143.04l-4.47 8.44 -4.22 9.43 -2.73 9.68 -1.74 9.92 -0.25 9.92 0 1.24m236.96 132.37l8.81 0 17.12 -0.99 17.12 -1.49 16.62 -2.23 16.62 -2.98 16.13 -3.72 15.38 -4.22 15.14 -4.96 14.14 -5.46 13.65 -6.2 12.9 -6.7m-387.07 -147.39l-1.74 2.73 -5.21 9.43 -3.97 9.55 -2.98 9.92 -1.73 9.92 -0.25 9.92 0.99 9.93 1.99 9.92 3.47 9.68 4.47 9.68 5.95 9.43 6.95 8.93 8.19 8.93 9.18 8.44 10.17 7.94 11.17 7.69 12.16 6.95 12.9 6.7 13.9 5.95 14.39 5.46 15.14 4.72 15.88 4.22 16.13 3.47 8.19 1.24m233.48 -34.49l11.91 -7.44 10.67 -7.69 9.93 -8.19 8.68 -8.69 7.69 -8.93 6.45 -9.18 5.21 -9.43 4.22 -9.68 2.73 -9.92 1.74 -9.93 0.25 -9.92 -0.75 -9.92 -2.23 -9.92 -3.47 -9.68 -4.47 -9.68 -5.21 -8.19m-95.03 -171.7l-2.48 -4.22 -0.25 -0.25m-1.98 -34.49l-1.24 -1.24m0.99 42.93l2.23 -1.74m-1.74 2.98l4.96 -3.97m-0.25 45.41l-1.74 -0.99 -0.25 -0.25m-0.74 -0.99l-0.25 0m-21.34 -76.17l0.25 9.92m-230.01 27.04l-1.49 3.72 -1.74 7.44 -0.75 7.44 0.5 7.2 1.99 7.44 2.98 7.2 4.22 6.95 5.46 6.7m218.35 -81.63l-0.25 0 -0.25 -0.25 -0.5 0 -0.25 0.25m7.94 6.45l0.5 -0.25 0.5 0.25m10.67 18.36l0.25 0m-245.89 33.75l2.98 6.45 4.22 6.7 5.21 6.7m-3.72 3.23l-5.46 -6.7 -4.22 -6.95 -2.98 -7.2 -1.99 -7.44 -0.5 -7.44 0.75 -7.44 1.98 -7.2 1.49 -4.22m32.01 77.41l-8.93 -5.71 -7.94 -6.2 -6.7 -6.45 -5.71 -6.95 -4.47 -7.44 -1.98 -3.72m19.1 -25.56l-5.46 -6.95 -4.22 -7.2 -2.98 -7.44 -1.74 -7.44 -0.25 -4.96m23.32 -44.66l-2.98 2.73 -6.2 6.45 -4.96 7.2 -3.72 7.2 -2.23 7.44 -1.24 7.44 0.5 7.44 1.49 7.44 3.23 7.44 4.22 7.2 5.71 6.7m12.65 -6.95l-5.95 -6.2 -4.71 -6.45 -3.72 -6.7 -2.23 -6.95 -0.99 -7.2 0.25 -6.95 1.49 -6.95 2.73 -6.82 4.22 -6.7 5.21 -6.2 5.21 -4.96m27.04 131.01l0.25 0.25 0.25 0.5 0.25 0.5m-44.66 -10.67l22.08 2.23m12.41 -3.47l0.25 -45.9m128.28 -18.86l6.45 -4.22 5.21 -4.71 4.22 -4.96 2.98 -5.46 1.74 -5.46 0.25 -4.47m60.79 81.88l-1.99 4.22 -4.47 7.44 -5.71 6.95 -6.95 6.45 -7.94 6.2 -8.93 5.71 -9.92 5.21 -10.67 4.47 -11.41 3.97 -11.91 3.23 -12.65 2.73 -12.9 1.74 -13.15 1.24 -13.15 0.25 -13.4 -0.25 -13.15 -1.24 -12.9 -1.74 -12.66 -2.73 -11.91 -3.23 -11.41 -3.97 -10.67 -4.47 -9.92 -5.21m218.84 -86.35l0.5 0.99 2.73 4.47m-200.23 86.1l3.97 1.49 4.22 1.49 4.47 1.24m132.25 -168.48l0.99 0.75 6.2 3.23m-169.22 80.64l-6.2 -6.2 -5.21 -6.2 -3.72 -6.7 -2.48 -6.7 -1.24 -6.95 0 -6.95 1.49 -6.95 2.73 -6.95 3.97 -6.45 5.21 -6.2 6.45 -5.96 7.44 -5.46 8.44 -4.96 3.72 -1.99m-0.25 25.43l-3.97 4.47 -3.47 5.71 -2.23 5.71 -0.99 5.95 0.25 5.71 1.49 5.96 2.98 5.71 3.97 5.46 5.21 4.96 6.2 4.72 7.2 4.22 7.94 3.72 8.68 2.98 9.43 2.23 9.92 1.74 9.92 0.99 10.42 0.25 10.17 -0.5 9.93 -1.24 9.68 -1.99 9.18 -2.73 8.44 -3.23 7.69 -3.72m0.5 -0.5l6.95 -4.22 5.71 -4.96 4.71 -5.21 3.47 -5.71 2.23 -5.71 0.99 -5.95 -0.5 -5.71 -1.49 -5.95 -2.73 -5.71 -4.22 -5.46 -1.74 -1.99m-21.34 -19.1l0 -0.25m-120.84 33.99l0 1.61 0.99 5.46 2.23 5.46 3.47 5.21 4.72 4.96 5.95 4.47 6.7 3.97 7.69 3.23 8.43 2.98 8.93 1.98 9.43 1.24 9.68 0.75 9.68 -0.25 9.43 -0.74 9.18 -1.74 8.93 -2.23 8.19 -3.23 7.2 -3.47m0.99 -209.91l-0.25 0 -0.25 -0.25 -0.25 0 -0.25 0.25m1.49 0.5l-0.75 0m-32.5 153.09l8.93 -1.98 8.44 -2.23 7.69 -3.23 6.95 -3.72 5.95 -4.22 4.96 -4.47 3.97 -4.96 2.73 -5.21 1.24 -5.46 0.25 -3.23m-51.11 8.19l12.66 -3.23 11.41 -4.71 9.92 -5.96 7.94 -6.95 5.46 -7.69 3.23 -8.19 0.25 -5.71m-137.96 35.23l0.25 1.24 0.99 5.46 2.48 5.21 3.72 5.21 4.71 4.47 5.96 4.47 6.7 3.72 7.69 3.23 8.44 2.48 8.68 1.99 9.43 0.99 9.18 0.5 9.43 -0.25 9.43 -0.99m-86.84 -63.77l0 2.48 2.23 7.2 4.72 6.7 7.2 5.95 9.18 5.21 10.92 3.97 12.41 2.73 13.15 1.24 13.65 -0.5 13.4 -1.73m50.86 -59.3l-0.25 5.46 -3.23 8.19 -5.46 7.69 -7.94 6.95 -9.92 5.95 -11.41 4.72 -12.66 3.23m0 -0.99l12.66 -3.47 11.41 -4.71 9.92 -5.96 7.94 -6.95 5.46 -7.69 3.23 -8.19 0.25 -5.46m-50.86 43.42l-13.4 1.99 -13.65 0.25 -13.15 -1.24 -12.41 -2.73 -10.92 -3.97 -9.18 -4.96 -7.2 -6.2 -4.72 -6.7 -2.23 -7.2 0 -0.5m0 -2.98l0 2.23 2.23 7.2 4.72 6.7 7.2 6.2 9.18 5.21 10.92 3.97 12.41 2.48 13.15 1.24 13.65 -0.25 13.4 -1.74m-10.92 -62.78l5.71 -1.24 5.21 -1.98 3.97 -2.73 2.73 -2.48m-47.39 1.99l1.98 1.49 4.47 2.48 5.46 1.74 5.71 0.99 6.2 0.25 5.96 -0.5m10.92 45.65l-13.4 1.74 -13.65 0.25 -13.15 -0.99 -12.41 -2.73 -10.92 -3.97 -9.18 -5.21 -7.2 -5.95 -4.72 -6.95 -2.23 -6.95 0 -0.75m86.84 30.27l16.13 -4.47 13.9 -6.95 10.92 -8.44 7.2 -10.17 2.98 -10.67 -0.25 -1.49m0 2.98l-0.25 3.72 -3.23 8.19 -5.46 7.69 -7.94 6.95 -9.92 5.71 -11.41 4.72 -12.66 3.47m-86.84 -34.49l0 2.48 2.23 7.2 4.72 6.7 7.2 5.95 9.18 5.21 10.92 3.97 12.41 2.73 13.15 1.24 13.65 -0.25 13.4 -1.98m-83.74 -1.49l-0.12 2.48 1.99 6.7 4.71 6.45 6.7 5.96 8.93 4.71 10.42 3.97 11.66 2.48 12.65 0.99 12.9 -0.25 12.65 -1.73m0 0l12.16 -3.23 11.17 -4.47 9.43 -5.46 7.44 -6.7 5.46 -7.44 2.98 -7.69 0.25 -3.97m-131.26 -11.17l-0.25 2.48 1.99 6.95 4.47 6.2 6.95 5.96 8.69 4.96 10.67 3.72 11.66 2.48 12.65 1.24 12.9 -0.25 12.65 -1.74m0 0l12.16 -3.23 11.17 -4.47 9.43 -5.71 7.44 -6.7 5.46 -7.2 2.98 -7.94 0.25 -3.72m-131.26 -11.17l-0.25 2.48 1.99 6.7 4.47 6.45 6.95 5.71 8.69 4.96 10.67 3.72 11.66 2.73 12.65 0.99 12.9 -0.25 12.65 -1.74m0 0l15.63 -4.22 13.4 -6.7 10.42 -8.19 6.95 -9.43 2.98 -10.42 -0.25 -0.5m-47.89 28.53l-13.4 1.99 -13.65 0.25 -13.15 -1.24 -12.41 -2.73 -10.92 -3.97 -9.18 -4.96 -7.2 -6.2 -4.72 -6.7 -2.23 -7.2 0 -2.48m136.47 -10.42l-0.5 5.71 -2.23 5.46 -0.5 1.24m-129.02 -0.5l-1.99 -4.47 -0.99 -5.21 0.25 -5.46 1.49 -5.21 2.48 -5.21 3.97 -4.72 4.96 -4.47 5.95 -4.34 6.95 -3.47 7.44 -2.98 8.44 -2.48 8.69 -1.74m34.49 77.66l-1.98 0.25m4.22 -0.5l-1.74 0.25m-102.97 233.24l-1.24 0.5 0 0.25m5.71 -20.35l0 -2.73m1.99 3.23l0 -2.73m-4.72 2.73l0 -2.73m5.21 3.47l0 -2.73m0 2.73l0.25 0 0 0.25 0.75 0m-1.49 -0.99l0 0 0 0.25 0.25 0.25 0.25 0.25m-0.99 -1.24l0.25 0 0 0.25 0.25 0 0 0.25m-1.99 -0.5l0.5 0 0.25 -0.25 0.25 0 0.25 0.25 0.25 0m-4.22 0.5l0.25 0.25 1.24 0 0.25 -0.25 0.5 0 0.25 -0.25 0.25 -0.25m-3.97 0.75l0.25 -0.25 0.99 0m-3.23 -3.72l2.73 -0.99 2.98 -0.25 2.98 0.25 2.73 0.99 1.74 1.49 0.5 1.73 -0.5 1.74 -1.74 1.49m-0.99 -3.23l0.25 -0.25 0.25 0 0 -0.37 -0.25 0 0 -0.25 -0.25 0m-0.74 2.48l-0.25 -0.25 0 -0.5 0.25 -0.25 0.25 -0.25 0.25 -0.25 0.25 0m-2.23 2.48l0.99 0 0.25 -0.25 0.25 -0.25 0 -0.5m-4.22 1.24l0.25 0 0.25 -0.25 0.5 -0.25 1.49 0 0.25 0.25m-4.47 0.5l1.49 0 0.25 -0.25m-1.98 -0.25l0 0 0 0.25 0.25 0 0 0.25m-0.74 -1.24l0 0 0.25 0.25 0.25 0.25 0 0.25m-1.99 -1.24l0.5 0 0 0.25 0.5 0 0.25 0.25 0.25 0m-2.23 -0.5l0.74 0m-0.5 -0.99l-0.25 0 0 0.25 -0.25 0 0 0.5 0.25 0 0 0.25m0.99 -2.73l0.25 0.25 0 0.75 -0.25 0.25 -0.25 0.25 -0.25 0 -0.25 0.25m2.23 -2.48l-0.99 0 -0.25 0.25 -0.25 0 0 0.5m4.22 -1.24l-0.25 0.25 -0.25 0.25 -0.5 0 -0.25 0.25 -0.74 0 -0.5 -0.25 -0.25 0m4.22 -0.5l0 0 -0.25 -0.25 -0.75 0 -0.25 0.25 -0.25 0m1.99 0.5l0 -0.25 -0.25 0 0 -0.25 -0.25 0m0.99 1.24l0 0 -0.25 -0.25 -0.25 -0.25 0 -0.25m1.98 0.99l-0.99 0 -0.25 -0.25 -0.25 0m1.98 0.5l-0.25 0 0 -0.25 -0.25 0m-12.65 9.43l0 3.47m0 0l1.74 0.75 1.98 0.75 2.48 0.25 2.23 0.25 2.23 -0.25 2.23 -0.25 2.23 -0.75 1.74 -0.75m0 -3.47l-1.74 0.99 -2.23 0.5 -2.23 0.5 -4.47 0 -2.48 -0.5 -1.98 -0.5 -1.74 -0.99m14.14 -4.96l0.5 0.5 0.5 0.5 0.5 0.5 0.5 0.74 0.25 0.75 0.25 0.75 0.25 0.5 0 0.75m-2.73 -4.96l-2.73 0.99 -2.98 0.5 -2.98 -0.5 -2.73 -0.99 -1.74 -1.49 -0.5 -1.74 0.5 -1.74 1.74 -1.49m208.42 -87.34l0.5 0.99 0.25 1.49 0.25 1.24 0 0.5m14.39 1.24l-4.22 0 -4.47 1.99m11.41 -0.5l2.73 1.24 1.49 1.49 0.74 1.49 0.5 1.49 0.25 1.24 0 0.75m-8.44 -9.18l1.74 0.75m-268.47 1.49l-4.72 -1.74 -4.22 0m0 0l-1.49 0.75m-0.99 0.5l-2.98 1.49 -1.24 1.49 -0.99 1.24 -0.5 1.74 -0.25 1.24 0 0.75m303.95 1.49l-4.71 -0.25 -5.46 1.49m12.4 0.25l3.23 1.49 1.74 1.74 0.99 1.49 0.5 1.74 0.25 0.99 0.25 1.24m-6.45 -8.68l-2.73 -1.49m-304.94 1.37l-5.46 -1.24 -4.71 0.25m0 0l-2.73 1.49m0.5 0l-3.23 1.74 -1.74 1.49 -0.99 1.49 -0.5 1.74 -0.5 0.99 0 1.24m289.31 -16.38l6.45 -3.47m2.73 1.24l-0.5 -0.25 -0.25 0 -0.25 -0.25 -0.5 -0.25 -0.25 0 -0.25 -0.25 -0.5 -0.25 -0.25 0m-258.05 0.25l2.73 1.49m-2.73 -1.49l-0.25 0.25 -0.25 0 -0.5 0.25 -0.25 0.25 -0.25 0 -0.5 0.25 -0.25 0.25 -0.25 0m305.93 20.35l-5.21 -0.75 -5.71 0.99m12.9 1.24l3.72 1.99 1.99 1.74 0.99 1.49 0.75 1.74 0.25 1.24 0.25 1.24m-9.93 -10.92l3.72 1.74 0.74 0.5m-342.16 -1.49l-6.2 -0.99 -4.96 0.75m0 0l-3.72 1.99 -0.74 0.5m2.48 -0.75l-3.47 1.74 -1.98 1.74 -0.99 1.49 -0.75 1.74 -0.5 1.24 -0.25 1.24 0 0.25m316.11 -32.26l4.71 -1.99 3.97 0.25m-8.68 1.74l-8.93 4.96m-249.61 -1.99l-4.72 -2.73m-8.93 -1.74l4.22 0 4.72 1.74m258.54 17.62l5.95 -2.48 14.39 -6.2m2.48 1.49l-0.25 -0.25 -0.25 -0.25 -0.25 0 -0.25 -0.25 -0.25 0 -0.25 -0.25 -0.25 -0.25 -0.25 0m0 0l0 0 0 -0.12 -0.5 0m-294.77 0.12l18.86 7.69 1.24 0.75m-20.1 -8.44l-0.25 0.25 -0.25 0.25 -0.25 0.25 -0.25 0 -0.5 0.25 -0.25 0.25 -0.25 0.25 -0.25 0m299.48 -0.25l5.46 -1.37 4.47 0.25m-9.92 1.24l-18.61 7.94 -2.98 1.24m-255.81 0.12l-7.44 -2.98 -14.64 -6.2m-10.17 -0.99l4.71 -0.25 5.46 1.24m338.19 23.32l-5.71 -1.24 -6.2 0.74m13.4 2.24l3.97 2.23 2.23 1.73 0.99 1.74 0.99 1.74 0.25 1.24 0.25 1.24 0.25 0.25 -0.25 0.25m-10.17 -12.16l3.97 1.98 2.23 2.23m-370.94 -4.22l-6.7 -0.5 -5.46 0.99m0 0l-3.97 2.23 -2.23 2.23m4.71 -2.48l-3.97 1.99 -1.98 1.98 -1.24 1.49 -0.99 1.99 -0.25 0.99 -0.5 1.49 0 0.25 0.25 0m331.49 -16.62l14.39 -4.47 16.13 -4.96m1.98 1.74l-0.25 -0.25 -0.25 -0.25 -0.25 -0.25 -0.25 -0.25 -0.25 -0.25 -0.25 0 -0.25 -0.25 -0.25 -0.25m-326.78 0.5l20.84 6.2 10.42 3.23m-31.26 -9.43l-0.25 0.25 -0.25 0 -0.25 0.25 -0.25 0.25 -0.25 0.25 -0.25 0.25 -0.25 0.25 -0.25 0.25m330.75 -0.5l5.96 -1.24 4.96 0.74m-10.92 0.5l-20.59 6.45 -11.41 3.47m-266.48 0.25l-15.88 -4.96 -16.38 -4.72m-11.17 -0.25l5.46 -0.75 5.71 0.99m302.46 19.1l-1.49 0.5m-272.19 -0.25l1.49 0.25 0.99 0.25m333.48 5.95l-5.96 -1.49 -6.7 0m13.65 3.47l4.22 2.23 2.23 2.23 1.24 1.74 0.99 1.74 0.5 1.24 0.25 1.24 0 0.5m-10.42 -12.9l3.97 2.48 2.48 2.23 1.49 1.98 0.25 0.25m-394.02 -7.94l-6.95 0 -5.71 1.74m0 0l-4.22 2.48 -2.48 2.23 -1.24 1.98 -0.25 0.5m6.95 -5.46l-3.97 2.48 -2.23 1.98 -1.24 1.74 -0.99 1.98 -0.5 1.24 -0.5 1.24 0 0.5m346.88 -20.35l22.08 -4.71 17.37 -3.72m1.49 1.74l-0.25 -0.25 0 -0.25 -0.25 -0.25 -0.25 -0.25 -0.25 -0.25 -0.25 -0.25 0 -0.25 -0.25 0m-39.45 8.44l0 0.25 0.25 0.25 0.25 0.25 0.25 0.25 0.25 0.25 0 0.25 0.25 0.25 0.25 0.25m-314.87 -9.92l22.33 4.47 17.37 3.72m-39.7 -8.19l-0.25 0.25 -0.25 0 -0.25 0.25 -0.25 0.25 0 0.25 -0.25 0.25 -0.25 0.25 -0.25 0.25m39.95 8.19l0.25 -0.25 0 -0.25 0.25 0 0.25 -0.25 0.25 -0.25 0.25 -0.25 0 -0.25 0.25 -0.25m269.46 76.42l0 -34.49m-265.24 0l0 30.52m277.15 -62.03l-1.24 0.25 -1.24 0.25m-286.83 -0.25l1.49 0.25 1.24 0.25m281.37 0.25l2.73 -0.5m-0 0l0 0.25 0.25 0.25 0.25 0.25 0 0.25 0.25 0.25 0 0.25 0.25 0.25 0 0.25m34.74 -19.85l6.7 -0.5 5.21 0.99m-11.91 -0.5l-22.08 4.72 -17.37 3.97m0 0l-1.49 0.25 -0.99 0.25m0 0l-0.25 0m-277.65 8.93l2.73 0.5m-3.97 1.24l0.25 -0.25 0.25 -0.25 0 -0.25 0.25 -0.25 0 -0.25 0.25 -0.25 0.25 -0.25m3.72 -9.43l1.49 0.5 0.99 0.25m-2.48 -0.75l-22.33 -4.47 -17.62 -3.72m-11.91 0.75l5.71 -1.24 6.2 0.5m42.68 8.93l-0.25 0m275.17 8.93l-1.73 0.5 -1.49 0.74 0 0.25m4.22 0.5l0 -0.25 -0.25 -0.25 0 -0.25 -0.25 -0.25 0 -0.25 -0.25 -0.25 -0.25 -0.25 0 -0.12m-275.17 1.74l-0.25 -0.25 -1.49 -0.75 -1.74 -0.5m0 0l0 0.25 -0.25 0.25 -0.25 0.25 0 0.25 -0.25 0 0 0.25 -0.25 0.25 0 0.25m284.85 -2.98l23.57 -2.98 18.36 -2.48m0.99 1.98l0 -0.25 -0.25 -0.25 0 -0.25 -0.25 -0.25 0 -0.25 -0.25 -0.25 -0.25 -0.25 0 -0.25m-41.93 5.46l0.25 0.25 0.25 0.25 0 0.25 0.25 0.25 0 0.25 0.25 0.25 0 0.25 0.25 0.25m-332.48 -6.95l23.57 2.98 18.36 2.23m-41.93 -5.21l0 0.25 -0.25 0.25 -0.25 0.25 0 0.25 -0.25 0.25 0 0.25 -0.25 0.25 0 0.25m41.93 5.21l0 -0.25 0.25 -0.25 0.25 -0.25 0 -0.25 0.25 -0.25 0 -0.25 0.25 -0.25 0 -0.25m351.34 11.17l-6.2 -1.99 -6.95 -0.5m13.89 4.47l4.22 2.73 2.23 2.23 1.49 1.74 0.99 1.99 0.5 1.24 0.5 1.49 0 0.25m-10.67 -13.65l4.22 2.73 2.48 2.48 1.49 1.99 0.99 2.23 0.75 1.49m-78.9 33.37l0 -37.34m-275.17 0l0 33.5m-55.83 -42.43l-7.44 0.5 -5.95 1.99m0 0l-4.22 2.98 -2.48 2.48 -1.49 1.99 -0.99 2.48 -0.74 1.24m9.43 -9.18l-4.22 2.73 -2.48 2.48 -1.24 1.74 -1.24 1.98 -0.5 1.24 -0.25 1.24 -0.25 0.5m367.47 -14.64l-1.49 0.25 -1.24 0m-297.25 0l1.49 0 1.24 0.25m291.79 0l2.73 -0.25m0 0l0.25 0.25 0 0.5 0.25 0.25 0 0.25 0.25 0.25 0 0.5m-295.27 -1.74l2.73 0.25m-3.47 1.74l0 -0.25 0.25 -0.25 0 -0.5 0.25 -0.25 0 -0.5 0.25 -0.25m291.79 0l-1.74 0.5 -1.49 0.75 -1.24 0.75 -0.99 0.99 -1.24 1.98 -0.25 1.74m7.69 -4.71l-0.25 -0.25 0 -0.5 -0.25 -0.25 0 -0.5 -0.25 -0.25 0 -0.25m-6.2 8.69l0 -0.25 -0.25 -0.25 0 -0.5 -0.25 -0.25 0 -0.5 -0.25 -0.25m-275.17 0l-0.5 -2.23 -0.75 -0.99 -0.74 -0.99 -1.74 -1.24 -1.49 -0.5 -1.73 -0.5m0 0l0 0.25 -0.25 0.25 0 0.5 -0.25 0.25 0 0.5 -0.25 0.25m7.69 4.47l0 0.25 -0.25 0.25 0 0.5 -0.25 0.25 0 0.5 -0.25 0.25m274.42 -15.14l1.24 -0.99 1.49 -0.75 1.49 -0.5m-6.45 25.56l0 30.52m53.59 -62.53l6.95 -0.25 5.71 1.74m-12.66 -1.49l-23.32 2.98 -18.36 2.48m0 -0l-1.49 0.25 -1.24 0.25m0 0l-2.73 0.5m-286.09 -0.75l1.49 0 0.99 0.25m-2.48 -0.25l-23.57 -2.98 -18.36 -2.23m-12.9 1.49l6.2 -1.49 6.7 0m53.84 61.29l0 -30.02m-6.45 -25.43l1.49 0.5 1.49 0.99 1.24 0.75 0 0.25m-4.22 -2.48l-2.98 -0.5m283.61 36.23l0 -9.92m0 17.62l0 -5.21m-280.63 -12.16l0 9.93m290.3 -27.79l24.32 -1.24 19.11 -0.99m0.74 1.99l-0.25 -0.25 0 -0.5 -0.25 -0.25 0 -0.5 -0.25 -0.25 0 -0.25m-43.42 2.23l0.25 0.25 0 0.5 0.25 0.25 0 0.5 0.25 0.25 0 0.25m-344.15 -3.72l24.32 0.99 19.1 0.99m-43.42 -1.99l-0.25 0.25 0 0.25 -0.25 0.25 0 0.5 -0.25 0.25 0 0.5m43.42 1.98l0 -0.25 0.25 -0.25 0 -0.5 0.25 -0.25 0 -0.5 0.25 -0.25m302.96 11.17l-2.73 0m-303.21 0.25l2.73 0m297.5 0l2.98 -0.25m0 0l0 1.74 0.25 0.25 0 0.25m-300.72 -1.99l2.98 0m-3.23 1.99l0.25 -0.25 0 -1.74m297.5 0l-1.74 0.25 -1.49 0.5 -1.24 0.75 -0.99 0.99 -1.24 1.99 -0.25 1.49m7.2 -3.97l0 -0.99 -0.25 -0.25 0 -0.75m-6.7 7.94l0 -0.5 -0.25 -0.25 0 -1.24m-280.63 0.25l-0.5 -2.23 -0.5 -0.99 -0.99 -0.99 -1.74 -1.24 -1.49 -0.5 -1.74 -0.25m0 0l0 1.24 -0.25 0.25 0 0.75m7.2 3.97l0 1.74 -0.25 0.25m351.09 -3.97l-6.45 -2.48 -6.95 -0.99m13.65 5.46l4.22 3.23 2.48 2.48 1.49 1.74 0.99 1.99 0.5 1.49 0.5 1.24 0 0.5m-10.42 -14.64l4.22 3.23 2.48 2.48 1.49 2.23 0.99 2.48 0.75 1.49 0.5 1.74 0 0.99m-418.09 -17.37l-7.2 0.99 -6.2 2.48m0 0l-4.22 3.23 -2.48 2.73 -1.49 2.23 -1.24 2.23 -0.5 1.49 -0.5 1.99 0 0.5 -0.25 0 0 0.25m10.42 -12.66l-4.22 2.98 -2.48 2.48 -1.24 1.99 -1.24 1.98 -0.5 1.49 -0.5 1.24 0 0.25 -0.25 0.25m359.53 -22.08l0.5 -2.23 0.5 -0.99 0.99 -0.99 1.74 -1.24 1.49 -0.75 1.74 -0.5m-6.95 6.7l0 28.04m55.83 -37.47l7.2 0.5 5.96 1.98m-13.15 -2.48l-24.31 1.24 -19.11 0.99m0 0l-1.49 0.25 -1.24 0m0 0l-2.73 0.25m-296.13 -0.12l1.49 0 1.24 0.25m-2.73 -0.25l-24.32 -1.24 -19.1 -0.74m-13.15 2.48l6.2 -1.98 6.95 -0.5m55.83 37.96l0 -29.03m-6.95 -6.45l1.74 0.25 1.74 0.74 1.24 0.99 0.74 0.74 1.24 1.99 0.25 1.74m-6.95 -6.45l-2.73 -0.25m300.97 8.93l24.56 0.74 19.6 0.25m0.25 1.98l0 -0.25 -0.25 -0.25 0 -1.49m-44.17 -0.99l0 1.24 0.25 0.25 0 0.75m-350.35 -0.5l24.81 -0.99 19.35 -0.5m-44.17 1.49l0 1.49 -0.25 0.25 0 0.25m44.17 -1.49l0 -0.25 0.25 -0.25 0 -1.49m300.48 11.17l2.98 0m2.73 0.25l-1.49 0 -1.24 -0.25m0 0l0 0.5 -0.25 0.25 0 1.24m-300.35 -1.86l2.73 -0.25m-5.71 0.5l1.74 -0.25 1.24 0m0 1.99l0 -1.99m371.44 161.28l0 -137.21m-73.69 -24.31l-1.74 0 -1.49 0.5 -1.24 0.74 -0.99 0.75 -1.24 1.74 -0.25 1.74m6.7 -3.47l0 -0.5 0.25 -0.25 0 -1.24m-288.07 5.46l-0.5 -1.99 -0.5 -0.99 -0.99 -0.99 -1.74 -0.99 -1.24 -0.25 -1.98 -0.25m0 0l0 0.5 0.25 0.25 0 1.49m-73.69 159.79l0 -136.96m378.88 228.02l11.41 -6.95 10.42 -7.44 9.43 -8.19 8.19 -8.19 7.44 -8.68 5.96 -8.93 4.96 -9.43 3.72 -9.18 2.48 -9.68 1.24 -9.68 0.25 -4.72m-12.65 -153.09l-6.45 -2.98 -6.95 -1.49m13.15 6.7l4.47 3.23 2.48 2.73 1.24 1.98 1.24 2.23 0.5 1.24 0.5 1.49 0.25 0.25m-10.42 -15.38l4.22 3.47 2.48 2.98 1.49 2.23 0.99 2.48 0.75 1.49 0.25 1.99 0.25 0.5 0 0.25m-418.33 -19.11l-7.44 1.74 -5.95 2.73m0 0l-4.47 3.72 -2.48 2.73 -1.24 2.23 -1.24 2.48 -0.5 1.74 -0.5 1.74 0 0.75m10.67 -13.4l-4.47 3.47 -2.48 2.73 -1.24 1.98 -1.24 1.99 -0.75 1.49 -0.5 1.49 0 0.25m361.39 -28.16l0.5 -1.98 0.5 -0.99 0.99 -0.99 1.74 -1.24 1.49 -0.5 1.74 -0.25m-6.95 5.95l0 7.94m56.82 -13.15l7.2 1.24 6.2 2.23m-13.4 -3.47l-24.81 -0.5 -19.35 -0.25m0 0l-1.49 -0.25 -1.24 0.25m0 0l-2.85 0m-300.73 0l2.73 0m-2.73 0l-24.56 0.74 -19.6 0.75m-13.4 3.47l6.45 -2.48 6.95 -0.99m56.82 12.9l0 -8.19m-6.95 -5.96l1.74 0.25 1.74 0.5 1.24 0.75 0.99 0.74 0.99 1.99 0.25 1.74m-6.95 -5.96l-2.98 -0.25m295.76 20.34l2.73 0.25m-296.01 0l2.98 -0.25m295.76 0.5l-1.49 -0.25 -1.24 0m0 0l0 0.5 -0.25 0.25 0 0.5 -0.25 0.25 0 0.5m-298.24 -1.49l1.49 -0.25 1.24 -0.25m0.75 1.98l-0.25 -0.25 0 -0.5 -0.25 -0.25 0 -0.5 -0.25 -0.25 0 -0.25m293.28 -0.25l-1.74 0 -1.49 0.25 -1.24 0.5 -0.99 0.75 -1.24 1.74 0 0.25m5.95 -1.49l0 -0.25 0.25 -0.25 0 -0.25 0.25 -0.25 0 -0.5 0.25 -0.25 0 -0.25m-283.85 3.47l-0.25 -0.5 -0.5 -0.99 -0.99 -0.99 -1.74 -0.75 -1.24 -0.25 -1.73 0m0 0l0 0.5 0.25 0.25 0 0.5 0.25 0.25 0 0.5m297.75 -12.9l24.81 2.48 19.35 1.73m-0.25 2.23l0 -0.99 0.25 -0.5 0 -0.75m-44.17 -4.22l0 0.75 -0.25 0.25 0 0.99m-350.1 2.98l24.56 -2.73 19.35 -1.99m-43.92 4.72l0 1.74 0.25 0.25m43.92 -4.71l0 -1.74 -0.25 -0.25m370.57 177.41l0 -136.96m-434.59 137.58l0 -136.96m357.54 -34.24l0.5 -1.98 0.5 -0.99 0.99 -0.99 1.74 -0.99 1.49 -0.25 1.74 -0.25m-6.95 5.46l0 4.96m56.82 -5.58l7.44 1.49 5.95 2.98m-13.4 -4.47l-24.81 -2.48 -19.35 -1.99m0 0l-1.49 0 -1.24 -0.25m0 0l-2.98 0m-300.23 0.5l1.74 -0.25 0.99 0m-2.73 0.25l-24.56 2.73 -19.35 1.98m-13.4 4.47l6.2 -2.98 7.2 -1.49m56.57 5.21l0 -4.71m-6.95 -5.46l1.73 0 1.74 0.5 1.24 0.5 0.99 0.99 0.99 1.74 0.25 1.74m-6.95 -5.46l-2.98 0m290.8 19.6l2.73 0.5m64.02 2.48l-6.2 -3.47 -6.95 -1.98m12.66 7.44l4.22 3.72 2.48 2.98 1.49 1.99 1.24 2.23 0.5 1.49 0.5 1.49 0.25 0.25m-10.17 -16.13l4.47 3.72 2.23 3.23 1.49 2.23 0.99 2.48 0.5 1.74 0.5 1.99 0 0.74m-360.52 -18.36l2.73 -0.5m280.87 -0.25l-3.23 0 -1.24 0.5 -0.99 0.75 -0.75 0.99m4.96 -0.25l0.25 -0.25 0 -0.25 0.25 -0.25 0 -0.25 0.25 -0.25 0.25 -0.25 0 -0.25 0.25 -0.25m-274.92 2.48l-0.5 -0.75 -0.74 -0.74 -1.74 -0.75 -1.24 -0.25 -1.74 0.25m0 0l0 0.25 0.25 0.25 0.25 0 0 0.25 0.25 0.25 0 0.25 0.25 0.25 0 0.25m285.09 -0.75l-1.49 -0.5 -0.99 -0.25m0 0l-0.25 0.25 0 0.25 -0.25 0.25 0 0.25 -0.25 0.25 -0.25 0.25 0 0.25 -0.25 0.25m-335.96 -4.47l-7.44 2.23 -5.71 3.47m0 0l-4.47 3.97 -2.23 2.98 -1.49 2.23 -0.99 2.73 -0.5 1.49 -0.25 1.98 -0.25 0.5 0 0.25m10.67 -14.14l-4.22 3.72 -2.48 2.73 -1.24 2.23 -1.24 2.23 -0.75 1.24 -0.5 1.49 0 0.5 -0.25 0m71.46 -18.61l1.49 -0.25 1.24 -0.25m0.99 1.98l0 -0.25 -0.25 -0.25 0 -0.25 -0.25 -0.25 -0.25 -0.25 0 -0.25 -0.25 -0.25 0 -0.25m293.78 -10.92l24.32 4.47 19.1 3.23m-0.5 1.98l0 -0.5 0.25 -0.25 0 -0.5 0.25 -0.25 0 -0.5m-43.42 -7.69l0 0.5 -0.25 0.25 0 0.5 -0.25 0.25 0 0.5m-344.15 6.2l24.07 -4.47 19.11 -3.47m-43.17 7.94l0 0.5 0.25 0.25 0 0.5 0.25 0.25 0 0.5m43.42 -7.94l0 -0.25 -0.25 -0.25 0 -0.25 -0.25 -0.25 0 -0.5 -0.25 -0.25 0 -0.25m284.1 20.35l-1.74 -0.25 -1.24 0 -1.24 0.5 -0.75 0.5 -0.5 0.5m-255.81 0l0 0 -0.75 -0.74 -1.74 -0.5 -1.24 -0.25 -1.49 0.25m266.48 0l2.48 0.74m-3.97 0.99l0 -0.25 0.25 -0.25 0.25 -0.25 0.25 0 0 -0.25 0.25 -0.25 0.25 -0.25 0.25 -0.25m-269.21 0.74l2.73 -0.74m0 0l0.25 0.25 0 0.25 0.25 0.25 0.25 0.25 0.25 0.25 0 0.25 0.25 0.25 0.25 0.25m341.66 160.04l0 -137.21m-71.71 -23.32l-1.24 -0.5 -1.24 -0.25m0 0l0 0.25 -0.25 0.25 -0.25 0.25 -0.25 0 -0.25 0.25 0 0.25 -0.25 0.25 -0.25 0.25m-272.81 -0.74l1.49 -0.5 0.99 -0.5m1.74 1.99l-0.25 -0.25 -0.25 -0.25 -0.25 -0.25 -0.25 -0.25 0 -0.25 -0.25 -0.25 -0.25 -0.25 -0.25 -0.25m273.43 -14.89l0.5 -2.23 0.74 -0.99 0.75 -0.75 1.74 -0.75 1.49 -0.25 1.74 0m-6.95 4.96l0 3.72m56.08 -0.5l7.2 2.23 5.95 3.23m-13.15 -5.46l-24.32 -4.22 -19.11 -3.47m0 0l-1.74 -0.25 -0.87 0m0 0l-2.98 -0.25m-354.07 181.62l0 -136.96m59.55 -43.92l1.49 -0.25 1.24 -0.25m-2.73 0.5l-24.31 4.47 -19.11 3.47m-13.15 5.71l6.45 -3.47 6.7 -2.23m55.83 0.25l0 -3.97m-6.95 -4.96l1.74 0 1.49 0.25 1.24 0.75 0.99 0.5 1.24 1.74 0.25 1.74m-6.95 -4.96l-2.73 0.25m347.87 26.8l-5.95 -3.72 -6.7 -2.73m11.41 8.44l4.22 3.97 2.48 3.23 1.49 2.23 0.99 2.23 0.74 1.49 0.5 1.49 0.25 0.25m-9.43 -16.87l3.97 4.22 2.23 3.23 1.49 2.48 0.99 2.48 0.5 1.74 0.25 1.99 0 0.74m-397.49 -22.7l-6.95 2.73 -5.71 3.72m0 0l-4.22 4.22 -2.23 3.23 -1.24 2.48 -0.99 2.48 -0.5 1.74 -0.25 1.99 0 0.74m10.42 -14.89l-3.97 3.97 -2.48 2.98 -1.24 2.23 -1.24 2.23 -0.75 1.49 -0.5 1.49 -0.25 0.5m355.31 -34.74l23.57 5.96 18.61 4.71m-1.24 1.99l0.25 -0.25 0 -0.25 0.25 -0.25 0 -0.25 0.25 -0.25 0.25 -0.25 0 -0.12 0.25 -0.25m-42.18 -10.67l0 0.25 -0.25 0.25 0 0.25 -0.25 0 0 0.25 -0.25 0.25 -0.25 0.25 0 0.25m-332.24 9.55l23.32 -6.45 18.36 -4.96m-41.69 11.41l0 0.25 0.25 0.25 0.25 0.25 0.25 0.25 0 0.25 0.25 0.25 0 0.25m41.93 -11.17l-0.25 -0.25 0 -0.25 -0.25 -0.25 -0.25 -0.12 0 -0.25 -0.25 -0.25 0 -0.25 -0.25 -0.25m269.71 18.86l-1.49 -0.25 -1.24 0 -1.24 0.25 -0.75 0.5m-238.45 0l-0.25 -0.25 -1.49 -0.5 -1.24 0 -1.49 0.25m247.63 0l2.23 0.99m-4.22 0.74l0.25 -0.25 0.25 -0.25 0.25 -0.25 0.25 -0.25 0.25 0 0.25 -0.25 0.25 -0.25 0.25 -0.25m-250.11 0.99l2.48 -0.99m0 0l0.25 0.25 0.25 0.25 0.25 0.25 0.25 0.25 0.25 0.25 0.25 0.25 0.25 0 0.25 0.25m250.35 0.25l-1.24 -0.75 -1.24 -0.25m0 0l0 0.25 -0.25 0 -0.25 0.25 -0.25 0.25 -0.25 0.25 -0.25 0.25 -0.25 0.25 -0.25 0.25m-252.96 -0.75l1.24 -0.5 0.99 -0.5m1.99 1.74l-0.25 -0.25 -0.25 -0.25 -0.25 0 -0.25 -0.25 -0.25 -0.25 -0.25 -0.25 -0.25 -0.25 -0.25 -0.25m258.79 -14.64l0.5 -1.99 0.74 -0.99 0.75 -0.75 1.74 -0.74 1.24 -0.25 1.74 0.25m-6.7 4.47l0 3.72m66.74 161.28l0 -151.11m-12.65 -6.45l6.95 2.73 5.71 3.72m-12.65 -6.45l-23.57 -5.96 -18.36 -4.96m0 0l-1.49 -0.25 -1.24 -0.25m0 0l-2.73 -0.5m-283.85 1.24l1.49 -0.25 0.99 -0.25m-2.48 0.5l-23.32 6.2 -18.61 4.96m-12.66 6.7l6.2 -3.97 6.45 -2.73m-12.66 6.7l0 150.86m66.5 -161.53l0 -3.97m-6.7 -4.47l1.73 0 1.49 0.25 1.24 0.25 0.99 0.75 0.99 1.74 0.25 1.49m-6.7 -4.47l-2.73 0.74m341.17 185.1l0 -136.97m-397.49 137.71l0 -137.21m336.7 -39.45l22.33 7.69 17.62 6.2m-39.95 -13.89l0 0.25 -0.25 0.25 -0.25 0.25 -0.25 0.25 -0.25 0.25 -0.25 0.25 -0.25 0.25m-24.56 15.38l-1.24 -0.5 -1.24 0 -0.99 0.25 -0.5 0.25m-216.61 0l0 0 -1.49 -0.5 -0.99 0 -1.24 0.5m-65.75 -2.73l22.08 -7.94 17.37 -6.2m1.74 1.74l-0.25 -0.25 -0.25 -0.25 -0.25 -0.25 0 -0.25 -0.25 -0.25 -0.25 -0.25 -0.25 -0.25 -0.25 0m250.6 16.87l2.23 0.99m-4.47 0.5l0.25 -0.25 0.25 0 0.25 -0.25 0.25 -0.25 0.5 -0.25 0.25 0 0.25 -0.25 0.25 -0.25m-226.54 1.24l2.23 -1.24m0 0l0.25 0.25 0.25 0.25 0.25 0.25 0.25 0.25 0.62 0 0.25 0.25 0.25 0.25 0.25 0.25m299.98 2.48l-5.71 -4.47 -6.2 -2.98m10.42 9.18l3.97 4.47 2.48 3.23 1.24 2.23 1.24 2.48 0.5 1.49 0.5 1.49 0.25 0.25 0 0.25 0.25 -0m-8.93 -17.62l3.97 4.47 2.23 3.23 0.99 2.48 0.99 2.73 0.5 1.74 0.25 1.98 0 0.99m-22.33 -23.08l0 -0.25 0.25 -0.25 0.25 -0.25 0.25 -0.25 0.25 -0.25 0 -0.25 0.25 -0.25 0.25 -0.25m-61.78 5.46l-0.99 -0.74 -0.99 -0.5m0 0l-0.25 0.25 -0.25 0.25 -0.5 0.25 -0.25 0.25 -0.25 0 -0.25 0.25 -0.25 0.25 -0.25 0.25m-290.06 -5.46l-6.45 3.47 -5.46 4.22m0 0l-3.97 4.47 -1.98 3.23 -1.24 2.73 -0.99 2.48 -0.25 1.74 -0.25 1.98 0 0.75m10.17 -15.63l-3.97 4.22 -2.23 3.23 -1.24 2.23 -1.24 2.48 -0.75 1.49 -0.5 1.74 -0.25 0.25m20.59 -25.06l0.25 0.25 0.25 0.25 0 0.25 0.25 0.25 0.25 0.25 0.25 0.25 0.25 0.25 0 0.25m60.05 3.23l0.99 -0.75 0.99 -0.5m2.23 1.49l-0.25 -0.25 -0.25 0 -0.25 -0.25 -0.25 -0.25 -0.5 -0.25 -0.25 -0.25 -0.25 0 -0.25 -0.25m239.69 -14.14l0.5 -1.98 0.5 -0.75 0.75 -0.74 1.74 -0.5 1.24 -0.25 1.74 0.25m-6.45 3.97l0 4.47m63.27 165.5l0 -151.11m-11.91 -7.2l6.45 3.23 5.46 3.97m-11.91 -7.2l-22.33 -7.94 -17.62 -6.2m0 0l-1.49 -0.5 -0.99 -0.25m0 0l-2.48 -0.74m-268.47 1.74l1.24 -0.5 1.24 -0.25m-2.48 0.75l-22.08 7.94 -17.62 6.45m-11.91 7.44l5.71 -4.47 6.2 -2.98m-11.91 7.44l0 150.86m62.77 -165.87l0 -4.71m-6.2 -3.72l1.49 -0.25 1.49 0 1.24 0.25 0.75 0.75 0.99 1.49 0.25 1.49m-6.2 -3.72l-2.48 0.75m232.99 23.82l-1.24 -0.5 -0.99 -0.25 -0.99 0.25m-191.05 0l-0.99 -0.25 -0.99 0.25 -1.24 0.75m197.51 -0.25l1.98 1.24m-4.71 0.25l0.25 -0.25 0.5 -0.25 0.25 0 0.25 -0.25 0.5 -0.25 0.25 0 0.25 -0.25 0.5 -0.25m-199.49 1.49l1.99 -1.24m0 0l0.25 0 0.5 0.25 0.25 0.25 0.25 0 0.5 0.25 0.25 0.25 0.25 0 0.5 0.25m198.5 0.99l-0.99 -0.75 -0.75 -0.5m0 0l-0.5 0.25 -0.25 0.25 -0.25 0 -0.5 0.25 -0.25 0.25 -0.25 0 -0.5 0.25 -0.25 0.25m-200.48 0l0.99 -0.75 0.75 -0.5m2.73 1.24l-0.25 -0.12 -0.5 0 -0.25 -0.25 -0.25 -0.25 -0.5 0 -0.25 -0.25 -0.25 -0.25 -0.5 0m229.26 -16.38l20.6 9.43 16.37 7.44m-36.97 -16.87l-0.25 0.25 -0.25 0 -0.25 0.25 -0.25 0.25 -0.25 0.25 -0.25 0.25 -0.25 0.25 -0.25 0m-291.67 15.88l20.35 -9.68 16.13 -7.69m1.99 1.74l-0.25 -0.25 -0.25 -0.25 -0.25 -0.25 -0.25 0 -0.25 -0.25 -0.25 -0.25 -0.25 -0.25 -0.25 -0.25m312.88 180.14l0 -136.96m-368.21 0.74l0 136.97m267.48 -159.05l-0.99 -0.75 -0.99 -0.25 -0.74 0.25m-162.03 0l-0.5 0 -0.99 0.25 -0.99 0.5m260.28 3.23l-5.21 -4.72 -5.95 -3.47m9.18 9.92l3.72 4.72 2.23 3.23 1.24 2.48 1.24 2.48 0.5 1.49 0.5 1.49 0.25 0.5m-7.69 -18.11l3.47 4.72 1.99 3.47 0.99 2.73 0.99 2.73 0.25 1.74 0.25 1.98 0 0.75 -0.25 0m-20.84 -24.81l0.25 0 0.25 -0.25 0.25 -0.25 0.25 -0.25 0.25 -0.25 0.25 -0.25 0.25 -0.25 0.25 0m-330.5 0.5l-6.2 3.72 -4.96 4.47m0 0l-3.72 4.96 -1.74 3.47 -1.24 2.73 -0.75 2.73 -0.25 1.74 -0.25 1.74 0 0.75 0.25 0 0 0.25m9.68 -16.62l-3.72 4.72 -1.98 3.23 -1.49 2.48 -0.99 2.48 -0.74 1.49 -0.5 1.73 -0.25 0.25 0 0.25m18.86 -26.55l0.25 0 0.25 0.25 0.25 0.25 0.25 0.25 0.25 0.25 0.25 0.25 0.25 0.25 0.25 0m246.63 2.98l1.49 1.49m-4.47 -0.25l0.25 -0.25 0.5 -0.25 0.25 0 0.5 -0.25 0.25 0 0.5 -0.25 0.25 0 0.5 -0.25m-168.72 1.49l1.49 -1.49m0 0l0.5 0.25 0.25 0 0.5 0.25 0.25 0.25 0.5 0 0.25 0.25 0.62 0 0.25 0.25m196.51 -19.85l0.5 -1.98 0.5 -0.75 0.75 -0.75 1.49 -0.5 1.24 0 1.49 0.5m-5.95 3.47l0 5.71m58.81 168.72l0 -150.86m-11.17 -8.44l6.2 3.72 4.96 4.72m-11.17 -8.44l-20.59 -9.43 -16.38 -7.44m0 0l-1.24 -0.5 -0.99 -0.25m0 0l-2.48 -0.99m-248.37 1.99l1.24 -0.5 0.99 -0.5m-2.23 0.99l-20.59 9.68 -15.88 7.44m-11.17 8.44l5.21 -4.72 5.95 -3.72m-11.17 8.44l0 151.11m58.06 -169.22l0 -5.95m-5.71 -3.47l1.49 -0.25 1.24 0 0.99 0.25 0.75 0.5 0.99 1.49 0.25 1.49m-5.71 -3.47l-2.48 0.99m210.9 23.82l-0.74 -0.75 -0.75 -0.5m0 0l-0.25 0 -0.5 0.25 -0.25 0 -0.5 0.25 -0.25 0.25 -0.5 0 -0.25 0.25 -0.5 0m-168.72 0.5l0.75 -0.99 0.74 -0.5m2.98 1.24l-0.5 -0.25 -0.25 -0.25 -0.5 0 -0.25 -0.25 -0.5 0 -0.25 -0.25 -0.5 0 -0.25 -0.25m201.48 -14.14l18.86 10.92 14.64 8.68m-33.5 -19.6l-0.25 0.25 -0.25 0.25 -0.25 0 -0.25 0.25 -0.25 0.25 -0.5 0.25 -0.25 0 -0.25 0.25m-263.51 18.61l18.36 -11.17 14.64 -8.68m2.23 1.49l0 0 0 -0.25 -0.5 0 0 -0.25m0 0l-0.25 0 -0.25 -0.25 -0.25 0 -0.25 -0.25 -0.25 -0.25 -0.25 0 0 -0.25 -0.25 0m183.36 18.11l-0.99 -0.75 -0.5 -0.25 -0.5 0m-130.02 0l-0.5 0 -0.5 0.25 -0.99 0.75m133.99 0l1.24 1.49m-4.47 -0.5l0.5 -0.25 0.25 0 0.5 -0.25 0.25 0 0.5 -0.25 0.25 0 0.5 -0.25 0.5 0m-135.23 1.49l1.24 -1.49m0 0l0.5 0.25 0.5 0 0.25 0.25 0.5 0 0.25 0.25 0.75 0 0.5 0.25m133.24 1.98l-0.75 -0.74 -0.5 -0.75m0 0l-0.5 0.25 -0.75 -0 -0.25 0.25 -0.5 0 -0.5 0.25 -0.25 0 -0.5 0.25m-134.48 0.5l0.75 -0.74 0.5 -0.75m3.23 0.99l-0.5 -0.25 -0.74 0 -0.25 -0.25 -0.5 0 -0.5 -0.25 -0.25 0 -0.5 -0.25m235.22 164.51l0 -136.96m-117.86 -24.56l-0.5 -0.75 -0.5 -0.5 -0.5 0m-95.53 0.25l-0.25 -0.25 -0.5 0.5 -0.5 0.75m-117.11 162.02l0 -136.96m270.7 -45.41l0.5 -1.98 0.5 -0.75 0.74 -0.75 1.24 -0.25 0.99 0 1.49 0.5m-5.46 3.23l0 7.44m53.34 171.2l0 -150.86m-10.17 -9.18l-18.86 -10.92 -14.64 -8.68m0 0l-1.24 -0.5 -0.74 -0.5m0 0l-2.23 -1.24m-224.06 2.48l1.24 -0.74 0.75 -0.5m-1.99 1.24l-18.61 10.92 -14.39 8.93m-9.92 9.18l0 150.86m52.35 -171.45l0 -7.69m-5.21 -2.98l1.24 -0.5 1.24 -0.25 0.99 0.25 0.75 0.5 0.75 1.49 0.25 1.49m-5.21 -2.98l-2.23 0.99m161.28 22.33l0.99 1.49m-4.22 -0.99l0.75 0 0.5 -0.25 0.75 0 0.5 -0.25 0.74 0m-99.25 1.49l0.99 -1.49m0 0l0.5 0 0.25 0.25 0.99 0 0.25 0.25 0.99 0 0.25 0.25m203.71 6.7l3.47 4.72 1.98 3.72 0.99 2.48 1.24 2.48 0.5 1.49 0.5 1.74 0.25 0.25 0 0.25 0.25 0m-6.95 -18.86l3.23 4.96 1.74 3.72 0.99 2.73 0.74 2.73 0.25 1.74 0 2.98m-6.95 -18.86l-4.71 -4.96 -5.46 -3.97m-2.23 1.49l0.25 -0.25 0.25 -0.25 0.5 0 0.25 -0.25 0.25 -0.25 0.25 -0.25 0.25 0 0.25 -0.25m-2.23 1.49l5.71 4.22 4.47 4.96m-314.87 0.5l4.71 -5.21 5.21 -3.97m-0.5 -0.5l0 0.25 0.25 0 0.25 0.25m-2.23 -1.49l0 0 0.25 0.25 0.25 0 0.25 0.25 0.25 0.25 0.25 0 0.25 0.25 0.25 0m-1.74 -0.99l-5.71 3.97 -4.47 5.21m0 0l-3.23 4.96 -1.74 3.72 -0.75 2.73 -0.74 2.73 -0.25 1.74 -0.25 1.98 0.25 0.5 0 0.25m0 0l0 0 0.25 -0.25 0.25 -0.74 0.5 -1.24 0.74 -2.23m0 0l3.23 -6.45 4.22 -6.2m187.58 -4.96l-0.25 -0.74 -0.5 -0.5m-59.55 0l-0.25 0 -0.25 0.5 -0.25 0.74m81.63 0.25l-0.5 -0.99 -0.5 -0.75m0 0l-0.5 0 -0.25 0.25 -0.99 0 -0.25 0.25 -0.99 0 -0.5 0.25m-97.51 0.99l0.5 -0.99 0.25 -0.75m3.47 0.75l-0.5 0 -0.5 -0.25 -0.74 0 -0.5 -0.25 -0.75 0 -0.5 -0.25m61.53 2.98l0 -0.75 -0.25 -0.5m-22.33 0.25l0 -0.25 -0.25 0.5 0 0.75m41.93 -1.49l0.5 1.74m-3.97 -1.24l0.5 -0.25 1.74 0 0.5 -0.25 0.75 0m-61.53 1.74l0.5 -1.74m0 0l0.74 0 0.5 0.25 1.74 0 0.5 0.25m129.52 -18.11l16.38 12.41 13.15 9.68m-29.53 -22.08l-0.25 0.25 -0.5 0.25 -0.25 0 -0.25 0.25 -0.5 0.25 -0.25 0.25 -0.25 0 -0.5 0.25m-231.13 20.84l16.13 -12.41 12.66 -9.68m2.73 1.24l-0.25 0 -0.5 -0.25 -0.25 -0.25 -0.25 0 -0.5 -0.25 -0.25 -0.25 -0.25 0 -0.5 -0.25m113.89 18.86l0.25 1.74m-3.72 -1.49l2.73 0 0.25 -0.25 0.5 0m-23.08 1.74l0.25 -1.74m0 0l0.5 0 0.5 0.25 2.48 0m39.7 1.49l-0.5 -0.99 -0.25 -0.5m0 0l-1.49 0 -0.5 0.25 -1.24 0m-59.3 1.24l0.25 -0.75 0.25 -0.75m3.47 0.25l-1.49 0 -0.25 -0.25 -1.74 0m42.92 3.23l-0.25 -0.99 0 -0.74m0 0l-2.24 0 -0.5 0.25 -0.74 0m-19.85 1.49l0 -1.74m3.72 0.25l-0.87 0 -0.5 -0.25 -2.23 0m102.97 -19.11l0.5 -1.99 0.25 -0.74 0.74 -0.5 0.99 -0.25 0.99 0 1.24 0.75m-4.72 2.73l0 9.92m37.96 11.66l-16.62 -12.16 -12.9 -9.68m0 0l-0.99 -0.75 -0.75 -0.5m0 0l-1.98 -1.24m-195.77 2.48l0.99 -0.75 0.74 -0.5m-1.74 1.24l-16.13 12.41 -12.9 9.92m37.22 -11.66l0 -10.42m-4.47 -2.73l0.99 -0.5 1.24 -0.25 0.74 0 0.75 0.5 0.75 1.49 0 1.49m-4.47 -2.73l-1.99 1.24m236.21 183.86l0 -150.86m8.19 154.83l0 -136.96m-292.16 137.46l0 -136.96m8.19 -17.86l0 150.86m275.66 -151.36l2.98 4.96 1.74 3.72 0.99 2.73 0.99 2.48 0.75 1.74 0.5 1.74 0.25 0.25 0 0.25m-5.71 -19.35l2.98 5.21 1.49 3.72 0.75 2.73 0.5 2.98 0.25 1.74 0 2.73 -0.25 0 0 0.25m-5.71 -19.35l-4.22 -5.46 -4.47 -4.22m-2.73 1.24l0.25 0 0.5 -0.25 0.25 -0.25 0.25 -0.25 0.5 0 0.25 -0.25 0.25 -0.25 0.5 0m-2.73 1.24l4.96 4.72 3.97 5.21m-51.61 -26.05l14.14 13.4 10.92 10.67m-25.06 -24.07l-0.25 0.25 -0.5 0 -0.25 0.25 -0.25 0.25 -0.5 0 -0.25 0.25 -0.5 0 -0.25 0.25m-224.06 23.82l-2.73 5.21 -1.49 3.97 -0.74 2.73 -0.5 2.73 -0.25 1.99 0 2.48 0.25 0 0 0.25m8.19 -17.86l-2.98 4.96 -1.74 3.72 -0.99 2.48 -0.99 2.73 -0.5 1.74 -0.75 1.49 0 0.5 -0.25 0 0 0.25m8.19 -17.86l4.22 -5.71 4.47 -4.22m-2.48 -1.49l0.25 0.25 0.25 0.25 0.5 0 0.25 0.25 0.25 0.25 0.5 0 0.25 0.25 0.25 0.25m-2.48 -1.49l-4.96 4.72 -3.97 5.21m29.28 -0.74l13.65 -13.4 10.67 -10.67m2.98 0.99l-0.5 0 -0.25 -0.25 -0.5 0 -0.25 -0.25 -0.5 -0.25 -0.12 0 -0.5 -0.25 -0.25 0m163.26 0.5l0.25 -1.74 0.25 -0.75 0.75 -0.5 0.75 -0.25 0.99 0.25 0.99 0.75m-3.97 2.23l0 14.64m32.01 9.68l-13.89 -13.4 -10.92 -10.42m0 0l-0.99 -0.75 -0.75 -0.75m0 0l-1.49 -1.24m-164.26 2.73l0.74 -0.75 0.75 -0.5m-1.49 1.24l-13.65 13.65 -10.67 10.67m31.26 -9.68l0 -15.14m-3.97 -2.23l0.99 -0.75 0.99 -0.25 0.5 0.25 0.74 0.25 0.5 1.24 0.25 1.49m-3.97 -2.23l-1.49 1.49m151.6 5.95l11.17 14.39 8.69 11.41m-19.85 -25.81l-0.5 0.25 -0.25 0 -0.5 0.25 -0.74 0 -0.5 0.25 -0.25 0 -0.5 0.25m49.87 179.64l0 -150.86m7.44 155.33l0 -136.97m-212.15 -22.08l10.67 -14.64 8.44 -11.41m3.23 0.99l-0.25 0 -0.5 -0.25 -0.5 0 -0.25 -0.25 -0.5 0 -0.25 -0.25 -0.5 0 -0.5 -0.25m-153.84 87.59l0 4.71 1.24 9.68 2.48 9.68 3.72 9.18 4.96 9.43 6.2 8.93 7.2 8.68 8.44 8.19 9.18 8.19 10.42 7.44 11.41 6.95m0 0l12.4 6.7 12.9 5.95 13.9 5.46 14.39 4.71 15.14 4.22 15.38 3.47 16.13 2.98 16.13 1.99 16.62 1.49 16.62 0.75 16.63 0 16.62 -0.75 16.62 -1.49 16.38 -1.99 15.88 -2.98 15.63 -3.47 14.89 -4.22 14.39 -4.71 13.9 -5.46 13.15 -5.95 12.16 -6.7m-315.86 -8.44l-11.41 -7.2 -10.42 -7.44 -9.18 -7.94 -8.44 -8.44 -7.2 -8.69 -6.2 -8.93 -4.96 -9.18 -3.72 -9.43 -2.48 -9.68 -1.24 -9.43 0 -9.68 1.24 -9.68 0.75 -3.47m379.13 109.17l-12.16 6.45 -13.15 5.95 -13.89 5.46 -14.39 4.96 -14.89 3.97 -15.63 3.72 -15.88 2.73 -16.38 2.23 -16.62 1.49 -16.63 0.5 -16.62 0 -16.62 -0.5 -16.62 -1.49 -16.13 -2.23 -16.13 -2.73 -15.38 -3.72 -15.14 -3.97 -14.39 -4.96 -13.89 -5.46 -12.9 -5.96 -12.41 -6.45m378.89 -109.67l0.99 3.97 1.24 9.68 0 9.68 -1.24 9.43 -2.48 9.68 -3.72 9.43 -4.96 9.18 -5.96 8.93 -7.44 8.68 -8.19 8.44 -9.43 7.94 -10.42 7.44 -11.41 7.2m59.55 -82.62l1.74 0 1.24 -0.25 0.25 0 0.25 -0.25 0.25 0m-11.17 16.62l3.72 0.25 3.23 0 0.25 -0.25 0.25 0 0 -0.25m-18.11 15.38l6.95 0.99 1.74 0.25 1.49 0 0.25 -0.25 0.25 0m-10.92 -1.24l0.25 0.25m-0.25 16.38l0 -0.25m-10.42 -1.49l6.45 1.49 1.73 0.25 1.24 0.25 0.5 0 0.25 -0.25 0.25 0m-14.39 -2.98l3.97 1.24m-4.22 16.13l0.25 0m-9.92 -2.48l5.95 2.23 1.74 0.25 1.24 0.25 0.75 0 0 -0.25m-17.37 -5.21l7.69 2.73m-7.69 15.88l0 0 0 -0.25m-9.18 -2.98l5.46 2.48 1.49 0.5 1.24 0.25 0.99 0m-20.35 -8.69l11.17 5.46m-11.41 15.14l0.25 -0.25m-8.44 -3.72l4.96 2.98 1.24 0.5 0.99 0.5 0.99 0m-22.58 -13.15l14.39 9.18m-14.64 14.14l0 0 0.25 -0.25 0 -0.25m-7.69 -3.97l4.22 3.23 1.24 0.74 0.99 0.5 0.99 0m-24.81 -19.11l17.37 14.64m-238.94 4.47l0 0 0 0.25 0.25 0.25m7.2 -4.72l17.37 -15.14m-47.76 9.68l0.99 0 1.49 -0.5 1.74 -0.99 3.97 -2.48m-8.44 3.72l0 0 0.25 0.25m8.19 -3.97l14.64 -9.68m-43.42 1.74l0.25 0.25 0.87 0 1.49 -0.5 2.23 -0.75 4.47 -2.23m-9.43 2.98l0 0 0.25 0.25m9.18 -3.23l11.17 -5.71m-37.96 -4.22l0.25 0 0.25 0.25 0.5 0 1.49 -0.5 2.23 -0.5 4.96 -1.74m-9.92 2.23l0 0 0.25 0.25m9.68 -2.48l7.69 -3.23m-32.01 -8.69l0.5 0 0.5 0.25 1.49 -0.25 2.48 -0.5 5.21 -1.49m-10.17 1.74l0 0 0 0.25m10.17 -1.98l4.22 -1.24m-25.56 -12.41l0 0.25 0.5 0 0.25 0.25 1.74 -0.25 2.48 -0.25 5.46 -0.99m0 0l0.75 0m-18.86 -15.26l0.25 0.25 0.25 0.25 4.47 0 2.73 -0.25m-11.41 -16.87l0 0.25 0.25 0 0 0.25 0.5 0 1.49 0.25 1.49 0m171.45 79.4l0 0.25m0.25 -1.49l0 0.25m-76.92 18.86l0 -137.21m0 137.21l0.75 0 0.25 -0.25 1.24 -0.5 1.74 -0.99 3.23 -2.98m0 -150.86l0 150.86m231.5 -151.11l2.73 5.21 1.49 3.72 0.99 2.73 0.75 2.73 0.5 1.74 0.5 1.74 0.25 0.25 0 0.25 0.25 0m-4.47 -19.6l2.23 5.21 1.24 3.97 0.75 2.73 0.5 2.98 0 3.97 -0.25 0.5 0 0.25m-4.47 -19.6l-3.47 -5.71 -3.97 -4.72m-2.98 0.99l0.25 0 0.5 -0.25 0.25 0 0.5 -0.25 0.25 0 0.5 -0.25 0.25 -0.25 0.5 0m-2.98 0.99l4.22 4.96 3.23 5.71m-234.48 -0.74l-2.23 5.46 -1.24 3.72 -0.5 2.98 -0.5 2.73 0 4.47 0.25 0m7.2 -18.36l-2.48 5.21 -1.49 3.97 -0.99 2.48 -0.75 2.73 -0.5 1.74 -0.74 1.74 -0.25 0.5m7.2 -18.36l3.47 -5.71 3.97 -4.72m-2.98 -1.24l0.25 0.25 0.5 0 0.25 0.25 0.5 0.25 0.25 0 0.5 0.25 0.25 0 0.5 0.25m-2.98 -1.24l-3.97 4.96 -3.47 5.71m169.47 -24.32l7.94 14.89 6.45 12.04m-14.39 -26.8l-0.99 0 -0.25 0.25 -0.99 0 -0.25 0.25 -0.99 0m-112.4 26.55l7.69 -15.14 6.2 -11.91m3.23 0.5l-0.74 0 -0.5 -0.25 -0.75 0 -0.5 -0.25 -0.75 0m111.41 -4.72l0.25 -1.74 0.25 -0.74 0.5 -0.5 0.75 0 0.75 0.25 0.74 0.75m-3.23 1.98l0 22.33m11.66 143.42l20.1 22.83m-6.2 -162.02l-11.17 -14.39 -8.68 -11.17m0 0l-0.75 -0.99 -0.5 -0.5m0 0l-1.24 -1.49m-130.01 2.98l0.74 -0.75 0.5 -0.75m-1.24 1.49l-10.67 14.39 -8.44 11.41m-5.96 162.03l20.1 -24.07m10.42 -140.93l0 -23.82m-2.98 -1.98l0.75 -0.75 0.74 -0.25 0.5 0 0.5 0.25 0.5 1.24 0 1.49m-2.98 -1.98l-1.24 1.49m163.51 194.03l0.25 0 0 -0.5m-6.45 -4.47l0 -151.11m0 151.11l3.23 3.47 0.99 0.75 0.99 0.5 0.25 0.25 0.74 0m0 0l0 -136.96m-196.51 136.72l0 0 0.25 0.25 0 0.25 0.25 0m0 0l0 -136.96m0 136.96l0.99 0 1.24 -0.75 1.24 -1.24 2.73 -2.98m0 -150.86l0 150.86m123.07 -181.13l4.96 15.63 3.97 12.16m-8.93 -27.79l-0.5 0 -0.5 0.25 -1.74 0 -0.25 0.25 -0.5 0m-68.23 27.54l4.71 -15.63 3.72 -12.41m3.47 0.5l-0.99 0 -0.5 -0.25 -1.74 0 -0.25 -0.25m123.81 29.77l1.99 5.71 1.24 3.72 0.75 2.73 0.75 2.98 0.5 1.49 0.5 1.74 0.25 0.5 0 0.25 0.25 0m-3.23 -19.85l1.98 5.46 0.75 3.97 0.5 2.73 0.25 2.98 0 4.47 -0.25 0 0 0.25m-3.23 -19.85l-2.73 -6.2 -3.23 -4.72m-3.23 0.75l0.5 0 0.25 -0.25 0.5 0 0.5 -0.25 0.75 0 0.25 -0.25 0.5 0m-3.23 0.75l3.47 5.21 2.73 5.71m-186.84 -0.5l-1.74 5.71 -0.99 3.97 -0.25 2.73 -0.25 2.98 -0.25 1.74 0.25 1.98 0 0.5 0.25 0.25m6.2 -18.86l-1.98 5.46 -1.24 3.72 -0.75 2.73 -0.74 2.73 -0.5 1.74 -0.5 1.99 -0.25 0.25 -0.25 0.25m6.2 -18.86l2.73 -6.2 3.23 -4.96m-3.23 -0.74l0.25 0 0.5 0.25 0.75 0 0.5 0.25 0.25 0 0.5 0.25 0.5 0m-3.23 -0.74l-3.23 5.21 -2.73 5.71m106.45 -27.54l1.74 15.88 1.49 12.41m-3.23 -28.29l-3.47 0m-22.83 28.29l1.49 -15.88 1.24 -12.41m3.47 0l-3.47 0m55.08 -5.46l0.25 -1.74 0.25 -0.74 0.25 -0.5 0.5 0 0.5 0.25 0.75 0.75m-2.48 1.98l0 44.17m1.24 109.67l22.08 36.72m-4.47 -162.27l-8.19 -15.14 -6.45 -11.91m0 0l-0.5 -0.75 -0.5 -0.74m0 0l-0.75 -1.74m-93.54 3.23l0.5 -0.75 0.5 -0.74m-0.99 1.49l-7.69 15.38 -6.2 11.91m-4.22 162.27l19.35 -33.74m2.73 -10.17l0 -146.89m-2.23 -1.74l0.75 -0.99 0.5 -0.25 0.25 0 0.25 0.25 0.5 1.24 0 1.49m-2.23 -1.74l-0.75 1.49m118.36 196.26l0.25 0 0 -0.25 0.25 0 0 -0.5m-5.46 -4.71l0 -150.86m0 150.86l2.48 3.72 0.75 0.99 0.75 0.5 0.25 0.25 0.75 0m0 0l0 -136.96m-142.92 136.47l0 0.5 0.25 0 0 0.25 0.25 0m0 0l0 -136.96m0 136.96l0.5 0 0.25 -0.25 0.25 0 0.99 -0.75 0.99 -1.24 1.99 -3.23m0 -151.11l0 151.11m82.13 -42.43l4.22 -0.25 4.96 -0.74m-33 1.49l14.89 0m-33.25 -1.49l7.94 0.99 2.73 0m81.88 -108.68l1.49 5.46 0.99 4.22 0.5 2.73 0.74 2.73 0.5 1.74 0.5 1.74 0 0.5 0.25 0 0 0.25m-1.74 -20.1l1.24 5.71 0.75 3.97 0.25 2.73 0 4.96 -0.25 1.98 0 0.5 -0.25 0 0 0.25m-1.74 -20.1l-1.98 -6.2 -2.48 -5.21m-3.23 0.75l0.25 0 0.5 -0.25 0.99 0 0.25 -0.25 0.99 0 0.25 -0.25m-3.23 0.75l2.48 5.46 1.99 5.95m-41.31 -36.97l0.25 -1.98 0 -0.5 0.25 -0.5 0.5 0 0.25 0.25 0.25 0.99m-1.49 1.74l0 152.1m0 0l14.39 39.7m-2.73 -162.52l-4.96 -15.63 -3.97 -12.16m0 0l-0.25 -0.99 -0.25 -0.74m0 0l-0.75 -1.49m-96.02 38.21l-1.24 5.71 -0.75 3.97 -0.25 2.98 0 4.71 0.25 1.99 0 0.5 0.25 0 0 0.25m4.96 -19.6l-1.49 5.71 -0.75 3.97 -0.75 2.73 -0.74 2.98 -0.25 1.74 -0.5 1.74 -0.25 0.5 -0.25 0 0 0.25m4.96 -19.6l1.98 -6.2 2.23 -4.96m-3.23 -0.74l0.25 0 0.5 0.25 0.99 0 0.25 0.25 0.99 0 0.25 0.25m-3.23 -0.74l-2.48 5.46 -1.73 5.95m40.94 -34.98l0.25 -0.99 0.25 -0.74m-0.5 1.74l-4.71 15.63 -3.72 12.41m-2.48 162.52l13.15 -39.95m0 0l0 -152.1m-0.5 -2.98l0.25 0.25 0.25 1.24 0 1.49m-1.24 -1.74l0.25 -0.99 0.25 -0.25 0.37 0m-0.75 1.24l-0.5 1.49m34.99 1.49l0 -2.98 0.25 0 0 0.25 0.25 0.99m-0.5 1.74l0 152.1m0 0l5.21 40.44m-0.99 -162.52l-1.98 -15.88 -1.24 -12.66m0 0l-0.25 -0.75 0 -0.75m0 0l-0.25 -1.74m-16.13 3.23l0 -0.75 0.25 -0.75m-0.25 1.49l-1.49 15.88 -0.99 12.66m-0.99 162.52l4.22 -40.44m0 0l0 -152.1m-0.25 -2.98l0 0.25 0.25 1.24 0 1.49m-0.5 -1.74l0.25 -0.74 0 -0.5m-0.25 1.24l0 1.74m51.61 196.51l0.25 -0.25 0.25 0 0 -0.25 0.25 0 0.25 -0.99m-4.71 -4.47l0 -150.86m0 150.86l1.74 3.97 0.5 0.99 0.74 0.5 0.25 0.25 0.25 0 0 0.25 0.25 0m0 0l0 -137.21m-87.09 135.97l0 0 0 0.75 0.25 0.25 0 0.25 0.5 0m0 0l0 -136.96m0 136.96l0.75 0 0.25 -0.25 0.74 -0.74 0.75 -1.49 1.24 -3.23m0 -151.11l0 151.11m78.9 -151.11l0.99 5.71 0.75 3.97 0.5 2.98 0.5 2.73 0.25 1.74 0.5 1.98 0 0.5 0.25 0m-0.25 -20.1l0.74 5.71 0.25 4.22 0.25 2.73 -0.25 2.98 0 1.74 -0.25 1.99 -0.25 0.5 0 0.25 -0.25 0m-0.25 -20.1l-1.24 -6.2 -1.49 -5.46m-3.47 0.5l0.74 0 0.5 -0.25 1.74 0 0.5 -0.25m-3.47 0.5l1.49 5.46 1.24 6.2m-82.38 -0.25l-0.75 5.71 -0.25 4.22 0 5.71 0.25 1.74 0.25 1.98 0 0.75 0.25 0m3.72 -19.85l-0.99 5.71 -0.5 3.97 -0.5 2.98 -0.5 2.73 -0.5 1.98 -0.25 1.74 -0.25 0.5 -0.25 0.25m3.72 -19.85l1.24 -6.2 1.24 -5.21m-3.47 -0.5l0.99 0 0.25 0.25 1.74 0 0.5 0.25m-3.47 -0.5l-1.24 5.46 -1.24 6.2m57.56 159.29l0 -0.25 0.5 0 0.25 -0.25 0.25 -0.99 0.25 -1.49 0 -0.25m-3.72 -2.98l0.75 4.22 0.5 0.99 0.25 0.5 0.25 0.25 0.5 0 0.25 0.25m0 -137.21l0 137.21m-2.48 -6.2l0 -150.86m-27.79 153.59l0 1.24 0.25 0.99 0.25 0.75 0.25 0.25 0.25 0.25 0.25 0m0 -137.21l0 137.21m0 0l0.25 0 0.25 -0.25 0.25 -0.25 0.5 -0.75 0.5 -1.49 0.5 -3.47m0 -150.86l0 150.86m24.31 -150.86l0.25 5.71 0.5 4.22 0.25 2.73 0.25 2.98 0.5 1.74 0.25 1.98 0.25 0.25 0 0.25 0.25 0m0.99 -20.1l0.25 5.71 0 4.22 -0.25 2.73 -0.25 2.98 -0.25 1.99 -0.25 1.74 -0.25 0.5 0 0.25m0.99 -20.1l-0.5 -6.45 -0.5 -5.21m-3.47 0.25l0.25 -0.25 3.23 0m-3.47 0.25l0.5 5.46 0.5 6.2m-27.79 0l0 12.65 0.25 2.98 0.25 1.74 0.25 1.98 0.25 0.5 0.25 0m2.23 -19.85l-0.25 5.71 -0.25 3.97 -0.25 2.98 -0.5 2.98 -0.25 1.74 -0.5 1.98 0 0.5 -0.25 0m2.23 -19.85l0.5 -6.45 0.5 -5.21m-3.72 -0.25l2.23 0 0.5 0.25 0.99 0m-3.72 -0.25l-0.25 5.71 -0.5 6.2m234.73 68.98l0.99 -3.47 2.73 -9.68 1.24 -9.68 0 -4.71m-449.35 0l0.25 4.71 1.24 9.68 2.48 9.68 0.99 3.23m442.65 -47.14l0.5 1.74 1.24 9.68 0 9.92 -1.24 9.68 -2.73 9.43 -3.72 9.43 -4.96 9.43 -5.95 8.93 -7.44 8.68 -8.43 8.44 -9.43 7.94 -10.42 7.69 -11.41 7.2m-300.72 8.93l-4.72 -2.48 -12.41 -6.45 -11.41 -7.2 -10.42 -7.69 -9.43 -7.94 -8.44 -8.44 -7.44 -8.69 -5.96 -8.93 -4.96 -9.43 -3.72 -9.43 -2.48 -9.43 -1.24 -9.68 0 -9.92 1.24 -9.68 0.25 -1.98m381.86 108.43l-12.4 6.45 -5.96 2.98m-186.84 -21.59l0.25 0.99m-0.25 -2.48l0.25 1.24m-0.25 -2.73l0.25 1.24m-0.25 -2.73l0.25 1.24m-0.25 -2.48l0.25 0.99m0 5.71l0.74 1.24 1.49 0.75 0.5 0m-2.98 -10.17l0.25 0.99m-0.25 5.95l0 0 0.25 -0.25m0 1.24l-0.25 -0.99m2.98 2.73l-0.5 -0.25 -1.49 -0.74 -0.74 -0.75m2.73 0.99l-1.24 -0.5 -0.5 -0.5m-0.99 -0.99l0.74 0.99 1.49 0.75 0.5 0m-2.73 -2.23l0 0.5m-0.25 -8.44l0.25 1.24m-0.25 5.71l0 0 0.25 -0.25m0 1.24l-0.25 -0.99m2.98 2.73l-0.5 -0.25 -1.49 -0.75 -0.74 -0.74m2.73 1.24l-1.24 -0.75 -0.5 -0.5m-0.99 -0.99l0.74 0.99 1.49 0.74 0.5 0m-2.73 -2.23l0 0.5m-0.25 -8.44l0.25 1.24m-0.25 -0.99l0 -0.25m0 6.95l0.25 0m0 0.99l-0.25 -0.99m2.98 2.73l-0.5 0 -1.49 -0.74 -0.74 -0.99m2.73 1.24l-1.24 -0.5 -0.5 -0.5m-0.99 -1.24l0.74 0.99 1.49 0.75 0.5 0.25m-2.73 -2.48l0 0.5m-0.25 -1.24l0 -0.25 0.25 0m0 0.99l-0.25 -0.75m2.98 2.48l-0.5 0 -1.49 -0.75 -0.74 -0.99m2.73 1.24l-1.24 -0.5 -0.5 -0.5m-0.75 -7.69l-0.25 0.5 0.25 0.5m-0.25 5.46l0.74 0.99 1.49 0.75 0.5 0.25m-2.73 -2.48l0 0.5m-0.25 -1.24l0 -0.25 0.25 0m0 0.99l-0.25 -0.75m2.98 2.48l-0.5 0 -1.49 -0.75 -0.74 -0.99m2.73 1.24l-1.24 -0.5 -0.5 -0.5m-0.99 -1.24l0.74 1.24 1.49 0.75 0.5 0m-2.73 -2.23l0 0.25m0.74 -3.23l1.24 0.75m-2.23 1.24l0 0 0.25 -0.25m0 1.24l-0.25 -0.99m2.98 2.73l-0.5 -0.25 -1.49 -0.74 -0.74 -0.75m2.73 0.99l-1.24 -0.5 -0.5 -0.5m-0.99 -0.99l0.74 0.99 1.49 0.75 0.5 0m-2.73 -2.23l0 0.5m0.5 -4.96l0 0 0 0.99m-0.75 2.48l0 0 0.25 -0.25m0 1.24l-0.25 -0.99m2.98 2.73l-0.5 -0.25 -1.49 -0.75 -0.74 -0.74m2.73 1.24l-1.24 -0.74 -0.5 -0.5m-0.99 -0.99l0.74 0.99 1.24 0.74 0.75 0m-2.73 -2.23l0 0.5m2.73 0.75l-1.24 -0.5 -0.5 -0.75m-1.24 -0.5l0.25 -0.74m0 1.24l-0.25 -0.5m0.25 0.5l0.74 0.75 0.99 0.75 0.99 0.25m-2.48 -2.48l0.25 -0.5m-0.25 0.5l0.25 0.5 0.25 0.25m1.24 0.75l-0.75 -0.5 -0.5 -0.25m1.24 0.75l0.75 0.25m-2.23 -2.23l-0.25 -0.99 0 -0.25m2.48 2.48l-0.25 0 -1.24 -0.5 -0.5 -0.25 -0.25 -0.5m2.23 0.99l-1.24 -0.5 -0.75 -0.75 -0.25 -0.75m0.74 -2.73l0 -0.75 0.5 -0.74 0.99 -0.75m-2.23 5.21l0.74 -2.98m-0.74 2.98l0.74 0.75 1.24 0.74 0.25 0m0 -3.23l-0.75 -0.5 -0.75 -0.75m267.97 -43.42l0.99 -4.96 1.24 -9.68 0 -9.68 -1.24 -9.92 -1.49 -6.45m-59.3 133.74l11.66 -7.44 10.67 -7.69 9.68 -8.19 8.69 -8.68 7.44 -8.93 6.45 -9.18 4.96 -9.43 3.97 -9.68 1.74 -5.95m-60.79 60.05l11.66 -7.44 10.92 -7.69 9.68 -8.19 8.93 -8.68 7.44 -8.93 6.7 -9.43 5.21 -9.43 3.97 -9.68 2.98 -9.92 0.99 -6.45m-21.59 34.98l1.49 -2.23 5.21 -9.43 3.72 -9.68 2.48 -9.93 1.24 -9.68 0.25 -4.96m4.96 18.86l-0.99 2.98 -3.97 9.68 -5.46 9.68 -6.45 9.18 -7.69 9.18 -8.69 8.68 -9.92 8.19 -10.92 7.69 -11.66 7.44m-2.48 -4.47l11.66 -7.2 10.67 -7.69 9.68 -7.94 8.68 -8.69 7.69 -8.68 6.2 -9.18 5.46 -9.43 3.97 -9.68 2.73 -9.68 1.74 -9.68 0.25 -4.72m-65.88 95.28l11.66 -7.44 10.92 -7.94 9.92 -8.19 8.93 -8.68 7.69 -8.93 6.45 -9.43 5.21 -9.68 4.22 -9.68 2.73 -9.92 1.74 -9.92 0.25 -7.69m-354.32 140.69l6.95 2.23 15.38 4.22 15.88 3.72 16.13 2.98 16.87 2.23 16.87 1.74 17.12 0.75 17.12 0 16.87 -0.5 17.12 -1.49 16.62 -1.98 16.38 -2.98 16.13 -3.47 15.38 -4.22 10.67 -3.23m107.93 -148.63l0.5 2.48 1.24 9.68 0.25 3.97m-451.33 0l0.25 -3.97 1.24 -9.68 0.5 -2.23m0.99 -6.45l-1.49 6.45 -1.24 9.92 0 9.68 1.24 9.68 1.24 4.96m443.89 -58.06l0.5 0.5 3.72 9.68 2.48 9.93 1.24 9.68 0 9.93 -1.24 9.92 -2.48 9.68 -3.72 9.68 -5.21 9.43 -6.2 9.18 -7.44 8.93 -8.69 8.68 -9.43 8.19 -10.67 7.69 -11.66 7.2m-322.19 -1.12l12.4 6.7 13.15 5.96 14.14 5.71 14.64 4.72 15.14 4.47 15.88 3.47 16.13 2.98 16.63 1.98 16.62 1.49 16.87 0.75 17.12 0 16.87 -0.75 16.62 -1.49 16.63 -1.98 16.13 -2.98 15.88 -3.47 15.13 -4.47 14.89 -4.72 13.89 -5.71 13.15 -5.95 12.65 -6.7m-381.74 -121.33l-1.49 4.47 -2.48 9.68 -1.24 9.68 0 9.92 1.24 9.68 2.48 9.68 3.72 9.68 4.96 9.18 6.2 9.18 7.44 8.93 8.44 8.44 9.68 7.94 10.42 7.69 11.66 7.2m320.57 0l11.41 -7.2 10.67 -7.69 9.43 -7.94 8.43 -8.44 7.44 -8.93 6.2 -9.18 4.96 -9.18 3.72 -9.68 2.48 -9.68 1.24 -9.68 0 -9.92 -1.24 -9.68 -2.48 -9.68 -1.74 -4.47m-370.45 129.03l0 0 -12.41 -6.7 -11.66 -7.2 -10.67 -7.69 -9.68 -8.19 -8.68 -8.69 -7.44 -8.93 -6.2 -9.18 -4.96 -9.43 -3.97 -9.68 -2.48 -9.68 -1.24 -9.92 0 -9.92 1.24 -9.68 2.48 -9.92 3.97 -9.68 0 -0.25m383.35 128.03l-12.66 6.7m-377.89 -59.05l1.24 5.21 3.97 9.68 4.96 9.43 6.2 9.18 7.44 9.18 8.44 8.44 9.68 8.19 10.67 7.94 11.41 7.2 12.66 6.95 13.4 6.2 14.14 5.71 14.89 4.96 15.38 4.47 15.88 3.72 16.38 2.98 16.87 2.23 16.87 1.49 17.12 0.99 17.37 0 17.12 -0.75 17.12 -1.24 16.62 -2.23 16.62 -2.73 16.13 -3.47 15.38 -4.22 15.14 -4.96 14.14 -5.46 13.65 -6.2 12.9 -6.7m0 0l0.25 0 0.25 -0.25 0.25 0 0.25 -0.25 0.25 0 0.25 -0.25 0.25 -0.25 0.25 0m-392.53 -111.9l0.25 4.96 1.24 9.68 2.48 9.92 3.97 9.68 4.96 9.43 1.49 2.23m-21.59 -34.99l0.25 1.49 2.24 9.92 3.23 9.68 4.71 9.68 5.96 9.43 7.2 9.18 8.19 8.68 9.18 8.44 10.42 8.19 11.17 7.44 12.41 7.2 13.15 6.45 13.9 5.95 14.64 5.46 15.13 4.72 15.88 3.97 16.38 3.47 16.62 2.73 16.87 1.98 17.12 1.24 17.37 0.5 17.37 0 17.37 -0.99 16.87 -1.74 16.87 -2.23 16.62 -2.98 16.13 -3.97 15.38 -4.22 14.89 -5.21 14.39 -5.71 13.4 -6.2 12.9 -6.7m-0.25 -9.68l-0.25 -0.25 -0.25 0 -0.25 -0.25 -0.25 0.25 -0.25 0 -0.25 0.25 -0.25 0m-1.74 1.24l0.25 -0.25 0.25 0 0.25 -0.25 0.25 0 0 -0.25 0.25 -0.25 0.25 0 0.25 -0.25m-400.34 -92.3l0.99 8.44 1.98 9.92 3.47 9.68 4.47 9.43 5.71 9.43 6.95 8.93 7.94 8.69 9.18 8.43 10.17 7.94 10.92 7.44 12.16 6.95 12.9 6.45 13.65 5.95 14.14 5.46 15.14 4.71 15.38 3.97 16.13 3.47 16.37 2.73 16.63 1.98 17.12 1.49 16.87 0.5 17.12 0 17.12 -0.99 16.87 -1.49 16.63 -2.23 16.38 -2.73 15.88 -3.72 15.38 -4.22 14.64 -4.96 14.39 -5.46 13.4 -6.2 12.65 -6.45m-398.24 -69.47l2.73 7.94 4.71 9.68 5.96 9.43 7.2 9.18 8.19 8.69 9.43 8.44 10.17 8.19 11.41 7.69 12.41 6.95 13.15 6.7 13.89 5.95 14.64 5.21 15.38 4.71 15.88 4.22 16.38 3.47 16.62 2.73 17.12 1.98 17.12 1.24 17.37 0.5 17.37 -0.25 17.37 -0.75 17.12 -1.74 16.87 -2.23 16.62 -3.23 16.13 -3.72 15.63 -4.47 14.89 -4.96 14.39 -5.71 13.4 -6.2 12.9 -6.95m0.5 -1.74l-0.5 1.74m52.6 -153.34l0.25 0.5 5.95 9.43 4.72 9.68 3.47 9.92 2.23 9.92 0.99 9.93 -0.25 10.17 -1.74 9.92 -2.73 9.92 -4.22 9.92 -5.21 9.43 -6.45 9.43 -7.69 8.93 -8.93 8.68 -9.93 8.44 -10.92 7.69 -11.66 7.44m-1.24 -0.5l-0.25 0 -0.25 0.25 -0.25 0.25 -0.25 0 -0.25 0.25 -0.25 0 -0.25 0.25m-231.75 33.5l8.44 1.49 16.87 1.98 17.12 1.24 17.12 0.75 8.68 0m166.49 -39.45l-12.9 6.95 -13.65 6.2 -14.39 5.71 -14.89 4.96 -15.63 4.47 -16.13 3.97 -16.62 2.98 -16.87 2.23 -17.37 1.74 -17.37 0.99 -17.37 0.25 -17.37 -0.75 -17.37 -1.24 -17.12 -1.99 -16.62 -2.73 -16.38 -3.47 -15.88 -3.97 -15.38 -4.71 -14.89 -5.46 -13.9 -5.95 -13.15 -6.7 -12.41 -7.2 -11.41 -7.44 -10.42 -8.19 -9.18 -8.44 -8.44 -8.93 -6.95 -9.18 -5.95 -9.43 -4.71 -9.68 -3.47 -9.92 -2.23 -9.92 -0.99 -9.92 0.25 -10.17 1.74 -9.92 2.73 -9.93 4.22 -9.92 5.21 -9.43 3.23 -4.96m-17.37 53.84l0 2.48 0.99 10.17 2.23 9.92 3.47 9.92 4.71 9.68 5.96 9.43 6.95 9.18 8.44 8.93 9.18 8.44 10.42 7.94 11.41 7.69 12.41 7.2 13.15 6.45 13.89 5.95 14.89 5.46 15.38 4.71 15.88 4.22 16.38 3.47 16.62 2.73 17.12 1.98 17.37 1.24 17.37 0.5 17.37 -0.25 17.37 -0.75 17.37 -1.74 16.87 -2.23 16.63 -3.23 16.13 -3.72 15.63 -4.47 14.89 -4.96 14.39 -5.71 13.65 -6.45 12.9 -6.7m0 -2.23l0 2.23m-42.68 -320.82l0 0m0 0l-0.25 0m0 0l0.25 0m-0.25 0l0 0 0 0.25 -0.5 0 -0.74 -0.25 -0.75 -0.25 -0.5 -0.25 -0.25 0m0 1.49l0.25 -0.5 0 -0.75 -0.25 -0.25m0 0l-0.25 -0.5 0 -0.62m-52.36 -78.53l4.96 2.48 5.96 2.98m44.66 74.69l0.25 0m-0.25 0l0 0m-2.98 0.99l1.24 -0.25 1.74 -0.74m-3.23 -1.74l-1.24 -35.48m1.24 35.48l0 0.5 -0.25 0.25 0 0.25m-0.99 -36.47l-0.25 -0.99 -0.25 -0.75m0.5 1.74l0 0.5 -0.25 0.25 0 0.25m-1.49 -3.97l0.25 0.5 0 1.49m-0.25 -1.99l-7.69 -1.98m7.69 1.98l-2.48 -4.22 -2.98 -3.97 -3.23 -4.22 -3.72 -3.72 -4.22 -3.97 -4.47 -3.47 -4.96 -3.47 -5.46 -3.23m23.82 28.29l0.25 0.25 0.25 0.5 0 0.5 -0.25 0.5m-0.25 -1.74l-1.99 0 -1.98 0.75m-26.8 -33.25l5.46 3.47 5.21 3.72 4.47 3.72 4.22 4.22 3.72 3.97 3.23 4.47 2.48 4.47 1.98 4.47m-30.77 -32.5l-0.5 0 -0.25 -0.25 -1.49 0 -0.25 0.25 -0.5 0.25 -0.5 0.25m44.66 73.44l0 0.99 0.5 0.75m-1.74 -37.22l1.24 35.48m-2.48 -37.47l0.74 0.5 0.25 0.75 0.25 0.74m-8.93 -4.22l4.47 1.24 3.23 0.99m-10.67 -1.24l1.73 -0.99 1.24 0m-2.98 0.99l-7.69 6.45m7.69 -6.45l0 -0.5 -0.25 -0.5 -0.5 -0.5 -0.5 -0.5m18.11 41.44l2.48 5.46 1.99 5.71 0.99 5.71 0.5 5.95 -0.5 5.71 -0.99 5.71 -1.99 5.71 -2.48 5.46m-0.25 -0l0.25 0m0 -45.4l0 0m-0.25 45.4l0 0m0 0l0 0m0 0l-2.73 -2.23m2.73 2.23l-0.25 0m-24.07 -78.4l-0.74 0.74 -0.5 0.5 -0.5 0.5 -0.25 0.75 -0.5 0.75 0 0.5 -0.25 0.75 0 0.74m1.24 -7.2l0.25 0.25 0.25 0.25 0.25 0.25 0.25 0.25 0.25 0.25 0 0.25 0.25 0.25 0 0.25m-218.6 91.06l-0.25 0m0 0l0 0m0.25 0l0 0m3.97 -0.75l-0.5 -0.25 -0.25 -0.25 -0.25 -0.5 0 -0.25m-1.99 1.74l-0.25 0 -0.25 0.25 -0.5 0m2.98 -1.99l-0.5 0.5 -0.5 0.25 -0.5 0.5 -0.5 0.5m2.48 -2.98l0 0.75 -0.5 0.5m215.37 -79.65l0 0m10.67 10.67l0.5 0 -0.25 0.25m-229.26 70.72l2.23 -0.25 1.74 -0.5m-4.22 0.75l0.25 0m-11.66 -39.45l0 1.24 0.74 7.2 1.74 7.2 0.25 0.75m-10.42 8.93l0 3.23 0.74 7.69 2.23 7.2 3.23 7.2 4.71 7.2 5.71 6.7 6.7 6.45 7.69 5.96 8.69 5.46m-16.13 -82.13l-0.74 35.98m1.24 0.5l-0.25 0 -0.5 -0.25 -0.25 0 -0.25 -0.25m-3.72 3.23l-0.25 0 0 0.25m-14.39 -13.89l-1.49 -3.72 -1.74 -7.44 -0.74 -7.69 0.74 -7.69 1.74 -7.69 2.98 -6.7m2.98 -18.61l0 -1.74m17.12 31.76l-0.99 0.99 -0.75 0.75 -0.5 1.24 -0.25 0.99m1.24 0.5l-0.25 0 -0.5 -0.25 -0.25 0 -0.25 -0.25m21.34 -12.41l-3.23 0.25 -2.98 1.24m-12.65 6.95l0 0.5 0.25 0.5 0.25 0.25 0.25 0.5m11.91 -8.69l0.25 0.5 0 0.25 0.25 0.5 0.25 0.25m8.19 -79.9l-2.48 1.49 -8.44 5.71 -4.47 3.47m6.45 67.74l-12.65 6.95m14.14 -79.15l1.24 -1.24 7.44 -5.46 8.44 -5.21 8.19 -3.97m-20.59 86.59l-0.25 0.5 0 1.74m13.4 1.49l0 -1.86 0.25 -0.25 0 -0.25m16.38 82.62l0.25 0m-6.2 -23.08l0 0.25 -0.25 0.25 0 0.25 -0.5 0m6.7 22.33l0 0m0 -0.25l0 0.25m0.25 -3.23l0.99 0m-0.99 0l0 1.74 -0.25 1.24m0 0l0 0m-55.58 -32.01l25.31 2.73m23.57 7.2l6.7 22.33m0 0l-4.47 -1.49 -4.22 -1.49 -4.22 -1.49 -3.97 -1.74 -3.97 -1.74 -3.97 -1.74 -3.72 -1.98 -3.47 -1.99m0 0l-3.47 -1.98 -3.47 -2.23 -3.23 -2.23 -2.98 -2.23 -2.73 -2.48 -2.73 -2.23 -2.73 -2.48 -2.23 -2.73m0 0l-0.25 0.25m0 0l2.48 2.48 2.48 2.48 2.73 2.48 2.98 2.23 2.98 2.23 3.23 2.23 3.23 2.23 3.47 1.98m32.26 13.65l0 0m-8.68 -77.66l-0.75 -0.5 -0.99 -0.5 -0.99 -0.25 -0.99 -0.5 -0.99 -0.25 -0.99 -0.25 -1.24 -0.25 -0.99 0m9.18 54.59l0.25 0.25 0.25 0.5 0.5 0.75 0.25 0.5 0.25 0.5m1.49 -49.87l-0.25 -0.74 -0.25 -0.75 -0.5 -0.5 -0.5 -0.75 -0.5 -0.5 -0.75 -0.5 -0.5 -0.5 -0.99 -0.5m1.24 -2.23l-0.25 0.25 -0.25 0.25 0 0.25 -0.25 0.25 -0.25 0.25 0 0.25 -0.25 0.25 0 0.5m-7.94 -2.48l-13.4 -1.49m-5.21 0.74l2.73 -0.74 2.48 0m-17.86 7.94l7.2 -3.97 5.46 -3.23m-14.64 9.93l0.25 -0.75 0.25 -0.75 0.5 -0.74 0.99 -0.5m-2.85 38.71l0.74 -35.98m-1.49 37.96l0.5 -0.99 0.25 -0.99m47.89 -39.7l-0.25 0 -0.25 0.25 -0.25 0.25 -0.25 0 -0.25 0.25 -0.25 0.25 0 0.25 -0.25 0.5m2.48 7.69l0.25 -0.5 0.25 -0.5 0.5 -0.5 0.75 -0.25m1.24 62.03l-0.25 -0.25 -0.5 -0.25 -0.25 -0.25m1.99 -35.23l-0.25 0 -0.25 -0.25 -0.25 -0.25 -0.25 -0.25m-0.99 -20.1l-0.5 0.25 -0.25 0 -0.25 0.25 -0.25 0m3.23 15.14l-0.5 0.25 -0.25 0 -0.25 0.25 -0.25 0m-2.73 -19.6l-2.48 -7.69m0 0l-1.49 49.87m0 0l6.2 19.85m-0.25 -2.48l0 1.24 0.25 1.24m0.75 -38.46l-0.99 35.98m0.75 -39.95l0.25 2.23 0 1.73m-2.23 -19.6l1.24 8.93 0.75 6.7m-2.73 -19.6l0.5 1.99 0.25 1.98m129.02 -115.87l-0.75 1.24 -4.22 4.96 -5.21 4.72 -6.45 4.22m76.17 117.11l0.25 0m-187.33 44.91l-0.25 -0.25m1.24 -2.98l-0.25 -0.99 0 -0.74m-0.99 4.71l0 0 0.25 -0.25 0.5 -0.5 0.25 -0.99 0.25 -0.5 0 -0.74m-1.24 2.98l11.66 3.23 12.16 2.48 12.41 1.74 12.9 0.99 12.65 0.25 12.9 -0.25 12.65 -1.24 12.41 -1.74 12.16 -2.48 11.66 -3.23 10.92 -3.72 10.42 -4.47 9.43 -4.96 8.68 -5.46 7.69 -5.95 6.7 -6.2 5.46 -6.7 4.47 -6.95m-0.99 -0.5l0.25 0.25 0.5 0 0.25 0.25m-2.73 -2.23l0.25 0.75 0.5 0.25 0.25 0.5 0.74 0.25m-1.98 -3.47l0 0.75 0.25 0.99m-219.59 57.81l0.5 -20.1m-0.5 20.1l9.68 4.96 10.42 4.72 10.92 3.72 11.66 3.23 12.16 2.73 12.65 1.99 12.66 1.24 13.15 0.5 12.9 -0.25 12.9 -0.74 12.65 -1.74 12.41 -2.23 11.91 -2.98 11.17 -3.47 10.92 -4.22 9.93 -4.72 9.18 -5.46 8.19 -5.71 7.44 -6.2 6.2 -6.7 4.96 -6.7 3.97 -7.2 2.73 -7.2 1.49 -7.44 0.5 -7.2m-232.24 36.97l0 -0.5 0.25 -0.75 0.25 -0.5 0.25 -0.5 0.25 -0.5 0.5 -0.5 0.25 -0.5 0.5 -0.5m223.93 -73.44l2.98 6.95 1.99 7.69 0.5 7.69 -0.5 7.69 -1.99 7.44 -1.24 3.23m-5.46 -43.92l-0.25 0m0.25 45.41l2.73 -5.46 1.74 -5.71 1.24 -5.71 0.25 -5.71 -0.25 -5.95 -1.24 -5.71 -1.74 -5.71 -2.73 -5.46m-0.25 45.41l0.25 0m-0.25 0l-4.47 6.95 -5.46 6.7 -6.7 6.45 -7.69 5.95 -8.68 5.46 -9.68 4.96 -10.17 4.22 -11.17 3.97 -11.66 2.98 -11.91 2.73 -12.65 1.74 -12.65 0.99 -12.66 0.5 -12.9 -0.25 -12.65 -1.24 -12.65 -1.74 -11.91 -2.48 -11.66 -2.98m-0.25 0l0.25 0m-32.5 -13.65l3.72 1.99 3.72 1.98 3.72 1.99 3.97 1.74 4.22 1.49 0.25 0.25m174.43 -109.79l7.94 6.45m-7.94 -17.86l-1.24 1.49 -0.99 1.24 -0.5 1.49 -0.25 1.49 0.25 1.49 0.5 1.49 0.99 1.49 1.24 1.24m7.94 -17.86l-7.94 6.45m-22.33 -39.2l5.46 3.47 5.21 3.72 4.47 3.72 4.22 4.22 3.47 4.22 2.98 4.47 2.48 4.47 1.98 4.47m-186.09 49.13l-13.4 -1.24m22.33 3.97l-0.74 -0.5 -1.24 -0.5 -0.99 -0.5 -0.99 -0.25 -1.24 -0.25 -1.24 -0.25 -1.24 -0.25 -1.24 -0.25m13.65 7.94l-0.25 -0.75 -0.25 -0.75 -0.5 -0.5 -0.5 -0.75 -0.75 -0.74 -0.75 -0.5 -0.74 -0.75 -0.99 -0.5m7.2 12.9l-2.48 -7.69m121.83 -11.66l0 0.25 -0.25 0 -0.25 0.25m-118.6 24.07l-0.25 -2.98 0 -2.23m169.96 -40.44l1.98 1.74 1.99 2.48m-3.97 -4.22l-2.98 6.7 -4.22 6.45 -5.46 6.2 -6.7 5.96 -7.44 5.46 -8.69 4.72 -9.43 4.47 -10.42 3.72 -10.67 2.98 -11.41 2.23 -11.91 1.74 -11.91 0.74 -12.16 0 -11.91 -0.74 -11.91 -1.49 -11.41 -1.98 -10.92 -2.98 -10.42 -3.72m111.41 -31.76l0.25 0 0 -0.25 0.25 0m-0.5 -63.02l0 0 -0.25 0.25 -0.25 0m0 0l-7.2 3.72 -8.19 2.98 -8.69 2.23 -8.93 1.74 -9.68 0.75 -9.43 0.25 -9.68 -0.74 -9.18 -1.24 -8.93 -1.98 -8.19 -2.73 -7.69 -3.47 -6.7 -3.97 -5.71 -4.47 -4.72 -4.72 -2.73 -3.72m188.08 93.04l1.24 35.23m-183.36 43.92l0.99 -35.98m-0.99 35.98l11.41 2.98 11.91 2.48 12.16 1.74 12.41 0.99 12.65 0.5 12.41 -0.5 12.65 -0.99 12.16 -1.74 11.91 -2.48 11.17 -2.98 10.92 -3.72 10.17 -4.47 9.18 -4.96 8.69 -5.21 7.44 -5.96 6.45 -6.2 5.46 -6.45 4.22 -6.95m-2.98 -40.2l0.75 1.24 0.5 1.24 0.25 1.24 0.25 1.24m-181.13 43.17l0 -5.21m181.13 -37.96l-4.72 7.2 -5.71 6.7 -6.95 6.45 -7.94 5.95 -9.18 5.46 -10.17 4.96 -10.67 4.22 -11.66 3.72 -12.16 2.98 -12.65 1.99 -12.9 1.49 -13.15 0.5 -13.15 0 -12.9 -0.99 -12.9 -1.74 -12.41 -2.48 -11.91 -3.23m171.7 -62.28l7.69 14.14m-7.69 -14.14l-3.23 6.7 -4.47 6.7 -5.71 6.2 -6.95 5.71 -7.94 5.46 -8.68 4.96 -9.68 4.22 -10.42 3.72 -11.17 2.98 -11.41 2.48 -11.91 1.49 -12.16 0.99 -12.16 0.25 -12.41 -0.75 -11.91 -1.24 -11.66 -2.23 -11.17 -2.73 -10.67 -3.47m1.99 15.63l-1.99 -15.63m1.99 15.63l11.91 3.23 12.16 2.48 12.65 1.74 13.15 0.99 12.9 0.25 13.15 -0.5 12.9 -1.49 12.41 -2.23 12.16 -2.73 11.41 -3.72 10.67 -4.22 10.17 -4.96 8.93 -5.46 7.94 -5.95 6.95 -6.45 5.46 -6.7 4.47 -7.2m-101.73 -62.78l9.18 -1.73 8.69 -2.73 7.94 -2.98 7.2 -3.72 6.2 -4.47 4.96 -4.71 3.97 -4.96 2.73 -5.46 1.49 -5.46 0 -5.58 -0.99 -5.46 -0.5 -0.99m-138.2 0l0 0 -1.49 5.71 0 5.46 1.24 5.46 2.48 5.46 3.72 5.21 4.96 4.72 5.96 4.47 6.95 3.72 7.94 3.23 8.44 2.73 9.18 1.98 9.43 1.24 9.43 0.25 9.68 -0.25 9.43 -0.99m50.62 -76.18l0 -0.74m-62.03 -38.46l0 0 0.25 0.25 0 0.5m-76.3 72.7l0 0.99m0.25 -26.3l0 0.25m137.71 -27.29l0 -0.75m-64.51 -53.59l0.5 0m-9.18 -18.86l4.72 -0.5 4.72 0.5 4.47 1.24 3.47 1.99 2.73 2.23 1.24 2.73 -0.25 2.73 -1.24 2.73 -2.73 2.23 -3.72 1.99 -4.22 0.99m-0.5 0l0.25 0.25 0 0.75m-0.25 -0.99l-4.72 0.5 -4.71 -0.5 -4.47 -1.24 -3.47 -1.98 -2.48 -2.23 -1.49 -2.73 0.25 -2.73 1.24 -2.73 2.73 -2.23 3.72 -1.74 4.47 -1.24m0.25 0l-0.25 0m11.41 52.1l5.71 -1.24 4.72 -1.99 4.22 -2.48 2.98 -2.98 1.74 -3.23 0.5 -3.47 -0.5 -2.48m-30.77 -34.36l4.96 -0.25 4.96 0.25 4.47 1.24 3.72 1.98 2.73 2.48 1.24 2.73 0 3.1 -1.49 2.73 -2.73 2.48 -3.72 1.98 -4.71 0.99m0 0l0 0 -0.25 0.25m13.4 96.77l0 -0.99m18.86 -57.32l3.47 -2.48 4.71 -3.72 3.47 -4.22 2.23 -4.47 0.99 -4.72 -0.25 -4.71 -1.49 -4.47 -2.73 -4.47 -3.85 -4.34 -4.96 -3.47 -5.95 -3.23 -6.82 -2.6 -7.2 -1.98 -0.5 -0.25m-86.84 72.7l0 0.5m42.8 -48.26l-0.5 3.23 0.75 3.47 2.23 3.23 3.23 2.73 4.22 2.48 5.21 1.74 5.46 0.99 5.95 0.5 5.95 -0.5m0 0l0.5 0m-2.23 -32.26l-4.96 0.25 -4.96 -0.5 -4.47 -1.24 -3.85 -1.86 -2.61 -2.48 -1.24 -2.73 0 -3.1 1.49 -2.73 2.73 -2.48 3.72 -1.73 4.71 -1.24m22.83 9.68l0.5 0 7.44 1.99 6.7 2.73 5.71 3.23 4.96 3.72 3.97 4.22 2.73 4.22 1.49 4.71 0.25 2.98m-27.05 6.95l0.5 -0.5 1.74 -3.47 0.5 -3.47 -0.99 -3.47 -0.99 -1.99m-50.62 0l-1.74 3.23 -0.5 3.47 0.99 3.47 2.23 3.23 1.49 1.49m-29.03 -8.93l0.25 -1.49 0.99 -4.71 2.23 -4.47 3.47 -4.22 4.59 -3.6 5.46 -3.47 6.45 -2.73 7.2 -2.23 2.98 -0.75m0.25 -0.5l-3.47 0.99 -7.2 2.23 -6.45 2.73 -5.46 3.47 -4.47 3.97 -3.47 4.22 -2.23 4.47 -0.99 4.71 0.25 4.47 1.49 4.71 2.73 4.47 2.98 3.23m62.03 45.65l0 -1.24m48.88 -66.5l1.24 6.7m0.99 0l-1.24 -6.7m-136.71 33l0 0.25m119.35 -52.85l7.94 6.2 5.71 7.2 2.73 5.71 0.75 6.2m-17.86 -25.8l0.25 0.25 0.5 0.25m-2.98 -2.23l1.24 0.74 0.99 0.99m-2.48 -1.99l0.25 0 0 0.25m-33.5 56.82l7.69 -1.49 7.2 -2.23 6.45 -2.98 5.71 -3.47 4.47 -3.97 3.47 -4.22 2.23 -4.47 1.24 -4.72 -0.25 -4.72 -1.74 -4.71 -2.73 -4.47 -3.97 -4.22 -4.96 -3.72 -5.95 -3.23 -6.7 -2.73 -7.44 -1.98 -1.24 -0.25m-3.47 57.57l0 0.25 -0.37 0m-31.14 -57.94l-4.22 0.99 -7.2 2.23 -6.45 2.98 -5.46 3.47 -4.71 3.97 -3.47 4.22 -2.23 4.47 -0.99 4.72 0.25 4.72 1.49 4.71 2.73 4.47 3.97 4.22 4.96 3.72 5.95 3.23 6.7 2.73 7.44 1.98 7.94 1.24 8.19 0.75 8.19 -0.25 8.06 -0.62m55.58 -28.53l-0.75 7.2 -2.73 6.7 -4.47 6.45 -6.2 6.2 -7.44 5.21 -8.93 4.71 -9.92 3.47 -10.67 2.73m51.11 -42.68l0 -0.25 -0.5 -0.5 -0.25 -0.25 -0.74 0m-3.23 12.41l-2.98 4.22 -4.72 4.96 -6.2 4.72 -7.2 3.97 -7.94 3.23 -8.93 2.73 -9.43 1.74m0 -0l-8.93 0.99 -9.43 0.25 -9.18 -0.25 -8.93 -1.24 -8.68 -1.99 -8.19 -2.48 -7.44 -3.23 -6.45 -3.72 -5.71 -4.22 -4.71 -4.47 -3.47 -4.96 -0.5 -0.75m47.64 -49.62l8.44 -0.75 8.68 -0.5 8.69 0.5 8.43 0.99 8.44 1.49 7.69 2.23 7.2 2.73 6.7 3.23m0 0l0.25 -0.25 0.5 0.25 0 0.25 0.25 0.25m-32.75 67.49l-7.44 0.74 -9.43 0.25 -9.18 -0.5 -9.18 -0.99 -8.93 -1.98 -8.19 -2.73 -7.82 -2.98 -6.7 -3.97 -5.71 -4.22 -4.96 -4.72 -3.47 -4.96 -2.48 -5.21 -0.99 -5.46 0 -5.46 1.49 -5.21 2.73 -5.21 3.72 -4.96 4.96 -4.72 6.2 -4.22 6.95 -3.47 7.69 -3.23 8.44 -2.48 7.44 -1.49m37.22 76.92l-0.5 0m51.61 -38.95l-0.75 5.95 -1.98 5.71 -3.47 5.46 -4.96 4.96 -6.2 4.72 -7.2 3.97 -8.19 3.47 -8.93 2.73 -7.69 1.74m102.72 179.64l1.24 -0.99 1.74 -1.98 0.74 -1.99 0 -0.74m0 -3.47l-0.25 -1.74 -0.99 -2.23 -1.98 -1.99 -0.99 -0.5m4.22 9.93l0 -3.47m-210.66 44.91l0 -2.23m7.44 1.73l0 1.24m4.22 10.17l1.49 -0.99 1.74 -1.74 0.75 -2.23 0 -0.75m-23.82 -3.47l0 3.47m23.82 -3.47l-0.25 -1.73 -0.99 -2.23 -1.99 -1.99 -2.73 -1.49 -3.23 -0.75 -3.47 -0.25 -3.72 0.5 -3.23 1.24m-4.22 9.93l0.25 1.98 1.24 2.23 1.98 1.74 2.98 1.24 3.47 0.75 3.72 -0 3.47 -0.74 2.73 -1.24m3.97 -5.71l0 -3.47m-19.6 -6.7l-1.49 1.24 -1.74 1.99 -0.99 2.48 0 1.24m215.62 -83.37l0 -6.45m22.83 14.14l0 -3.72m-292.54 0.5l0 3.47m288.82 -11.17l-3.23 -1.49m-278.64 0.5l-2.85 1.49m309.16 21.09l0 -2.23m-333.48 0.5l0 1.99m329.51 -9.8l-2.48 -1.74m-320.33 0.5l-2.73 1.74m347.12 21.83l0 -1.61m-368.71 0.75l0 1.74m365.49 -9.18l-2.48 -1.98m-357.3 0.5l-2.23 1.98m379.88 23.32l0 -2.48m-397.74 0.75l0 2.48m395.26 -8.93l-1.99 -2.23m-390.3 2.48l-0.5 0.5m1.98 -2.23l-1.49 1.74m405.68 25.56l0 -4.47m-419.58 0.75l0 4.47m418.09 -9.68l-0.75 -1.49m-414.86 0.99l-0.99 1.49m425.78 27.54l0 -7.94m-434.84 0.75l0 7.94m434.21 -10.67l-0.25 -0.75m-433.22 0.99l-0.25 0.5m437.94 33.99l0 -16.13m-442.16 0.74l0 136.96m442.4 15.88l0 -136.96m-442.16 0.75l0 136.96m361.51 -157.06l-0.25 1.99m-280.63 0l-0.25 -1.74m364 156.81l0 -8.69m-84.86 -138.7l-0.75 1.74m-275.54 0.25l-0.75 -1.99m355.93 163.26l0 -136.96m-434.59 0.62l0 136.96m351.47 -154.46l-0.99 1.99m-266.48 0l-1.24 -1.99m344.39 169.97l0 -137.21m-419.58 0.74l0 137.21m337.45 -161.28l-1.49 1.74m-252.84 0l-1.49 -1.74m247.13 8.93l-1.99 1.73m-234.48 0l-1.98 -1.73m318.34 166.99l0 -137.21m-397.49 0.75l0 137.21m306.68 -159.3l-2.23 1.49m-211.9 0l-2.48 -1.49m203.96 7.44l-2.73 1.49m-185.6 0l-2.73 -1.49m-32.75 -52.11l0 27.29m313.01 190.43l0 -137.71m-368.71 0.75l0 137.46m265 -159.54l-2.98 0.99m-156.07 0.25l-2.98 -1.24m146.14 5.46l-3.23 0.99m-123.56 0l-3.23 -0.99m232 166.74l0 -137.71m-333.48 0.5l0 137.71m214.38 -163.02l-3.47 0.75m-88.83 0l-3.47 -0.75m77.66 2.98l-3.47 0.5m-52.6 0l-3.47 -0.5m40.94 1.49l-3.72 0.25m-15.14 0l-3.47 -0.25m157.81 169.96l0 -138.08m-292.54 0.5l0 138.2m269.71 9.43l0 -138.7m-246.63 0.5l0 138.7m-100.49 -106.2l0 8.69m322.06 105.45l0 -139.44m-196.76 0.25l0 139.45m170.21 5.95l0 -140.68m-143.42 0.25l0 140.69m199.24 -240.68l0 -27.05m-83.37 271.2l0 -142.67m-88.08 0l0 142.92m59.8 0.25l0 -146.64m-31.51 -0.75l0 147.14m239.69 -112.15l0 -3.47m-449.35 -0.12l0 3.6m178.9 64.26l-0.25 0.74m1.24 -3.97l-0.74 2.73m274.18 -27.54l0 -0.25m0.5 -36.47l0 -4.47m7.2 15.38l0.25 0m-2.48 7.94l0.75 -1.99m3.72 -24.56l0 -2.23m-467.84 5.46l0 4.47m0.5 36.47l0.25 0.25m-7.94 -25.81l0 0m1.49 5.95l0.75 1.99m-4.47 -28.78l0 2.23m359.78 -262.27l-1.74 -2.73 -4.47 -6.7 -5.71 -6.45 -6.45 -5.95 -7.69 -5.46 -5.46 -3.47m0 0l-0.25 -0.25m-0.99 -0.5l-6.95 -4.22m41.93 117.61l-0.5 -0.99 0 -0.99m1.24 3.23l-0.25 -0.25 -0.25 -0.25 -0.25 -0.5m-21.83 -66.75l-0.99 -0.99 -1.24 -1.74 -0.25 -1.49m10.17 10.67l-7.69 -6.45m11.17 10.67l-1.74 -2.48 -1.74 -1.74m12.41 22.83l-0.25 -0.99 -0.25 -1.24 -0.25 -1.24 -0.74 -0.99m0 0l-3.23 -6.45 -4.22 -7.69m-239.93 -3.97l-1.24 35.48m-7.2 5.46l-0.5 19.85m8.44 -45.16l-1.74 2.98 -0.5 0.99m25.81 -62.03l-1.74 1.24 -6.2 6.2 -5.21 6.7 -4.22 6.95 -2.98 6.95 -1.99 7.44 -0.74 7.2 0 1.74m45.65 -59.8l-6.95 4.22m27.66 160.54l-5.46 -1.74 -9.18 -3.47m146.64 -122.82l-0.5 -59.3m65.75 141.18l-0.75 -19.85m-5.95 -21.83l-1.49 -2.73 -4.47 -6.7 -0.99 -1.49m-193.04 -88.58l-0.75 59.3m121.83 -180.51l-2.73 -1.99m3.23 2.48l-0.5 -0.5m17.12 19.6l-3.47 -6.95 -5.71 -6.45 -7.69 -5.71m18.11 114.38l0 -34.24m-61.78 -38.46l2.73 -0.5 4.96 -1.49 4.47 -1.99 1.74 -0.99m-0 0l1.74 -1.49 2.98 -2.98 1.49 -2.98 0.75 -3.47 -0.5 -3.23 -0.99 -1.74m42.43 59.55l0 -0.99m-0.25 -0.99l-0.74 -5.71 -0.25 -0.75m-136.96 17.37l0 25.18m1.74 -33.5l-0.99 2.48 -0.74 6.2m86.59 18.61l10.67 -2.73 8.68 -3.23 7.2 -3.47 5.46 -3.47 5.46 -4.22 3.47 -3.23 1.98 -2.24 2.48 -3.47 2.48 -3.97 2.48 -6.45 1.24 -7.69m0 -0.75l0 -1.24m-57.32 -57.07l-1.49 0.99 -3.72 1.24 -2.24 0.5m64.76 54.59l0 -0.99m-0.25 -1.24l-0.74 -5.46 -0.25 -0.99m-63.64 -45.9l-2.23 0.25 -4.22 0 -4.09 -0.87 -0.99 -0.25m-61.78 66l0.74 4.72 1.49 4.72 2.98 5.46 3.23 3.72 2.73 2.73 2.73 2.24 2.98 1.98 4.22 2.48 5.96 2.73 7.94 2.73 9.93 2.23 12.16 1.49 14.14 0 15.38 -1.99m8.69 -85.1l-8.69 -26.3m-86.59 74.44l0 1.12m1.74 -9.68l-0.99 2.73 -0.74 5.95m86.59 18.86l10.67 -2.73 8.68 -3.23 7.2 -3.47 5.46 -3.47 5.46 -4.22 3.47 -3.47 1.98 -2.23 2.48 -3.23 2.48 -4.22 2.48 -6.2 1.24 -7.94m-86.72 -49l-8.56 26.3m95.28 20.84l-0.99 -7.69 -0.25 -0.99m-137.09 19.73l0.75 4.71 1.49 4.72 2.98 5.21 3.23 3.72 2.73 2.98 2.73 1.98 2.98 1.99 4.22 2.73 5.95 2.73 7.94 2.73 9.92 2.23 12.16 1.49 14.14 0 15.38 -1.98m-86.59 -37.22l0 1.24m138.2 -9.18l0 -1.24m-51.61 28.04l8.56 -1.98 6.95 -2.23 10.67 -4.96 6.7 -3.97 4.22 -3.47 4.22 -4.22 4.22 -4.96 1.98 -3.23 1.99 -4.47 0.99 -2.98m-135.23 9.18l-0.99 2.73 -0.74 5.96m0 -16.63l0.74 4.72 1.49 4.72 2.98 5.46 3.23 3.72 2.73 2.73 2.73 2.24 2.98 1.98 4.22 2.48 5.96 2.73 7.94 2.73 9.93 2.23 12.16 1.49 14.14 0 15.38 -1.99m-86.59 -44.91l0 8.93m50.74 -48.26l-0.74 0.25"/>
    </g>
   </g>
  </g>
 </g>
</svg>
