<?xml version="1.0" encoding="UTF-8"?>
<!DOCTYPE svg PUBLIC "-//W3C//DTD SVG 1.1//EN" "http://www.w3.org/Graphics/SVG/1.1/DTD/svg11.dtd">
<!-- Creator: CorelDRAW 2021 (64-Bit Not for commercial use) -->
<svg xmlns="http://www.w3.org/2000/svg" xml:space="preserve" width="1.99931in" height="0.203717in" version="1.1" style="shape-rendering:geometricPrecision; text-rendering:geometricPrecision; image-rendering:optimizeQuality; fill-rule:evenodd; clip-rule:evenodd"
viewBox="0 0 498.5 50.79"
 xmlns:xlink="http://www.w3.org/1999/xlink"
 xmlns:xodm="http://www.corel.com/coreldraw/odm/2003">
 <defs>
  <style type="text/css">
   <![CDATA[
    .str3 {stroke:#373435;stroke-width:1.28;stroke-miterlimit:3.864}
    .str2 {stroke:#373435;stroke-width:1.34;stroke-miterlimit:3.864}
    .str4 {stroke:#373435;stroke-width:1.35;stroke-miterlimit:3.864}
    .str0 {stroke:#231F20;stroke-width:0.98;stroke-miterlimit:2.61313}
    .str1 {stroke:#373435;stroke-width:0.75;stroke-miterlimit:22.9256}
    .fil7 {fill:none}
    .fil11 {fill:none;fill-rule:nonzero}
    .fil8 {fill:#373435}
    .fil12 {fill:#373435}
    .fil6 {fill:#010101}
    .fil2 {fill:#231F20}
    .fil3 {fill:white}
    .fil9 {fill:#373435;fill-rule:nonzero}
    .fil10 {fill:#373435;fill-rule:nonzero}
    .fil1 {fill:black;fill-rule:nonzero}
    .fil4 {fill:#010101;fill-rule:nonzero}
    .fil0 {fill:#231F20;fill-rule:nonzero}
    .fil5 {fill:white;fill-rule:nonzero}
   ]]>
  </style>
 </defs>
 <g id="PL">
  <metadata id="CorelCorpID_0Corel-Layer"/>
  <g id="E40_Icons">
   <g>
    <g>
     <path class="fil0" d="M0.12 29.65l-0.12 -17.45 8.94 -0.04c1.35,-0.1 2.52,0.07 3.81,0.41 0.85,0.28 1.52,0.82 2.16,1.52 0.47,0.82 0.76,1.91 0.78,2.82 0.02,0.91 -0.26,1.77 -0.66,2.46 -0.42,0.84 -0.94,1.36 -1.59,1.72 -0.64,0.35 -1.28,0.56 -1.9,0.77 0.44,0.06 1,0.3 1.39,0.66 0.27,0.19 0.67,0.55 0.91,0.88 0.25,0.34 0.5,0.67 0.72,1.16l2.54 5.03 -6.1 0.01 -2.78 -5.37c-0.23,-0.48 -0.6,-0.99 -0.99,-1.35 -0.39,-0.36 -0.83,-0.43 -1.27,-0.49l-0.46 0.08 0 7.07 -5.37 0.11zm5.26 -10.5l2.23 0.02c0.61,-0.06 1.06,-0.14 1.52,-0.22 0.32,-0.11 0.63,-0.21 0.84,-0.63 0.19,-0.28 0.38,-0.55 0.3,-1.01 0.06,-0.45 -0.16,-0.93 -0.56,-1.28 -0.54,-0.38 -1.27,-0.49 -2.02,-0.45l-2.25 0.12 -0.06 3.45z"/>
     <path class="fil0" d="M17.27 23.3c-0.03,-1.81 0.69,-3.66 1.9,-4.83 1.38,-1.3 3.28,-2.07 5.19,-1.94 2.1,-0.14 4.23,0.62 5.78,2.2 1.01,1.2 1.53,2.78 1.43,4.42 0.18,1.83 -0.52,3.53 -1.87,4.68 -1.38,1.3 -3.28,2.07 -5.34,1.92 -1.65,0.06 -3.35,-0.49 -4.82,-1.61 -1.47,-1.12 -2.38,-3.05 -2.26,-4.84zm4.77 -0.05c-0.13,0.88 0.2,1.68 0.67,2.5 0.37,0.5 1.08,0.76 1.68,0.7 0.73,0.11 1.38,-0.24 1.76,-0.79 0.55,-0.67 0.69,-1.71 0.68,-2.61 0.11,-0.74 -0.2,-1.68 -0.69,-2.36 -0.37,-0.51 -0.93,-0.74 -1.66,-0.85 -0.61,0.06 -1.26,0.41 -1.78,0.94 -0.4,0.69 -0.67,1.55 -0.66,2.46z"/>
     <polygon class="fil0" points="34.26,11.97 39.62,12.01 39.63,18.02 45.43,17.97 45.43,11.96 50.8,11.85 50.9,29.45 45.4,29.39 45.39,22.33 39.58,22.37 39.58,29.44 34.23,29.41 "/>
     <path class="fil0" d="M53.4 23.5l5.1 -0.3c0.06,0.61 0.39,1.41 0.76,1.91 0.5,0.68 1.47,1.12 2.36,1.1 0.59,0.09 1.21,-0.12 1.71,-0.5 0.67,-0.5 0.82,-1.53 0.32,-2.2 -0.12,-0.17 -0.27,-0.19 -0.39,-0.36 -0.83,-0.42 -1.66,-0.85 -2.7,-0.85 -1.72,-0.41 -3.55,-1.12 -5.03,-2.24 -0.93,-0.74 -1.49,-2.02 -1.46,-3.22 -0.02,-0.9 0.28,-1.91 0.68,-2.61 0.57,-0.82 1.42,-1.59 2.36,-1.91 1.42,-0.54 2.8,-0.79 4.28,-0.73 1.81,-0.18 3.54,0.22 5.03,1.19 1.2,0.93 2.03,2.4 2.1,3.91l-5.13 0.45c-0.04,-0.76 -0.24,-1.39 -0.78,-1.77 -0.54,-0.38 -1.1,-0.61 -1.7,-0.55 -0.58,-0.09 -1.06,0.14 -1.4,0.39 -0.33,0.25 -0.54,0.67 -0.59,0.96 0.1,0.32 0.21,0.64 0.47,0.82 0.54,0.38 1.12,0.46 1.85,0.57 1.75,0.26 3.45,0.8 4.99,1.49 0.98,0.44 1.62,1.14 2.24,1.98 0.48,0.82 0.66,1.6 0.68,2.5 -0.03,1.2 -0.32,2.21 -0.91,3.17 -0.59,0.97 -1.44,1.74 -2.55,2.18 -1.25,0.42 -2.8,0.79 -4.13,0.75 -2.98,0.01 -4.97,-0.58 -6.13,-1.8 -1.18,-1.08 -1.84,-2.68 -2.04,-4.36z"/>
    </g>
    <g id="IP65">
     <path class="fil1" d="M102.59 10.65c-0.95,0.07 -2.11,0.39 -2.89,0.88l-0.41 0.17 0.02 -0.34 -0.04 -0.48 -2.43 0.03 -2.43 0.03 0.15 12.42 -0.04 12.34 2.42 -0.03 2.43 -0.03 0.11 -4.81 -0.1 -4.89 0.46 0.3c1.04,0.55 2.04,0.62 3.25,0.77 2.09,-0.06 4.03,-0.87 5.4,-2.26 1.5,-1.45 2.17,-3.37 2.31,-5.73 0.08,-4.47 -2.46,-7.84 -6.27,-8.38 -0.53,-0.11 -1.54,-0.18 -1.95,-0zm1.1 3.81c1.12,0.35 2.07,1.43 2.46,2.75 0.18,0.42 0.15,1.91 0.1,2.59 -0.34,2.28 -1.63,3.48 -3.59,3.47 -0.67,-0.05 -1.21,-0.15 -1.66,-0.45 -0.53,-0.11 -1.22,-0.97 -1.45,-1.53l-0.26 -0.22 0.07 -2.17 -0.06 -2.11 0.3 -0.46c0.78,-1.63 2.44,-2.33 4.09,-1.87z"/>
     <path class="fil1" d="M118.16 10.54c-3.26,0.38 -4.33,1.32 -4.75,3.79 -0.12,0.87 -0.04,15.46 0.09,16.55 0.44,2.61 1.24,3.75 3.23,4.23 1.12,0.35 1.8,0.4 3.61,0.46 1.95,0 2.56,-0.09 3.59,-0.35 2.06,-0.53 2.93,-1.55 3.3,-4.17 0.12,-0.87 0.12,-5.15 0.04,-6.92 -0.15,-1.91 -0.25,-2.52 -0.82,-3.11 -0.88,-0.94 -1.87,-1.35 -3.48,-1.33 -1.48,-0.04 -2.31,0.31 -3.3,1.05 -0.41,0.17 -0.7,0.29 -0.7,0.29 -0.14,0.06 -0.09,-4.89 0.01,-5.42 0.12,-0.87 0.34,-1.13 1.29,-1.2 0.8,-0.01 1.07,0.21 1.29,0.77 0,0 0.1,0.62 0.14,1.09l0.01 0.81 2.48 0.11 2.57 -0.09 -0.09 -1.77c0.01,-1.15 -0.09,-1.76 -0.21,-2.05 -0.31,-1.51 -1.47,-2.34 -3.54,-2.63 -0.87,-0.13 -3.96,-0.15 -4.78,-0.14zm3.07 13.17c0.06,0.14 0.25,0.22 0.31,0.36 0.12,0.28 0.18,0.42 0.12,3.4 0.03,2.78 0.14,3.06 -0.01,3.46 -0.16,0.4 -0.44,0.51 -1.06,0.6 -0.67,-0.05 -1,-0.07 -1.26,-0.29 -0.32,-0.36 -0.3,-0.7 -0.44,-3.76 0.03,-2.64 0.12,-2.84 0.14,-3.17 0.15,-0.4 0.29,-0.45 0.71,-0.63 0.28,-0.11 1.14,0.02 1.48,0.04z"/>
     <path class="fil1" d="M128.38 10.87c0,0 0.08,2.92 0.12,6.52l-0.01 6.58 2.43 -0.03 2.29 0.03 0.1 -0.53c0,-1.15 0.22,-1.41 1.37,-1.4 0.81,-0.01 1.2,0.15 1.32,0.43l0.12 0.28 0.02 3.93 0.08 4.08 -0.08 0.2c-0.3,0.45 -0.44,0.51 -1.25,0.52 -1.01,-0.07 -1.2,-0.15 -1.34,-1.25 -0.06,-0.14 -0.07,-0.96 -0.11,-1.44l0.01 -1.15 -2.57 0.09 -2.57 0.09 -0.02 1.49c0.09,1.77 0.16,2.72 0.51,3.56 0.27,1.04 0.84,1.62 1.68,2.09 1.19,0.49 2.19,0.56 4.62,0.54 2.01,0.14 2.76,-0.01 3.79,-0.27 1.72,-0.55 2.46,-1.52 2.8,-3.8 0.18,-0.74 0.08,-7.59 -0.03,-9.02 -0.08,-0.96 -0.29,-1.85 -0.52,-2.41 -0.45,-1.46 -1.63,-1.95 -3.92,-1.97 -0.81,0.01 -1.14,-0.02 -1.56,0.16 -0.55,0.23 -1.24,0.52 -1.74,0.89l-0.5 0.37 0.07 -2.17 -0.13 -2.25 3.77 0.07 3.57 -0.01 -0.07 -2.11 0.07 -2.16 -6.14 0.1c-3.43,-0.04 -6.19,-0.04 -6.19,-0.04z"/>
     <polygon class="fil1" points="88.86,23.3 89.01,35.71 91.44,35.69 93.87,35.66 93.77,23.38 93.62,10.96 91.19,10.99 88.76,11.02 "/>
    </g>
   </g>
   <g id="CB">
    <g id="Layer_2" data-name="Layer 2">
     <g id="Layer_1-2" data-name="Layer 1">
      <polygon class="fil2" points="238.17,13.02 236.51,13.02 235.82,13.04 235.13,13.08 234.46,13.15 233.8,13.25 233.15,13.37 232.51,13.52 231.89,13.69 231.28,13.88 230.68,14.1 230.1,14.34 229.53,14.6 228.98,14.89 228.46,15.19 227.95,15.51 227.46,15.86 227,16.21 226.55,16.6 226.12,16.99 225.72,17.4 225.34,17.83 224.99,18.27 224.67,18.71 224.37,19.18 224.1,19.67 223.86,20.16 223.64,20.66 223.46,21.18 223.31,21.7 223.19,22.24 223.11,22.78 223.05,23.32 223.03,23.88 223.03,23.88 223.03,24.49 223.05,25.08 223.12,25.67 223.22,26.24 223.35,26.8 223.52,27.35 223.72,27.87 223.95,28.39 224.21,28.89 224.5,29.38 224.82,29.84 225.17,30.3 225.54,30.72 225.94,31.14 226.37,31.53 226.81,31.9 227.28,32.26 227.78,32.6 228.29,32.91 228.83,33.2 229.38,33.46 229.95,33.71 230.55,33.93 231.15,34.12 231.77,34.29 232.42,34.43 233.07,34.56 233.73,34.65 234.41,34.71 235.1,34.74 235.79,34.76 236.51,34.74 238.17,34.74 238.17,31.92 236.58,31.92 236.03,31.92 235.49,31.9 234.96,31.86 234.43,31.8 233.92,31.72 233.42,31.62 232.93,31.5 232.45,31.37 231.98,31.22 231.53,31.04 231.09,30.85 230.67,30.65 230.26,30.43 229.87,30.2 229.49,29.94 229.13,29.67 228.8,29.4 228.48,29.11 228.17,28.8 227.9,28.48 227.64,28.16 227.41,27.82 227.19,27.46 227.01,27.1 226.84,26.73 226.71,26.35 226.6,25.96 226.51,25.55 226.45,25.15 226.43,24.74 226.43,24.31 226.46,23.88 226.46,23.88 226.47,23.47 226.51,23.06 226.58,22.66 226.66,22.26 226.78,21.87 226.92,21.5 227.07,21.12 227.26,20.76 227.46,20.41 227.68,20.06 227.93,19.72 228.2,19.39 228.48,19.08 228.78,18.78 229.09,18.48 229.43,18.2 229.79,17.94 230.15,17.69 230.53,17.44 230.93,17.22 231.34,17.01 231.77,16.82 232.2,16.64 232.65,16.47 233.1,16.33 233.57,16.21 234.06,16.1 234.54,16.01 235.04,15.94 235.55,15.89 236.06,15.85 236.58,15.84 238.17,15.84 238.17,13.02 "/>
      <path class="fil2" d="M240.53 12.79l9.97 0 0.4 0.04 0.41 0.07 0.4 0.1 0.4 0.12 0.39 0.15 0.38 0.17 0.36 0.2 0.35 0.22 0.34 0.24 0.33 0.25 0.3 0.28 0.29 0.29 0.27 0.32 0.25 0.33 0.22 0.34 0.2 0.36 0.17 0.37 0.14 0.38 0.12 0.39 0.08 0.4 0.04 0.41 0 0.43 0 0.43 -0.06 0.43 -0.1 0.44 -0.14 0.45 -0.19 0.45 -0.22 0.45 -0.27 0.45 -0.32 0.46 -0.36 0.45 -0.41 0.45 0.47 0.33 0.45 0.36 0.4 0.38 0.37 0.4 0.32 0.42 0.3 0.43 0.25 0.45 0.22 0.46 0.17 0.47 0.14 0.48 0.1 0.48 0.06 0.48 0 0.48 0 0.48 -0.06 0.48 -0.09 0.47 -0.13 0.46 -0.17 0.46 -0.21 0.44 -0.25 0.42 -0.29 0.41 -0.33 0.38 -0.37 0.36 -0.41 0.34 -0.45 0.31 -0.49 0.28 -0.53 0.25 -0.57 0.22 -0.61 0.18 -0.65 0.15 -0.72 0.1 -0.72 0.06 -9.94 0 0 -22.2zm3.46 3.51l6.47 0 0.12 0 0.12 0 0.12 0 0.12 0 0.11 0 0.11 0.04 0.11 0.05 0.1 0.05 0.1 0.06 0.09 0.06 0.09 0.07 0.09 0.07 0.09 0.07 0.08 0.08 0.04 0.27 0.08 0.09 0.07 0.09 0.06 0.09 0.06 0.1 0.05 0.1 0.06 0.1 0.04 0.11 0.04 0.11 0.04 0.11 0 0.12 0 0.11 0 0.12 0 0.12 0 1.17 0 0.12 0 0.11 0 0.12 0 0.12 -0.04 0.11 -0.04 0.11 -0.04 0.11 -0.06 0.1 -0.05 0.1 -0.06 0.09 -0.06 0.09 -0.07 0.09 -0.08 0.09 -0.08 0.09 -0.08 0.07 -0.09 0.08 -0.09 0.07 -0.09 0.06 -0.09 0.07 -0.1 0.06 -0.1 0.05 -0.11 0.05 -0.11 0.04 -0.11 0.04 -0.12 0 -0.12 0 -0.12 0 -0.12 0 -6.43 0 0 -5.4zm0 8.86l6.99 0 0.14 0 0.13 0 0.13 0 0.13 0 0.12 0.04 0.12 0.04 0.12 0.04 0.12 0.06 0.11 0.06 0.12 0.06 0.1 0.06 0.11 0.07 0.09 0.08 0.1 0.09 0.09 0.09 0.09 0.09 0.08 0.1 0.08 0.1 0.07 0.1 0.07 0.11 0.06 0.11 0.06 0.12 0.05 0.12 0.05 0.12 0 0.12 0 0.12 0.06 0.19 0 0.13 0 0.13 0 1.33 0 0.13 0 0.13 0 0.13 0 0.12 0 0.12 -0.05 0.12 -0.05 0.12 -0.06 0.11 -0.06 0.12 -0.07 0.1 -0.07 0.11 -0.08 0.1 -0.08 0.09 -0.09 0.09 -0.09 0.09 -0.1 0.08 -0.09 0.08 -0.11 0.07 -0.1 0.07 -0.12 0.06 -0.11 0.06 -0.12 0.05 -0.12 0.05 -0.12 0.04 -0.12 0.04 -0.13 0 -0.13 0 -0.13 0 -7.19 0 0 -5.96z"/>
     </g>
    </g>
   </g>
   <g>
    <g id="Layer_2_0" data-name="Layer 2">
     <g id="Layer_1-2_1" data-name="Layer 1">
      <polygon class="fil3" points="281.17,42.72 317.43,42.72 317.43,6.47 281.17,6.47 281.17,42.72 "/>
      <path class="fil2" d="M296.65 38.02c-7.35,-0.09 -13.27,-6.07 -13.27,-13.43 0,-7.35 5.92,-13.34 13.27,-13.43l1.82 0 0 3.63 -1.82 0c-5.41,0 -9.8,4.39 -9.8,9.8 0,5.41 4.39,9.8 9.8,9.8l1.82 0 0 3.63 -1.82 0z"/>
      <path class="fil2" d="M312.49 34.39l1.81 0 0 3.63 -1.81 0c-0.05,0 -0.11,0 -0.16,0 -7.42,0 -13.43,-6.01 -13.43,-13.43 0,-7.42 6.01,-13.43 13.43,-13.43 0.05,0 0.11,0 0.16,0l1.81 0 0 3.63 -1.81 0c-4.71,0.01 -8.75,3.36 -9.62,7.99l7.86 0 0 3.62 -7.86 0c0.88,4.63 4.92,7.98 9.62,7.98l0 0z"/>
     </g>
    </g>
   </g>
   <g id="REACH">
    <path class="fil4" d="M342.84 11.15l22.57 0c0.42,0 0.75,0.34 0.75,0.75l0 27.81c0,0.42 -0.34,0.75 -0.75,0.75l-22.57 0c-0.41,0 -0.75,-0.34 -0.75,-0.75l0 -27.81c0,-0.42 0.34,-0.75 0.75,-0.75z"/>
    <polygon class="fil5" points="354.09,15.93 354.52,16.76 355.47,16.89 354.78,17.54 354.94,18.45 354.09,18.02 353.24,18.45 353.4,17.54 352.72,16.89 353.67,16.76 "/>
    <polygon class="fil5" points="349.56,17.19 349.99,18.02 350.94,18.15 350.25,18.79 350.41,19.7 349.56,19.27 348.72,19.7 348.88,18.79 348.19,18.15 349.14,18.02 "/>
    <polygon class="fil5" points="346.25,20.46 346.67,21.28 347.62,21.42 346.93,22.06 347.1,22.97 346.25,22.54 345.4,22.97 345.56,22.06 344.87,21.42 345.82,21.28 "/>
    <polygon class="fil5" points="358.66,17.19 359.08,18.02 360.03,18.15 359.35,18.79 359.51,19.7 358.66,19.27 357.81,19.7 357.97,18.79 357.28,18.15 358.23,18.02 "/>
    <polygon class="fil5" points="361.98,20.46 362.4,21.28 363.35,21.42 362.66,22.06 362.83,22.97 361.98,22.54 361.13,22.97 361.29,22.06 360.6,21.42 361.55,21.28 "/>
    <polygon class="fil5" points="363.19,24.63 363.61,25.45 364.56,25.59 363.87,26.23 364.04,27.14 363.19,26.71 362.34,27.14 362.5,26.23 361.81,25.59 362.76,25.45 "/>
    <polygon class="fil5" points="361.98,29.1 362.4,29.92 363.35,30.06 362.66,30.7 362.83,31.61 361.98,31.18 361.13,31.61 361.29,30.7 360.6,30.06 361.55,29.92 "/>
    <polygon class="fil5" points="358.66,32.29 359.08,33.12 360.03,33.25 359.35,33.89 359.51,34.8 358.66,34.38 357.81,34.8 357.97,33.89 357.28,33.25 358.23,33.12 "/>
    <polygon class="fil5" points="354.08,33.55 354.51,34.38 355.46,34.51 354.77,35.15 354.93,36.06 354.08,35.63 353.23,36.06 353.39,35.15 352.71,34.51 353.66,34.38 "/>
    <polygon class="fil5" points="349.56,32.29 349.99,33.12 350.94,33.25 350.25,33.89 350.41,34.8 349.56,34.38 348.72,34.8 348.88,33.89 348.19,33.25 349.14,33.12 "/>
    <polygon class="fil5" points="346.25,29.1 346.67,29.92 347.62,30.06 346.93,30.7 347.1,31.61 346.25,31.18 345.4,31.61 345.56,30.7 344.87,30.06 345.82,29.92 "/>
    <polygon class="fil5" points="345.04,24.63 345.46,25.45 346.41,25.59 345.72,26.23 345.89,27.14 345.04,26.71 344.19,27.14 344.35,26.23 343.66,25.59 344.61,25.45 "/>
    <g>
     <path id="path0" class="fil6" d="M357.94 4.12c-2.71,0.6 -2.84,5.07 -0.18,5.77 0.24,0.05 0.49,0.07 0.74,0.07 0.51,0 1.02,-0.11 1.49,-0.32l0.23 -0.11 0 -0.57c0,-0.05 0,-0.1 0,-0.14 0,-0.14 -0.01,-0.28 -0.03,-0.43 -0.01,0 -0.2,0.09 -0.42,0.21 -1.35,0.72 -2.69,-0.08 -2.68,-1.61 0,-1.42 1.35,-2.21 2.68,-1.58l0.38 0.18 0 -1.13 -0.34 -0.15c-0.39,-0.17 -0.81,-0.27 -1.24,-0.27 -0.21,0 -0.42,0.02 -0.63,0.07l0 0zm-15.13 2.88l0 2.9 1.2 0 0 -1.19c0.03,-0.83 0,-1.05 0.4,-1.05 0.38,0.01 0.64,0.28 1.1,1.34l0.39 0.9 1.3 0 -0.5 -1.1c-0.2,-0.48 -0.45,-0.95 -0.74,-1.38l-0.24 -0.28 0.24 -0.2c0.81,-0.68 0.62,-2.13 -0.34,-2.61 -0.29,-0.15 -0.42,-0.16 -1.56,-0.19l-1.25 -0.03 0 2.9 -0 0zm4.5 0l0 2.9 3.24 0 0 -1.02 -2.04 0 0 -1.43 1.87 0 0 -0.95 -0.91 -0.02 -0.92 -0.02 -0.02 -0.66 -0.02 -0.66 1.99 0 0 -1.02 -3.18 0 0 2.89 0 -0.01zm5.28 -2.73c-0.03,0.08 -0.48,1.33 -1,2.77 -0.52,1.44 -0.96,2.67 -0.97,2.73 -0.03,0.11 0.03,0.12 0.62,0.12l0.65 0 0.2 -0.65 0.2 -0.65 0.99 0.02 0.99 0.02 0.19 0.61 0.19 0.61 0.67 0.02 0.67 0.02 -0.05 -0.15c-0.15,-0.45 -1.99,-5.38 -2.04,-5.5 -0.1,-0.22 -1.24,-0.2 -1.32,0.02l-0 0zm8.22 2.73l0 2.89 1.2 0 0.02 -1.2 0.02 -1.2 1.12 -0.02 1.13 -0.02 0 2.44 1.2 0 0 -5.78 -1.2 0 0 2.38 -2.29 0 0 -2.38 -1.2 0 0 2.89 0.01 0zm-15.93 -1.84c0.75,0.36 0.39,1.4 -0.5,1.42l-0.34 0.01 -0.01 -0.76 -0.02 -0.76 0.33 0c0.19,0 0.37,0.03 0.55,0.1l-0 -0.01zm8.93 2.09l0.15 0.45 -1.35 0 0.21 -0.66c0.12,-0.36 0.27,-0.85 0.34,-1.08l0.12 -0.41 0.19 0.63c0.11,0.34 0.26,0.83 0.34,1.08z"/>
    </g>
    <g>
     <path id="path0-2" class="fil6" d="M343.48 41.18c-1.22,0.13 -1.56,2.03 -0.46,2.57 0.21,0.11 0.9,0.13 1.14,0.04l0.12 -0.05 0.01 -0.28 0.01 -0.28 -0.17 0.08c-0.65,0.28 -1.18,-0.1 -1.15,-0.81 0.04,-0.64 0.54,-0.95 1.14,-0.71 0.09,0.04 0.17,0.07 0.17,0.07 0,-0.05 0,-0.1 0,-0.14 0,-0.05 -0,-0.1 -0,-0.14l0 -0.29 -0.15 -0.03c-0.14,-0.03 -0.28,-0.05 -0.43,-0.05 -0.08,0 -0.16,0 -0.23,0.01l0 0zm2.12 0c-0.63,0.08 -1.04,0.62 -1.04,1.37 0,1.64 2.17,1.82 2.42,0.2 0.15,-0.96 -0.48,-1.68 -1.38,-1.57l0 0zm16.67 0c-1.22,0.13 -1.56,2.03 -0.45,2.57 0.21,0.11 0.9,0.13 1.14,0.04l0.12 -0.05 0.01 -0.28 0.01 -0.28 -0.17 0.08c-0.65,0.28 -1.18,-0.1 -1.15,-0.81 0.04,-0.64 0.54,-0.95 1.14,-0.71 0.09,0.04 0.17,0.07 0.17,0.07 0.01,-0.07 0.01,-0.14 0.01,-0.21 0,-0.02 0,-0.05 -0,-0.07l0 -0.29 -0.16 -0.03c-0.14,-0.03 -0.28,-0.05 -0.43,-0.05 -0.08,0 -0.16,0 -0.23,0.01l-0.01 0zm-14.83 1.34l0 1.31 0.51 0 0 -0.95c0,-0.52 0.01,-0.93 0.02,-0.9 0.01,0.03 0.15,0.44 0.3,0.91 0.15,0.47 0.29,0.88 0.3,0.9 0.01,0.02 0.08,0.04 0.26,0.03l0.24 -0.01 0.07 -0.21 0.31 -0.96 0.24 -0.75 0 1.93 0.57 0 0 -2.62 -0.83 0 -0.28 0.91c-0.3,0.95 -0.31,0.98 -0.34,0.81 -0.01,-0.06 -0.13,-0.47 -0.28,-0.91l-0.26 -0.81 -0.83 0 0 1.31 0.01 0zm3.39 0l0 1.31 0.57 0 0 -0.89 0.16 0c0.7,0 1.1,-0.36 1.07,-0.97 -0.01,-0.33 -0.12,-0.51 -0.37,-0.64l-0.18 -0.1 -0.63 -0.01 -0.63 -0.01 0 1.3 0 0.01zm2.19 -0.01l0 1.31 1.47 0 0 -0.48 -0.9 0 0 -2.13 -0.57 0 0 1.31 -0 -0.01zm1.83 0.01l0 1.31 0.57 0 0 -2.62 -0.57 0 0 1.31 0 0zm1.33 -0.04c-0.24,0.7 -0.44,1.29 -0.45,1.31 -0.01,0.02 0.06,0.04 0.3,0.04l0.31 0 0.09 -0.29 0.09 -0.29 0.86 0 0.08 0.29 0.08 0.29 0.31 0c0.03,0 0.05,0 0.08,0 0.08,0 0.16,-0.01 0.23,-0.03 0,-0.01 -0.19,-0.6 -0.43,-1.31l-0.43 -1.29 -0.69 0 -0.44 1.27 0 0zm2.31 0.04l0 1.31 0.54 0 0.01 -0.89 0 -0.88 0.54 0.88 0.54 0.88 0.59 0 0 -2.62 -0.53 0 -0.01 0.86 0 0.86 -0.53 -0.86 -0.53 -0.86 -0.62 0 0 1.31 -0.01 -0zm5.06 0l0 1.31 1.5 0 0 -0.48 -0.93 0 0 -0.6 0.81 0 0 -0.48 -0.81 0 0 -0.58 0.87 0 0 -0.48 -1.45 0 0 1.31 0.01 -0.01zm-17.5 -0.78c0.26,0.14 0.41,0.69 0.3,1.12 -0.17,0.68 -0.99,0.66 -1.15,-0.03 -0.17,-0.74 0.32,-1.38 0.84,-1.09l0 0zm5.75 -0.04c0.41,0.18 0.27,0.73 -0.2,0.78l-0.2 0.02 0 -0.84 0.15 0c0.08,0 0.17,0.02 0.25,0.04l0 0zm5.43 1.06c0,0.03 -0.08,0.04 -0.29,0.04 -0.18,0 -0.29,-0.01 -0.29,-0.03 0,-0.02 0.06,-0.25 0.14,-0.51l0.14 -0.48 0.15 0.47c0.08,0.26 0.15,0.49 0.15,0.51l-0.01 0zm0 0l0 0 0 0z" data-name="path0"/>
    </g>
    <polygon class="fil7 str0" points="340.92,45.19 367.39,45.19 367.39,2.61 340.92,2.61 "/>
   </g>
   <g>
    <g id="_1691650281472">
     <path class="fil1" d="M473.72 5.33c-3.63,0.24 -7.17,1.17 -10.27,2.72 -1.69,0.84 -3.03,1.71 -4.45,2.88 -0.71,0.59 -2.09,1.99 -2.66,2.7 -1.89,2.37 -2.99,4.83 -3.42,7.64 -0.13,0.86 -0.17,2.57 -0.07,3.46 0.2,1.87 0.69,3.54 1.52,5.2 1.65,3.3 4.53,6.17 8.21,8.19 3.19,1.75 6.66,2.77 10.73,3.15 0.73,0.07 3.94,0.07 4.67,0 2.64,-0.24 4.83,-0.71 7.07,-1.51 4.14,-1.47 7.69,-3.93 10.09,-7 1.8,-2.3 2.89,-4.86 3.27,-7.64 0.1,-0.72 0.12,-2.47 0.04,-3.23 -0.32,-3.02 -1.46,-5.72 -3.49,-8.27 -0.57,-0.71 -1.95,-2.11 -2.66,-2.7 -1.4,-1.16 -2.76,-2.04 -4.45,-2.88 -3.14,-1.57 -6.64,-2.49 -10.37,-2.73 -0.71,-0.05 -3.05,-0.04 -3.76,0l0 0zm3.76 1.35c5.37,0.34 10.42,2.28 14.11,5.42 0.58,0.5 1.62,1.55 2.08,2.1 1.99,2.38 3.14,5.02 3.44,7.88 0.06,0.57 0.06,1.9 0,2.47 -0.29,2.82 -1.41,5.42 -3.37,7.79 -0.47,0.57 -1.5,1.62 -2.08,2.12 -2.16,1.85 -4.66,3.24 -7.55,4.2 -5.38,1.8 -11.57,1.8 -16.95,0 -3.4,-1.13 -6.28,-2.87 -8.57,-5.17 -1.31,-1.31 -2.22,-2.56 -2.99,-4.1 -1.02,-2.01 -1.48,-3.92 -1.48,-6.1 0,-2.41 0.62,-4.65 1.88,-6.84 1.06,-1.84 2.74,-3.69 4.63,-5.12 3.61,-2.71 8.22,-4.35 13.18,-4.67 1.16,-0.07 2.42,-0.07 3.65,0l0 0z"/>
     <path class="fil1" d="M471.19 13.31c-0.48,0.04 -1.07,0.14 -1.53,0.26 -3.5,0.88 -6.21,3.78 -7,7.49 -0.17,0.8 -0.19,1.07 -0.19,2.2 0,0.94 0.02,1.15 0.09,1.58 0.27,1.55 0.77,2.84 1.57,4.05 0.4,0.6 0.74,1.01 1.27,1.55 1.64,1.63 3.77,2.58 6.09,2.7l0.49 0.03 0 -1.54 0 -1.54 -0.41 -0.02c-2.24,-0.13 -4.23,-1.48 -5.28,-3.58 -0.53,-1.05 -0.76,-2.04 -0.76,-3.26 0,-1.22 0.23,-2.2 0.77,-3.28 0.83,-1.67 2.33,-2.91 4.06,-3.38 0.33,-0.09 1.02,-0.19 1.29,-0.19l0.18 0 -0.02 -1.19c-0.01,-0.65 -0.03,-1.35 -0.04,-1.54l-0.02 -0.36 -0.2 0.01c-0.11,0 -0.27,0.01 -0.35,0.02l0 0z"/>
     <path class="fil1" d="M478.53 13.31c-0.48,0.04 -1.07,0.14 -1.53,0.26 -3.5,0.88 -6.21,3.78 -7,7.49 -0.17,0.8 -0.19,1.07 -0.19,2.2 0,0.94 0.02,1.15 0.09,1.58 0.27,1.55 0.77,2.84 1.58,4.05 0.4,0.6 0.74,1.01 1.27,1.55 1.64,1.63 3.77,2.58 6.09,2.7l0.49 0.03 0 -1.54 0 -1.54 -0.41 -0.02c-2.24,-0.13 -4.23,-1.48 -5.28,-3.58 -0.53,-1.05 -0.76,-2.04 -0.76,-3.26 0,-1.22 0.23,-2.2 0.77,-3.28 0.83,-1.67 2.33,-2.91 4.06,-3.38 0.33,-0.09 1.02,-0.19 1.29,-0.19l0.19 0 -0.02 -1.19c-0.01,-0.65 -0.03,-1.35 -0.04,-1.54l-0.02 -0.36 -0.2 0.01c-0.11,0 -0.27,0.01 -0.36,0.02l0 0z"/>
     <path class="fil1" d="M485.86 13.31c-0.47,0.04 -1.07,0.14 -1.53,0.26 -3.5,0.88 -6.21,3.78 -7,7.49 -0.17,0.8 -0.19,1.07 -0.19,2.2 0,0.94 0.02,1.15 0.09,1.58 0.27,1.55 0.77,2.84 1.57,4.05 0.4,0.6 0.74,1.01 1.27,1.55 1.64,1.63 3.77,2.58 6.09,2.7l0.49 0.03 0 -1.54 0 -1.54 -0.41 -0.02c-2.24,-0.13 -4.23,-1.48 -5.28,-3.58 -0.53,-1.05 -0.76,-2.04 -0.76,-3.26 0,-1.22 0.23,-2.2 0.77,-3.28 0.83,-1.67 2.33,-2.91 4.06,-3.38 0.33,-0.09 1.02,-0.19 1.29,-0.19l0.18 0 -0.02 -1.19c-0.01,-0.65 -0.03,-1.35 -0.04,-1.54l-0.02 -0.36 -0.2 0.01c-0.11,0 -0.27,0.01 -0.36,0.02l0 0z"/>
    </g>
   </g>
   <g id="BSMI">
    <g id="_1691650282528">
     <path class="fil8" d="M414.84 27.37c6.26,0 11.49,-4.31 12.78,-10.07l-3.22 0c-1.21,4.05 -5.03,7.01 -9.56,7.01 -4.52,0 -8.34,-2.96 -9.56,-7.01l-3.22 0c1.29,5.76 6.52,10.07 12.78,10.07zm12.62 -16.19c-1.51,-5.45 -6.59,-9.46 -12.62,-9.46 -6.04,0 -11.12,4.01 -12.62,9.46l3.27 0c1.4,-3.74 5.06,-6.4 9.36,-6.4 4.29,0 7.96,2.67 9.35,6.4l3.27 0z"/>
     <polygon class="fil8" points="422.15,11.99 418.45,8.71 427.91,14.29 418.17,20.03 422.04,16.55 402.38,16.51 418.36,14.31 402.24,12.06 "/>
     <path class="fil8" d="M402.05 12.95c-0.05,0.44 -0.07,0.89 -0.07,1.34 0,0.45 0.02,0.9 0.07,1.34l3.14 0c-0.06,-0.44 -0.09,-0.89 -0.09,-1.34 0,-0.45 0.03,-0.9 0.09,-1.34l-3.14 0z"/>
    </g>
    <path class="fil9 str1" d="M400.98 36.31c0.77,-0.09 1.31,-0.29 1.61,-0.59 0.24,-0.26 0.36,-0.6 0.37,-1.04 0,-0.57 -0.18,-1 -0.54,-1.28 -0.39,-0.31 -0.97,-0.47 -1.73,-0.48l-3.1 0c-0.11,0 -0.17,0.05 -0.17,0.15 0,0.09 0.05,0.14 0.17,0.15 0.44,0 0.69,0.05 0.76,0.16 0.05,0.07 0.08,0.2 0.08,0.38l0 4.99c0,0.24 -0.03,0.4 -0.1,0.48 -0.06,0.07 -0.28,0.11 -0.66,0.11 -0.09,0 -0.14,0.06 -0.14,0.17 0,0.09 0.05,0.14 0.14,0.15l2.3 0c0.1,0 0.15,-0.05 0.16,-0.16 0,-0.11 -0.05,-0.16 -0.15,-0.16 -0.38,0 -0.62,-0.03 -0.7,-0.08 -0.08,-0.05 -0.12,-0.22 -0.13,-0.5l0 -2.44 1.05 0 2.16 3.35 1.47 0c0.11,0 0.17,-0.05 0.17,-0.16 0,-0.11 -0.06,-0.16 -0.17,-0.16 -0.48,0 -0.79,-0.06 -0.94,-0.18 -0.13,-0.11 -0.76,-1.06 -1.9,-2.85zm-1.84 -0.25l0 -2.29c0,-0.18 0.05,-0.32 0.15,-0.4 0.09,-0.1 0.52,-0.15 1.27,-0.15 0.4,0 0.74,0.1 1.01,0.3 0.38,0.29 0.58,0.69 0.59,1.17 0,0.35 -0.11,0.65 -0.32,0.92 -0.26,0.29 -0.64,0.44 -1.16,0.45l-1.53 0zm7.09 0.26c0.46,0 0.85,0.07 1.16,0.22 0.22,0.11 0.4,0.29 0.54,0.53 0.25,0.46 0.26,0.94 0.03,1.44 -0.16,0.29 -0.37,0.49 -0.6,0.59 -0.44,0.19 -0.93,0.14 -1.46,-0.16 -0.22,-0.11 -0.41,-0.11 -0.56,0 -0.07,0.05 -0.11,0.12 -0.12,0.2 0,0.05 0.03,0.13 0.08,0.23 0.15,0.18 0.57,0.27 1.27,0.27 0.35,0 0.69,-0.07 1.03,-0.21 0.42,-0.2 0.72,-0.49 0.9,-0.85 0.2,-0.37 0.3,-0.76 0.3,-1.16 0,-0.43 -0.12,-0.78 -0.36,-1.06 -0.13,-0.17 -0.4,-0.37 -0.82,-0.61 0.31,-0.29 0.53,-0.53 0.64,-0.71 0.13,-0.24 0.21,-0.5 0.21,-0.78 0,-0.33 -0.14,-0.62 -0.41,-0.88 -0.26,-0.22 -0.6,-0.33 -1.04,-0.33 -0.63,0 -1.14,0.3 -1.55,0.9 -0.11,0.16 -0.16,0.27 -0.16,0.32 0,0.05 0.03,0.09 0.09,0.09 0.02,0 0.16,-0.14 0.42,-0.43 0.18,-0.19 0.46,-0.29 0.82,-0.29 0.73,0 1.1,0.36 1.11,1.07 0,0.38 -0.15,0.72 -0.45,1.01 -0.22,0.2 -0.58,0.34 -1.06,0.43l0 0.16zm4.96 -2.4c0.26,-0.05 0.44,-0.08 0.54,-0.09 0.13,0 0.21,0.04 0.25,0.12 0.04,0.07 0.05,1.49 0.05,4.24 0,0.57 -0.02,0.91 -0.05,1.02 -0.02,0.06 -0.07,0.13 -0.15,0.19 -0.09,0.04 -0.29,0.08 -0.59,0.12l0 0.18 2.38 0 0 -0.19c-0.27,-0.01 -0.44,-0.02 -0.49,-0.04 -0.15,-0.02 -0.23,-0.09 -0.27,-0.2 -0.04,-0.07 -0.05,-2.15 -0.05,-6.23l-1.66 0.76c0.01,0.04 0.01,0.08 0.03,0.13zm4.74 5.77l3.68 0c0.04,-0.13 0.08,-0.25 0.12,-0.37 0.03,-0.11 0.13,-0.4 0.32,-0.86l-0.17 0c-0.13,0.24 -0.31,0.39 -0.53,0.46 -0.29,0.05 -1.16,0.08 -2.59,0.09 1.36,-1.28 2.23,-2.3 2.63,-3.06 0.17,-0.44 0.26,-0.8 0.27,-1.1 0,-0.35 -0.07,-0.65 -0.2,-0.92 -0.16,-0.31 -0.39,-0.55 -0.69,-0.7 -0.26,-0.13 -0.57,-0.19 -0.92,-0.19 -0.7,0 -1.2,0.31 -1.51,0.94 -0.07,0.17 -0.14,0.42 -0.21,0.75l0.15 0c0.17,-0.36 0.35,-0.61 0.54,-0.76 0.22,-0.17 0.45,-0.26 0.7,-0.27 0.46,0 0.83,0.17 1.11,0.51 0.2,0.24 0.3,0.6 0.3,1.08 0,0.55 -0.24,1.16 -0.72,1.82 -0.66,0.79 -1.41,1.58 -2.25,2.35l0 0.21zm6.19 -5.77c0.26,-0.05 0.44,-0.08 0.54,-0.09 0.13,0 0.21,0.04 0.25,0.12 0.04,0.07 0.05,1.49 0.05,4.24 0,0.57 -0.02,0.91 -0.05,1.02 -0.02,0.06 -0.07,0.13 -0.15,0.19 -0.09,0.04 -0.29,0.08 -0.59,0.12l0 0.18 2.38 0 0 -0.19c-0.28,-0.01 -0.44,-0.02 -0.49,-0.04 -0.15,-0.02 -0.23,-0.09 -0.26,-0.2 -0.04,-0.07 -0.05,-2.15 -0.05,-6.23l-1.66 0.76c0.01,0.04 0.01,0.08 0.03,0.13zm5.98 2.4c0.46,0 0.85,0.07 1.16,0.22 0.22,0.11 0.4,0.29 0.54,0.53 0.25,0.46 0.26,0.94 0.03,1.44 -0.16,0.29 -0.37,0.49 -0.61,0.59 -0.44,0.19 -0.93,0.14 -1.46,-0.16 -0.22,-0.11 -0.41,-0.11 -0.56,0 -0.07,0.05 -0.11,0.12 -0.12,0.2 0,0.05 0.03,0.13 0.08,0.23 0.15,0.18 0.57,0.27 1.27,0.27 0.35,0 0.69,-0.07 1.03,-0.21 0.42,-0.2 0.72,-0.49 0.9,-0.85 0.2,-0.37 0.3,-0.76 0.3,-1.16 0,-0.43 -0.12,-0.78 -0.36,-1.06 -0.13,-0.17 -0.4,-0.37 -0.83,-0.61 0.31,-0.29 0.53,-0.53 0.64,-0.71 0.13,-0.24 0.21,-0.5 0.21,-0.78 0,-0.33 -0.14,-0.62 -0.41,-0.88 -0.26,-0.22 -0.6,-0.33 -1.04,-0.33 -0.63,0 -1.14,0.3 -1.55,0.9 -0.11,0.16 -0.16,0.27 -0.16,0.32 0,0.05 0.03,0.09 0.09,0.09 0.02,0 0.16,-0.14 0.42,-0.43 0.18,-0.19 0.46,-0.29 0.82,-0.29 0.73,0 1.1,0.36 1.11,1.07 0,0.38 -0.15,0.72 -0.45,1.01 -0.23,0.2 -0.58,0.34 -1.06,0.43l0 0.16zm-22.59 9.37c0.77,-0.09 1.31,-0.29 1.61,-0.59 0.24,-0.26 0.36,-0.6 0.37,-1.04 0,-0.57 -0.18,-1 -0.54,-1.28 -0.39,-0.31 -0.97,-0.47 -1.73,-0.48l-3.1 0c-0.11,0 -0.17,0.05 -0.17,0.15 0,0.09 0.05,0.14 0.17,0.15 0.44,0 0.69,0.05 0.76,0.16 0.05,0.07 0.08,0.2 0.08,0.38l0 4.99c0,0.24 -0.03,0.4 -0.1,0.48 -0.06,0.07 -0.28,0.11 -0.66,0.11 -0.09,0 -0.14,0.06 -0.14,0.17 0,0.09 0.05,0.14 0.14,0.15l2.3 0c0.1,0 0.15,-0.05 0.16,-0.16 0,-0.11 -0.05,-0.16 -0.15,-0.16 -0.38,0 -0.62,-0.03 -0.7,-0.08 -0.08,-0.05 -0.12,-0.22 -0.13,-0.5l0 -2.45 1.05 0 2.16 3.35 1.47 0c0.11,0 0.17,-0.05 0.17,-0.16 0,-0.11 -0.06,-0.16 -0.17,-0.16 -0.48,0 -0.79,-0.06 -0.93,-0.18 -0.13,-0.11 -0.76,-1.06 -1.9,-2.85zm-1.84 -0.25l0 -2.29c0,-0.18 0.05,-0.32 0.15,-0.4 0.09,-0.1 0.52,-0.15 1.27,-0.15 0.4,0 0.74,0.1 1.01,0.3 0.38,0.29 0.58,0.69 0.59,1.17 0,0.35 -0.11,0.65 -0.32,0.92 -0.26,0.29 -0.64,0.44 -1.16,0.45l-1.53 0zm7.72 -1.21c-0.63,0 -1.14,0.23 -1.53,0.68 -0.35,0.41 -0.53,0.96 -0.54,1.64 0,0.75 0.19,1.37 0.57,1.84 0.37,0.46 0.88,0.69 1.51,0.69 0.7,0 1.25,-0.29 1.64,-0.86 0.27,-0.41 0.42,-0.92 0.42,-1.54 0,-0.51 -0.08,-0.94 -0.24,-1.28 -0.17,-0.37 -0.43,-0.66 -0.76,-0.87 -0.31,-0.19 -0.67,-0.29 -1.07,-0.29zm-0.04 0.27c0.19,0 0.37,0.04 0.53,0.12 0.17,0.06 0.32,0.19 0.48,0.37 0.29,0.38 0.44,0.94 0.44,1.68 0,0.51 -0.08,0.96 -0.24,1.33 -0.24,0.52 -0.62,0.78 -1.16,0.79 -0.29,0 -0.54,-0.08 -0.75,-0.25 -0.24,-0.18 -0.41,-0.44 -0.5,-0.78 -0.1,-0.36 -0.15,-0.73 -0.16,-1.14 0,-0.9 0.2,-1.52 0.61,-1.87 0.18,-0.16 0.43,-0.25 0.74,-0.26zm4.6 0.96l0 -2.31c0,-0.15 0.03,-0.25 0.1,-0.32 0.1,-0.1 0.33,-0.15 0.7,-0.15 0.08,0 0.12,-0.05 0.13,-0.15 0,-0.09 -0.04,-0.14 -0.13,-0.15l-2.34 0c-0.11,0 -0.16,0.05 -0.16,0.15 0,0.09 0.05,0.14 0.16,0.15 0.37,0 0.6,0.05 0.71,0.16 0.08,0.07 0.12,0.22 0.13,0.44l0 4.85c0,0.2 -0.03,0.34 -0.08,0.4 -0.09,0.11 -0.3,0.17 -0.62,0.17 -0.11,0 -0.17,0.05 -0.17,0.16 0,0.08 0.05,0.12 0.16,0.13l2.26 0c0.1,0 0.15,-0.05 0.15,-0.14 0,-0.09 -0.05,-0.14 -0.15,-0.15 -0.34,0 -0.56,-0.03 -0.67,-0.1 -0.12,-0.07 -0.18,-0.24 -0.18,-0.51l0 -2.43 3.37 0 0 2.41c0,0.24 -0.03,0.4 -0.09,0.48 -0.07,0.09 -0.28,0.14 -0.62,0.15 -0.11,0 -0.16,0.05 -0.16,0.15 0,0.09 0.05,0.14 0.16,0.14l2.21 0c0.12,0 0.18,-0.05 0.18,-0.14 0,-0.09 -0.06,-0.14 -0.18,-0.15 -0.29,0 -0.49,-0.03 -0.6,-0.09 -0.13,-0.07 -0.2,-0.25 -0.2,-0.53l0 -4.91c0,-0.15 0.02,-0.26 0.06,-0.33 0.08,-0.1 0.31,-0.15 0.7,-0.15 0.11,0 0.17,-0.05 0.17,-0.16 0,-0.1 -0.06,-0.15 -0.17,-0.16l-2.23 0c-0.11,0 -0.17,0.05 -0.17,0.15 0,0.09 0.06,0.14 0.17,0.15 0.33,0 0.55,0.04 0.65,0.13 0.07,0.07 0.11,0.18 0.12,0.33l0 2.32 -3.35 0zm10.24 -3.11c-0.02,-0.09 -0.07,-0.14 -0.15,-0.14 -0.23,0.15 -0.36,0.22 -0.39,0.23 -0.06,-0 -0.13,-0.03 -0.21,-0.07 -0.77,-0.41 -1.49,-0.41 -2.15,0.01 -0.04,0.02 -0.09,0.05 -0.14,0.09 -0.46,0.35 -0.69,0.82 -0.69,1.4 0,0.46 0.17,0.86 0.51,1.2 0.27,0.24 0.77,0.49 1.48,0.72 0.99,0.3 1.56,0.68 1.7,1.14 0.03,0.1 0.04,0.22 0.05,0.37 0,0.38 -0.14,0.7 -0.41,0.96 -0.26,0.24 -0.61,0.37 -1.05,0.37 -0.53,0 -0.99,-0.17 -1.38,-0.51 -0.27,-0.24 -0.6,-0.67 -0.98,-1.3 -0.04,-0.05 -0.08,-0.08 -0.12,-0.08 -0.1,0 -0.14,0.05 -0.14,0.16 0,0.02 0.01,0.05 0.03,0.08l0.66 1.83c0.04,0.09 0.09,0.14 0.16,0.14 0.06,0 0.1,-0.03 0.12,-0.1 0.02,-0.04 0.04,-0.09 0.05,-0.14 0.04,-0.05 0.09,-0.08 0.17,-0.08 0.04,0 0.08,0 0.13,0.02 0.86,0.26 1.53,0.34 2.02,0.24 0.2,-0.06 0.4,-0.14 0.59,-0.25 0.6,-0.37 0.91,-0.89 0.91,-1.57 0,-0.48 -0.16,-0.88 -0.49,-1.21 -0.26,-0.26 -0.78,-0.52 -1.57,-0.77 -0.51,-0.17 -0.87,-0.31 -1.08,-0.44 -0.38,-0.24 -0.58,-0.58 -0.58,-1.02 0,-0.35 0.12,-0.65 0.35,-0.9 0.22,-0.23 0.51,-0.34 0.86,-0.35 0.43,0 0.83,0.18 1.21,0.53 0.3,0.28 0.57,0.66 0.82,1.14 0.04,0.06 0.08,0.09 0.15,0.1 0.08,0 0.12,-0.05 0.13,-0.14l-0.55 -1.66z"/>
   </g>
   <g id="Trash">
    <polygon class="fil10" points="167.75,50.79 196.8,50.79 196.8,43.54 167.75,43.54 "/>
    <polygon class="fil10" points="176.81,31.31 186.42,31.31 186.42,30.38 176.81,30.38 "/>
    <polygon class="fil10" points="164.77,0 197.95,35.66 197.31,36.29 164.77,1.25 "/>
    <polygon class="fil10" points="199.8,0 165.31,35.7 165.99,36.29 199.8,1.24 "/>
    <polygon class="fil10" points="176.73,32.78 178.57,32.78 178.57,30.96 176.73,30.96 "/>
    <polygon class="fil10" points="180.43,14.56 186.59,14.56 186.59,12.59 180.43,12.59 "/>
    <polygon class="fil10" points="176.11,7.25 177.85,7.25 177.85,3.68 176.11,3.68 "/>
    <polygon class="fil11 str2" points="189.41,9.53 191.84,9.53 191.84,12.15 189.41,12.15 "/>
    <path class="fil10" d="M189.59 6.25c0,-0.75 0.61,-1.36 1.36,-1.36 0.75,0 1.36,0.61 1.36,1.36 0,0.75 -0.61,1.36 -1.36,1.36 -0.75,0 -1.36,-0.61 -1.36,-1.36z"/>
    <path class="fil11 str3" d="M189.94 6.94c0.01,0.05 0.01,0.08 0.01,0.08l-1.7 21.08"/>
    <line class="fil11 str3" x1="176.81" y1="30.85" x2="174.77" y2= "7.02" />
    <path class="fil12" d="M185.24 29.86c0,-1.61 1.3,-2.91 2.91,-2.91 1.61,0 2.91,1.31 2.91,2.91 0,1.61 -1.3,2.92 -2.91,2.92 -1.61,0 -2.91,-1.3 -2.91,-2.92zm1.4 0c0,0.84 0.68,1.52 1.52,1.52 0.84,0 1.52,-0.68 1.52,-1.52 0,-0.83 -0.68,-1.52 -1.52,-1.52 -0.84,0 -1.52,0.68 -1.52,1.52z"/>
    <path class="fil10" d="M187.18 29.86c0,-0.54 0.44,-0.98 0.98,-0.98 0.54,0 0.98,0.44 0.98,0.98 0,0.54 -0.44,0.98 -0.98,0.98 -0.54,0 -0.98,-0.44 -0.98,-0.98z"/>
    <polygon class="fil10" points="172.96,7.37 189.78,7.37 189.78,6.35 172.96,6.35 "/>
    <path class="fil10" d="M180.55 3.17l4.79 0 0 2.21 -4.79 0 0 -2.21zm3.95 0.86l-3.11 0 0 0.47 3.11 0 0 -0.47z"/>
    <path class="fil11 str4" d="M184.9 4.02c5.14,0.49 4.97,2.49 5.05,2.92"/>
    <path class="fil11 str4" d="M174.5 6.94c-0.05,-0.47 0.03,-2.71 6.41,-3.01"/>
   </g>
  </g>
 </g>
</svg>
