<?xml version="1.0" encoding="UTF-8"?>
<!DOCTYPE svg PUBLIC "-//W3C//DTD SVG 1.1//EN" "http://www.w3.org/Graphics/SVG/1.1/DTD/svg11.dtd">
<!-- Creator: CorelDRAW 2021 (64-Bit Not for commercial use) -->
<svg xmlns="http://www.w3.org/2000/svg" xml:space="preserve" width="1.04607in" height="0.408933in" version="1.1" style="shape-rendering:geometricPrecision; text-rendering:geometricPrecision; image-rendering:optimizeQuality; fill-rule:evenodd; clip-rule:evenodd"
viewBox="0 0 180.21 70.45"
 xmlns:xlink="http://www.w3.org/1999/xlink"
 xmlns:xodm="http://www.corel.com/coreldraw/odm/2003">
 <defs>
  <style type="text/css">
   <![CDATA[
    .fil0 {fill:black;fill-rule:nonzero}
    .fil2 {fill:#231F20;fill-rule:nonzero}
    .fil1 {fill:white;fill-rule:nonzero}
   ]]>
  </style>
 </defs>
 <g id="_0">
  <metadata id="CorelCorpID_0Corel-Layer"/>
  <g id="Icons">
   <g>
    <path class="fil0" d="M102.37 37l-21.68 0.21c-0.65,0 -1.19,-0.52 -1.2,-1.18l-0.3 -30.43c-0.01,-0.65 0.52,-1.19 1.17,-1.2l21.68 -0.21c0.65,-0.01 1.19,0.52 1.2,1.18l0.3 30.43c0.01,0.65 -0.52,1.19 -1.17,1.2z"/>
    <path class="fil0" d="M120.98 36.89l-14.46 0.14c-0.65,0.01 -1.19,-0.52 -1.2,-1.17l-0.3 -30.5c-0.01,-0.65 0.52,-1.19 1.18,-1.2l14.46 -0.14c0.65,-0.01 1.19,0.52 1.2,1.17l0.3 30.5c0,0.65 -0.52,1.19 -1.17,1.2z"/>
    <path class="fil0" d="M95.94 20.66c0.09,9.06 -7.27,16.47 -16.44,16.56 -9.16,0.09 -16.67,-7.18 -16.76,-16.24 -0.09,-9.05 7.27,-16.47 16.43,-16.56 9.17,-0.09 16.67,7.18 16.76,16.24z"/>
    <path class="fil1" d="M93.68 20.32c0.08,7.92 -6.28,14.41 -14.21,14.49 -7.92,0.08 -14.41,-6.28 -14.49,-14.21 -0.08,-7.92 6.28,-14.41 14.21,-14.49 7.92,-0.08 14.41,6.28 14.49,14.21z"/>
    <path class="fil0" d="M71.11 12.35c-0.02,0.09 -0.01,2.43 0.03,5.19l0.07 5.02 0.19 0.5c0.59,1.55 1.95,2.36 3.94,2.34 0.93,-0 1.49,-0.12 2.18,-0.46 0.65,-0.32 1.24,-0.87 1.52,-1.45 0.39,-0.79 0.4,-0.96 0.34,-6.39l-0.05 -5.01 -1.54 0.03 -1.55 0.04 0.04 5.04c0.03,5.4 0.04,5.26 -0.34,5.6 -0.21,0.19 -0.81,0.25 -1.11,0.1 -0.14,-0.06 -0.31,-0.25 -0.39,-0.41 -0.14,-0.28 -0.15,-0.43 -0.2,-5.32l-0.05 -5.03 -1.53 0.02c-1.52,0.01 -1.53,0.01 -1.56,0.19z"/>
    <path class="fil0" d="M81.44 17.17c-0.03,0.1 -0.02,3.07 0.02,6.59l0.07 6.4 3.35 -0.03 3.35 -0.03 -0.01 -1.44 -0.02 -1.43 -1.77 0.02 -1.76 0.02 -0.09 -5.14 -0.09 -5.14 -1.5 -0 -1.5 -0.01 -0.05 0.19z"/>
    <path class="fil1" d="M109.07 11.43c0,0.23 -0.18,0.41 -0.41,0.42 -0.23,0 -0.42,-0.18 -0.42,-0.41 0,-0.23 0.18,-0.41 0.41,-0.42 0.23,-0 0.42,0.18 0.42,0.41z"/>
    <path class="fil1" d="M98.68 32.18l0.29 -1c0.28,0.06 0.52,0.17 0.7,0.31 0.19,0.14 0.33,0.32 0.43,0.53 0.1,0.21 0.15,0.48 0.15,0.81 0,0.4 -0.05,0.73 -0.16,0.98 -0.11,0.26 -0.31,0.47 -0.61,0.66 -0.29,0.19 -0.66,0.28 -1.12,0.29 -0.61,0.01 -1.08,-0.15 -1.41,-0.47 -0.33,-0.32 -0.5,-0.78 -0.5,-1.37 -0,-0.46 0.09,-0.83 0.27,-1.09 0.18,-0.26 0.47,-0.47 0.86,-0.6l0.23 1c-0.11,0.04 -0.19,0.07 -0.24,0.11 -0.09,0.06 -0.15,0.14 -0.2,0.24 -0.05,0.09 -0.07,0.19 -0.07,0.31 0,0.26 0.11,0.46 0.32,0.59 0.16,0.1 0.4,0.15 0.72,0.15 0.41,-0 0.68,-0.07 0.83,-0.19 0.15,-0.12 0.22,-0.3 0.22,-0.52 -0,-0.22 -0.06,-0.38 -0.19,-0.49 -0.12,-0.11 -0.3,-0.19 -0.54,-0.24z"/>
    <polygon class="fil1" points="96.49,30.79 96.46,27.74 97.25,27.73 97.27,29.64 97.85,29.63 97.83,27.87 98.58,27.86 98.6,29.63 99.32,29.62 99.31,27.66 100.14,27.65 100.17,30.75 "/>
    <path class="fil1" d="M97.94 26.04l-0.01 -0.48c0,-0.05 -0.02,-0.15 -0.05,-0.3 -0.01,-0.07 -0.05,-0.13 -0.12,-0.18 -0.06,-0.05 -0.13,-0.07 -0.21,-0.07 -0.12,0 -0.21,0.04 -0.27,0.12 -0.07,0.08 -0.09,0.21 -0.09,0.42l0 0.5 0.75 -0.01zm2.2 1.12l-3.68 0.04 -0.02 -1.89c-0,-0.35 0.03,-0.62 0.08,-0.8 0.06,-0.19 0.17,-0.34 0.33,-0.45 0.16,-0.11 0.36,-0.17 0.59,-0.18 0.2,-0 0.38,0.04 0.53,0.13 0.15,0.08 0.27,0.21 0.36,0.36 0.06,0.09 0.11,0.23 0.15,0.4 0.04,-0.14 0.09,-0.23 0.13,-0.3 0.03,-0.04 0.1,-0.1 0.19,-0.19 0.1,-0.08 0.17,-0.13 0.22,-0.16l1.06 -0.56 0.01 1.28 -1.12 0.62c-0.15,0.08 -0.24,0.15 -0.28,0.21 -0.06,0.08 -0.08,0.18 -0.08,0.28l0 0.1 1.49 -0.01 0.01 1.14z"/>
    <polygon class="fil1" points="96.42,23.65 96.39,20.2 97.29,20.19 97.31,21.34 100.08,21.32 100.09,22.45 97.32,22.48 97.33,23.64 "/>
    <polygon class="fil1" points="96.38,19.76 96.37,18.63 100.05,18.59 100.06,19.73 "/>
    <polygon class="fil1" points="96.37,17.94 96.34,15.13 97.13,15.12 97.14,16.79 97.79,16.78 97.77,15.36 98.51,15.35 98.53,16.77 100.03,16.76 100.04,17.9 "/>
    <polygon class="fil1" points="96.33,14.6 96.32,13.46 100,13.43 100.01,14.57 "/>
    <polygon class="fil1" points="96.32,12.78 96.29,9.74 97.07,9.73 97.09,11.63 97.67,11.63 97.66,9.86 98.41,9.85 98.42,11.62 99.15,11.61 99.13,9.65 99.96,9.65 99.99,12.75 "/>
    <path class="fil1" d="M97.1 8.04l2 -0.02 0 -0.28c-0,-0.24 -0.03,-0.41 -0.08,-0.51 -0.06,-0.1 -0.15,-0.17 -0.28,-0.23 -0.13,-0.05 -0.34,-0.08 -0.64,-0.08 -0.39,0 -0.66,0.07 -0.8,0.2 -0.14,0.13 -0.21,0.34 -0.21,0.63l0 0.28zm-0.82 1.14l-0.02 -1.69c-0,-0.33 0.04,-0.6 0.13,-0.81 0.09,-0.21 0.22,-0.38 0.38,-0.51 0.17,-0.14 0.36,-0.23 0.59,-0.3 0.22,-0.06 0.46,-0.1 0.71,-0.1 0.39,-0 0.7,0.04 0.91,0.12 0.22,0.09 0.4,0.21 0.55,0.37 0.15,0.16 0.25,0.32 0.3,0.51 0.07,0.25 0.1,0.47 0.11,0.68l0.02 1.68 -3.67 0.04z"/>
    <path class="fil1" d="M91.51 5.84c-0.98,0.01 -1.77,0.78 -1.76,1.72 0.01,0.94 0.82,1.7 1.8,1.69 0.98,-0.01 1.78,-0.78 1.76,-1.72 -0.01,-0.94 -0.82,-1.7 -1.8,-1.69zm0.04 3.9c-1.26,0.01 -2.29,-0.96 -2.3,-2.18 -0.01,-1.21 1,-2.21 2.25,-2.22 1.26,-0.01 2.29,0.96 2.3,2.18 0.01,1.21 -1,2.21 -2.25,2.22z"/>
    <path class="fil1" d="M91.18 7.27l0.33 -0c0.04,-0 0.1,-0.01 0.21,-0.04 0.05,-0.01 0.09,-0.04 0.13,-0.08 0.04,-0.04 0.05,-0.09 0.05,-0.15 0,-0.08 -0.03,-0.15 -0.08,-0.19 -0.05,-0.04 -0.15,-0.07 -0.29,-0.07l-0.35 0 0 0.52zm-0.78 1.53l-0.03 -2.55 1.31 -0.01c0.25,-0 0.43,0.02 0.56,0.05 0.13,0.04 0.23,0.12 0.31,0.23 0.08,0.11 0.12,0.25 0.12,0.41 0,0.14 -0.03,0.27 -0.09,0.37 -0.06,0.1 -0.14,0.19 -0.25,0.25 -0.07,0.04 -0.16,0.08 -0.28,0.1 0.09,0.03 0.16,0.06 0.21,0.09 0.03,0.02 0.07,0.07 0.13,0.14 0.05,0.07 0.09,0.12 0.11,0.16l0.39 0.73 -0.89 0.01 -0.43 -0.77c-0.05,-0.1 -0.1,-0.17 -0.14,-0.2 -0.06,-0.04 -0.12,-0.06 -0.2,-0.06l-0.07 0 0.01 1.03 -0.79 0.01z"/>
    <path class="fil1" d="M109.45 35.42l-0.07 -0.82c0.15,-0.02 0.27,-0.06 0.35,-0.11 0.13,-0.09 0.19,-0.22 0.19,-0.38 -0,-0.12 -0.04,-0.22 -0.1,-0.28 -0.07,-0.06 -0.14,-0.09 -0.23,-0.1 -0.08,0 -0.16,0.03 -0.22,0.1 -0.06,0.06 -0.13,0.21 -0.18,0.44 -0.09,0.38 -0.22,0.65 -0.38,0.81 -0.16,0.16 -0.37,0.25 -0.62,0.25 -0.17,0 -0.32,-0.04 -0.47,-0.12 -0.15,-0.08 -0.26,-0.2 -0.35,-0.37 -0.09,-0.16 -0.13,-0.39 -0.13,-0.68 -0,-0.36 0.07,-0.63 0.22,-0.82 0.15,-0.19 0.39,-0.3 0.73,-0.34l0.06 0.81c-0.15,0.02 -0.25,0.07 -0.31,0.14 -0.07,0.07 -0.1,0.16 -0.09,0.29 0,0.1 0.02,0.17 0.07,0.23 0.05,0.05 0.11,0.07 0.18,0.07 0.05,0 0.1,-0.02 0.14,-0.06 0.04,-0.04 0.08,-0.14 0.12,-0.29 0.09,-0.38 0.18,-0.64 0.27,-0.81 0.09,-0.16 0.21,-0.28 0.35,-0.36 0.14,-0.07 0.3,-0.12 0.47,-0.12 0.21,-0 0.4,0.05 0.57,0.14 0.17,0.1 0.3,0.23 0.4,0.41 0.09,0.18 0.14,0.4 0.14,0.67 0,0.47 -0.1,0.8 -0.31,0.99 -0.21,0.18 -0.47,0.29 -0.79,0.32z"/>
    <path class="fil1" d="M109.24 31.03l-1.15 0.32 1.15 0.29 -0 -0.61zm0.69 -0.19l0.01 0.98 0.53 0.13 0.01 0.88 -3.21 -1.02 -0.01 -0.94 3.19 -1.08 0.01 0.9 -0.53 0.14z"/>
    <polygon class="fil1" points="107.25,29.65 107.23,27.52 107.92,27.52 107.92,28.78 108.49,28.78 108.48,27.7 109.12,27.69 109.13,28.77 110.44,28.76 110.45,29.62 "/>
    <polygon class="fil1" points="107.22,27.16 107.2,24.86 107.89,24.85 107.9,26.29 108.41,26.29 108.4,24.95 109.05,24.94 109.06,26.28 109.69,26.28 109.68,24.79 110.4,24.79 110.43,27.13 "/>
    <polygon class="fil1" points="107.2,24.64 107.17,22.03 107.97,22.02 107.97,22.9 110.38,22.88 110.39,23.74 107.98,23.76 107.99,24.64 "/>
    <polygon class="fil1" points="107.17,22.02 107.16,21.06 108.24,20.49 107.15,19.94 107.14,18.99 109.01,20.05 110.35,20.04 110.36,20.91 109.02,20.92 "/>
    <path class="fil1" d="M107.11 15.8l-0.01 -0.86 1.91 -0.02c0.19,-0 0.37,0.02 0.54,0.07 0.17,0.05 0.31,0.13 0.44,0.24 0.13,0.11 0.22,0.22 0.27,0.34 0.07,0.17 0.11,0.37 0.11,0.6 0,0.14 -0.01,0.29 -0.03,0.44 -0.02,0.16 -0.06,0.3 -0.12,0.4 -0.07,0.11 -0.16,0.21 -0.27,0.3 -0.12,0.09 -0.24,0.15 -0.37,0.19 -0.2,0.05 -0.38,0.08 -0.54,0.08l-1.91 0.02 -0.01 -0.86 1.95 -0.02c0.17,-0 0.31,-0.04 0.41,-0.13 0.1,-0.09 0.15,-0.2 0.14,-0.35 -0,-0.15 -0.05,-0.27 -0.15,-0.35 -0.1,-0.08 -0.24,-0.13 -0.41,-0.12l-1.95 0.02z"/>
    <path class="fil1" d="M109.24 14.6l-0.07 -0.82c0.15,-0.02 0.27,-0.06 0.35,-0.11 0.13,-0.09 0.19,-0.22 0.19,-0.38 -0,-0.12 -0.04,-0.22 -0.1,-0.28 -0.07,-0.07 -0.14,-0.1 -0.23,-0.1 -0.08,0 -0.16,0.03 -0.22,0.1 -0.06,0.06 -0.12,0.21 -0.18,0.44 -0.09,0.38 -0.22,0.65 -0.38,0.81 -0.16,0.16 -0.37,0.24 -0.62,0.25 -0.17,0 -0.32,-0.04 -0.47,-0.12 -0.15,-0.08 -0.26,-0.2 -0.35,-0.37 -0.09,-0.16 -0.13,-0.39 -0.14,-0.68 -0,-0.35 0.07,-0.63 0.22,-0.82 0.15,-0.19 0.39,-0.3 0.73,-0.34l0.06 0.81c-0.15,0.02 -0.25,0.07 -0.31,0.14 -0.07,0.07 -0.1,0.16 -0.09,0.29 0,0.1 0.02,0.17 0.07,0.23 0.05,0.05 0.11,0.07 0.18,0.07 0.05,0 0.1,-0.02 0.14,-0.07 0.04,-0.04 0.08,-0.13 0.12,-0.29 0.09,-0.38 0.18,-0.64 0.27,-0.81 0.1,-0.16 0.21,-0.28 0.35,-0.36 0.14,-0.08 0.3,-0.12 0.48,-0.12 0.21,-0 0.4,0.05 0.57,0.14 0.17,0.1 0.3,0.24 0.4,0.41 0.09,0.18 0.14,0.4 0.14,0.67 0,0.47 -0.1,0.8 -0.31,0.99 -0.21,0.18 -0.47,0.29 -0.8,0.32z"/>
    <path class="fil1" d="M108.93 8.69l0.26 -0.76c0.24,0.05 0.45,0.13 0.61,0.24 0.16,0.11 0.29,0.24 0.37,0.4 0.08,0.16 0.13,0.36 0.13,0.61 0,0.3 -0.05,0.55 -0.14,0.74 -0.1,0.19 -0.28,0.36 -0.53,0.5 -0.26,0.14 -0.58,0.21 -0.97,0.22 -0.53,0 -0.94,-0.11 -1.23,-0.36 -0.29,-0.24 -0.43,-0.58 -0.44,-1.03 -0,-0.35 0.08,-0.63 0.24,-0.83 0.16,-0.2 0.41,-0.35 0.75,-0.46l0.2 0.76c-0.1,0.03 -0.17,0.06 -0.22,0.09 -0.07,0.05 -0.13,0.11 -0.17,0.18 -0.04,0.07 -0.06,0.15 -0.06,0.23 0,0.19 0.09,0.34 0.27,0.44 0.14,0.08 0.35,0.11 0.63,0.11 0.36,-0 0.6,-0.05 0.73,-0.15 0.13,-0.09 0.19,-0.23 0.19,-0.4 0,-0.16 -0.05,-0.29 -0.16,-0.37 -0.11,-0.08 -0.26,-0.14 -0.46,-0.18z"/>
    <path class="fil1" d="M109 6.08l-1.15 0.32 1.15 0.29 -0 -0.61zm0.69 -0.19l0.01 0.98 0.53 0.13 0.01 0.88 -3.21 -1.02 -0.01 -0.94 3.19 -1.07 0.01 0.9 -0.53 0.14z"/>
    <polygon class="fil1" points="113.8,34.79 113.77,31.04 115.01,31.03 115.04,33.37 115.96,33.36 115.94,31.19 117.13,31.18 117.15,33.36 118.3,33.34 118.28,30.93 119.6,30.92 119.64,34.73 "/>
    <path class="fil1" d="M117.23 28.18l-1.84 0.02 1.85 1.19 -0.01 -1.21zm1.26 -0.01l0.02 2.29 -1.33 0.01 -3.53 -2.25 -0.01 -1.1 3.59 -0.04 -0.01 -0.57 1.26 -0.01 0 0.56 1.09 -0.01 0.01 1.09 -1.09 0.01z"/>
    <path class="fil1" d="M117.77 24.8c0.26,-0 0.47,-0.06 0.63,-0.19 0.16,-0.12 0.24,-0.26 0.24,-0.42 -0,-0.15 -0.09,-0.29 -0.26,-0.4 -0.17,-0.12 -0.38,-0.18 -0.63,-0.17 -0.26,0 -0.47,0.06 -0.63,0.19 -0.17,0.12 -0.25,0.26 -0.24,0.42 0,0.16 0.08,0.29 0.24,0.41 0.16,0.11 0.38,0.17 0.65,0.17zm-2.51 -0.04c0.2,-0 0.36,-0.05 0.49,-0.15 0.12,-0.1 0.18,-0.23 0.18,-0.39 -0,-0.14 -0.06,-0.26 -0.19,-0.35 -0.12,-0.09 -0.28,-0.14 -0.47,-0.13 -0.2,0 -0.37,0.05 -0.49,0.15 -0.12,0.1 -0.19,0.22 -0.19,0.37 0,0.15 0.06,0.27 0.19,0.37 0.13,0.1 0.28,0.14 0.48,0.14zm1.15 0.55c-0.13,0.2 -0.28,0.34 -0.45,0.44 -0.23,0.13 -0.49,0.19 -0.79,0.19 -0.49,0.01 -0.89,-0.17 -1.2,-0.52 -0.24,-0.28 -0.37,-0.64 -0.37,-1.1 -0.01,-0.6 0.14,-1.05 0.43,-1.34 0.29,-0.29 0.67,-0.44 1.12,-0.44 0.26,-0 0.51,0.05 0.74,0.17 0.17,0.08 0.34,0.22 0.5,0.4 0.15,-0.24 0.35,-0.43 0.6,-0.55 0.25,-0.12 0.52,-0.18 0.82,-0.19 0.29,-0.01 0.57,0.04 0.82,0.15 0.25,0.1 0.45,0.23 0.59,0.38 0.14,0.15 0.24,0.33 0.31,0.56 0.07,0.22 0.11,0.46 0.11,0.72 0,0.48 -0.06,0.84 -0.21,1.1 -0.14,0.25 -0.36,0.45 -0.64,0.58 -0.28,0.14 -0.6,0.2 -0.95,0.21 -0.34,0 -0.64,-0.06 -0.87,-0.18 -0.24,-0.12 -0.42,-0.31 -0.56,-0.57z"/>
    <path class="fil1" d="M115.58 19.44c-0.32,0 -0.56,0.07 -0.74,0.19 -0.18,0.12 -0.27,0.28 -0.27,0.45 0,0.17 0.08,0.3 0.25,0.41 0.16,0.11 0.41,0.16 0.73,0.16 0.32,-0 0.58,-0.06 0.75,-0.18 0.17,-0.12 0.26,-0.26 0.25,-0.43 0,-0.18 -0.08,-0.32 -0.25,-0.44 -0.17,-0.11 -0.41,-0.17 -0.72,-0.17zm2.63 2.28l-0.21 -1.24c0.23,-0.04 0.38,-0.09 0.48,-0.17 0.09,-0.08 0.14,-0.17 0.14,-0.29 -0,-0.2 -0.13,-0.35 -0.4,-0.46 -0.19,-0.08 -0.6,-0.14 -1.23,-0.17 0.2,0.14 0.35,0.3 0.44,0.45 0.09,0.16 0.14,0.34 0.14,0.55 0.01,0.4 -0.18,0.75 -0.55,1.03 -0.37,0.28 -0.84,0.43 -1.41,0.43 -0.39,0 -0.74,-0.06 -1.06,-0.2 -0.32,-0.14 -0.56,-0.33 -0.73,-0.58 -0.16,-0.25 -0.25,-0.56 -0.25,-0.93 -0,-0.45 0.09,-0.82 0.29,-1.09 0.2,-0.28 0.52,-0.5 0.95,-0.67 0.43,-0.17 1.01,-0.25 1.73,-0.26 1.05,-0.01 1.83,0.15 2.32,0.49 0.49,0.34 0.74,0.81 0.75,1.42 0,0.36 -0.05,0.64 -0.16,0.85 -0.1,0.21 -0.26,0.38 -0.47,0.52 -0.21,0.14 -0.46,0.25 -0.77,0.32z"/>
    <path class="fil1" d="M115.53 15.17c-0.32,0 -0.56,0.07 -0.74,0.19 -0.18,0.12 -0.27,0.28 -0.27,0.45 0,0.17 0.08,0.3 0.25,0.41 0.16,0.11 0.41,0.16 0.73,0.16 0.32,-0 0.58,-0.06 0.75,-0.18 0.17,-0.12 0.26,-0.26 0.25,-0.43 0,-0.18 -0.08,-0.32 -0.25,-0.44 -0.17,-0.11 -0.41,-0.17 -0.72,-0.17zm2.63 2.28l-0.21 -1.24c0.23,-0.03 0.38,-0.09 0.47,-0.17 0.09,-0.08 0.14,-0.18 0.14,-0.29 -0,-0.2 -0.13,-0.36 -0.4,-0.47 -0.19,-0.08 -0.6,-0.14 -1.23,-0.17 0.2,0.15 0.35,0.3 0.44,0.46 0.09,0.16 0.14,0.34 0.14,0.55 0.01,0.4 -0.18,0.75 -0.55,1.03 -0.37,0.28 -0.84,0.43 -1.41,0.43 -0.39,0 -0.74,-0.06 -1.06,-0.2 -0.32,-0.14 -0.56,-0.33 -0.73,-0.58 -0.17,-0.24 -0.25,-0.56 -0.26,-0.93 -0,-0.45 0.09,-0.82 0.29,-1.09 0.2,-0.28 0.51,-0.5 0.95,-0.67 0.44,-0.17 1.01,-0.25 1.73,-0.26 1.05,-0.01 1.83,0.15 2.32,0.49 0.49,0.34 0.74,0.81 0.75,1.42 0,0.36 -0.05,0.64 -0.16,0.85 -0.1,0.21 -0.26,0.38 -0.47,0.52 -0.21,0.14 -0.47,0.25 -0.78,0.32z"/>
    <path class="fil1" d="M115.27 12.04l-0.26 1.19c-0.49,-0.09 -0.87,-0.28 -1.13,-0.56 -0.26,-0.28 -0.4,-0.67 -0.4,-1.19 -0.01,-0.59 0.13,-1.02 0.42,-1.28 0.28,-0.26 0.63,-0.4 1.07,-0.4 0.25,-0 0.48,0.05 0.69,0.15 0.21,0.11 0.39,0.26 0.54,0.48 0.05,-0.17 0.12,-0.31 0.19,-0.4 0.12,-0.15 0.27,-0.27 0.47,-0.36 0.2,-0.09 0.43,-0.13 0.7,-0.13 0.34,-0 0.67,0.06 0.98,0.2 0.31,0.14 0.56,0.33 0.73,0.59 0.17,0.26 0.26,0.6 0.26,1.02 0.01,0.41 -0.05,0.74 -0.17,0.97 -0.12,0.24 -0.31,0.44 -0.54,0.59 -0.24,0.16 -0.54,0.28 -0.9,0.36l-0.23 -1.25c0.33,-0.05 0.55,-0.13 0.68,-0.24 0.12,-0.11 0.19,-0.24 0.19,-0.4 -0,-0.17 -0.08,-0.31 -0.24,-0.42 -0.16,-0.11 -0.37,-0.16 -0.64,-0.16 -0.27,0 -0.48,0.06 -0.63,0.17 -0.15,0.11 -0.22,0.26 -0.22,0.44 0,0.1 0.04,0.23 0.1,0.41l-1.16 -0.05c0.01,-0.07 0.02,-0.12 0.02,-0.16 0,-0.17 -0.07,-0.3 -0.2,-0.41 -0.14,-0.11 -0.3,-0.16 -0.49,-0.16 -0.18,0 -0.32,0.05 -0.43,0.13 -0.11,0.08 -0.16,0.19 -0.16,0.34 0,0.15 0.06,0.27 0.18,0.36 0.11,0.09 0.32,0.16 0.61,0.18z"/>
    <path class="fil1" d="M115.45 6.62c-0.32,0 -0.56,0.07 -0.74,0.19 -0.18,0.12 -0.27,0.28 -0.27,0.45 0,0.17 0.08,0.3 0.25,0.41 0.16,0.11 0.41,0.16 0.73,0.16 0.32,-0 0.58,-0.06 0.75,-0.18 0.17,-0.12 0.26,-0.26 0.25,-0.43 0,-0.18 -0.08,-0.32 -0.25,-0.44 -0.17,-0.11 -0.41,-0.17 -0.72,-0.17zm2.63 2.29l-0.21 -1.25c0.23,-0.03 0.38,-0.09 0.48,-0.17 0.09,-0.08 0.14,-0.18 0.14,-0.29 -0,-0.2 -0.13,-0.36 -0.4,-0.47 -0.19,-0.08 -0.6,-0.14 -1.23,-0.17 0.2,0.14 0.35,0.3 0.44,0.45 0.09,0.16 0.14,0.34 0.14,0.55 0.01,0.4 -0.18,0.75 -0.55,1.03 -0.37,0.28 -0.84,0.43 -1.41,0.43 -0.39,0 -0.74,-0.06 -1.06,-0.2 -0.32,-0.14 -0.56,-0.33 -0.73,-0.58 -0.17,-0.24 -0.25,-0.56 -0.26,-0.93 -0,-0.45 0.09,-0.81 0.29,-1.09 0.2,-0.28 0.51,-0.5 0.95,-0.67 0.44,-0.17 1.01,-0.25 1.73,-0.26 1.05,-0.01 1.83,0.15 2.32,0.49 0.49,0.34 0.74,0.81 0.75,1.42 0,0.36 -0.05,0.64 -0.16,0.85 -0.1,0.21 -0.26,0.38 -0.47,0.52 -0.21,0.14 -0.47,0.25 -0.78,0.32z"/>
   </g>
   <g>
    <path class="fil0" d="M170.51 21.19l1.67 -0.03 0.09 5.43c0.01,0.34 0.12,0.64 0.59,0.63 0.48,-0.01 0.57,-0.39 0.56,-0.69l-0.09 -5.38 1.67 -0.03 0.08 5.16c0.02,1.21 -0.5,2.15 -2.21,2.17 -1.42,0.02 -2.26,-0.64 -2.28,-2.1l-0.09 -5.16z"/>
    <path class="fil0" d="M177.39 25.82l0.01 0.52c0.01,0.41 0.15,0.81 0.69,0.8 0.39,-0.01 0.55,-0.36 0.55,-0.72 -0.01,-0.6 -0.51,-0.8 -0.95,-1.08 -0.47,-0.23 -0.91,-0.55 -1.29,-0.92 -0.34,-0.39 -0.53,-0.9 -0.51,-1.42 -0.11,-1.03 0.64,-1.95 1.67,-2.07 0.13,-0.01 0.27,-0.01 0.4,-0.01 1.09,-0.08 2.04,0.73 2.15,1.81 0.02,0.14 0.02,0.28 0.01,0.43l-1.53 0.03c-0.01,-0.41 -0.02,-0.99 -0.57,-1.02 -0.27,-0.03 -0.52,0.15 -0.57,0.43l0 0.06c-0.04,0.43 0.18,0.64 0.52,0.87 0.55,0.29 1.08,0.62 1.58,0.99 0.38,0.36 0.61,0.86 0.65,1.38l0 0.2 -0.01 0.11 0.01 0.11 0 0.2c-0.03,0.93 -0.73,1.73 -1.69,1.85 -0.14,0.02 -0.3,0.02 -0.44,0.01 -1.54,0.03 -2.2,-0.82 -2.21,-1.77l-0.02 -0.76 1.55 -0.02 -0.01 -0z"/>
    <path class="fil0" d="M155.15 34.97c7.62,-0.11 13.72,-6.37 13.61,-13.99 -0.11,-7.62 -6.37,-13.72 -13.99,-13.61 -7.62,0.11 -13.72,6.37 -13.61,13.99l0 0.12c0.13,7.6 6.39,13.66 13.99,13.53l0.06 -0 -0.06 -0.04z"/>
    <path class="fil1" d="M155.1 32.38c6.21,-0.12 11.14,-5.26 11.02,-11.47 -0.12,-6.21 -5.26,-11.14 -11.47,-11.02 -6.21,0.12 -11.14,5.25 -11.02,11.46 0,0 0,0 -0,0.01 0.13,6.2 5.26,11.14 11.47,11.01z"/>
    <path class="fil0" d="M148.06 13.87l2.54 -0.04 0.14 8.26c0.01,0.52 0.18,0.97 0.9,0.96 0.72,-0.01 0.86,-0.6 0.85,-1.06l-0.13 -8.1 2.54 -0.04 0.13 7.87c0.03,1.84 -0.75,3.25 -3.38,3.29 -2.16,0.04 -3.43,-0.97 -3.47,-3.18l-0.13 -7.96z"/>
    <polygon class="fil0" points="156.16,28.57 155.98,17.69 158.52,17.65 158.66,26.35 161.78,26.3 161.82,28.48 "/>
    <g>
     <path class="fil0" d="M151.39 27.28l0.32 -0c0.23,-0 0.29,0.14 0.3,0.31 0,0.15 0.02,0.29 0.07,0.43l0.22 -0c-0.04,0 -0.06,-0.07 -0.07,-0.1 -0.01,-0.03 -0,-0.25 -0.01,-0.37 0,-0.17 -0.14,-0.31 -0.3,-0.32 0.18,-0.02 0.32,-0.18 0.32,-0.37 -0.01,-0.39 -0.23,-0.48 -0.58,-0.47l-0.47 0.01 0.03 1.69 0.19 -0 -0.01 -0.74 -0 -0.04zm-0.02 -0.82l0.27 -0c0.12,-0 0.35,-0.01 0.36,0.29 0.01,0.16 -0.11,0.3 -0.27,0.32l-0.35 0.01 -0.01 -0.61 -0 -0.01z"/>
    </g>
    <path class="fil0" d="M150.33 27.15c0.01,-0.76 0.64,-1.38 1.4,-1.37 0.76,0.01 1.38,0.64 1.37,1.4 -0.01,0.75 -0.61,1.35 -1.36,1.37 -0.77,0.01 -1.4,-0.61 -1.41,-1.38 -0,-0.01 -0,-0.02 -0,-0.03zm-0.16 0c0.01,0.85 0.72,1.53 1.57,1.52 0.85,-0.01 1.54,-0.71 1.52,-1.57 -0.01,-0.85 -0.72,-1.54 -1.57,-1.52 -0.85,0.02 -1.53,0.72 -1.52,1.57z"/>
    <path class="fil0" d="M137.64 24.24l-0.01 -0.48c-0.01,-0.61 -0.23,-0.92 -0.54,-0.91 -0.53,0.01 -0.64,0.28 -0.64,0.76l0.06 3.56c0.01,0.39 0.17,0.63 0.61,0.62 0.57,-0.01 0.6,-0.6 0.6,-1.03l-0.01 -0.65 1.67 -0.03 0.02 0.9c0.02,1.22 -0.67,2.09 -2.4,2.12 -1.49,0.02 -2.11,-0.72 -2.17,-2.1l-0 -0.07 -0 -0 -0.05 -3.02 -0 -0.07 0 -0.03c0.01,-1.48 0.73,-2.19 2.21,-2.21 1.52,-0.03 2.29,0.58 2.31,2.02l0.01 0.6 -1.67 0.03z"/>
    <path class="fil0" d="M139.24 9.83l-0.27 -0.19c-0.38,-0.3 -0.64,-0.3 -0.81,-0.09 -0.16,0.21 -0.12,0.51 0.1,0.67 0,0.01 0.01,0.01 0.01,0.01l0.05 0 2.11 1.53c0.16,0.16 0.41,0.15 0.57,-0.01 0,0 0,0 0,-0 0.25,-0.34 -0.09,-0.62 -0.35,-0.8l-0.38 -0.29 0.79 -1.03 0.52 0.37c0.74,0.53 0.95,1.32 0.2,2.34 -0.74,1.03 -1.5,0.96 -2.33,0.32l-1.64 -1.3c-0.72,-0.35 -1.01,-1.23 -0.66,-1.94 0.07,-0.14 0.16,-0.26 0.27,-0.38 0.62,-0.82 1.35,-1.1 2.22,-0.48l0.35 0.26 -0.7 0.99 -0.04 0z"/>
    <polygon class="fil0" points="143.09,10.5 139.6,6.57 140.53,5.76 143.32,8.89 144.44,7.89 145.13,8.67 "/>
    <g>
     <path class="fil0" d="M146.74 7.7l-0.43 -0.91 0.8 -0.49 0.67 0.8 1.07 -0.63 -3.64 -3.99 -1.28 0.75 1.66 5.11 1.06 -0.63 0.09 -0.01zm-0.13 -2.18l-0.62 0.35 -0.85 -2.21 1.46 1.86z"/>
    </g>
    <path class="fil0" d="M149.91 4.29l0.1 0.36c0.08,0.29 0.24,0.52 0.61,0.43 0.38,-0.1 0.34,-0.36 0.27,-0.62 -0.11,-0.43 -0.5,-0.5 -0.87,-0.61 -0.38,-0.08 -0.74,-0.23 -1.07,-0.43 -0.31,-0.21 -0.52,-0.53 -0.61,-0.89 -0.28,-0.71 0.07,-1.51 0.78,-1.79l0.05 -0c0.09,-0.03 0.19,-0.05 0.28,-0.07 0.76,-0.27 1.6,0.12 1.88,0.88 0,0 0,0 0,0 0.04,0.11 0.07,0.23 0.08,0.35l-1.13 0.28c-0.09,-0.29 -0.18,-0.7 -0.58,-0.63 -0.21,0.02 -0.35,0.21 -0.34,0.41 0.05,0.31 0.24,0.42 0.53,0.52 0.44,0.11 0.88,0.25 1.3,0.43 0.41,0.23 0.69,0.64 0.76,1.1 0.28,0.72 -0.07,1.54 -0.78,1.83 -0.11,0.04 -0.21,0.07 -0.32,0.08 -1.09,0.28 -1.71,-0.21 -1.89,-0.87l-0.13 -0.54 1.1 -0.26 0 0.03z"/>
    <path class="fil0" d="M153.87 3.63l0.01 0.36c0.01,0.31 0.12,0.56 0.51,0.55 0.4,-0.01 0.4,-0.27 0.39,-0.54 -0.01,-0.44 -0.39,-0.59 -0.72,-0.8 -0.34,-0.15 -0.64,-0.35 -0.92,-0.59 -0.27,-0.28 -0.41,-0.65 -0.4,-1.04 -0.1,-0.76 0.43,-1.46 1.19,-1.57 0,0 0,0 0,0l0.31 -0.01 0.02 -0 0.3 -0c0.67,0.06 1.22,0.57 1.32,1.26 0.02,0.13 0.02,0.26 0.01,0.38l-1.13 0.02c-0,-0.31 -0.01,-0.73 -0.43,-0.74 -0.19,-0.03 -0.38,0.1 -0.41,0.3 0,0 0,0 0,0l0 0.07c-0.02,0.27 0.15,0.53 0.4,0.63 0.4,0.21 0.79,0.45 1.15,0.71 0.34,0.32 0.52,0.77 0.5,1.23 0.13,0.77 -0.38,1.5 -1.15,1.64 0,0 0,0 0,0 -0.11,0.01 -0.23,0.02 -0.34,0.01 -1.13,0.02 -1.63,-0.57 -1.64,-1.26l-0.01 -0.57 1.14 -0.02 -0.1 -0.03z"/>
    <polygon class="fil0" points="156.64,5.41 157.62,0.26 158.84,0.49 157.86,5.65 "/>
    <polygon class="fil0" points="158.84,5.82 160.55,0.85 163.29,1.79 162.95,2.78 161.37,2.24 161.07,3.12 162.52,3.62 162.18,4.62 160.73,4.11 160,6.22 "/>
    <polygon class="fil0" points="162.02,6.99 164.64,2.44 165.71,3.05 163.09,7.61 "/>
    <polygon class="fil0" points="163.9,8.07 167.29,4.06 169.44,5.89 168.76,6.69 167.55,5.66 166.92,6.4 168.1,7.39 167.42,8.2 166.24,7.2 165.52,8.07 166.79,9.15 166.11,9.95 "/>
    <g>
     <path class="fil0" d="M167.59 11.8c0.2,0.31 0.48,0.56 0.82,0.71 0.43,0.13 0.89,0.01 1.22,-0.29l1.83 -1.45c0.44,-0.23 0.72,-0.69 0.72,-1.18 -0.11,-0.46 -0.34,-0.89 -0.66,-1.24l-0.83 -1.06 -4.13 3.19 1.03 1.3 -0 0.01zm3.12 -3c0.36,0.48 0.46,0.67 0.02,1.05l-1.34 1.06c-0.54,0.45 -0.8,0.65 -1.27,-0.04l2.6 -2.08z"/>
    </g>
    <polygon class="fil0" points="137.58,36.82 142.38,36.74 142.4,37.98 139.4,38.03 139.41,38.95 142.2,38.9 142.22,40.08 139.43,40.13 139.45,41.27 142.54,41.22 142.56,42.54 137.68,42.62 "/>
    <path class="fil0" d="M145.99 40.14l-0.03 -1.82 -1.52 1.85 1.55 -0.03zm0.02 1.25l-2.94 0.05 -0.02 -1.33 2.87 -3.54 1.4 -0.02 0.06 3.56 0.73 -0.01 0.02 1.25 -0.73 0.01 0.02 1.08 -1.4 0.02 -0.02 -1.08z"/>
    <path class="fil0" d="M151.64 38.49c-0.01,-0.31 -0.09,-0.56 -0.25,-0.73 -0.16,-0.18 -0.36,-0.26 -0.58,-0.26 -0.22,0.01 -0.39,0.09 -0.53,0.25 -0.14,0.16 -0.21,0.41 -0.2,0.73 0,0.32 0.08,0.57 0.23,0.74 0.15,0.17 0.33,0.25 0.55,0.25 0.23,-0 0.41,-0.09 0.56,-0.26 0.15,-0.17 0.22,-0.41 0.21,-0.71zm-2.92 2.63l1.6 -0.23c0.04,0.23 0.12,0.38 0.22,0.47 0.1,0.09 0.23,0.14 0.37,0.13 0.26,-0 0.46,-0.14 0.6,-0.4 0.1,-0.2 0.18,-0.6 0.22,-1.23 -0.19,0.2 -0.39,0.35 -0.59,0.45 -0.2,0.1 -0.44,0.15 -0.7,0.15 -0.52,0.01 -0.96,-0.17 -1.33,-0.53 -0.36,-0.36 -0.55,-0.82 -0.56,-1.39 -0.01,-0.39 0.08,-0.74 0.25,-1.06 0.18,-0.32 0.42,-0.56 0.74,-0.73 0.32,-0.17 0.72,-0.26 1.2,-0.26 0.58,-0.01 1.05,0.08 1.4,0.28 0.36,0.19 0.64,0.5 0.86,0.93 0.22,0.43 0.33,1 0.34,1.71 0.02,1.05 -0.19,1.82 -0.62,2.31 -0.43,0.49 -1.04,0.75 -1.82,0.76 -0.46,0.01 -0.83,-0.04 -1.09,-0.14 -0.27,-0.11 -0.49,-0.26 -0.67,-0.46 -0.18,-0.2 -0.32,-0.46 -0.42,-0.76z"/>
    <path class="fil0" d="M157.61 36.39l0.1 5.89 -1.63 0.03 -0.07 -3.86c-0.26,0.2 -0.51,0.37 -0.76,0.5 -0.25,0.13 -0.55,0.25 -0.92,0.37l-0.02 -1.32c0.55,-0.18 0.97,-0.4 1.27,-0.66 0.3,-0.25 0.53,-0.56 0.69,-0.93l1.33 -0.02z"/>
    <path class="fil0" d="M162.44 38.31c-0.01,-0.31 -0.09,-0.56 -0.25,-0.73 -0.16,-0.18 -0.36,-0.26 -0.58,-0.26 -0.21,0 -0.39,0.09 -0.53,0.25 -0.14,0.16 -0.21,0.41 -0.2,0.73 0,0.32 0.08,0.57 0.23,0.74 0.15,0.17 0.33,0.25 0.55,0.25 0.23,-0 0.41,-0.09 0.56,-0.26 0.15,-0.17 0.22,-0.41 0.21,-0.71zm-2.92 2.63l1.6 -0.23c0.04,0.23 0.12,0.38 0.22,0.47 0.1,0.09 0.23,0.14 0.37,0.13 0.26,-0 0.46,-0.14 0.6,-0.4 0.11,-0.2 0.18,-0.6 0.22,-1.23 -0.19,0.2 -0.38,0.35 -0.59,0.45 -0.2,0.1 -0.44,0.15 -0.7,0.15 -0.52,0.01 -0.96,-0.17 -1.33,-0.53 -0.36,-0.36 -0.55,-0.82 -0.56,-1.39 -0.01,-0.39 0.08,-0.74 0.25,-1.06 0.18,-0.32 0.42,-0.56 0.74,-0.73 0.32,-0.17 0.72,-0.26 1.2,-0.26 0.58,-0.01 1.05,0.08 1.4,0.27 0.36,0.19 0.64,0.5 0.86,0.93 0.22,0.43 0.33,1 0.35,1.71 0.02,1.05 -0.19,1.82 -0.62,2.31 -0.43,0.49 -1.04,0.75 -1.82,0.76 -0.46,0.01 -0.83,-0.04 -1.09,-0.14 -0.27,-0.11 -0.49,-0.26 -0.67,-0.46 -0.18,-0.2 -0.32,-0.46 -0.42,-0.76z"/>
    <path class="fil0" d="M164.8 36.36l4.7 -0.08 0.02 1.09c-0.4,0.38 -0.74,0.78 -1,1.21 -0.32,0.53 -0.58,1.12 -0.76,1.76 -0.15,0.5 -0.24,1.09 -0.28,1.77l-1.61 0.03c0.11,-0.95 0.3,-1.74 0.56,-2.39 0.26,-0.64 0.68,-1.34 1.26,-2.08l-2.86 0.05 -0.02 -1.36z"/>
    <path class="fil0" d="M171.81 39.12c0.01,0.74 0.08,1.24 0.22,1.51 0.13,0.27 0.33,0.4 0.57,0.4 0.16,-0 0.3,-0.06 0.42,-0.18 0.12,-0.12 0.2,-0.3 0.26,-0.55 0.05,-0.25 0.08,-0.63 0.07,-1.16 -0.01,-0.77 -0.09,-1.29 -0.22,-1.55 -0.13,-0.26 -0.33,-0.39 -0.59,-0.39 -0.26,0.01 -0.46,0.14 -0.57,0.42 -0.11,0.27 -0.16,0.77 -0.15,1.5zm-1.6 0.02c-0.02,-1.1 0.17,-1.87 0.56,-2.32 0.39,-0.44 0.99,-0.68 1.8,-0.69 0.39,-0.01 0.71,0.04 0.97,0.13 0.25,0.09 0.46,0.22 0.62,0.36 0.16,0.15 0.29,0.31 0.38,0.48 0.09,0.17 0.17,0.36 0.23,0.59 0.12,0.43 0.18,0.88 0.18,1.35 0.02,1.05 -0.15,1.82 -0.49,2.32 -0.35,0.49 -0.96,0.75 -1.83,0.76 -0.49,0.01 -0.88,-0.06 -1.19,-0.21 -0.3,-0.15 -0.55,-0.38 -0.75,-0.67 -0.15,-0.21 -0.26,-0.5 -0.34,-0.87 -0.08,-0.37 -0.13,-0.78 -0.14,-1.23z"/>
   </g>
   <g>
    <path class="fil2" d="M0.09 25.32l-0.09 -13.29 6.81 -0.03c1.03,-0.08 1.92,0.05 2.9,0.31 0.65,0.21 1.16,0.63 1.65,1.16 0.36,0.62 0.58,1.46 0.59,2.14 0.01,0.69 -0.2,1.35 -0.5,1.87 -0.32,0.64 -0.72,1.04 -1.21,1.31 -0.49,0.27 -0.97,0.43 -1.45,0.59 0.34,0.05 0.76,0.23 1.06,0.5 0.21,0.14 0.51,0.42 0.7,0.67 0.19,0.26 0.38,0.51 0.55,0.88l1.93 3.83 -4.65 0 -2.12 -4.09c-0.17,-0.37 -0.45,-0.75 -0.76,-1.03 -0.3,-0.27 -0.63,-0.32 -0.97,-0.37l-0.35 0.06 0 5.38 -4.09 0.08zm4.01 -7.99l1.7 0.02c0.46,-0.05 0.81,-0.11 1.16,-0.17 0.24,-0.08 0.48,-0.16 0.64,-0.48 0.14,-0.21 0.29,-0.42 0.23,-0.77 0.05,-0.34 -0.12,-0.71 -0.43,-0.98 -0.41,-0.29 -0.97,-0.37 -1.54,-0.34l-1.71 0.09 -0.05 2.63z"/>
    <path class="fil2" d="M13.15 20.49c-0.02,-1.38 0.52,-2.78 1.45,-3.68 1.05,-0.99 2.5,-1.58 3.96,-1.48 1.6,-0.11 3.22,0.47 4.4,1.68 0.77,0.92 1.16,2.12 1.09,3.37 0.14,1.39 -0.39,2.69 -1.43,3.57 -1.05,0.99 -2.5,1.58 -4.07,1.46 -1.25,0.04 -2.55,-0.37 -3.67,-1.23 -1.12,-0.85 -1.81,-2.32 -1.72,-3.69zm3.63 -0.04c-0.1,0.67 0.15,1.28 0.51,1.9 0.28,0.38 0.83,0.58 1.28,0.53 0.56,0.08 1.05,-0.19 1.34,-0.6 0.42,-0.51 0.53,-1.3 0.52,-1.99 0.08,-0.56 -0.15,-1.28 -0.53,-1.79 -0.28,-0.39 -0.71,-0.56 -1.26,-0.64 -0.46,0.05 -0.96,0.31 -1.35,0.72 -0.3,0.53 -0.51,1.18 -0.5,1.87z"/>
    <polygon class="fil2" points="26.09,11.86 30.17,11.88 30.17,16.46 34.6,16.43 34.59,11.85 38.68,11.76 38.76,25.16 34.57,25.12 34.56,19.74 30.14,19.78 30.14,25.16 26.07,25.13 "/>
    <path class="fil2" d="M40.67 20.64l3.88 -0.23c0.05,0.46 0.3,1.07 0.58,1.46 0.38,0.51 1.12,0.85 1.8,0.84 0.45,0.07 0.92,-0.09 1.3,-0.38 0.51,-0.38 0.62,-1.16 0.25,-1.68 -0.09,-0.13 -0.2,-0.14 -0.3,-0.27 -0.63,-0.32 -1.27,-0.64 -2.06,-0.65 -1.31,-0.31 -2.71,-0.85 -3.83,-1.71 -0.71,-0.56 -1.13,-1.54 -1.11,-2.46 -0.01,-0.69 0.21,-1.45 0.52,-1.98 0.43,-0.62 1.08,-1.21 1.8,-1.45 1.08,-0.42 2.13,-0.6 3.26,-0.55 1.38,-0.14 2.7,0.17 3.83,0.91 0.92,0.71 1.54,1.83 1.6,2.98l-3.9 0.34c-0.03,-0.58 -0.18,-1.06 -0.6,-1.34 -0.41,-0.29 -0.84,-0.47 -1.3,-0.42 -0.44,-0.07 -0.81,0.11 -1.06,0.3 -0.26,0.19 -0.42,0.51 -0.45,0.73 0.08,0.24 0.16,0.48 0.36,0.63 0.41,0.29 0.85,0.35 1.41,0.43 1.33,0.19 2.63,0.61 3.8,1.13 0.74,0.34 1.23,0.87 1.7,1.51 0.36,0.62 0.5,1.22 0.51,1.91 -0.02,0.91 -0.25,1.68 -0.69,2.42 -0.45,0.74 -1.1,1.33 -1.94,1.66 -0.95,0.32 -2.13,0.6 -3.14,0.57 -2.27,0.01 -3.79,-0.44 -4.67,-1.37 -0.9,-0.82 -1.4,-2.04 -1.55,-3.32z"/>
   </g>
   <g id="IP65">
    <path class="fil0" d="M10.45 50.68c-0.66,0.05 -1.46,0.27 -1.99,0.61l-0.29 0.12 0.02 -0.23 -0.03 -0.33 -1.68 0.02 -1.68 0.02 0.11 8.58 -0.03 8.53 1.68 -0.02 1.68 -0.02 0.07 -3.32 -0.07 -3.38 0.32 0.21c0.72,0.38 1.41,0.43 2.24,0.53 1.45,-0.04 2.78,-0.6 3.73,-1.56 1.04,-1 1.5,-2.33 1.6,-3.96 0.06,-3.09 -1.7,-5.41 -4.33,-5.79 -0.37,-0.07 -1.06,-0.12 -1.35,-0zm0.76 2.63c0.78,0.24 1.43,0.99 1.7,1.9 0.12,0.29 0.1,1.32 0.07,1.79 -0.24,1.57 -1.13,2.4 -2.48,2.4 -0.46,-0.03 -0.83,-0.11 -1.14,-0.31 -0.37,-0.07 -0.84,-0.67 -1,-1.06l-0.18 -0.15 0.05 -1.5 -0.04 -1.46 0.21 -0.31c0.54,-1.13 1.68,-1.61 2.83,-1.29z"/>
    <path class="fil0" d="M21.21 50.61c-2.25,0.26 -2.99,0.91 -3.28,2.62 -0.08,0.6 -0.03,10.68 0.06,11.44 0.3,1.8 0.86,2.59 2.23,2.93 0.78,0.24 1.24,0.27 2.5,0.32 1.35,0 1.77,-0.06 2.48,-0.24 1.42,-0.37 2.02,-1.07 2.28,-2.88 0.08,-0.6 0.08,-3.56 0.03,-4.78 -0.11,-1.32 -0.17,-1.74 -0.57,-2.15 -0.61,-0.65 -1.29,-0.93 -2.4,-0.92 -1.02,-0.03 -1.6,0.21 -2.28,0.73 -0.29,0.12 -0.48,0.2 -0.48,0.2 -0.09,0.04 -0.06,-3.38 0.01,-3.75 0.08,-0.6 0.24,-0.78 0.89,-0.83 0.56,-0.01 0.74,0.15 0.89,0.53 0,0 0.07,0.43 0.09,0.76l0.01 0.56 1.71 0.08 1.77 -0.06 -0.06 -1.22c0.01,-0.79 -0.06,-1.22 -0.14,-1.41 -0.21,-1.05 -1.02,-1.62 -2.45,-1.82 -0.6,-0.09 -2.74,-0.1 -3.3,-0.09zm2.12 9.1c0.04,0.09 0.17,0.15 0.22,0.25 0.08,0.19 0.12,0.29 0.08,2.35 0.02,1.92 0.1,2.12 -0.01,2.39 -0.11,0.27 -0.31,0.35 -0.73,0.42 -0.46,-0.03 -0.69,-0.05 -0.87,-0.2 -0.22,-0.25 -0.21,-0.48 -0.3,-2.6 0.02,-1.82 0.08,-1.96 0.1,-2.19 0.11,-0.27 0.2,-0.31 0.49,-0.43 0.19,-0.08 0.79,0.01 1.02,0.03z"/>
    <path class="fil0" d="M28.27 50.83c0,0 0.06,2.02 0.09,4.5l-0.01 4.54 1.68 -0.02 1.58 0.02 0.07 -0.37c0,-0.8 0.15,-0.97 0.95,-0.96 0.56,-0 0.83,0.11 0.91,0.3l0.08 0.2 0.01 2.71 0.05 2.82 -0.05 0.14c-0.21,0.31 -0.31,0.35 -0.86,0.36 -0.7,-0.05 -0.83,-0.11 -0.92,-0.86 -0.04,-0.1 -0.05,-0.66 -0.08,-0.99l0 -0.79 -1.77 0.06 -1.77 0.06 -0.02 1.03c0.06,1.22 0.11,1.88 0.35,2.46 0.19,0.72 0.58,1.12 1.16,1.44 0.82,0.34 1.51,0.39 3.19,0.37 1.39,0.1 1.91,-0.01 2.62,-0.19 1.19,-0.38 1.7,-1.05 1.94,-2.62 0.13,-0.51 0.05,-5.24 -0.02,-6.23 -0.05,-0.66 -0.2,-1.28 -0.36,-1.67 -0.31,-1.01 -1.13,-1.34 -2.71,-1.36 -0.56,0 -0.79,-0.01 -1.08,0.11 -0.38,0.16 -0.86,0.36 -1.2,0.62l-0.34 0.26 0.05 -1.5 -0.09 -1.55 2.6 0.05 2.47 -0.01 -0.05 -1.46 0.05 -1.49 -4.24 0.07c-2.37,-0.03 -4.28,-0.03 -4.28,-0.03z"/>
    <polygon class="fil0" points="0.96,59.42 1.07,68 2.74,67.98 4.42,67.96 4.36,59.47 4.25,50.89 2.57,50.91 0.9,50.93 "/>
   </g>
   <g id="Dimmer">
    <path class="fil0" d="M78.49 46.43c0.41,0.06 0.89,0.2 1.2,0.45 0.26,0.18 0.75,0.67 0.93,0.91 0.12,0.16 1.52,2.32 3.07,4.86 3.11,5.08 4.27,6.93 6.13,9.87 0.8,1.38 1.25,2.15 1.3,2.36 0.26,0.67 0.3,1.38 0.14,2.13 -0.42,1.06 -1.16,1.87 -2.26,2.21l-0.43 0.08 -10.39 0.06 -10.45 -0.02 -0.34 -0.12c-1.08,-0.3 -1.95,-1.12 -2.3,-2.23 -0.26,-0.67 -0.17,-1.36 0,-2.11 0.1,-0.2 0.91,-1.56 2.8,-4.73 1.45,-2.46 3.27,-5.57 4.08,-6.93 0.81,-1.36 1.89,-3.17 2.42,-3.94 0.93,-1.7 1.26,-2.07 1.79,-2.35 0.7,-0.53 1.49,-0.63 2.31,-0.51zm-1.19 -1.08c-1,0.14 -2.06,0.69 -2.66,1.52 -0.33,0.37 -10.25,16.94 -10.46,17.47 -0.69,1.52 -0.32,3.47 0.85,4.69 0.61,0.65 1.32,1.1 2.21,1.3l0.34 0.12 10.61 -0.1 10.59 0.04 0.43 -0.08c2.55,-0.69 3.91,-3.58 2.91,-6.05 -0.12,-0.16 -2.01,-3.31 -4.21,-6.85 -2.26,-3.63 -4.63,-7.41 -5.27,-8.41 -0.56,-1.06 -1.22,-1.93 -1.4,-2.17 -0.89,-1.18 -2.43,-1.75 -3.94,-1.48z"/>
    <path class="fil0" d="M79.86 64.12c0.9,1.18 1.59,2.26 1.59,2.26 0.06,0.08 -0.76,0.46 -1.27,0.59 -0.74,0.31 -1.1,0.34 -2,0.28 -0.92,0.08 -1.34,0.02 -2.01,-0.22 -0.53,-0.22 -1.32,-0.61 -1.38,-0.69 0.08,-0.06 2.93,-4.08 3.2,-4.53 0.1,-0.19 0.1,-0.19 0.22,-0.04 0,0 0.78,1.03 1.65,2.35zm-1.35 -7.78c0.55,0.08 1.46,0.63 1.44,0.77 -0.08,0.06 -1.82,2.62 -1.88,2.54 -0.08,0.06 -0.54,-0.71 -1.19,-1.57l-1.12 -1.64 0.21 -0.04c0.51,-0.14 0.8,-0.24 1.49,-0.14 0.49,0 0.84,-0.02 1.04,0.08zm4.14 -0.04c0.93,0.91 1.49,1.97 1.82,3.21 0.07,0.57 0.08,2.05 0,2.6 -0.19,0.89 -0.59,1.81 -1.04,2.52 -0.33,0.38 -0.99,1.12 -1.05,1.04 -0.08,0.06 -3.62,-4.94 -3.55,-5 -0.06,-0.08 1.76,-2.7 1.84,-2.76 0.08,-0.06 0.16,-0.12 0.2,0.1 0.36,0.47 0.62,1.14 0.79,2.01 0.06,0.08 0.04,0.22 0.12,0.16l1.65 -0.26c0,0 -0.04,-0.22 -0.08,-0.43 -0.15,-0.51 -0.41,-1.18 -0.7,-1.58 -0.16,-0.37 -0.77,-1.02 -0.9,-1.18 -0.14,-0.02 -0.14,-0.02 -0.2,-0.1 0.08,-0.06 0.6,-0.83 0.6,-0.83 0,0 0.32,0.26 0.49,0.49zm-8.41 -0.08l0.3 0.39 -0.33 0.38c-0.64,0.61 -1.03,1.4 -1.22,2.28 -0.13,0.47 -0.07,0.55 0.04,0.22 0.21,-0.54 0.42,-1.06 0.75,-1.44 0.17,-0.26 0.76,-0.95 0.97,-0.99 0,0 0.24,0.31 1.31,1.73 0.72,0.94 1.24,1.79 1.3,1.87 0.06,0.08 -0.29,0.59 -1.66,2.5 -1.03,1.4 -1.75,2.56 -1.81,2.48 -0.08,0.06 -0.69,-0.59 -1.05,-1.06 -0.54,-0.71 -0.9,-1.67 -1.12,-2.62 -0.08,-0.43 -0.1,-1.91 0.04,-2.38 0.11,-0.83 0.44,-1.69 0.88,-2.4 0.25,-0.31 1.17,-1.38 1.3,-1.36 0,0 0.12,0.16 0.3,0.39zm4.24 -1.85c0.63,0.02 1.24,0.17 1.77,0.39 0.47,0.14 0.93,0.41 0.99,0.49 0,0 -0.35,0.51 -0.52,0.77 0,0 -0.2,-0.1 -0.39,-0.2 -0.79,-0.39 -1.48,-0.49 -2.38,-0.55 -0.77,-0.04 -1.57,0.2 -2.31,0.51 -0.15,0.12 -0.23,0.18 -0.23,0.18 0,0 -0.12,-0.16 -0.24,-0.31 -0.18,-0.24 -0.3,-0.4 -0.3,-0.4 -0.06,-0.08 0.16,-0.12 0.31,-0.24 0.9,-0.43 1.49,-0.63 2.76,-0.73 0,0 0.27,0.04 0.55,0.08zm-1.19 -1.08c-0.92,0.08 -1.81,0.38 -2.63,0.75l-0.53 0.27 -0.3 -0.4c-0.28,-0.53 -0.41,-0.55 -0.69,-0.59 -0.14,-0.02 -0.22,0.04 -0.31,0.24 -0.16,0.12 -0.16,0.12 -0.11,0.34 -0.02,0.14 -0.04,0.28 0.2,0.59 0.18,0.24 0.3,0.39 0.36,0.47 0,0 -0.15,0.12 -0.23,0.18 -0.15,0.12 -0.41,0.44 -0.64,0.61 -2.64,2.99 -2.54,7.51 0.38,10.38 0.49,0.49 0.49,0.49 0.48,0.63 -0.33,0.38 -0.43,0.57 -0.38,0.79 -0.1,0.2 -0.04,0.28 0.1,0.29 0.12,0.16 0.18,0.24 0.31,0.26 0.3,-0.1 0.37,-0.16 0.63,-0.47 0.1,-0.2 0.25,-0.32 0.25,-0.32 0,0 0.14,0.02 0.34,0.12 0.51,0.35 1.38,0.69 2.21,0.81 0.47,0.14 0.61,0.16 1.45,0.14 0.77,0.04 1.06,-0.06 1.41,-0.08 0.73,-0.18 1.53,-0.41 2.13,-0.75 0.24,-0.18 0.39,-0.3 0.39,-0.3 0.06,0.08 0.12,0.16 0.24,0.32 0.3,0.39 0.36,0.47 0.71,0.45 0.27,0.04 0.53,-0.28 0.45,-0.71 0,0 -0.12,-0.16 -0.24,-0.31l-0.24 -0.31 0.56 -0.55c2.2,-2.28 2.66,-5.73 1.29,-8.67 -0.46,-0.77 -1.24,-1.79 -1.87,-2.31 -0.06,-0.08 -0.18,-0.24 -0.18,-0.24 0,0 0.09,-0.2 0.27,-0.45 0.25,-0.32 0.27,-0.45 0.29,-0.59 0.02,-0.14 -0.04,-0.21 -0.16,-0.37 -0.12,-0.16 -0.26,-0.18 -0.4,-0.2 -0.21,0.04 -0.37,0.16 -0.64,0.61l-0.33 0.37 -0.45 -0.27c-1.32,-0.61 -2.76,-0.89 -4.11,-0.73z"/>
   </g>
  </g>
 </g>
</svg>
