<?xml version="1.0" encoding="UTF-8"?>
<!DOCTYPE svg PUBLIC "-//W3C//DTD SVG 1.1//EN" "http://www.w3.org/Graphics/SVG/1.1/DTD/svg11.dtd">
<!-- Creator: CorelDRAW 2021 (64-Bit Not for commercial use) -->
<svg xmlns="http://www.w3.org/2000/svg" xml:space="preserve" width="1.04312in" height="0.388402in" version="1.1" style="shape-rendering:geometricPrecision; text-rendering:geometricPrecision; image-rendering:optimizeQuality; fill-rule:evenodd; clip-rule:evenodd"
viewBox="0 0 343.12 127.76"
 xmlns:xlink="http://www.w3.org/1999/xlink"
 xmlns:xodm="http://www.corel.com/coreldraw/odm/2003">
 <defs>
  <style type="text/css">
   <![CDATA[
    .fil2 {fill:#151515}
    .fil3 {fill:#231F20}
    .fil5 {fill:#FEFEFE;fill-rule:nonzero}
    .fil4 {fill:#282828;fill-rule:nonzero}
    .fil1 {fill:black;fill-rule:nonzero}
    .fil0 {fill:#231F20;fill-rule:nonzero}
   ]]>
  </style>
 </defs>
 <g id="Fixture">
  <metadata id="CorelCorpID_0Corel-Layer"/>
  <g id="Certification">
   <g>
    <path class="fil0" d="M0.17 41.33l-0.17 -25.38 13 -0.06c1.97,-0.14 3.66,0.1 5.53,0.6 1.24,0.4 2.21,1.19 3.14,2.21 0.69,1.19 1.1,2.78 1.13,4.09 0.02,1.32 -0.38,2.57 -0.96,3.58 -0.61,1.23 -1.37,1.98 -2.31,2.5 -0.94,0.51 -1.86,0.82 -2.77,1.12 0.64,0.1 1.46,0.43 2.03,0.96 0.39,0.28 0.97,0.8 1.33,1.29 0.36,0.49 0.72,0.98 1.05,1.68l3.69 7.31 -8.88 0.01 -4.05 -7.81c-0.33,-0.7 -0.87,-1.44 -1.44,-1.96 -0.57,-0.52 -1.21,-0.62 -1.84,-0.71l-0.66 0.12 0 10.28 -7.81 0.16zm7.65 -15.27l3.24 0.04c0.88,-0.09 1.54,-0.21 2.21,-0.33 0.46,-0.15 0.91,-0.3 1.22,-0.91 0.28,-0.4 0.55,-0.8 0.43,-1.46 0.09,-0.65 -0.24,-1.35 -0.81,-1.87 -0.78,-0.55 -1.84,-0.71 -2.93,-0.66l-3.27 0.18 -0.09 5.01z"/>
    <path class="fil0" d="M25.11 32.1c-0.05,-2.63 1,-5.32 2.76,-7.02 2.01,-1.89 4.77,-3.01 7.56,-2.82 3.06,-0.21 6.15,0.9 8.4,3.2 1.47,1.75 2.22,4.04 2.08,6.43 0.26,2.66 -0.75,5.13 -2.73,6.81 -2.01,1.89 -4.77,3.01 -7.77,2.8 -2.4,0.09 -4.87,-0.71 -7.02,-2.35 -2.14,-1.62 -3.46,-4.44 -3.29,-7.04zm6.93 -0.07c-0.19,1.28 0.29,2.45 0.98,3.64 0.54,0.73 1.58,1.1 2.45,1.01 1.06,0.16 2,-0.35 2.55,-1.15 0.79,-0.98 1.01,-2.48 0.98,-3.79 0.16,-1.07 -0.29,-2.45 -1.01,-3.43 -0.54,-0.74 -1.36,-1.07 -2.41,-1.23 -0.88,0.09 -1.83,0.6 -2.58,1.37 -0.58,1.01 -0.98,2.26 -0.96,3.58z"/>
    <polygon class="fil0" points="49.82,15.62 57.6,15.67 57.62,24.42 66.06,24.35 66.05,15.61 73.86,15.44 74,41.03 66.01,40.95 66,30.67 57.55,30.74 57.55,41.02 49.78,40.97 "/>
    <path class="fil0" d="M77.65 32.39l7.42 -0.44c0.09,0.88 0.56,2.04 1.11,2.78 0.72,0.98 2.13,1.63 3.44,1.6 0.85,0.13 1.76,-0.17 2.49,-0.73 0.97,-0.73 1.19,-2.22 0.47,-3.2 -0.17,-0.25 -0.39,-0.28 -0.57,-0.52 -1.21,-0.62 -2.42,-1.23 -3.93,-1.23 -2.51,-0.59 -5.17,-1.63 -7.31,-3.26 -1.36,-1.07 -2.17,-2.94 -2.13,-4.69 -0.02,-1.31 0.41,-2.78 0.99,-3.79 0.82,-1.19 2.07,-2.31 3.43,-2.77 2.07,-0.79 4.07,-1.15 6.22,-1.06 2.63,-0.26 5.15,0.32 7.32,1.73 1.75,1.35 2.95,3.49 3.06,5.69l-7.46 0.65c-0.05,-1.1 -0.35,-2.02 -1.14,-2.57 -0.78,-0.56 -1.6,-0.89 -2.48,-0.8 -0.84,-0.13 -1.54,0.21 -2.03,0.57 -0.49,0.37 -0.79,0.98 -0.86,1.4 0.15,0.46 0.3,0.92 0.69,1.2 0.79,0.55 1.63,0.67 2.69,0.83 2.54,0.37 5.02,1.17 7.26,2.16 1.42,0.65 2.35,1.65 3.25,2.88 0.69,1.19 0.96,2.33 0.98,3.64 -0.04,1.75 -0.47,3.21 -1.33,4.61 -0.86,1.41 -2.1,2.53 -3.71,3.17 -1.82,0.61 -4.07,1.15 -6,1.09 -4.33,0.02 -7.23,-0.85 -8.92,-2.62 -1.72,-1.57 -2.68,-3.89 -2.96,-6.34z"/>
   </g>
   <g id="IP65">
    <path class="fil1" d="M19.96 89.75c-1.25,0.09 -2.79,0.52 -3.81,1.16l-0.55 0.23 0.03 -0.44 -0.05 -0.63 -3.2 0.04 -3.2 0.04 0.2 16.38 -0.06 16.28 3.2 -0.04 3.2 -0.04 0.14 -6.34 -0.13 -6.45 0.6 0.4c1.37,0.72 2.7,0.82 4.28,1.02 2.76,-0.08 5.32,-1.14 7.13,-2.98 1.98,-1.91 2.86,-4.45 3.05,-7.56 0.11,-5.9 -3.25,-10.34 -8.27,-11.06 -0.7,-0.14 -2.03,-0.23 -2.57,-0zm1.46 5.03c1.48,0.46 2.72,1.89 3.24,3.63 0.23,0.55 0.19,2.52 0.13,3.41 -0.45,3.01 -2.15,4.59 -4.73,4.58 -0.89,-0.06 -1.59,-0.2 -2.18,-0.6 -0.7,-0.14 -1.61,-1.28 -1.91,-2.02l-0.34 -0.29 0.09 -2.86 -0.08 -2.78 0.39 -0.6c1.02,-2.16 3.22,-3.08 5.4,-2.47z"/>
    <path class="fil1" d="M40.5 89.61c-4.3,0.5 -5.71,1.74 -6.27,5.01 -0.16,1.15 -0.05,20.39 0.12,21.84 0.58,3.44 1.64,4.95 4.26,5.59 1.48,0.46 2.37,0.52 4.77,0.61 2.57,0.01 3.38,-0.12 4.74,-0.46 2.72,-0.7 3.87,-2.05 4.35,-5.5 0.16,-1.15 0.16,-6.79 0.05,-9.13 -0.2,-2.52 -0.32,-3.33 -1.08,-4.1 -1.16,-1.25 -2.46,-1.78 -4.59,-1.76 -1.95,-0.05 -3.05,0.41 -4.36,1.39 -0.55,0.23 -0.92,0.38 -0.92,0.38 -0.18,0.08 -0.12,-6.45 0.01,-7.15 0.16,-1.15 0.45,-1.49 1.7,-1.58 1.06,-0.01 1.41,0.28 1.71,1.02 0,0 0.13,0.81 0.18,1.44l0.02 1.07 3.27 0.15 3.39 -0.12 -0.12 -2.34c0.01,-1.52 -0.12,-2.33 -0.27,-2.7 -0.41,-2 -1.94,-3.09 -4.67,-3.47 -1.15,-0.17 -5.23,-0.19 -6.3,-0.18zm4.05 17.38c0.08,0.18 0.33,0.29 0.41,0.47 0.15,0.37 0.23,0.55 0.16,4.48 0.03,3.67 0.19,4.04 -0.02,4.56 -0.21,0.52 -0.58,0.68 -1.39,0.8 -0.88,-0.06 -1.32,-0.09 -1.66,-0.39 -0.42,-0.48 -0.39,-0.92 -0.58,-4.97 0.04,-3.48 0.15,-3.74 0.18,-4.19 0.2,-0.52 0.39,-0.6 0.94,-0.83 0.37,-0.15 1.51,0.02 1.95,0.05z"/>
    <path class="fil1" d="M53.98 90.04c0,0 0.11,3.85 0.16,8.6l-0.02 8.68 3.21 -0.04 3.02 0.03 0.13 -0.7c0.01,-1.52 0.29,-1.86 1.81,-1.84 1.06,-0.01 1.58,0.2 1.74,0.57l0.15 0.37 0.03 5.18 0.1 5.38 -0.1 0.26c-0.4,0.59 -0.58,0.67 -1.64,0.69 -1.33,-0.1 -1.59,-0.2 -1.77,-1.65 -0.08,-0.19 -0.09,-1.26 -0.15,-1.89l0.01 -1.52 -3.39 0.12 -3.38 0.12 -0.03 1.96c0.12,2.34 0.21,3.59 0.68,4.7 0.36,1.37 1.11,2.14 2.22,2.75 1.56,0.65 2.89,0.74 6.09,0.71 2.65,0.19 3.64,-0.01 4.99,-0.36 2.27,-0.73 3.24,-2 3.7,-5.01 0.24,-0.97 0.1,-10.01 -0.04,-11.9 -0.1,-1.26 -0.38,-2.44 -0.69,-3.18 -0.59,-1.93 -2.15,-2.57 -5.17,-2.6 -1.06,0.01 -1.51,-0.02 -2.06,0.21 -0.73,0.3 -1.64,0.69 -2.29,1.18l-0.65 0.49 0.1 -2.86 -0.17 -2.97 4.97 0.09 4.72 -0.02 -0.09 -2.78 0.09 -2.85 -8.1 0.14c-4.52,-0.06 -8.17,-0.05 -8.17,-0.05z"/>
    <polygon class="fil1" points="1.84,106.43 2.04,122.82 5.24,122.78 8.44,122.74 8.32,106.54 8.11,90.15 4.91,90.2 1.71,90.23 "/>
   </g>
   <g>
    <path class="fil1" d="M143.8 81.91c0.79,0.11 1.69,0.38 2.3,0.87 0.49,0.34 1.43,1.28 1.78,1.73 0.23,0.3 2.9,4.44 5.87,9.29 5.94,9.7 8.15,13.24 11.7,18.84 1.52,2.63 2.4,4.1 2.48,4.52 0.5,1.28 0.58,2.63 0.26,4.06 -0.8,2.03 -2.21,3.57 -4.31,4.21l-0.82 0.15 -19.84 0.11 -19.96 -0.03 -0.64 -0.23c-2.07,-0.57 -3.73,-2.14 -4.39,-4.25 -0.5,-1.28 -0.32,-2.6 0,-4.02 0.19,-0.38 1.73,-2.97 5.35,-9.03 2.77,-4.7 6.24,-10.64 7.79,-13.24 1.55,-2.59 3.62,-6.06 4.61,-7.52 1.77,-3.24 2.4,-3.95 3.41,-4.48 1.35,-1.01 2.84,-1.2 4.42,-0.98zm-2.27 -2.07c-1.91,0.26 -3.93,1.32 -5.08,2.9 -0.63,0.71 -19.57,32.35 -19.97,33.36 -1.32,2.9 -0.61,6.63 1.62,8.96 1.17,1.24 2.53,2.1 4.22,2.48l0.64 0.23 20.26 -0.19 20.21 0.08 0.83 -0.15c4.87,-1.32 7.47,-6.84 5.55,-11.55 -0.22,-0.3 -3.84,-6.32 -8.04,-13.09 -4.31,-6.92 -8.83,-14.14 -10.06,-16.06 -1.07,-2.03 -2.33,-3.68 -2.67,-4.14 -1.71,-2.26 -4.64,-3.35 -7.53,-2.83z"/>
    <path class="fil1" d="M146.41 115.68c1.71,2.26 3.04,4.32 3.04,4.32 0.11,0.16 -1.45,0.87 -2.43,1.13 -1.42,0.6 -2.09,0.64 -3.82,0.53 -1.76,0.15 -2.55,0.04 -3.83,-0.42 -1.02,-0.41 -2.52,-1.16 -2.64,-1.31 0.15,-0.11 5.59,-7.79 6.1,-8.66 0.18,-0.37 0.18,-0.37 0.41,-0.08 0,0 1.48,1.96 3.16,4.48zm-2.58 -14.86c1.05,0.15 2.78,1.21 2.75,1.47 -0.15,0.11 -3.48,5 -3.6,4.85 -0.15,0.11 -1.02,-1.35 -2.28,-3l-2.13 -3.13 0.41 -0.07c0.98,-0.26 1.54,-0.45 2.85,-0.26 0.94,0 1.61,-0.04 1.99,0.15zm7.91 -0.07c1.78,1.73 2.85,3.76 3.48,6.13 0.12,1.09 0.15,3.91 0.01,4.97 -0.36,1.69 -1.13,3.46 -1.98,4.82 -0.63,0.72 -1.9,2.15 -2.01,1.99 -0.15,0.12 -6.92,-9.43 -6.77,-9.55 -0.11,-0.15 3.37,-5.16 3.51,-5.27 0.15,-0.11 0.3,-0.22 0.38,0.19 0.69,0.91 1.18,2.18 1.5,3.84 0.11,0.15 0.08,0.41 0.23,0.3l3.14 -0.49c0,0 -0.08,-0.41 -0.16,-0.83 -0.28,-0.97 -0.77,-2.25 -1.34,-3.01 -0.3,-0.71 -1.48,-1.95 -1.71,-2.25 -0.26,-0.04 -0.26,-0.04 -0.38,-0.19 0.15,-0.12 1.15,-1.58 1.15,-1.58 0,0 0.6,0.49 0.94,0.94zm-16.05 -0.16l0.57 0.75 -0.63 0.72c-1.23,1.17 -1.96,2.67 -2.32,4.36 -0.25,0.9 -0.14,1.05 0.08,0.42 0.4,-1.02 0.81,-2.03 1.44,-2.75 0.33,-0.49 1.45,-1.81 1.86,-1.88 0,0 0.45,0.6 2.51,3.31 1.37,1.8 2.36,3.42 2.47,3.57 0.11,0.16 -0.55,1.13 -3.18,4.78 -1.97,2.67 -3.33,4.89 -3.45,4.74 -0.15,0.11 -1.32,-1.13 -2.01,-2.03 -1.03,-1.35 -1.72,-3.2 -2.15,-5 -0.16,-0.83 -0.19,-3.65 0.07,-4.55 0.21,-1.58 0.83,-3.23 1.68,-4.59 0.48,-0.6 2.23,-2.63 2.48,-2.6 0,0 0.23,0.3 0.57,0.75zm8.1 -3.53c1.2,0.04 2.37,0.33 3.38,0.75 0.91,0.27 1.78,0.79 1.89,0.94 0,0 -0.66,0.98 -1,1.47 0,0 -0.38,-0.19 -0.75,-0.38 -1.51,-0.75 -2.82,-0.94 -4.55,-1.05 -1.46,-0.07 -3,0.38 -4.42,0.97 -0.3,0.23 -0.45,0.34 -0.45,0.34 0,0 -0.23,-0.3 -0.46,-0.6 -0.34,-0.45 -0.57,-0.76 -0.57,-0.76 -0.12,-0.15 0.3,-0.22 0.59,-0.45 1.72,-0.82 2.84,-1.2 5.28,-1.39 0,0 0.52,0.07 1.05,0.15zm-2.27 -2.07c-1.77,0.15 -3.45,0.72 -5.02,1.43l-1.01 0.52 -0.57 -0.76c-0.53,-1.01 -0.79,-1.05 -1.32,-1.13 -0.26,-0.03 -0.41,0.08 -0.59,0.45 -0.3,0.22 -0.3,0.22 -0.22,0.64 -0.04,0.27 -0.07,0.53 0.38,1.13 0.34,0.45 0.57,0.75 0.68,0.9 0,0 -0.3,0.23 -0.45,0.34 -0.29,0.23 -0.78,0.83 -1.23,1.17 -5.04,5.72 -4.85,14.33 0.72,19.82 0.94,0.94 0.94,0.94 0.91,1.2 -0.63,0.72 -0.81,1.09 -0.73,1.51 -0.19,0.37 -0.07,0.53 0.19,0.56 0.23,0.3 0.34,0.45 0.6,0.49 0.56,-0.19 0.71,-0.3 1.19,-0.9 0.19,-0.38 0.48,-0.6 0.48,-0.6 0,0 0.26,0.04 0.64,0.23 0.98,0.68 2.64,1.32 4.22,1.54 0.91,0.27 1.16,0.3 2.78,0.27 1.47,0.07 2.03,-0.12 2.7,-0.15 1.39,-0.34 2.92,-0.79 4.07,-1.43 0.45,-0.34 0.75,-0.57 0.75,-0.57 0.12,0.15 0.23,0.3 0.45,0.61 0.57,0.75 0.68,0.9 1.36,0.86 0.52,0.08 1,-0.53 0.85,-1.35 0,0 -0.23,-0.3 -0.46,-0.6l-0.46 -0.6 1.08 -1.06c4.2,-4.36 5.07,-10.95 2.47,-16.55 -0.88,-1.47 -2.36,-3.42 -3.57,-4.4 -0.11,-0.15 -0.34,-0.45 -0.34,-0.45 0,0 0.18,-0.38 0.52,-0.87 0.48,-0.6 0.52,-0.86 0.55,-1.13 0.03,-0.26 -0.08,-0.41 -0.31,-0.71 -0.23,-0.3 -0.49,-0.34 -0.76,-0.38 -0.41,0.07 -0.71,0.3 -1.23,1.17l-0.63 0.71 -0.87 -0.52c-2.53,-1.17 -5.27,-1.69 -7.85,-1.39z"/>
   </g>
   <g id="DLC_x0020_Premium.svg">
    <g id="Layer_2" data-name="Layer 2">
     <g id="svg">
      <g id="svgg">
       <g>
        <path id="path0" class="fil2" d="M317.04 6.12c-7.54,0.38 -14.9,4.64 -19.35,11.22l-0.32 0.48 -3.51 0 0 26.14 1.74 0.01 1.74 0.01 0.49 0.7c0.27,0.39 0.62,0.86 0.78,1.06 0.15,0.2 0.32,0.41 0.36,0.47 0.54,0.78 3.21,3.39 4.44,4.33l0.38 0.29 2.36 -0.02c1.29,-0.01 2.37,-0.02 2.38,-0.03 -0.2,-0.14 -0.42,-0.27 -0.64,-0.38 -3.55,-1.96 -6.5,-4.85 -8.52,-8.36l-0.2 -0.37 -1.51 0c-1.21,0 -1.52,-0.01 -1.57,-0.07 -0.05,-0.06 -0.06,-2.9 -0.05,-10.75l0.01 -10.68 1.56 -0.01c1.42,-0.01 1.56,-0.02 1.59,-0.1 0.06,-0.15 0.7,-1.2 1.06,-1.72 1.75,-2.56 3.85,-4.57 6.69,-6.39 1.98,-1.27 4.77,-2.35 7.4,-2.86 1.36,-0.26 2.76,-0.4 4.15,-0.4 1.55,0 3.09,0.17 4.6,0.49 6.08,1.25 11.99,5.6 14.67,10.81l0.09 0.17 1.67 0.01 1.67 0.01 0.01 2.29 0.01 2.29 -3.71 0.02c-4.08,0.03 -4.21,0.03 -4.81,0.34 -0.52,0.26 -0.78,0.65 -0.97,1.42 -0.09,0.38 -0.09,8.17 0,8.55 0.24,1 0.64,1.46 1.54,1.77l0.42 0.14 3.75 0.03 3.75 0.03 0 4.61 -1.66 0.01 -1.67 0.01 -0.19 0.35c-1.91,3.42 -5.18,6.58 -8.81,8.53 -0.14,0.06 -0.26,0.14 -0.38,0.24 0,0.02 1.08,0.03 2.4,0.02l2.4 -0.02 0.61 -0.49c1.98,-1.59 4.32,-4.12 5.52,-5.98l0.24 -0.37 3.46 0 0 -26.14 -1.75 0 -1.75 0 -0.21 -0.32c-1.38,-2.15 -4.18,-5.05 -6.54,-6.77 -4.53,-3.3 -10.02,-4.89 -15.85,-4.6l0 0zm0.52 3.35c-3.18,0.15 -6.3,1.01 -9.11,2.5 -3.31,1.77 -6.38,4.69 -8.2,7.81 -0.07,0.11 -0.13,0.23 -0.18,0.35 0.01,0.01 0.94,0.02 2.08,0.03l2.07 0.01 0.41 -0.52c0.43,-0.54 1.51,-1.73 1.59,-1.73 0.05,0 0.89,0.85 0.95,0.96 0.03,0.06 -0.09,0.21 -0.46,0.61 -0.28,0.29 -0.58,0.62 -0.68,0.74l-0.17 0.21 0.52 0.17c2.42,0.79 3.8,2.45 4.33,5.19l0.14 0.74 0 8.64 -0.14 0.7c-0.55,2.66 -1.97,4.39 -4.31,5.23l-0.44 0.16 0.12 0.16c0.22,0.32 1.68,1.73 2.28,2.21 0.35,0.28 0.59,0.51 0.57,0.54 -0.11,0.17 -0.75,1.07 -0.78,1.09 -0.07,0.04 -1.36,-1.02 -2.03,-1.68 -0.56,-0.55 -1.09,-1.13 -1.58,-1.73l-0.21 -0.26 -0.59 0.03c-0.33,0.02 -1.28,0.04 -2.13,0.04 -0.85,0 -1.54,0.02 -1.54,0.03 0,0.08 0.78,1.27 1.26,1.94 2.23,3.04 5.62,5.73 8.88,7.04l0.28 0.11 7.97 0.01 7.97 0.01 0.39 -0.15c3.67,-1.42 7.53,-4.74 9.82,-8.45l0.32 -0.52 -1.53 -0.03c-0.68,0 -1.36,-0.04 -2.04,-0.12 -0.71,-0.11 -0.65,-0.13 -1.06,0.37 -1.06,1.32 -3.26,3.39 -3.51,3.31 -0.07,-0.02 -0.8,-1.02 -0.8,-1.1 0.16,-0.17 0.33,-0.33 0.53,-0.46 0.78,-0.6 2.63,-2.47 2.63,-2.65 -0.09,-0.08 -0.2,-0.14 -0.32,-0.19 -1.97,-0.93 -3.19,-2.65 -3.66,-5.15l-0.14 -0.76 0 -8.13 0.15 -0.83c0.43,-2.46 1.48,-4 3.35,-4.95 0.17,-0.09 0.35,-0.17 0.53,-0.23 0.06,-0.01 0.12,-0.04 0.17,-0.08 0.03,-0.05 -0.56,-0.76 -1.15,-1.36l-0.49 -0.5 0.49 -0.52c0.16,-0.18 0.33,-0.36 0.52,-0.52 0.11,0 1.59,1.66 2.1,2.36 0.1,0.13 0.1,0.13 0.46,0.08 0.2,-0.03 1.14,-0.07 2.08,-0.09 0.95,-0.02 1.72,-0.04 1.72,-0.05 -0.03,-0.07 -0.08,-0.15 -0.12,-0.21l-0.35 -0.55c-2.38,-3.8 -6.2,-6.92 -10.4,-8.5 -2.45,-0.92 -5.04,-1.4 -7.65,-1.4 -0.29,0 -0.59,0.01 -0.89,0.02l-0 -0zm-1.63 2.13c0.21,0.09 0.21,0.09 0.27,0.5 0.03,0.22 0.08,0.47 0.09,0.55 0.04,0.18 -0.02,0.18 -0.33,-0.02 -0.78,-0.49 -1,0.26 -0.58,1.97 0.29,1.18 0.56,1.35 1.08,0.7 0.29,-0.37 0.28,-0.37 0.39,0.26 0.1,0.63 0.07,0.74 -0.4,0.97 -0.99,0.49 -1.84,-0.34 -2.16,-2.12 -0.37,-2.07 0.39,-3.38 1.64,-2.81l-0 0zm5.91 0.05c1.06,0.54 0.94,3.47 -0.18,4.61 -0.32,0.32 -0.28,0.52 0.07,0.45 0.13,-0.02 0.19,0 0.31,0.13l0.15 0.16 -0.13 0.14c-0.49,0.56 -0.57,0.63 -0.73,0.58 -0.31,-0.09 -0.68,-0.44 -0.94,-0.9 -0.09,-0.16 -0.2,-0.31 -0.32,-0.44 -1.02,-1.07 -0.3,-4.45 1.04,-4.83 0.06,-0.01 0.12,-0.01 0.18,-0.01 0.19,0 0.38,0.04 0.56,0.13l0.01 -0.01zm-0.74 1.09c-0.29,0.45 -0.52,1.58 -0.49,2.41 0.06,1.52 0.92,-0.2 0.92,-1.85 0,-0.76 -0.17,-0.97 -0.43,-0.55l0 0zm4.19 -0.01c1.12,0.42 1.53,1.08 1.26,1.99 -0.26,0.88 -1.1,1.36 -1.87,1.07 -0.06,-0.02 -0.13,0.11 -0.32,0.55 -0.13,0.32 -0.31,0.74 -0.39,0.93 -0.17,0.41 -0.13,0.39 -0.65,0.19 -0.48,-0.19 -0.47,-0.15 -0.17,-0.86 0.23,-0.54 0.44,-1.03 0.76,-1.8 0.08,-0.2 0.21,-0.49 0.28,-0.65 0.14,-0.32 0.52,-1.23 0.6,-1.42 0.06,-0.16 0.07,-0.16 0.5,0l0 0zm-13.93 0.26c0.07,0.16 0.19,0.44 0.26,0.63 0.12,0.33 0.24,0.63 0.6,1.55 0.09,0.22 0.24,0.61 0.33,0.86 0.1,0.25 0.18,0.47 0.2,0.48 0.15,-0.03 0.29,-0.08 0.42,-0.14 0.62,-0.25 0.62,-0.24 0.81,0.2 0.2,0.49 0.26,0.42 -0.77,0.84 -0.87,0.35 -1.1,0.41 -1.1,0.31 0,-0.05 -0.14,-0.42 -0.75,-1.97 -0.09,-0.24 -0.28,-0.72 -0.41,-1.06 -0.13,-0.34 -0.32,-0.82 -0.42,-1.07 -0.07,-0.17 -0.13,-0.34 -0.17,-0.52 0,-0.06 0.68,-0.39 0.84,-0.4 0.08,0.08 0.13,0.18 0.17,0.28l-0 -0.01zm29.62 -0.11c-0.58,0.21 -0.97,0.77 -0.97,1.39 0,0.05 0,0.11 0.01,0.16 0.15,1.91 3.07,1.77 3.06,-0.15 0,-1.05 -1.08,-1.76 -2.1,-1.4l0 -0zm1.14 0.25c0.98,0.46 0.87,2.08 -0.16,2.4 -0.13,0.04 -0.26,0.06 -0.4,0.06 -0.71,0 -1.28,-0.57 -1.28,-1.28 0,-0.05 0,-0.11 0.01,-0.16 0.05,-0.66 0.6,-1.16 1.26,-1.16 0.2,0 0.4,0.05 0.57,0.14l0 0zm-1.12 1.18l0 0.78 0.13 0c0.13,0 0.13,-0.01 0.13,-0.34l0 -0.34 0.17 0c0.25,0 0.45,0.18 0.48,0.43 0.03,0.17 0.07,0.22 0.16,0.24 0.18,0.03 0.09,-0.49 -0.12,-0.66 -0.07,-0.06 -0.06,-0.08 0.08,-0.21 0.38,-0.35 0.14,-0.64 -0.54,-0.66l-0.5 -0.02 0 0.78 0 0.01zm0.85 -0.53c0.2,0.22 -0.01,0.47 -0.4,0.47l-0.19 0 0 -0.57 0.25 0c0.18,0 0.28,0.03 0.34,0.1l0 0zm-16.49 0.25c-0.23,0.45 -0.34,0.8 -0.26,0.83 0.23,0.09 0.63,-0.44 0.56,-0.73 -0.05,-0.22 -0.21,-0.27 -0.3,-0.1l0 0zm3.57 0.56c0.14,0.08 0.27,0.17 0.38,0.28 0,0.02 -0.48,0.8 -1.07,1.73 -0.59,0.93 -1.05,1.72 -1.04,1.75 0.13,0.13 0.28,0.23 0.44,0.32 0.15,0.08 0.29,0.18 0.42,0.3 0,0.08 -0.47,0.76 -0.52,0.76 -0.59,-0.33 -1.18,-0.7 -1.73,-1.09 -0.02,-0.03 1.08,-1.83 1.97,-3.21 0.06,-0.1 0.24,-0.39 0.4,-0.63 0.33,-0.53 0.27,-0.52 0.75,-0.22l-0 0zm-20.18 -0.04c1.15,0.55 2.19,2.56 1.88,3.65 -0.11,0.4 -0.8,1.01 -1.4,1.24 -0.08,0.03 -0.26,-0.26 -1.85,-2.95 -0.27,-0.45 -0.56,-0.93 -0.64,-1.06 -0.2,-0.31 -0.19,-0.32 0.15,-0.53 0.91,-0.56 1.28,-0.63 1.86,-0.35l0 -0zm-0.72 0.87c-0.11,0.03 -0.09,0.08 0.6,1.23 0.27,0.46 0.55,0.92 0.61,1.03 0.06,0.11 0.13,0.21 0.21,0.31l0.09 0.11 0.1 -0.12c0.44,-0.52 -0.96,-2.75 -1.62,-2.56l0 0zm8.45 13.17l0 8.43 9.94 0 -0.01 2.32 -0.01 2.32 -7.19 0.01c-5.27,0.01 -7.21,0 -7.26,-0.05 -0.08,-0.06 -0.11,-21.36 -0.03,-21.44 0.02,-0.02 1.06,-0.03 2.3,-0.03l2.27 0 0 8.44 0 0zm-15.84 2.3l0 6.14 1.82 -0.02c2.82,-0.03 3.38,-0.32 3.75,-1.91 0.13,-0.58 0.13,-8 0,-8.58 -0.34,-1.49 -0.81,-1.7 -3.8,-1.75l-1.77 -0.03 0 6.14 0 0zm38.22 -2.89c0.06,0.17 0.03,5.59 -0.03,5.65 -0.07,0.07 -4.14,0.09 -4.31,0.03 -0.09,-0.03 -0.13,-5.65 -0.05,-5.73 0.08,-0.08 4.35,-0.04 4.39,0.05l0 0zm-27.33 15.36c0.49,0.26 0.51,0.08 -0.18,1.41 -0.32,0.62 -0.74,1.43 -0.93,1.81l-0.35 0.69 0.49 0.24c0.56,0.28 0.54,0.24 0.34,0.63 -0.28,0.56 -0.17,0.55 -1.19,0.04 -0.49,-0.25 -0.91,-0.47 -0.92,-0.5 -0.01,-0.02 0.24,-0.59 1.17,-2.4 0.25,-0.48 0.6,-1.16 0.78,-1.51 0.1,-0.22 0.22,-0.43 0.36,-0.62 0.02,0.01 0.21,0.11 0.44,0.22l0 -0zm14.31 0.55c0.96,0.46 1.91,2.4 1.72,3.49 -0.11,0.62 -0.37,0.91 -1.17,1.29l-0.48 0.23 -0.08 -0.11c-0.03,-0.04 -0.06,-0.09 -0.08,-0.15 0,-0.02 -0.23,-0.51 -0.52,-1.09 -0.29,-0.58 -0.63,-1.29 -0.77,-1.6 -0.14,-0.3 -0.37,-0.77 -0.5,-1.03 -0.31,-0.64 -0.32,-0.61 0.19,-0.85 0.75,-0.36 1.2,-0.41 1.68,-0.18l0 -0.01zm-11.67 0.62c0.46,0.14 0.46,0 -0.06,1.55 -0.25,0.75 -0.6,1.81 -0.78,2.35 -0.17,0.54 -0.34,1 -0.37,1.03 -0.02,0.03 -0.8,-0.19 -0.89,-0.28 -0.03,-0.03 1.45,-4.62 1.55,-4.77 0.02,-0.03 0.07,-0.04 0.12,-0.02l0.43 0.13 -0 0zm8.75 0.52c0.12,0.53 0.13,0.51 -0.4,0.65 -0.26,0.07 -0.47,0.13 -0.48,0.14 -0.04,0.04 0.24,0.89 0.3,0.91 0.15,-0.01 0.3,-0.04 0.45,-0.08 0.43,-0.11 0.4,-0.13 0.53,0.39 0.12,0.48 0.13,0.45 -0.3,0.55 -0.53,0.13 -0.51,0.1 -0.38,0.66 0.15,0.66 0.12,0.63 0.61,0.51 0.64,-0.16 0.61,-0.17 0.73,0.32 0.05,0.14 0.07,0.29 0.07,0.44 0,0.01 0,0.02 0,0.03 -0.06,0.07 -1.93,0.52 -1.97,0.47 -0.02,-0.02 -0.18,-0.63 -0.36,-1.34 -0.17,-0.71 -0.35,-1.41 -0.39,-1.55 -0.04,-0.14 -0.12,-0.46 -0.18,-0.7 -0.05,-0.24 -0.15,-0.63 -0.21,-0.85 -0.13,-0.51 -0.2,-0.45 0.88,-0.73 1.08,-0.27 0.98,-0.29 1.1,0.18l-0 0.01zm2.15 -0.29c-0.03,0.04 0.09,0.32 0.7,1.57 0.24,0.5 0.45,0.96 0.47,1.02 0.07,0.21 0.17,0.24 0.28,0.09 0.45,-0.57 -0.97,-3.17 -1.46,-2.68l0 0zm-8.43 0.36c0.15,0.03 0.28,0.09 0.4,0.17l0.14 0.12 -0.06 0.45c-0.08,0.57 -0.09,0.58 -0.37,0.36 -0.63,-0.5 -0.71,-0.13 -0.29,1.24 0.55,1.76 0.23,2.75 -0.87,2.74 -0.74,-0.01 -0.95,-0.25 -0.84,-0.95 0.1,-0.65 0.08,-0.63 0.41,-0.28 0.6,0.64 0.78,0.17 0.39,-1.01 -0.65,-1.94 -0.2,-3.12 1.1,-2.84l-0 0zm3.64 0.56c0.05,0.52 0.01,0.57 -0.41,0.57l-0.27 0 0.02 0.53c0.07,1.58 0.12,3.54 0.08,3.57 -0.11,0.02 -0.23,0.03 -0.34,0.03 -0.05,0 -0.11,-0 -0.16,-0.01l-0.46 -0.02 -0.03 -0.7c-0.02,-0.39 -0.05,-1.29 -0.07,-2.03l-0.04 -1.33 -0.34 -0.01 -0.34 -0.02 -0.01 -0.48 -0.02 -0.48 0.19 0 1.03 -0.04c0.46,-0.02 0.9,-0.03 0.98,-0.03l0.16 0 0.04 0.44 0 0zm-26.36 2.13c0.01,0.12 0.03,0.23 0.06,0.35 0.03,0.13 0.11,0.52 0.18,0.88 0.07,0.35 0.21,1.09 0.31,1.63 0.46,2.41 0.45,2.14 0.18,3.34 -0.05,0.24 -0.16,0.76 -0.23,1.14 -0.37,1.89 -0.44,2.21 -0.48,2.39l-0.05 0.19 2.47 0 0 -6.86 1 -0.03c0.55,-0.02 1.78,-0.02 2.74,-0.02 0.96,0.01 1.75,-0.01 1.75,-0.02 0,-0.02 -0.31,-0.31 -0.69,-0.65 -0.38,-0.34 -1.1,-1.03 -1.61,-1.53l-0.93 -0.92 -4.69 0 0 0.12 0 -0.01zm43.55 0.8c-0.51,0.5 -1.24,1.2 -1.62,1.54l-0.69 0.62 0.35 0.03c0.2,0.02 1.4,0.03 2.67,0.02 1.7,-0.01 2.33,0 2.36,0.05 0.03,0.05 0.05,1.46 0.05,3.4 0,1.84 0,3.36 0.01,3.4 0.01,0.11 2.49,0.09 2.49,-0.02 0,-0.05 -0.06,-0.36 -0.13,-0.69 -0.14,-0.65 -0.21,-1.01 -0.45,-2.2 -0.08,-0.43 -0.2,-1 -0.26,-1.27 -0.13,-0.65 -0.13,-0.71 0.05,-1.6 0.08,-0.42 0.23,-1.2 0.34,-1.74 0.1,-0.54 0.24,-1.28 0.31,-1.63 0.07,-0.36 0.13,-0.69 0.13,-0.74 0,-0.08 -0.17,-0.09 -2.35,-0.09l-2.34 0 -0.93 0.92 0 -0zm-40.03 7.7l0 4.43 42.13 0 0 -8.85 -42.13 0 0 4.43 0 0zm5.38 -2.79c0.61,0.29 1,0.91 1,1.58 0,0.26 -0.06,0.52 -0.17,0.75 -0.34,0.74 -0.81,0.99 -1.92,1.04l-0.65 0.03 -0.01 1.2 -0.01 1.2 -1.19 0 0 -2.96c0,-1.63 0.02,-2.99 0.04,-3.01 0.28,-0.02 0.57,-0.03 0.86,-0.03 0.15,0 0.3,0.01 0.45,0.01l1.27 0.02 0.34 0.16 0 -0zm4.36 -0.08c1.31,0.41 1.73,1.96 0.77,2.88l-0.23 0.22 0.16 0.17c0.24,0.26 0.43,0.53 0.87,1.23 0.22,0.36 0.51,0.78 0.63,0.95 0.36,0.48 0.39,0.45 -0.42,0.45l-0.7 0 -0.3 -0.45c-0.17,-0.25 -0.41,-0.63 -0.53,-0.84 -0.41,-0.7 -0.91,-1.14 -1.26,-1.14l-0.13 0 0 2.44 -0.61 -0.01 -0.61 -0.01 -0.01 -2.92c-0.01,-1.61 0,-2.95 0.01,-2.99 0.05,-0.12 1.96,-0.09 2.37,0.04l0 0zm6.81 0.45l0.02 0.53 -2.38 0 0 1.35 2.28 0 0 1.14 -2.28 0 0.01 0.66 0.01 0.66 1.22 0.03 1.22 0.03 0 1.03 -1.82 0.01 -1.82 0.01 0 -6.01 1.77 0.01 1.77 0.01 0.01 0.53 0 0zm2.42 -0.36c0.08,0.11 0.26,0.34 0.41,0.52 0.15,0.18 0.47,0.58 0.72,0.89 0.25,0.32 0.47,0.57 0.48,0.57 0.01,0 0.4,-0.49 0.88,-1.09l0.87 -1.09 1.02 0 0 6 -1.19 0 -0.01 -1.97 -0.01 -1.97 -0.52 0.66c-0.28,0.36 -0.59,0.76 -0.69,0.88 -0.31,0.42 -0.39,0.38 -1.21,-0.65 -0.38,-0.48 -0.71,-0.88 -0.73,-0.88 -0.02,-0 -0.04,0.88 -0.04,1.96l0 1.97 -1.19 0 0 -2.97c0,-1.63 0.02,-2.98 0.03,-3 0.14,-0.03 0.28,-0.04 0.42,-0.04 0.04,0 0.08,0 0.12,0l0.5 0 0.15 0.19 0 -0zm7.1 2.82l0.01 2.99 -1.19 0 0 -6.01 0.58 0.02 0.58 0.01 0.01 2.99 0 0zm2.61 -0.96c0.01,1.53 0.03,2.1 0.08,2.21 0.37,0.85 1.98,0.96 2.52,0.18l0.15 -0.22 0.03 -2.1 0.03 -2.1 0.58 -0.01 0.58 -0.02 0 2.04c0,2.22 -0.02,2.42 -0.27,2.87 -0.91,1.61 -3.86,1.57 -4.66,-0.06 -0.21,-0.43 -0.24,-0.8 -0.24,-2.89l0 -1.96 1.18 0 0.02 2.06 0 0zm7.31 -0.97c0.48,0.6 0.88,1.09 0.88,1.09 0.01,0 0.43,-0.52 1.68,-2.08 0.07,-0.09 0.14,-0.1 0.6,-0.08l0.52 0.02 0.01 2.99 0.01 2.99 -1.19 0 0 -1.97c0,-1.16 -0.02,-1.96 -0.05,-1.95 -0.03,0.01 -0.36,0.41 -0.73,0.88 -0.91,1.15 -0.78,1.15 -1.73,-0.04l-0.72 -0.91 -0.01 1.99 -0.01 1.99 -1.19 0 0 -6 1.07 0 0.87 1.09 0 0zm-32.35 0.06c-0.01,0.14 -0.02,0.29 -0.02,0.43 0,0.09 0,0.17 0.01,0.26l0.01 0.62 0.52 0c0.82,0 1.21,-0.45 0.91,-1.02 -0.15,-0.28 -1.34,-0.52 -1.42,-0.28l-0.01 -0zm4.95 0.65l0 0.7 0.19 -0.03c0.13,-0.02 0.26,-0.03 0.39,-0.03 0.32,0 0.6,-0.31 0.6,-0.66 0,-0.45 -0.3,-0.69 -0.88,-0.69l-0.31 0 0 0.71 0.01 0zm0 0l0 0 0 0z"/>
       </g>
      </g>
     </g>
    </g>
   </g>
   <g id="NOM">
    <g id="Layer_2_0" data-name="Layer 2">
     <g id="Layer_1-2" data-name="Layer 1">
      <rect class="fil1" x="216.73" y="82.09" width="47.54" height="4.23"/>
      <rect class="fil1" x="216.73" y="122.73" width="47.54" height="4.23"/>
      <polygon class="fil1" points="216.73,118.93 216.73,89.94 220.7,89.94 224.24,102.71 224.24,89.94 228.12,89.94 228.12,118.93 224.24,118.93 220.7,104.97 220.7,118.93 "/>
      <polygon class="fil1" points="259.78,89.94 256.24,102.71 255.51,105.35 254.78,102.71 251.24,89.94 247.27,89.94 247.27,118.93 251.24,118.93 251.24,104.97 253.56,112.34 253.57,112.34 257.45,112.34 257.45,112.34 259.78,104.97 259.78,118.93 263.74,118.93 263.74,89.94 "/>
      <path class="fil1" d="M237.71 89.31c-3.26,0 -5.93,2.83 -5.93,6.3l0 17.03c0,3.46 2.67,6.3 5.93,6.3 3.26,0 5.93,-2.83 5.93,-6.3l0 -17.03c-0,-3.46 -2.67,-6.3 -5.93,-6.3zm1.94 21.57c0,3.04 -0.87,4.07 -1.94,4.07 -1.07,0 -1.94,-1.03 -1.94,-4.07l0 -13.51c0,-2.57 0.87,-3.33 1.94,-3.33 1.07,0 1.94,0.6 1.94,3.33l0 13.51z"/>
     </g>
    </g>
   </g>
   <g id="KC">
    <g id="Layer_2_1" data-name="Layer 2">
     <g id="Layer_1-2_2" data-name="Layer 1">
      <path class="fil3" d="M337.98 83.09c-0,0 -0.01,0 -0.01,0 -5.27,0 -10.34,2.06 -14.11,5.75l-0 -5.75 -8.8 0 0 40.49 8.8 0 0 -5.73c3.77,3.67 8.83,5.73 14.1,5.73 0.01,0 0.02,0 0.03,0l3.28 0 0 -2.45 -3.28 0c-7.33,-0.01 -13.91,-4.51 -16.58,-11.34l0 11.34 -3.88 0 0 -35.58 3.88 0 0 11.34c2.67,-6.82 9.25,-11.33 16.58,-11.34l0.83 0 0 3.89 -0.83 0c-7.68,0 -13.91,6.23 -13.91,13.91 0,7.68 6.23,13.91 13.91,13.91l3.28 0 0 -8.8 -3.28 0c-2.82,0 -5.11,-2.29 -5.11,-5.11 0,-2.82 2.29,-5.11 5.11,-5.11l3.28 0 0 -2.46 -3.28 0c-4.18,0 -7.57,3.39 -7.57,7.57 0,4.18 3.39,7.57 7.57,7.57l0.83 0 0 3.89 -0.83 0c-6.32,0 -11.45,-5.13 -11.45,-11.45 0,-6.32 5.13,-11.45 11.45,-11.45l3.28 0 0 -8.8 -3.28 0z"/>
     </g>
    </g>
   </g>
   <g id="_1559513798592">
    <path class="fil4" d="M211.25 56.34l-37.25 0c-1.12,0 -2.04,-0.92 -2.04,-2.04l0 -52.26c0,-1.12 0.92,-2.04 2.04,-2.04l37.25 0c1.12,0 2.04,0.92 2.04,2.04l0 52.26c0,1.12 -0.92,2.04 -2.04,2.04z"/>
    <path class="fil4" d="M243.21 56.47l-24.84 0c-1.12,0 -2.04,-0.92 -2.04,-2.04l0 -52.39c0,-1.12 0.92,-2.04 2.04,-2.04l24.84 0c1.12,0 2.04,0.92 2.04,2.04l0 52.39c0,1.12 -0.92,2.04 -2.04,2.04z"/>
    <path class="fil4" d="M200.47 28.17c0,15.56 -12.76,28.17 -28.51,28.17 -15.74,0 -28.51,-12.61 -28.51,-28.17 0,-15.56 12.76,-28.17 28.51,-28.17 15.74,0 28.51,12.61 28.51,28.17z"/>
    <path class="fil5" d="M196.6 27.54c0,13.61 -11.03,24.64 -24.64,24.64 -13.61,0 -24.64,-11.03 -24.64,-24.64 0,-13.61 11.03,-24.64 24.64,-24.64 13.61,0 24.64,11.03 24.64,24.64z"/>
    <path class="fil4" d="M157.97 13.47c-0.04,0.15 -0.06,4.17 -0.04,8.92l0.04 8.63 0.32 0.86c0.98,2.67 3.31,4.09 6.71,4.09 1.61,0.01 2.56,-0.18 3.76,-0.76 1.13,-0.54 2.14,-1.47 2.64,-2.47 0.68,-1.34 0.7,-1.64 0.7,-10.98l0 -8.6 -2.65 0.03 -2.66 0.04 -0.02 8.66c-0.04,9.27 -0.01,9.03 -0.67,9.62 -0.37,0.33 -1.39,0.42 -1.91,0.15 -0.23,-0.12 -0.52,-0.44 -0.67,-0.72 -0.24,-0.49 -0.26,-0.74 -0.26,-9.15l0 -8.63 -2.62 0c-2.61,0 -2.62,0 -2.69,0.29z"/>
    <path class="fil4" d="M175.64 21.94c-0.05,0.18 -0.08,5.27 -0.08,11.32l0.01 11 5.76 0 5.74 0 0 -2.47 0 -2.46 -3.04 0 -3.03 0 -0.06 -8.83 -0.06 -8.83 -2.57 -0.02 -2.58 -0.04 -0.08 0.32z"/>
    <path class="fil5" d="M223.18 12.53c0,0.39 -0.32,0.71 -0.71,0.71 -0.39,0 -0.71,-0.32 -0.71,-0.71 0,-0.39 0.32,-0.71 0.71,-0.71 0.39,0 0.71,0.32 0.71,0.71z"/>
    <path class="fil5" d="M204.98 48l0.52 -1.71c0.48,0.12 0.88,0.3 1.2,0.54 0.32,0.25 0.56,0.55 0.73,0.92 0.16,0.37 0.24,0.83 0.24,1.4 0,0.69 -0.1,1.25 -0.3,1.68 -0.2,0.44 -0.55,0.81 -1.05,1.13 -0.5,0.32 -1.14,0.47 -1.93,0.47 -1.04,0 -1.85,-0.28 -2.41,-0.83 -0.56,-0.56 -0.84,-1.34 -0.84,-2.36 0,-0.8 0.16,-1.42 0.48,-1.87 0.32,-0.45 0.82,-0.79 1.48,-1.01l0.38 1.72c-0.19,0.06 -0.33,0.12 -0.42,0.19 -0.15,0.11 -0.26,0.24 -0.34,0.4 -0.08,0.16 -0.12,0.33 -0.12,0.53 0,0.44 0.18,0.78 0.53,1.02 0.26,0.18 0.68,0.27 1.24,0.27 0.7,0 1.18,-0.11 1.44,-0.32 0.26,-0.21 0.39,-0.51 0.39,-0.89 0,-0.37 -0.1,-0.66 -0.31,-0.85 -0.21,-0.19 -0.51,-0.33 -0.91,-0.42z"/>
    <polygon class="fil5" points="201.25,45.57 201.25,40.34 202.6,40.34 202.6,43.61 203.61,43.61 203.61,40.58 204.89,40.58 204.89,43.61 206.14,43.61 206.14,40.25 207.56,40.25 207.56,45.57 "/>
    <path class="fil5" d="M203.81 37.43l0 -0.82c0,-0.09 -0.03,-0.26 -0.09,-0.52 -0.03,-0.13 -0.09,-0.23 -0.2,-0.32 -0.11,-0.08 -0.23,-0.12 -0.37,-0.12 -0.2,0 -0.36,0.06 -0.47,0.19 -0.11,0.13 -0.16,0.37 -0.16,0.73l0 0.86 1.28 0zm3.75 1.96l-6.31 0 0 -3.25c0,-0.6 0.05,-1.06 0.16,-1.38 0.1,-0.32 0.3,-0.58 0.57,-0.77 0.28,-0.2 0.62,-0.29 1.02,-0.29 0.35,0 0.65,0.07 0.91,0.22 0.25,0.15 0.46,0.35 0.62,0.62 0.1,0.17 0.18,0.39 0.25,0.69 0.08,-0.23 0.16,-0.4 0.23,-0.51 0.05,-0.07 0.16,-0.18 0.33,-0.31 0.17,-0.14 0.3,-0.23 0.39,-0.27l1.83 -0.94 0 2.2 -1.93 1.04c-0.25,0.13 -0.41,0.25 -0.49,0.35 -0.1,0.14 -0.15,0.3 -0.15,0.48l0 0.17 2.56 0 0 1.96z"/>
    <polygon class="fil5" points="201.25,33.3 201.25,27.38 202.81,27.38 202.81,29.37 207.56,29.37 207.56,31.31 202.81,31.31 202.81,33.3 "/>
    <polygon class="fil5" points="201.25,24.68 207.56,24.68 207.56,26.64 201.25,26.64 "/>
    <polygon class="fil5" points="201.25,23.5 201.25,18.68 202.61,18.68 202.61,21.54 203.71,21.54 203.71,19.09 204.99,19.09 204.99,21.54 207.56,21.54 207.56,23.5 "/>
    <polygon class="fil5" points="201.25,15.82 207.56,15.82 207.56,17.77 201.25,17.77 "/>
    <polygon class="fil5" points="201.25,14.64 201.25,9.42 202.6,9.42 202.6,12.69 203.61,12.69 203.61,9.65 204.89,9.65 204.89,12.69 206.14,12.69 206.14,9.32 207.56,9.32 207.56,14.64 "/>
    <path class="fil5" d="M202.68 6.52l3.45 0 0 -0.48c0,-0.41 -0.04,-0.7 -0.13,-0.87 -0.09,-0.17 -0.25,-0.31 -0.47,-0.4 -0.23,-0.1 -0.59,-0.15 -1.1,-0.15 -0.67,0 -1.13,0.11 -1.37,0.33 -0.25,0.22 -0.37,0.58 -0.37,1.09l0 0.49zm-1.43 1.95l0 -2.9c0,-0.57 0.08,-1.03 0.23,-1.38 0.15,-0.35 0.38,-0.64 0.67,-0.87 0.29,-0.23 0.63,-0.4 1.01,-0.5 0.38,-0.1 0.79,-0.15 1.22,-0.15 0.67,0 1.2,0.08 1.57,0.23 0.37,0.15 0.68,0.37 0.93,0.64 0.25,0.27 0.42,0.56 0.5,0.88 0.12,0.43 0.17,0.81 0.17,1.16l0 2.9 -6.31 0z"/>
    <path class="fil5" d="M193.12 2.64c-1.69,0 -3.06,1.31 -3.06,2.93 0,1.61 1.37,2.93 3.06,2.93 1.69,0 3.06,-1.31 3.06,-2.93 0,-1.62 -1.37,-2.93 -3.06,-2.93zm0 6.71c-2.16,0 -3.91,-1.7 -3.91,-3.78 0,-2.08 1.75,-3.78 3.91,-3.78 2.15,0 3.91,1.7 3.91,3.78 0,2.08 -1.75,3.78 -3.91,3.78z"/>
    <path class="fil5" d="M192.53 5.09l0.57 0c0.06,0 0.18,-0.02 0.36,-0.06 0.09,-0.02 0.16,-0.06 0.22,-0.14 0.06,-0.07 0.09,-0.16 0.09,-0.25 0,-0.14 -0.05,-0.25 -0.13,-0.33 -0.09,-0.08 -0.26,-0.11 -0.5,-0.11l-0.59 0 0 0.89zm-1.36 2.6l0 -4.38 2.25 0c0.42,0 0.74,0.03 0.96,0.11 0.22,0.07 0.4,0.2 0.53,0.4 0.14,0.19 0.2,0.43 0.2,0.71 0,0.24 -0.05,0.45 -0.16,0.63 -0.1,0.18 -0.25,0.32 -0.43,0.43 -0.12,0.07 -0.27,0.13 -0.48,0.17 0.16,0.05 0.28,0.11 0.35,0.16 0.05,0.03 0.12,0.11 0.22,0.23 0.09,0.12 0.16,0.21 0.19,0.27l0.66 1.27 -1.53 0 -0.72 -1.34c-0.09,-0.17 -0.17,-0.29 -0.24,-0.34 -0.1,-0.07 -0.21,-0.1 -0.33,-0.1l-0.12 0 0 1.78 -1.36 0z"/>
    <path class="fil5" d="M223.42 53.75l-0.1 -1.41c0.26,-0.03 0.46,-0.09 0.6,-0.19 0.22,-0.15 0.33,-0.37 0.33,-0.65 0,-0.21 -0.06,-0.37 -0.17,-0.49 -0.11,-0.11 -0.25,-0.17 -0.4,-0.17 -0.14,0 -0.27,0.05 -0.38,0.16 -0.11,0.11 -0.22,0.36 -0.32,0.76 -0.17,0.65 -0.39,1.11 -0.67,1.39 -0.28,0.28 -0.63,0.42 -1.06,0.42 -0.28,0 -0.55,-0.07 -0.8,-0.21 -0.25,-0.14 -0.45,-0.36 -0.59,-0.64 -0.14,-0.29 -0.21,-0.68 -0.21,-1.18 0,-0.61 0.13,-1.08 0.39,-1.4 0.26,-0.32 0.68,-0.51 1.25,-0.57l0.09 1.39c-0.25,0.04 -0.43,0.12 -0.54,0.23 -0.11,0.12 -0.17,0.28 -0.17,0.49 0,0.17 0.04,0.3 0.13,0.39 0.08,0.09 0.19,0.13 0.31,0.13 0.09,0 0.17,-0.04 0.24,-0.11 0.07,-0.07 0.14,-0.24 0.2,-0.5 0.16,-0.65 0.32,-1.11 0.49,-1.39 0.16,-0.28 0.37,-0.48 0.61,-0.61 0.24,-0.13 0.51,-0.19 0.81,-0.19 0.35,0 0.68,0.09 0.98,0.26 0.3,0.17 0.52,0.41 0.68,0.71 0.15,0.3 0.23,0.69 0.23,1.15 0,0.81 -0.18,1.38 -0.54,1.69 -0.36,0.31 -0.82,0.49 -1.37,0.53z"/>
    <path class="fil5" d="M223.15 46.2l-1.98 0.53 1.98 0.52 0 -1.05zm1.19 -0.31l0 1.68 0.91 0.23 0 1.51 -5.5 -1.8 0 -1.61 5.5 -1.8 0 1.55 -0.91 0.24z"/>
    <polygon class="fil5" points="219.74,43.8 219.74,40.15 220.93,40.15 220.93,42.32 221.89,42.32 221.89,40.47 223,40.47 223,42.32 225.24,42.32 225.24,43.8 "/>
    <polygon class="fil5" points="219.74,39.52 219.74,35.57 220.92,35.57 220.92,38.04 221.79,38.04 221.79,35.75 222.91,35.75 222.91,38.04 224,38.04 224,35.49 225.24,35.49 225.24,39.52 "/>
    <polygon class="fil5" points="219.74,35.2 219.74,30.71 221.1,30.71 221.1,32.22 225.24,32.22 225.24,33.69 221.1,33.69 221.1,35.2 "/>
    <polygon class="fil5" points="219.74,30.69 219.74,29.05 221.6,28.09 219.74,27.12 219.74,25.49 222.94,27.35 225.24,27.35 225.24,28.83 222.94,28.83 "/>
    <path class="fil5" d="M219.74 20.01l0 -1.47 3.28 0c0.32,0 0.63,0.04 0.92,0.13 0.29,0.09 0.54,0.23 0.76,0.41 0.22,0.19 0.37,0.39 0.46,0.59 0.12,0.29 0.18,0.63 0.18,1.03 0,0.23 -0.02,0.49 -0.06,0.76 -0.04,0.27 -0.11,0.51 -0.22,0.69 -0.11,0.18 -0.27,0.35 -0.47,0.51 -0.2,0.15 -0.42,0.26 -0.63,0.31 -0.35,0.09 -0.66,0.14 -0.93,0.14l-3.28 0 0 -1.47 3.36 0c0.3,0 0.53,-0.07 0.7,-0.22 0.17,-0.14 0.25,-0.34 0.25,-0.6 0,-0.26 -0.08,-0.45 -0.25,-0.6 -0.17,-0.15 -0.4,-0.22 -0.71,-0.22l-3.36 0z"/>
    <path class="fil5" d="M223.42 17.98l-0.1 -1.41c0.26,-0.03 0.46,-0.09 0.6,-0.19 0.22,-0.15 0.33,-0.37 0.33,-0.65 0,-0.21 -0.06,-0.37 -0.17,-0.49 -0.11,-0.11 -0.25,-0.17 -0.4,-0.17 -0.14,0 -0.27,0.05 -0.38,0.16 -0.11,0.11 -0.22,0.36 -0.32,0.76 -0.17,0.65 -0.39,1.11 -0.67,1.39 -0.28,0.28 -0.63,0.42 -1.06,0.42 -0.28,0 -0.55,-0.07 -0.8,-0.21 -0.25,-0.14 -0.45,-0.36 -0.59,-0.64 -0.14,-0.29 -0.21,-0.68 -0.21,-1.17 0,-0.61 0.13,-1.08 0.39,-1.4 0.26,-0.32 0.68,-0.51 1.25,-0.57l0.09 1.39c-0.25,0.04 -0.43,0.11 -0.54,0.23 -0.11,0.12 -0.17,0.28 -0.17,0.49 0,0.17 0.04,0.3 0.13,0.39 0.08,0.09 0.19,0.13 0.31,0.13 0.09,0 0.17,-0.03 0.24,-0.11 0.07,-0.07 0.14,-0.23 0.2,-0.5 0.16,-0.64 0.32,-1.11 0.49,-1.39 0.16,-0.28 0.37,-0.48 0.61,-0.61 0.24,-0.13 0.51,-0.19 0.81,-0.19 0.35,0 0.68,0.08 0.98,0.25 0.3,0.17 0.52,0.41 0.68,0.71 0.15,0.3 0.23,0.69 0.23,1.15 0,0.81 -0.18,1.38 -0.54,1.69 -0.36,0.31 -0.82,0.49 -1.37,0.53z"/>
    <path class="fil5" d="M222.99 7.83l0.45 -1.29c0.42,0.09 0.77,0.22 1.05,0.41 0.28,0.19 0.49,0.42 0.63,0.7 0.14,0.28 0.21,0.63 0.21,1.06 0,0.52 -0.09,0.94 -0.26,1.27 -0.17,0.33 -0.48,0.61 -0.92,0.85 -0.44,0.24 -1,0.36 -1.68,0.36 -0.91,0 -1.61,-0.21 -2.1,-0.63 -0.49,-0.42 -0.73,-1.02 -0.73,-1.78 0,-0.6 0.14,-1.08 0.42,-1.42 0.28,-0.34 0.71,-0.6 1.29,-0.77l0.33 1.3c-0.17,0.05 -0.29,0.09 -0.37,0.14 -0.13,0.08 -0.23,0.18 -0.3,0.3 -0.07,0.12 -0.1,0.25 -0.1,0.4 0,0.33 0.15,0.59 0.46,0.77 0.23,0.13 0.59,0.2 1.08,0.2 0.61,0 1.03,-0.08 1.25,-0.24 0.23,-0.16 0.34,-0.39 0.34,-0.68 0,-0.28 -0.09,-0.5 -0.27,-0.64 -0.18,-0.14 -0.45,-0.25 -0.8,-0.31z"/>
    <path class="fil5" d="M223.15 3.35l-1.98 0.53 1.98 0.52 0 -1.05zm1.19 -0.31l0 1.68 0.91 0.23 0 1.51 -5.5 -1.8 0 -1.61 5.5 -1.8 0 1.55 -0.91 0.24z"/>
    <polygon class="fil5" points="231.12,52.94 231.12,46.37 232.82,46.37 232.82,50.49 234.08,50.49 234.08,46.67 235.69,46.67 235.69,50.49 237.26,50.49 237.26,46.25 239.06,46.25 239.06,52.94 "/>
    <path class="fil5" d="M235.86 41.5l-2.5 0 2.5 2.12 0 -2.12zm1.71 0l0 4.02 -1.81 0 -4.77 -4.02 0 -1.92 4.88 0 0 -1 1.71 0 0 1 1.48 0 0 1.92 -1.48 0z"/>
    <path class="fil5" d="M233.74 33.74c-0.43,0 -0.77,0.11 -1.01,0.32 -0.24,0.22 -0.37,0.48 -0.37,0.79 0,0.29 0.11,0.53 0.33,0.73 0.22,0.19 0.55,0.29 0.99,0.29 0.44,0 0.78,-0.1 1.02,-0.3 0.23,-0.2 0.35,-0.45 0.35,-0.75 0,-0.31 -0.11,-0.57 -0.34,-0.77 -0.23,-0.21 -0.55,-0.31 -0.97,-0.31zm3.54 4.06l-0.28 -2.19c0.31,-0.06 0.52,-0.16 0.65,-0.29 0.13,-0.14 0.19,-0.3 0.19,-0.5 0,-0.35 -0.18,-0.63 -0.53,-0.83 -0.26,-0.15 -0.82,-0.25 -1.67,-0.33 0.27,0.26 0.47,0.53 0.6,0.81 0.13,0.28 0.19,0.6 0.19,0.96 0,0.71 -0.25,1.31 -0.76,1.8 -0.51,0.49 -1.14,0.73 -1.92,0.73 -0.53,0 -1.01,-0.12 -1.44,-0.37 -0.43,-0.25 -0.76,-0.59 -0.98,-1.03 -0.22,-0.44 -0.33,-0.98 -0.33,-1.64 0,-0.79 0.14,-1.43 0.41,-1.91 0.27,-0.48 0.71,-0.86 1.3,-1.15 0.59,-0.29 1.38,-0.43 2.35,-0.43 1.43,0 2.48,0.3 3.15,0.9 0.67,0.6 1,1.44 1,2.51 0,0.63 -0.07,1.13 -0.22,1.49 -0.15,0.36 -0.36,0.67 -0.64,0.91 -0.28,0.24 -0.63,0.43 -1.06,0.56z"/>
    <path class="fil5" d="M230.99 25.51l8.07 0 0 2.23 -5.29 0c0.27,0.36 0.5,0.71 0.67,1.05 0.17,0.34 0.33,0.76 0.49,1.27l-1.81 0c-0.24,-0.75 -0.53,-1.33 -0.87,-1.75 -0.34,-0.41 -0.76,-0.74 -1.25,-0.97l0 -1.82z"/>
    <path class="fil5" d="M233.74 18.95c-0.43,0 -0.77,0.11 -1.01,0.33 -0.24,0.22 -0.37,0.48 -0.37,0.79 0,0.29 0.11,0.53 0.33,0.73 0.22,0.19 0.55,0.29 0.99,0.29 0.44,0 0.78,-0.1 1.02,-0.3 0.23,-0.2 0.35,-0.45 0.35,-0.75 0,-0.31 -0.11,-0.57 -0.34,-0.77 -0.23,-0.21 -0.55,-0.31 -0.97,-0.31zm3.54 4.06l-0.28 -2.19c0.31,-0.06 0.52,-0.16 0.65,-0.29 0.13,-0.14 0.19,-0.3 0.19,-0.5 0,-0.35 -0.18,-0.63 -0.53,-0.83 -0.26,-0.14 -0.82,-0.25 -1.67,-0.32 0.27,0.26 0.47,0.53 0.6,0.81 0.13,0.28 0.19,0.6 0.19,0.96 0,0.71 -0.25,1.31 -0.76,1.8 -0.51,0.49 -1.14,0.73 -1.92,0.73 -0.53,0 -1.01,-0.12 -1.44,-0.37 -0.43,-0.25 -0.76,-0.59 -0.98,-1.03 -0.22,-0.44 -0.33,-0.99 -0.33,-1.65 0,-0.79 0.14,-1.43 0.41,-1.91 0.27,-0.48 0.71,-0.86 1.3,-1.15 0.59,-0.29 1.38,-0.43 2.35,-0.43 1.43,0 2.48,0.3 3.15,0.9 0.67,0.6 1,1.44 1,2.51 0,0.63 -0.07,1.13 -0.22,1.49 -0.15,0.37 -0.36,0.67 -0.64,0.91 -0.28,0.24 -0.63,0.43 -1.06,0.56z"/>
    <path class="fil5" d="M236.44 13.4c0.43,0 0.77,-0.11 1.01,-0.32 0.24,-0.22 0.37,-0.48 0.37,-0.8 0,-0.29 -0.11,-0.53 -0.33,-0.73 -0.22,-0.19 -0.55,-0.29 -0.99,-0.29 -0.45,0 -0.79,0.1 -1.02,0.3 -0.23,0.2 -0.35,0.45 -0.35,0.75 0,0.31 0.11,0.56 0.34,0.77 0.23,0.21 0.55,0.31 0.97,0.31zm-3.53 -4.06l0.27 2.19c-0.31,0.06 -0.52,0.15 -0.65,0.29 -0.13,0.14 -0.19,0.3 -0.19,0.5 0,0.36 0.18,0.63 0.54,0.83 0.26,0.15 0.82,0.25 1.67,0.32 -0.27,-0.26 -0.46,-0.53 -0.59,-0.81 -0.13,-0.28 -0.19,-0.6 -0.19,-0.96 0,-0.71 0.25,-1.31 0.76,-1.79 0.51,-0.49 1.14,-0.73 1.92,-0.73 0.52,0 1,0.12 1.43,0.37 0.43,0.25 0.76,0.59 0.98,1.03 0.22,0.44 0.33,0.99 0.33,1.65 0,0.79 -0.13,1.43 -0.41,1.91 -0.27,0.48 -0.7,0.86 -1.3,1.15 -0.59,0.29 -1.38,0.43 -2.36,0.43 -1.43,0 -2.48,-0.3 -3.15,-0.9 -0.67,-0.6 -1,-1.44 -1,-2.51 0,-0.63 0.07,-1.13 0.22,-1.5 0.15,-0.37 0.36,-0.67 0.64,-0.91 0.28,-0.24 0.63,-0.42 1.06,-0.55z"/>
    <path class="fil5" d="M233.74 4.17c-0.43,0 -0.77,0.11 -1.01,0.33 -0.24,0.22 -0.37,0.48 -0.37,0.79 0,0.29 0.11,0.53 0.33,0.73 0.22,0.19 0.55,0.29 0.99,0.29 0.44,0 0.78,-0.1 1.02,-0.3 0.23,-0.2 0.35,-0.45 0.35,-0.75 0,-0.31 -0.11,-0.57 -0.34,-0.77 -0.23,-0.21 -0.55,-0.31 -0.97,-0.31zm3.54 4.06l-0.28 -2.19c0.31,-0.06 0.52,-0.16 0.65,-0.29 0.13,-0.14 0.19,-0.3 0.19,-0.5 0,-0.35 -0.18,-0.63 -0.53,-0.83 -0.26,-0.14 -0.82,-0.25 -1.67,-0.33 0.27,0.26 0.47,0.53 0.6,0.81 0.13,0.28 0.19,0.6 0.19,0.96 0,0.71 -0.25,1.31 -0.76,1.8 -0.51,0.49 -1.14,0.73 -1.92,0.73 -0.53,0 -1.01,-0.12 -1.44,-0.37 -0.43,-0.25 -0.76,-0.59 -0.98,-1.03 -0.22,-0.44 -0.33,-0.98 -0.33,-1.64 0,-0.79 0.14,-1.43 0.41,-1.91 0.27,-0.48 0.71,-0.86 1.3,-1.15 0.59,-0.29 1.38,-0.43 2.35,-0.43 1.43,0 2.48,0.3 3.15,0.9 0.67,0.6 1,1.44 1,2.51 0,0.63 -0.07,1.13 -0.22,1.49 -0.15,0.36 -0.36,0.67 -0.64,0.91 -0.28,0.24 -0.63,0.43 -1.06,0.56z"/>
   </g>
  </g>
 </g>
</svg>
