<?xml version="1.0" encoding="UTF-8"?>
<!DOCTYPE svg PUBLIC "-//W3C//DTD SVG 1.1//EN" "http://www.w3.org/Graphics/SVG/1.1/DTD/svg11.dtd">
<!-- Creator: CorelDRAW 2021 (64-Bit Not for commercial use) -->
<svg xmlns="http://www.w3.org/2000/svg" xml:space="preserve" width="0.624449in" height="0.406976in" version="1.1" style="shape-rendering:geometricPrecision; text-rendering:geometricPrecision; image-rendering:optimizeQuality; fill-rule:evenodd; clip-rule:evenodd"
viewBox="0 0 152.71 99.53"
 xmlns:xlink="http://www.w3.org/1999/xlink"
 xmlns:xodm="http://www.corel.com/coreldraw/odm/2003">
 <defs>
  <style type="text/css">
   <![CDATA[
    .str0 {stroke:#373435;stroke-width:0.73;stroke-miterlimit:22.9256}
    .fil1 {fill:#373435}
    .fil2 {fill:#373435;fill-rule:nonzero}
    .fil0 {fill:black;fill-rule:nonzero}
   ]]>
  </style>
 </defs>
 <g id="Box_Label_Korean">
  <metadata id="CorelCorpID_0Corel-Layer"/>
  <g id="Icons">
   <g>
    <g>
     <path class="fil0" d="M32.23 37.6c-2.31,0.32 -4.85,1.75 -6.32,3.56 -0.75,0.91 -24.55,40.01 -25.04,41.13 -1.64,3.75 -0.89,8.13 1.89,11.16 1.32,1.44 3.1,2.5 5.06,3.04l0.9 0.24 25.04 0 25.04 0 0.94 -0.24c6.23,-1.58 9.57,-8.37 7.02,-14.2 -0.19,-0.44 -4.58,-7.76 -9.76,-16.27 -5.17,-8.5 -10.59,-17.41 -12.04,-19.79 -1.45,-2.38 -2.9,-4.67 -3.24,-5.07 -2.19,-2.69 -5.87,-4.07 -9.5,-3.56l0 0zm2.91 2.57c0.97,0.18 2.1,0.59 2.81,1.05 0.73,0.46 1.8,1.49 2.28,2.19 0.21,0.32 3.36,5.46 6.99,11.44 7.25,11.93 9.93,16.35 14.21,23.37 1.95,3.2 2.94,4.94 3.16,5.51 0.61,1.68 0.66,3.29 0.14,4.96 -0.8,2.61 -2.75,4.5 -5.38,5.26l-0.85 0.24 -24.67 0 -24.67 0 -0.83 -0.24c-2.66,-0.76 -4.58,-2.65 -5.4,-5.26 -0.52,-1.66 -0.48,-3.27 0.14,-4.94 0.22,-0.6 2.03,-3.68 6.63,-11.23 3.48,-5.73 7.92,-13.04 9.87,-16.23 1.95,-3.21 4.52,-7.44 5.73,-9.42 2.38,-3.93 3.02,-4.74 4.32,-5.57 1.68,-1.06 3.64,-1.45 5.54,-1.11z"/>
     <path class="fil0" d="M32.01 56.34c-2.05,0.21 -4.27,0.87 -6.21,1.84l-1.13 0.57 -0.66 -0.95c-0.75,-1.1 -1.03,-1.31 -1.67,-1.31 -0.4,0 -0.51,0.05 -0.83,0.39 -0.3,0.33 -0.36,0.49 -0.36,0.86 0,0.4 0.1,0.59 0.69,1.43 0.38,0.53 0.69,1 0.68,1.05 0,0.04 -0.26,0.3 -0.58,0.56 -0.32,0.26 -0.96,0.9 -1.43,1.43 -6.33,7.11 -6.1,17.64 0.54,24.44 1.2,1.23 1.23,1.26 1.06,1.48 -0.72,0.94 -0.95,1.39 -0.95,1.84 0,0.4 0.05,0.53 0.36,0.84 0.3,0.3 0.44,0.36 0.79,0.36 0.66,0 0.96,-0.21 1.53,-1.05 0.28,-0.41 0.53,-0.75 0.55,-0.75 0.01,0 0.33,0.17 0.69,0.38 1.4,0.83 3.38,1.57 5.24,1.96 1.02,0.22 1.44,0.25 3.48,0.25 1.85,0 2.51,-0.04 3.23,-0.19 1.97,-0.42 3.73,-1.05 5.19,-1.85 0.5,-0.28 0.93,-0.51 0.96,-0.53 0.04,-0.01 0.3,0.31 0.58,0.73 0.57,0.84 0.88,1.05 1.51,1.05 0.77,0 1.35,-0.8 1.14,-1.61 -0.04,-0.14 -0.3,-0.56 -0.58,-0.95l-0.51 -0.71 1.23 -1.25c5.35,-5.47 6.65,-13.5 3.3,-20.36 -0.94,-1.93 -2.79,-4.35 -4.19,-5.51 -0.32,-0.26 -0.58,-0.52 -0.58,-0.56 -0.01,-0.05 0.3,-0.52 0.68,-1.05 0.59,-0.84 0.69,-1.03 0.69,-1.43 0,-0.37 -0.06,-0.53 -0.36,-0.86 -0.32,-0.34 -0.42,-0.39 -0.83,-0.39 -0.65,0 -0.92,0.21 -1.67,1.31l-0.66 0.94 -1.13 -0.56c-3.08,-1.55 -6.5,-2.19 -9.81,-1.84l0 0zm2.97 2.53c1.37,0.12 2.98,0.47 4.09,0.88 1.14,0.43 2.33,1.06 2.28,1.2 -0.04,0.11 -0.78,1.19 -1.2,1.73 -0.01,0.02 -0.44,-0.15 -0.95,-0.39 -1.85,-0.85 -3.46,-1.22 -5.43,-1.22 -2.03,-0.01 -3.83,0.39 -5.56,1.24 -0.4,0.2 -0.74,0.36 -0.75,0.35 0,-0.01 -0.25,-0.37 -0.56,-0.79 -0.31,-0.42 -0.57,-0.84 -0.6,-0.91 -0.03,-0.07 0.26,-0.29 0.77,-0.53 2.02,-1.01 3.61,-1.4 6.49,-1.63 0.08,-0.01 0.73,0.03 1.43,0.08l0 0zm-10.22 4.41l0.65 0.91 -0.75 0.79c-1.46,1.53 -2.48,3.46 -2.92,5.54 -0.23,1.12 -0.16,1.28 0.16,0.32 0.36,-1.12 1.02,-2.38 1.7,-3.3 0.51,-0.67 1.96,-2.11 2.32,-2.3 0.14,-0.07 0.73,0.7 3.13,4.09 1.63,2.3 3.01,4.27 3.06,4.37 0.07,0.16 -0.72,1.33 -4.06,6.06 -2.29,3.22 -4.22,5.87 -4.29,5.89 -0.19,0.04 -1.66,-1.55 -2.42,-2.61 -1.21,-1.67 -2.22,-4.04 -2.63,-6.11 -0.23,-1.14 -0.2,-4.63 0.04,-5.77 0.42,-1.98 1.23,-3.88 2.37,-5.59 0.55,-0.84 2.7,-3.2 2.9,-3.2 0.04,0 0.37,0.41 0.73,0.91l0 0zm20.03 0.23c2.12,2.2 3.44,4.67 4.08,7.65 0.28,1.29 0.28,4.75 -0.01,6.04 -0.44,2.06 -1.39,4.2 -2.57,5.85 -0.76,1.06 -2.23,2.65 -2.43,2.61 -0.22,-0.05 -8.44,-11.72 -8.36,-11.89 0.06,-0.16 4.32,-6.22 4.6,-6.53 0.15,-0.18 0.18,-0.17 0.41,0.16 0.94,1.25 1.53,2.82 1.78,4.75 0.04,0.33 0.12,0.51 0.21,0.51 0.2,0 3.99,-0.61 4.02,-0.66 0.02,-0.02 -0.08,-0.49 -0.22,-1.04 -0.32,-1.2 -0.94,-2.66 -1.59,-3.72 -0.53,-0.86 -1.85,-2.47 -2.23,-2.71 -0.14,-0.1 -0.24,-0.2 -0.24,-0.25 0,-0.14 1.27,-1.9 1.37,-1.9 0.05,0 0.58,0.52 1.2,1.14l0 0zm-9.97 -0.03c1.36,0.37 3.57,1.48 3.47,1.75 -0.1,0.31 -4.47,6.35 -4.54,6.28 -0.04,-0.04 -1.27,-1.78 -2.74,-3.84l-2.66 -3.76 0.56 -0.19c1.14,-0.4 1.87,-0.49 3.58,-0.46 1.13,0.03 1.85,0.1 2.33,0.22zm3.06 18.3c2.04,2.89 3.75,5.33 3.78,5.41 0.07,0.18 -1.81,1.11 -3.1,1.54 -1.72,0.56 -2.64,0.7 -4.74,0.7 -2.11,0 -3.03,-0.14 -4.74,-0.7 -1.3,-0.42 -3.18,-1.36 -3.1,-1.55 0.05,-0.12 6.81,-9.7 7.56,-10.71 0.25,-0.35 0.26,-0.35 0.44,-0.16 0.1,0.11 1.85,2.56 3.91,5.46l0 0z"/>
    </g>
   </g>
   <g>
    <g>
     <path class="fil1" d="M119.21 53.72c13.1,0 24.06,-9.03 26.75,-21.09l-6.74 0c-2.54,8.48 -10.54,14.68 -20.01,14.68 -9.47,0 -17.47,-6.2 -20.01,-14.68l-6.74 0c2.69,12.06 13.65,21.09 26.75,21.09zm26.43 -33.91c-3.16,-11.41 -13.8,-19.81 -26.43,-19.81 -12.64,0 -23.28,8.4 -26.43,19.81l6.85 0c2.93,-7.82 10.59,-13.4 19.59,-13.4 8.99,0 16.66,5.58 19.59,13.4l6.85 0z"/>
     <polygon class="fil1" points="134.53,21.52 126.78,14.64 146.58,26.32 126.2,38.35 134.31,31.07 93.12,30.97 126.6,26.36 92.85,21.65 "/>
     <path class="fil1" d="M92.44 23.52c-0.1,0.92 -0.15,1.86 -0.15,2.8 0,0.95 0.05,1.88 0.15,2.8l6.58 0c-0.13,-0.92 -0.2,-1.85 -0.2,-2.8 0,-0.95 0.07,-1.89 0.2,-2.8l-6.58 0z"/>
    </g>
    <path class="fil2 str0" d="M90.19 72.43c1.61,-0.19 2.73,-0.6 3.37,-1.23 0.5,-0.54 0.75,-1.27 0.77,-2.19 0,-1.19 -0.38,-2.09 -1.13,-2.69 -0.82,-0.65 -2.03,-0.98 -3.62,-1l-6.5 0c-0.23,0 -0.35,0.11 -0.35,0.32 0,0.19 0.11,0.29 0.35,0.31 0.92,0 1.45,0.11 1.59,0.33 0.11,0.15 0.17,0.42 0.17,0.81l0 10.45c0,0.51 -0.07,0.84 -0.21,1 -0.13,0.15 -0.59,0.23 -1.38,0.23 -0.19,0 -0.28,0.12 -0.28,0.36 0,0.19 0.1,0.29 0.28,0.31l4.81 0c0.21,0 0.31,-0.11 0.33,-0.32 0,-0.23 -0.1,-0.35 -0.31,-0.35 -0.8,0 -1.3,-0.06 -1.48,-0.17 -0.17,-0.11 -0.26,-0.46 -0.27,-1.05l0 -5.12 2.21 0 4.52 7.02 3.07 0c0.23,0 0.35,-0.11 0.36,-0.32 0,-0.23 -0.12,-0.35 -0.36,-0.35 -1,0 -1.65,-0.13 -1.96,-0.38 -0.27,-0.23 -1.6,-2.22 -3.99,-5.96zm-3.86 -0.52l0 -4.79c0,-0.39 0.1,-0.66 0.31,-0.84 0.19,-0.21 1.08,-0.31 2.66,-0.31 0.84,0 1.55,0.21 2.11,0.63 0.81,0.62 1.22,1.43 1.23,2.45 0,0.73 -0.23,1.37 -0.67,1.92 -0.54,0.62 -1.35,0.93 -2.43,0.94l-3.2 0zm14.84 0.54c0.97,0 1.78,0.15 2.42,0.46 0.46,0.23 0.84,0.6 1.13,1.11 0.51,0.96 0.53,1.96 0.06,3.01 -0.34,0.61 -0.77,1.03 -1.27,1.25 -0.92,0.4 -1.94,0.29 -3.07,-0.33 -0.46,-0.23 -0.85,-0.23 -1.17,0 -0.15,0.11 -0.24,0.26 -0.25,0.42 0,0.11 0.06,0.28 0.17,0.48 0.31,0.38 1.19,0.57 2.66,0.57 0.73,0 1.45,-0.15 2.17,-0.44 0.88,-0.42 1.51,-1.02 1.88,-1.78 0.42,-0.78 0.63,-1.59 0.63,-2.43 0,-0.9 -0.25,-1.64 -0.75,-2.23 -0.27,-0.35 -0.84,-0.77 -1.73,-1.27 0.65,-0.61 1.1,-1.11 1.34,-1.5 0.28,-0.5 0.43,-1.04 0.44,-1.63 0,-0.69 -0.29,-1.3 -0.86,-1.84 -0.54,-0.46 -1.26,-0.69 -2.19,-0.69 -1.32,0 -2.4,0.62 -3.24,1.88 -0.23,0.34 -0.34,0.57 -0.34,0.67 0,0.11 0.06,0.18 0.19,0.19 0.04,0 0.33,-0.3 0.88,-0.9 0.38,-0.4 0.96,-0.6 1.73,-0.61 1.53,0 2.31,0.75 2.32,2.24 0,0.8 -0.31,1.51 -0.94,2.11 -0.47,0.42 -1.21,0.72 -2.23,0.9l0 0.35zm10.37 -5.03c0.54,-0.11 0.92,-0.18 1.13,-0.19 0.27,0 0.44,0.08 0.52,0.25 0.08,0.15 0.11,3.11 0.11,8.88 0,1.19 -0.04,1.9 -0.11,2.13 -0.04,0.13 -0.15,0.26 -0.32,0.4 -0.19,0.08 -0.6,0.16 -1.23,0.25l0 0.37 4.98 0 0 -0.4c-0.58,-0.01 -0.91,-0.04 -1.02,-0.08 -0.3,-0.05 -0.49,-0.19 -0.55,-0.42 -0.08,-0.15 -0.11,-4.5 -0.1,-13.04l-3.47 1.59c0.01,0.08 0.03,0.17 0.06,0.27zm9.93 12.08l7.71 0c0.08,-0.27 0.16,-0.52 0.25,-0.77 0.05,-0.24 0.28,-0.84 0.67,-1.8l-0.36 0c-0.27,0.5 -0.64,0.82 -1.11,0.96 -0.62,0.11 -2.42,0.18 -5.43,0.19 2.84,-2.68 4.67,-4.82 5.5,-6.4 0.36,-0.92 0.54,-1.69 0.56,-2.3 0,-0.73 -0.14,-1.37 -0.42,-1.92 -0.34,-0.65 -0.82,-1.15 -1.44,-1.48 -0.55,-0.27 -1.19,-0.4 -1.94,-0.4 -1.46,0 -2.51,0.66 -3.17,1.97 -0.15,0.35 -0.3,0.87 -0.44,1.57l0.3 0c0.36,-0.74 0.74,-1.27 1.13,-1.59 0.46,-0.36 0.95,-0.54 1.46,-0.56 0.97,0 1.75,0.36 2.32,1.07 0.42,0.5 0.64,1.25 0.64,2.26 0,1.15 -0.51,2.42 -1.52,3.82 -1.38,1.66 -2.96,3.31 -4.72,4.93l0 0.44zm12.96 -12.08c0.54,-0.11 0.92,-0.18 1.13,-0.19 0.27,0 0.44,0.08 0.52,0.25 0.08,0.15 0.11,3.11 0.11,8.88 0,1.19 -0.04,1.9 -0.11,2.13 -0.04,0.13 -0.15,0.26 -0.32,0.4 -0.19,0.08 -0.6,0.16 -1.23,0.25l0 0.37 4.98 0 0 -0.4c-0.58,-0.01 -0.91,-0.04 -1.02,-0.08 -0.3,-0.05 -0.49,-0.19 -0.55,-0.42 -0.08,-0.15 -0.11,-4.5 -0.1,-13.04l-3.47 1.59c0.01,0.08 0.03,0.17 0.06,0.27zm12.52 5.03c0.97,0 1.78,0.15 2.42,0.46 0.46,0.23 0.84,0.6 1.13,1.11 0.51,0.96 0.53,1.96 0.06,3.01 -0.34,0.61 -0.77,1.03 -1.27,1.25 -0.92,0.4 -1.94,0.29 -3.07,-0.33 -0.46,-0.23 -0.85,-0.23 -1.17,0 -0.15,0.11 -0.24,0.26 -0.25,0.42 0,0.11 0.06,0.28 0.17,0.48 0.31,0.38 1.19,0.57 2.66,0.57 0.73,0 1.45,-0.15 2.17,-0.44 0.88,-0.42 1.51,-1.02 1.88,-1.78 0.42,-0.78 0.63,-1.59 0.63,-2.43 0,-0.9 -0.25,-1.64 -0.75,-2.23 -0.27,-0.35 -0.84,-0.77 -1.73,-1.27 0.65,-0.61 1.1,-1.11 1.34,-1.5 0.28,-0.5 0.43,-1.04 0.44,-1.63 0,-0.69 -0.29,-1.3 -0.86,-1.84 -0.54,-0.46 -1.26,-0.69 -2.19,-0.69 -1.32,0 -2.4,0.62 -3.24,1.88 -0.23,0.34 -0.34,0.57 -0.34,0.67 0,0.11 0.06,0.18 0.19,0.19 0.04,0 0.33,-0.3 0.88,-0.9 0.38,-0.4 0.96,-0.6 1.73,-0.61 1.53,0 2.31,0.75 2.32,2.24 0,0.8 -0.31,1.51 -0.94,2.11 -0.47,0.42 -1.21,0.72 -2.23,0.9l0 0.35zm-47.3 19.62c1.61,-0.19 2.73,-0.6 3.37,-1.23 0.5,-0.54 0.75,-1.27 0.77,-2.19 0,-1.19 -0.38,-2.09 -1.13,-2.69 -0.82,-0.65 -2.03,-0.98 -3.62,-1l-6.5 0c-0.23,0 -0.35,0.11 -0.35,0.32 0,0.19 0.11,0.29 0.35,0.31 0.92,0 1.45,0.11 1.59,0.33 0.11,0.15 0.17,0.42 0.17,0.81l0 10.45c0,0.51 -0.07,0.84 -0.21,1 -0.13,0.15 -0.59,0.23 -1.38,0.23 -0.19,0 -0.28,0.12 -0.28,0.36 0,0.19 0.1,0.29 0.28,0.31l4.81 0c0.21,0 0.31,-0.11 0.33,-0.32 0,-0.23 -0.1,-0.35 -0.31,-0.35 -0.8,0 -1.3,-0.06 -1.48,-0.17 -0.17,-0.11 -0.26,-0.46 -0.27,-1.05l0 -5.12 2.21 0 4.52 7.02 3.07 0c0.23,0 0.35,-0.11 0.36,-0.32 0,-0.23 -0.12,-0.35 -0.36,-0.35 -1,0 -1.65,-0.13 -1.96,-0.38 -0.27,-0.23 -1.6,-2.22 -3.99,-5.96zm-3.86 -0.52l0 -4.79c0,-0.39 0.1,-0.66 0.31,-0.84 0.19,-0.21 1.08,-0.31 2.66,-0.31 0.84,0 1.55,0.21 2.11,0.63 0.8,0.62 1.21,1.43 1.23,2.45 0,0.73 -0.23,1.37 -0.67,1.92 -0.54,0.62 -1.35,0.93 -2.43,0.94l-3.2 0zm16.17 -2.53c-1.32,0 -2.39,0.47 -3.2,1.42 -0.74,0.85 -1.12,2 -1.13,3.43 0,1.57 0.4,2.86 1.19,3.86 0.78,0.96 1.83,1.44 3.16,1.44 1.47,0 2.61,-0.6 3.43,-1.8 0.58,-0.86 0.87,-1.93 0.88,-3.22 0,-1.07 -0.17,-1.97 -0.5,-2.68 -0.36,-0.77 -0.89,-1.37 -1.59,-1.82 -0.65,-0.4 -1.4,-0.6 -2.24,-0.62zm-0.08 0.58c0.4,0 0.77,0.08 1.11,0.25 0.35,0.13 0.68,0.39 1,0.78 0.61,0.81 0.92,1.98 0.92,3.51 0,1.08 -0.17,2 -0.5,2.78 -0.5,1.09 -1.31,1.64 -2.42,1.65 -0.61,0 -1.14,-0.17 -1.57,-0.52 -0.5,-0.38 -0.85,-0.93 -1.05,-1.63 -0.21,-0.74 -0.31,-1.53 -0.33,-2.38 0,-1.88 0.43,-3.18 1.29,-3.91 0.38,-0.35 0.9,-0.52 1.55,-0.54zm9.63 2.01l0 -4.83c0,-0.3 0.07,-0.53 0.21,-0.67 0.21,-0.2 0.69,-0.3 1.46,-0.3 0.17,0 0.26,-0.1 0.27,-0.31 0,-0.19 -0.09,-0.29 -0.27,-0.31l-4.91 0c-0.23,0 -0.34,0.1 -0.34,0.31 0,0.19 0.11,0.29 0.34,0.31 0.77,0 1.27,0.11 1.5,0.34 0.17,0.15 0.26,0.46 0.27,0.92l0 10.15c0,0.42 -0.06,0.7 -0.17,0.84 -0.19,0.23 -0.63,0.35 -1.31,0.36 -0.23,0 -0.35,0.11 -0.36,0.33 0,0.17 0.11,0.26 0.33,0.27l4.74 0c0.2,0 0.31,-0.1 0.32,-0.29 0,-0.19 -0.11,-0.29 -0.32,-0.31 -0.7,0 -1.17,-0.07 -1.4,-0.21 -0.24,-0.15 -0.37,-0.51 -0.38,-1.06l0 -5.08 7.06 0 0 5.04c0,0.5 -0.06,0.83 -0.19,0.99 -0.15,0.19 -0.59,0.29 -1.31,0.31 -0.23,0 -0.34,0.1 -0.34,0.31 0,0.19 0.11,0.29 0.34,0.29l4.62 0c0.24,0 0.37,-0.1 0.38,-0.29 0,-0.19 -0.13,-0.29 -0.38,-0.31 -0.61,0 -1.03,-0.06 -1.25,-0.19 -0.27,-0.15 -0.41,-0.53 -0.42,-1.11l0 -10.28c0,-0.31 0.05,-0.54 0.13,-0.69 0.17,-0.2 0.65,-0.31 1.46,-0.31 0.23,0 0.35,-0.11 0.36,-0.32 0,-0.21 -0.12,-0.31 -0.36,-0.33l-4.66 0c-0.23,0 -0.35,0.1 -0.36,0.31 0,0.19 0.12,0.29 0.36,0.31 0.69,0 1.15,0.09 1.36,0.27 0.15,0.15 0.24,0.38 0.25,0.69l0 4.85 -7.02 0zm21.44 -6.52c-0.05,-0.19 -0.15,-0.29 -0.31,-0.29 -0.47,0.31 -0.75,0.47 -0.82,0.48 -0.13,-0.01 -0.28,-0.06 -0.44,-0.15 -1.61,-0.86 -3.11,-0.85 -4.51,0.02 -0.09,0.04 -0.18,0.1 -0.28,0.19 -0.96,0.73 -1.44,1.71 -1.44,2.94 0,0.96 0.36,1.79 1.07,2.51 0.58,0.51 1.6,1.02 3.09,1.52 2.08,0.62 3.27,1.42 3.56,2.38 0.05,0.2 0.09,0.46 0.1,0.77 0,0.8 -0.29,1.48 -0.86,2.01 -0.54,0.51 -1.27,0.77 -2.21,0.79 -1.11,0 -2.08,-0.36 -2.9,-1.07 -0.57,-0.5 -1.26,-1.4 -2.05,-2.72 -0.08,-0.11 -0.16,-0.17 -0.25,-0.17 -0.2,0 -0.3,0.11 -0.29,0.32 0,0.05 0.02,0.11 0.06,0.17l1.38 3.84c0.08,0.19 0.19,0.29 0.34,0.29 0.12,0 0.2,-0.07 0.25,-0.21 0.04,-0.09 0.08,-0.18 0.11,-0.29 0.08,-0.11 0.2,-0.17 0.36,-0.17 0.08,0 0.17,0.01 0.27,0.04 1.8,0.55 3.21,0.72 4.22,0.5 0.42,-0.12 0.83,-0.29 1.23,-0.52 1.27,-0.77 1.9,-1.86 1.9,-3.3 0,-1 -0.34,-1.84 -1.03,-2.53 -0.55,-0.55 -1.64,-1.09 -3.28,-1.61 -1.07,-0.35 -1.83,-0.65 -2.27,-0.92 -0.8,-0.5 -1.21,-1.21 -1.21,-2.13 0,-0.74 0.25,-1.37 0.73,-1.88 0.46,-0.47 1.06,-0.72 1.8,-0.73 0.89,0 1.74,0.37 2.53,1.11 0.63,0.59 1.19,1.38 1.71,2.38 0.08,0.13 0.18,0.2 0.3,0.21 0.17,0 0.26,-0.1 0.27,-0.29l-1.15 -3.47z"/>
   </g>
  </g>
 </g>
</svg>
