<svg xmlns="http://www.w3.org/2000/svg" viewBox="0 0 193.01 219.61"><defs><style>.cls-1{fill:none;stroke:#000;stroke-linecap:round;stroke-linejoin:round;stroke-width:0.71px;}</style></defs><g id="Layer_2" data-name="Layer 2"><g id="Layer_1-2" data-name="Layer 1"><path class="cls-1" d="M65.65,90.05v-.5m-3.6.9v-.4m3.5.8v-.3m-6.4,2.1h0l.1.6.2.5.5.5.6.4m6.8,0v.1l-.1.1V95h-.1m.2-.3.6-.4.4-.5.3-.5.1-.6m0-1.3-.1.5-.3.5-.4.5-.6.4m-5.7-4.6-.2-.1h-.4l-.2.1m-.3,4.6-.6-.4-.5-.5-.2-.5-.1-.5M146,75.85v.2l-.1.1m.1-.3.6-.4.5-.5.2-.6.1-.5m0-1.3-.1.5-.2.5-.5.5-.6.4m-.2-1v.2l.1.3.1.3v.2m1.3-9-1-1.8-.1-.1m-.8-13.9-.5-.4m.4,17.2.9-.7m-.7,1.2,1.9-1.6m0,18.3-1.1-.9m1,.9-.6-.4-.1-.1m-.3-.4h-.1m-8.6-30.6.1,3.9M45,67.05l-.6,1.4-.7,3-.3,3,.2,3,.8,2.9,1.2,2.9,1.7,2.8,2.2,2.7m87.9-32.9h-.1l-.1-.1-.1.1H137m3.1,2.6.3-.1.2.1m4.3,7.4h.1m-99.1,13.6,1.1,2.6,1.8,2.8,2.1,2.6m-1.5,1.3-2.2-2.7-1.7-2.8-1.2-2.9-.8-3-.2-2.9.3-3,.7-3,.7-1.7M57.85,98l-3.6-2.3-3.2-2.5-2.8-2.6L46,87.75l-1.8-2.9-.7-1.6M51.15,73,49,70.15l-1.7-2.9-1.2-2.9-.7-3.1-.1-2m9.4-18-1.2,1.1L51,45.05l-2,2.8-1.5,2.9-1,3-.4,3,.2,3,.6,3.1,1.3,2.9,1.7,2.9,2.3,2.7m5.1-2.8-2.4-2.5L53,63.45l-1.5-2.7-.9-2.8-.4-2.8.1-2.9.6-2.8,1.1-2.8,1.7-2.7,2.1-2.5,2.1-2M77,51.25l.2,1.4.6,1.8,1.2,1.8,1.7,1.6,2,1.4m-13.9,33,.1.1.1.2v.3m-19.7-4,10.3,1m-8.5-1.3,8.9.9m4.9-1.5.1-18.5m17.7-10.2,2.5,1.2,2.8,1,3,.6,3.1.4,3.3.1,3.2-.2,3.1-.6,2.8-.8,2.7-1.1,2.3-1.3,1.8-1.5,1.4-1.7,1-1.8.4-1.8v-.5m33.6,31.9-.8,1.7-1.8,2.9-2.3,2.8-2.8,2.6-3.2,2.5-3.6,2.3-4,2.1-4.3,1.8-4.6,1.6-4.8,1.4-5.1,1-5.2.7-5.3.5-5.4.2-5.3-.2-5.3-.5-5.2-.7-5.1-1-4.8-1.4-4.6-1.6-4.3-1.8-4-2.1M146,63.15l.3.4,1.1,1.8m-80.7,34.7,1.6.6,1.7.6,1.8.6M115,30.25l2.4.7,2.8.9L123,33l2.5,1.2,2.4,1.3M59.75,68l-2.5-2.4L55.15,63l-1.5-2.7-1-2.7-.5-2.8V52l.6-2.8,1.1-2.7,1.6-2.7,2.1-2.5,2.6-2.4,3-2.2,3.4-2,3.8-1.8,4.1-1.5,3.6-1.1m2.6,32.5,2.7,1.3,3,1,3.2.8,3.4.5,3.4.1,3.5-.1,3.4-.5,3.2-.7,3-1.1,2.7-1.3,2.3-1.5,1.9-1.7,1.3-1.8.9-2,.3-2-.2-2-.8-2-1.2-1.8-.7-.7m-38.9,0-.4.3-1.3,1.9-.9,1.9-.3,2,.2,2,.8,2,1.2,1.9,1.8,1.7,2.2,1.6m16.9-57.7V4m-7.6-.7-.8.3-2.1,1L85,5.75l-1.2,1.4L83,8.65l-.3,1.5.3,1.6.8,1.5,1.2,1.4,1.8,1.2m19.5-11.3-2.1-1-.6-.2m2.7,1.2h-.5l-.3.1-.3.1-.3.1-.2.1m2.8-.1h0l-.2-.1-.2-.1-.3-.1h-.5M153,61.85v-5.6m-113.2.2V62m121,3.9v-5.1M32,61v5m135.5,4.6V66m-142.2.2v4.6m16.5,4.3.1-.1v-.1M173,76.05v-4.6m-153.1.3v4.5m157.3,5.8v-4.6m-161.5.2v4.6m164.4,6.4v-5M13,84v5m168.4,6.7v-5.6m-169.8.2v5.6m169.8,7.2v-6.6m-169.6.3v6.7m168.1,7.6v-8.3m-166.6.3v8.4m46.7,9.8v-13.9m100.6,86.9h0M78,189.65h0m113.1-33.4v-2.1l-.3-4-.9-3.9-1.4-3.9-1.8-3.8-1.1-1.9m-23.8,57.8v-.1m1.7,3.5-1.1,5.7m-155-66.8-1.8,3.4L3.85,144l-1.1,4-.7,3.9-.1,4v.5m95.5,53.3H101l6.9-.4,6.9-.6,6.7-.9,6.7-1.2,6.5-1.4,6.2-1.8,6.1-2,5.7-2.2,5.5-2.5,5.2-2.7m-156-59.4-.7,1.1-2.1,3.8-1.7,3.9-1.1,4-.7,4-.1,4,.4,4,.8,4,1.4,3.9,1.8,3.9,2.4,3.8,2.8,3.7,3.2,3.5,3.7,3.4,4.2,3.2,4.5,3.1,4.9,2.9,5.2,2.6,5.6,2.4,5.8,2.2,6.1,1.9,6.4,1.7,6.5,1.4,3.3.6m94.1-14,4.8-3,4.3-3.1,4-3.3,3.5-3.5,3.1-3.6,2.6-3.7,2.1-3.8,1.7-3.9,1.1-4,.7-4,.1-4-.4-4-.8-4-1.4-3.9-1.8-3.9-2.1-3.3M62.25,97.85l-.5.2m2.3-8V89m.7,1.2v-1.1M63,90.15v-1.1m2.1,1.4v-1.1m0,1.1h.1v.1h.3m-.7-.4h.1v.2H65v.1h.1m-.4-.5h0l.1.1v.1m-.7-.1V90h.6m-1.7.2.1.1h.5l.1-.1h.2l.1-.1h.1m-1.6.2.1-.1H63m-1.3-1.5,1-.4,1.3-.1,1.2.1,1.1.4.6.6.3.8-.3.7-.6.6m-.4-1.4h0l.1-.1.1-.1-.1-.1-.1-.1m-.3,1h-.1v-.3l.1-.1v-.1h.1l.2-.1M65,91h.4l.1-.1h.1v-.3m-1.7.5H64l.1-.1h.1l.2-.1h.5l.1.1m-1.8.2h.2l.1.1h.1l.1-.1h.1l.1-.1m-.8-.1h0v.1h.1v.1m-.3-.5h0l.1.1.1.1V91m-.8-.4h.4l.1.1h.1m-.9-.2h.2l.1.1m-.2-.5H62v.1h-.1v.2H62v.1m.4-1h0l.1.1v.1l-.1.1v.1l-.1.1h-.1l-.1.1m.9-1h-.4l-.1.1h-.1l-.1.1v.1l.1.1m1.7-.5H64l-.1.1h-.2l-.1.1h-.5l-.1-.1m1.7-.2h-.6V89m.7.1h0V89l-.1-.1m.4.5H65v-.1h-.1v-.2h-.1m.9.5-.1-.1h-.4v-.1h-.1m.8.2h-.2m-5.1,3.7v1.4m0,0,.7.3.8.3.9.1,1,.1.9-.1.9-.1.9-.3.7-.3m0-1.4-.7.4-.9.2-.9.2H63l-.9-.2-.8-.2-.7-.4m5.7-1.9.2.1.2.2.2.3.2.2.1.3.1.3.1.3v.2m-1.1-1.9-1.1.4-1.2.1-1.3-.1-1-.4-.7-.6-.2-.7.2-.8.7-.6m85.7-23.3h0m0,0-.1.1m0,0h0m0,0h-.5l-.3-.1-.2-.1-.1-.1m0,.6v-.2l.1-.1-.1-.2v-.1m0,0-.1-.2v-.2m-31.2-35.1,1.1.3,2.9.8,2.9,1,2.6,1.1,2.6,1.2,2.4,1.3m18,30h0m-.1.1.1-.1m-1.2.4.5-.1.6-.2m-1.2-.7-.5-14.3m.5,14.3v.1l-.1.1v.1m-.4-14.6-.1-.5-.1-.3m.2.8h0v.1l-.1.1v.1m-.6-1.5.1.1V50m-.1-.7-3.1-.9m3.1.9-1-1.7-1.2-1.7-1.3-1.6-1.5-1.6-1.7-1.5-1.8-1.5-2-1.4-2.2-1.3m9.6,11.4.1.2.1.1v.2l-.1.2m-.1-.7H141l-.9.4m-10.7-13.4,2.2,1.3,2,1.5,1.9,1.6,1.7,1.6,1.5,1.7,1.2,1.7,1.1,1.8.8,1.8m-12.4-13-.2-.1-.1-.1h-.4l-.2.1h-.2l-.2.1-.2.1M146,65.05v.4l.2.3m-.7-15,.5,14.3M145,50l.3.2.1.3.1.3m-3.6-1.7,1.7.5,1.4.4m-4.3-.4.7-.5h.5m-1.2.5-3.1,2.6m3.1-2.6v-.3l-.1-.2-.2-.2-.3-.1m7.3,16.6,1.1,2.3.7,2.2.5,2.3.2,2.4-.2,2.3-.5,2.3-.7,2.3-1.1,2.2m.1-18.3h-.1m0,18.3h0m0,0h.1m-.1,0h-.1m.1,0h0m-.1,0h0m-9.7-31.5-.3.2-.2.2-.2.3-.1.2-.2.3-.1.2v.6m.5-2.8h.1l.1.1.1.1.1.1.1.1v.1l.1.1v.2m-88.1,36.6h-.1m0,0h0v.1m.1,0h0v-.1m1.6-.2-.2-.2-.1-.1-.1-.1-.1-.2m-.7.7h-.1l-.1.1h-.2m1.1-.8-.1.2-.2.1-.2.2-.2.2m1-1.2-.1.3-.2.2m86.9-32.1h-.1m4.4,4.3h.2l-.1.1m-92.4,28.6.8-.1.8-.2m-1.7.3h.1m-.1,0h-.1m-4.5-16v.5l.3,3,.7,2.9.1.2m-4.3,3.6v1.4l.4,3,.9,3,1.3,2.9,1.9,2.8,2.2,2.7,2.8,2.6,3.1,2.4,3.5,2.2M51.15,73l-.3,14.5m.5.2h-.3l-.1-.1-.1-.1m-1.5,1.3h-.1v.1m-5.8-5.6-.6-1.4-.8-3.1-.2-3.1.2-3.1.8-3.1,1.2-2.6m1.2-7.6v-.7m6.9,12.8-.4.4-.3.4-.2.4-.1.4m.5.2h-.1l-.2-.1h-.1l-.1-.1m8.6-5-1.3.1-1.2.5m-5.1,2.8v.2l.1.2.1.1.1.2m4.8-3.5.1.2v.1l.1.2.1.2M60.85,37l-1,.6-3.4,2.3-1.8,1.4m2.6,27.3-5.1,2.8m5.7-31.9.5-.4,3-2.3,3.4-2,3.8-1.9,4.1-1.6L77,30l1.1-.3M59.75,68l-.1.2v.2l-.1.3v.2m5.4.6v-.1l.1-.2v-.6l.1-.1m6.6,33.3h.1m-2.5-9.3v.2h-.1v.1h-.2l-.1.1m2.8,8.9h0m0-.1v.1m0-1.2.1-.1h.4m-.5.1.1.6-.1.5m0,0h0M69,92.85l2.8,8.9m0,0-1.8-.5-1.7-.6-1.7-.7-1.6-.6-1.6-.7-1.6-.8-1.5-.8-1.4-.8m0,0-1.4-.8-1.4-.9-1.3-.9-1.2-.9-1.2-.9-1.1-1-1-1-1-1m0,0h0m0,0,1,1,1,1,1.1,1,1.2.9,1.2,1,1.3.9,1.3.8,1.4.9m13,5.5v-.1m-3.5-31.3-.3-.2-.4-.2-.4-.1-.4-.2-.4-.1-.4-.1h-.5l-.5-.1m3.8,22.1h.1l.1.2.2.3.1.2.1.2m.6-20.1-.1-.3-.1-.2-.2-.3-.2-.2-.2-.3-.3-.2-.3-.2-.3-.2m.5-.9-.1.1-.1.1v.1l-.1.1-.1.1v.1l-.1.2v.1m-3.3-1-5.4-.6m-2,.4,1.1-.4h.9m-7.1,3.2,2.8-1.6,2.3-1.2m-5.9,3.9.1-.3.1-.3.2-.3.4-.2m-1.1,15.6.3-14.5m-.6,15.4.2-.5.1-.4m19.3-16-.1.1h-.1l-.2.1-.1.1-.1.2-.1.1v.1m1,3.1v-.2l.2-.2.2-.2h.3m.5,24.9-.2-.1h-.1v-.1l-.1-.1m.8-14.2h-.1l-.2-.1v-.1h-.1m10.7-41.5-2.1-1.4-1.6-1.6L78,38.85l-.7-1.8-.1-1.8.4-1.9.5-1.1m36.9,0,.1.2.7,1.8.1,1.9-.4,1.8-.9,1.8-1.4,1.6-1.9,1.5-2.2,1.4-2.6,1-2.9.8-3.1.6-3.1.2-3.2-.1-3.2-.4-3-.6-2.7-1-2.4-1.2m-11.1,33.3-.2.1-.1.1h-.1l-.1.1m1.3,6-.2.1h-.1l-.1.1h-.1M71,75.45l-1-3.1m0,0-.6,20.1m0,0,2.4,8.1m0-1.1v1.1m.4-15.5-.4,14.4m.3-16.1.1.9v.8m-.9-7.9.5,3.5.3,2.7M71,75.45l.2.8.1.9m76,6.5h.1m-75.5,18.1-.1-.1m.5-1.2-.1-.4v-.3m-.4,1.9h0l.1-.1.2-.2.1-.4.1-.2v-.3m-.5,1.2,4.7,1.3,4.9,1,5,.7,5.2.4,5.1.2,5.2-.2,5.1-.4,5-.8,4.9-1,4.7-1.3,4.4-1.5,4.2-1.8,3.8-2,3.5-2.2,3.1-2.4,2.7-2.5,2.2-2.7,1.8-2.8m-.4-.2.1.1h.2l.1.1m-1.1-.9.1.3.1.2.2.1.3.1m-.8-1.4v.3l.1.4m-88.5,23.3.2-8.1m-.2,8.1,3.9,2.1,4.2,1.8,4.4,1.5,4.7,1.4,4.9,1,5.1.8,5.1.5,5.2.2,5.3-.1,5.2-.3,5.1-.7,4.9-.9,4.8-1.2,4.6-1.4,4.4-1.7,4-1.9,3.7-2.2,3.3-2.3,2.9-2.5,2.6-2.6,2-2.8,1.6-2.9,1.1-2.9.6-3,.2-2.9M57.85,98v-.2l.1-.2.1-.3.1-.2.1-.2.2-.2.1-.2.2-.1M149,66.65l1.2,2.8.8,3.1.2,3.1-.2,3.1-.8,3.1-.5,1.3m-2.2-17.8h-.1m.1,18.3,1.1-2.2.7-2.3.5-2.3.1-2.3-.1-2.4-.5-2.3-.7-2.3-1.1-2.2m-.1,18.3v.1h.1v-.1m-.1,0-1.8,2.8-2.3,2.7-2.6,2.6-3.2,2.4-3.4,2.2-3.9,2-4.2,1.8-4.4,1.5-4.7,1.3-4.8,1-5.1.7-5.1.5-5.1.1-5.2-.1-5.1-.4-5.1-.8-4.8-.9-4.7-1.3m-.1.1h0v-.1h.1m-13.1-5.4,1.5.8,1.5.7,1.5.8,1.6.7,1.7.7h.1M137,55.85l3.1,2.6m-3.1-7.1-.5.5-.4.5-.3.6v1.2l.3.6.4.6.5.5m3.1-7.1-3.1,2.6m-9.1-15.9,2.3,1.4,2.1,1.5,1.8,1.6,1.7,1.6,1.4,1.7,1.2,1.8,1,1.8.7,1.9m-74.9,19.7-5.4-.5m9,1.6-.4-.2-.4-.2-.4-.1-.5-.2-.4-.1-.5-.1-.5-.1-.5-.1m5.5,3.2-.1-.3-.1-.2-.2-.3-.2-.3-.3-.3-.3-.2-.3-.2-.4-.3m2.9,5.3-1-3.2m10-8.9v-.1h-.1l-.1-.1h-.1m-8.6,14.3-.1-1.1v-.9m68.4-16.4.9.7.8,1m-1.7-1.7-1.1,2.7-1.7,2.7-2.2,2.5-2.7,2.3-3,2.2-3.5,2-3.8,1.7-4.2,1.5-4.4,1.2-4.5.9-4.8.7-4.8.3h-4.9l-4.8-.3-4.8-.5-4.6-.9-4.4-1.2-4.2-1.4m73.9-7,.5,14.2m-73.9,17.7.4-14.5m-.4,14.5,4.6,1.2,4.7,1,5,.7,5,.5,5.1.1,5-.1,5-.5,5-.7,4.7-1,4.6-1.2,4.4-1.5,4.1-1.8,3.7-1.9,3.4-2.2,3.1-2.4,2.6-2.5,2.1-2.6,1.8-2.8m-1.2-16.2.3.6.2.5.1.4.1.5m-73,17.4v-2.1m73-15.3-1.9,2.9-2.3,2.7-2.8,2.6-3.3,2.4-3.6,2.2-4.1,2-4.3,1.7-4.7,1.5-4.9,1.2-5.1.8-5.2.6-5.3.3-5.3-.1-5.2-.4-5.2-.7-5-1-4.8-1.3m69.2-25.1,3.1,5.7m-3.1-5.7-1.3,2.7-1.8,2.7-2.4,2.5-2.7,2.3-3.2,2.2-3.5,2-3.9,1.7-4.2,1.5-4.5,1.3-4.6.9-4.8.7L100,81l-5,.1-4.9-.3-4.8-.5-4.7-.8-4.5-1.2-4.3-1.4m.8,6.3-.8-6.3m.8,6.3,4.7,1.3,5,1,5.1.7,5.3.4,5.2.1,5.3-.2,5.1-.6,5.1-.8,4.9-1.2,4.6-1.5,4.3-1.7,4-2,3.7-2.2,3.2-2.4,2.7-2.6,2.3-2.7,1.8-2.9m-66.8-30.2.2,1.3.6,1.8,1.1,1.6,1.6,1.5,1.9,1.3m0-10.6-2.3-1.5-1.7-1.7-1-1.8-.4-2m5.4,2.9L81.15,27l-1.7-1.7-1-1.9-.4-1.9m17.8-16.6.2-.1H97l.2.1m-13.7,19.4-2.3-1.5-1.7-1.7-1-1.9-.4-1.9m5.4,2.8-2.3-1.5-1.7-1.7-1-1.8-.4-2m8.7-5.8-.3.4L86,9v1.4l.5,1.3,1,1.2L89,14m-5.5,29.2,2.3,1.2,2.7.9,2.8.6,3,.4h3l3-.2,2.9-.5,2.8-.7,2.5-1.1,2.1-1.2,1.8-1.4,1.3-1.6.9-1.7.4-1.7v-.5M91.45,7.35l-1.2-1-.7-1.1-.1-1.1.4-1.2,1-1,1.4-.8,1.8-.6L96,.35l2.1.1,1.8.4,1.7.7M97.25,4l-.3-.1h-.9l-.3.1-.2.2-.1.3.1.2.2.2m0,0,.3.1.4.1L97,5l.3-.1.2-.2.1-.2-.1-.3-.2-.2M115,23.45h0l-.4,2.2-1,2.2-1.7,1.9-2.3,1.8-2.8,1.4-3.2,1.1-3.5.8-3.6.3-3.5-.1-3.5-.4-3.2-.9-2.8-1.2M115,19.35l-.4,2.2-1,2.1-1.7,2-2.3,1.7-2.8,1.5-3.2,1.1-3.5.7-3.6.3H93l-3.5-.5-3.2-.9-2.8-1.1m18.1-26.9,1.2.9.7,1.1.1,1.2-.4,1.1-1,1-1.4.8-1.8.6-1.9.3L95,8.45l-1.8-.4-1.7-.7M89,14l1.9.9,2.1.6,2.4.3h2.3l2.4-.3,2.1-.6,1.9-.9,1.5-1.1,1-1.2.5-1.3V9l-.5-1.3-.3-.4m-7.5,15.3-4.2.1-4.1-.3-3.7-.9-3.3-1.4m0,0v-.6m3.3-3.6,2.1,1,2.4.7,2.6.5,2.6.1,2.7-.1,2.6-.5,2.4-.7,2.1-1,1.8-1.2,1.2-1.4.8-1.5.3-1.6-.3-1.5-.8-1.5-1.2-1.4-1.8-1.2m8.7,10.6-.4,2.2-1,2.1-1.7,2-2.3,1.7-2.8,1.5-3.2,1.1-3.5.7-3.5.4-3.6-.1-3.5-.5-3.2-.8-2.8-1.2m28.4-8.1-2,2.2-3,1.9-3.8,1.4-4.3.9m9.8-17.5,1.7,1.1,1.3,1.3,1.1,1.4.6,1.4.3,1.5-.2,1.5-.5,1.5-1,1.4m-8.1-13.1.6.2,2.2.8,2,1m-19.3-2,.7-.2m-6.5,16.6-1.4-.9-1.2-1-1-1-.8-1.1-.5-1.2-.4-1.2-.1-1.2.2-1.2m20.5,11.9h-4.2l-2-.2-2.1-.3-1.9-.5-1.8-.6-1.7-.7-1.6-.8m1.5-.9,2.3,1.2,2.7.8,2.8.6,3,.2,3-.1,2.9-.4,2.8-.7,2.5-1,2.1-1.2,1.7-1.4L112,15l.7-1.7.1-1.7-.4-1.8-.9-1.6-.8-.8m-28.3-.1-.1.1L81.05,9l-.7,1.7-.1,1.7.4,1.8.9,1.6,1.5,1.5,1.9,1.3m28.6-5.3-.4,2.1-.9,1.9-1.6,1.9-2.1,1.6-2.6,1.3-2.9,1.1-3.2.7-3.4.3-3.3-.1-3.2-.4-2.9-.8-2.6-1.1m0,0-2.1-1.3-1.6-1.6-.8-1.5m32.8,3-.5,1.1-1.6,1.8-2.1,1.7-2.6,1.3-2.9,1-3.2.7-3.4.4-3.3-.1-3.2-.4-2.9-.8L84.45,26m0,0-2.1-1.4-1.6-1.5-.8-1.6m32.8,3.1-.5,1.1-1.6,1.8-2.1,1.6-2.6,1.4-2.9,1-3.2.7-3.4.3h-3.3L90,32l-2.9-.7-2.6-1.1m0,0-2.1-1.4-1.6-1.6-.8-1.5m32.8,3.1-.5,1-1.6,1.9-2.1,1.6-2.6,1.3-2.9,1.1-3.2.7-3.4.3-3.3-.1-3.2-.4-2.9-.8-2.6-1.1m0,0L82.35,33l-1.6-1.6-.8-1.5m-1.6-2.8-.3,1.5.4,1.9,1,1.9,1.7,1.7,2.3,1.5m0,0,2.8,1.2,3.2.8,3.5.5,3.5.1,3.6-.4,3.5-.7,3.2-1.1,2.8-1.5,2.3-1.7,1.7-2,1-2.1.4-2.2-.3-1.5m-36.3-2.1-.3,1.5.4,2,1,1.8,1.7,1.7,2.3,1.5m0,0,2.8,1.2,3.2.9,3.5.4,3.5.1,3.6-.3,3.5-.8,3.2-1.1,2.8-1.4,2.3-1.8,1.7-1.9,1-2.2.4-2.2-.3-1.5m-36.3-2-.3,1.4.4,2,1,1.9,1.7,1.7,2.3,1.4m0,0,2.8,1.2,3.2.9,3.5.5h3.5l3.6-.3,3.5-.7,3.2-1.1,2.8-1.5,2.3-1.7,1.7-2,1-2.1.4-2.2-.3-1.5m-36.3-2.1-.3,1.5.4,1.9,1,1.9,1.7,1.7,2.3,1.5m0,0,2.8,1.2,3.2.8,3.5.5,3.6.1,3.5-.4,3.5-.7,3.2-1.1,2.8-1.5,2.3-1.7,1.7-2,1-2.1L115,14l-.4-2.2-1-2.1-1.7-2L111,7m-21.1-4.1-3.9.9-3.8,1.9L79.55,8l-1.3,2.7m0,0,1.4-2.5L82.05,6l3.3-1.7,3.9-1.2m56.4,50.4.1.4.2.7.1.4-.1.2m5.9.5h-1.7l-1.8.8m4.6-.2,1.1.5.6.6.3.6.2.6.1.5v.3m-3.4-3.7.6.3m-108.1.6-2-.7h-1.6m0,0-.6.3m-.4.3-1.2.5-.6.6-.3.6-.2.6-.1.5v.3m122.5.6-2-.1-2.1.6m5,.1,1.3.7.7.6.4.6.2.7.1.5.1.4m-2.7-3.5-1-.6M37,60.75l-2.2-.5-1.9.1m0,0-1.1.6m.2,0-1.3.7-.7.6-.4.6-.3.7-.1.5v.4m116.6-6.6,2.6-1.4m1,.5-.1-.1h-.1l-.2-.1-.1-.1h-.1l-.2-.1-.1-.1h-.1m-104,.1,1,.6m-1-.6-.1.1-.1.1H44l-.1.1-.1.1h-.2l-.1.1-.1.1m123.3,8.1-2.1-.3-2.3.4m5.2.6,1.5.7.7.7.5.6.3.7.1.5.1.5m-4-4.4,1.5.7.3.3m-137.9-.7-2.5-.4-2,.3m0,0-1.5.8-.3.2m1-.3-1.4.7-.8.7-.4.6-.4.7-.1.5-.1.6m127.3-13,2-.7H153m-3.6.7-3.5,2.1m-100.6-.9-1.9-1m-3.6-.7,1.7-.1,1.9.8m104.2,7,2.4-1,5.8-2.5m1,.6-.1-.1h-.1l-.1-.1-.1-.1h-.1l-.1-.1h-.1l-.1-.1m0,0h0l-.1-.1h-.1M37,60.75l7.6,3.2.5.2M37,60.75l-.1.1-.1.1-.1.1-.2.1h-.1l-.1.1-.1.1-.1.1m120.7-.2,2.2-.6,1.8.1m-4,.5-7.5,3.2-1.2.5M45,65.05l-3-1.2-5.9-2.4M32,61l1.9-.1,2.2.6m136.3,9.3-2.3-.5-2.5.3m5.4.9,1.6.9.8.8.5.6.4.7.1.5.1.5v.2m-4.1-4.9,1.6.9.9.8m-149.5-1.7-2.7-.2-2.2.5m0,0-1.6.8-.9.9m1.9-1-1.6.8-.8.8-.5.7-.4.7-.2.5-.1.5V76h.1M150,69.25l5.8-1.9,6.5-2m.7.7V66l-.1-.1-.1-.1-.1-.1h-.1l-.1-.1-.1-.1-.1-.1m-131.7.2,8.4,2.5,4.1,1.3m-12.5-3.8-.1.1-.1.1h-.1l-.1.1-.1.1-.1.1-.1.1-.1.1m133.2-.2,2.5-.4,2,.3m-4.5.1-8.2,2.6-4.6,1.4m-107.4.1-6.4-1.9-6.6-2m-4.5-.1,2.2-.3,2.3.4m121.8,7.8-.5.1H151m-109.6-.1.6.1.4.2m134.4,2.3-2.5-.6h-2.6m5.5,1.4,1.7.9.9.9.5.7.4.7.2.5.1.6v.1m-4.2-5.2,1.6,1,1,.9.6.8v.1m-158.7-3.2h-2.8l-2.3.7m0,0-1.7,1-1,.9-.6.8v.2m2.8-2.2-1.6,1-.9.9-.6.6-.4.8-.1.5-.2.5v.2m139.7-8.1,9-2,7-1.5m.6.7-.1-.1-.1-.1V71l-.1-.1-.1-.1h-.1l-.1-.1v-.1m-16,3.5h.1l.1.1.1.1.1.1v.1l.1.1.1.1.1.1m-126.9-4,8.9,1.8,7.1,1.5m-16-3.3-.1.1-.1.1-.1.1H25v.1l-.1.1-.1.1-.1.1m16.1,3.3h.1v-.1l.1-.1.1-.1.1-.1v-.1l.1-.1.1-.1M150,105V91M43.05,91v12.4m111.7-25.1-.6.1-.4.1m-115.6-.1.6.1.5.1m113.4.1,1.1-.2m0,0v.1l.1.1.1.1v.1l.1.1v.1l.1.1v.1m14-8,2.7-.2,2.1.4m-4.8-.2-8.9,2-7,1.5m0,0-.6.1-.4.1m0,0-.1.1m-111.9,3.5,1.1.2m-1.6.5h.1v-.1l.1-.1.1-.1v-.1l.1-.1v-.1l.1-.1m1.5-3.8.5.2.5.1m-1-.3-9-1.8-7.1-1.5m-4.8.3,2.3-.5,2.5.2m17.2,3.6h-.1m110.9,3.6-.7.2-.6.4h-.1m1.8.2v-.1l-.1-.1v-.1l-.1-.1-.1-.1v-.1l-.1-.1v-.1m-110.9.7-.2-.1-.5-.3-.7-.2m0,0-.1.1V79l-.1.1v.1l-.1.1v.1l-.1.1-.1.1m114.9-1.3,9.5-1.2,7.4-1m.4.8v-.1l-.1-.1v-.1l-.1-.1-.1-.1v-.1l-.1-.1v-.1m-16.9,2.2.1.1v.1l.1.1.1.1v.1l.1.1V79l.1.1m-134-2.8,9.5,1.2,7.4.9m-16.9-2.1-.1.1v.1l-.1.1v.1l-.1.1v.1l-.1.1v.1m16.9,2.1v-.1l.1-.1v-.1l.1-.1.1-.1v-.1l.1-.1v-.1m141.6,4.5-2.5-.8-2.8-.2m5.6,1.8,1.7,1.1.9.9.6.7.4.8.2.5.2.6v.1m-4.3-5.5,1.7,1.1,1,1,.5.8.5.9.3.6M152,100.75V85.65m-110.9,0v13.6m-22.6-17.2-2.9.3-2.4.8m0,0-1.7,1.1-1,1-.6.9-.4.9-.3.6M13,84l-1.7,1.1-1,.9-.5.7-.5.8-.2.5-.2.6v.1M157,82.75l-.6.1h-.5m-119.8,0h.6l.5.1m117.6.1,1.1-.2m0,0,.1.1v.2l.1.1v.2l.1.1v.1m-119-.7,1.1.1m-1.4.7v-.2l.1-.1v-.2l.1-.1v-.1l.1-.1m117.6.1-.7.1-.6.3-.5.3-.4.4-.5.8-.1.7m3.1-1.8-.1-.1v-.2l-.1-.1v-.2l-.1-.1v-.1m-2.5,3.4v-.1l-.1-.1v-.1l-.1-.1v-.2l-.1-.1v-.1m-110.9,0-.2-.8-.3-.5-.3-.4-.7-.5-.6-.2-.7-.2m0,0v.1l-.1.1v.2l-.1.1v.2l-.1.1m3.1,1.8-.1.1V86l-.1.1v.2l-.1.1v.1m110.6-6,.5-.5.5-.3.7-.2m-2.6,10.3v12.4m21.6-25.3h2.8l2.3.6m-5.1-.6-9.4,1.2-7.4,1m0,0-.6.1-.5.1m0,0-1.1.2m-115.3-.3.6.1h.4m-1-.1L28.25,78l-7.4-.9m-5.2.6,2.5-.6h2.7m21.7,25V89.75m-2.7-10.2.7.2.6.3.5.4m-1.8-.9-1.1-.3m114.3,14.6v-4m0,7.1v-2.1M40,90v4m117-11.2,9.8-.5,7.7-.4m.3.8-.1-.1v-.2l-.1-.1v-.1l-.1-.1v-.2m-17.5.9.1.1v.2l.1.1v.2l.1.1v.1m-138.8-1.5,9.8.5,7.8.3m-17.6-.8v.2l-.1.1v.2l-.1.1v.2m17.5.8v-.2l.1-.1v-.2l.1-.1V83l.1-.1m122.1,4.6h-1.1m-122.2,0H36m119.9,0h1.2m0,0v.7l.1.1M36,87.45l1.2.1m-1.3.7v-.1l.1-.1v-.6m119.9,0-.7.1-.6.2-.6.4-.3.3-.5.8-.1.6m2.9-1.6V88l-.1-.1v-.4m-2.7,3.3v-.1l-.1-.1v-.7M40,90l-.2-.9-.2-.4-.4-.4-.7-.4-.6-.2-.7-.1m0,0v.3l-.1.1v.4M40,90v.6l-.1.1v.1m141.4-1.6-2.5-1-2.8-.4m5.4,2.3,1.8,1.2,1,1,.5.8.5.8.2.5.2.6v.1m-4.3-5.9,1.8,1.3,1,1.1.6.8.4,1,.3.6.2.8v.3m-168.5-7-3,.4-2.4,1m0,0-1.8,1.3L9,91.85l-.6.9-.5.9-.2.7-.2.7v.2h-.1v.1m4.2-5.1-1.7,1.3-1,1-.6.7-.4.8-.2.6-.2.5-.1.2m144.9-8.9.2-.9.2-.4.4-.4.7-.5.5-.3.8-.1m-2.8,2.6v11.7m22.5-15.5,2.9.2,2.4.8m-5.3-1-9.8.5-7.7.4m0,0-.6.1h-.5m0,0-1.1.2m-119.3-.2h.6l.5.1m-1.1-.1-9.8-.4-7.7-.4M13,84l2.5-.9,2.8-.2m22.5,15.3V86.45M38,83.85l.7.2.6.2.5.4.4.4.5.8.1.6M38,83.85l-1.1-.1m121.3,3.7,9.9.2,7.9.1m.1.9-.1-.1v-.8m-17.8-.3v.6l.1.1v.1m-141.2-.2,10-.3,7.8-.3m-17.8.6v.5l-.1.1v.2m17.8-.6v-.2l.1-.1v-.5M156,92h1.2m1.1.1h-.6l-.5-.1m0,0v.2l-.1.1v.6m-121.2-.8h1.2m-2.3.1.7-.1h.4m.1.8v-.7l-.1-.1m149.8,65v-55.3M156,92l-.7.1-.6.1-.6.3-.4.3-.4.8-.1.6m2.7-1.4v-.3l.1-.1V92m-116.1,2.3-.2-.9-.2-.4-.4-.3-.7-.4-.6-.2h-.7m0,0v.3l.1.1v.4m-29.7,64.5v-55.3m152.7,92,4.6-2.9,4.2-3,3.8-3.2,3.3-3.4,2.9-3.5,2.5-3.6,2-3.7L185,167l1-3.9.5-3.8v-2m-5-61.6-2.6-1.2-2.8-.6m5.3,2.6,1.8,1.3.9,1.1.6.8.5.9.2.5.2.6v.1h.1v0m-4.2-6.1,1.7,1.3,1,1.2.6.9.4,1,.2.6.2.8.1.2v.1M17,94.05l-2.9.7-2.4,1.1m0,0-1.8,1.5-1,1.1-.5.9-.5,1-.2.7-.2.7v.3m4.3-5.3L10,98.05l-1,1.1-.6.8-.4.8-.3.6-.2.6v.1m145.7-11.3.2-.9.2-.4.4-.4.7-.5.6-.2.7-.1m-2.8,2.5v3.1m22.9-5.2,2.9.4,2.4,1m-5.3-1.4-10-.3-7.8-.1m0,0h-1.1m0,0H156m-121.2,0h1.1m-1.1,0-9.9.4-7.9.2m-5.4,1.4,2.6-1,2.8-.4m22.9,5.2v-3.3m-2.8-2.4.7.1.6.2.6.3.4.4.4.7.1.7m-2.8-2.4-1.2-.1m119.2,8.2,1.1.1m-119.3.1,1.1-.2m119.3.3-.6-.1-.5-.1m0,0v.2l-.1.1v.2l-.1.1v.1l-.1.1m-120.1-.6.6-.1h.5m.3.8-.1-.1v-.2l-.1-.1v-.2l-.1-.1v-.1m118.2-.2h-.7l-.6.1-.5.2-.4.3-.5.7v.1m2.4-.6v-.1l.1-.1v-.2l.1-.1v-.2l.1-.1m-114.4,1.4-.1-.2-.2-.4L40,97l-.7-.4-.5-.1H38m0,0,.1.1v.2l.1.1v.2l.1.1v.1m120-5.2,9.9,1,7.9.8m-.1.8v-.5l.1-.1v-.2m-17.8-1.8v.2l-.1.1v.5M17,94.05,27,93l7.8-.8M17,94.05l.1.1v.7M34.85,93v-.6l-.1-.1v-.1m149.4,71.6v-55.3M9,164v-55.2M153.05,95l.2-.8.2-.4.4-.4.7-.4.6-.1.7-.1m-2.8,2.2v2m22.9-2.3,3,.6,2.4,1.2m-5.4-1.8-10-1-7.8-.8m0,0h-1.1m0,0-1.2-.1m-121,.2h.6l.5-.1m-1.1.1L25,94.05l-7.9.8m-5.3,1.9,2.5-1.3,2.8-.6M40,97v-1.9m-2.8-2.2h.7l.6.2.6.3.3.3.5.7.1.7m-2.8-2.2H36m117.2,7.9,1.1.2m25.8,1-2.5-1.4-2.8-.8m5.1,3,1.7,1.5,1,1.2.6.8.4.9.3.6.2.6v.1h.1m-4.1-6.5,1.7,1.6,1,1.2.5.9.5,1,.2.7.2.8v.3m-145.3-7.4,1.1-.2m113.2-.1h-.7l-.6.1-.5.2-.4.2-.3.5m2-.2.1-.1v-.1l.1-.1v-.1l.1-.1V101l.1-.1.1-.1m-110.8,1-.2-.3-.3-.3-.7-.3-.5-.1-.7.1m0,0v.1l.1.1v.1l.1.1.1.1v.1l.1.1v.1m114.9-.4-.6-.2-.4-.1m0,0-.1.1v.1l-.1.1-.1.1v.1l-.1.1v.1l-.1.1m-135.5-1.7-2.9.9-2.4,1.3m0,0-1.7,1.6-.9,1.2-.6,1-.4,1-.2.7-.2.7v.3m4.3-5.7-1.7,1.5-1,1.1-.5.9-.5.9-.3.6-.2.6v.1H9m28.8-7.5.6-.1.5-.1m.4.8v-.1l-.1-.1-.1-.1v-.1l-.1-.1v-.1l-.1-.1v-.1m118.4-4.3,9.8,1.7,7.7,1.3m-.2.8v-.2l.1-.1v-.2l.1-.1v-.2m-17.5-3V97l-.1.1v.2l-.1.1v.1l-.1.1m-138.7,2.5,9.8-1.9,7.7-1.4m-17.5,3.3.1.1v.2l.1.1v.1l.1.1v.2m17.5-3.3-.1-.1v-.2l-.1-.1V97l-.1-.1v-.1m114.5,8.2-.7-.1h-.5l-.5.2-.4.2-.1.2m-103.1,0h0l-.3-.3L44,105l-.5-.1-.6.1m107.4,0,1,.3m-1.7.4.1-.1h.1l.1-.1.1-.1v-.1l.1-.1.1-.1.1-.1m-108.5.4,1.1-.4m0,0v.1l.1.1.1.1.1.1.1.1v.1l.1.1.1.1m137.7,64.5V115m-28.9-9.4-.5-.2-.5-.1m0,0-.1.1v.1l-.1.1-.1.1-.1.1-.1.1-.1.1m-109.9-.3.6-.2.4-.1m.7.7-.1-.1-.1-.1-.1-.1-.1-.1v-.1l-.1-.1-.1-.1h-.1M152,99.25l.2-.9.3-.3.3-.4.7-.3.6-.1h.7m-2.8,2v1.5m22.6-.2,2.9.9,2.4,1.3m-5.3-2.2-9.8-1.7-7.8-1.3m0,0-.6-.1-.5-.1m0,0-1.1-.1m-142.7,73.3v-55.3m24-17.7.6-.1h.5m-1.1.1-9.8,1.8-7.7,1.5m-5.3,2.2,2.5-1.4,2.8-.8m22.5,0v-1.6m-2.8-2H39l.6.1.5.3.4.3.5.7.1.6m-2.8-2-1.1.2m140.2,10.8-2.5-1.6-2.7-1m4.7,3.3,1.7,1.7,1,1.2.6.9.4.9.3.6.2.6v.1h.1v0m-3.8-6.7,1.6,1.6.9,1.3.6,1,.4,1,.1.7.2.8v.3M21,105.85l-2.8,1.1-2.3,1.5m0,0-1.7,1.7-.9,1.3-.5,1-.4,1.1-.2.6-.1.8v.3m4.2-6-1.6,1.6-1,1.2-.6.9-.4,1-.3.5-.2.7-.1.1m143.2-14,9.5,2.4,7.4,2m-.4.7.1-.1v-.1l.1-.1V106h.1v-.1l.1-.1v-.1m-16.9-4.4v.1l-.1.1v.1l-.1.1-.1.1v.1l-.1.1v.1M21,105.85l9.4-2.6,7.4-2M21,105.85v.1l.1.1v.1l.1.1.1.1v.1l.1.1v.1m16.9-4.6-.1-.1v-.1l-.1-.1-.1-.1v-.1l-.1-.1v-.1l-.1-.1m108.7,7.6-.6-.1h-.6l-.4.1-.3.2m-96.1,0-.2-.1-.5-.2h-.5l-.6.2m99.8-.1.9.4m-1.7.3.1-.1.1-.1h.1l.1-.1.1-.1.1-.1.1-.1.1-.1m-100.8.4,1-.3m0,0,.1.1h.1l.1.1.1.1.1.1.1.1.1.1h.1m100.9.1-.6-.2-.4-.2m0,0-.1.1-.1.1-.1.1H147l-.1.1-.1.1-.1.1v.1m-101.9-.3.5-.2.4-.2m.8.7-.1-.1h-.1l-.1-.1-.1-.1-.1-.1-.1-.1-.1-.1-.1-.1m104.3-5.9.2-.8.2-.4.4-.3.7-.3h1.2m-2.7,1.8V105m26.9,64.9V109m-5.1-2.6,2.8,1.1,2.3,1.5m-5.1-2.6-9.5-2.4-7.4-1.9m0,0-.6-.2-.5-.1m0,0-1.1-.2m-114.4.5.6-.1.4-.1m-1,.2-9.5,2.6-7.4,2m-5.1,2.6,2.5-1.6,2.6-1m-5.1,2.6v60.8M43.05,105v-1.6m-2.7-1.7.7-.1.6.1.5.2.4.2.4.7.1.6m-2.7-1.7-1.1.2m137.4,74.6v-55.2m-160.1,55.5v-55.3m135.7-15.9,9,3.2,7.1,2.4m-16.1-5.6-.1.1v.1l-.1.1-.1.1-.1.1v.1l-.1.1h-.1m-9.9,6.2-.5-.2h-.5l-.4.1-.2.1m-87.3,0h0l-.6-.2-.4.1-.5.2m-26.5-1.2,8.9-3.2,7-2.5m.7.7-.1-.1-.1-.1-.1-.1-.1-.1-.1-.1-.1-.1-.1-.1m101,6.8.9.5m-1.8.1h.1l.1-.1.1-.1.1-.1h.1l.2-.1.1-.1.1-.1m-91.3.5.9-.4m0,0h.1l.1.1.1.1.1.1h.1l.2.1.1.1.1.1m120.9,1-2.3-1.7-2.5-1.3m4.2,3.8,1.6,1.7,1,1.3.5.9.5,1,.2.6.2.6.1.1v.1m-3.5-7.1,1.6,1.8.8,1.3.5,1.1.4,1,.2.8.1.7v.4h-.1m-9-9.3.1-.1.1-.1.1-.1.1-.1v-.1l.1-.1.1-.1.1-.1m-24.9,2.2-.4-.2-.4-.2m0,0h-.1l-.1.1-.2.1-.1.1-.1.1H142l-.1.1-.2.1m-116.8-2.2-2.7,1.4-2.1,1.7m0,0-1.6,1.8-.8,1.4-.5,1-.4,1.1-.1.7-.1.7v.3m4.1-6.3-1.6,1.7-.9,1.3-.5,1-.5.9-.3.6-.2.7-.1.1v0m8.3-10.1.1.1.1.1v.1l.1.1.1.1.1.1.1.1v.1m24.2,1.3.4-.3.4-.2m.9.6h-.1l-.1-.1-.1-.1-.2-.1-.1-.1h-.1l-.1-.1-.1-.1m96.6-5.7.2-.8.2-.3.3-.3.7-.2.5-.1.6.1m-2.5,1.6v1.9m25.5,66.6V115m-4.9-3,2.7,1.3,2.2,1.7m-4.9-3-8.9-3.2-7.1-2.5m0,0-.6-.1-.4-.2m0,0-1.1-.3m-108.1.7.5-.2.5-.1m-1,.3-9,3.2-7,2.6m-4.8,3,2.3-1.8,2.5-1.2m-4.8,3v60.9M46,109.15v-1.8m-2.5-1.6.6-.1h.6l.5.2.3.2.4.6.1.7m-2.5-1.6-1,.3m93.9,9.6-.5-.2-.4-.1-.4.1m-77,.1-.4-.1h-.4l-.5.3m79.6-.1.7.5m-1.8.1.1-.1h.2l.1-.1.1-.1.2-.1h.1l.1-.1.2-.1m-80.4.6.8-.5m0,0h.1l.2.1.1.1h.1l.2.1.1.1h.1l.2.1m80,.5-.4-.3-.4-.3m0,0-.1.1-.1.1-.2.1h-.1l-.1.1-.2.1h-.1l-.1.1m-80.8,0,.4-.3.3-.2m1.1.5H57l-.2-.1-.1-.1h-.1l-.2-.1-.1-.1h-.1l-.2-.1m92.4-6.6,8.3,3.8,6.6,3m-14.9-6.8-.1.1-.1.1h-.1l-.1.1-.1.1-.1.1-.1.1-.1.1m-117.5,6.3,8.2-3.9,6.5-3.1m.8.7-.1-.1h-.1l-.1-.1-.1-.1-.1-.1-.1-.1-.1-.1-.1-.1m126.1,72.7v-55.3m-148.5.3v55.2m107.8-64.1-.4-.2-.3-.1h-.3m-65.3,0h-.3l-.3.1-.4.3m104.9,1.2-2.2-1.9-2.3-1.4m3.7,4,1.5,1.9.9,1.3.5,1,.4,1,.3.6.2.7.1.1m-3.1-7.3,1.4,1.9.8,1.4.4,1.1.4,1.1.1.7.1.8v.3h-.1m-8.4-9.9.1-.1.1-.1.1-.1.1-.1.1-.1h.1l.1-.1.1-.1m-133.2.2-2.5,1.5-2,1.9m0,0-1.5,1.9-.7,1.4-.5,1.1-.3,1.1-.1.7-.1.8v.3m4-6.7-1.5,1.9-.9,1.3-.5,1-.4,1-.3.6-.2.7-.1.1v.1h-.1m7.7-10.7v.1h.1l.1.1.1.1.1.1.1.1.1.1.1.1m99.4,1.1.7.6m-1.8-.1.1-.1h.2l.1-.1h.2l.1-.1.2-.1h.1l.1-.1m-67.9.6.6-.5m0,0h.2l.1.1h.2l.1.1h.2l.1.1.2.1h.1m79.2-8,.2-.8.2-.3.3-.3.6-.1h.5l.6.1m-2.4,1.4v2.3m23.7,68v-60.8m-4.5-3.3,2.5,1.5,2,1.8m-4.5-3.3-8.4-3.8-6.5-3m0,0-.5-.3-.4-.1m0,0-1-.4m-100.1.8.5-.2.4-.2m-.9.4-8.3,3.9-6.5,3.1m-4.4,3.3,2.1-1.9,2.3-1.4m-4.4,3.3v60.9m23.4-68.2V111m-2.3-1.4.6-.1h.5l.4.1.3.2.4.6.1.6m-2.3-1.4-1,.4m85,9.7-.3-.4-.3-.2m0,0h-.1l-.2.1-.1.1h-.2l-.1.1H130l-.1.1h-.2m-68,.2.3-.3.3-.3m1.2.5-.2-.1h-.1l-.2-.1-.1-.1h-.2l-.1-.1h-.2l-.1-.1m81.2-5.7,7.6,4.4,5.9,3.5m-13.5-7.9-.1.1-.1.1-.1.1h-.1l-.2.1-.1.1-.1.1h-.1m-106.3,7.5,7.5-4.5,5.9-3.5m.9.6h-.1V114h-.1m0,0-.1-.1-.1-.1h-.1l-.1-.1h-.1l-.1-.1-.1-.1m73.8,7.3-.3-.3-.3-.1h-.1m-52.4.1-.2-.1-.3.1-.3.3m53.9,0,.6.6m-1.8-.2.1-.1h.4l.1-.1h.2l.1-.1h.2l.1-.1m-54.4.7.5-.7m0,0,.2.1h.1l.2.1h.2l.1.1h.2l.1.1h.2m53.7.8-.3-.3-.2-.3m0,0-.2.1h-.1l-.2.1h-.2l-.1.1H123l-.2.1m-54.2.3.3-.4.2-.2m1.3.3h-.2l-.1-.1h-.2l-.1-.1h-.2l-.2-.1h-.3m94.8,66.2v-55.2m-47.5-9.9-.2-.3-.2-.2h-.2m-38.5.1h-.1l-.2.1-.2.3m-47.2,65.3v-55.2m109.1-18.3.2-.8.2-.3.2-.2.6-.2h.4l.6.2m-2.2,1.3v3m21.5,69v-60.8m-4.1-3.7-7.6-4.4-5.9-3.5m0,0-.5-.2-.4-.2m0,0-.8-.5m-90.3,1,.5-.3.3-.2m-.8.5-7.5,4.5-5.8,3.5m-4.1,3.7v60.8m21.2-69.1v-3.1m-2.1-1.2.5-.2.5-.1.4.1.3.2.3.6.1.6m-2.1-1.2-.9.4m65,9,.4.6m-1.7-.3.1-.1h.4l.1-.1h.4l.1-.1h.2m-40,.7.4-.7m0,0H77l.1.1h.4l.1.1H78l.1.1m82.1,2.7,1.4,2,.7,1.4.5,1,.5,1,.2.7.2.6.1.2h.1m-2.8-7.5,1.3,1.9.7,1.5.4,1.1.3,1.1.1.8v1.1m-2.8-7.5-1.9-2.1-2.2-1.6m-.9.6.1-.1h.1l.1-.1.2-.1.1-.1h.1l.1-.1.1-.1m-.9.6,2.2,1.7,1.9,2m-127,.2,2-2.1,2.1-1.6m-.2-.1h.1v.1h.1m-1-.6h.1l.1.1.1.1h.1l.1.1h.1l.1.1.1.1m-.8-.5-2.2,1.7-1.8,2m0,0-1.3,2-.7,1.5-.4,1.1-.2,1.1-.1.7-.1.8v.2l.1.1m0,0h0l.1-.1.1-.2.2-.5.3-1m0,0,1.3-2.6,1.6-2.5m75.7-2-.1-.3-.2-.2m-24,.1-.1-.1-.1.2-.1.3m32.8.1-.2-.4-.1-.3m0,0-.2.1h-.3l-.2.1h-.3l-.2.1h-.2m-39.3.4.2-.4.1-.2m1.4.2h-.4l-.1-.1h-.4l-.1-.1h-.4m24.8,1.2-.1-.4V124m-9,0h0l-.1.1v.4m16.9-.7.2.7m-1.6-.5h.2l.2-.1h.7l.1-.1h.2m-24.8.7.2-.7m0,0h.2l.1.1h.7l.2.1h.2m52.2-7.2,6.6,4.9,5.2,3.9m-11.8-8.8h-.2l-.1.1-.1.1h-.1l-.2.1-.1.1H137l-.2.1m-93.1,8.5,6.5-5.1,5.1-3.9m1.1.5h-.2l-.1-.1-.1-.1h-.2l-.1-.1-.1-.1h-.2l-.1-.1m45.9,7.7.1.6m-1.5-.6h1.4m-9.3.6.1-.6m0,0h1.4m16,.6-.2-.3-.1-.3m0,0h-.5l-.2.1h-.7m-23.8.6.1-.4.1-.3m1.4.1h-.7l-.2-.1h-.5m17.3,1.3-.1-.4v-.3m0,0h-.4l-.2.1h-.8m-8,.6v-.7m1.4.1h-.8l-.2-.1h-.4m41.5-7.7.1-.8.2-.3.3-.2.4-.1h.4l.5.3m-1.9,1.1v4.1m15.3,4.6-6.7-4.9-5.2-3.9m0,0-.4-.3-.3-.2m0,0-.8-.5m-78.9,1,.4-.3.3-.2m-.7.5-6.5,5.1-5.2,3.9m15-4.7v-4.2m-1.8-1.1.4-.2.4-.1.4.1.2.1.3.6.1.6m-1.8-1.1-.8.5m95.2,74.1v-60.8m3.3,62.4v-55.2m-117.7,55.4v-55.2m3.3-7.2v60.8m111.1-61,1.2,2.1.7,1.4.4,1.1.4,1.1.2.6.3.7v.1l.1.1m-2.3-7.8,1.2,2.1.6,1.5.3,1.2.2,1.1.1.7v1.1h-.1v.1m-2.3-7.8-1.7-2.2-1.9-1.7m-1,.5h.1l.1-.1.2-.1h.1l.1-.1.2-.1h.1l.1-.1m-1,.5,2,1.9,1.6,2.1m-20.8-10.4,5.6,5.4,4.4,4.2m-10-9.6h-.1l-.2.1h-.1l-.2.1h-.1l-.2.1-.1.1h-.2m-90.2,9.6-1.1,2.2-.6,1.5-.3,1.1-.2,1.2-.1.7v1l.1.1m3.3-7.2-1.2,2-.7,1.5-.4,1-.4,1.1-.2.7-.3.7-.1.1v.1m3.3-7.2,1.7-2.3,1.8-1.7m-1-.5h.1l.1.1.2.1h.1l.1.1.2.1h.1l.1.1m-1-.5-2,1.8-1.6,2.1m11.8-.3,5.5-5.4,4.3-4.3m1.2.4h-.2l-.1-.1h-.2l-.1-.1h-.2l-.1-.1-.2-.1h-.1m65.8.2.1-.7.1-.3.2-.2.4-.1.4.1.4.3m-1.6.9v5.9m12.9,4-5.6-5.4-4.5-4.3m0,0-.3-.3-.3-.3m0,0-.6-.5m-66.2,1.1.3-.3.3-.2m-.6.5-5.5,5.5-4.3,4.3m12.6-3.8V120m-1.6-1,.4-.3.3-.1.3.1.2.1.3.5.1.7m-1.6-1-.6.6m61.1,2.4,4.5,5.8,3.5,4.6m-8-10.4-.2.1h-.1l-.2.1h-.2l-.1.1h-.2l-.1.1h-.2m20.1,72.4V134m3,62.6v-55.2m-85.5-8.9,4.3-5.9,3.4-4.5m1.3.3h-.2l-.1-.1h-.2l-.1-.1h-.4l-.1-.1h-.2m117,24.4.4,1.5.5,3.9v3.9l-.5,3.9-1,3.8-1.5,3.8-2,3.7-2.5,3.6-2.9,3.5-3.3,3.4-3.8,3.2-4.2,3-4.6,2.9m24-33.3h.7l.5-.1h.2v-.1h.1m-4.5,6.7,1.5.1H184l.1-.1h.1m-7.3,6.1,2.7.4.7.1h.8v-.1h.1m-4.4-.4h.1m-.2,6.6h.1m-4.2-.7,2.6.6.7.2h.8v-.1m-5.7-1.2,1.6.5m-1.7,6.6.1-.1m-4-1,2.4.9.7.1.4.1h.4m-7-2.2,3.1,1.1m-3.1,6.4h0v-.1m-3.7-1.2,2.2,1,.6.2.5.2h.3l.1-.1m-8.2-3.5,4.5,2.2m-4.6,6.1h.1v-.1m-3.4-1.5,1.9,1.2.6.3.4.1h.4m-9.1-5.3,5.8,3.7m-5.9,5.7h0l.1-.1m-3.1-1.7,1.7,1.3.5.3.4.2h.4m-10-7.7,7,5.9M47,196.55h0l.1.1v.1h.1m2.9-1.8,7-6.2m-19.2,3.9h.4l.5-.2.8-.4,1.6-1m-3.4,1.5h0v.1h.1m3.3-1.6,5.8-3.9m-17.4.7.1.1H30l.6-.2.8-.3,1.8-.9m-3.7,1.2h0v.1h.1m3.6-1.3,4.6-2.3m-15.4-1.7h.1l.1.1h.2l.7-.1.9-.3,2-.7m-4,.9v.1m4-1,3.1-1.3m-12.9-3.5h.1l.1.1H17l.6-.1,1-.2,2.1-.5m-4.1.6h0v.1m4.1-.7,1.7-.5m-10.3-5h.1l.1.1h.8l1-.2,2.2-.4m0,0h.3M9,164l.1.1.1.1H11l1.1-.1m-4.6-6.7h0v.1h.3l.6.1H9m69.2,31.6h0m-71.7-31.9.1,2,.5,3.8,1,3.9,1.5,3.8,2,3.7,2.5,3.6,2.9,3.5,3.3,3.4,3.8,3.2,4.2,3,4.6,2.9m0,0,4.9,2.6,5.3,2.4,5.6,2.2,5.8,2,6.1,1.6,6.2,1.5,6.5,1.1,6.5.9,6.7.5,6.7.3h6.7l6.7-.3,6.7-.5,6.5-.9,6.5-1.1,6.2-1.5,6.1-1.6,5.8-2,5.6-2.2,5.3-2.4,4.9-2.6m0-3.5v3.5m0-3.5-4.9,2.6-5.3,2.5-5.6,2.1-5.8,2-6.1,1.7-6.2,1.4-6.5,1.1-6.5.9-6.7.6-6.7.3h-6.7l-6.7-.3-6.7-.6-6.5-.9-6.5-1.1-6.2-1.4-6.1-1.7-5.8-2-5.6-2.1-5.3-2.5-4.9-2.6m0,0-4.6-2.9-4.2-3-3.8-3.2-3.3-3.4-2.9-3.5-2.5-3.6-2-3.7-1.5-3.8-1-3.8-.5-3.9v-3.9l.5-3.9.3-1.4m39.8,50.2v-55.2m0,55.2h.4l.5-.3.6-.4,1.4-1.1m0-60.9V195m93.3-61,1,2.1.7,1.6.3,1,.4,1.1.2.7.2.7.1.1v.1h.1m-1.8-7.9.9,2.2.5,1.5.3,1.2.1,1.1.1.8v.8l-.1.2v.1m-1.8-7.9-1.5-2.3-1.6-1.9m-1.1.5.1-.1h.2l.1-.1.2-.1h.1l.2-.1h.1l.1-.1m-1.1.5,1.6,1.9,1.4,2.3m-94.5-.3-.9,2.2-.5,1.6-.2,1.1-.2,1.1-.1.8.1.8v.3h.1m2.9-7.5-1,2.2-.6,1.5-.4,1.1-.3,1.1-.3.6-.2.7-.1.2v.1m2.9-7.5,1.4-2.3,1.6-1.9m-1.2-.5.1.1.2.1h.1l.2.1h.1l.2.1h.1l.2.1m-1.2-.5-1.7,2-1.3,2.3m68.2-9.8,3.3,6.1,2.6,4.7m-5.9-10.8h-.3l-.2.1h-.3l-.2.1h-.3m-45.3,10.7,3.1-6.1,2.5-4.8m1.3.3-.2-.1h-.3l-.2-.1h-.3l-.2-.1h-.1M121,122l.1-.7.1-.3.2-.2h.3l.3.1.3.3m-1.3.8v9m4.7,57.8,8,9.2m-2.4-65.3-4.5-5.8-3.5-4.5m0,0-.3-.4-.2-.2m0,0-.5-.6m-52.4,1.2.3-.3.2-.3m-.5.6-4.3,5.9-3.5,4.5m-2.3,65.3,8.1-9.6m4.2-56.9V122m-1.2-.8.3-.3.3-.1h.2l.2.1.2.5v.6m-1.2-.8-.5.6m65.9,78.2h0l.1-.1v-.1m-2.7-1.8v-60.8m0,60.8,1.4,1.4.4.4.4.2h.4m0,0v-55.2m-79.2,55.1h0v.1l.1.1h.1m0,0v-55.2m0,55.2.1.1h.1l.1-.1h.1l.4-.3.6-.5,1.1-1.2m0-60.8v60.8m49.6-73,2,6.3,1.6,5m-3.6-11.3-.2.1h-.7l-.2.1H108m-27.5,11.1,1.9-6.3,1.5-4.9m1.3.1h-.5l-.1-.1h-.7m49.8,12,.9,2.2.5,1.6.3,1.1.3,1.1.2.7.2.7.1.1v.1h.1m-1.3-8,.8,2.2.3,1.6.2,1.2.1,1.1v1.6l-.1.2v.1m-1.3-8-1.1-2.5-1.3-1.9m-1.3.3h.3l.2-.1h.2l.1-.1h.2l.1-.1h.2m-1.3.3,1.4,2.1,1,2.4m-75.2-.3-.7,2.3-.4,1.6-.2,1.1-.1,1.2v.7l.1.8v.3h.1m2.5-7.6-.8,2.2-.5,1.5-.3,1.1-.3,1.2-.2.7-.3.7v.2h-.1m2.5-7.6,1.1-2.5,1.2-2m-1.2-.3H61l.2.1h.1l.2.1h.2l.1.1h.3m-1.2-.3-1.3,2.1-1.1,2.3m42.9-11.1.7,6.4.6,5m-1.3-11.4h-1.1l-.2.1h-.2m-9.1,11.3.6-6.4.5-5m1.4.1h-.4l-.2-.1h-.8m22.2-2.2.1-.7.1-.3.1-.2h.2l.2.1.3.4m-1,.7v17.8m.4,44.3,8.9,14.7m-1.7-65.4-3.3-6.1-2.6-4.8m0,0-.2-.3-.2-.3m0,0-.3-.6m-37.7,1.3.2-.4.2-.3m-.4.7-3.1,6.1-2.5,4.8m-1.7,65.4,7.9-13.7m1-4v-59.2m-.9-.7.3-.3.1-.2h.2l.1.1.2.5v.6m-.9-.7-.3.6m47.7,79.1h.1v-.1h.1v-.2m-2.3-1.9v-60.8m0,60.8,1.1,1.5.3.4.3.2.1.1h.3m0,0v-55.2m-57.6,55v.2H68v.1h.1m0,0v-55.2m0,55.2h.3l.1-.1.4-.3.4-.5.8-1.3m0-60.8v60.8m33.1-17.1,1.6-.1,2.1-.2m-13.3.5h6m-13.4-.5,3.2.3,1.1.1m32.9-43.9.7,2.3.4,1.6.2,1.1.3,1.1.1.7.2.7.1.2v.1h.1m-.7-8.1.5,2.3.3,1.6.1,1.2v1.9l-.1.8v.2h-.1v.1m-.7-8.1-.9-2.5-.9-2.1m-1.3.3h.1l.2-.1h.3l.2-.1h.3l.2-.1m-1.3.3.9,2.2.8,2.4m-16.5-14.9.1-.8v-.2l.1-.2h.1l.2.1.1.4m-.6.7V186m0,0,5.8,16.1m-1.1-65.6-2-6.3-1.6-4.9m0,0-.2-.4-.1-.3m0,0-.2-.6m-38.7,15.4-.5,2.3-.3,1.6-.1,1.2v1.9l.1.8v.2l.1.1m2-7.8-.6,2.2-.4,1.6-.2,1.1-.3,1.2-.1.7-.2.7-.1.2-.1.1m2-7.8.8-2.6.9-2m-1.3-.3.1.1H71l.1.1h.5l.2.1m-1.3-.3-1,2.2-.7,2.4m16.4-14.1.2-.4.1-.3m-.3.7-1.8,6.3-1.5,5m-1,65.5,5.3-16.1m0,0v-61.3m-.2-1.2.1.1.1.5v.6m-.5-.7.1-.3.1-.2H86m-.3.5-.2.6m14.1.6V124h.1v.2l.1.3m-.2.7v61.3m0,0,2,16.4m-.3-65.6-.8-6.4-.6-5m0,0v-.7m0,0-.1-.7m-6.5,1.4v-.7m0,.7-.6,6.4-.5,5m-.3,65.6,1.7-16.4m0,0v-61.3m-.1-1.2v.1l.1.5v.6m-.2-.7v-.3l.1-.2m-.1.5-.1.7m20.9,79.2h.1l.1-.1.1-.1v-.4m-1.8-1.7v-60.9m0,60.9.7,1.5.2.4.3.3h.1v.1h.2m0,0v-55.3m-35.1,54.8v.3l.1.1v.1h.2m0,0v-55.2m0,55.2h.3v-.1l.4-.3.3-.6.5-1.3m0-60.8v60.8m31.8-60.9.4,2.3.3,1.7.2,1.1.2,1.2.1.7.2.7v.2h.1m-.1-8.1.3,2.3.1,1.7v3.1l-.1.8-.1.2h-.1m-.1-8.1-.5-2.5-.6-2.1m-1.4.1h.5l.2-.1h.7m-1.4.1.6,2.3.5,2.4m-33.2-.1-.3,2.3-.1,1.7v3.1l.1.7.1.2v.1h.1m1.5-7.9-.4,2.2-.2,1.7-.2,1.1-.2,1.2-.2.7-.2.7v.2l-.1.1m1.5-7.9.5-2.6.5-2.1m-1.4-.2h.2l.2.1h.7l.1.1h.2m-1.4-.2-.5,2.3-.5,2.4m23.1,64.2h.1l.1-.1h.1v-.1l.2-.4.1-.6-.1-.1m-1.5-1.1.4,1.6.1.4.2.2.1.1h.1l.1.1m0-55.3v55.3m-1-2.4V142m-11.1,61.9v.5l.1.5.1.2v.1h.1l.1.1H91m0-55.2v55.2m0,0h.1l.1-.1h.1l.2-.4.2-.6.2-1.3m0-60.9v60.9m9.7-60.9.2,2.4.2,1.6.1,1.2.1,1.1.1.7.2.8.1.2m.5-8v5.1l-.1,1.1-.1.8-.1.8-.1.2h-.1m.5-8-.2-2.6-.2-2.2m-1.4.1h.5l.2-.1h.7m-1.4.1.2,2.2.1,2.5m-11.1,0v5.2l.1,1.1.1.7.1.8.1.2v.1H91m.9-8.1-.1,2.3-.1,1.7-.2,1.1-.1,1.2-.1.7-.2.8v.2H91v.1m.9-8.1.2-2.6.1-2.1m-1.4-.1h.4l.2.1h.8m-1.4-.1-.1,2.3-.2,2.5m94.6,27.8.4-1.4,1-3.8.6-3.9v-2m-.7-8,.1.8.6,3.9v3.9l-.6,3.9-1,3.8-1.5,3.8-2,3.8-2.4,3.6-3,3.5-3.4,3.4-3.8,3.3-4.2,3-4.6,2.9M6,158.65v2l.5,3.9,1.1,3.8.4,1.3m31.4,28.2-1.9-1-5-2.6-4.6-2.9-4.2-3-3.8-3.3-3.4-3.4-3-3.5-2.4-3.6-2-3.8L7.55,167l-1.1-3.8-.5-3.9v-3.9l.5-3.9.2-.9m153.9,43.7-5,2.6-2.4,1.2m-75.3-8.7.1.5m-.1-1.1.1.5m-.1-1.1.1.5m-.1-1,.1.4m-.1-1,.1.4m0,2.4.3.4.6.3h.2m-1.2-4.1.1.5m-.1,2.3h0v-.1m.1.5-.1-.4m1.2,1.1-.2-.1-.6-.3-.3-.3m1.1.5-.5-.3-.2-.2m-.4-.4.3.4.6.3h.2m-1.1-.9v.2m-.1-3.4.1.5m-.1,2.3h0m.1.4-.1-.4m1.2,1.1h-.2l-.6-.3-.3-.4m1.1.5-.5-.2-.2-.2m-.4-.5.3.4.6.3.2.1m-1.1-1v.2m-.1-3.3.1.4m-.1-.4h0m0,2.8v-.1m.1.4-.1-.3m1.2,1h-.2l-.6-.3-.3-.4m1.1.5-.5-.2-.2-.2m-.4-.5.3.4.6.3.2.1m-1.1-1v.2m-.1-.5v-.1m.1.4-.1-.3m1.2,1h-.2l-.6-.3-.3-.4m1.1.5-.5-.2-.2-.2m-.4-3.1v.2l.1.3m-.1,2.1.3.5.6.3h.2m-1.1-.9v.1m-.1-.5h0v-.1m.1.5-.1-.4m1.2,1.1-.2-.1-.6-.3-.3-.3m1.1.4-.5-.2-.2-.2M78,187l.3.4.6.3h.2m-1.1-.9v.2m.3-1.4.5.3m-.9.5h0v-.1m.1.5-.1-.4m1.2,1.1-.2-.1-.6-.3-.3-.3m1.1.5-.5-.3-.2-.2m-.4-.4.3.4.6.3h.2m-1.1-.9v.2m.2-2h0v.4m-.3,1h0m.1.4-.1-.4m1.2,1.1h-.2l-.6-.3-.3-.4m1.1.5-.5-.2-.2-.3m-.4-.4.3.4.5.3.3.1m-1.1-1v.2m1.1.3-.5-.2-.2-.2m-.5-.3.1-.3m0,.5-.1-.2m.1.2.2.3.5.3.4.1m-1-.9.1-.3m-.1.3.1.1.1.1m.5.3-.3-.1-.2-.2m.5.3.3.1m-.9-.9-.1-.4m1,1-.1-.1-.5-.2-.2-.1-.1-.2m.9.4-.5-.2-.3-.3-.1-.2m.3-1.1v-.4l.2-.3.4-.2m-.9,2,.3-1.1m-.3,1.1.3.3.5.3h.1m0-1.3-.3-.1-.3-.3m108-17.6.4-2,.5-3.9v-3.9l-.5-3.9-.6-2.7m-23.9,53.9,4.7-2.9,4.3-3.2,3.9-3.3,3.5-3.4,3-3.6,2.5-3.8,2.1-3.8,1.6-3.9.7-2.4m-24.6,24.2,4.8-3,4.4-3.1,3.9-3.3,3.6-3.5,3-3.6,2.6-3.8,2.2-3.8,1.6-3.9,1.2-4,.4-2.6m-8.7,14.1.6-.9,2-3.8,1.6-3.9,1-3.9.5-4,.1-2m2,7.6-.4,1.2-1.6,4-2.2,3.8-2.6,3.8-3.1,3.6-3.5,3.5-4,3.3-4.4,3.2-4.7,2.9m-1-1.7,4.7-3,4.3-3,3.9-3.3,3.5-3.4,3-3.6,2.6-3.7,2.1-3.8,1.7-3.8,1.1-4,.7-3.9.1-1.9m-26.6,38.4,4.8-3,4.4-3.1,4-3.4,3.6-3.5,3.1-3.6,2.6-3.8,2.1-3.8,1.7-4,1.1-4,.7-4,.1-3.1m-142.8,56.7,2.8.9,6.2,1.7,6.4,1.5,6.5,1.2,6.8,1,6.8.6,6.8.3h6.9l6.9-.2,6.9-.6,6.7-.8,6.6-1.1,6.5-1.5,6.2-1.7,4.3-1.3m43.5-59.9.2,1.1.5,3.9.1,1.5m-181.9,0,.1-1.5.5-3.9.2-.9m.4-2.7-.6,2.7-.5,3.9v3.9l.5,3.9.4,2m179-23.4.1.2,1.6,3.9,1,4,.5,3.9v4l-.5,4-1,4-1.6,3.8-2,3.8-2.5,3.8-3,3.5-3.5,3.5-3.9,3.3-4.3,3.1-4.7,2.9m-125.5,2.8v-.1l-5-2.7-4.7-2.9-4.3-3.1-3.9-3.3-3.5-3.5-3-3.5-2.5-3.8-2-3.8-1.6-3.8-1-4-.5-4v-4l.5-3.9,1-4,1.6-3.9v-.1m154.4,51.6-5,2.7v.1M32,194l5,2.7,5.3,2.5,5.7,2.2,5.9,2,6.1,1.7,6.4,1.4,6.5,1.2,6.7.9,6.7.5,6.8.3H100l6.8-.3,6.7-.5,6.7-.9,6.5-1.2,6.4-1.4,6.1-1.7,5.9-2,5.7-2.2,5.3-2.5,5-2.7M7.35,145.15l-.6,1.7-1,3.9-.5,4v3.9l.5,3.9,1,3.9,1.5,3.9,2,3.8,2.5,3.6,3,3.6,3.4,3.4,3.9,3.3,4.2,3L32,194m129.1,0,4.7-2.9,4.2-3,3.9-3.3,3.4-3.4,3-3.6,2.5-3.6,2-3.8,1.5-3.9,1-3.9.5-3.9v-3.9l-.5-4-1-3.9-.7-1.8M4.35,173.25l.6,2.1,1.6,3.9,2,3.8,2.5,3.8,2.9,3.6,3.5,3.4,3.9,3.4,4.3,3.1,4.6,3,5.1,2.7,5.4,2.5,5.7,2.3,6,2,6.2,1.8,6.4,1.5,6.6,1.2,6.8.9,6.8.6,6.9.4h7l6.9-.2,6.8-.6,6.8-.9,6.7-1.1,6.4-1.4,6.3-1.7,6.1-2,5.7-2.2,5.5-2.5,5.1-2.6m0,0,.1-.1.1-.1h.2l.1-.1h.1l.1-.1h.1l.1-.1M4.15,158.45l.1,2,.5,4,1,3.9,1.6,3.9,2,3.8.6.9m-8.7-14.1v.6l.9,4,1.4,4,1.9,3.8,2.4,3.8,2.8,3.7,3.4,3.6,3.7,3.4L22,193l4.5,3,5,2.9,5.3,2.6,5.6,2.4,5.8,2.2,6.2,1.9,6.4,1.7,6.5,1.3,6.8,1.1,6.8.8,6.9.5,7,.3,7-.1,6.9-.4,6.9-.6,6.8-1,6.7-1.2,6.4-1.5,6.3-1.8,6-2,5.8-2.3,5.4-2.6,5.1-2.7m.3-2.1-.3,2.1m0-3.9-.1-.1h-.5v.1l-.1.1m-.7.4.1-.1.1-.1h.1l.1-.1h.1l.1-.1h.1M2,156.35l.3,3.5.9,3.9,1.4,3.9,1.8,3.8,2.3,3.8,2.8,3.6,3.2,3.5,3.7,3.4,4.1,3.2,4.4,3,4.9,2.8,5.1,2.6,5.5,2.4,5.8,2.2,6.1,1.9,6.2,1.6,6.5,1.4,6.6,1.1,6.7.8,6.9.6,6.8.2h6.9l6.9-.3,6.8-.7,6.7-.8,6.5-1.2,6.5-1.5,6.2-1.7,5.9-2,5.7-2.2,5.5-2.4,5.1-2.7m-160.5-28,1.1,3.2,1.9,3.9,2.4,3.8,2.9,3.7,3.3,3.6,3.7,3.4,4.2,3.2,4.6,3.1,5,2.8,5.3,2.7,5.6,2.4,5.9,2.2,6.2,1.9,6.4,1.6,6.5,1.4,6.8,1.1,6.9.8,6.9.5,7,.2h7l7-.4,6.9-.7,6.8-.9,6.7-1.3,6.5-1.5L142,205l6-2,5.8-2.3,5.4-2.5,5.2-2.8m.1-.7-.1.7m21.2-61.7.1.1,2.4,3.8,1.9,3.9,1.4,4,.9,4,.4,4.1-.1,4-.7,4-1.1,4-1.7,4-2.1,3.8-2.6,3.8-3.1,3.6-3.6,3.5-4,3.4-4.4,3.1-4.8,3m-.4-.2H164l-.1.1h-.1l-.1.1-.1.1-.1.1h-.1M70,207.55l3.4.5,6.8.8,6.9.6,6.9.2h3.5m67-15.9-5.1,2.8-5.5,2.5-5.8,2.3-6,2.1-6.3,1.8-6.5,1.5-6.7,1.2-6.9,1-6.9.6-7,.4-7,.1-7-.3-7-.5-6.9-.8-6.7-1.1-6.6-1.4-6.5-1.6-6.1-1.9-6-2.2-5.6-2.4-5.3-2.7-5-2.8-4.6-3.1-4.2-3.3-3.7-3.4-3.4-3.6-2.8-3.7L5,171.45l-1.9-3.9-1.4-4-.9-4-.4-4,.1-4.1.7-4,1.1-4,1.7-4,2.1-3.8,1.3-2m-7,21.7v1l.4,4.1.9,4,1.4,4,1.9,3.9,2.4,3.8,2.8,3.7,3.4,3.6,3.7,3.4,4.2,3.3,4.6,3,5,2.9,5.3,2.6,5.6,2.5,6,2.1,6.1,2,6.5,1.6,6.6,1.4,6.7,1.1,6.9.8,7,.5,7,.2h7l7-.4,6.9-.7,6.9-.9,6.7-1.3,6.5-1.5,6.3-1.8,6-2,5.8-2.3,5.5-2.6,5.1-2.7m0-.9v.9m-102-104.1v-.9m3,.7v.5m1.7,4.1.6-.3.7-.8.3-.9v-.2m-9.6-1.4v1.3m9.5-1.4v-.7l-.5-.9-.7-.8-1.1-.5-1.3-.4-1.5-.1-1.4.2-1.3.6m-1.7,4,.1.7.5.9.8.7,1.2.5,1.4.3h1.5l1.4-.3,1.1-.5m1.6-2.3v-1.3m-7.9-2.7-.6.4-.8.9-.3.9v.5m86.7-15.2.5-.3.7-.8.3-.9V74m0-1.5-.1-.7-.4-.9-.8-.8-.4-.2m1.7,4v-1.3m-2-22.9-.7-1.1-1.8-2.7-2.3-2.5-2.6-2.5-3.1-2.2-2.3-1.4m0,0v-.1m-.4-.2-2.8-1.6m16.9,47.4-.2-.5V82m.5,1.2-.1-.1-.1-.1-.1-.2m-8.9-26.9-.3-.4-.5-.7-.1-.6m4.1,4.3-3.2-2.6m4.6,4.3-.7-1-.7-.7m5,9.2-.1-.4-.1-.5-.2-.4-.2-.5m0,0-1.4-2.6-1.6-3.1m-96.7-1.6-.5,14.3m-2.9,2.2-.3,8m3.5-18.2-.7,1.2-.2.4m10.3-25-.6.5-2.5,2.5-2.1,2.7L47.55,50l-1.2,2.9-.8,2.9-.3,2.9v.7m18.4-24L60.85,37m16.3-1.3L77,51.25m-5,50.4-2.2-.7-3.7-1.4m50-48.3-.2-15.6m35.6,47.4-.3-8m-2.4-8.8-.6-1.1-1.8-2.7L146,62m-67.9-33.4v7.1m0-11.3v1.2m0-5.4v1.3m0-5.4v1.2m11.8-14.2-2.5.9L85,5.25l-1.9,1.4-.6.6m25-2.4-1.3-.7-2.5-1-.4-.1M78.05,12v1.1M90,2.85l-3.2,4.4M115,35.65v-9.2m0-3v-1.2m0-2.9v-1.2m-8.7-10.9-3.2-4.4m10.5,10.4V12m-2.9-4.6-.8-.8-1.8-1.4-.6-.3m7.5,10.3V14m31.1,43.8v-2.6m9.2,5.7v-1.5m-117.9.2V61m116.3-4.4-1.2-.6m-112.3.1-1.2.6m124.6,8.5v-.9m-134.4.2v.9m132.8-4-1.1-.7m-129.1.2-1,.7m139.9,8.9v-.8M22.05,70v.7M169.35,67l-1-.8m-144,.2-.9.8m153,9.4v-1m-160.2.3v1m159.3-3.6-.8-.9m-157.4,1-.1.2m.8-.9-.6.7M181,83.65v-1.8m-169.1.3V84m168.5-3.8-.4-.7m-167.1.4-.4.6m171.6,11.1v-3.2m-175.2.3V92m175-4.4-.2-.3m-174.5.4-.1.2m176.5,62.4V95.05m-178.2.3v55.2m178.3,6.5v-55.3m-178.2.3v55.3m145.7-63.3-.1.7M40,94.75l-.1-.7m146.6,63.2v-3.5m-34.1-55.9-.3.8M41,98.65l-.3-.8m143.5,65.8v-55.2M9,108.75V164m141.7-62.3-.4.8m-107.4,0-.5-.7m138.8,68.4v-55.3m-169.1.3v55.3m136-65-.6.7m-101.9,0-.6-.7m99.6,3.6-.8.7m-94.5,0-.8-.7m128.3,67.4v-55.4m-160.2.3v55.3m123.6-64.2-.9.6m-85.5,0-.9-.6m82.2,3-1.1.6m-74.9,0-1-.6m-13.2-21v11M171,182.25v-55.5m-148.6.3v55.4m106.8-64.3-1.2.5m-62.9,0-1.2-.5m58.9,2.2-1.3.4m-49.8,0-1.3-.4m93.5,67.2v-55.5m-134.4.2v55.5m86.3-65.7-1.3.3m-35.8,0-1.4-.3m31.3,1.2-1.5.2m-21.1,0-1.4-.2m16.5.6-1.5.1m-6.1,0-1.4-.1m63.6,68.5v-55.7m-117.9.2v55.7m108.7,3.9v-56m-99.5.2v55.9m-40.5-42.8v3.5m129.9,42.5v-56.2m-79.3.1v56.2m68.6,2.4v-56.7m-57.8.1v56.7m80.3-97V94.45m-33.7,109.3v-57.5m-35.4,0v57.6m24.1.1V145m-12.7-.4v59.3m96.6-45.2v-1.4M6,157.25v1.4m72.1,25.9-.1.3m.5-1.6-.3,1.1m110.5-11.1v-.1m.2-14.7v-1.8m2.9,6.2h0m-.9,3.2.3-.8m1.5-9.9v-.8m-188.5,2.1v1.8m.2,14.7v.1m-3.1-10.4h0m.6,2.4.3.8m-1.8-11.5v.8"/></g></g></svg>