<?xml version="1.0" encoding="UTF-8"?>
<!DOCTYPE svg PUBLIC "-//W3C//DTD SVG 1.1//EN" "http://www.w3.org/Graphics/SVG/1.1/DTD/svg11.dtd">
<!-- Creator: CorelDRAW 2021 (64-Bit Not for commercial use) -->
<svg xmlns="http://www.w3.org/2000/svg" xml:space="preserve" width="1.03473in" height="0.206717in" version="1.1" style="shape-rendering:geometricPrecision; text-rendering:geometricPrecision; image-rendering:optimizeQuality; fill-rule:evenodd; clip-rule:evenodd"
viewBox="0 0 152.71 30.51"
 xmlns:xlink="http://www.w3.org/1999/xlink"
 xmlns:xodm="http://www.corel.com/coreldraw/odm/2003">
 <defs>
  <style type="text/css">
   <![CDATA[
    .fil2 {fill:#373435;fill-rule:nonzero}
    .fil1 {fill:black;fill-rule:nonzero}
    .fil0 {fill:#222222;fill-rule:nonzero}
    .fil3 {fill:#231F20;fill-rule:nonzero}
   ]]>
  </style>
 </defs>
 <g id="LP1">
  <metadata id="CorelCorpID_0Corel-Layer"/>
  <g id="_1554556542080">
   <polygon class="fil0" points="46.95,12.63 37.34,12.6 37.34,17.61 34.9,17.61 34.9,10.07 46.95,10.07 "/>
   <path class="fil1" d="M51 17.6l2.55 0 0 -11.85 -2.55 0 0 11.85zm6.66 -11.85l0 6.64c0.02,2.49 0.27,3.32 1.33,4.26 1.02,0.78 1.81,0.98 4.16,0.94l2.71 0 0 -2.11 -2.44 0c-1.56,0 -2.14,-0.11 -2.62,-0.51 -0.48,-0.48 -0.52,-0.6 -0.59,-2.58l0 -6.64 -2.55 0zm11.07 11.85l3 0 1.15 -2.75 4.56 0 1.15 2.75 2.98 0 -4.95 -11.85 -2.92 0 -4.95 11.85zm6.42 -9.01l1.71 4.14 -3.41 0 1.7 -4.14zm13.19 -2.84l-3.73 0 0 11.85 2.42 0 0 -8.9 2.96 8.9 2.62 0 3.14 -8.9 0 8.9 2.42 0 0 -11.85 -3.71 0 -3.14 9.26 -2.98 -9.26zm23.04 0l-4.31 0c-1.67,0 -2.51,0.27 -3.39,1.05 -1.27,1.14 -1.92,2.76 -1.92,4.82 0,2.03 0.61,3.73 1.71,4.78 0.91,0.89 2.15,1.21 4.59,1.21l3.32 0 0 -2.11 -3.21 0c-2.46,0 -3.32,-0.66 -3.52,-2.72l6.73 0 0 -2.11 -6.73 0c0.07,-1.12 0.16,-1.42 0.52,-1.92 0.56,-0.69 1.09,-0.85 2.89,-0.87l3.32 0 0 -2.11zm20.92 2.11l0 9.74 2.55 0 0 -9.74 3.95 0 0 -2.11 -10.32 0 0 2.11 3.82 0zm14.5 -2.2c-1.76,0 -3.27,0.44 -4.2,1.24 -1.11,0.93 -1.71,2.63 -1.71,4.83 0,1.63 0.38,2.97 1.11,3.96 0.93,1.26 2.73,1.97 4.97,1.97 1.67,0 3.07,-0.43 3.97,-1.17 1.13,-0.96 1.76,-2.63 1.76,-4.66 0,-1.9 -0.45,-3.5 -1.24,-4.46 -0.9,-1.1 -2.6,-1.72 -4.67,-1.72zm0.02 2.01c2.14,0 3.09,1.24 3.09,4.01 0,2.74 -0.97,4 -3.09,4 -2.15,0 -3.12,-1.26 -3.12,-4.03 0,-1.3 0.2,-2.26 0.59,-2.84 0.5,-0.73 1.4,-1.14 2.53,-1.14zm-29.21 1.24l4.9 8.69 3.12 0 0 -11.85 -2.42 0 0 8.83 -4.77 -8.83 -3.25 0 0 11.85 2.42 0 0 -8.69z"/>
   <polygon class="fil0" points="46.95,7.6 34.9,7.6 34.9,5.04 46.95,5.07 "/>
   <path class="fil1" d="M35.72 27.27l2.29 0c0.7,0 0.99,-0.05 1.22,-0.2 0.33,-0.23 0.55,-0.66 0.55,-1.13 0,-0.42 -0.14,-0.82 -0.37,-1.03 -0.27,-0.25 -0.61,-0.35 -1.27,-0.35l-0.73 0c-0.35,0 -0.5,-0.03 -0.63,-0.1 -0.13,-0.09 -0.2,-0.24 -0.2,-0.42 0,-0.2 0.08,-0.35 0.22,-0.44 0.11,-0.05 0.27,-0.07 0.69,-0.07l2.03 0 0 -0.81 -2.25 0c-0.56,0 -0.8,0.03 -1.02,0.11 -0.45,0.17 -0.75,0.67 -0.75,1.23 0,0.41 0.17,0.79 0.46,1.02 0.23,0.19 0.59,0.28 1.11,0.28l0.84 0c0.22,0 0.4,0.03 0.5,0.09 0.18,0.09 0.28,0.27 0.28,0.48 0,0.18 -0.08,0.34 -0.24,0.42 -0.12,0.07 -0.31,0.1 -0.66,0.1l-2.07 0 0 0.81zm10.83 -4.55l-1.64 0c-0.63,0 -0.96,0.1 -1.29,0.4 -0.48,0.44 -0.73,1.06 -0.73,1.85 0,0.78 0.23,1.43 0.65,1.84 0.35,0.34 0.82,0.46 1.75,0.46l1.26 0 0 -0.81 -1.22 0c-0.93,0 -1.26,-0.25 -1.34,-1.04l2.56 0 0 -0.81 -2.56 0c0.03,-0.43 0.06,-0.55 0.2,-0.74 0.21,-0.27 0.42,-0.33 1.1,-0.33l1.26 0 0 -0.81zm10.27 4.55l0.97 0 0 -4.55 -0.97 0 0 4.55zm5.48 -3.34l1.86 3.34 1.19 0 0 -4.55 -0.92 0 0 3.39 -1.82 -3.39 -1.24 0 0 4.55 0.92 0 0 -3.34zm8.29 0.64l0 0.81 1.27 0 0 1.08 -0.87 0c-0.46,0 -0.74,-0.09 -0.93,-0.29 -0.19,-0.22 -0.31,-0.7 -0.31,-1.25 0,-1 0.34,-1.39 1.21,-1.39l1.88 0 0 -0.81 -1.99 0c-0.65,0 -1.12,0.13 -1.45,0.39 -0.46,0.37 -0.71,1.04 -0.71,1.9 0,0.88 0.25,1.54 0.72,1.9 0.33,0.27 0.7,0.36 1.4,0.36l2.03 0 0 -2.7 -2.24 0zm10.09 2.7l0.97 0 0 -4.55 -0.97 0 0 4.55zm4.55 0l2.29 0c0.7,0 0.99,-0.05 1.22,-0.2 0.33,-0.23 0.55,-0.66 0.55,-1.13 0,-0.42 -0.14,-0.82 -0.37,-1.03 -0.27,-0.25 -0.61,-0.35 -1.27,-0.35l-0.73 0c-0.35,0 -0.5,-0.03 -0.63,-0.1 -0.13,-0.09 -0.2,-0.24 -0.2,-0.42 0,-0.2 0.08,-0.35 0.22,-0.44 0.11,-0.05 0.27,-0.07 0.69,-0.07l2.03 0 0 -0.81 -2.25 0c-0.56,0 -0.8,0.03 -1.02,0.11 -0.45,0.17 -0.75,0.67 -0.75,1.23 0,0.41 0.17,0.79 0.46,1.02 0.23,0.19 0.59,0.28 1.11,0.28l0.84 0c0.23,0 0.4,0.03 0.51,0.09 0.18,0.09 0.28,0.27 0.28,0.48 0,0.18 -0.08,0.34 -0.24,0.42 -0.12,0.07 -0.31,0.1 -0.66,0.1l-2.07 0 0 0.81zm11.79 0l2.52 0c0.44,0 0.72,-0.03 0.9,-0.12 0.4,-0.18 0.64,-0.57 0.64,-1.09 0,-0.51 -0.23,-0.87 -0.66,-1.07 0.38,-0.16 0.66,-0.61 0.66,-1.09 0,-0.45 -0.24,-0.87 -0.6,-1.06 -0.18,-0.09 -0.47,-0.14 -0.88,-0.14l-2.57 0 0 4.55zm0.97 -2.68l0 -1.06 1.34 0c0.26,0 0.36,0.02 0.48,0.1 0.12,0.08 0.2,0.22 0.2,0.4 0,0.18 -0.08,0.35 -0.21,0.45 -0.12,0.09 -0.21,0.11 -0.48,0.11l-1.32 0zm0 1.87l0 -1.06 1.34 0c0.26,0 0.37,0.02 0.49,0.1 0.12,0.08 0.2,0.22 0.2,0.4 0,0.18 -0.08,0.35 -0.21,0.45 -0.12,0.09 -0.21,0.11 -0.49,0.11l-1.32 0zm9.88 -3.74l-1.64 0c-0.63,0 -0.96,0.1 -1.29,0.4 -0.48,0.44 -0.73,1.06 -0.73,1.85 0,0.78 0.23,1.43 0.65,1.84 0.35,0.34 0.82,0.46 1.75,0.46l1.26 0 0 -0.81 -1.22 0c-0.94,0 -1.26,-0.25 -1.34,-1.04l2.56 0 0 -0.81 -2.56 0c0.03,-0.43 0.06,-0.55 0.2,-0.74 0.21,-0.27 0.42,-0.33 1.1,-0.33l1.26 0 0 -0.81zm3.38 0l0 2.55c0.01,0.96 0.1,1.28 0.51,1.64 0.39,0.3 0.69,0.38 1.58,0.36l1.03 0 0 -0.81 -0.93 0c-0.59,0 -0.81,-0.04 -1,-0.2 -0.18,-0.18 -0.2,-0.23 -0.23,-0.99l0 -2.55 -0.97 0zm6.35 4.55l0.97 0 0 -4.55 -0.97 0 0 4.55zm7.56 -4.55l-1.64 0c-0.63,0 -0.96,0.1 -1.29,0.4 -0.48,0.44 -0.73,1.06 -0.73,1.85 0,0.78 0.23,1.43 0.65,1.84 0.35,0.34 0.82,0.46 1.75,0.46l1.26 0 0 -0.81 -1.22 0c-0.93,0 -1.26,-0.25 -1.34,-1.04l2.56 0 0 -0.81 -2.56 0c0.03,-0.43 0.06,-0.55 0.2,-0.74 0.21,-0.27 0.42,-0.33 1.1,-0.33l1.26 0 0 -0.81zm7.97 0l-1.09 0 -1.36 3.43 -1.34 -3.43 -1.09 0 1.92 4.55 0.97 0 1.99 -4.55zm3.07 4.55l0.97 0 0 -4.55 -0.97 0 0 4.55zm5.48 -3.34l1.86 3.34 1.19 0 0 -4.55 -0.92 0 0 3.39 -1.82 -3.39 -1.24 0 0 4.55 0.92 0 0 -3.34zm8.29 0.64l0 0.81 1.27 0 0 1.08 -0.87 0c-0.46,0 -0.74,-0.09 -0.93,-0.29 -0.19,-0.22 -0.31,-0.7 -0.31,-1.25 0,-1 0.34,-1.39 1.21,-1.39l1.88 0 0 -0.81 -1.99 0c-0.65,0 -1.12,0.13 -1.45,0.39 -0.46,0.37 -0.71,1.04 -0.71,1.9 0,0.88 0.25,1.54 0.72,1.9 0.33,0.27 0.7,0.36 1.4,0.36l2.03 0 0 -2.7 -2.24 0zm-96.57 -1.85l-1.64 0c-0.63,0 -0.96,0.1 -1.29,0.4 -0.48,0.44 -0.73,1.06 -0.73,1.85 0,0.78 0.23,1.43 0.65,1.84 0.35,0.34 0.82,0.46 1.75,0.46l1.26 0 0 -0.81 -1.22 0c-0.94,0 -1.26,-0.25 -1.34,-1.04l2.56 0 0 -0.81 -2.56 0c0.03,-0.43 0.06,-0.55 0.2,-0.74 0.21,-0.27 0.42,-0.33 1.1,-0.33l1.26 0 0 -0.81z"/>
   <polygon class="fil2" points="8.7,17.3 18.06,9.19 19.62,11.02 10.28,19.13 "/>
   <path class="fil3" d="M12.63 30.51c-7.3,-1.27 -12.63,-7.61 -12.63,-15.03 0,-0.07 0,-0.15 0,-0.23 0,-8.42 6.83,-15.25 15.25,-15.25 0.11,-0 0.23,-0 0.35,-0 8.42,0 15.25,6.83 15.25,15.25 0,6.78 -4.48,12.76 -11,14.65l-0.18 -0c-0.22,-0.03 -0.43,-0.14 -0.58,-0.31l-6.41 -7.66 9.4 -8.14 1.53 1.8 -7.5 6.56 4.03 5.06 0.15 0c4.75,-2.02 7.84,-6.69 7.84,-11.85 0,-7.11 -5.76,-12.87 -12.87,-12.87 -7.07,0 -12.81,5.7 -12.87,12.76 0,0.01 0,0.03 0,0.04 0,6.22 4.44,11.57 10.55,12.71l0 0c0,0 0,0 0,0.15l-0.24 2.14 0 0 -0.06 0.21z"/>
  </g>
 </g>
</svg>
