<?xml version="1.0" encoding="UTF-8"?>
<!DOCTYPE svg PUBLIC "-//W3C//DTD SVG 1.1//EN" "http://www.w3.org/Graphics/SVG/1.1/DTD/svg11.dtd">
<!-- Creator: CorelDRAW 2021 (64-Bit Not for commercial use) -->
<svg xmlns="http://www.w3.org/2000/svg" xml:space="preserve" width="0.888929in" height="1.15657in" version="1.1" style="shape-rendering:geometricPrecision; text-rendering:geometricPrecision; image-rendering:optimizeQuality; fill-rule:evenodd; clip-rule:evenodd"
viewBox="0 0 841.85 1095.31"
 xmlns:xlink="http://www.w3.org/1999/xlink"
 xmlns:xodm="http://www.corel.com/coreldraw/odm/2003">
 <defs>
  <style type="text/css">
   <![CDATA[
    .str0 {stroke:black;stroke-width:6.58;stroke-linecap:round;stroke-linejoin:round;stroke-miterlimit:2.61313}
    .fil0 {fill:none}
   ]]>
  </style>
 </defs>
 <g id="Box_Label_Korean">
  <metadata id="CorelCorpID_0Corel-Layer"/>
  <g id="_2618507232384">
   <g id="Layer_2" data-name="Layer 2">
    <g id="Layer_1-2" data-name="Layer 1">
     <path class="fil0 str0" d="M286.71 530.62l0 -2.17m-15.63 3.91l0 -1.74m15.19 3.47l0 -0.87m-27.78 8.68l0 0 0.44 2.6 1.3 2.17 1.74 2.17 2.6 1.74m29.51 0l0 0.87 -0.43 0.44 0 0.43m0.43 -1.73l2.61 -1.74 2.17 -2.17 0.87 -2.17 0.43 -2.6m0 -5.64l-0.43 2.17 -0.87 2.61 -2.17 1.73 -2.61 2.17m-24.3 -19.96l-1.3 -0.44 -0.87 -0.43 -0.87 0 -0.87 0.43m-1.3 20.4l-2.61 -2.17 -1.73 -1.73 -1.3 -2.61 -0.44 -2.17m377.16 -67.27l0 0.44 -0.44 0.43 0 0.44 -0.43 0.43m0.87 -1.74l2.6 -1.73 1.74 -2.17 1.3 -2.17 0.44 -2.61m-0 -5.64l-0.43 2.17 -1.3 2.6 -1.74 1.74 -2.6 2.17m-1.3 -4.34l0.43 0.44 0.43 1.3 0 1.3 0.44 1.3m29.95 -55.12l0 -24.31m-491.31 0.87l0 23.87m525.16 16.93l0 -21.7m-558.79 0.87l0 21.27m588.53 19.97l0 -19.97m-617.39 1.08l0 19.97m71.18 18.66l0.43 -0.43m569.43 4.77l0 -19.53m-664.91 0.87l0 19.97m683.14 24.74l0 -19.97m-700.94 1.3l0 19.97m713.09 27.78l0 -22.14m-725.24 1.3l0 21.7m731.32 29.08l0 -24.31m-736.96 1.3l0 24.31m736.53 31.25l0 -29.08m-736.09 1.3l0 29.08m729.58 32.98l0 -35.59m-722.64 0.87l0 36.46m202.69 42.97l0 -60.76m436.19 377.16l0 0.43m-358.28 -20.61l0 0.44m490.87 -144.96l0.43 -9.55 -1.74 -16.93 -3.9 -17.36 -5.64 -16.93 -7.81 -16.49 -4.77 -7.81m-103.3 250.86l0 -0.43m-670.34 -250.43l-8.24 14.97 -6.73 16.71 -5.21 16.93 -2.6 16.93 -0.87 17.36 0.44 2.17m414.48 231.77l14.76 -0.44 29.95 -1.3 29.95 -2.6 29.51 -4.34 28.65 -4.78 28.21 -6.51 27.34 -7.38 26.04 -8.68 25.17 -9.98 23.87 -10.85 22.13 -11.72m-676.85 -257.37l-3.04 4.34 -9.54 16.93 -6.73 16.93 -5.21 16.92 -2.6 17.36 -0.87 17.36 1.74 17.36 3.91 17.36 5.64 17.36 8.24 16.49 9.98 16.49 12.15 16.06 14.32 15.19 16.06 14.76 17.79 14.32 19.53 13.02 21.27 12.59 23 11.29 23.87 10.41 25.61 9.55 26.48 8.25 27.34 7.38 28.21 6.07 14.76 2.61m408.41 -60.76l20.4 -12.59 19.09 -13.89 16.93 -14.32 15.19 -14.76 13.46 -15.63 11.29 -16.49 9.54 -16.49 6.95 -16.92 5.21 -16.93 2.6 -17.36 0.87 -17.8 -1.74 -17.36 -3.9 -16.93 -5.64 -17.36 -8.24 -16.93 -8.68 -14.32m-166.66 -299.91l-4.34 -7.81m-3.91 -60.76l-2.17 -1.74m1.74 75.09l3.9 -3.47m-3.03 5.64l8.68 -7.38m-0.44 79.42l-3.04 -1.74 -0.43 -0.43m-1.3 -1.74l0 0 -0.44 0.44m-37.54 -133.03l0.44 16.93m-401.9 47.74l-2.6 6.51 -3.47 12.59 -1.3 13.02 1.3 13.02 3.04 12.59 5.21 12.59 7.81 12.58 9.12 11.72m381.93 -142.79l-0.44 -0.44 -1.52 0m13.89 11.29l1.74 0m18.66 32.55l0.44 -0.43 0.43 0.43m-430.11 58.81l4.77 10.85 7.38 12.15 9.55 11.28m-6.94 6.08l-9.55 -12.15 -7.38 -12.15 -5.21 -12.58 -3.04 -12.59 -1.3 -13.02 1.3 -13.02 3.47 -13.02 3.04 -6.94m55.55 134.98l-15.63 -9.98 -13.89 -10.42 -11.71 -11.72 -9.98 -12.15 -7.81 -12.59 -3.47 -6.95m33.85 -44.7l-9.98 -11.72 -7.38 -12.59 -5.21 -13.02 -2.6 -13.02 -0.87 -8.68m40.8 -78.13l-4.77 4.34 -10.85 11.72 -9.12 12.15 -6.51 12.59 -3.91 13.02 -1.73 13.02 0.43 13.45 3.04 13.02 5.21 12.58 7.38 12.59 9.98 12.15m22.57 -12.59l-10.42 -10.2 -8.68 -11.72 -6.07 -11.72 -4.34 -12.15 -1.74 -12.15 0.43 -12.15 2.61 -12.58 5.21 -11.72 6.94 -11.72 9.12 -11.29 9.11 -8.68m47.31 229.6l0.44 0 0.43 1.3 0.44 0.87m-78.13 -18.66l38.63 3.91m21.7 -6.51l0.43 -80.29m224.82 -32.99l10.85 -7.38 9.55 -8.25 6.94 -8.68 5.21 -9.12 3.04 -9.98 0.87 -7.81m105.9 143.66l-3.47 7.38 -7.81 12.59 -9.98 12.15 -12.15 11.72 -13.89 10.42 -15.62 9.98 -16.93 9.12 -18.66 8.24 -19.96 6.95 -21.27 5.64 -21.7 4.34 -22.57 3.47 -23 1.74 -23.44 0.87 -23.44 -0.87 -23 -1.74 -22.57 -3.47 -21.7 -4.34 -21.27 -5.64 -19.96 -6.95 -18.66 -8.24 -17.36 -9.12m382.8 -150.6l1.3 1.74 4.34 7.38m-350.03 151.04l6.51 2.17 7.38 2.61 7.81 2.6m231.33 -294.7l2.17 0.87 10.41 5.64m-296 141.05l-10.85 -10.41 -8.68 -11.29 -6.94 -11.28 -4.34 -12.15 -2.17 -12.15 0.43 -12.15 2.61 -12.15 4.77 -11.72 6.95 -11.72 9.11 -10.85 11.29 -10.41 13.02 -9.55 14.76 -8.68 6.07 -3.04m-0.22 44.27l-6.94 8.25 -6.08 9.33 -3.91 9.98 -1.73 10.41 0.43 10.42 2.6 9.98 5.21 9.98 6.95 9.55 9.11 9.11 10.85 8.25 12.59 6.94 13.89 6.51 15.63 5.2 16.49 4.34 16.93 3.04 17.8 1.74 17.79 0 17.8 -0.87 17.36 -2.17 16.93 -3.04 16.06 -4.77 14.76 -5.64 13.45 -6.95m1.3 -0.43l11.72 -7.81 9.98 -8.68 8.25 -9.11 6.07 -9.55 3.91 -9.98 1.74 -10.41 -0.44 -10.42 -3.04 -9.98 -4.77 -9.98 -6.95 -9.55 -3.47 -3.9m-248.69 25.61l0 2.6 1.73 9.98 3.91 9.55 6.51 9.12 8.25 8.25 9.98 7.81 11.72 6.94 13.46 6.08 14.75 4.78 15.63 3.47 16.49 2.6 16.92 0.87 16.93 0 16.49 -1.74 16.49 -2.6 15.19 -4.34 14.32 -5.21 13.02 -6.51m-207.03 -210.06l0 0 2.17 12.58 6.95 12.15 10.85 10.85 15.19 9.55m0 -29.95l-15.19 -9.55 -10.85 -10.85 -6.95 -12.15 -2.17 -12.58m0 -1.74l2.17 12.59 6.95 11.72 10.85 11.28 15.19 9.12m0 -29.51l-15.19 -9.55 -10.85 -11.28 -6.95 -11.72 -2.17 -12.59m0 -2.17l2.17 12.59 6.95 12.15 10.85 10.85 15.19 9.55m0 95.48l17.8 7.81 20.83 5.21 22.57 3.04 23.44 0.43 23.44 -2.17 22.57 -5.21 20.4 -7.38 18.23 -9.55 15.19 -11.28 10.85 -13.02 6.94 -14.32 2.17 -14.32m-201.82 -27.34l-0.43 0 -1.3 -1.3 -0.87 -1.74 0 -2.17m39.06 -134.11l-2.17 0.87m-36.89 101.12l-15.41 -9.33 -10.85 -10.85 -6.94 -12.15 -2.17 -12.15m0 -2.17l2.17 12.59 6.94 11.72 10.85 11.29 15.19 9.11m2.6 103.3l-0.43 0 -1.3 -1.3 -0.87 -1.74 0 -2.17m0 -2.17l17.79 7.38 20.83 5.64 22.57 3.04 23.44 0 23.65 -2.17 22.57 -4.77 20.4 -7.38 18.23 -9.55 15.19 -11.72 10.85 -13.02 6.94 -13.89 2.17 -14.32m-189.66 -73.78l-9.12 -6.08 -7.81 -7.37 -5.64 -7.81 -3.47 -7.81 -1.3 -6.51m59.89 -8.46l1.74 1.3m1.73 -6.07l-6.94 -4.78 -3.91 -4.34m78.56 -29.95l4.34 2.6m-120.22 195.31l-0.43 -0.43 -1.3 -1.3 -0.87 -1.73 0 -2.17m3.47 51.65l17.36 7.38 19.97 5.21 21.27 2.6 22.57 0.44 22.14 -2.61 21.7 -4.77 19.53 -6.95 17.36 -9.11 14.32 -10.85 10.85 -12.59 6.51 -13.46 2.17 -12.58m-228.73 -19.1l-0.43 1.3 2.17 12.15 6.51 11.29 10.42 10.41 13.89 9.12m0 0l17.36 7.38 19.97 5.21 21.27 2.6 22.57 0.44 22.14 -2.17 21.7 -4.78 19.97 -6.94 17.36 -9.12 14.32 -10.85 10.42 -12.59 6.94 -13.45 2.17 -13.02m-228.73 -18.66l-0.43 1.3 2.17 11.72 6.51 11.72 10.42 10.42 13.89 9.11m25.61 20.83l19.96 3.91 20.4 1.73 21.26 -0.43 21.27 -2.61 20.4 -4.77 18.66 -6.51 16.49 -8.68 14.32 -9.98 10.85 -11.28 7.81 -12.59 3.91 -13.02 0 -7.38m-142.58 -5.86l0 3.47 -0.43 0.87 0 0.44 -1.3 1.74 -1.74 0.87m0 -12.15l1.74 1.3 0.87 1.3m143.23 -20.4l0 6.51 -4.34 13.02 -7.81 12.58 -10.85 11.29 -14.32 9.98 -16.93 8.68 -18.66 6.51 -20.4 4.77 -21.27 2.6 -21.26 0 -20.83 -1.73 -19.53 -3.91m-27.78 -12.59l17.79 7.38 20.83 5.64 22.57 3.04 23.44 0 23.44 -2.17 22.57 -4.77 20.4 -7.38 18.23 -9.55 15.19 -11.72 10.85 -13.02 6.95 -13.89 2.17 -14.32m-201.82 36.46l-0.43 -0.44 -1.3 -1.3 -0.87 -1.74 0 -2.17m171.87 -105.03l5.21 6.95 3.47 8.24 1.73 8.25 -0.87 8.68 -3.03 8.25 -4.78 7.81 -6.94 7.38 -8.68 6.51 -10.42 6.08 -11.72 4.77 -12.59 3.91 -13.89 2.6 -14.32 1.74 -14.32 0.44 -14.32 -1.3 -14.32 -2.17 -13.02 -3.04 -12.59 -4.77 -10.85 -5.21m16.49 88.1l0.43 0.87 0.44 1.3 0 4.34 -0.44 2.17 -0.87 2.61 -0.87 2.17m0 0l18.66 3.91 19.97 1.73 20.4 -0.43 19.96 -2.61 19.1 -4.34 18.23 -6.51 16.06 -8.24 13.46 -9.55 10.42 -10.85 7.38 -11.71 3.9 -12.59 0.44 -4.78m-228.29 -20.4l-0.43 1.3 2.17 12.15 6.51 11.28 10.42 10.42 13.89 9.12m0 0l17.36 7.38 19.97 5.2 21.27 2.61 22.57 0.43 22.13 -2.17 21.7 -4.77 19.96 -6.95 17.36 -9.11 14.32 -10.85 10.42 -12.59 6.94 -13.46 2.17 -13.02m-228.73 -19.1l-0.43 1.74 2.17 11.72 6.51 11.72 10.42 10.41 13.89 9.12m51.65 14.32l0.43 -2.17 0 -2.6 0.44 -2.17 0 -2.61 -0.44 -1.73 0 -1.3 -0.43 -0.87m113.71 -115.02l10.42 6.95 9.11 7.81 6.51 8.68 4.77 9.12 2.61 9.11 0 9.55 -2.17 9.55 -3.91 9.12 -1.3 1.73m-227.43 -23l0.87 -9.12 3.04 -9.55 5.64 -9.11 6.08 -6.95m22.57 -1.73l-5.21 4.34 -6.95 7.81 -4.77 8.25 -3.04 8.24 -0.43 8.68 1.73 8.68 3.91 8.24 5.64 7.81 8.25 7.38 9.55 6.51m141.49 -81.6l-1.74 -0.87m-6.07 86.37l2.17 -0.87 10.41 -6.08 9.12 -6.95 6.94 -7.81 4.78 -7.81 3.04 -8.68 0.43 -8.68 -1.73 -8.68 -3.91 -8.24 -5.42 -8.03 -8.25 -7.38 -9.55 -6.51m-141.49 81.59l11.29 5.64 12.58 4.77 13.89 3.47 9.55 1.3m143.23 -37.76l-2.17 14.32 -6.94 13.89 -10.85 13.02 -15.19 11.72 -18.23 9.55 -20.4 7.38 -22.57 4.77 -23.44 2.6 -23.44 -0.43 -22.57 -3.04 -21.05 -4.99 -17.79 -7.81m-34.94 -75.73l0 -1.3m116.32 69.01l-15.19 -0.87m-130.21 423.17l-1.74 1.3m9.55 -35.16l0 -4.77m3.47 5.2l0 -4.77m-8.24 5.21l0 -4.56m9.11 5.64l0 -4.78m0 4.78l0.44 0.43 0.87 0 0.43 0.44m-2.61 -2.17l0 0.43 0.44 0.44 0 0.43 0.43 0m-1.3 -1.74l0.43 0 0 0.44m-3.47 -0.44l0.44 0 0 -0.43 2.17 0 0.43 0.43m-7.81 0.87l3.47 0 0.43 -0.43 0.44 0 0.43 -0.44m-6.94 0.87l0.43 0 0.44 -0.43 0.87 0 0.44 0.43m-5.21 -6.51l4.34 -1.74 5.21 -0.87 5.64 0.87 4.34 1.74 3.04 2.6 0.87 3.04 -0.87 3.04 -3.04 2.61m-1.73 -6.08l0.43 0 0.43 -0.44 0 -0.87 -0.43 0m-1.74 4.34l0 -0.44 -0.43 -0.43 0 -0.44 0.43 -0.43 0 -0.43 0.44 0 0.43 -0.44 0.44 -0.43m-3.91 4.34l2.17 0 0.43 -0.44 0.44 -0.43 0 -0.43 -0.44 0m-7.38 2.17l0.44 -0.44 0.43 -0.43 1.3 0 0.87 -0.44 0.44 0.44 1.3 0m-7.38 0.87l0.43 0 0 0.43 1.3 0 0.43 -0.43 0.43 0m-3.03 -0.44l0 0 0 0.44 0.43 0m-1.74 -2.17l0.44 0.43 0.43 0.44 0 0.43 0.44 0.43m-3.91 -2.17l1.74 0 0.43 0.44 0.43 0m-3.47 -0.87l0 0 0.44 0.43 0.43 0m-0.87 -2.17l0 0.44 -0.43 0 0 0.43 -0.44 0 0 0.43 0.44 0 0 0.44 0.43 0m1.3 -4.34l0.44 0.43 0 0.87 -0.44 0.43 0 0.44 -0.43 0.43 -0.87 0m3.91 -3.9l-0.44 -0.44 -0.87 0 -0.44 0.44 -0.43 0 -0.44 0.43 0 0.87m7.38 -2.17l-0.43 0.43 -0.44 0 -0.43 0.44 -3.47 0m7.81 -0.87l-0.43 -0.44 -2.17 0 -0.44 0.44m3.47 0.43l0 0 0 -0.43 -0.43 0m1.3 1.73l-0.43 0 0 -0.43 -0.44 -0.44 0 -0.43m3.47 2.17l-0.87 0 -0.44 -0.43 -0.87 0 -0.44 -0.44m3.91 1.3l0 -0.44 -1.3 0m-22.14 16.49l0 5.64m0 0l3.04 1.74 3.91 0.87 3.9 0.87 8.25 0 3.91 -0.87 3.47 -0.87 3.04 -1.74m0 -5.64l-3.04 1.3 -3.47 1.3 -3.91 0.43 -4.34 0.44 -3.91 -0.44 -3.9 -0.43 -3.91 -1.3 -3.04 -1.3m24.74 -8.68l0.87 0.44 0.87 0.87 0.87 1.3 0.87 0.87 0.44 1.3 0.43 1.3 0.44 1.3 0 1.3m-4.78 -8.68l-4.34 1.74 -5.64 0.44 -5.21 -0.44 -4.34 -1.74 -3.04 -2.6 -1.3 -3.04 1.3 -3.04 3.04 -2.6m364.14 -153.21l0.87 1.73 0.87 3.04 0 2.61m25.17 2.6l-6.95 0 -8.25 3.04m19.97 -0.87l4.77 2.17 2.61 3.04 1.3 2.17 1.3 3.04 0 3.47m-14.75 -16.06l3.03 1.3m-469.17 2.17l-8.68 -3.04 -6.95 0m0 0l-3.04 1.74m-1.73 0.87l-4.78 2.17 -2.6 2.6 -1.3 2.61 -1.3 2.6 0 3.47m531.24 3.04l-8.25 -0.87 -9.11 2.6m21.27 0.87l5.64 2.6 3.04 3.04 1.73 2.17 1.3 3.04 0.43 2.17 0 1.74m-11.29 -15.19l-4.77 -2.17m-532.97 2.61l-9.98 -2.61 -7.81 0.87m0 0l-5.21 2.17m0.87 0.44l-5.64 2.6 -3.04 3.04 -1.3 2.17 -1.3 3.04 -0.43 2.17 -0.43 2.17m506.5 -28.65l10.85 -6.51m4.78 2.17l-0.44 0 -0.87 -0.44 -0.44 -0.43 -0.43 0 -0.87 -0.43 -0.44 -0.44 -0.43 0 -0.87 -0.43m-450.94 0.43l4.34 2.61m-4.34 -2.61l-0.87 0.44 -0.43 0.43 -0.44 0.44 -0.87 0 -0.43 0.43 -0.44 0.43 -0.87 0 -0.44 0.44m535.58 35.16l-9.55 -1.3 -9.98 1.74m23 2.6l6.08 3.04 3.47 3.04 1.74 3.04 1.3 2.6 0.87 2.17 0 2.61m-16.93 -19.53l6.08 3.47 1.3 0.87m-598.07 -3.04l-10.85 -1.74 -9.12 1.3m0 0l-6.51 3.47 -0.87 1.3m4.34 -1.74l-6.51 3.04 -3.47 3.47 -1.74 2.61 -1.3 3.04 -0.87 1.73 0 2.61m552.5 -56.42l8.24 -3.04 6.95 0m-15.19 3.04l-15.63 9.11m-436.19 -3.47l-8.68 -4.77m-15.62 -3.04l7.38 0 8.24 3.04m452.25 30.38l10.42 -4.34 25.61 -10.85m3.9 2.6l-0.43 0 -0.43 -0.43 -0.44 -0.44 -0.43 0 -0.44 -0.44 -0.43 -0.43 -0.43 0 0 -0.44m0 0l-0.44 0 -0.43 -0.43m-515.61 0.87l32.55 13.45 2.17 0.87m-34.72 -14.32l-0.87 0.43 -0.44 0 -0.43 0.44 -0.43 0.43 -0.44 0.43 -0.43 0 -0.87 0.44 -0.43 0.43m523.86 -0.87l9.55 -2.6 7.81 0.87m-17.36 1.73l-32.55 13.89 -5.21 2.17m-447.47 0.87l-12.59 -5.64 -26.04 -10.42m-17.8 -1.73l8.68 -0.87 9.12 2.6m591.56 40.36l-9.98 -1.74 -10.85 0.87m23.87 4.34l6.51 3.47 3.9 3.47 2.17 2.6 1.3 3.47 0.87 1.74 0.44 2.6 0 0.44m-18.23 -21.27l6.94 3.91 3.91 3.47m-648.86 -7.38l-11.72 -0.87 -9.55 2.17m0 0l-6.94 3.91 -3.91 3.47m8.25 -4.34l-6.51 3.91 -3.91 3.04 -2.17 3.03 -1.3 3.04 -0.87 2.17 -0.43 2.17 0 0.87m580.28 -29.08l24.74 -7.81 28.21 -9.11m3.47 3.04l-0.44 -0.44 -0.43 -0.43 -0.43 0 -0.44 -0.43 -0.43 -0.44 -0.44 -0.43 -0.43 -0.44 -0.43 -0.43m-571.17 0.87l36.02 10.85 18.23 5.64m-54.25 -16.49l-0.44 0.43 -0.43 0.44 -0.44 0.43 -0.43 0.44 -0.43 -0 -0.44 0.44 -0.43 0.43 -0.44 0.44m578.11 -0.87l10.85 -1.74 8.68 1.3m-19.53 0.44l-36.02 11.28 -19.96 6.08m-466.13 0.43l-27.78 -8.24 -28.21 -8.68m-19.53 -0.44l9.12 -1.3 10.41 1.74m528.63 33.85l-2.61 0.44m-476.12 -0.44l2.61 0.87 1.73 0.44m583.32 9.98l-10.42 -2.61 -11.72 0m24.31 6.08l6.94 4.34 3.91 3.47 2.6 3.04 1.74 3.47 0.43 2.17 0.87 2.17 0 0.44m-18.66 -22.57l7.37 4.34 3.91 3.9 2.61 3.47 0.43 0.87m-689.22 -13.88l-12.15 0 -9.98 2.6m0 0l-7.38 4.34 -3.91 4.34 -2.6 3.04 -0.44 0.87m12.59 -9.12l-7.38 3.91 -3.9 3.91 -2.17 3.04 -1.74 3.03 -0.87 2.17 -0.43 2.61 -0.44 0.43 0.44 0m606.32 -35.16l38.63 -8.68 30.38 -6.51m2.61 3.04l0 -0.43 -0.44 0 -0.43 -0.44 -0.44 -0.43 0 -0.44 -0.43 -0.43 -0.43 -0.44 -0.44 -0.43m-69.01 15.19l0.43 0.44 0 0.43 0.44 0.44 0.43 0 0.43 0.43 0.44 0.43 0 0.44 0.43 0.43m-550.77 -17.36l39.06 8.25 30.38 6.07m-69.44 -14.32l-0.43 0.43 -0.44 0.44 0 0.43 -0.43 0.44 -0.44 0.43 -0.43 0.43 -0.43 0.44m69.44 14.76l0.43 -0.44 0.44 -0.43 0.43 -0.44 0 -0.43 0.43 -0.44 0.44 -0.43 0.43 -0.44 0 -0.43m471.34 133.89l0 -60.76m-463.96 0l0 53.82m485.23 -108.5l-2.61 0.43 -2.17 0m-501.29 -0.43l2.6 0.43 1.74 0.43m492.17 0.87l4.77 -1.3m0 0l0.44 0.43 0 0.44 0.43 0.43 0.44 0.44 0 0.43 0.43 0.44 0 0.43 0.43 0.43m60.33 -34.72l11.72 -0.87 9.54 2.17m-21.26 -1.3l-38.63 8.68 -30.38 6.51m0 0l-2.17 0.43 -2.17 0.87m0 0l-0.43 0m-485.66 15.19l4.77 0.87m-6.51 2.61l0 -0.44 0.43 -0.43 0 -0.44 0.44 -0.43 0.43 -0.44 0 -0.43 0.44 -0.44 0 -0.43m6.51 -16.06l2.6 0.44 1.74 0.43m-4.34 -0.87l-39.06 -8.24 -30.38 -6.51m-21.27 1.3l9.98 -2.17 11.29 0.87m74.22 16.06l-0.43 -0.44m481.32 16.06l-3.04 0.87 -2.17 1.3 -0.44 0.44m7.81 0.43l-0.44 -0.43 0 -0.44 -0.43 0 -0.43 -0.43 0 -0.44 -0.44 -0.43 0 -0.44 -0.43 -0.43m-481.32 2.61l-0.44 -0.44 -2.6 -1.3 -3.04 -0.87m0 0l0 0.44 -0.43 0.43 0 0.43 -0.44 0.44 0 0.43 -0.43 0.44 -0.44 0.43 0 0.44m498.69 -5.21l40.8 -5.64 32.12 -4.34m2.17 3.47l-0.44 -0.43 0 -0.43 -0.43 -0.44 -0.43 -0.43 0 -0.44 -0.44 -0.43 0 -0.22 -0.43 -0.44m-72.91 9.98l0 0.43 0.43 0.44 0 0.43 0.44 0.43 0.43 0.44 0.43 0.43 0 0.44m-581.58 -11.72l41.23 4.77 32.55 3.91m-73.78 -8.68l0 0 -0.44 0.43 0 0.44 -0.43 0.43 0 0.43 -0.44 0.44 -0.43 0.43 0 0.44m73.35 9.11l0.43 -0.43 0 -0.44 0.43 -0.43 0 -0.44 0.44 -0.43 0.43 -0.44 0 -0.43 0.44 -0.44m614.13 19.53l-10.85 -3.47 -12.15 -0.87m24.31 7.81l7.38 4.78 4.34 3.9 2.17 3.47 1.74 3.03 0.87 2.61 0.87 2.17 0 0.43m-18.66 -23.87l7.38 4.77 4.34 4.34 2.6 3.47 2.17 4.34 0.87 2.17m-137.58 59.03l0 -65.97m-481.76 0.44l0 58.59m-97.87 -74.22l-12.58 0.87 -10.42 3.47m0 0l-7.81 4.78 -4.34 4.77 -2.17 3.47 -2.17 3.91 -0.87 2.6m16.06 -16.06l-7.38 4.78 -4.34 3.91 -2.17 3.03 -1.74 3.47 -0.87 2.17 -0.87 2.6 0 0.44m642.77 -25.17l-2.6 0 -2.17 0.43m-520.39 -0.43l2.61 0.43 2.17 0m510.4 0.44l5.21 -0.44m0 0l0 0.87 0.43 0.44 0 0.87 0.44 0.44 0 0.87m-516.48 -3.47l4.77 0.44m-6.07 3.04l0.43 -0.44 0 -0.87 0.44 -0.43 -0 -0.87 0.44 -0.43 0 -0.44m510.4 0.44l-3.04 0.87 -2.6 0.87 -2.17 1.74 -1.74 1.74 -1.74 3.47 -0.43 2.6m13.02 -7.81l0 -0.43 -0.43 -0.44 0 -0.87 -0.44 -0.43 0 -0.87 -0.44 -0.43m-10.85 14.76l0 -0.87 -0.43 -0.44 0 -0.87 -0.44 -0.44 0 -0.87m-481.76 0.44l-0.87 -3.91 -0.87 -2.17 -1.74 -1.74 -3.03 -2.17 -2.17 -0.87 -3.47 -0.87m0 0l0 0.87 -0.43 0.43 0 0.87 -0.44 0.43 0 0.87m13.02 8.25l0 0.87 -0.44 0.43 0 0.87 -0.43 0.43 0 0.87m479.59 -26.48l2.17 -2.17 2.61 -0.87 3.04 -1.3m-11.72 44.7l0 53.82m94.18 -109.8l12.37 0 9.98 2.6m-22.14 -2.6l-41.23 5.64 -32.12 3.91m0 0l-2.6 0.43 -1.74 0.43m0 0l-4.77 0.87m-501.07 -1.3l2.61 0.43 2.17 0.44m-4.78 -0.87l-41.23 -5.21 -32.12 -3.91m-22.14 3.04l10.42 -3.04 11.72 0m94.61 108.94l0 -53.82m-11.5 -44.49l3.04 0.87 2.61 1.3 1.73 1.74 0.44 0m-7.81 -3.91l-4.77 -0.87m495.65 76.39l0 -30.38m-490.44 0l0 17.79m507.8 -48.61l42.1 -2.61 33.42 -1.73m1.3 3.47l0 -0.44 -0.43 -0.43 0 -0.87 -0.43 -0.43 0 -0.87 -0.44 -0.43m-75.52 4.34l0 0.87 0.43 0.43 0 0.87 0.44 0.43 0 0.87m-602.2 -6.29l42.53 1.74 33.42 1.3m-75.95 -3.04l0 0.44 -0.43 0.43 0 0.43 -0.43 0.44 0 0.87 -0.44 0.43 0 0.44m75.95 3.03l0.44 -0.43 0 -0.87 0.43 -0.43 0 -0.87 0.44 -0.44 0 -0.43m529.93 19.97l-4.78 0m-529.93 0.43l2.6 -0.43 2.17 0.43m519.96 -0.43l5.2 0m0 0l0 1.3 0.44 0.43 0 1.74m-525.6 -3.04l4.78 0m-5.21 3.47l0 -2.6 0.43 -0.44 0 -0.43m519.96 -0.43l-3.04 0.43 -2.61 1.3 -2.17 1.3 -1.73 1.3 -2.17 3.47 -0.44 3.04m12.59 -6.95l0 -3.47 -0.43 -0.43m-11.72 14.32l0 -2.17 -0.44 -0.43 0 -0.87m-490.44 0l-0.87 -3.91 -1.3 -1.74 -1.74 -1.73 -3.04 -1.74 -2.17 -0.87 -3.47 -0.43m0 0l0 3.04 -0.44 0.43m13.02 6.95l0 0.43 -0.44 0.44 0 2.6m613.7 -6.51l-11.29 -4.34 -12.15 -1.74m23.87 9.55l7.81 5.21 3.9 4.34 2.61 3.47 1.74 3.47 1.3 2.17 0.43 2.6 0.44 0.43m-18.66 -25.17l7.38 5.21 4.34 4.77 2.6 3.91 2.17 3.91 0.87 3.04 0.87 3.03 0.43 0.87 0 0.44m-731.32 -30.38l-13.02 2.17 -10.42 4.34m0 0l-7.81 5.21 -4.34 4.78 -2.6 3.9 -1.74 3.91 -1.3 3.04 -0.87 3.04 0 1.3m18.23 -21.7l-7.81 5.21 -3.91 4.34 -2.6 3.04 -2.17 3.91 -0.87 2.17 -0.87 2.6 0 0.44m628.46 -38.63l0.87 -3.47 1.3 -2.17 1.3 -1.73 3.04 -2.17 2.61 -0.87 3.03 -0.87m-12.15 11.29l0 50.78m97.65 -67.27l12.59 0.87 10.42 3.47m-23 -4.34l-42.53 2.61 -33.42 1.73m0 0l-2.6 0 -2.17 0.44m0 0l-4.78 0.43m-517.78 -0.87l2.61 0.44 2.17 0m-4.78 -0.44l-42.53 -1.73 -33.42 -1.3m-23 4.34l10.85 -3.47 12.15 -0.87m98.09 64.23l0 -48.61m-12.15 -11.72l3.03 0.87 2.61 1.3 2.17 1.3 1.74 1.74 1.73 3.47 0.87 3.04m-12.15 -11.72l-5.21 -0.43m526.46 16.06l43.4 0.87 33.85 0.87m0.44 3.47l0 -1.3 -0.44 -0.43 0 -1.74m-77.25 -1.73l0 0.87 0.43 0.44 0 2.17m-612.4 -0.87l42.97 -1.3 34.29 -0.87m-77.25 2.17l-0.44 0.44 0 3.03m77.26 -2.17l0 -3.04 0.43 -0.43m525.16 19.1l5.21 0.43m4.77 0l-4.77 0m0 0l0 2.17 -0.44 0.44 0 0.87m-525.38 -3.69l5.21 0m-9.98 0.44l2.6 0 2.17 -0.44m0.44 3.91l0 -1.3 -0.44 -0.44 0 -2.17m649.72 282.11l0 -239.58m-128.9 -42.97l-3.04 0.43 -2.6 0.87 -2.17 0.87 -1.74 1.73 -2.17 3.04 -0.43 3.04m11.72 -6.08l0.43 -0.43 0 -3.47m-503.46 9.98l-0.87 -3.91 -1.3 -1.73 -1.3 -1.3 -3.04 -1.73 -2.6 -0.87 -3.04 0m0 0l0 3.47m-128.9 279.94l0 -239.36m662.74 398.86l19.97 -12.59 18.23 -13.02 16.49 -13.89 14.76 -14.76 12.59 -15.19 10.42 -15.62 8.68 -16.06 6.51 -16.49 4.34 -16.49 2.17 -16.93 0.43 -8.68m-22.13 -267.35l-11.29 -5.21 -12.15 -2.6m23 11.28l7.81 6.08 4.34 4.34 2.6 3.9 1.74 3.47 1.3 2.17 0.43 2.6 0.44 0.44 0 0.43m-18.23 -26.91l7.81 6.08 3.91 4.77 2.6 3.91 2.17 4.34 0.87 3.04 0.87 3.03 0 1.74m-731.75 -33.85l-13.02 3.04 -10.41 5.21m0 0l-7.81 6.08 -3.9 5.21 -2.61 3.9 -2.17 4.34 -0.87 2.61 -0.43 3.04 -0.44 0.87 0 0.87m18.66 -23.44l-7.38 5.64 -4.34 4.77 -2.6 3.47 -2.17 3.91 -0.87 2.17 -0.87 2.6 -0.43 0.44 0 0.43m632.36 -49.48l0.87 -3.91 1.3 -1.73 1.3 -1.74 3.04 -1.74 2.6 -0.87 3.04 -0.44m-12.15 10.42l0 13.46m99.39 -22.57l13.02 1.73 10.42 4.34m-23.44 -6.07l-43.4 -0.87 -33.85 -0.87m0 0l-4.77 0m0 0l-5.21 0.43m-525.59 0l4.77 0m-4.77 0l-43.4 1.3 -33.85 0.87m-23.44 6.51l10.85 -4.77 12.59 -1.74m99.39 23l0 -14.76m-12.58 -10.42l3.47 0.44 2.6 0.87 2.17 1.3 1.74 1.73 2.17 3.04 0.43 3.04m-12.58 -10.42l-4.78 0m516.92 35.16l5.2 0.44m-518.21 0.43l5.21 -0.87m517.78 1.3l-2.61 -0.43 -2.17 -0.44m0 0l-0.43 0.43 0 0.87 -0.43 0.43 0 0.87 -0.44 0.43 0 0.44m-521.69 -2.17l3.04 -0.44 1.74 -0.43m1.3 3.47l0 -0.43 -0.43 -0.44 0 -0.87 -0.44 -0.44 0 -0.87 -0.43 -0.43m513.01 -0.87l-3.04 0 -2.61 0.44 -2.17 1.3 -1.73 1.3 -1.74 3.04 -0.43 0m10.41 -2.61l0.44 -0.43 0 -0.44 0.43 -0.43 0 -0.87 0.44 -0.43 0 -0.87m-496.52 6.51l0 -1.3 -1.3 -1.74 -1.74 -1.3 -2.6 -1.3 -2.61 -0.87 -3.03 0m0 0l0 0.44 0.43 0.87 0 0.87 0.44 0.44 0 0.87 0.43 0.44m520.38 -23l43.4 4.34 33.85 3.47m-0.44 3.47l0 -0.44 0.44 -0.43 0 -2.6m-77.26 -7.81l0 3.04 -0.43 0.44 0 0.43m-612.4 4.77l43.4 -4.34 33.85 -3.9m-77.25 8.24l0 1.74 0.43 0.44 0 1.3m77.25 -8.25l0 -0.43 -0.43 -0.44 0 -2.6m647.99 310.75l0 -239.58m-760.18 240.66l0 -240.01m624.98 -59.46l0.87 -3.9 1.3 -1.74 1.3 -1.3 3.04 -1.74 2.61 -0.87 3.04 0m-12.15 9.55l0 8.25m99.39 -9.98l13.02 3.04 10.42 4.77m-23.44 -7.81l-42.97 -4.34 -34.29 -3.04m0 0l-2.61 -0.44 -2.17 0m0 0l-5.2 0m-524.73 0.44l4.77 0m-4.77 0l-43.4 4.77 -33.85 3.47m-23.44 8.25l11.28 -5.21 12.15 -3.04m99.39 9.12l0 -8.25m-12.59 -9.55l3.69 0 2.61 0.87 2.17 1.3 1.73 1.3 2.17 3.03 0.44 3.04m-12.59 -9.55l-4.77 0.44m508.23 34.29l4.77 0.87m112.41 4.34l-10.85 -6.08 -12.15 -3.47m21.7 13.02l7.81 6.51 3.91 4.78 2.61 3.9 2.17 3.91 0.87 2.17 0.87 2.6 0.44 0.44 0 0.43m-17.36 -28.21l7.38 6.51 3.91 5.21 2.6 3.9 1.74 4.78 0.87 2.6 0.87 3.47 0 1.73m-630.63 -32.55l4.77 -0.87m491.31 0l-3.04 -0.44 -2.6 0.44 -2.17 0.87 -1.3 1.3 -1.3 1.73m8.25 -0.87l0.43 -0.44 0.44 -0.43 0 -0.44 0.43 -0.43 0 -0.44 0.43 0 0 -0.44 0.44 -0.43m-480.46 3.9l-0.87 -1.3 -1.74 -1.3 -3.04 -1.3 -2.17 -0.44 -3.04 0.44m0 0l0.44 0.43 0 0.44 0.43 0.43 0 0.44 0.44 0.43 0.43 0.43 0 0.44 0.44 0.43m498.68 -1.74l-2.61 -0.43 -2.17 -0.43m0 0l0 0.43 -0.43 0.43 -0.44 0.44 0 0.43 -0.43 0.44 0 0.43 -0.43 0 0 0.43m-588.09 -7.37l-12.59 3.9 -10.42 5.64m0 0l-7.38 6.95 -4.34 5.21 -2.17 4.34 -2.17 4.34 -0.87 3.04 -0.44 3.04 0 1.3m18.66 -24.74l-7.38 6.51 -4.34 5.21 -2.61 3.47 -2.17 3.91 -0.87 2.6 -0.87 2.61 -0.44 0.43 0 0m125 -32.12l2.17 -0.87 2.17 -0.43m2.17 3.47l-0.43 -0.44 -0.44 -0.43 0 -0.43 -0.43 -0.44 0 -0.43 -0.44 -0.44 0 -0.22 -0.43 -0.43m514.31 -18.66l42.53 7.38 33.42 6.08m-1.3 3.47l0 -0.43 0.43 -0.44 0 -0.87 0.44 -0.43 0 -0.87 0.43 -0.43m-75.95 -13.46l-0.44 0.44 0 0.87 -0.43 0.43 0 0.87 -0.43 0.43 0 0.44m-601.98 10.85l42.53 -7.81 32.98 -6.07m-75.52 13.89l0 0.43 0.43 0.44 0 0.87 0.44 0.44 0 0.87 0.43 0.43m75.52 -13.89l0 -0.87 -0.44 -0.43 0 -0.44 -0.43 -0.43 0 -0.87 -0.44 -0.43m496.95 35.16l-2.6 -0.44 -2.61 0.44 -2.17 0.43 -1.3 1.3 -0.44 0.87m-447.47 0l-0.43 -0.43 -1.3 -1.3 -2.61 -0.87 -2.17 0 -3.04 0.43m466.13 -0.43l4.77 1.3m-7.37 2.17l0.43 -0.44 0 -0.43 0.43 -0.43 0.44 -0.44 0.43 -0.43 0.44 -0.44 0 -0.43 0.43 -0.44m-470.47 1.74l4.34 -1.3m0 0l0.44 0.44 0.43 0.43 0 0.43 0.43 0 0.44 0.44 0.43 0.43 0.44 0.44 0 0.43m597.64 279.94l0 -239.58m-124.99 -41.23l-2.61 -0.43 -1.74 -0.87m0 0l-0.43 0.43 -0.43 0.44 -0.44 0.43 0 0.44 -0.43 0.43 -0.44 0.43 -0.43 0.44 -0.44 0.43m-476.55 -1.73l2.17 -0.87 2.17 -0.44m2.61 3.04l-0.44 -0.43 -0.43 -0.44 0 -0.43 -0.44 -0.44 -0.43 0 -0.43 -0.44 -0.44 -0.43 0 -0.44m478.29 -26.48l0.87 -3.47 0.87 -1.73 1.74 -1.3 3.03 -1.73 2.17 -0.44 3.04 0m-11.72 8.68l0 6.95m97.66 -0.87l12.58 3.47 10.42 6.08m-23 -9.55l-42.53 -7.81 -33.42 -5.64m0 0l-2.61 -0.44 -2.17 -0.43m0 0l-5.21 -0.44m-619.34 318.14l0 -239.58m104.17 -76.82l2.6 -0.43 2.17 -0.44m-4.77 0.87l-42.53 7.81 -32.99 6.08m-23 9.55l10.85 -6.08 12.15 -3.47m97.22 0l0 -6.94m-11.72 -8.25l3.04 -0.44 2.6 0.87 2.17 0.87 1.74 1.3 1.74 3.04 0.43 2.6m-11.72 -8.24l-5.21 0.43m608.49 46.87l-10.42 -6.94 -11.72 -4.34m20.4 14.75l7.38 6.95 3.91 5.21 2.6 3.9 2.17 3.91 0.87 2.6 0.87 2.61 0.43 0.43 0 0.44m-16.49 -29.51l7.38 6.94 3.91 5.64 2.17 4.34 1.73 4.77 0.87 3.04 0.43 3.04 0 1.74m-695.29 -40.15l-12.15 4.78 -9.98 6.94m0 0l-6.95 6.95 -4.34 6.07 -2.17 3.91 -1.73 4.77 -0.44 3.04 -0.87 3.04 0 1.74m18.66 -26.48l-7.38 6.94 -3.91 5.64 -2.6 3.9 -2.17 3.91 -0.87 2.6 -1.3 2.61 0 0.43 -0.44 0.44m621.95 -61.2l40.8 10.85 32.55 8.24m-2.17 3.47l0.44 -0.44 0.43 -0.43 0 -0.22 0.44 -0.44 0 -0.43 0.43 -0.44 0 -0.43 0.43 -0.44m-73.35 -19.09l-0.44 0.43 0 0.43 -0.43 0.44 -0.44 0.43 0 0.44 -0.43 0.43 0 0.44 -0.43 0.43m-581.15 16.27l40.8 -10.85 32.55 -8.68m-73.35 19.53l0.44 0.44 0 0.43 0.43 0.43 0 0.44 0.44 0.43 0.43 0.44 0 0.43 0.44 0.44m72.91 -19.97l0 0 -0.44 -0.44 -0.43 -0.43 0 -0.44 -0.44 -0.43 0 -0.43 -0.43 -0.44 0 -0.43m471.34 32.99l-2.61 -0.87 -2.17 0 -1.74 0.43 -1.73 0.87m-416.66 0.43l-0.87 -0.87 -2.61 -0.87 -2.17 0 -2.6 0.87m433.15 0l4.34 1.3m-7.81 1.3l0.44 -0.43 0.43 0 0.44 -0.44 0.43 -0.43 0.43 -0.44 0.44 -0.43 0.43 -0.44 0.44 0m-437.06 1.73l3.91 -1.73m0 0l0.43 0.43 0.44 0.44 0.43 -0 0.43 0.44 0.44 0.43 0.43 0.44 0.44 0.43 0.43 0.44m437.92 0l-2.17 -0.87 -1.73 -0.87m0 0l-0.44 0.43 -0.43 0.44 -0.44 0.43 -0.43 0.44 -0.44 0.43 -0.43 0 -0.43 0.43 -0.44 0.44m-442.26 -0.87l2.6 -1.3 1.74 -0.44m3.47 3.04l-0.43 -0.43 -0.44 -0.44 -0.43 -0.43 -0.44 -0.44 -0.43 -0.43 -0.43 -0.44 -0.44 0 -0.43 -0.44m452.68 -26.04l0.44 -3.47 1.3 -1.3 1.3 -1.73 3.04 -0.87 2.6 -0.43 2.61 0m-11.29 7.81l0 6.94m116.75 281.68l0 -263.88m-22.57 -11.28l12.59 4.77 9.98 6.51m-22.57 -11.28l-40.8 -10.85 -32.55 -8.24m0 0l-2.61 -0.87 -1.73 -0.44m0 0l-5.21 -0.87m-496.51 2.17l2.6 -0.44 2.17 -0.43m-4.77 0.87l-40.8 11.28 -32.12 8.68m-22.13 11.29l10.41 -6.95 11.72 -4.34m-22.13 11.29l0 264.53m115.88 -282.98l0 -6.51m-11.29 -7.81l2.61 -0.43 2.6 0.43 2.17 0.87 1.74 1.3 1.74 2.61 0.43 3.04m-11.29 -7.81l-4.77 0.87m596.34 323.78l0 -239.58m-695.29 240.88l0 -239.58m589.39 -69.44l39.06 13.89 30.38 10.85m-69.44 -24.74l-0.44 0.44 -0.43 0.43 -0.44 0.43 0 0.44 -0.43 0.43 -0.44 0.44 -0.43 0.43 -0.44 0.44m-42.96 26.9l-2.17 -0.87 -2.17 -0.44 -1.74 0.44 -0.44 0.43m-378.9 0l-0.43 0 -2.17 -0.87 -2.17 0.44 -2.17 0.87m-115.02 -4.78l39.06 -14.32 30.38 -10.85m2.61 3.03l-0.44 -0.43 -0.43 0 0 -0.43 -0.44 -0.44 -0.43 -0.43 -0.44 -0.44 -0.43 -0.43 0 -0.44m437.92 29.95l3.9 1.74m-7.81 0.87l0.43 -0.44 0.44 -0.43 0.87 -0.43 0.43 0 0.43 -0.44 0.44 -0.43 0.43 -0.44 0.44 0m-396.26 1.74l3.91 -1.74m0 0l0.43 0.44 0.44 0 0.43 0.43 0.87 0.44 0.43 0.43 0.44 0.44 0.43 -0 0.43 0.44m525.16 4.34l-9.98 -7.38 -11.29 -5.21m18.66 16.06l6.94 7.38 3.91 5.64 2.17 4.34 2.17 3.91 1.3 2.61 0.87 2.6 0 0.87 0.44 0m-15.19 -30.82l6.51 7.81 3.91 6.08 2.17 4.34 1.3 4.78 0.87 3.03 0.44 3.47 0 1.3m-39.06 -40.36l0.43 -0.43 0.44 -0.44 0 -0.43 0.43 -0.44 0.44 -0.43 0.43 0 0 -0.43 0.44 -0.44m-107.64 9.55l-2.17 -1.3 -1.74 -0.87m0 0l-0.43 0.44 -0.44 -0 -0.43 0.44 -0.44 0.43 -0.87 0.44 -0.44 0.43 -0.43 0 -0.43 0.44m-507.37 -9.12l-11.28 5.64 -9.55 7.38m0 0l-6.95 7.81 -3.47 6.07 -2.17 4.34 -1.3 4.78 -0.87 3.04 -0.43 3.47 0 1.3m18.23 -27.78l-6.95 7.81 -3.91 5.64 -2.6 3.9 -2.17 4.34 -0.87 2.61 -1.3 2.6 0 0.87 -0.43 0m36.02 -43.84l0.44 0.43 0.43 0.44 0.43 0.43 0.44 0 0 0.44 0.43 0.43 0.44 0.44 0.43 0.43m104.6 5.64l2.17 -1.3 1.3 -0.87m4.34 3.04l-0.87 -0.44 -0.43 -0.43 -0.44 -0.43 -0.43 -0.44 -0.43 0 -0.44 -0.43 -0.87 -0.44 -0.43 -0.43m419.26 -24.31l0.87 -3.47 0.87 -1.73 1.73 -1.3 2.61 -0.87 2.17 0 3.04 0.43m-11.29 6.94l0 7.81m111.11 289.05l0 -263.88m-21.27 -13.02l11.72 5.64 9.55 7.38m-21.27 -13.02l-39.06 -13.46 -30.82 -10.85m0 0l-2.17 -0.87 -2.17 -0.44m0 0l-4.34 -1.3m-469.61 2.6l2.6 -0.87 1.74 -0.44m-4.34 1.3l-38.63 14.32 -30.38 10.85m-20.83 13.02l9.54 -7.38 11.29 -5.64m-20.83 13.02l0 264.32m109.8 -289.92l0 -8.25m-11.28 -6.94l3.04 -0.44 2.17 0 2.17 0.87 1.73 0.87 1.74 3.04 0.43 2.6m-11.28 -6.94l-4.34 1.3m407.54 42.1l-2.17 -1.3 -3.04 0 -0.44 0.44m-334.19 0l-1.74 -0.44 -1.73 0.44 -2.17 0.87m345.48 0l3.47 2.17m-8.25 0l0.87 -0.43 0.43 0 0.44 -0.43 0.87 -0.44 0.43 0 0.43 -0.43 0.87 -0.44 0.44 0m-348.52 2.17l3.04 -2.17m0 0l0.87 0.44 0.44 0 0.43 0.43 0.87 0.44 0.43 0 0.44 0.43 0.87 0.44 0.43 -0m347.21 2.17l-1.74 -1.3 -1.3 -0.87m0 0l-0.43 0 -0.87 0.44 -0.44 0.43 -0.43 0 -0.87 0.44 -0.43 0.43 -0.44 0 -0.87 0.44m-350.25 -0l1.74 -1.3 1.3 -0.87m4.34 2.61l-0.44 -0.44 -0.43 -0.43 -0.87 0 -0.43 -0.43 -0.44 -0.44 -0.87 0 -0.44 -0.43 -0.43 -0.44m400.6 -28.64l36.46 16.49 28.21 13.02m-64.67 -29.51l-0.43 0.43 -0.44 0.44 -0.43 0.43 -0.43 0.44 -0.44 -0 -0.43 0.44 -0.44 0.43 -0.43 0.44m-509.97 27.34l36.02 -16.93 27.78 -13.02m3.47 3.04l-0.43 -0.43 -0.44 -0.44 -0.43 -0.43 -0.44 -0.44 -0.43 -0.43 -0.43 -0.44 -0.44 0 -0.43 -0.44m547.73 314.88l0 -239.36m-644.52 0.87l0 239.58m467.87 -277.77l-1.74 -1.3 -1.73 -0.44 -0.87 0m-283.41 0.44l-1.3 -0.44 -1.3 0.44 -1.73 1.3m454.85 5.21l-9.12 -8.25 -10.41 -6.08m16.06 17.36l6.94 8.24 3.47 6.08 2.17 3.91 2.17 4.34 0.87 2.6 1.3 3.04 0 0.87 0.43 0m-13.89 -32.12l6.51 8.24 3.04 6.08 2.17 4.78 1.3 4.77 0.44 3.04 0.43 3.47 0 1.74m-36.89 -43.4l0.43 -0.43 0.43 -0.44 0.44 -0.43 0.43 0 0.44 -0.44 0.43 -0.43 0.43 -0.43 0.44 -0.44m-578.11 0.87l-10.85 6.51 -8.68 8.25m0 0l-6.08 8.25 -3.47 6.07 -1.74 4.78 -1.3 4.77 -0.87 3.04 0 4.78m16.93 -28.65l-6.07 7.81 -3.91 6.08 -2.17 3.9 -2.17 4.34 -0.87 3.04 -1.3 2.61 0 0.87 -0.44 0m32.99 -46.44l0.44 0.44 0.43 0.43 0.44 0.43 0.43 0 0.43 0.44 0.44 0.43 0.43 0.44 0.44 0.43m431.41 5.21l2.6 2.17m-7.81 -0.43l0.87 0 0.43 -0.44 0.87 -0.43 0.43 0 0.44 -0.44 0.87 0 0.43 -0.43 0.87 0m-295.13 2.17l3.04 -2.17m0 0l0.43 0 0.87 0.43 0.43 0.44 0.87 0 0.44 0.43 0.87 0 0.44 0.44 0.43 0m343.74 -34.72l0.87 -3.04 0.87 -1.74 1.3 -0.87 2.61 -0.87 2.17 0 2.6 0.43m-10.41 6.08l0 9.98m102.86 295.57l0 -264.32m-19.53 -14.32l10.85 6.51 8.68 7.81m-19.53 -14.32l-36.02 -16.49 -28.65 -13.02m0 0l-2.17 -0.87 -1.74 -0.87m0 0l-4.34 -1.74m-434.45 3.91l2.17 -1.3 2.17 -0.44m-4.34 1.74l-35.59 16.49 -28.21 13.46m-19.53 14.76l9.12 -8.68 10.42 -6.08m-19.53 14.76l0 263.88m102 -296l0 -9.98m-10.42 -6.07l2.6 -0.87 2.17 0 2.17 0.43 1.3 1.3 1.73 2.17 0.44 3.03m-10.42 -6.07l-3.91 1.73m368.91 41.67l-1.74 -1.3 -1.3 -1.3m0 0l-0.43 0.43 -0.44 0 -0.87 0.44 -0.44 0 -0.87 0.43 -0.43 0.44 -0.87 0 -0.43 0.43m-295.56 0.43l1.73 -1.3 0.87 -1.3m5.21 2.17l-0.44 -0.44 -0.87 0 -0.44 -0.44 -0.87 0 -0.43 -0.43 -0.87 0 -0.43 -0.44 -0.87 -0.43m352.86 -24.31l32.55 19.1 26.04 14.76m-58.59 -33.85l-0.44 0 -0.87 0.44 -0.44 0.43 -0.43 0.43 -0.44 0 -0.43 0.44 -0.43 0.43 -0.87 0.44m-460.93 32.12l32.12 -19.53 25.61 -15.19m3.9 2.61l-0.43 0 0 -0.44 -0.43 0m0 0l-0.44 -0.43 -0.43 -0.44 -0.44 0 -0.43 -0.43 -0.43 -0.44 -0.44 0 -0.43 -0.44m320.74 31.68l-1.3 -0.87 -1.3 -0.87 -0.87 0.44m-227.42 0l-0.87 0 -0.87 0.43 -1.3 1.3m233.94 -0.43l2.17 3.04m-7.81 -1.3l0.87 0 0.44 -0.43 0.87 0 0.87 -0.43 0.44 0 0.87 -0.44 0.44 0 0.87 -0.43m-236.11 3.04l2.17 -2.61m0 0l0.43 0 0.87 0.44 0.44 0 0.87 0.43 1.3 0 0.87 0.43 0.44 0m233.07 3.91l-1.3 -1.74 -0.87 -0.87m0 0l-1.3 0 -0.87 0.43 -0.44 0 -0.87 0.43 -0.44 0 -0.87 0.44 -0.87 0m-234.8 1.3l0.87 -1.74 1.3 -0.87m5.21 1.3l-1.3 0 -0.44 -0.44 -0.87 0 -0.87 -0.43 -0.44 0 -0.87 -0.43 -0.43 0m411.01 287.75l0 -240.01m-206.16 -42.97l-0.87 -1.3 -0.87 -0.44 -0.44 0m-167.1 0l-0.87 0 -0.43 0.44 -1.3 1.3m-204.86 283.85l0 -240.01m473.95 -79.42l0.44 -3.47 0.87 -1.3 1.3 -0.87 2.17 -0.87 2.17 0.43 2.17 0.87m-9.12 5.21l0 13.02m92.88 299.47l0 -263.88m-17.79 -16.06l-32.55 -19.1 -26.04 -14.75m0 0l-1.74 -1.3 -1.74 -0.87m0 0l-3.91 -1.74m-391.92 3.91l2.17 -1.3 1.74 -0.43m-3.91 1.74l-32.12 19.53 -25.61 15.19m-17.36 16.06l0 264.32m92.01 -300.34l0 -13.45m-9.55 -5.21l2.61 -0.87 1.73 0 1.74 0.44 1.3 0.43 1.74 2.6 0.43 2.61m-9.55 -5.21l-3.47 2.17m281.68 38.63l1.74 3.04m-7.38 -1.74l0.87 0 0.43 -0.43 1.74 0 0.43 -0.44 1.74 0 0.43 -0.43m-173.17 3.04l1.3 -3.04m0 0l0.87 0.44 1.3 -0 0.87 0.44 1.3 0 0.87 0.43 0.87 0m355.89 11.72l6.08 8.68 3.47 6.08 2.17 4.34 1.74 4.34 0.87 3.04 1.3 2.6 0 0.87 0.43 0m-11.72 -32.55l5.64 8.68 2.61 6.08 1.74 4.77 1.3 5.21 0.43 3.04 0.44 3.47 -0.44 0.87 0 0.43m-11.72 -32.55l-8.68 -9.12 -9.11 -6.94m-4.34 2.6l0.87 0 0.44 -0.43 0.43 -0.44 0.44 -0.43 0.43 0 0.43 -0.43 0.44 -0.44 0.87 -0.43m-4.34 2.6l9.98 7.38 7.81 8.68m-550.77 0.87l8.25 -9.12 9.11 -6.94m-0.87 -0.43l0.43 0 0 0.43 0.43 0m-3.9 -2.6l0.43 0.43 0.44 0 0.43 0.43 0.43 0 0.44 0.44 0 0.43 0.43 0 0.44 0.44m-3.04 -2.17l-9.55 7.38 -8.25 8.68m0 0l-5.64 8.68 -2.6 6.51 -1.74 4.77 -1.3 4.78 -0.44 3.47 0 4.34m0 0l0.44 0 0.43 -1.3 0.87 -2.17 1.74 -4.34m0 0l5.2 -11.29 7.38 -10.85m328.12 -8.68l-0.43 -1.3 -0.44 -0.44 -0.43 0m-104.17 0l0 0 -0.43 0.44 -0.87 1.3m142.79 0.43l-0.87 -1.73 -0.87 -0.87m0 0l-1.3 0 -0.87 0.43 -1.3 0 -0.87 0.44 -1.3 0m-171 1.73l0.87 -1.3 0.87 -1.3m5.64 0.87l-1.3 0 -0.87 -0.44 -1.3 0 -0.87 -0.43 -1.3 0m107.2 5.21l0 -1.74 -0.44 -0.43m-39.06 0l0 0 0 0.43 -0.44 1.74m73.35 -3.04l1.3 3.04m-6.94 -2.17l1.3 0 0.87 -0.44 3.04 0 0.43 -0.43m-107.64 3.04l0.87 -3.04m0 0l0.87 0.43 2.17 0 0.87 0.44 2.17 0m226.56 -31.25l29.08 21.27 22.57 16.93m-51.65 -38.19l-0.44 0.44 -0.43 0 -0.87 0.43 -0.43 0.44 -0.44 0 -0.87 0.43 -0.44 0.44 -0.43 0m-404.5 36.89l28.21 -21.7 22.57 -17.36m4.34 2.61l-0.43 -0.43 -0.44 -0.44 -0.87 0 -0.43 -0.43 -0.44 -0.44 -0.87 0 -0.44 -0.43 -0.43 -0.44m198.78 33.42l0.43 3.04m-6.51 -3.04l6.08 0m-39.93 3.04l0 -3.04m0 0l6.51 0m69.01 3.04l-0.43 -1.74 -0.44 -1.3m0 0l-1.73 0 -0.44 0.43 -3.04 0 -0.87 0.44m-103.73 2.17l0.43 -1.74 0.43 -1.3m6.08 0.87l-0.87 0 -0.43 -0.44 -3.04 0 -0.87 -0.43 -0.87 0m75.09 5.64l0 -1.74 -0.44 -0.87m0 0l-6.08 0m-34.72 2.6l0 -1.3 0.44 -1.3m6.07 0l-6.08 0m180.12 -33.85l0.43 -3.47 0.87 -1.3 0.87 -0.87 2.17 -0.44 1.73 0.44 1.74 0.87m-7.81 4.78l0 17.8m65.97 20.4l-28.64 -21.7 -22.57 -16.92m0 0l-2.17 -1.3 -1.3 -0.87m0 -0l-3.47 -2.17m-342.44 4.78l1.74 -1.3 1.3 -0.87m-3.04 2.17l-28.21 21.7 -22.14 16.93m65.1 -19.97l0 -18.66m-8.25 -4.78l2.17 -0.87 1.74 -0.44 1.3 0.44 1.3 0.87 1.3 2.17 0.44 2.61m-8.25 -4.78l-3.47 2.61m413.18 321.61l0 -264.32m14.76 270.83l0 -239.58m-511.27 240.44l0 -239.57m14.32 -31.25l0 263.88m482.19 -264.75l5.21 9.12 3.04 6.51 2.17 4.34 1.74 4.78 0.87 2.6 0.87 3.04 0.44 0.87 0.43 0m-9.98 -33.42l4.77 8.68 2.61 6.94 1.3 4.78 0.87 4.77 0.43 3.47 0 4.78m-9.98 -33.42l-7.38 -9.54 -8.25 -7.81m-4.78 2.61l0.87 -0.44 0.44 -0.43 0.43 0 0.87 -0.44 0.43 -0.43 0.44 0 0.87 -0.43 0.43 -0.44m-4.78 2.61l8.68 7.81 6.94 9.12m-89.84 -45.14l24.31 23.44 19.1 18.23m-43.4 -41.67l-0.87 0 -0.43 0.44 -0.87 0.43 -0.43 0 -0.87 0.44 -0.44 0 -0.87 0.43 -0.44 0m-391.48 42.1l-5.21 9.12 -2.17 6.51 -1.73 4.77 -0.87 5.21 0 3.04 -0.44 3.47 0.44 0.87 0 0.44m14.32 -31.25l-4.77 8.68 -3.04 6.51 -2.17 4.77 -1.74 4.34 -0.87 3.04 -0.87 3.04 -0.44 0.43 0 0.44 -0.43 0m14.32 -31.25l7.38 -9.55 8.25 -7.81m-4.77 -2.17l0.43 0 0.87 0.43 0.43 0.44 0.44 0 0.87 0.43 0.44 0.44 0.43 0 0.87 0.43m-4.77 -2.17l-8.25 7.81 -6.95 9.55m50.78 -1.3l23.87 -23.87 18.66 -18.66m5.2 2.17l-0.87 -0.43 -0.44 0 -0.43 -0.43 -0.87 -0.44 -0.43 0 -0.87 -0.43 -0.44 0 -0.87 -0.44m285.58 1.3l0.43 -3.47 0.87 -1.3 0.87 -0.87 1.73 -0.43 1.3 0.43 1.74 1.3m-6.94 4.34l0 25.17m55.99 17.36l-24.31 -23.44 -19.1 -18.66m0 0l-1.73 -1.3 -0.87 -0.87m0 0l-3.04 -2.61m-287.54 5.21l1.3 -1.73 1.3 -0.87m-2.61 2.6l-23.87 23.44 -18.66 18.66m54.69 -16.49l0 -26.47m-6.95 -4.34l1.74 -0.87 1.73 -0.44 1.3 0 0.87 0.87 0.87 2.17 0.44 2.61m-6.95 -4.34l-2.6 2.6m265.18 10.85l19.53 25.17 15.19 19.53m-34.72 -44.7l-0.44 0 -0.87 0.44 -1.08 -0 -0.87 0.44 -0.44 0 -0.87 0.43 -0.87 0m87.67 314.23l0 -263.88m12.59 272.13l0 -240.01m-371.08 -38.63l19.1 -25.17 14.76 -19.97m5.21 1.74l-0.44 -0.44 -0.87 0 -0.44 -0.43 -0.87 0 -0.43 -0.44 -0.87 0 -0.87 -0.43 -0.43 0m507.8 105.9l1.3 6.94 2.17 16.49 0 16.93 -2.17 16.93 -4.34 16.49 -6.51 16.49 -8.68 16.06 -10.42 16.06 -12.59 15.19 -14.76 14.32 -16.49 13.89 -18.23 13.46 -19.97 12.15m104.17 -144.09l0 0 3.47 -0.43 1.73 0 0.44 -0.44 0.43 0 0.44 -0.43m-19.53 29.08l6.51 0.87 3.04 0 2.17 -0.43 0.87 0 0.44 -0.44m-31.25 26.48l11.72 2.17 6.08 0 0.43 -0.43m-19.09 -1.74l0.87 0m-0.87 28.65l0 0m-17.8 -3.04l11.28 3.04 2.61 0.43 3.47 0 0.44 -0.43m-25.17 -4.78l7.38 1.74m-7.38 28.65l0 -0.44m-17.36 -3.9l10.85 3.47 2.6 0.87 2.17 0.43 0.44 0 0.43 -0.43 0.87 0m-30.38 -9.55l13.02 5.21m-13.46 27.78l0 -0.44 0.44 0 0 -0.43m-16.49 -5.21l9.55 4.77 2.61 0.87 2.17 0.44 1.73 0m-35.59 -15.63l19.53 9.55m-19.53 26.48l0 0 0 -0.44m-14.76 -6.07l8.68 4.77 2.17 1.3 2.17 0.44 0.44 0.43 0.87 0 0.43 -0.43m-39.93 -23l25.17 16.49m-25.61 24.74l0.44 -0.44 0 -0.43m-13.02 -7.38l6.95 6.08 2.17 0.87 1.74 0.87 0.43 0.44 1.3 0m-42.97 -33.85l30.38 25.61m-418.39 8.25l0 0 0 0.43 0.44 0m12.58 -7.81l30.82 -26.91m-83.76 16.92l0.43 0.44 0.87 0 0.44 -0.44 2.6 -0.87 3.47 -1.74 6.51 -4.34m-14.75 6.51l0 0 0.43 0.44m14.32 -6.95l25.61 -16.93m-75.95 3.47l1.74 0 2.6 -0.43 3.91 -1.74 7.81 -3.47m-16.06 5.21l0 0 0 0.43m16.06 -5.64l19.53 -10.41m-66.4 -7.38l0.44 0.43 1.3 0 2.6 -0.43 3.91 -1.3 8.68 -3.04m-16.93 4.34l0 0m16.93 -4.34l13.89 -5.21m-56.42 -15.63l0.43 0 0.43 0.43 0.87 0 3.04 -0.43 3.91 -0.87 9.55 -2.17m-18.23 2.61l0 0.43m18.23 -3.04l7.37 -2.17m-45.14 -21.7l0.44 0 0 0.43 3.9 0 4.34 -0.43 9.98 -1.74m0 0l0.87 -0.43m-32.55 -26.04l0 0 0.43 0.44 0.87 0 3.04 0.43 4.34 -0.43 4.34 -0.44m-19.96 -29.08l0 0 0.43 0.44 0.43 0 0.44 0.43 2.6 0.44 3.04 -0m299.47 138.45l0 0.43m2.61 3.04l1.73 0.87m-314.66 -144.53l0.43 8.68 2.17 16.93 4.34 16.49 6.51 16.49 8.25 16.06 10.85 15.62 12.59 15.19 14.76 14.75 16.49 13.89 18.23 13.02 19.97 12.58m0 0l21.27 11.29 23 10.41 23.87 9.55 25.17 8.68 26.48 7.38 27.34 6.08 27.78 4.77 28.64 3.91 28.65 2.61 29.08 1.3 29.51 0 29.08 -1.3 28.65 -2.61 28.65 -3.9 27.78 -4.78 27.34 -6.08 26.04 -7.37 25.61 -8.68 23.87 -9.54 23 -10.42 21.27 -11.29m0 -15.19l0 15.19m0 -15.19l-21.27 11.72 -23 10.42 -23.87 9.55 -25.6 8.24 -26.04 7.38 -27.34 6.08 -27.78 5.21 -28.65 3.47 -28.65 2.6 -29.08 1.3 -29.51 0 -29.08 -1.3 -28.65 -2.6 -28.64 -3.47 -27.78 -5.21 -27.34 -6.08 -26.48 -7.38 -25.17 -8.24 -23.87 -9.55 -23 -10.42 -21.27 -11.72m0 0l-19.97 -12.15 -18.23 -13.46 -16.49 -13.89 -14.76 -14.32 -12.59 -15.19 -10.85 -16.06 -8.25 -16.06 -6.51 -16.49 -4.34 -16.49 -2.17 -16.92 0 -16.93 2.17 -16.49 1.3 -6.51m172.3 217.88l0 -239.58m0 239.58l1.73 0 2.17 -1.3 3.04 -1.74 5.64 -4.77m0 -263.88l0 263.88m405.37 -264.75l4.34 9.55 2.61 6.51 1.74 4.78 1.3 4.77 0.87 2.61 1.3 3.04 0 0.87 0.43 0m-7.81 -34.29l4.34 9.55 2.17 6.95 0.87 4.77 0.87 5.21 0 7.81 -0.43 0m-7.81 -34.29l-6.08 -9.98 -6.94 -8.25m-5.21 2.17l0.87 -0.43 0.43 0 0.87 -0.44 0.43 0 0.87 -0.43 0.44 0 0.43 -0.43 0.87 -0.44m-5.21 2.17l7.38 8.68 6.07 9.55m-410.14 -1.3l-4.34 9.55 -2.17 6.94 -0.87 4.78 -0.87 5.21 0 7.38 0.44 0 0 0.43m12.58 -32.12l-4.34 9.12 -2.6 6.51 -1.3 4.77 -1.74 4.78 -0.87 3.04 -0.87 3.04 -0.44 0.43 -0.43 0.43m12.58 -32.12l6.51 -10.42 6.51 -8.24m-5.21 -1.74l0.87 0 0.43 0.43 0.87 0 0.43 0.44 0.87 0.43 0.43 0 0.87 0.44 0.44 0m-5.21 -1.74l-6.95 8.68 -5.64 9.55m296 -42.53l14.32 26.48 11.29 20.83m-25.61 -47.31l-0.87 0 -0.44 0.44 -1.73 0 -0.44 0.43 -1.73 0 -0.87 0.44m-196.61 46.01l13.46 -26.48 10.85 -20.83m6.08 1.3l-0.87 0 -0.87 -0.44 -1.3 0 -0.87 -0.43 -1.3 0 -0.87 -0.44m194.87 -7.81l0.44 -3.47 0.87 -1.3 0.44 -0.44 1.3 -0.43 1.3 0.43 1.3 1.3m-5.64 3.91l0 39.06m20.83 250.43l34.72 39.93m-10.42 -282.98l-19.53 -25.17 -15.62 -19.97m0 0l-0.87 -1.3 -1.3 -1.3m-0 0l-2.17 -2.61m-227.42 5.64l1.3 -1.74 0.87 -1.3m-2.17 3.04l-18.66 25.17 -14.75 19.97m-10.42 282.98l35.16 -41.67m18.66 -246.95l0 -41.23m-5.64 -3.91l1.73 -1.3 0.87 -0.43 0.87 0 0.87 0.87 0.87 2.17 0.43 2.6m-5.64 -3.91l-2.17 2.61m286.02 339.4l0.44 0 0.43 -0.43 0 -0.44m-11.72 -7.81l0 -263.88m0 263.88l6.08 6.08 1.73 1.73 1.3 0.87 0.87 0 0.44 0.44 0.43 -0.44m0 0l0 -239.58m-343.31 239.58l0 0 0 0.44 0.44 0 0 0.43m0 0l0 -240.01m0 240.01l1.3 0 0.43 -0.43 2.17 -1.3 2.17 -2.17 4.78 -5.21m0 -263.88l0 263.88m215.27 -316.4l8.68 27.34 6.95 21.27m-15.63 -48.61l-3.04 0 -0.87 0.43 -2.17 0m-118.92 48.18l7.81 -27.34 6.51 -21.26m6.07 0.43l-3.04 0 -0.87 -0.43 -2.17 0m216.57 52.08l3.47 9.55 2.17 6.95 1.74 4.77 1.3 4.78 0.87 3.03 0.87 3.04 0 0.87 0.43 0m-5.21 -34.72l3.04 9.55 1.74 6.94 0.87 5.21 0.43 5.21 0 3.04 -0.43 3.47 0 1.3 -0.44 0m-5.21 -34.72l-5.21 -10.42 -5.64 -8.68m-5.21 1.73l0.44 -0.43 0.87 0 0.43 -0.43 0.87 0 0.87 -0.44 1.3 0 0.43 -0.43m-5.21 1.73l5.64 9.12 4.77 9.98m-326.38 -1.3l-3.47 9.98 -1.3 6.95 -0.87 5.21 -0.44 4.77 0 6.51 0.44 0.87 0 0.44m10.85 -32.99l-3.47 9.55 -2.17 6.94 -1.3 4.78 -1.3 4.77 -0.87 3.04 -0.87 3.04 -0.44 0.87 -0.43 0m10.85 -32.99l5.21 -10.42 5.21 -8.68m-5.64 -1.74l0.87 0.44 1.3 0 0.87 0.43 0.44 0 0.87 0.43 0.44 0 0.87 0.44m-5.64 -1.74l-5.64 9.12 -4.34 9.98m185.76 -48.18l3.03 27.78 2.61 21.7m-5.64 -49.48l-1.3 0 -0.87 0.43 -3.91 0m-39.5 49.48l2.6 -27.78 1.74 -22.14m6.08 0.43l-4.34 0 -0.87 -0.43 -0.87 0m96.79 -9.11l0 -3.47 0.43 -1.3 0.43 -0.43 1.3 -0.44 0.87 0.87 0.87 1.3m-3.9 3.47l0 76.82m1.73 192.27l38.63 64.23m-7.81 -284.28l-14.32 -26.47 -11.29 -20.4m0 0l-0.87 -1.74 -0.43 -1.3m0 0l-1.74 -2.61m-163.41 5.64l0.87 -1.74 0.44 -1.3m-1.3 3.04l-13.89 26.47 -10.41 20.83m26.04 225.25l0 0m-33.42 58.59l32.55 -56.86m6.08 -19.97l0 -256.5m-3.91 -3.47l0.87 -1.3 0.87 -0.87 0.87 0 0.43 0.87 0.44 2.17 0.43 2.61m-3.91 -3.47l-1.73 2.61m207.02 343.31l0.87 0 0 -0.44 0.43 -0.43 -0.43 -0.44m-9.55 -7.81l0 -264.32m0 264.32l4.34 6.51 1.74 1.3 1.3 0.87 0.43 0.44 0.87 0m0 0l0 -239.58m-249.99 238.71l0 0.43 0.44 0.44 0 0.43 0.43 0m0 0l0 -239.58m0 239.58l1.3 0 0.44 -0.43 1.74 -1.3 2.17 -2.17 3.47 -5.64m0 -263.88l0 263.88m143.23 -73.78l7.38 -0.87 9.11 -0.87m-58.16 2.17l4.34 0.43 21.7 -0.43m-58.16 -2.17l13.89 1.3 4.77 0.43m143.23 -190.53l2.61 9.98 1.73 6.95 1.3 4.77 0.87 5.21 0.87 3.04 0.87 3.04 0.43 0.43 0 0.44m-3.04 -35.16l2.61 9.98 0.87 6.95 0.43 5.21 0.43 5.2 -0.43 3.04 0 3.47 -0.43 0.87 0 0.44 -0.44 0m-3.04 -35.16l-3.47 -10.85 -3.91 -8.68m-6.07 0.87l1.3 0 0.87 -0.43 1.73 0 0.44 -0.43 1.73 0m-6.07 0.87l4.34 9.55 3.47 10.42m-71.4 -64.89l0 -3.03 0.44 -1.3 0 -0.87 0.87 0 0.43 0.87 0.87 1.3m-2.61 3.03l0 266.05m0 0l24.74 69.88m-4.77 -284.28l-8.68 -27.34 -6.95 -21.7m0 0l-0.43 -1.74 -0.43 -0.87m0 0l-0.87 -3.03m-168.4 66.84l-2.17 9.98 -0.87 7.38 -0.44 4.78 -0.43 5.21 0 3.03 0.43 3.47 0.44 0.87 0 0.44m9.11 -33.85l-2.6 9.55 -1.74 6.95 -1.3 5.2 -0.87 4.78 -0.87 3.04 -0.87 3.47 -0.43 0.43 0 0.44 -0.44 0m9.12 -33.85l3.47 -10.63 3.91 -9.11m-6.08 -1.3l0.87 0.43 1.3 0 0.87 0.43 1.3 0 0.87 0.44 0.87 0m-6.08 -1.3l-3.9 9.55 -3.47 10.41m71.61 -61.2l0.44 -1.3 0.43 -1.3m-0.87 2.6l-8.24 27.34 -6.51 21.7m-4.34 284.28l23 -69.44m0 0l0 -266.49m-0.44 -5.21l0 0.43 0.44 2.17 0 2.61m-2.17 -3.04l0.87 -1.3 0.43 -0.87m-1.3 2.17l-0.87 3.04m61.2 2.17l0 -4.34 0.44 -0.44 0 -0.43 0.43 0.87 0 1.3m-0.87 3.04l0 266.49m0 0l9.12 70.74m-1.74 -284.71l-3.04 -27.78 -2.6 -21.7m0 -0l-0.44 -1.73 0 -1.3m0 0l-0.43 -3.04m-28.21 6.07l0.43 -1.73 0 -1.3m-0.43 3.03l-2.61 27.78 -1.73 21.7m-1.3 284.71l6.95 -70.74m0 0l0 -266.49m0 -5.21l0 5.21m-0.43 -3.04l0 -2.17m0 2.17l-0.44 3.04m90.71 343.74l0 0 0.43 -0.43 0.44 0 0 -0.44 0.43 -1.73m-8.25 -7.38l0 -264.32m0 264.32l3.04 6.94 1.3 1.3 0.87 1.3 0.44 0 0.43 0.43 0.87 0m0 0l0 -239.58m-152.77 237.41l0 0.43 0.44 1.3 0.43 0.43 0.43 0.44m0 -0l0 -240.01m0 240.01l0.44 0 0.43 -0.43 0.44 0 0.43 -0.43 1.3 -1.3 1.3 -2.6 2.17 -5.64m0 -263.88l0 263.88m138.02 -264.32l1.74 10.41 1.3 6.95 0.87 4.77 0.87 5.21 0.43 3.04 0.87 3.04 0.44 0.87 0 0.43 0.43 0m-0.87 -35.16l1.3 9.98 0.87 6.95 0 9.98 -0.43 3.47 -0.44 3.47 -0.43 0.87 0 0.43m-0.87 -35.16l-2.17 -11.28 -2.6 -9.12m-6.08 0.87l0.87 -0.44 3.04 0 0.87 -0.44 1.3 0m-6.08 0.87l2.6 9.55 2.17 10.41m-144.09 -0.43l-0.87 10.42 -0.87 6.94 0 10.42 0.44 3.04 0.43 3.47 0 0.44 0.44 0.43m6.51 -34.29l-1.3 9.98 -1.3 6.95 -0.87 4.77 -0.87 5.21 -0.43 3.04 -0.87 3.47 -0.43 0.87 -0.44 0m6.51 -34.29l2.17 -11.29 2.17 -9.11m-5.64 -0.87l0.44 0.44 3.03 0 0.87 0.43 1.3 0m-5.64 -0.87l-2.6 9.98 -2.17 10.42m100.69 278.64l0.87 0 0 -0.44 0.43 -0.43 0.44 -1.3 0.43 -2.61 0 -0.43m-6.51 -5.21l1.3 6.94 0.87 1.74 0.87 1.3 0.43 0.44 0.87 0m0 -239.58l0 239.58m-4.34 -10.42l0 -264.32m-48.61 269.09l0 2.17 0.44 1.74 0.43 1.3 0.44 0 0.43 0.44 0.43 0m0 -239.58l0 239.58m0 0l0.87 0 0.44 -0.44 1.3 -1.73 0.87 -2.61 0.87 -5.64m0 -264.32l0 264.32m42.1 -264.32l0.87 10.41 0.43 6.95 0.43 5.21 0.87 5.21 0.44 3.04 0.43 3.03 0.44 0.87 0.43 0.44m1.73 -35.16l0.44 9.98 0 6.95 -0.44 5.2 0 5.21 -0.43 3.04 -0.87 3.47 0 0.87 -0.43 0 0 0.44m1.73 -35.16l-0.87 -11.29 -0.87 -9.55m-6.08 0.44l5.21 0 0.87 -0.44m-6.08 0.44l0.87 9.98 0.87 10.42m-48.18 0l-0.44 10.41 0 6.95 0.44 5.21 0.43 4.77 0 3.47 0.87 3.03 0 0.87 0.43 0.44m4.34 -35.16l-0.87 10.41 -0.44 6.95 -0.43 5.21 -0.87 4.77 -0.43 3.47 -0.44 3.03 -0.43 0.87 0 0.44 -0.44 0m4.34 -35.16l0.44 -10.85 0.87 -9.55m-6.08 0l6.08 0m-6.08 0l-0.87 9.55 -0.43 10.85m410.14 120.66l2.17 -5.64 4.34 -16.92 2.17 -16.93 0.44 -8.68m-3.47 -34.72l0.87 3.47 2.17 16.93 0 16.93 -2.17 16.93 -4.34 16.93 -6.51 16.49 -8.68 16.06 -10.85 16.06 -12.59 15.19 -14.76 14.76 -16.49 13.89 -18.66 13.02 -19.96 12.59m-670.99 -154.73l0.44 8.68 2.17 16.93 4.34 16.93 1.74 5.21m136.71 122.39l-8.68 -3.9 -21.27 -11.72 -20.4 -12.59 -18.23 -13.02 -16.49 -13.89 -14.76 -14.76 -12.59 -15.19 -10.85 -16.06 -8.68 -16.06 -6.51 -16.49 -4.34 -16.92 -2.17 -16.93 0 -16.93 2.17 -16.93 0.87 -3.47m667.52 189.23l-21.27 11.72 -10.85 4.77m-326.82 -37.76l0.44 2.17m-0.44 -4.78l0.44 2.17m-0.44 -4.34l0.44 1.74m-0.44 -4.34l0.44 1.74m-0.44 -4.34l0.44 2.17m0 9.98l1.73 1.74 2.17 1.3 0.87 0m-5.21 -17.8l0.44 2.17m-0.44 9.98l0.44 0m0 1.73l-0.44 -1.74m5.21 4.78l-0.87 0 -2.17 -1.3 -1.73 -1.74m4.34 1.74l-1.74 -0.44 -0.87 -0.87m-1.73 -2.17l1.73 1.73 2.17 1.3 0.87 0.44m-4.77 -4.34l0 0.87m-0.44 -14.32l0.44 1.74m-0.44 10.41l0.44 -0.43m0 1.74l-0.44 -1.3m5.21 4.34l-0.87 0 -2.17 -1.3 -1.73 -1.73m4.77 2.17l-2.17 -0.87 -0.87 -0.87m-1.73 -2.17l1.73 1.74 2.17 1.3 0.87 0.43m-4.77 -4.34l0 0.87m-0.44 -14.32l0.44 1.73m-0.44 -1.73l0 0m0 12.15l0.44 -0.43m0 1.73l-0.44 -1.3m5.21 4.78l-0.87 -0.44 -2.17 -1.3 -1.73 -1.74m4.77 2.17l-2.17 -0.87 -0.87 -0.87m-1.73 -2.17l1.73 2.17 2.17 1.3 0.87 0m-4.77 -3.91l0 0.44m-0.44 -2.17l0.44 0 0 -0.44m0 2.17l-0.44 -1.73m5.21 4.77l-0.87 -0.43 -2.17 -1.3 -1.73 -1.3m4.77 1.74l-2.17 -0.87 -0.87 -0.87m-1.3 -13.45l-0.43 0.87 0.43 1.3m-0.43 9.55l1.73 1.73 2.17 1.3 0.87 -0m-4.77 -3.9l0 0.87m-0.44 -2.61l0.44 0 0 -0.43m0 2.17l-0.44 -1.74m5.21 4.78l-0.87 -0.44 -2.17 -0.87 -1.73 -1.73m4.77 2.17l-2.17 -0.87 -0.87 -1.3m-1.73 -1.74l1.73 1.74 2.17 1.3 0.87 0m-4.77 -3.91l0 0.87m1.3 -6.07l2.17 1.3m-3.91 2.6l0.44 -0.43m0 1.73l-0.44 -1.3m5.21 4.34l-0.87 0 -2.17 -1.3 -1.73 -1.74m4.77 2.17l-2.17 -0.87 -0.87 -0.87m-1.73 -2.17l1.73 1.73 2.17 1.3 0.87 0.43m-4.77 -4.12l0 0.87m0.87 -8.68l0 0.43 0.44 1.74m-1.74 4.34l0.44 -0.44m0 1.74l-0.44 -1.3m5.21 4.34l-0.87 0 -2.17 -1.3 -1.73 -1.74m4.77 2.17l-2.17 -0.87 -0.87 -0.87m-1.73 -2.17l1.3 1.73 2.17 1.3 1.3 0.44m-4.77 -3.91l0 0.44m4.77 1.3l-2.17 -0.87 -0.87 -0.87m-2.17 -1.3l0.87 -1.3m-0.43 2.6l-0.44 -1.3m0.44 1.3l1.3 1.3 1.74 0.87 1.73 0.87m-4.34 -4.34l0.44 -1.3m-0.44 1.3l0.44 0.43 0.43 0.44m2.17 1.3l-0.87 -0.44 -1.3 -0.87m2.17 1.3l1.3 0.43m-3.91 -3.9l-0.43 -1.74 0.43 0m3.91 4.34l0 0 -2.6 -1.3 -0.44 -0.44 -0.87 -0.87m3.91 2.17l-2.17 -1.3 -1.3 -1.3 0 -0.87m1.3 -4.78l-0.43 -1.3 0.87 -1.74 1.74 -0.87m-3.47 9.12l1.3 -5.21m-1.3 5.21l1.3 1.3 1.74 0.87 0.43 0m0 -5.64l-1.3 -0.44 -0.87 -1.3m468.3 -76.39l1.74 -8.68 2.6 -16.92 0 -16.93 -2.6 -16.93 -2.61 -11.29m-103.73 233.5l20.4 -12.59 18.66 -13.46 17.36 -14.32 14.76 -15.19 13.02 -15.63 11.28 -16.06 8.68 -16.93 6.94 -16.92 3.04 -10.42m-106.34 105.03l20.4 -12.59 19.09 -13.89 17.36 -14.32 15.19 -15.19 13.45 -15.63 11.29 -16.06 9.12 -16.93 7.37 -16.93 4.78 -17.36 2.17 -11.29m-37.76 61.63l2.6 -4.34 8.68 -16.49 6.51 -16.93 4.78 -16.93 2.17 -17.36 0 -8.68m9.11 32.99l-1.73 5.64 -7.38 16.93 -9.12 16.49 -11.28 16.49 -13.46 15.62 -15.63 15.19 -16.92 14.32 -19.1 13.89 -20.83 13.02m-3.9 -7.81l20.4 -12.59 18.66 -13.46 16.93 -14.32 14.76 -14.76 13.45 -15.63 11.29 -16.06 9.11 -16.06 6.95 -16.92 5.21 -16.93 2.6 -17.36 0.44 -7.81m-115.02 166.23l20.83 -13.02 19.09 -13.45 17.36 -14.76 15.19 -15.19 13.45 -15.63 11.29 -16.49 9.55 -16.49 6.94 -17.36 5.21 -17.36 2.61 -17.36 0.87 -13.02m-620.21 245.65l12.15 3.91 26.91 7.81 27.78 6.51 28.65 5.21 29.08 3.91 29.51 2.6 29.95 1.3 29.95 0.43 29.95 -1.3 29.51 -2.17 29.51 -3.91 28.65 -4.77 27.78 -6.08 27.34 -7.38 18.66 -6.08m188.36 -259.54l0.87 4.34 2.6 16.92 0 6.51m-789.04 0l0 -6.51 2.17 -16.92 0.87 -3.91m2.17 -11.29l-3.04 11.29 -2.17 16.93 0 16.93 2.17 16.92 2.17 8.68m776.89 -101.56l0.43 1.3 6.51 16.93 4.78 16.93 2.17 17.36 0 17.36 -2.17 16.93 -4.78 17.36 -6.51 16.93 -8.68 16.49 -11.29 16.06 -13.02 15.63 -14.76 14.76 -16.92 14.32 -18.66 13.46 -20.4 13.02m-563.79 -1.95l21.7 11.29 23.44 10.85 24.31 9.55 25.61 8.68 26.91 7.38 27.34 6.07 28.64 5.21 28.65 3.91 29.51 2.6 29.51 1.3 29.51 -0 29.51 -1.3 29.51 -2.6 28.65 -3.91 28.65 -5.21 27.34 -6.07 26.91 -7.38 25.6 -8.68 24.31 -9.55 23.44 -10.85 21.7 -11.29m-667.3 -212.02l-3.04 7.81 -4.34 16.93 -2.17 16.93 0 16.93 2.17 17.36 4.34 16.93 6.95 16.49 8.68 16.49 10.85 16.06 12.59 15.19 14.76 14.76 16.93 14.32 18.66 13.46 19.97 12.58m560.75 0l19.97 -12.59 18.66 -13.45 16.49 -14.32 15.19 -14.75 12.59 -15.19 10.85 -16.06 8.68 -16.49 6.51 -16.49 4.78 -16.92 2.17 -17.36 0 -16.92 -2.17 -16.93 -4.78 -16.93 -2.6 -8.25m-647.99 226.12l0 0 -22.14 -11.72 -20.4 -13.02 -18.66 -13.46 -16.92 -14.32 -14.76 -14.76 -13.02 -15.63 -11.29 -16.06 -8.68 -16.49 -6.51 -16.93 -4.78 -17.36 -2.17 -16.93 0 -17.36 2.17 -17.36 4.78 -16.93 6.51 -16.93 0.43 -0.87m670.12 224.39l-22.14 11.72m-661.01 -103.95l2.61 9.11 6.51 16.93 8.68 16.93 10.85 16.06 13.02 15.62 14.76 15.19 16.93 14.32 18.66 13.46 20.4 13.02 21.7 11.72 23.43 10.85 24.74 9.98 26.04 8.68 26.91 7.81 28.21 6.51 28.64 5.21 29.08 3.9 29.95 3.04 29.95 1.3 29.94 0 29.95 -0.87 29.95 -2.6 29.51 -3.47 28.65 -5.21 28.21 -6.08 27.34 -7.38 26.04 -8.68 25.39 -9.33 23.44 -10.41 22.57 -11.72m0 0l0.43 -0.44 0.44 0 0.43 -0.43 0.43 0 0.44 -0.43 0.43 -0.44 0.44 0 0.43 -0.43m-686.4 -195.96l0 8.68 2.17 17.36 4.78 16.93 6.51 16.93 8.68 16.49 2.61 4.34m-37.76 -61.63l0.44 2.61 3.9 17.36 6.08 17.36 8.25 16.93 9.98 16.49 12.59 15.62 14.32 15.63 16.06 14.76 18.23 13.89 19.97 13.45 21.27 12.15 23 11.71 24.31 10.42 25.61 9.12 26.48 8.24 27.78 7.38 28.64 6.08 29.08 4.34 29.51 3.47 30.38 2.61 29.95 0.87 30.38 -0.43 30.38 -1.74 29.95 -2.6 29.51 -4.34 28.65 -5.21 28.21 -6.51 27.34 -7.81 26.04 -8.68 24.74 -9.98 23.87 -10.85 22.13 -12.15m0 -16.93l-0.43 0 -0.44 -0.44 -1.3 0 -0.43 0.43 -0.44 0 0 0.43m-3.47 1.74l0.44 0 0.43 -0.43 0.43 0 0.44 -0.44 0.43 0 0.44 -0.43 0.43 -0.44 0.43 0m-700.5 -161.89l1.3 15.19 3.47 16.93 6.08 16.93 7.81 16.93 9.98 16.06 12.15 15.62 14.32 15.19 15.63 14.75 17.79 13.89 19.53 13.02 20.83 12.59 22.57 11.29 23.87 10.42 25.17 9.11 26.04 8.25 27.34 7.38 27.78 5.64 28.65 4.77 29.51 3.91 29.51 2.17 29.95 1.3 29.95 -0.43 29.51 -1.3 29.51 -2.61 29.08 -3.91 28.65 -5.2 27.78 -6.08 26.91 -7.81 26.04 -8.25 24.74 -9.98 23.44 -10.42 22.13 -11.72m-696.6 -121.53l5.21 13.89 8.24 16.93 10.42 16.49 12.15 16.06 14.32 15.62 16.49 14.76 18.23 13.89 19.53 13.46 21.7 12.58 23 11.29 24.31 10.42 25.61 9.55 26.91 8.24 27.78 6.95 28.65 6.07 29.08 4.78 29.95 3.47 29.95 2.17 30.38 1.3 30.38 -0.43 30.38 -1.74 29.95 -2.6 29.51 -4.34 29.08 -5.21 28.21 -6.51 27.34 -7.81 26.04 -9.11 25.17 -9.98 23.87 -10.85 22.14 -11.71m0.87 -3.47l-0.87 3.47m-711.79 -173.61l0 4.34 1.73 17.36 3.91 17.36 6.08 17.36 8.24 16.93 10.42 16.49 12.59 16.06 14.32 15.63 16.49 14.76 18.23 14.32 19.96 13.46 21.27 12.15 23 11.72 24.74 10.42 25.61 9.55 26.91 8.24 27.78 6.95 28.65 6.07 29.51 4.78 29.95 3.47 29.95 2.17 30.38 1.3 30.82 -0.43 30.38 -1.74 29.95 -2.6 29.51 -4.34 29.08 -5.21 28.21 -6.95 27.34 -7.38 26.47 -9.11 25.17 -9.98 23.44 -10.85 22.57 -12.15m0 -3.9l0 3.9m0 -3.9l-22.57 12.15 -23.44 10.85 -25.17 9.98 -26.47 9.11 -27.34 7.81 -28.21 6.51 -29.08 5.21 -29.51 4.34 -29.95 3.03 -30.38 1.3 -30.81 0.43 -30.38 -0.87 -29.95 -2.17 -29.95 -3.9 -29.51 -4.34 -28.64 -6.08 -27.78 -7.38 -26.91 -8.25 -25.61 -9.55 -24.74 -10.41 -23 -11.29 -21.27 -12.59 -19.97 -13.45 -18.23 -13.89 -16.49 -15.19 -14.32 -15.19 -12.59 -16.06 -10.2 -16.49 -8.24 -16.93 -6.08 -17.36 -3.91 -17.36 -1.73 -17.79 0.87 -17.36 2.6 -17.8 5.21 -17.36 6.94 -16.93 9.55 -16.93 5.64 -8.68m773.42 0l0.43 0.43 10.42 16.49 8.24 16.93 6.08 17.36 3.91 17.36 1.3 17.8 -0.43 17.36 -2.61 17.8 -5.21 17.36 -6.94 16.93 -9.55 16.92 -11.29 16.06 -13.45 16.06 -15.19 15.19 -17.36 14.32 -19.1 13.89 -20.83 12.59m-1.74 -0.87l-0.43 0.43 -0.43 0 -0.44 0.44 -0.43 0 -0.44 0.43 -0.43 0 -0.43 0.44 -0.44 0m-404.94 59.03l14.32 2.17 29.51 3.47 29.95 2.6 29.95 0.87 15.62 0.44m216.58 -626.72l-0.44 0m0 0l-0.43 0.43m0 0l0.43 0m-0.43 0l-2.17 0 -1.3 -0.43 -0.87 -0.44 -0.44 -0.43m0 2.6l0.44 -0.43 0 -1.3 -0.44 -0.87m0 0l-0.43 -0.87 0 -0.87m-91.14 -137.15l8.24 3.91 10.42 5.64m78.56 130.21l0 0m-0.44 0.43l0.44 -0.43m-5.64 1.73l2.17 -0.43 3.04 -0.87m-5.64 -3.04l-2.17 -62.06m2.17 62.06l0 1.3 -0.43 0m-1.74 -63.37l-0.44 -1.73 -0.43 -1.74m0.87 3.47l0 1.3 -0.43 -0m-2.61 -6.51l0.44 0.44 0.43 0.87 0 0.87 -0.43 0.87m-0.44 -3.04l-13.02 -3.9m13.02 3.9l-4.34 -7.37 -4.77 -7.38 -6.08 -6.95 -6.51 -6.94 -7.38 -6.51 -7.81 -6.51 -8.68 -6.08 -9.11 -5.64m41.67 49.48l0.43 0.87 0 2.17m-0.43 -3.04l-3.47 0 -3.91 1.73m-46.87 -58.16l9.55 6.08 9.12 6.07 8.24 6.95 6.95 6.94 6.51 7.38 5.64 7.38 4.34 7.81 3.91 7.81m-54.25 -56.42l-0.43 -0.43 -3.91 0 -0.87 0.43 -0.87 0.43m78.12 128.47l0.43 1.73 0.43 1.3m-3.03 -65.1l2.17 62.06m-4.34 -65.54l1.73 1.3 0.44 0.87 0 1.3m-15.19 -7.37l7.38 2.17 5.64 1.73m-18.23 -1.73l3.04 -1.74 2.17 -0.43m-5.21 2.17l-13.89 11.28m13.89 -11.28l-0.43 -1.3 -0.43 -0.87 -0.87 -0.87 -0.87 -0.44m31.68 72.05l4.34 9.98 3.47 9.98 1.74 9.98 0.87 9.98 -0.87 9.98 -1.74 9.98 -3.47 9.98 -4.34 9.98m0 -0l0 0m0 -79.86l0 0m-0.44 79.86l0.44 0m0 0l-0.44 -0.43m0.44 0.43l-5.21 -4.34m4.77 3.91l-0.43 0m-42.32 -136.5l-0.87 0.87 -1.3 0.87 -0.43 1.3 -0.87 0.87 -0.43 1.3 -0.44 1.3 -0.43 0.87 0 1.3m2.17 -12.15l0.87 0 0.43 0.44 0.44 0.43 0 0.43 0.43 0.44 0.43 0.43 0 1.3m-382.37 159.28l-0.44 0m0 0l0 0m0.44 0l0 0m6.94 -1.3l-0.43 -0.43 -0.44 -0.87 -0.43 -0.44 -0.43 -0.43m-3.47 2.61l-0.43 0.43 -0.43 0 -0.44 0.43 -0.43 0m5.21 -3.47l-0.87 0.44 -0.87 0.87 -0.43 0.44 -1.3 0.87m4.78 -5.21l-0.44 1.3 -0.87 1.3m376.73 -139.32l0 0m19.1 18.23l0.43 0 0 0.43m-401.46 124.13l3.9 -0.43 3.04 -0.87m-7.38 1.3l0.44 0m-19.97 -69.44l0 2.61 0.87 12.59 3.47 12.58 0.44 1.3m-18.66 15.62l0 5.64 1.74 13.02 3.47 13.02 6.08 12.58 7.81 12.15 9.98 11.72 11.72 11.28 13.46 10.42 15.63 9.98m-28.21 -144.09l-1.3 62.93m2.17 1.3l-0.87 -0.44 -0.43 0 -0.44 -0.44 -0.43 -0.43m-6.95 6.07l-0.43 0m-25.17 -24.3l-2.17 -6.08 -3.47 -13.46 -1.3 -13.45 1.3 -13.46 3.47 -13.02 4.78 -11.72m5.21 -32.55l0 -3.04m29.95 55.55l-1.74 1.3 -1.3 1.74 -0.87 1.73 0 1.74m2.17 1.3l-0.87 -0.43 -0.43 0 -0.44 -0.44 -0.43 -0.43m36.89 -21.7l-5.64 0.44 -4.77 2.17m-22.57 12.59l0 0.43 0.43 0.87 0.44 0.87 0.43 0.43m21.27 -15.19l0 0.87 0.43 0.87 0.44 0.44 0.43 0.87m13.89 -140.19l-3.91 2.6 -15.19 9.98 -7.81 6.51m11.72 118.05l-22.57 12.59m24.74 -138.89l2.17 -1.74 13.02 -9.98 15.19 -8.68 13.89 -6.95m-36.02 151.04l0 0.87 -0.44 1.3 0 2.17m23.44 2.17l0 -2.61 0.44 -0.43 0 -0.87m29.08 144.09l0 0m-10.85 -39.93l0 0 0 0.44 -0.44 0.43 -0.43 0.44 -0.44 0m12.15 38.63l0 0.43 -0.44 0m0 -0.43l0.44 0m0 -5.21l0.65 0 0.87 -0.44 0.43 0m-1.73 0.44l0 2.6 -0.44 2.61m0.44 0l-0.44 0m-97.22 -55.99l44.27 4.34m41.23 13.02l11.71 39.06m0 0l-7.37 -2.6 -7.81 -2.61 -7.38 -2.6 -6.94 -3.04 -6.95 -3.04 -6.51 -3.47 -6.51 -3.04 -6.51 -3.47m0 0l-6.08 -3.91 -5.64 -3.47 -5.64 -3.91 -5.21 -4.34 -5.21 -3.9 -4.77 -4.34 -4.34 -4.34 -4.34 -4.34m0 0l-0.44 0m0 0l4.34 4.34 4.34 4.34 4.78 4.34 5.21 4.34 5.2 3.91 5.64 3.91 6.07 3.47 6.08 3.91m55.99 23.87l0 0m-14.75 -136.28l-1.74 -0.87 -1.3 -0.44 -1.74 -0.87 -1.74 -0.44 -2.17 -0.43 -1.73 -0.44 -2.17 -0.43 -1.74 -0.44m16.06 95.92l0.44 0.44 0.87 0.87 0.43 0.87 0.87 0.87 0 1.3m3.04 -87.67l-0.44 -1.3 -0.87 -0.87 -0.43 -1.3 -0.87 -0.87 -1.3 -1.3 -0.87 -0.87 -1.3 -0.87 -1.3 -0.87m2.17 -3.47l-0.44 0 -0.43 0.44 -0.44 0.43 -0.43 0.44 0 0.43 -0.43 0.87 0 0.87m-14.32 -4.34l-23.44 -2.17m-8.68 1.3l4.34 -1.3 4.34 0m-31.25 13.45l12.59 -6.94 9.98 -5.21m-25.61 17.36l0 -1.3 0.44 -1.3 1.3 -1.3 1.3 -1.3m-4.34 68.14l1.3 -62.93m-3.04 66.4l1.3 -1.74 0.43 -1.73m83.76 -69.44l-1.3 0 -0.43 0.43 -0.44 0.44 -0.43 0.43 -0.44 0.44 0 0.87m3.91 13.46l0.44 -0.87 0.43 -0.87 1.3 -0.43 0.87 -0.43m2.17 108.07l-0.43 0 -0.44 -0.44 -0.43 -0.43 -0.44 -0.44m3.47 -61.2l-0.44 -0.43 -0.43 0 -0.44 -0.44 0 -0.43m-2.17 -35.16l-0.87 0 -0.44 0.43 -0.43 0 0 0.44m5.21 26.48l-0.44 0 -0.87 0.43 -0.44 0 0 0.43m-5.21 -34.72l-3.9 -13.46m0 0l-3.04 87.67m0 0l10.85 34.72m0 -4.78l0 4.78m1.73 -67.27l-2.17 62.5m1.74 -69.44l0 3.47 0.44 1.73 0 1.74m-3.91 -34.29l1.73 15.19 1.74 12.15m-5.21 -34.72l0.87 3.91 0.87 3.47m229.16 -243.05l1.74 4.34 1.73 9.55 -0.87 9.98 -2.61 9.55 -5.21 9.11 -7.38 8.68 -9.11 8.25 -10.85 6.95m132.81 204.85l0.43 0.44m-327.68 78.12l0 0m1.73 -5.64l-0.43 -1.73 0 -1.3m-1.3 8.68l0 -0.44 0.43 -0.43 0.44 -0.87 0.87 -1.3 0 -2.61m-1.74 5.64l20.4 5.21 21.27 4.34 21.7 3.04 22.14 1.73 22.57 0.87 22.14 -0.87 22.13 -1.73 22.14 -3.04 20.83 -4.78 20.4 -5.21 19.53 -6.94 17.79 -7.38 16.93 -8.68 14.76 -9.55 13.46 -10.42 11.72 -11.28 9.98 -11.72 7.38 -12.15m-1.74 -0.43l1.3 0 0.44 0.43m-4.78 -3.47l0.44 0.87 0.87 0.87 0.87 0.43 0.87 0.87m-3.47 -6.51l0 1.73 0.43 1.74m-383.88 101.13l0.43 -35.59m-0.43 35.59l16.49 8.68 18.23 7.81 19.53 6.94 20.4 5.64 21.27 4.34 21.7 3.47 22.57 2.17 22.57 0.87 22.57 0 22.57 -1.74 22.14 -2.6 21.7 -4.34 20.83 -4.78 19.97 -6.51 18.66 -7.38 17.36 -8.24 16.06 -9.12 14.76 -10.42 12.58 -10.85 10.85 -11.28 9.12 -12.15 6.51 -12.59 5.21 -12.58 2.6 -13.02 0.44 -12.15m-406.24 64.23l0.43 -0.87 0 -0.87 0.44 -1.3 0.43 -0.87 0.87 -0.87 0.43 -0.87 0.87 -0.87 0.87 -0.43m391.27 -129.12l5.21 12.59 3.47 13.02 1.3 13.46 -1.3 13.45 -3.47 13.46 -2.17 5.64m-9.55 -77.25l-0.44 0m0.44 79.86l4.77 -9.98 3.47 -9.98 1.74 -9.98 0.87 -9.98 -0.87 -9.98 -1.74 -9.98 -3.47 -9.98 -4.77 -9.98m-0.44 79.86l0.44 0m-0.44 0l-7.81 12.15 -9.55 11.72 -11.72 10.85 -13.45 10.41 -15.19 9.55 -16.49 8.68 -18.23 7.81 -19.53 6.51 -19.97 5.64 -21.27 4.34 -21.7 3.04 -22.14 2.17 -22.57 0.44 -22.57 -0.44 -22.14 -1.74 -21.7 -3.03 -21.27 -4.34 -20.4 -5.64m-0.44 0.44l0.44 0 0 -0.44m-56.42 -23.43l6.08 3.47 6.51 3.47 6.94 3.04 6.95 3.04 6.94 3.04 0.87 0.43m304.68 -192.27l13.89 11.29m-13.89 -30.82l-2.17 2.17 -1.74 2.6 -0.87 2.61 -0.44 2.6 0.44 2.61 0.87 2.17 1.74 2.6 2.17 2.17m13.89 -30.82l-13.89 11.29m-39.06 -69.01l9.54 6.08 9.12 6.51 8.25 6.95 6.94 6.94 6.08 7.38 5.64 7.81 3.91 7.81 3.47 8.24m-325.51 85.94l-23.44 -2.61m39.5 7.38l-1.74 -0.87 -1.74 -0.87 -2.17 -0.87 -1.73 -0.87 -2.17 -0.43 -2.17 -0.44 -2.17 -0.43 -2.17 0m24.3 13.89l-0.43 -1.3 -0.87 -1.3 -0.87 -1.3 -0.87 -1.3 -1.3 -0.87 -0.87 -1.3 -1.74 -0.87 -1.3 -0.87m12.15 22.57l-3.91 -13.45m213.1 -20.4l-0.44 0 0 0.65 -0.87 0m19.97 -197.04l0.44 0.87 1.73 9.55 -0.43 9.55 -3.04 9.55 -5.21 9.11 -6.94 8.68 -9.12 7.81 -10.85 7.37m-194.01 177.08l0 -5.21 -0.43 -3.91m297.3 -71.18l3.91 3.04 3.47 4.34m-7.38 -7.38l-5.21 11.72 -7.38 11.72 -9.55 10.85 -11.28 9.98 -13.46 9.55 -15.19 8.68 -16.49 7.38 -17.8 6.51 -19.1 5.21 -19.97 4.34 -20.4 2.61 -21.27 1.3 -20.83 0.43 -21.27 -1.3 -20.83 -2.6 -19.97 -3.91 -19.1 -5.21 -18.23 -6.08m195.31 -166.66l0 0 0 -0.44 -0.44 0 0 -0.43 -0.43 0 0 -0.44m-0.87 0.44l0.43 0 0 -0.44 0.44 0m-0.87 0.44l-12.59 6.08 -13.89 5.2 -15.19 4.34 -16.06 2.6 -16.06 1.74 -16.93 0 -16.49 -0.87 -16.06 -2.17 -15.19 -3.91 -14.75 -4.77 -13.02 -5.64 -11.72 -6.94 -9.98 -7.59 -7.81 -8.68 -6.08 -8.68 -3.9 -9.54 -1.74 -9.55 0.43 -9.55 1.74 -5.21m207.03 174.47l0.43 0 0 -0.43 0.43 0m-0.87 -110.24l-0.44 0.44 -0.43 0 0 0.43m0 0l-13.02 6.08 -13.89 5.21 -15.19 3.91 -16.06 3.03 -16.49 1.74 -16.93 0 -16.49 -0.87 -16.49 -2.6 -15.62 -3.47 -14.32 -4.78 -13.67 -5.86 -11.72 -6.51 -9.98 -7.81 -8.24 -8.68 -6.08 -8.68 -3.91 -9.55 -1.73 -9.55 0.87 -9.98 2.61 -8.68m332.46 202.68l2.17 61.63m-320.74 76.82l1.74 -62.5m-1.74 62.5l19.97 5.64 20.83 4.34 21.27 3.04 21.7 1.73 22.14 0.44 22.14 -0.44 21.7 -1.73 21.27 -3.47 20.83 -3.9 19.97 -5.64 18.66 -6.51 17.79 -7.37 16.49 -8.68 14.75 -9.54 13.02 -9.98 11.28 -10.85 9.55 -11.72 7.38 -12.15m-5.21 -69.88l1.3 2.17 0.87 2.17 0.43 2.17 0.44 1.74m-316.83 75.95l0 -9.11m316.83 -66.84l-7.81 12.59 -10.41 11.72 -12.15 11.28 -13.89 10.85 -16.06 9.54 -17.36 8.25 -19.1 7.81 -20.4 6.08 -21.27 5.21 -21.7 3.91 -22.57 2.17 -23 1.3 -23 -0.43 -23 -1.74 -22.57 -2.61 -21.7 -4.34 -20.83 -5.64m300.77 -109.37l13.02 25.17m-13.02 -25.17l-6.08 12.15 -7.81 11.29 -9.98 10.85 -12.15 10.42 -13.46 9.55 -15.62 8.24 -16.93 7.81 -18.23 6.51 -19.1 5.21 -20.4 3.9 -20.83 3.04 -21.27 1.3 -21.27 0.44 -21.27 -0.87 -21.27 -2.6 -20.4 -3.47 -19.53 -4.77 -18.66 -6.08m3.47 27.34l-3.47 -27.34m3.47 27.34l20.83 5.64 21.7 4.34 22.14 3.04 22.57 1.73 23.22 0 22.57 -0.87 22.57 -2.61 21.7 -3.47 21.27 -5.21 19.97 -6.08 19.1 -7.81 17.36 -8.25 15.63 -9.55 13.89 -10.41 12.15 -11.29 9.98 -12.15 7.38 -12.15m-288.41 -302.94l-0.87 1.74m133.68 66.4l2.17 -0.44 10.41 -3.03 3.91 0 0.44 0.43m-164.06 -71.18l1.3 -1.74m145.83 76.39l8.68 -2.6 3.9 -0.87 2.17 -0.43 1.74 0 0.44 0.43m-152.77 62.93l-0.87 0 -1.3 -1.3 -0.87 -1.74 0 -2.17m-35.16 0.87l0.43 7.38 2.61 9.11 5.21 9.12 6.94 8.25 9.12 8.24 10.85 6.95m0 -49.91l-2.17 -0.87m0 29.08l2.17 1.3m-2.17 -30.38l0.87 2.61 1.3 1.73 1.73 1.3 0.87 0.43m-4.77 23l-1.3 -1.73 -1.08 -1.74 -1.3 -2.17 -0.87 -2.6 -1.3 -5.21 0 -10.42 0.87 -3.04 1.3 -1.3 1.3 -0.87 1.3 -0.43 1.3 0.43m0 29.08l0.87 -2.17 1.3 -2.17 1.74 -2.17 1.73 -2.17m-0.43 -63.8l-1.3 2.17 -1.3 2.6 -0.43 3.04 0 2.17m0 84.2l0 -20.4m0 20.4l12.15 6.07 13.46 5.21 15.19 4.34 15.63 2.61 16.06 1.73 16.06 0.44 16.49 -1.3 16.06 -2.17 15.19 -3.47 14.32 -4.34 13.02 -6.07 11.29 -6.51 9.98 -7.38 8.25 -8.25 5.64 -9.12 3.91 -9.11 1.73 -9.12 0 -2.6m-204.42 28.65l0 -2.61 0.43 -0.43 0.44 -1.74 1.74 -3.91 0.87 -0.87 0 -0.44m31.9 -220.48l0 3.04 2.6 6.51 4.34 5.64 6.95 4.78m0 0l0 0 0.43 0.43m0 -3.47l-6.73 -4.99 -4.77 -5.64 -2.61 -6.08 0 -3.47m168.83 142.79l-2.17 14.75 -6.94 13.89 -10.85 13.02 -15.19 11.28 -18.23 9.55 -20.4 7.38 -22.57 5.21 -23.44 2.17 -23.44 -0.44 -22.57 -2.6 -21.05 -5.42 -17.79 -7.38m0 0l0 -2.17m3.04 -10.42l-1.3 2.61 -1.3 2.6 -0.43 2.61 0 2.6m-12.59 -170.13l-0.43 -1.74 0.87 -8.68 2.61 -8.25 5.21 -7.81 6.94 -7.38 3.47 -3.04m9.55 73.35l0 -0.43 -0.87 0 0 -0.44m20.83 -69.01l-1.3 4.34 0.87 6.07 2.6 6.08 4.77 5.21 4.78 3.47m2.6 0l0 0 0 0.44 -0.43 0 0 0.43 -0.43 0.44m69.44 -45.14l0 -0.43 -0.44 0m-78.12 30.38l-0.43 -1.3 -2.61 -6.08 0 -6.29 2.17 -6.07 4.78 -5.64 6.51 -4.77 8.25 -3.91 9.54 -2.6 10.42 -1.74 10.85 0 10.42 1.3 9.98 2.6 8.25 3.91m-68.14 44.27l0 -3.47m0 3.47l8.68 3.91 9.55 2.6 10.85 1.3 10.85 0 10.85 -1.3 9.98 -2.6 8.68 -3.91 6.95 -5.21 4.77 -5.64 2.61 -6.08 0 -3.25m-10.85 -20.83l2.17 2.17 4.77 5.21 2.61 6.07 0 6.51 -2.61 5.64 -4.34 5.64 -6.51 5.21 -8.25 3.47 -9.98 3.04 -10.42 1.3 -10.42 0 -10.41 -1.3 -9.98 -2.61 -8.24 -3.9m-0.44 0l0.44 0m-0.44 0l-0.43 0 0 0.43 -0.44 0 0 0.87m0.44 0.43l-0.44 0 0 -0.43m83.77 -19.97l0 3.04 -2.61 6.08 -4.77 5.64 -6.51 5.21 -8.68 3.91 -9.98 3.04 -10.41 1.3 -10.85 0 -10.85 -1.3 -9.98 -2.6 -8.68 -3.91m69.01 -40.36l1.3 0.43m-120.66 191.4l0 -2.17m204.42 -58.59l-2.17 14.32 -6.95 13.89 -10.85 13.02 -15.19 11.72 -18.23 9.54 -20.4 7.38 -22.57 4.78 -23.44 2.6 -23.44 -0.43 -22.57 -3.04 -20.83 -5.21 -17.79 -7.81m0 -2.17l13.45 6.08 15.19 4.77m-25.61 -20.83l13.02 5.64 14.76 4.34m118.05 9.11l-19.97 6.95 -21.27 4.77 -22.57 2.61 -22.13 -0.44 -21.7 -2.6 -19.75 -5.42m127.6 25.61l-19.96 7.38 -21.27 4.77 -22.57 2.17 -22.13 0 -21.7 -3.04 -19.97 -4.77m-15.63 -6.51l0.44 0.43 0.87 1.74 0 4.34 -0.87 2.17 -0.87 2.17 -1.74 2.17m54.69 -113.28l-3.03 6.08 -0.87 2.6 -0.87 2.61m-22.57 48.18l-0.87 2.82 -0.87 3.04 -0.43 3.04 0 2.17m175.34 -71.61l0 -1.3m-200.95 -11.72l-1.3 2.17 -1.3 2.6 -0.43 3.04 0 2.17m54.69 4.34l-0.43 3.04 -0.44 2.61 -0.43 3.04 0 2.6m0.43 -25.17l0 0 0 -3.9 0.44 -0.44m3.9 18.23l-1.73 0.44 -1.74 -0.44m-0.87 -13.89l1.3 0 0.87 0.44m0 0l0 0 -0.43 -0.44 0 -1.3 0.43 -0.87 0 -0.87 0.44 -0.44 0.43 -0.43m-0.87 4.34l1.74 1.3m1.3 -4.34l-0.43 0.43 -0.44 0.44 -0.43 0.43 -0.44 0.87 0 1.3 0.44 0.44 0 0.43m0 0l0 0m-9.98 -2.6l0 0 0 -3.91 0.43 -0.44m12.59 9.55l0.43 0.44 0.44 1.3 0 0.43m0 16.49l-1.3 -2.17 -0.87 -2.17 -0.87 -2.61 -0.44 -2.17m7.81 -10.85l-4.34 0 -3.91 -1.3m-26.91 57.72l-1.3 -0.43 -0.87 -0.87 -0.44 -1.74 -0.43 -2.17m19.97 -55.12l-9.55 -1.74 -11.72 -3.04 -8.25 -2.6 -9.11 -3.47 -8.68 -4.34 -7.37 -4.77 -7.81 -5.64 -7.38 -7.59 -9.55 -14.32 -3.47 -15.62m35.16 107.63l0 -2.17m27.78 12.59l-14.76 -4.78 -13.02 -5.64m3.04 -12.59l-1.3 2.61 -1.3 2.6 -0.43 2.61 0 2.6m15.41 -69.66l0 0 -0.43 0.43 0 0.44 -0.43 0 0 0.43 -0.44 0 0 0.44 -0.43 0m52.52 26.47l0 0 0 1.74 -0.44 0.43 0 0.87m-100.91 -67.05l0 -0.87 0.44 0 0 -0.44 0.43 -0.43 0.87 0 0.43 -0.44m198.35 -33.85l6.07 6.08 0.44 0.43m-122.83 21.7l8.25 3.91 9.11 2.6 10.42 1.74 10.42 0 10.41 -0.87 9.55 -2.17 9.12 -3.04 7.38 -4.34 5.64 -5.21 3.91 -5.64 1.3 -6.08 -0.44 -6.07 -0.43 -1.3m-3.91 123.69l-0.87 0 -21.27 4.78 -22.57 2.6 -22.13 -0.43 -21.7 -2.61 -19.96 -5.21m109.37 32.12l-1.3 0.44 -19.1 4.77 -20.4 2.61 -20.4 0 -19.97 -1.3 -18.66 -3.9m-27.78 -59.89l23.87 9.11 27.78 5.21m-0.87 -13.89l-3.04 -0.43 -3.03 -0.44m146.7 -42.1l-5.21 6.51 -8.68 8.25 -9.98 7.38 -12.15 6.51 -13.46 5.21 -14.32 4.34 -15.63 3.04 -16.06 1.73 -16.06 0.44 -16.49 -0.44m-83.98 -100.69l1.3 -1.3 9.11 -7.81 11.29 -6.94 13.02 -6.08 13.89 -4.77 15.19 -3.91 16.06 -2.17 16.49 -1.3 16.49 0.43 16.06 1.3 15.63 3.04 15.19 3.9 13.46 5.21 12.59 6.51m-120.22 109.37l-24.74 -5.42 -21.27 -9.11 -16.93 -11.72 -9.55 -10.85 -6.08 -11.29 -2.6 -12.15m87.24 61.63l-0.87 -0.43 -2.17 0 -0.87 -0.44 -2.17 0m8.68 1.3l-1.3 -0.44 -1.3 0m4.77 1.74l-2.17 -1.3m9.55 3.9l-4.34 -1.3 -3.04 -1.3m-45.57 -105.25l-4.77 2.61 -3.47 2.6m148.43 -6.51l-6.07 -3.04m-86.37 100.7l4.77 0.87 14.76 0.87 15.19 -0.43 14.76 -1.3 13.89 -3.04 13.02 -3.91 9.98 -4.34m-81.59 25.61l3.47 6.08 -0.44 6.51 -2.6 4.34 -4.78 3.04m-8.24 2.17l8.24 -2.17m-61.63 -13.46l24.74 9.98 28.65 5.64m-53.38 -13.46l0 -2.17m-34.94 -73.35l0.44 -9.55 3.47 -9.55 5.21 -9.12 7.81 -8.68 9.55 -7.81 9.55 -6.08m168.4 0.43l0.44 0 0 0.44 0.43 0m0 0l10.85 7.38 9.12 7.81 6.94 9.12 4.78 9.11 2.17 9.55 0.43 9.55 -2.17 9.55 -4.34 9.11 -6.51 9.12 -8.68 8.25 -10.42 7.38 -12.15 6.51 -13.89 5.64 -14.76 4.34 -15.63 3.04 -16.49 1.74 -16.49 0.43 -1.73 0m-144.53 390.61l0 -3.91m13.02 3.04l0 2.61m7.81 17.79l2.17 -1.73 3.04 -3.47 1.3 -3.9 0 -0.87m-41.67 -6.08l0 5.64m41.67 -5.64l-0.43 -3.04 -1.74 -4.34 -3.47 -3.03 -4.34 -2.61 -6.08 -1.74 -6.07 -0.43 -6.51 1.3 -5.64 2.17m-7.38 17.36l0.44 3.47 2.17 3.47 3.91 3.04 5.2 2.17 6.08 1.3 6.08 0 6.07 -0.87 5.21 -2.17m6.51 -10.41l0 -5.64m-34.29 -11.72l-2.6 1.74 -3.04 3.91 -1.74 4.34 0.44 1.73m375.86 -65.54l2.61 -1.74 2.6 -3.47 1.74 -3.91 -0.44 -0.87m0 -6.08l0 -3.04 -2.17 -4.34 -3.04 -3.04 -2.17 -1.3m7.81 17.36l0 -5.64m-6.08 -64.23l0 -11.07m40.36 24.74l0 -6.08m-512.14 0.43l0 6.08m505.19 -19.1l-5.21 -2.6m-487.62 0.87l-5.2 2.6m540.35 36.46l0 -3.91m-583.32 1.3l0 3.47m576.81 -17.36l-4.78 -3.04m-560.32 0.87l-4.77 3.04m607.19 38.63l0 -3.04m-644.52 0.87l0 3.03m638.87 -16.06l-3.9 -3.47m-624.99 0.87l-4.34 3.91m664.48 40.8l0 -4.34m-695.29 0.87l0 4.77m690.95 -15.63l-3.47 -3.9m-682.71 3.9l-0.87 0.87m3.47 -3.9l-2.6 3.04m710.05 44.7l0 -7.81m-734.36 1.3l0 8.25m731.75 -16.93l-1.73 -2.6m-725.68 1.3l-1.73 2.6m744.77 48.18l0 -13.45m-759.74 1.08l0 13.89m759.09 -18.66l-0.43 -1.73m-757.36 1.73l-0.44 1.3m766.04 59.03l0 -28.21m-773.42 1.3l0 240.01m773.42 27.78l0 -239.58m-773.64 1.52l0 239.58m632.37 -274.73l-0.44 3.04m-490.44 0l-0.44 -3.04m636.27 274.3l0 -14.76m-148.43 -243.05l-0.87 3.47m-482.63 0l-0.87 -3.04m622.38 285.58l0 -240.01m-759.96 1.3l0 240.01m614.57 -270.39l-1.73 3.04m-466.13 0l-1.74 -3.04m601.98 297.3l0 -240.01m-733.92 1.3l0 239.58m590.26 -282.11l-2.61 3.04m-441.83 0.43l-2.6 -3.47m431.85 15.62l-3.04 3.04m-410.15 0l-3.47 -2.6m556.41 292.09l0 -240.45m-695.29 1.3l0 240.01m536.88 -278.64l-4.34 2.61m-370.65 -0l-4.34 -2.6m356.76 13.46l-4.77 2.17m-324.65 0l-4.77 -2.17m-57.29 -91.58l0 48.18m547.51 332.67l0 -240.45m-644.52 0.87l0 240.88m463.32 -279.29l-5.21 2.17m-273 0l-4.99 -2.17m255.2 9.55l-5.64 1.74m-216.14 0l-5.64 -1.74m406.24 291.66l0 -240.88m-583.32 1.3l0 240.88m374.56 -285.15l-6.07 0.87m-155.38 0l-6.08 -0.87m135.85 4.77l-6.08 0.87m-92.01 0l-6.08 -0.87m71.61 3.04l-6.07 0m-26.48 0l-6.51 0m276.03 296.87l0 -241.75m-511.7 0.87l0 241.75m471.78 16.93l0 -242.62m-431.41 0.87l0 242.62m-175.78 -185.76l0 14.76m563.79 184.46l0 -243.92m-344.18 0.87l0 243.92m297.74 9.98l0 -246.09m-251.3 0.44l0 246.09m348.95 -421l0 -47.31m-146.26 474.38l0 -249.56m-154.08 0.44l0 249.56m104.6 0.87l0 -256.5m-55.12 -1.74l0 257.81m419.7 -196.61l0 -6.08m-786.44 -0.22l0 6.07m313.36 112.41l-0.43 1.3m1.74 -6.95l-1.3 4.78m479.59 -48.18l0 -0.22m0.87 -63.8l0 -7.38m13.02 26.48l0 0m-3.91 13.89l0.87 -3.47m6.94 -42.53l0 -3.91m-818.12 9.55l0 7.38m0.87 63.8l0 0.44m-13.89 -45.14l0 0m3.04 10.41l0.87 3.47m-7.81 -49.91l0 3.91m629.32 -458.76l-2.6 -5.21 -8.25 -11.72 -9.55 -10.85 -11.72 -10.42 -13.02 -9.98 -9.98 -6.08m0 0l-0.44 0m-1.3 -1.3l-12.59 -6.95m73.35 205.73l-0.44 -1.74 -0.43 -0.87 0 -0.87m2.17 5.21l-0.43 -0.43 -0.44 -0.44 -0.43 -0.87m-38.19 -116.31l-1.74 -1.74 -2.17 -3.47 -0.43 -2.61m17.8 18.66l-13.46 -10.85m19.53 18.23l-3.04 -3.91 -3.03 -3.47m21.7 40.36l0 -2.17 -0.44 -1.74 -0.87 -2.17 -0.87 -1.74m0 0l-6.08 -11.28 -7.38 -13.89m-419.69 -6.51l-1.74 61.63m-13.02 9.55l-0.87 35.16m14.76 -78.99l-3.04 4.78 -0.87 1.73m45.14 -108.5l-3.04 2.17 -10.85 11.29 -9.33 11.28 -7.38 12.15 -5.21 12.59 -3.47 12.59 -1.3 12.59 0.43 3.47m79.86 -104.6l-12.59 6.95m48.39 281.02l-9.55 -3.47 -16.06 -5.64m256.94 -215.27l-1.3 -109.81m115.02 253.47l-1.3 -35.16m-9.98 -37.76l-2.6 -5.21 -8.25 -11.72 -1.73 -2.17m-337.67 -161.45l-1.3 109.81m4.77 -158.42l0 48.18m2.61 -63.37l-0.44 1.3 -2.17 13.89m0 -31.68l0 1.74m0 0l1.3 11.72 6.08 13.45 12.59 13.46 8.68 6.94 9.12 4.78m-34.72 -67.27l-0.87 1.3 -2.17 13.89m0 -32.12l0 2.17m0 -0.43l1.3 12.15 6.08 13.02 12.59 13.89 8.68 6.51 9.12 5.21m-34.72 -67.71l-0.87 1.73 -2.17 13.89m239.58 111.54l0 -32.12m0 0.43l-1.3 -12.15 -0.87 -3.04m-199.65 -12.59l13.02 5.64 14.75 4.78m5.21 -155.81l0 3.25m-70.74 59.68l1.3 11.72 6.08 13.45 12.59 13.46 8.68 6.94 9.12 4.78m-37.76 -52.08l0 2.17m3.04 -17.79l-0.87 1.73 -2.17 13.89m37.76 148l10.42 4.77 5.64 1.74m129.34 -4.78l4.34 -1.73 16.49 -9.55 14.76 -11.72 6.51 -6.95 6.51 -9.11 5.64 -13.02 2.17 -16.49m0 0.44l0 -1.74m0 0l-1.3 -11.72 -0.87 -3.47m-53.38 -140.62l-3.04 -2.17 -12.15 -5.64 -13.46 -4.34 -14.32 -3.04 -14.76 -1.3 -15.19 0 -15.19 1.74 -15.63 3.9 -13.02 4.78 -12.59 6.07 -11.28 7.81 -3.91 3.47m129.34 6.51l0 -3.04m-131.07 177.08l10.42 5.21 5.64 1.73m185.33 -69.44l0.43 -3.9m-56.42 68.57l4.34 -1.74 16.49 -9.33 14.76 -11.72 6.51 -7.37 6.51 -9.12 5.64 -12.59 1.3 -9.11m0.87 -6.95l0 -2.17m0 0.44l0 -1.74m-0.43 -2.17l-1.3 -9.98 -0.44 -1.3m-144.53 3.47l1.74 1.73 1.3 1.3m71.18 52.08l6.95 -2.17 12.59 -4.77 9.11 -4.78 7.38 -4.34 11.29 -8.25 9.55 -9.54 4.77 -6.08 4.78 -8.68 4.34 -11.29 1.73 -12.59m0 -1.3l0 -1.73m0 0l-1.3 -11.72 -0.87 -3.47m-199.65 51.21l10.42 5.21 5.64 1.74m112.85 1.3l0.43 -0.44 10.85 -3.47 9.54 -3.9 16.49 -9.55 14.76 -11.72 6.51 -7.38 6.51 -9.12 5.64 -12.58 2.17 -16.49m-39.5 -50.35l-8.03 -6.51 -8.25 -4.78m-113.28 16.06l2.17 -0.44m166.66 46.44l0 -16.06"/>
    </g>
   </g>
  </g>
 </g>
</svg>
