<?xml version="1.0" encoding="UTF-8"?>
<!DOCTYPE svg PUBLIC "-//W3C//DTD SVG 1.1//EN" "http://www.w3.org/Graphics/SVG/1.1/DTD/svg11.dtd">
<!-- Creator: CorelDRAW 2021 (64-Bit Not for commercial use) -->
<svg xmlns="http://www.w3.org/2000/svg" xml:space="preserve" width="0.968614in" height="1.10188in" version="1.1" style="shape-rendering:geometricPrecision; text-rendering:geometricPrecision; image-rendering:optimizeQuality; fill-rule:evenodd; clip-rule:evenodd"
viewBox="0 0 134.77 153.32"
 xmlns:xlink="http://www.w3.org/1999/xlink"
 xmlns:xodm="http://www.corel.com/coreldraw/odm/2003">
 <defs>
  <style type="text/css">
   <![CDATA[
    .str0 {stroke:black;stroke-width:0.97;stroke-linecap:round;stroke-linejoin:round;stroke-miterlimit:2.61313}
    .fil0 {fill:none}
   ]]>
  </style>
 </defs>
 <g id="Box_Label_Korean">
  <metadata id="CorelCorpID_0Corel-Layer"/>
  <g id="_2618231766960">
   <g id="Layer_2" data-name="Layer 2">
    <g id="Layer_1-2" data-name="Layer 1">
     <path class="fil0 str0" d="M45.89 62.9l0 -0.35m-2.51 0.63l0 -0.28m2.44 0.56l0 -0.21m-4.45 1.46l0 0 0.07 0.42 0.14 0.35 0.35 0.35 0.42 0.28m4.73 0l0 0.07 -0.07 0.07 0 0.1 -0.07 0m0.14 -0.21l0.42 -0.28 0.28 -0.35 0.21 -0.35 0.07 -0.42m0 -0.9l-0.07 0.35 -0.21 0.35 -0.28 0.35 -0.42 0.28m-3.97 -3.2l-0.14 -0.07 -0.28 0 -0.14 0.07m-0.21 3.2l-0.42 -0.28 -0.35 -0.35 -0.14 -0.35 -0.07 -0.35m60.43 -10.82l0 0.14 -0.07 0.07m0.07 -0.21l0.42 -0.28 0.35 -0.35 0.14 -0.42 0.07 -0.35m0 -0.9l-0.07 0.35 -0.14 0.35 -0.35 0.35 -0.42 0.28m-0.14 -0.7l0 0.14 0.07 0.21 0.07 0.21 0 0.14m0.9 -6.26l-0.7 -1.25 -0.07 -0.07m-0.56 -9.67l-0.35 -0.28m0.28 11.97l0.63 -0.49m-0.49 0.83l1.32 -1.11m0 12.73l-0.77 -0.63m0.7 0.63l-0.42 -0.28 -0.07 -0.07m-0.21 -0.28l-0.07 0m-5.98 -21.29l0.07 2.71m-64.5 7.65l-0.42 0.97 -0.49 2.09 -0.21 2.09 0.14 2.09 0.56 2.02 0.83 2.02 1.18 1.95 1.53 1.88m61.16 -22.89l-0.07 0 -0.07 -0.07 -0.07 0.07 -0.07 0m2.16 1.81l0.21 -0.07 0.14 0.07m2.99 5.15l0.07 0m-68.96 9.46l0.77 1.81 1.25 1.95 1.46 1.81m-1.04 0.9l-1.53 -1.88 -1.18 -1.95 -0.83 -2.02 -0.56 -2.09 -0.14 -2.02 0.21 -2.09 0.49 -2.09 0.49 -1.18m8.94 21.74l-2.51 -1.6 -2.23 -1.74 -1.95 -1.81 -1.57 -1.98 -1.25 -2.02 -0.49 -1.11m5.32 -7.13l-1.5 -1.98 -1.18 -2.02 -0.83 -2.02 -0.49 -2.16 -0.07 -1.39m6.54 -12.52l-0.83 0.77 -1.74 1.88 -1.39 1.95 -1.04 2.02 -0.7 2.09 -0.28 2.09 0.14 2.09 0.42 2.16 0.9 2.02 1.18 2.02 1.6 1.88m3.55 -1.95l-1.67 -1.74 -1.32 -1.81 -1.04 -1.88 -0.63 -1.95 -0.28 -1.95 0.07 -2.02 0.42 -1.95 0.77 -1.95 1.18 -1.88 1.46 -1.74 1.46 -1.39m13.29 8.21l0.14 0.97 0.42 1.25 0.84 1.25 1.18 1.11 1.39 0.97m-9.67 22.96l0.07 0.07 0.07 0.14 0 0.21m-13.71 -2.78l7.17 0.7m-5.91 -0.9l6.19 0.63m3.41 -1.04l0.07 -12.87m12.32 -7.1l1.74 0.83 1.95 0.7 2.09 0.42 2.16 0.28 2.3 0.07 2.23 -0.14 2.16 -0.42 1.95 -0.56 1.88 -0.77 1.6 -0.9 1.25 -1.04 0.97 -1.18 0.7 -1.25 0.28 -1.25 0 -0.35m23.38 22.2l-0.56 1.18 -1.25 2.02 -1.6 1.95 -1.95 1.81 -2.23 1.74 -2.51 1.6 -2.78 1.46 -2.99 1.25 -3.2 1.11 -3.34 0.97 -3.55 0.7 -3.62 0.49 -3.69 0.35 -3.76 0.14 -3.69 -0.14 -3.69 -0.35 -3.62 -0.49 -3.55 -0.7 -3.34 -0.97 -3.2 -1.11 -2.99 -1.25 -2.78 -1.46m61.3 -24.21l0.21 0.28 0.77 1.25m-56.15 24.15l1.11 0.42 1.18 0.42 1.25 0.42m30.06 -49.82l1.67 0.49 1.95 0.63 1.95 0.8 1.74 0.84 1.67 0.9m-47.42 22.61l-1.74 -1.67 -1.46 -1.81 -1.04 -1.88 -0.7 -1.88 -0.35 -1.95 0 -1.95 0.42 -1.95 0.77 -1.88 1.11 -1.88 1.46 -1.74 1.81 -1.67 2.09 -1.53 2.37 -1.39 2.64 -1.25 2.85 -1.04 2.51 -0.77m1.81 22.61l1.88 0.9 2.09 0.7 2.23 0.56 2.37 0.35 2.37 0.07 2.44 -0.07 2.37 -0.35 2.23 -0.49 2.09 -0.77 1.88 -0.9 1.6 -1.04 1.32 -1.18 0.9 -1.25 0.63 -1.39 0.21 -1.39 -0.14 -1.39 -0.56 -1.39 -0.84 -1.25 -0.49 -0.49m-27.07 0l-0.28 0.21 -0.9 1.32 -0.63 1.32 -0.21 1.39 0.14 1.39 0.56 1.39 0.84 1.32 1.25 1.18 1.53 1.11m11.76 -40.15l0 -0.63m-5.29 -0.49l-0.56 0.21 -1.46 0.7 -1.22 0.8 -0.83 0.97 -0.56 1.04 -0.21 1.04 0.21 1.11 0.56 1.04 0.83 0.97 1.25 0.83m13.57 -7.86l-1.46 -0.7 -0.42 -0.14m1.88 0.83l-0.35 0 -0.21 0.07 -0.21 0.07 -0.21 0.07 -0.14 0.07m1.95 -0.07l0 0 -0.14 -0.07 -0.14 -0.07 -0.21 -0.07 -0.35 0m32.49 39.87l0 -3.9m-78.77 0.14l0 3.86m84.19 2.71l0 -3.55m-89.62 0.14l0 3.48m94.28 3.2l0 -3.2m-98.95 0.14l0 3.2m11.48 2.99l0.07 -0.07 0 -0.07m91.22 0.8l0 -3.2m-106.53 0.21l0 3.13m109.45 4.04l0 -3.2m-112.38 0.14l0 3.2m114.39 4.45l0 -3.48m-116.27 0.24l0 3.48m117.18 4.66l0 -3.9m-118.15 0.14l0 3.9m118.15 5.01l0 -4.59m-118.01 0.21l0 4.66m116.97 5.29l0 -5.78m-115.92 0.21l0 5.85m32.49 6.82l0 -9.67m70 60.47l0 0m-57.47 -3.24l0 0m78.7 -23.24l0 -1.46 -0.21 -2.78 -0.63 -2.71 -0.97 -2.71 -1.25 -2.64 -0.77 -1.32m-16.56 40.22l0 -0.07m1.18 2.44l-0.77 3.97m-107.85 -46.48l-1.25 2.37 -1.22 2.68 -0.77 2.78 -0.49 2.71 -0.07 2.78 0 0.35m66.45 37.09l2.47 0 4.8 -0.28 4.8 -0.42 4.66 -0.63 4.66 -0.84 4.52 -0.97 4.31 -1.25 4.24 -1.39 3.97 -1.53 3.83 -1.74 3.62 -1.88m-108.55 -41.33l-0.49 0.77 -1.46 2.64 -1.18 2.71 -0.77 2.78 -0.49 2.78 -0.07 2.78 0.28 2.78 0.56 2.78 0.97 2.71 1.25 2.71 1.67 2.64 1.95 2.57 2.23 2.44 2.57 2.37 2.92 2.23 3.13 2.16 3.41 2.02 3.62 1.81 3.9 1.67 4.04 1.53 4.24 1.32 4.45 1.18 4.52 0.97 2.3 0.42m65.48 -9.74l3.34 -2.09 2.99 -2.16 2.78 -2.3 2.44 -2.43 2.16 -2.51 1.81 -2.57 1.46 -2.64 1.18 -2.71 0.77 -2.78 0.49 -2.78 0.07 -2.78 -0.28 -2.78 -0.56 -2.78 -0.97 -2.71 -1.25 -2.71 -1.46 -2.3m-85.83 -25.57l-0.35 0.14m1.6 -5.57l0 -0.73m0.49 0.83l0 -0.77m-1.22 0.73l0 -0.77m1.46 0.97l0 -0.77m0 0.77l0.07 0 0 0.07 0.21 0m-0.49 -0.28l0.07 0 0 0.14 0.07 0 0 0.07 0.07 0m-0.28 -0.35l0 0 0.07 0.07 0 0.07m-0.49 -0.07l0 -0.03 0.42 0m-1.18 0.14l0.07 0.07 0.35 0 0.07 -0.07 0.14 0 0.07 -0.07 0.07 0m-1.11 0.14l0.07 -0.07 0.28 0m-0.9 -1.04l0.7 -0.28 0.9 -0.07 0.84 0.07 0.77 0.28 0.42 0.42 0.21 0.56 -0.21 0.49 -0.42 0.42m-0.28 -0.97l0 0 0.07 -0.07 0.07 -0.07 -0.07 -0.07 -0.07 -0.07m-0.21 0.7l-0.07 0 0 -0.21 0.07 -0.07 0 -0.07 0.07 0 0.14 -0.07m-0.63 0.7l0.28 0 0.07 -0.07 0.07 0 0 -0.21m-1.18 0.35l0.07 0 0.07 -0.07 0.07 0 0.14 -0.07 0.35 0 0.07 0.07m-1.25 0.14l0.14 0 0.07 0.07 0.07 0 0.07 -0.07 0.07 0 0.07 -0.07m-0.56 -0.07l0 0 0 0.07 0.07 0 0 0.07m-0.21 -0.35l0 0 0.07 0.07 0.07 0.07 0 0.07m-0.56 -0.28l0.28 0 0.07 0.07 0.07 0m-0.63 -0.14l0.14 0 0.07 0.07m-0.14 -0.35l-0.07 0 0 0.07 -0.07 0 0 0.14 0.07 0 0 0.07m0.28 -0.7l0 0 0.07 0.07 0 0.07 -0.07 0.07 0 0.07 -0.07 0.07 -0.07 0 -0.07 0.07m0.63 -0.7l-0.28 0 -0.07 0.07 -0.07 0 -0.07 0.07 0 0.07 0.07 0.07m1.18 -0.35l-0.07 0 -0.07 0.07 -0.14 0 -0.07 0.07 -0.35 0 -0.07 -0.07m1.18 -0.14l-0.42 0 0 0.07m0.49 0.07l0 0 0 -0.07 -0.07 -0.07m0.28 0.35l-0.07 0 0 -0.07 -0.07 0 0 -0.14 -0.07 0m0.63 0.35l-0.07 -0.07 -0.28 0 0 -0.07 -0.07 0m0.56 0.14l-0.14 0m-3.55 2.57l0 0.97m0 0l0.49 0.21 0.56 0.21 0.63 0.07 0.7 0.07 0.63 -0.07 0.63 -0.07 0.63 -0.21 0.49 -0.21m0 -0.97l-0.49 0.28 -0.63 0.14 -0.63 0.14 -1.32 0 -0.63 -0.14 -0.56 -0.14 -0.49 -0.28m3.97 -1.32l0.14 0.07 0.14 0.14 0.14 0.21 0.14 0.14 0.07 0.21 0.07 0.21 0.07 0.21 0 0.14m-0.77 -1.32l-0.77 0.28 -0.84 0.07 -0.9 -0.07 -0.7 -0.28 -0.49 -0.42 -0.14 -0.49 0.14 -0.56 0.49 -0.42m59.63 -16.21l0 0m0 0l-0.07 0.07m0 0l0 0m0 0l-0.35 0 -0.21 -0.07 -0.14 -0.07 -0.07 -0.07m0 0.42l0 -0.14 0.07 -0.07 -0.07 -0.14 0 -0.07m0 0l-0.07 -0.14 0 -0.14m-21.71 -24.42l0.77 0.21 2.02 0.56 2.02 0.7 1.81 0.77 1.81 0.84 1.67 0.9m12.52 20.87l0 0m-0.07 0.07l0.07 -0.07m-0.84 0.28l0.35 -0.07 0.42 -0.14m-0.83 -0.49l-0.35 -9.95m0.35 9.95l0 0.07 -0.07 0.07 0 0.07m-0.28 -10.16l-0.07 -0.35 -0.07 -0.21m0.14 0.56l0 0 0 0.07 -0.07 0.07 0 0.07m-0.42 -1.04l0.07 0.07 0 0.42m-0.07 -0.49l-2.16 -0.63m2.16 0.63l-0.7 -1.18 -0.83 -1.18 -0.9 -1.11 -1.04 -1.11 -1.18 -1.04 -1.25 -1.04 -1.39 -0.97 -1.53 -0.9m6.68 7.93l0.07 0.14 0.07 0.07 0 0.14 -0.07 0.14m-0.07 -0.49l-0.56 0 -0.63 0.28m-7.45 -9.32l1.53 0.9 1.39 1.04 1.32 1.11 1.18 1.11 1.04 1.18 0.83 1.18 0.77 1.25 0.56 1.25m-8.63 -9.05l-0.14 -0.07 -0.07 -0.07 -0.28 0 -0.14 0.07 -0.14 0 -0.14 0.07 -0.14 0.07m12.59 20.56l0 0.28 0.14 0.21m-0.49 -10.44l0.35 9.95m-0.7 -10.47l0.21 0.14 0.07 0.21 0.07 0.21m-2.51 -1.18l1.18 0.35 0.97 0.28m-2.99 -0.28l0.49 -0.35 0.35 0m-0.83 0.35l-2.16 1.81m2.16 -1.81l0 -0.21 -0.07 -0.14 -0.14 -0.14 -0.21 -0.07m5.08 11.55l0.77 1.6 0.49 1.53 0.35 1.6 0.14 1.67 -0.14 1.6 -0.35 1.6 -0.49 1.6 -0.77 1.53m0.07 -12.73l-0.07 0m0 12.73l0 0m0 0l0.07 0m-0.07 0l-0.07 0m0.07 0l0 0m-0.07 0l0 0m-6.75 -21.92l-0.21 0.14 -0.14 0.14 -0.14 0.21 -0.07 0.14 -0.14 0.21 -0.07 0.14 0 0.42m0.35 -1.95l0.07 0 0.07 0.07 0.07 0.07 0.07 0.07 0.07 0.07 0 0.07 0.07 0.07 0 0.14m-61.3 25.47l-0.07 0m0 0l0 0 0 0.07m0.07 0l0 0 0 -0.07m1.11 -0.14l-0.14 -0.14 -0.07 -0.07 -0.07 -0.07 -0.07 -0.14m-0.49 0.49l-0.07 0 -0.07 0.07 -0.14 0m0.77 -0.56l-0.07 0.14 -0.14 0.07 -0.14 0.14 -0.14 0.14m0.7 -0.84l-0.07 0.21 -0.14 0.14m60.47 -22.34l-0.07 0m3.06 2.99l0.14 0 -0.07 0.07m-64.29 19.9l0.56 -0.07 0.56 -0.14m-1.18 0.21l0.07 0m-0.07 0l-0.07 0m-3.13 -11.13l0 0.35 0.21 2.09 0.49 2.02 0.07 0.14m-2.99 2.5l0 0.97 0.28 2.09 0.63 2.09 0.9 2.02 1.32 1.95 1.53 1.88 1.95 1.81 2.16 1.67 2.44 1.53m-4.56 -23.03l-0.21 10.09m0.35 0.14l-0.21 0 -0.07 -0.07 -0.07 -0.07m-1.04 0.9l-0.07 0 0 0.07m-4.04 -3.9l-0.42 -0.97 -0.56 -2.16 -0.14 -2.16 0.14 -2.16 0.56 -2.16 0.83 -1.81m0.84 -5.29l0 -0.49m4.8 8.91l-0.28 0.28 -0.21 0.28 -0.14 0.28 -0.07 0.28m0.35 0.14l-0.07 0 -0.14 -0.07 -0.07 0 -0.07 -0.07m5.98 -3.48l-0.9 0.07 -0.83 0.35m-3.55 1.95l0 0.14 0.07 0.14 0.07 0.07 0.07 0.14m3.34 -2.44l0.07 0.14 0 0.07 0.07 0.14 0.07 0.14m2.3 -22.48l-0.7 0.42 -2.37 1.6 -1.25 0.97m1.81 19l-3.55 1.95m3.97 -22.2l0.35 -0.28 2.09 -1.6 2.37 -1.39 2.64 -1.32 2.85 -1.11 3.03 -0.9 0.77 -0.21m-12.77 26.65l-0.07 0.14 0 0.14 -0.07 0.21 0 0.14m3.76 0.42l0 -0.07 0.07 -0.14 0 -0.42 0.07 -0.07m4.59 23.17l0.07 0m-1.74 -6.47l0 0.14 -0.07 0 0 0.07 -0.14 0 -0.07 0.07m1.95 6.19l0 0m0 -0.07l0 0.07m0 -0.83l0.07 -0.07 0.28 0m-0.35 0.07l0.07 0.42 -0.07 0.35m0 0l0 0m-1.91 -6.16l1.95 6.19m0 0l-1.25 -0.35 -1.18 -0.42 -1.18 -0.49 -1.11 -0.42 -1.11 -0.49 -1.11 -0.56 -1.04 -0.56 -0.97 -0.56m0 0l-0.97 -0.56 -0.97 -0.63 -0.9 -0.63 -0.84 -0.63 -0.83 -0.63 -0.77 -0.7 -0.7 -0.7 -0.7 -0.7m0 0l0 0m0 0l0.7 0.7 0.7 0.7 0.77 0.7 0.83 0.63 0.83 0.7 0.9 0.63 0.9 0.56 0.97 0.63m9.05 3.83l0 -0.07m-2.44 -21.78l-0.21 -0.14 -0.28 -0.14 -0.28 -0.07 -0.28 -0.14 -0.28 -0.07 -0.28 -0.07 -0.35 0 -0.35 -0.07m2.64 15.38l0.07 0 0.07 0.14 0.14 0.21 0.07 0.14 0.07 0.14m0.42 -13.99l-0.07 -0.21 -0.07 -0.14 -0.14 -0.21 -0.14 -0.14 -0.14 -0.21 -0.21 -0.14 -0.21 -0.14 -0.21 -0.14m0.35 -0.63l-0.07 0.07 -0.07 0.07 0 0.07 -0.07 0.07 -0.07 0.07 0 0.07 -0.07 0.14 0 0.07m-2.3 -0.7l-3.76 -0.42m-1.39 0.28l0.77 -0.28 0.63 0m-4.94 2.23l1.95 -1.11 1.6 -0.83m-4.11 2.71l0.07 -0.21 0.07 -0.21 0.14 -0.21 0.28 -0.14m-0.77 10.85l0.21 -10.09m-0.42 10.72l0.14 -0.35 0.07 -0.28m13.43 -11.13l-0.07 0.07 -0.07 0 -0.14 0.07 -0.07 0.07 -0.07 0.14 -0.07 0.07 0 0.07m0.7 2.16l0 -0.14 0.14 -0.14 0.14 -0.14 0.21 0m0.35 17.33l-0.14 -0.07 -0.07 0 0 -0.07 -0.07 -0.07m0.56 -9.88l-0.07 0 -0.14 -0.07 0 -0.07 -0.07 0m7.45 -28.88l-1.46 -0.97 -1.11 -1.11 -0.84 -1.18 -0.49 -1.25 -0.07 -1.25 0.28 -1.32 0.35 -0.77m25.68 0l0.07 0.14 0.49 1.25 0.07 1.32 -0.28 1.25 -0.63 1.25 -0.97 1.11 -1.32 1.04 -1.53 0.97 -1.81 0.7 -2.02 0.56 -2.16 0.42 -2.16 0.14 -2.23 -0.07 -2.23 -0.28 -2.09 -0.42 -1.88 -0.7 -1.67 -0.84m-7.72 23.17l-0.14 0.07 -0.07 0.07 -0.07 0 -0.07 0.07m0.9 4.17l-0.14 0.07 -0.07 0 -0.07 0.07 -0.07 0m-0.77 -5.5l-0.7 -2.16m0 0l-0.42 13.99m0 0l1.67 5.64m0 -0.77l0 0.77m0.28 -10.79l-0.28 10.02m0.21 -11.2l0.07 0.63 0 0.56m-0.63 -5.5l0.35 2.43 0.21 1.88m-0.77 -5.5l0.14 0.56 0.07 0.63m52.88 4.52l0.07 0m-52.53 12.59l-0.07 -0.07m0.35 -0.83l-0.07 -0.28 0 -0.21m-0.28 1.32l0 0 0.07 -0.07 0.14 -0.14 0.07 -0.28 0.07 -0.14 0 -0.21m-0.35 0.83l3.27 0.9 3.41 0.7 3.48 0.49 3.62 0.28 3.55 0.14 3.62 -0.14 3.55 -0.28 3.48 -0.56 3.41 -0.7 3.27 -0.9 3.06 -1.04 2.92 -1.25 2.64 -1.39 2.44 -1.53 2.16 -1.67 1.88 -1.74 1.53 -1.88 1.25 -1.95m-0.28 -0.14l0.07 0.07 0.14 0 0.07 0.07m-0.77 -0.63l0.07 0.21 0.07 0.14 0.14 0.07 0.21 0.07m-0.56 -0.97l0 0.21 0.07 0.28m-61.58 16.21l0.14 -5.64m-0.14 5.64l2.71 1.46 2.92 1.25 3.06 1.04 3.27 0.97 3.41 0.7 3.55 0.56 3.55 0.35 3.62 0.14 3.69 -0.07 3.62 -0.21 3.55 -0.49 3.41 -0.63 3.34 -0.83 3.2 -0.97 3.06 -1.18 2.78 -1.32 2.57 -1.53 2.3 -1.6 2.02 -1.74 1.81 -1.81 1.39 -1.95 1.11 -2.02 0.77 -2.02 0.42 -2.09 0.14 -2.02m-65.16 10.4l0 -0.14 0.07 -0.14 0.07 -0.21 0.07 -0.14 0.07 -0.14 0.14 -0.14 0.07 -0.14 0.14 -0.07m62.8 -20.7l0.83 1.95 0.56 2.16 0.14 2.16 -0.14 2.16 -0.56 2.16 -0.35 0.9m-1.53 -12.39l-0.07 0m0.07 12.73l0.77 -1.53 0.49 -1.6 0.35 -1.6 0.07 -1.6 -0.07 -1.67 -0.35 -1.6 -0.49 -1.6 -0.77 -1.53m-0.07 12.73l0 0.07 0.07 0 0 -0.07m-0.07 0l-1.25 1.95 -1.6 1.88 -1.81 1.81 -2.23 1.67 -2.37 1.53 -2.71 1.39 -2.92 1.25 -3.06 1.04 -3.27 0.9 -3.34 0.7 -3.55 0.49 -3.55 0.35 -3.55 0.07 -3.62 -0.07 -3.55 -0.28 -3.55 -0.56 -3.34 -0.63 -3.27 -0.9m-0.07 0.07l0 0 0 -0.07 0.07 0m-9.12 -3.76l1.04 0.56 1.04 0.49 1.04 0.56 1.11 0.49 1.18 0.49 0.07 0m48.92 -30.76l2.16 1.81m-2.16 -4.94l-0.35 0.35 -0.28 0.35 -0.21 0.42 0 0.84 0.21 0.42 0.28 0.42 0.35 0.35m2.16 -4.94l-2.16 1.81m-6.33 -11.06l1.6 0.97 1.46 1.04 1.25 1.11 1.18 1.11 0.97 1.18 0.84 1.25 0.7 1.25 0.49 1.32m-52.12 13.71l-3.76 -0.35m6.26 1.11l-0.28 -0.14 -0.28 -0.14 -0.28 -0.07 -0.35 -0.14 -0.28 -0.07 -0.35 -0.07 -0.35 -0.07 -0.35 -0.07m3.83 2.23l-0.07 -0.21 -0.07 -0.14 -0.14 -0.21 -0.14 -0.21 -0.21 -0.21 -0.21 -0.14 -0.21 -0.14 -0.28 -0.21m2.02 3.69l-0.7 -2.23m6.96 -6.19l0 -0.07 -0.07 0 -0.07 -0.07 -0.07 0m-5.98 9.95l-0.07 -0.77 0 -0.63m47.59 -11.41l0.63 0.49 0.56 0.7m-1.18 -1.18l-0.77 1.88 -1.18 1.88 -1.53 1.74 -1.88 1.6 -2.09 1.53 -2.44 1.39 -2.64 1.18 -2.92 1.04 -3.06 0.83 -3.13 0.63 -3.34 0.49 -3.34 0.21 -3.41 0 -3.34 -0.21 -3.34 -0.35 -3.2 -0.63 -3.06 -0.84 -2.92 -0.97m51.42 -4.87l0.35 9.88m-51.42 12.32l0.28 -10.09m-0.28 10.09l3.2 0.83 3.27 0.7 3.48 0.49 3.48 0.35 3.55 0.07 3.48 -0.07 3.48 -0.35 3.48 -0.49 3.27 -0.7 3.2 -0.83 3.06 -1.04 2.85 -1.25 2.57 -1.32 2.37 -1.53 2.16 -1.67 1.81 -1.74 1.46 -1.81 1.25 -1.95m-0.83 -11.27l0.21 0.42 0.14 0.35 0.07 0.28 0.07 0.35m-50.8 12.11l0 -1.46m50.8 -10.65l-1.32 2.02 -1.6 1.88 -1.95 1.81 -2.3 1.67 -2.51 1.53 -2.85 1.39 -2.99 1.18 -3.27 1.04 -3.41 0.83 -3.55 0.56 -3.62 0.42 -3.69 0.21 -3.69 -0.07 -3.62 -0.28 -3.62 -0.49 -3.48 -0.7 -3.34 -0.9m48.15 -17.47l2.16 3.97m-2.16 -3.97l-0.9 1.88 -1.25 1.88 -1.67 1.74 -1.88 1.6 -2.23 1.53 -2.44 1.39 -2.71 1.18 -2.92 1.04 -3.13 0.9 -3.2 0.63 -3.34 0.49 -3.41 0.24 -3.48 0.07 -3.41 -0.21 -3.34 -0.35 -3.27 -0.56 -3.13 -0.84 -2.99 -0.97m0.56 4.38l-0.56 -4.38m0.56 4.38l3.27 0.9 3.48 0.7 3.55 0.49 3.69 0.28 3.62 0.07 3.69 -0.14 3.55 -0.42 3.55 -0.56 3.41 -0.83 3.2 -1.04 2.99 -1.18 2.78 -1.39 2.57 -1.53 2.23 -1.67 1.88 -1.81 1.6 -1.88 1.25 -2.02m-46.48 -21.01l0.14 0.9 0.42 1.25 0.77 1.11 1.11 1.04 1.32 0.9m0 -7.38l-1.6 -1.04 -1.18 -1.18 -0.7 -1.25 -0.28 -1.39m3.76 2.02l-1.64 -1.04 -1.18 -1.18 -0.7 -1.32 -0.28 -1.32m12.39 -11.55l0.14 -0.07 0.66 0 0.14 0.07m-9.53 13.5l-1.6 -1.04 -1.18 -1.18 -0.7 -1.32 -0.28 -1.32m3.76 1.95l-1.6 -1.04 -1.18 -1.18 -0.7 -1.25 -0.28 -1.39m6.05 -4.04l-0.21 0.28 -0.35 0.9 0 0.97 0.35 0.9 0.7 0.83 1.04 0.77m-3.83 20.32l1.6 0.83 1.88 0.63 1.95 0.42 2.09 0.28 2.09 0 2.09 -0.14 2.02 -0.35 1.95 -0.49 1.74 -0.77 1.46 -0.83 1.25 -0.97 0.9 -1.11 0.63 -1.18 0.28 -1.18 0 -0.35m-16.39 -19.73l-0.83 -0.7 -0.49 -0.77 -0.07 -0.77 0.28 -0.83 0.7 -0.7 0.97 -0.56 1.25 -0.42 1.36 -0.14 1.46 0.07 1.25 0.28 1.18 0.49m-3.03 1.7l-0.21 -0.07 -0.63 0 -0.21 0.07 -0.14 0.14 -0.07 0.21 0.07 0.14 0.14 0.14m0 0l0.21 0.07 0.28 0.07 0.38 -0.07 0.21 -0.07 0.14 -0.14 0.07 -0.14 -0.07 -0.21 -0.14 -0.14m12.32 13.53l0 0 -0.28 1.53 -0.7 1.53 -1.18 1.32 -1.6 1.25 -1.95 0.97 -2.23 0.77 -2.44 0.56 -2.51 0.21 -2.43 -0.07 -2.44 -0.28 -2.23 -0.63 -1.95 -0.83m21.92 -9.18l-0.28 1.53 -0.7 1.46 -1.18 1.39 -1.6 1.18 -1.95 1.04 -2.23 0.77 -2.44 0.49 -2.51 0.21 -2.43 0 -2.44 -0.35 -2.23 -0.63 -1.95 -0.77m12.59 -18.72l0.83 0.63 0.49 0.77 0.07 0.83 -0.28 0.77 -0.7 0.7 -0.97 0.56 -1.25 0.42 -1.32 0.21 -1.46 -0.07 -1.25 -0.28 -1.18 -0.49m-1.74 4.63l1.32 0.63 1.46 0.42 1.67 0.21 1.6 0 1.67 -0.21 1.46 -0.42 1.32 -0.63 1.04 -0.77 0.7 -0.83 0.35 -0.9 0 -0.97 -0.35 -0.9 -0.21 -0.28m-5.22 10.65l-2.92 0.07 -2.85 -0.21 -2.57 -0.63 -2.3 -0.97m0 0l0 -0.42m2.3 -2.51l1.46 0.7 1.67 0.49 1.81 0.35 1.81 0.07 1.88 -0.07 1.81 -0.35 1.67 -0.49 1.46 -0.7 1.25 -0.83 0.83 -0.97 0.56 -1.04 0.21 -1.11 -0.21 -1.04 -0.56 -1.04 -0.83 -0.97 -1.25 -0.83m6.05 7.38l-0.28 1.53 -0.7 1.46 -1.18 1.39 -1.6 1.18 -1.95 1.04 -2.23 0.77 -2.44 0.49 -2.43 0.28 -2.51 -0.07 -2.44 -0.35 -2.23 -0.56 -1.95 -0.83m19.76 -5.64l-1.39 1.53 -2.09 1.32 -2.64 0.97 -2.99 0.63m6.82 -12.18l1.18 0.77 0.9 0.9 0.77 0.97 0.42 0.97 0.21 1.04 -0.14 1.04 -0.35 1.04 -0.7 0.97m-5.64 -9.12l0.42 0.14 1.53 0.56 1.39 0.7m-13.43 -1.39l0.49 -0.14m-4.52 11.55l-0.97 -0.63 -0.83 -0.7 -0.7 -0.7 -0.56 -0.77 -0.35 -0.83 -0.28 -0.84 -0.07 -0.83 0.14 -0.83m14.26 8.28l-2.92 0 -1.39 -0.14 -1.46 -0.21 -1.32 -0.35 -1.25 -0.42 -1.18 -0.49 -1.11 -0.56m1.04 -0.63l1.6 0.84 1.88 0.56 1.95 0.42 2.09 0.14 2.09 -0.07 2.02 -0.28 1.95 -0.49 1.74 -0.7 1.46 -0.83 1.18 -0.97 0.83 -1.11 0.49 -1.18 0.07 -1.18 -0.28 -1.25 -0.63 -1.11 -0.56 -0.56m-19.69 -0.07l-0.07 0.07 -0.87 1.11 -0.49 1.18 -0.07 1.18 0.28 1.25 0.63 1.11 1.04 1.04 1.32 0.9m19.9 -3.69l-0.28 1.46 -0.63 1.32 -1.11 1.32 -1.46 1.11 -1.81 0.9 -2.02 0.77 -2.23 0.49 -2.37 0.21 -2.3 -0.07 -2.23 -0.28 -2.02 -0.56 -1.81 -0.77m0 0l-1.46 -0.9 -1.11 -1.11 -0.56 -1.04m22.82 2.09l-0.35 0.77 -1.11 1.25 -1.46 1.18 -1.81 0.9 -2.02 0.7 -2.23 0.49 -2.37 0.28 -2.3 -0.07 -2.23 -0.28 -2.02 -0.56 -1.81 -0.77m0 0l-1.46 -0.97 -1.11 -1.04 -0.56 -1.11m22.82 2.16l-0.35 0.77 -1.11 1.25 -1.46 1.11 -1.81 0.97 -2.02 0.7 -2.23 0.49 -2.37 0.21 -2.3 0 -2.19 -0.35 -2.02 -0.49 -1.81 -0.77m0 0l-1.46 -0.97 -1.11 -1.11 -0.56 -1.04m22.82 2.16l-0.35 0.7 -1.11 1.32 -1.46 1.11 -1.81 0.9 -2.02 0.77 -2.23 0.49 -2.37 0.21 -2.3 -0.07 -2.23 -0.28 -2.02 -0.56 -1.81 -0.77m0 0l-1.5 -0.9 -1.11 -1.11 -0.56 -1.04m-1.11 -1.95l-0.21 1.04 0.28 1.32 0.7 1.32 1.18 1.18 1.6 1.04m0 0l1.95 0.83 2.23 0.56 2.44 0.35 2.44 0.07 2.51 -0.28 2.43 -0.49 2.23 -0.77 1.95 -1.04 1.6 -1.18 1.18 -1.39 0.7 -1.46 0.28 -1.53 -0.21 -1.04m-25.26 -1.46l-0.21 1.04 0.28 1.39 0.7 1.25 1.18 1.18 1.6 1.04m0 0l1.95 0.83 2.23 0.63 2.44 0.28 2.44 0.07 2.51 -0.21 2.43 -0.56 2.23 -0.77 1.95 -0.97 1.6 -1.25 1.18 -1.32 0.7 -1.53 0.28 -1.53 -0.21 -1.04m-25.26 -1.39l-0.21 0.97 0.28 1.39 0.7 1.32 1.18 1.18 1.6 0.97m0 0l1.95 0.84 2.23 0.63 2.44 0.35 2.44 0 2.51 -0.21 2.43 -0.49 2.23 -0.77 1.95 -1.04 1.6 -1.18 1.18 -1.39 0.7 -1.46 0.28 -1.53 -0.21 -1.04m-25.26 -1.46l-0.21 1.04 0.28 1.32 0.7 1.32 1.18 1.18 1.6 1.04m0 0l1.95 0.84 2.23 0.56 2.44 0.35 2.51 0.07 2.44 -0.28 2.43 -0.49 2.23 -0.77 1.95 -1.04 1.6 -1.18 1.18 -1.39 0.7 -1.46 0.31 -1.53 -0.28 -1.53 -0.7 -1.46 -1.18 -1.39 -0.63 -0.49m-14.68 -2.85l-2.71 0.63 -2.64 1.32 -1.84 1.6 -0.9 1.88m0 0l0.97 -1.74 1.67 -1.53 2.3 -1.18 2.71 -0.83m39.24 35.07l0.07 0.28 0.14 0.49 0.07 0.28 -0.07 0.14m4.11 0.35l-1.18 0 -1.25 0.56m3.2 -0.14l0.77 0.35 0.42 0.42 0.21 0.42 0.14 0.42 0.07 0.35 0 0.21m-2.37 -2.57l0.42 0.21m-75.22 0.42l-1.39 -0.49 -1.11 0m0 0l-0.42 0.21m-0.28 0.21l-0.84 0.35 -0.42 0.42 -0.21 0.42 -0.14 0.42 -0.07 0.35 0 0.21m85.24 0.42l-1.39 -0.07 -1.46 0.42m3.48 0.07l0.9 0.49 0.49 0.42 0.28 0.42 0.14 0.49 0.07 0.35 0.07 0.28m-1.88 -2.43l-0.7 -0.42m-85.48 0.38l-1.53 -0.35 -1.32 0.07m0 0l-0.77 0.42m0.14 0l-0.9 0.49 -0.49 0.42 -0.28 0.42 -0.21 0.49 -0.07 0.35 0 0.28m81.13 -4.59l1.81 -0.97m0.7 0.35l-0.07 -0.07 -0.07 0 -0.14 -0.07 -0.07 -0.07 -0.07 0 -0.14 -0.07 -0.07 -0.07 -0.07 0m-72.37 0.07l0.7 0.42m-0.7 -0.42l-0.07 0.07 -0.07 0.07 -0.14 0 -0.07 0.07 -0.07 0.07 -0.14 0 -0.07 0.07 -0.07 0.07m85.8 5.64l-1.46 -0.21 -1.6 0.28m3.62 0.42l1.04 0.49 0.49 0.49 0.35 0.42 0.21 0.49 0.07 0.35 0.07 0.35m-2.78 -3.06l1.04 0.49 0.21 0.21m-95.95 -0.49l-1.74 -0.28 -1.39 0.21m0 0l-1.04 0.56 -0.21 0.14m0.7 -0.21l-0.97 0.49 -0.56 0.49 -0.28 0.42 -0.28 0.49 -0.07 0.35 -0.07 0.42m88.58 -9.05l1.39 -0.49 1.11 0m-2.51 0.49l-2.44 1.46m-70 -0.63l-1.32 -0.7m-2.51 -0.49l1.18 -0.07 1.32 0.56m72.5 4.87l1.67 -0.7 4.04 -1.74m0.7 0.42l-0.07 -0.07 -0.07 0 -0.07 -0.07 -0.07 -0.07 -0.07 0 -0.07 -0.07 -0.07 0 -0.07 -0.07m0 0l0 0 -0.07 -0.07 -0.07 0m-82.66 0.07l5.29 2.23 0.35 0.14m-5.64 -2.37l-0.07 0.07 -0.07 0.07 -0.07 0.07 -0.14 0.07 -0.07 0 -0.07 0.07 -0.07 0.07 -0.07 0.07m83.99 -0.14l1.53 -0.42 1.25 0.07m-2.78 0.35l-5.22 2.23 -0.83 0.35m-71.74 0.07l-2.09 -0.83 -4.11 -1.67m-2.85 -0.31l1.32 -0.07 1.53 0.42m94.84 6.47l-1.6 -0.35 -1.74 0.21m3.76 0.63l1.11 0.63 0.56 0.56 0.35 0.42 0.28 0.49 0.07 0.35 0.07 0.35 0 0.14m-2.85 -3.41l1.11 0.63 0.63 0.56m-104.03 -1.18l-1.88 -0.14 -1.53 0.35m0 0l-1.11 0.56 -0.63 0.63m1.32 -0.7l-1.11 0.56 -0.56 0.56 -0.35 0.49 -0.28 0.49 -0.14 0.35 -0.07 0.35 0 0.14 0.07 0m92.96 -4.7l4.04 -1.32 4.52 -1.39m0.49 0.49l0 -0.03 -0.07 -0.07 -0.07 -0.07 -0.07 -0.07 -0.07 0 -0.07 -0.07 -0.07 -0.07 -0.07 -0.07m-91.64 0.14l5.85 1.74 2.85 0.9m-8.7 -2.64l-0.07 0.07 -0.07 0.07 -0.07 0 -0.07 0.07 -0.07 0.07 -0.07 0.07 -0.07 0.07 -0.07 0.07m92.68 -0.14l1.74 -0.28 1.39 0.21m-3.13 0.07l-5.71 1.81 -3.2 0.97m-74.73 0.07l-4.45 -1.32 -4.59 -1.39m-3.13 -0.07l1.53 -0.21 1.6 0.28m84.75 5.43l-0.35 0.07 -0.07 0m-76.26 -0.07l0.42 0.07 0.28 0.14m93.52 1.6l-1.74 -0.42 -1.81 0m3.83 0.97l1.18 0.63 0.63 0.63 0.35 0.49 0.28 0.49 0.14 0.35 0.07 0.42 0 0.07m-2.92 -3.62l1.11 0.7 0.7 0.63 0.42 0.56 0 0.07m-110.43 -2.23l-1.95 0 -1.6 0.49m0 0l-1.18 0.7 -0.7 0.63 -0.42 0.56 0 0.14m1.95 -1.53l-1.11 0.7 -0.63 0.63 -0.42 0.42 -0.28 0.56 -0.07 0.35 -0.14 0.35 0 0.14m97.21 -5.64l6.26 -1.39 4.87 -1.04m0.42 0.49l-0.07 -0.07 -0.07 -0.07 0 -0.07 -0.07 -0.07 -0.07 -0.07 -0.07 0 -0.07 -0.07 0 -0.07m-11.13 2.43l0.07 0 0.07 0.07 0.07 0.07 0.07 0.07 0 0.07 0.07 0.07 0.07 0.07 0.07 0.07m-88.3 -2.78l6.19 1.25 4.94 1.04m-11.13 -2.3l-0.07 0.07 -0.07 0.07 -0.07 0.07 -0.07 0 0 0.07 -0.07 0.07 -0.07 0.07 -0.07 0.07m11.2 2.3l0.07 0 0 -0.07 0.07 -0.07 0.07 -0.07 0.07 -0.07 0 -0.07 0.07 -0.07 0.07 -0.07m75.57 21.5l0 -9.74m-74.42 0l0 8.63m77.72 -17.47l-0.42 0.07 -0.28 0.07m-80.44 -0.07l0.42 0.07 0.35 0.07m78.91 0.07l0.77 -0.14m0 0l0 0.07 0.07 0.07 0.07 0.07 0 0.07 0.07 0.07 0 0.07 0.07 0.07 0 0.07m9.74 -5.57l1.88 -0.14 1.46 0.28m-3.34 -0.14l-6.19 1.39 -4.87 1.04m0 0l-0.42 0.07 -0.28 0.07m0 0l-0.07 0.07m-77.86 2.43l0.77 0.14m-1.11 0.35l0.07 0 0 -0.07 0.07 -0.07 0.07 -0.07 0 -0.07 0.07 -0.07 0 -0.07 0.07 -0.07m1.04 -2.64l0.35 0.14 0.35 0.07m-0.7 -0.21l-6.26 -1.25 -4.94 -1.04m-3.34 0.21l1.6 -0.35 1.74 0.14m11.97 2.51l-0.07 0m77.17 2.5l-0.49 0.14 -0.42 0.28 -0.07 0m1.25 0.14l0 -0.07 -0.07 -0.07 0 -0.07 -0.07 -0.07 -0.07 -0.07 0 -0.07 -0.07 -0.07 0 -0.07m-77.17 0.49l-0.14 -0.07 -0.35 -0.21 -0.49 -0.14m0 0l-0.07 0.07 0 0.07 -0.07 0.07 0 0.07 -0.07 0.07 0 0.07 -0.07 0.07 -0.07 0.07m79.95 -0.9l6.61 -0.83 5.15 -0.7m0.28 0.56l0 -0.07 -0.07 -0.07 0 -0.07 -0.07 -0.07 -0.07 -0.07 0 -0.07 -0.07 -0.07 0 -0.07m-11.76 1.53l0.07 0.07 0 0.07 0.07 0.07 0.07 0.07 0 0.07 0.07 0.07 0 0.07 0.07 0.07m-93.24 -1.95l6.61 0.83 5.15 0.63m-11.76 -1.46l-0.07 0.07 0 0.07 -0.07 0.07 0 0.07 -0.07 0.07 0 0.07 -0.07 0.07 0 0.07m11.76 1.46l0 -0.07 0.07 -0.07 0 -0.07 0.07 -0.07 0.07 -0.07 0 -0.07 0.07 -0.07 0 -0.07m98.53 3.13l-1.74 -0.56 -1.95 -0.14m3.9 1.25l1.18 0.77 0.63 0.63 0.42 0.49 0.28 0.56 0.14 0.35 0.14 0.42 0 0.07m-2.99 -3.83l1.18 0.77 0.7 0.7 0.35 0.56 0.35 0.63 0.21 0.42m-22.09 9.36l0 -10.51m-77.17 0l0 9.46m-15.73 -11.97l-2.02 0.21 -1.67 0.56m0 0l-1.18 0.77 -0.7 0.7 -0.42 0.63 -0.28 0.63 -0.21 0.42m2.64 -2.54l-1.18 0.77 -0.7 0.63 -0.35 0.49 -0.35 0.56 -0.14 0.35 -0.14 0.42 0 0.07m103.05 -4.14l-0.42 0.07 -0.35 0m-83.36 0l0.42 0 0.35 0.07m81.83 0.07l0.77 -0.14m0 0l0.07 0.07 0 0.14 0.07 0.07 0 0.14 0.07 0.07 0 0.07m-82.8 -0.49l0.77 0.07m-0.97 0.49l0 -0.14 0.07 -0.07 0 -0.14 0.07 -0.07 0 -0.07 0.07 -0.07m81.83 0.07l-0.49 0.07 -0.42 0.21 -0.35 0.21 -0.28 0.28 -0.35 0.56 -0.07 0.49m2.16 -1.25l-0.07 -0.07 0 -0.14 -0.07 -0.07 0 -0.14 -0.07 -0.07 0 -0.07m-1.74 2.37l0 -0.07 -0.07 -0.07 0 -0.07 -0.07 -0.07 0 -0.14 -0.07 -0.07 0 -0.07m-77.17 0l-0.14 -0.56 -0.21 -0.35 -0.21 -0.28 -0.49 -0.35 -0.42 -0.14 -0.49 -0.14m0 0l0 0.07 -0.07 0.07 0 0.14 -0.07 0.07 0 0.14 -0.07 0.07m2.16 1.25l-0.07 0.07 0 0.17 -0.07 0.07 0 0.14 -0.07 0.07 0 0.07m76.96 -4.17l0.35 -0.35 0.35 -0.21 0.49 -0.14m-1.81 7.17l0 8.63m15.03 -17.6l1.95 0 1.6 0.42m-3.55 -0.42l-6.54 0.83 -5.15 0.7m0 0l-0.42 0.07 -0.35 0.07m0 0l-0.77 0.14m-80.23 -0.21l0.42 0.07 0.28 0m-0.7 -0.07l-6.65 -0.84 -5.15 -0.63m-3.62 0.42l1.74 -0.42 1.88 0m15.1 17.4l0 -8.59m-1.88 -7.1l0.49 0.14 0.42 0.21 0.35 0.28m-1.25 -0.63l-0.77 -0.21m79.53 10.16l0 -2.78m0 4.94l0 -1.46m-78.66 -3.37l0 2.78m81.41 -7.79l6.82 -0.35 5.36 -0.28m0.21 0.56l-0.07 -0.07 0 -0.14 -0.07 -0.07 0 -0.07 -0.07 -0.07 0 -0.14m-12.18 0.63l0.07 0.07 0 0.14 0.07 0.07 0 0.14 0.07 0.07 0 0.07m-96.58 -1.04l6.82 0.35 5.43 0.21m-12.25 -0.56l0 0.14 -0.07 0.07 0 0.14 -0.07 0.07 0 0.14m12.18 0.56l0 -0.14 0.07 -0.07 0 -0.14 0.07 -0.07 0 -0.07 0.07 -0.07m84.96 3.2l-0.77 0m-85.03 0l0.77 0m83.43 0l0.84 0m0 0l0 0.49 0.07 0.07m-84.33 -0.59l0.84 0.07m-0.9 0.49l0 -0.07 0.07 -0.07 0 -0.42m83.43 0l-0.49 0.07 -0.42 0.14 -0.42 0.28 -0.21 0.21 -0.35 0.56 -0.07 0.42m2.02 -1.11l0 -0.17 -0.07 -0.07 0 -0.28m-1.88 2.3l0 -0.07 -0.07 -0.07 0 -0.49m-78.7 0.07l-0.14 -0.63 -0.14 -0.28 -0.28 -0.28 -0.49 -0.28 -0.42 -0.14 -0.49 -0.07m0 0l0 0.21 -0.07 0.07 0 0.28m2.02 1.11l0 0.42 -0.07 0.07 0 0.07m98.39 -1.11l-1.74 -0.7 -1.95 -0.28m3.76 1.6l1.25 0.83 0.7 0.7 0.35 0.56 0.35 0.56 0.14 0.35 0.14 0.42 0 0.07m-2.99 -4.11l1.25 0.9 0.7 0.77 0.42 0.56 0.28 0.7 0.21 0.42 0.14 0.56 0 0.21m-117.25 -4.87l-2.09 0.28 -1.67 0.7m0 0l-1.25 0.9 -0.63 0.73 -0.42 0.63 -0.35 0.63 -0.14 0.49 -0.14 0.49 0 0.14 -0.07 0 0 0.07m2.92 -3.55l-1.18 0.9 -0.7 0.7 -0.42 0.49 -0.28 0.56 -0.14 0.42 -0.14 0.35 -0.07 0.14m100.82 -6.19l0.14 -0.63 0.14 -0.28 0.28 -0.28 0.49 -0.35 0.35 -0.21 0.56 -0.07m-1.95 1.81l0 8.14m15.66 -10.79l2.02 0.14 1.67 0.56m-3.69 -0.7l-6.82 0.35 -5.36 0.28m0 0l-0.42 0.07 -0.35 0m0 0l-0.77 0.14m-83.01 -0.14l0.42 0 0.35 0.07m-0.77 -0.07l-6.82 -0.28 -5.36 -0.28m-3.69 0.8l1.74 -0.63 1.95 -0.14m15.66 10.65l0 -8.18m-1.95 -1.81l0.49 0.14 0.42 0.14 0.35 0.28 0.28 0.28 0.35 0.56 0.07 0.42m-1.95 -1.81l-0.77 -0.07m84.4 2.57l6.89 0.14 5.5 0.07m0.07 0.63l-0.07 -0.07 0 -0.56m-12.39 -0.21l0 0.42 0.07 0.07 0 0.07m-98.25 -0.14l6.96 -0.21 5.43 -0.21m-12.39 0.42l0 0.35 -0.07 0.07 0 0.14m12.39 -0.42l0 -0.14 0.07 -0.07 0 -0.35m84.26 3.17l0.84 0m0.77 0.07l-0.42 0 -0.35 -0.07m0 0l0 0.14 -0.07 0.07 0 0.42m-84.33 -0.56l0.84 0m-1.6 0.07l0.49 -0.07 0.28 0m0.07 0.56l0 -0.49 -0.07 -0.07m104.23 45.23l0 -38.48m-20.67 -6.82l-0.49 0.07 -0.42 0.07 -0.42 0.21 -0.28 0.21 -0.28 0.56 -0.07 0.42m1.88 -0.97l0 -0.21 0.07 -0.07 0 -0.28m-80.78 1.6l-0.14 -0.63 -0.14 -0.28 -0.28 -0.21 -0.49 -0.28 -0.42 -0.14 -0.49 0m0 0l0 0.21 0.07 0.07 0 0.28m-20.67 44.88l0 -38.48m106.25 64.02l3.2 -2.02 2.92 -2.09 2.64 -2.23 2.3 -2.37 2.02 -2.44 1.74 -2.51 1.39 -2.57 1.04 -2.64 0.7 -2.71 0.35 -2.64 0 -1.39m-3.48 -42.86l-1.81 -0.83 -1.95 -0.42m3.69 1.81l1.25 0.9 0.63 0.77 0.42 0.56 0.35 0.63 0.14 0.35 0.14 0.42 0 0.07 0.07 0 0 0m-2.92 -4.24l1.18 0.9 0.7 0.84 0.42 0.63 0.28 0.7 0.14 0.42 0.14 0.56 0.07 0.14 0 0.07m-117.39 -5.39l-2.02 0.49 -1.67 0.77m0 0l-1.25 1.04 -0.7 0.77 -0.35 0.63 -0.35 0.7 -0.14 0.49 -0.14 0.49 0 0.21m2.99 -3.69l-1.25 0.9 -0.7 0.77 -0.42 0.56 -0.28 0.56 -0.21 0.42 -0.14 0.42 0 0.07m101.38 -7.86l0.14 -0.63 0.14 -0.28 0.28 -0.28 0.49 -0.35 0.42 -0.14 0.49 -0.07m-1.95 1.74l0 2.16m15.93 -3.62l2.02 0.28 1.67 0.7m-3.69 -0.97l-6.96 -0.21 -5.43 -0.07m0 0l-0.77 0m0 0l-0.84 0m-84.33 0l0.77 0m-0.77 0l-6.89 0.28 -5.5 0.14m-3.76 0.97l1.81 -0.7 1.95 -0.28m15.93 3.62l0 -2.3m-1.95 -1.67l0.49 0.07 0.42 0.14 0.42 0.21 0.28 0.28 0.28 0.49 0.07 0.49m-1.95 -1.67l-0.84 -0.07m82.94 5.71l0.77 0.07m-83.01 0.07l0.77 -0.14m83.01 0.21l-0.42 -0.07 -0.35 -0.07m0 0l0 0.14 -0.07 0.07 0 0.14 -0.07 0.07 0 0.07 -0.07 0.07m-83.57 -0.42l0.42 -0.07 0.35 0m0.21 0.56l-0.07 -0.07 0 -0.14 -0.07 -0.07 0 -0.14 -0.07 -0.07 0 -0.07m82.25 -0.14l-0.49 0 -0.42 0.07 -0.35 0.14 -0.28 0.21 -0.35 0.49 0 0.07m1.67 -0.42l0 -0.07 0.07 -0.07 0 -0.14 0.07 -0.07 0 -0.14 0.07 -0.07m-79.6 0.97l-0.07 -0.14 -0.14 -0.28 -0.28 -0.17 -0.49 -0.28 -0.35 -0.07 -0.56 0m0 0l0.07 0.07 0 0.14 0.07 0.07 0 0.14 0.07 0.07 0 0.07m83.5 -3.62l6.89 0.7 5.5 0.56m-0.07 0.56l0 -0.35 0.07 -0.07 0 -0.14m-12.39 -1.25l0 0.14 -0.07 0.07 0 0.35m-98.25 0.8l6.96 -0.73 5.43 -0.56m-12.39 1.29l0.07 0.07 0 0.49m12.35 -1.29l0 -0.42 -0.07 -0.07 0 -0.07m103.96 49.82l0 -38.48m-121.87 38.62l0 -38.41m100.23 -9.6l0.14 -0.56 0.14 -0.28 0.28 -0.28 0.49 -0.28 0.42 -0.07 0.49 -0.07m-1.95 1.53l0 1.39m15.93 -1.6l2.09 0.42 1.67 0.83m-3.76 -1.25l-6.96 -0.7 -5.43 -0.56m0 0l-0.77 0m0 0l-0.83 -0.07m-84.19 0.14l0.42 0 0.35 -0.07m-0.77 0.07l-6.85 0.73 -5.5 0.56m-3.69 1.32l1.74 -0.9 1.95 -0.42m15.93 1.5l0 -1.32m-1.95 -1.53l0.49 0 0.42 0.14 0.42 0.21 0.21 0.21 0.35 0.49 0.07 0.49m-1.95 -1.53l-0.84 0m81.55 5.5l0.77 0.14m17.95 0.7l-1.74 -0.97 -1.95 -0.56m3.55 2.09l1.18 1.04 0.7 0.83 0.42 0.56 0.28 0.63 0.21 0.42 0.14 0.42 0 0.07 0.07 0m-2.85 -4.52l1.18 1.11 0.7 0.83 0.35 0.63 0.35 0.7 0.14 0.49 0.14 0.56 0 0.21m-101.1 -5.15l0.77 -0.14m78.77 -0.07l-0.49 0 -0.42 0.07 -0.35 0.14 -0.28 0.14 -0.21 0.35m1.39 -0.14l0.07 -0.07 0 -0.07 0.07 -0.07 0 -0.07 0.07 -0.07 0 -0.07 0.07 -0.07 0.07 -0.07m-77.1 0.7l-0.14 -0.21 -0.21 -0.21 -0.49 -0.21 -0.35 -0.07 -0.49 0.07m0 0l0 0.07 0.07 0.07 0 0.07 0.07 0.07 0.07 0.07 0 0.07 0.07 0.07 0 0.07m79.95 -0.28l-0.42 -0.14 -0.28 -0.07m0 0l-0.07 0.07 0 0.07 -0.07 0.07 -0.07 0.07 0 0.07 -0.07 0.07 0 0.07 -0.07 0.07m-94.28 -1.18l-2.02 0.63 -1.67 0.9m0 0l-1.18 1.11 -0.63 0.83 -0.42 0.7 -0.28 0.7 -0.14 0.49 -0.14 0.49 0 0.21m2.99 -3.97l-1.18 1.04 -0.7 0.77 -0.35 0.63 -0.35 0.63 -0.21 0.42 -0.14 0.42 0 0.07 -0.07 0m20.04 -5.22l0.42 -0.07 0.35 -0.07m0.28 0.56l0 -0.07 -0.07 -0.07 -0.07 -0.07 0 -0.07 -0.07 -0.07 0 -0.07 -0.07 -0.07 0 -0.07m82.39 -2.99l6.82 1.18 5.36 0.9m-0.14 0.56l0 -0.14 0.07 -0.07 0 -0.14 0.07 -0.07 0 -0.14m-12.18 -2.09l0 0.14 -0.07 0.07 0 0.14 -0.07 0.07 0 0.07 -0.07 0.07m-96.51 1.74l6.82 -1.32 5.36 -0.97m-12.18 2.3l0.07 0.07 0 0.14 0.07 0.07 0 0.07 0.07 0.07 0 0.14m12.18 -2.3l-0.07 -0.07 0 -0.14 -0.07 -0.07 0 -0.14 -0.07 -0.07 0 -0.07m79.67 5.71l-0.49 -0.07 -0.35 0 -0.35 0.14 -0.28 0.14 -0.07 0.14m-71.74 0l0 0 -0.21 -0.21 -0.49 -0.14 -0.35 -0.07 -0.42 0.07m74.73 0l0.7 0.21m-1.18 0.28l0.07 -0.07 0.07 0 0.07 -0.07 0.07 -0.07 0 -0.07 0.07 -0.07 0.07 -0.07 0.07 -0.07m-75.5 0.28l0.77 -0.28m0 0l0 0.07 0.07 0.07 0.07 0.07 0.07 0.07 0.07 0.07 0 0.07 0.07 0.07 0.07 0.07m95.81 44.88l0 -38.48m-20.11 -6.54l-0.35 -0.14 -0.35 -0.07m0 0l-0.07 0.07 0 0.07 -0.07 0.07 -0.07 0.07 -0.07 0.07 -0.07 0.07 -0.07 0.07m-76.47 -0.21l0.42 -0.14 0.28 -0.07m0.49 0.49l-0.07 -0.07 -0.07 -0.07 -0.07 -0.07 -0.07 -0.07 0 -0.07 -0.07 -0.07 -0.07 -0.07 -0.07 0m76.68 -4.28l0.14 -0.63 0.21 -0.21 0.21 -0.28 0.49 -0.21 0.42 -0.07 0.49 0m-1.95 1.39l0 1.04m15.73 -0.14l2.02 0.63 1.67 0.9m-3.69 -1.53l-6.82 -1.18 -5.43 -0.9m0 0l-0.42 -0.07 -0.35 -0.07m0 0l-0.77 -0.07m-99.29 51l0 -38.48m16.7 -12.32l0.42 -0.07 0.35 0m-0.77 0.07l-6.82 1.25 -5.36 1.04m-3.69 1.53l1.74 -0.97 1.95 -0.56m15.66 0l0 -1.11m-1.95 -1.39l0.49 0 0.42 0.07 0.35 0.21 0.28 0.21 0.35 0.49 0.07 0.42m-1.95 -1.39l-0.77 0.14m97.55 7.51l-1.74 -1.11 -1.88 -0.7m3.27 2.3l1.18 1.18 0.7 0.83 0.42 0.63 0.28 0.63 0.21 0.42 0.14 0.42 0 0.07 0.07 0 0 0m-2.64 -4.66l1.11 1.11 0.63 0.9 0.42 0.7 0.28 0.7 0.07 0.49 0.14 0.56 0 0.21m-111.47 -6.33l-1.95 0.77 -1.6 1.04m0 0l-1.18 1.18 -0.63 0.9 -0.35 0.7 -0.28 0.77 -0.14 0.42 -0.07 0.56 0 0.21m2.92 -4.17l-1.11 1.11 -0.7 0.83 -0.42 0.63 -0.28 0.7 -0.21 0.35 -0.14 0.49 -0.07 0.07m99.64 -9.74l6.61 1.67 5.15 1.39m-0.28 0.49l0.07 -0.07 0 -0.07 0.07 -0.07 0 -0.04 0.07 0 0 -0.07 0.07 -0.07 0 -0.07m-11.76 -3.06l0 0.07 -0.07 0.07 0 0.07 -0.07 0.07 -0.07 0.07 0 0.07 -0.07 0.07 0 0.07m-93.17 2.61l6.54 -1.81 5.15 -1.39m-11.69 3.2l0 0.07 0.07 0.07 0 0.07 0.07 0.07 0.07 0.07 0 0.07 0.07 0.07 0 0.07m11.76 -3.2l-0.07 -0.07 0 -0.07 -0.07 -0.07 -0.07 -0.07 0 -0.07 -0.07 -0.07 0 -0.07 -0.07 -0.07m75.64 5.29l-0.42 -0.07 -0.42 0 -0.28 0.07 -0.21 0.14m-66.87 0l-0.14 -0.07 -0.35 -0.14 -0.35 0 -0.42 0.14m69.44 -0.07l0.63 0.28m-1.18 0.21l0.07 -0.07 0.07 -0.07 0.07 0 0.07 -0.07 0.07 -0.07 0.07 -0.07 0.07 -0.07 0.07 -0.07m-70.14 0.28l0.7 -0.21m0 0l0.07 0.07 0.07 0 0.07 0.07 0.07 0.07 0.07 0.07 0.07 0.07 0.07 0.07 0.07 0m70.21 0.07l-0.42 -0.14 -0.28 -0.14m0 0l-0.07 0.07 -0.07 0.07 -0.07 0.07 -0.07 0 -0.07 0.07 -0.07 0.07 -0.07 0.07 0 0.07m-70.9 -0.21l0.35 -0.14 0.28 -0.14m0.56 0.49l-0.07 -0.07 -0.07 0 -0.07 -0.07 -0.07 -0.07 -0.07 -0.07 -0.07 -0.07 -0.07 -0.07 -0.07 -0.07m72.57 -4.11l0.14 -0.56 0.14 -0.28 0.28 -0.21 0.49 -0.21 0.84 0m-1.88 1.25l0 1.15m18.72 45.16l0 -42.38m-3.55 -1.81l1.95 0.77 1.6 1.04m-3.55 -1.81l-6.61 -1.67 -5.15 -1.32m0 0l-0.42 -0.14 -0.35 -0.07m0 0l-0.77 -0.14m-79.6 0.35l0.42 -0.07 0.28 -0.07m-0.7 0.14l-6.61 1.81 -5.15 1.39m-3.55 1.81l1.74 -1.11 1.81 -0.7m-3.55 1.81l0 42.31m18.61 -45.3l0 -1.11m-1.88 -1.18l0.49 -0.07 0.42 0.07 0.35 0.14 0.28 0.14 0.28 0.49 0.07 0.42m-1.88 -1.18l-0.77 0.14m95.61 51.91l0 -38.41m-111.4 38.62l0 -38.48m94.42 -11.06l6.26 2.23 4.94 1.67m-11.2 -3.9l-0.07 0.07 0 0.07 -0.07 0.07 -0.07 0.07 -0.07 0.07 0 0.07 -0.07 0.07 -0.07 0m-6.89 4.31l-0.35 -0.14 -0.35 0 -0.28 0.07 -0.14 0.07m-60.75 0l0 0 -0.42 -0.14 -0.28 0.07 -0.35 0.14m-18.44 -0.83l6.19 -2.23 4.87 -1.74m0.49 0.49l-0.07 -0.07 -0.07 -0.07 -0.07 -0.07 -0.07 -0.07 -0.07 -0.07 -0.07 -0.07 -0.07 -0.07m70.28 4.73l0.63 0.35m-1.25 0.07l0.07 0 0.07 -0.07 0.07 -0.07 0.07 -0.07 0.07 0 0.14 -0.07 0.07 -0.07 0.07 -0.07m-63.53 0.35l0.63 -0.28m0 0l0.07 0 0.07 0.07 0.07 0.07 0.07 0.07 0.07 0 0.14 0.07 0.07 0.07 0.07 0.07m84.13 0.7l-1.6 -1.18 -1.74 -0.9m2.92 2.64l1.11 1.18 0.7 0.9 0.35 0.63 0.35 0.7 0.14 0.42 0.14 0.42 0.07 0.07 0 0.07m-2.43 -4.94l1.11 1.25 0.56 0.9 0.35 0.77 0.28 0.7 0.14 0.56 0.07 0.49 0 0.28 -0.07 0m-6.26 -6.47l0.07 -0.07 0.07 -0.07 0.07 -0.07 0.07 -0.07 0 -0.07 0.07 -0.07 0.07 -0.07 0.07 -0.07m-17.33 1.53l-0.28 -0.14 -0.28 -0.14m0 0l-0.07 0 -0.07 0.07 -0.14 0.07 -0.07 0.07 -0.07 0.07 -0.04 0 -0.07 0.07 -0.14 0.07m-81.27 -1.53l-1.88 0.97 -1.46 1.18m0 0l-1.11 1.25 -0.56 0.97 -0.35 0.7 -0.28 0.77 -0.07 0.49 -0.07 0.49 0 0.21m2.85 -4.38l-1.11 1.18 -0.63 0.9 -0.35 0.7 -0.35 0.63 -0.21 0.42 -0.14 0.49 -0.07 0.07 0 0m5.78 -7.03l0.07 0.07 0.07 0.07 0 0.07 0.07 0.07 0.07 0.07 0.07 0.07 0.07 0.07 0 0.07m16.84 0.9l0.28 -0.21 0.28 -0.14m0.63 0.42l-0.07 0 -0.07 -0.07 -0.07 -0.07 -0.14 -0.07 -0.07 -0.07 -0.07 0 -0.07 -0.07 -0.07 -0.07m67.22 -3.97l0.14 -0.56 0.14 -0.21 0.21 -0.21 0.49 -0.14 0.35 -0.07 0.42 0.07m-1.74 1.11l0 1.32m17.74 46.34l0 -42.31m-3.41 -2.09l1.88 0.9 1.53 1.18m-3.41 -2.09l-6.19 -2.23 -4.94 -1.74m0 0l-0.42 -0.07 -0.28 -0.14m0 0l-0.77 -0.21m-75.22 0.49l0.35 -0.14 0.35 -0.07m-0.7 0.21l-6.26 2.23 -4.87 1.81m-3.34 2.09l1.6 -1.25 1.74 -0.83m-3.34 2.09l0 42.38m17.6 -46.59l0 -1.25m-1.74 -1.11l0.42 -0.07 0.42 0 0.35 0.14 0.21 0.14 0.28 0.42 0.07 0.49m-1.74 -1.11l-0.7 0.21m65.34 6.68l-0.35 -0.14 -0.28 -0.07 -0.28 0.07m-53.58 0.07l-0.28 -0.07 -0.28 0 -0.35 0.21m55.39 -0.07l0.49 0.35m-1.25 0.07l0.07 -0.07 0.14 0 0.07 -0.07 0.07 -0.07 0.14 -0.07 0.07 0 0.07 -0.07 0.14 -0.07m-55.94 0.42l0.56 -0.35m0 0l0.07 0 0.14 0.07 0.07 0.07 0.07 0 0.14 0.07 0.07 0.07 0.07 0 0.14 0.07m55.67 0.35l-0.28 -0.21 -0.28 -0.21m0 0l-0.07 0.07 -0.07 0.07 -0.14 0.07 -0.07 0 -0.07 0.07 -0.14 0.07 -0.07 0 -0.07 0.07m-56.22 0l0.28 -0.21 0.21 -0.14m0.77 0.35l-0.07 0 -0.14 -0.07 -0.07 -0.07 -0.07 0 -0.14 -0.07 -0.07 -0.07 -0.07 0 -0.14 -0.07m64.29 -4.59l5.78 2.64 4.59 2.09m-10.37 -4.73l-0.07 0.07 -0.07 0.07 -0.07 0 -0.07 0.07 -0.07 0.07 -0.07 0.07 -0.07 0.07 -0.07 0.07m-81.76 4.38l5.71 -2.71 4.52 -2.16m0.56 0.49l-0.07 -0.07 -0.07 0 -0.07 -0.07 -0.07 -0.07 -0.07 -0.07 -0.07 -0.07 -0.07 -0.07 -0.07 -0.07m87.74 50.59l0 -38.48m-103.33 0.21l0 38.41m75.01 -44.6l-0.28 -0.14 -0.21 -0.07 -0.21 0m-45.44 0l-0.21 0 -0.21 0.07 -0.28 0.21m72.99 0.83l-1.53 -1.32 -1.6 -0.97m2.57 2.78l1.04 1.32 0.63 0.9 0.35 0.7 0.28 0.7 0.21 0.42 0.14 0.49 0.07 0.07m-2.16 -5.08l0.97 1.32 0.56 0.97 0.28 0.77 0.28 0.77 0.07 0.49 0.07 0.56 0 0.21 -0.07 0m-5.85 -6.89l0.07 -0.07 0.07 -0.07 0.07 -0.07 0.07 -0.07 0.07 -0.07 0.07 0 0.07 -0.07 0.07 -0.07m-92.68 0.14l-1.74 1.04 -1.39 1.32m0 0l-1.04 1.32 -0.49 0.97 -0.35 0.77 -0.21 0.77 -0.07 0.49 -0.07 0.56 0 0.21m2.78 -4.66l-1.04 1.32 -0.63 0.9 -0.35 0.7 -0.28 0.7 -0.21 0.42 -0.14 0.49 -0.07 0.07 0 0.07 -0.07 0m5.36 -7.45l0 0.07 0.07 0 0.07 0.07 0.07 0.07 0.07 0.07 0.07 0.07 0.07 0.07 0.07 0.07m69.16 0.77l0.49 0.42m-1.25 -0.07l0.07 -0.07 0.14 0 0.07 -0.07 0.14 0 0.07 -0.07 0.14 -0.07 0.07 0 0.07 -0.07m-47.25 0.42l0.42 -0.35m0 0l0.14 0 0.07 0.07 0.14 0 0.07 0.07 0.14 0 0.07 0.07 0.14 0.07 0.07 0m55.11 -5.57l0.14 -0.56 0.14 -0.21 0.21 -0.21 0.42 -0.07 0.35 0 0.42 0.07m-1.67 0.97l0 1.6m16.49 47.32l0 -42.31m-3.13 -2.3l1.74 1.04 1.39 1.25m-3.13 -2.3l-5.85 -2.64 -4.52 -2.09m0 0l-0.35 -0.21 -0.28 -0.07m0 0l-0.7 -0.28m-69.65 0.56l0.35 -0.14 0.28 -0.14m-0.63 0.28l-5.77 2.71 -4.52 2.16m-3.06 2.3l1.46 -1.32 1.6 -0.97m-3.06 2.3l0 42.38m16.28 -47.46l0 -1.64m-1.6 -0.97l0.42 -0.07 0.35 0 0.28 0.07 0.21 0.14 0.28 0.42 0.07 0.42m-1.6 -0.97l-0.7 0.28m59.14 6.75l-0.21 -0.28 -0.21 -0.14m0 0l-0.07 0 -0.14 0.07 -0.07 0.07 -0.14 0 -0.07 0.07 -0.14 0 -0.07 0.07 -0.14 0m-47.32 0.14l0.21 -0.21 0.21 -0.21m0.83 0.35l-0.14 -0.07 -0.07 0 -0.14 -0.07 -0.07 -0.07 -0.14 0 -0.07 -0.07 -0.14 0 -0.07 -0.07m56.5 -3.97l5.29 3.06 4.11 2.44m-9.39 -5.5l-0.07 0.07 -0.07 0.07 -0.07 0.07 -0.07 0 -0.14 0.07 -0.07 0.07 -0.07 0.07 -0.07 0m-73.97 5.22l5.22 -3.13 4.11 -2.44m0.63 0.42l-0.07 0 0 -0.07 -0.07 0m0 0l-0.07 -0.07 -0.07 -0.07 -0.07 0 -0.07 -0.07 -0.07 0 -0.07 -0.07 -0.07 -0.07m51.35 5.08l-0.21 -0.21 -0.21 -0.07 -0.07 0m-36.46 0.07l-0.14 -0.07 -0.21 0.07 -0.21 0.21m37.5 0l0.42 0.42m-1.25 -0.14l0.07 -0.07 0.28 0 0.07 -0.07 0.14 0 0.07 -0.07 0.14 0 0.07 -0.07m-37.85 0.49l0.35 -0.49m0 0l0.14 0.07 0.07 0 0.14 0.07 0.14 0 0.07 0.07 0.14 0 0.07 0.07 0.14 0m37.37 0.56l-0.21 -0.21 -0.14 -0.21m-0 0l-0.14 0.07 -0.07 0 -0.14 0.07 -0.14 0 -0.07 0.07 -0.21 0 -0.14 0.07m-37.71 0.21l0.21 -0.28 0.14 -0.14m0.9 0.21l-0.14 0 -0.07 -0.07 -0.14 0 -0.07 -0.07 -0.14 0 -0.14 -0.07 -0.21 0m65.96 46.06l0 -38.41m-33.05 -6.89l-0.14 -0.21 -0.14 -0.14 -0.14 0m-26.79 0.07l-0.07 0 -0.14 0.07 -0.14 0.21m-32.84 45.44l0 -38.41m75.91 -12.73l0.14 -0.56 0.14 -0.21 0.14 -0.14 0.42 -0.14 0.28 0 0.42 0.14m-1.53 0.9l0 2.09m14.96 48.01l0 -42.31m-2.85 -2.57l-5.29 -3.06 -4.11 -2.44m0 0l-0.35 -0.14 -0.28 -0.14m0 0l-0.56 -0.35m-62.83 0.7l0.35 -0.21 0.21 -0.14m-0.56 0.35l-5.22 3.13 -4.04 2.44m-2.85 2.57l0 42.31m14.75 -48.08l0 -2.16m-1.46 -0.83l0.35 -0.14 0.35 -0.07 0.28 0.07 0.21 0.14 0.21 0.42 0.07 0.42m-1.46 -0.83l-0.63 0.28m45.23 6.26l0.28 0.42m-1.18 -0.21l0.07 -0.07 0.28 0 0.07 -0.07 0.28 0 0.07 -0.07 0.14 0m-27.83 0.49l0.28 -0.49m0 0l0.14 0 0.07 0.07 0.28 0 0.07 0.07 0.28 0 0.07 0.07m57.13 1.88l0.97 1.39 0.49 0.97 0.35 0.7 0.35 0.7 0.14 0.49 0.14 0.42 0.07 0.14 0.07 0m-1.95 -5.22l0.9 1.32 0.49 1.04 0.28 0.77 0.21 0.77 0.07 0.56 0 0.77m-1.95 -5.22l-1.32 -1.46 -1.53 -1.11m-0.63 0.42l0.07 -0.07 0.07 0 0.07 -0.07 0.14 -0.07 0.07 -0.07 0.07 0 0.07 -0.07 0.07 -0.07m-0.63 0.42l1.53 1.18 1.32 1.39m-88.37 0.14l1.39 -1.46 1.46 -1.11m-0.14 -0.07l0.07 0 0 0.07 0.07 0m-0.7 -0.42l0.07 0 0.07 0.07 0.07 0.07 0.07 0 0.07 0.07 0.07 0 0.07 0.07 0.07 0.07m-0.56 -0.35l-1.53 1.18 -1.25 1.39m0 0l-0.9 1.39 -0.49 1.04 -0.28 0.77 -0.14 0.77 -0.07 0.49 -0.07 0.56 0 0.14 0.07 0.07m0 0l0 0 0.07 -0.07 0.07 -0.14 0.14 -0.35 0.21 -0.7m0 0l0.9 -1.81 1.11 -1.74m52.67 -1.39l-0.07 -0.21 -0.14 -0.14m-16.7 0.07l-0.07 -0.07 -0.07 0.14 -0.07 0.21m22.82 0.07l-0.14 -0.28 -0.07 -0.21m0 0l-0.14 0.07 -0.21 0 -0.14 0.07 -0.21 0 -0.14 0.07 -0.14 0m-27.35 0.28l0.14 -0.28 0.07 -0.14m0.97 0.14l-0.28 0 -0.07 -0.07 -0.28 0 -0.07 -0.07 -0.28 0m17.26 0.83l-0.07 -0.28 0 -0.07m-6.26 0l0 0 -0.07 0.07 0 0.28m11.76 -0.49l0.14 0.49m-1.11 -0.35l0.14 0 0.14 -0.07 0.49 0 0.07 -0.07 0.14 0m-17.26 0.49l0.14 -0.49m0 0l0.14 0 0.07 0.07 0.49 0 0.14 0.07 0.14 0m36.32 -5.01l4.59 3.41 3.62 2.71m-8.21 -6.12l-0.14 0 -0.07 0.07 -0.07 0.07 -0.07 0 -0.14 0.07 -0.07 0.07 -0.07 0 -0.14 0.07m-64.78 5.91l4.52 -3.55 3.55 -2.71m0.77 0.35l-0.14 0 -0.07 -0.07 -0.07 -0.07 -0.14 0 -0.07 -0.07 -0.07 -0.07 -0.14 0 -0.07 -0.07m31.94 5.36l0.07 0.42m-1.04 -0.42l0.97 0m-6.47 0.42l0.07 -0.42m0 0l0.97 0m11.13 0.42l-0.14 -0.21 -0.07 -0.21m0 0l-0.35 0 -0.14 0.07 -0.49 0m-16.56 0.42l0.07 -0.28 0.07 -0.21m0.97 0.07l-0.49 0 -0.14 -0.07 -0.35 0m12.04 0.9l-0.07 -0.28 0 -0.21m0 0l-0.28 0 -0.14 0.07 -0.56 0m-5.57 0.42l0 -0.49m0.97 0.07l-0.56 0 -0.14 -0.07 -0.28 0m28.88 -5.36l0.07 -0.56 0.14 -0.21 0.21 -0.14 0.28 -0.07 0.28 0 0.35 0.21m-1.32 0.77l0 2.85m10.65 3.2l-4.66 -3.41 -3.62 -2.71m0 0l-0.28 -0.21 -0.21 -0.14m0 0l-0.56 -0.35m-54.9 0.7l0.28 -0.21 0.21 -0.14m-0.49 0.35l-4.52 3.55 -3.62 2.71m10.44 -3.27l0 -2.92m-1.25 -0.77l0.28 -0.14 0.28 -0.07 0.28 0.07 0.14 0.07 0.21 0.42 0.07 0.42m-1.25 -0.77l-0.56 0.35m66.24 51.56l0 -42.31m2.3 43.42l0 -38.41m-81.9 38.55l0 -38.41m2.3 -5.01l0 42.31m77.31 -42.45l0.83 1.46 0.49 0.97 0.28 0.77 0.28 0.77 0.14 0.42 0.21 0.49 0 0.07 0.07 0.07m-1.6 -5.43l0.83 1.46 0.42 1.04 0.21 0.84 0.14 0.77 0.07 0.49 0 0.77 -0.07 0 0 0.07m-1.6 -5.43l-1.18 -1.53 -1.32 -1.18m-0.7 0.35l0.07 0 0.07 -0.07 0.14 -0.07 0.07 0 0.07 -0.07 0.14 -0.07 0.07 0 0.07 -0.07m-0.7 0.35l1.39 1.32 1.11 1.46m-14.47 -7.24l3.9 3.76 3.06 2.92m-6.96 -6.68l-0.07 0 -0.14 0.07 -0.07 0 -0.14 0.07 -0.07 0 -0.14 0.07 -0.07 0.07 -0.14 0m-62.76 6.68l-0.77 1.53 -0.42 1.04 -0.21 0.77 -0.14 0.83 -0.07 0.49 0 0.7 0.07 0.07m2.3 -5.01l-0.83 1.39 -0.49 1.04 -0.28 0.7 -0.28 0.77 -0.14 0.49 -0.21 0.49 -0.07 0.07 0 0.07m2.3 -5.01l1.18 -1.6 1.25 -1.18m-0.7 -0.35l0.07 0 0.07 0.07 0.14 0.07 0.07 0 0.07 0.07 0.14 0.07 0.07 0 0.07 0.07m-0.7 -0.35l-1.39 1.25 -1.11 1.46m8.21 -0.21l3.83 -3.76 2.99 -2.99m0.83 0.28l-0.14 0 -0.07 -0.07 -0.14 0 -0.07 -0.07 -0.14 0 -0.07 -0.07 -0.14 -0.07 -0.07 0m45.78 0.14l0.07 -0.49 0.07 -0.21 0.14 -0.14 0.28 -0.07 0.28 0.07 0.28 0.21m-1.11 0.63l0 4.11m8.98 2.78l-3.9 -3.76 -3.13 -2.99m0 0l-0.21 -0.21 -0.21 -0.21m0 0l-0.42 -0.35m-46.06 0.77l0.21 -0.21 0.21 -0.14m-0.42 0.35l-3.83 3.83 -2.99 2.99m8.77 -2.64l0 -4.24m-1.11 -0.7l0.28 -0.21 0.21 -0.07 0.21 0.07 0.14 0.07 0.21 0.35 0.07 0.49m-1.11 -0.7l-0.42 0.42m42.52 1.67l3.13 4.04 2.43 3.2m-5.57 -7.24l-0.14 0.07 -0.07 0 -0.14 0.07 -0.14 0 -0.07 0.07 -0.14 0 -0.07 0.07 -0.14 0m13.99 50.38l0 -42.31m2.09 43.56l0 -38.41m-59.49 -6.19l2.99 -4.11 2.37 -3.13m0.9 0.21l-0.14 0 -0.07 -0.07 -0.14 0 -0.07 -0.07 -0.28 0 -0.07 -0.07 -0.14 0m81.41 16.98l0.28 1.04 0.35 2.71 0 2.71 -0.35 2.71 -0.7 2.64 -1.04 2.64 -1.39 2.57 -1.74 2.51 -2.02 2.44 -2.3 2.37 -2.64 2.23 -2.92 2.09 -3.2 2.02m16.7 -23.17l0.49 0 0.35 -0.07 0.14 0 0 -0.07 0.07 0m-3.13 4.66l1.04 0.07 0.9 0 0.07 -0.07 0.07 0m-5.08 4.24l1.88 0.28 0.49 0.07 0.56 0 0 -0.07 0.07 0m-3.06 -0.28l0.07 0m-0.14 4.59l0.07 0m-2.92 -0.49l1.81 0.42 0.49 0.14 0.56 0 0 -0.07m-3.97 -0.84l1.11 0.35m-1.18 4.59l0.07 -0.07m-2.78 -0.7l1.67 0.63 0.49 0.07 0.28 0.07 0.28 0m-4.87 -1.53l2.16 0.77m-2.16 4.45l0 0 0 -0.07m-2.57 -0.83l1.53 0.7 0.42 0.14 0.35 0.14 0.21 0 0.07 -0.07m-5.71 -2.44l3.13 1.53m-3.2 4.24l0.07 0 0 -0.07m-2.37 -1.04l1.32 0.83 0.42 0.21 0.28 0.07 0.28 0m-6.33 -3.69l4.04 2.57m-4.11 3.97l0 0 0.07 -0.07m-2.16 -1.18l1.18 0.9 0.35 0.21 0.28 0.14 0.28 0m-6.96 -5.36l4.87 4.11m-67.08 1.22l0 0 0.07 0.07 0 0.07 0.07 0m2.02 -1.25l4.87 -4.31m-13.36 2.71l0.28 0 0.35 -0.14 0.56 -0.28 1.11 -0.7m-2.37 1.04l0 0 0 0.07 0.07 0m2.3 -1.11l4.04 -2.71m-12.11 0.49l0.07 0.07 0.21 0 0.42 -0.14 0.56 -0.21 1.25 -0.63m-2.57 0.83l0 0 0 0.07 0.07 0m2.51 -0.9l3.2 -1.6m-10.72 -1.18l0.07 0 0.07 0.07 0.14 0 0.49 -0.07 0.63 -0.21 1.39 -0.49m-2.78 0.63l0 0.07m2.78 -0.7l2.16 -0.9m-8.98 -2.44l0.07 0 0.07 0.07 0.14 0 0.42 -0.07 0.7 -0.14 1.46 -0.35m-2.85 0.42l0 0 0 0.07m2.85 -0.49l1.18 -0.35m-7.17 -3.48l0.07 0 0.07 0.07 0.56 0 0.7 -0.14 1.53 -0.28m0 0l0.21 0m-5.29 -4.21l0.07 0.07 0.07 0.07 1.25 0 0.77 -0.07m-3.2 -4.66l0 0 0 0.07 0.21 0 0.42 0.07 0.42 0m48.15 21.99l0 0m-49.89 -22.2l0.07 1.39 0.35 2.64 0.7 2.71 1.04 2.64 1.39 2.57 1.74 2.51 2.02 2.44 2.3 2.37 2.64 2.23 2.92 2.09 3.2 2.02m0 0l3.41 1.81 3.69 1.67 3.9 1.53 4.04 1.39 4.24 1.11 4.31 1.04 4.52 0.77 4.52 0.63 4.66 0.35 4.66 0.21 4.66 0 4.66 -0.21 4.66 -0.35 4.52 -0.63 4.52 -0.77 4.31 -1.04 4.24 -1.11 4.04 -1.39 3.9 -1.53 3.69 -1.67 3.41 -1.81m0 -2.44l0 2.44m0 -2.44l-3.41 1.81 -3.69 1.74 -3.9 1.46 -4.04 1.39 -4.24 1.18 -4.31 0.97 -4.52 0.77 -4.52 0.63 -4.66 0.42 -4.66 0.21 -4.66 0 -4.66 -0.21 -4.66 -0.42 -4.52 -0.63 -4.52 -0.77 -4.31 -0.97 -4.24 -1.18 -4.04 -1.39 -3.9 -1.46 -3.69 -1.74 -3.41 -1.81m0 0l-3.2 -2.02 -2.92 -2.09 -2.64 -2.23 -2.3 -2.37 -2.02 -2.44 -1.74 -2.5 -1.39 -2.57 -1.04 -2.64 -0.7 -2.64 -0.35 -2.71 0 -2.71 0.35 -2.71 0.21 -0.97m27.69 34.93l0 -38.41m0 38.41l0.28 0 0.35 -0.21 0.42 -0.28 0.97 -0.77m0 -42.38l0 42.38m64.92 -42.45l0.7 1.46 0.49 1.11 0.21 0.7 0.28 0.77 0.14 0.49 0.14 0.49 0.07 0.07 0 0.07 0.07 0m-1.25 -5.5l0.63 1.53 0.35 1.04 0.21 0.83 0.07 0.77 0.07 0.56 0 0.56 -0.07 0.14 0 0.07m-1.25 -5.5l-1.04 -1.6 -1.11 -1.32m-0.77 0.35l0.07 -0.07 0.14 0 0.07 -0.07 0.14 -0.07 0.07 0 0.14 -0.07 0.07 0 0.07 -0.07m-0.77 0.35l1.11 1.32 0.97 1.6m-65.76 -0.21l-0.63 1.53 -0.35 1.11 -0.14 0.77 -0.14 0.77 -0.07 0.56 0.07 0.56 0 0.21 0.07 0m2.02 -5.22l-0.7 1.53 -0.42 1.04 -0.28 0.77 -0.21 0.77 -0.21 0.42 -0.14 0.49 -0.07 0.14 0 0.07m2.02 -5.22l0.97 -1.6 1.11 -1.32m-0.83 -0.35l0.07 0.07 0.14 0.07 0.07 0 0.14 0.07 0.07 0 0.14 0.07 0.07 0 0.14 0.07m-0.83 -0.35l-1.18 1.39 -0.9 1.6m47.46 -6.82l2.3 4.24 1.81 3.27m-4.11 -7.52l-0.21 0 -0.14 0.07 -0.21 0 -0.14 0.07 -0.21 0m-31.52 7.45l2.16 -4.24 1.74 -3.34m0.9 0.21l-0.14 -0.07 -0.21 0 -0.14 -0.07 -0.21 0 -0.14 -0.07 -0.07 0m31.24 -1.32l0.07 -0.49 0.07 -0.21 0.14 -0.14 0.21 0 0.21 0.07 0.21 0.21m-0.9 0.56l0 6.26m3.27 40.22l5.57 6.4m-1.67 -45.44l-3.13 -4.04 -2.44 -3.13m0 0l-0.21 -0.28 -0.14 -0.14m0 0l-0.35 -0.42m-36.46 0.83l0.21 -0.21 0.14 -0.21m-0.35 0.42l-2.99 4.11 -2.44 3.13m-1.6 45.44l5.64 -6.68m2.92 -39.59l0 -6.68m-0.83 -0.56l0.21 -0.21 0.21 -0.07 0.14 0 0.14 0.07 0.14 0.35 0 0.42m-0.83 -0.56l-0.35 0.42m45.85 54.41l0 0 0.07 -0.07 0 -0.07m-1.88 -1.25l0 -42.31m0 42.31l0.97 0.97 0.28 0.28 0.28 0.14 0.28 0m0 0l0 -38.41m-55.11 38.34l0 0 0 0.07 0.07 0.07 0.07 0m0 0l0 -38.41m0 38.41l0.07 0.07 0.07 0 0.07 -0.07 0.07 0 0.28 -0.21 0.42 -0.35 0.77 -0.83m0 -42.31l0 42.31m34.51 -50.79l1.39 4.38 1.11 3.48m-2.51 -7.86l-0.14 0.07 -0.49 0 -0.14 0.07 -0.21 0m-19.14 7.72l1.32 -4.38 1.04 -3.41m0.9 0.07l-0.35 0 -0.07 -0.07 -0.49 0m34.65 8.35l0.63 1.53 0.35 1.11 0.21 0.77 0.21 0.77 0.14 0.49 0.14 0.49 0.07 0.07 0 0.07 0.07 0m-0.9 -5.57l0.56 1.53 0.21 1.11 0.14 0.83 0.07 0.77 0 1.11 -0.07 0.14 0 0.07m-0.9 -5.57l-0.77 -1.74 -0.9 -1.32m-0.9 0.21l0.21 0 0.14 -0.07 0.14 0 0.07 -0.07 0.14 0 0.07 -0.07 0.14 0m-0.9 0.21l0.97 1.46 0.7 1.67m-52.33 -0.21l-0.49 1.6 -0.28 1.11 -0.14 0.77 -0.07 0.83 0 0.49 0.07 0.56 0 0.21 0.07 0m1.74 -5.29l-0.56 1.53 -0.35 1.04 -0.21 0.77 -0.21 0.83 -0.14 0.49 -0.21 0.49 0 0.14 -0.07 0m1.74 -5.29l0.77 -1.74 0.83 -1.39m-0.83 -0.21l0.07 0 0.14 0.07 0.07 0 0.14 0.07 0.14 0 0.07 0.07 0.21 0m-0.83 -0.21l-0.9 1.46 -0.77 1.6m29.85 -7.72l0.49 4.45 0.42 3.48m-0.9 -7.93l-0.77 0 -0.14 0.07 -0.14 0m-6.33 7.86l0.42 -4.45 0.35 -3.48m0.97 0.07l-0.28 0 -0.14 -0.07 -0.56 0m15.45 -1.53l0.07 -0.49 0.07 -0.21 0.07 -0.14 0.14 0 0.14 0.07 0.21 0.28m-0.7 0.49l0 12.39m0.28 30.83l6.19 10.23m-1.18 -45.51l-2.3 -4.24 -1.81 -3.34m0 0l-0.14 -0.21 -0.14 -0.21m0 0l-0.21 -0.42m-26.23 0.9l0.14 -0.28 0.14 -0.21m-0.28 0.49l-2.16 4.24 -1.74 3.34m-1.18 45.51l5.5 -9.53m0.7 -2.78l0 -41.19m-0.63 -0.49l0.21 -0.21 0.07 -0.14 0.14 0 0.07 0.07 0.14 0.35 0 0.42m-0.63 -0.49l-0.21 0.42m33.19 55.04l0.07 0 0 -0.07 0.07 0 0 -0.14m-1.6 -1.32l0 -42.31m0 42.31l0.77 1.04 0.21 0.28 0.21 0.14 0.07 0.07 0.21 0m0 0l0 -38.41m-40.08 38.27l0 0.14 0.07 0 0 0.07 0.07 0m0 0l0 -38.41m0 38.41l0.21 0 0.07 -0.07 0.28 -0.21 0.28 -0.35 0.56 -0.9m0 -42.31l0 42.31m23.03 -11.9l1.11 -0.07 1.46 -0.14m-9.25 0.35l4.17 0m-9.32 -0.35l2.23 0.21 0.77 0.07m22.89 -30.55l0.49 1.6 0.28 1.11 0.14 0.77 0.21 0.77 0.07 0.49 0.14 0.49 0.07 0.14 0 0.07 0.07 0m-0.49 -5.64l0.35 1.6 0.21 1.11 0.07 0.83 0 1.32 -0.07 0.56 0 0.14 -0.07 0 0 0.07m-0.49 -5.64l-0.63 -1.74 -0.63 -1.46m-0.9 0.21l0.07 0 0.14 -0.07 0.21 0 0.14 -0.07 0.21 0 0.14 -0.07m-0.9 0.21l0.63 1.53 0.56 1.67m-11.48 -10.37l0.07 -0.56 0 -0.14 0.07 -0.14 0.07 0 0.14 0.07 0.07 0.28m-0.42 0.49l0 42.65m0 0l4.04 11.2m-0.77 -45.65l-1.39 -4.38 -1.11 -3.41m0 0l-0.14 -0.28 -0.07 -0.21m0 -0l-0.14 -0.42m-26.93 10.72l-0.35 1.6 -0.21 1.11 -0.07 0.83 0 1.32 0.07 0.56 0 0.14 0.07 0.07m1.39 -5.43l-0.42 1.53 -0.28 1.11 -0.14 0.77 -0.21 0.83 -0.07 0.49 -0.14 0.49 -0.07 0.14 -0.07 0.07m1.39 -5.43l0.56 -1.81 0.63 -1.39m-0.9 -0.21l0.07 0.07 0.28 0 0.07 0.07 0.35 0 0.14 0.07m-0.9 -0.21l-0.7 1.53 -0.49 1.67m11.41 -9.81l0.14 -0.28 0.07 -0.21m-0.21 0.49l-1.25 4.38 -1.04 3.48m-0.7 45.58l3.69 -11.2m0 0l0 -42.65m-0.14 -0.84l0.07 0.07 0.07 0.35 0 0.42m-0.35 -0.49l0.07 -0.21 0.07 -0.14 0.07 0m-0.21 0.35l-0.14 0.42m9.81 0.42l0 -0.84 0.07 0 0 0.14 0.07 0.21m-0.14 0.49l0 42.65m0 0l1.39 11.41m-0.21 -45.65l-0.56 -4.45 -0.42 -3.48m0 0l0 -0.49m0 0l-0.07 -0.49m-4.52 0.97l0 -0.49m0 0.49l-0.42 4.45 -0.35 3.48m-0.21 45.65l1.18 -11.41m0 0l0 -42.65m-0.07 -0.84l0 0.07 0.07 0.35 0 0.42m-0.14 -0.49l0 -0.21 0.07 -0.14m-0.07 0.35l-0.07 0.49m14.54 55.11l0.07 0 0.07 -0.07 0.07 -0.07 0 -0.28m-1.25 -1.18l0 -42.38m0 42.38l0.49 1.04 0.14 0.28 0.21 0.21 0.07 0 0 0.07 0.14 0m0 0l0 -38.48m-24.42 38.13l0 0.21 0.07 0.07 0 0.07 0.14 0m0 0l0 -38.41m0 38.41l0.21 0 0 -0.07 0.28 -0.21 0.21 -0.42 0.35 -0.9m0 -42.31l0 42.31m22.13 -42.38l0.28 1.6 0.21 1.18 0.14 0.77 0.14 0.83 0.07 0.49 0.14 0.49 0 0.14 0.07 0m-0.07 -5.64l0.21 1.6 0.07 1.18 0 2.16 -0.07 0.56 -0.07 0.14 -0.07 0m-0.07 -5.64l-0.35 -1.74 -0.42 -1.46m-0.97 0.07l0.35 0 0.14 -0.07 0.49 0m-0.97 0.07l0.42 1.6 0.35 1.67m-23.1 -0.07l-0.21 1.6 -0.07 1.18 0 2.16 0.07 0.49 0.07 0.14 0 0.07 0.07 0m1.04 -5.5l-0.28 1.53 -0.14 1.18 -0.14 0.77 -0.14 0.83 -0.14 0.49 -0.14 0.49 0 0.14 -0.07 0.07m1.04 -5.5l0.35 -1.81 0.35 -1.46m-0.97 -0.14l0.14 0 0.14 0.07 0.49 0 0.07 0.07 0.14 0m-0.97 -0.14l-0.35 1.6 -0.35 1.67m16.07 44.67l0.07 0 0.07 -0.07 0.07 0 0 -0.07 0.14 -0.28 0.07 -0.42 -0.07 -0.07m-1.04 -0.77l0.28 1.11 0.07 0.28 0.14 0.14 0.07 0.07 0.07 0 0.07 0.07m0 -38.48l0 38.48m-0.7 -1.67l0 -42.38m-7.72 43.07l0 0.35 0.07 0.35 0.07 0.14 0 0.07 0.07 0 0.07 0.07 0.07 0m0 -38.41l0 38.41m0 0l0.07 0 0.07 -0.07 0.07 0 0.14 -0.28 0.14 -0.42 0.14 -0.9m0 -42.38l0 42.38m6.75 -42.38l0.14 1.67 0.14 1.11 0.07 0.83 0.07 0.77 0.07 0.49 0.14 0.56 0.07 0.14m0.35 -5.57l0 3.55 -0.07 0.77 -0.07 0.56 -0.07 0.56 -0.07 0.14 -0.07 0m0.35 -5.57l-0.14 -1.81 -0.14 -1.53m-0.97 0.07l0.35 0 0.14 -0.07 0.49 0m-0.97 0.07l0.14 1.53 0.07 1.74m-7.72 0l0 3.62 0.07 0.77 0.07 0.49 0.07 0.56 0.07 0.14 0 0.07 0.07 0m0.63 -5.64l-0.07 1.6 -0.07 1.18 -0.14 0.77 -0.07 0.84 -0.07 0.49 -0.14 0.56 0 0.14 -0.07 0 0 0.07m0.63 -5.64l0.14 -1.81 0.07 -1.46m-0.97 -0.07l0.28 0 0.14 0.07 0.56 0m-0.97 -0.07l-0.07 1.6 -0.14 1.74m65.83 19.34l0.28 -0.97 0.7 -2.64 0.42 -2.71 0 -1.39m-0.49 -5.57l0.07 0.56 0.42 2.71 0 2.71 -0.42 2.71 -0.7 2.64 -1.04 2.64 -1.39 2.64 -1.67 2.51 -2.09 2.44 -2.37 2.37 -2.64 2.3 -2.92 2.09 -3.2 2.02m-107.57 -24.81l0 1.39 0.35 2.71 0.77 2.64 0.28 0.9m21.85 19.62l-1.32 -0.7 -3.48 -1.81 -3.2 -2.02 -2.92 -2.09 -2.64 -2.3 -2.37 -2.37 -2.09 -2.43 -1.67 -2.51 -1.39 -2.64 -1.08 -2.61 -0.77 -2.64 -0.35 -2.71 0 -2.71 0.35 -2.71 0.14 -0.63m107.09 30.41l-3.48 1.81 -1.67 0.83m-52.4 -6.05l0.07 0.35m-0.07 -0.77l0.07 0.35m-0.07 -0.77l0.07 0.35m-0.07 -0.7l0.07 0.28m-0.07 -0.7l0.07 0.28m0 1.67l0.21 0.28 0.42 0.21 0.14 0m-0.83 -2.85l0.07 0.35m-0.07 1.6l0 0 0 -0.07m0.07 0.35l-0.07 -0.28m0.83 0.77l-0.14 -0.07 -0.42 -0.21 -0.21 -0.21m0.77 0.35l-0.35 -0.21 -0.14 -0.14m-0.28 -0.28l0.21 0.28 0.42 0.21 0.14 0m-0.77 -0.63l0 0.14m-0.07 -2.37l0.07 0.35m-0.07 1.6l0 0m0.07 0.28l-0.07 -0.28m0.83 0.77l-0.14 0 -0.42 -0.21 -0.21 -0.28m0.77 0.35l-0.35 -0.14 -0.14 -0.14m-0.28 -0.35l0.21 0.28 0.42 0.21 0.14 0.07m-0.77 -0.7l0 0.14m-0.07 -2.3l0.07 0.28m-0.07 -0.28l0 0m0 1.95l0 -0.07m0.07 0.28l-0.07 -0.21m0.83 0.7l-0.14 0 -0.42 -0.21 -0.21 -0.28m0.77 0.35l-0.35 -0.14 -0.14 -0.14m-0.28 -0.35l0.21 0.28 0.42 0.21 0.14 0.07m-0.77 -0.7l0 0.14m-0.07 -0.35l0 -0.07m0.07 0.28l-0.07 -0.21m0.83 0.7l-0.14 0 -0.42 -0.21 -0.21 -0.28m0.77 0.35l-0.35 -0.14 -0.14 -0.14m-0.28 -2.16l0 0.14 0.07 0.21m-0.07 1.46l0.21 0.35 0.42 0.21 0.14 0m-0.77 -0.63l0 0.07m-0.07 -0.35l0 0 0 -0.07m0.07 0.35l-0.07 -0.28m0.83 0.77l-0.14 -0.07 -0.42 -0.21 -0.21 -0.21m0.77 0.28l-0.35 -0.14 -0.14 -0.14m-0.24 -0.28l0.21 0.28 0.42 0.21 0.14 0m-0.77 -0.63l0 0.14m0.21 -0.97l0.35 0.21m-0.63 0.35l0 0 0 -0.07m0.07 0.35l-0.07 -0.28m0.84 0.77l-0.14 -0.07 -0.42 -0.21 -0.21 -0.21m0.77 0.35l-0.35 -0.21 -0.14 -0.14m-0.28 -0.28l0.21 0.28 0.42 0.21 0.14 0m-0.77 -0.63l0 0.14m0.14 -1.39l0 0 0 0.28m-0.21 0.7l0 0m0.07 0.28l-0.07 -0.28m0.84 0.77l-0.14 0 -0.42 -0.21 -0.21 -0.28m0.77 0.35l-0.35 -0.14 -0.14 -0.21m-0.28 -0.28l0.21 0.28 0.35 0.21 0.21 0.07m-0.77 -0.7l0 0.14m0.77 0.21l-0.35 -0.14 -0.14 -0.14m-0.35 -0.21l0.07 -0.21m0 0.35l-0.07 -0.14m0.07 0.14l0.14 0.21 0.35 0.21 0.28 0.07m-0.7 -0.63l0.07 -0.21m-0.07 0.21l0.07 0.07 0.07 0.07m0.35 0.21l-0.21 -0.07 -0.14 -0.14m0.35 0.21l0.21 0.07m-0.63 -0.63l-0.07 -0.28m0.7 0.7l-0.07 -0.07 -0.35 -0.14 -0.14 -0.07 -0.07 -0.14m0.63 0.28l-0.35 -0.14 -0.21 -0.21 -0.07 -0.14m0.21 -0.77l0 -0.28 0.14 -0.21 0.28 -0.14m-0.63 1.39l0.21 -0.77m-0.21 0.77l0.21 0.21 0.35 0.21 0.07 0m0 -0.9l-0.21 -0.07 -0.21 -0.21m75.15 -12.25l0.28 -1.39 0.35 -2.71 0 -2.71 -0.35 -2.71 -0.42 -1.88m-16.63 37.5l3.27 -2.02 2.99 -2.23 2.71 -2.3 2.44 -2.37 2.09 -2.51 1.74 -2.64 1.46 -2.64 1.11 -2.71 0.49 -1.67m-17.12 16.84l3.34 -2.09 3.06 -2.16 2.71 -2.3 2.51 -2.43 2.09 -2.51 1.81 -2.64 1.53 -2.64 1.11 -2.71 0.83 -2.78 0.28 -1.81m-6.05 9.81l0.42 -0.63 1.39 -2.64 1.11 -2.71 0.7 -2.71 0.35 -2.78 0.07 -1.39m1.39 5.29l-0.28 0.84 -1.11 2.78 -1.53 2.64 -1.81 2.64 -2.16 2.51 -2.44 2.44 -2.78 2.3 -3.06 2.23 -3.27 2.02m-0.7 -1.18l3.27 -2.09 2.99 -2.09 2.71 -2.3 2.44 -2.37 2.09 -2.51 1.81 -2.57 1.46 -2.64 1.18 -2.64 0.77 -2.78 0.49 -2.71 0.07 -1.32m-18.51 26.72l3.34 -2.09 3.06 -2.16 2.78 -2.37 2.51 -2.44 2.16 -2.51 1.81 -2.64 1.46 -2.64 1.18 -2.78 0.77 -2.78 0.49 -2.78 0.07 -2.16m-99.36 39.45l1.95 0.63 4.31 1.18 4.45 1.04 4.52 0.84 4.73 0.7 4.73 0.42 4.73 0.21 4.8 0 4.8 -0.14 4.8 -0.42 4.66 -0.56 4.59 -0.77 4.52 -1.04 4.31 -1.18 2.99 -0.9m30.27 -41.68l0.14 0.77 0.35 2.71 0.07 1.04m-126.57 0l0.07 -1.04 0.35 -2.71 0.14 -0.63m0.28 -1.88l-0.42 1.88 -0.35 2.71 0 2.71 0.35 2.71 0.28 1.39m124.55 -16.28l0.07 0.14 1.11 2.71 0.7 2.78 0.35 2.71 0 2.78 -0.35 2.78 -0.7 2.78 -1.11 2.64 -1.39 2.64 -1.74 2.64 -2.09 2.44 -2.44 2.43 -2.71 2.3 -2.99 2.16 -3.27 2.02m-87.33 1.95l0 -0.07 -3.48 -1.88 -3.27 -2.02 -2.99 -2.16 -2.71 -2.3 -2.44 -2.44 -2.09 -2.44 -1.74 -2.64 -1.39 -2.64 -1.11 -2.64 -0.7 -2.78 -0.35 -2.78 0 -2.78 0.35 -2.71 0.7 -2.78 1.11 -2.71 0 -0.07m107.44 35.9l-3.48 1.88 0 0.07m-86.84 -2.23l3.48 1.88 3.69 1.74 3.97 1.53 4.11 1.39 4.24 1.18 4.45 0.97 4.52 0.84 4.66 0.63 4.66 0.35 4.73 0.21 4.8 0 4.73 -0.21 4.66 -0.35 4.66 -0.63 4.52 -0.84 4.45 -0.97 4.24 -1.18 4.11 -1.39 3.97 -1.53 3.69 -1.74 3.48 -1.88m-106.98 -33.99l-0.42 1.18 -0.7 2.71 -0.35 2.78 0 2.71 0.35 2.71 0.7 2.71 1.04 2.71 1.39 2.64 1.74 2.5 2.09 2.51 2.37 2.37 2.71 2.3 2.92 2.09 3.3 2.05m89.83 0l3.27 -2.02 2.92 -2.09 2.71 -2.3 2.37 -2.37 2.09 -2.51 1.74 -2.51 1.39 -2.64 1.04 -2.71 0.7 -2.71 0.35 -2.71 0 -2.71 -0.35 -2.78 -0.7 -2.71 -0.49 -1.25m-126.12 19.59l0.42 1.46 1.11 2.71 1.39 2.64 1.74 2.64 2.02 2.51 2.44 2.37 2.71 2.37 2.99 2.16 3.2 2.09 3.55 1.88 3.76 1.74 3.97 1.6 4.17 1.39 4.31 1.25 4.45 1.04 4.59 0.83 4.73 0.63 4.73 0.42 4.8 0.28 4.87 0 4.8 -0.14 4.73 -0.42 4.73 -0.63 4.66 -0.77 4.45 -0.97 4.38 -1.18 4.24 -1.39 3.97 -1.53 3.83 -1.74 3.55 -1.81m0 0l0.07 -0.07 0.07 -0.07 0.14 0 0.07 -0.07 0.07 0 0.07 -0.07 0.07 0 0.07 -0.07m-110.08 -31.38l0.07 1.39 0.35 2.78 0.7 2.71 1.11 2.71 1.39 2.64 0.42 0.63m-6.05 -9.81l0 0.42 0.63 2.78 0.97 2.78 1.32 2.64 1.67 2.64 1.95 2.57 2.37 2.5 2.57 2.37 2.96 2.26 3.13 2.09 3.48 2.02 3.69 1.81 3.9 1.67 4.04 1.53 4.31 1.32 4.45 1.18 4.52 0.9 4.73 0.77 4.73 0.56 4.8 0.35 4.87 0.21 4.87 -0.07 4.8 -0.28 4.8 -0.42 4.73 -0.7 4.66 -0.84 4.45 -1.04 4.38 -1.25 4.18 -1.39 4.04 -1.6 3.76 -1.81 3.55 -1.88m0.21 -1.46l-0.21 1.46m0 -2.71l-0.07 -0.07 -0.35 0 0 0.07 -0.07 0.07m-0.49 0.28l0.07 -0.07 0.07 -0.07 0.07 0 0.07 -0.07 0.07 0 0.07 -0.07 0.07 0m-112.31 -25.99l0.21 2.44 0.63 2.71 0.97 2.71 1.25 2.64 1.6 2.64 1.95 2.51 2.23 2.43 2.57 2.37 2.85 2.23 3.06 2.09 3.41 1.95 3.55 1.81 3.83 1.67 4.04 1.53 4.24 1.32 4.31 1.11 4.52 0.97 4.59 0.77 4.66 0.56 4.8 0.42 4.73 0.14 4.8 0 4.8 -0.21 4.73 -0.49 4.66 -0.56 4.52 -0.83 4.52 -1.04 4.31 -1.18 4.11 -1.39 3.97 -1.53 3.83 -1.67 3.55 -1.88m-111.68 -19.48l0.77 2.23 1.32 2.71 1.67 2.64 2.02 2.57 2.3 2.51 2.57 2.37 2.92 2.23 3.2 2.16 3.48 1.95 3.69 1.88 3.9 1.67 4.11 1.53 4.31 1.32 4.45 1.11 4.52 0.97 4.73 0.77 4.8 0.56 4.8 0.35 4.87 0.14 4.87 0 4.87 -0.28 4.8 -0.49 4.73 -0.63 4.66 -0.9 4.52 -1.04 4.38 -1.22 4.18 -1.39 4.04 -1.6 3.76 -1.74 3.62 -1.95m0.07 -0.49l-0.07 0.49m14.75 -42.93l0.07 0.07 1.67 2.64 1.32 2.71 0.97 2.78 0.63 2.78 0.28 2.85 -0.07 2.78 -0.49 2.78 -0.77 2.78 -1.18 2.78 -1.46 2.64 -1.81 2.64 -2.16 2.5 -2.51 2.44 -2.78 2.37 -3.06 2.16 -3.34 2.09m-0.28 -0.14l-0.07 0 -0.07 0.07 -0.07 0 -0.07 0.07 -0.07 0.07 -0.07 0.07 -0.07 0m-64.99 9.43l2.37 0.35 4.73 0.56 4.8 0.42 4.8 0.14 2.44 0m46.62 -11.06l-3.55 1.95 -3.83 1.74 -4.04 1.6 -4.18 1.46 -4.38 1.25 -4.52 1.04 -4.66 0.83 -4.8 0.7 -4.8 0.42 -4.87 0.28 -4.87 0.07 -4.87 -0.21 -4.87 -0.35 -4.8 -0.56 -4.66 -0.77 -4.59 -0.97 -4.52 -1.11 -4.24 -1.32 -4.17 -1.53 -3.9 -1.67 -3.69 -1.88 -3.48 -1.95 -3.2 -2.16 -2.92 -2.3 -2.57 -2.37 -2.37 -2.51 -1.95 -2.57 -1.67 -2.64 -1.32 -2.71 -0.97 -2.78 -0.63 -2.78 -0.28 -2.78 0.07 -2.85 0.49 -2.78 0.77 -2.78 1.18 -2.78 1.46 -2.64 0.9 -1.39m-4.87 15.1l0 0.7 0.28 2.85 0.63 2.78 0.97 2.78 1.32 2.71 1.67 2.64 1.95 2.57 2.37 2.51 2.57 2.37 2.92 2.3 3.2 2.09 3.48 2.02 3.69 1.81 3.9 1.74 4.17 1.46 4.24 1.39 4.52 1.11 4.59 0.97 4.66 0.77 4.8 0.56 4.87 0.35 4.87 0.14 4.87 0 4.87 -0.28 4.8 -0.49 4.8 -0.63 4.66 -0.9 4.52 -1.04 4.38 -1.25 4.18 -1.39 4.04 -1.6 3.83 -1.81 3.55 -1.88m0 -0.63l0 0.63m-70.97 -72.43l0 -0.63m2.09 0.49l0 0.35m1.18 2.85l0.42 -0.21 0.49 -0.56 0.21 -0.63 0 -0.14m-6.68 -0.97l0 0.9m6.61 -0.97l0 -0.49 -0.35 -0.63 -0.49 -0.56 -0.77 -0.35 -0.9 -0.28 -1.04 -0.07 -0.97 0.14 -0.9 0.42m-1.18 2.78l0.07 0.49 0.35 0.63 0.56 0.49 0.83 0.35 0.97 0.21 1.04 0 0.97 -0.21 0.77 -0.35m1.11 -1.6l0 -0.9m-5.5 -1.88l-0.42 0.28 -0.56 0.63 -0.21 0.63 0 0.35m60.33 -10.58l0.35 -0.21 0.49 -0.56 0.21 -0.63 0 -0.1m0 -1.04l-0.07 -0.49 -0.28 -0.63 -0.56 -0.56 -0.28 -0.14m1.18 2.78l0 -0.9m-1.39 -15.93l-0.49 -0.77 -1.25 -1.88 -1.6 -1.74 -1.81 -1.74 -2.16 -1.53 -1.6 -0.97m0 0l0 -0.07m-0.28 -0.14l-1.95 -1.11m11.76 32.98l-0.14 -0.35 0 -0.21m0.35 0.83l-0.07 -0.07 -0.07 -0.07 -0.07 -0.14m-6.19 -18.72l-0.21 -0.28 -0.35 -0.49 -0.07 -0.42m2.85 2.99l-2.23 -1.81m3.2 2.99l-0.49 -0.7 -0.49 -0.49m3.48 6.4l-0.07 -0.28 -0.07 -0.35 -0.14 -0.28 -0.14 -0.35m0 0l-0.97 -1.81 -1.11 -2.16m-67.29 -1.11l-0.35 9.95m-2.02 1.53l-0.21 5.57m2.44 -12.66l-0.49 0.84 -0.14 0.28m7.17 -17.4l-0.42 0.35 -1.74 1.74 -1.46 1.88 -1.22 1.95 -0.83 2.02 -0.56 2.02 -0.21 2.02 0 0.49m12.8 -16.7l-1.95 1.11m11.34 -0.9l-0.1 10.82m-3.48 35.07l-1.53 -0.49 -2.57 -0.97m34.79 -33.61l-0.14 -10.85m24.77 32.98l-0.21 -5.57m-1.67 -6.12l-0.42 -0.77 -1.25 -1.88 -0.28 -0.31m-47.25 -23.24l0 4.94m0 -7.86l0 0.83m0 -3.76l0 0.9m0 -3.76l0 0.83m8.21 -9.88l-1.74 0.63 -1.67 0.87 -1.32 0.97 -0.42 0.42m17.4 -1.67l-0.9 -0.49 -1.74 -0.7 -0.28 -0.07m-17.57 6.23l0 0.77m8.32 -7.13l-2.23 3.06m19.62 19.76l0 -6.4m0 -2.09l0 -0.83m0 -2.02l0 -0.83m-6.05 -7.58l-2.23 -3.06m7.31 7.24l0 -0.87m-2.02 -3.2l-0.56 -0.56 -1.25 -0.97 -0.42 -0.21m5.22 7.17l0 -0.84m21.64 30.48l0 -1.81m6.4 3.97l0 -1.04m-82.04 0.14l0 0.97m80.92 -3.06l-0.83 -0.42m-78.14 0.07l-0.83 0.42m86.7 5.91l0 -0.63m-93.52 0.14l0 0.63m92.41 -2.78l-0.77 -0.49m-89.83 0.14l-0.7 0.49m97.35 6.19l0 -0.56m-103.43 0.21l0 0.49m102.49 -2.57l-0.7 -0.56m-100.2 0.14l-0.63 0.56m106.46 6.54l0 -0.7m-111.47 0.21l0 0.7m110.84 -2.51l-0.56 -0.63m-109.52 0.7l-0.07 0.14m0.56 -0.63l-0.42 0.49m113.8 7.13l0 -1.25m-117.66 0.21l0 1.29m117.25 -2.64l-0.28 -0.49m-116.27 0.28l-0.28 0.42m119.4 7.72l0 -2.23m-121.91 0.21l0 2.3m121.77 -3.06l-0.14 -0.21m-121.42 0.28l-0.07 0.14m122.81 43.42l0 -38.44m-124 0.21l0 38.41m124.07 4.52l0 -38.48m-124 0.21l0 38.48m101.38 -44.05l-0.07 0.49m-78.7 0l-0.07 -0.49m102.01 43.98l0 -2.44m-23.73 -38.9l-0.21 0.56m-77.31 0l-0.21 -0.56m99.85 45.78l0 -38.41m-121.91 0.21l0 38.44m98.6 -43.35l-0.28 0.56m-74.73 0l-0.35 -0.49m96.58 47.59l0 -38.48m-117.66 0.21l0 38.48m94.63 -45.23l-0.42 0.49m-70.9 0l-0.42 -0.49m69.3 2.51l-0.56 0.49m-65.76 0l-0.56 -0.49m89.27 46.9l0 -38.55m-111.47 0.21l0 38.48m86 -44.67l-0.63 0.42m-59.49 0l-0.63 -0.42m57.2 2.09l-0.77 0.42m-52.12 0l-0.7 -0.42m-9.18 -14.61l0 7.65m87.74 53.4l0 -38.62m-103.4 0.21l0 38.55m74.31 -44.74l-0.84 0.35m-43.77 0l-0.84 -0.35m40.98 1.53l-0.9 0.28m-34.65 0l-0.9 -0.28m65.06 46.76l0 -38.62m-93.52 0.14l0 38.62m60.05 -45.72l-0.9 0.21m-24.91 0l-0.97 -0.21m21.78 0.84l-1.04 0.14m-14.68 0l-0.97 -0.14m11.48 0.42l-1.04 0.07m-4.24 0l-0.97 -0.07m44.25 47.66l0 -38.76m-82.04 0.14l0 38.76m75.64 2.71l0 -38.97m-69.23 0.14l0 38.9m-28.18 -29.78l0 2.44m90.39 29.57l0 -39.11m-55.18 0.07l0 39.11m47.73 1.67l0 -39.45m-40.22 0.07l0 39.45m55.87 -67.49l0 -7.58m-23.45 76.05l0 -40.01m-24.63 0l0 40.08m16.77 0.07l0 -41.02m-8.84 -0.28l0 41.26m67.22 -31.45l0 -0.97m-126.01 -0.04l0 0.97m50.17 18.02l-0.07 0.21m0.35 -1.11l-0.21 0.77m76.89 -7.72l0 -0.07m0.14 -10.23l0 -1.25m2.02 4.31l0 0m-0.63 2.23l0.21 -0.56m1.04 -6.89l0 -0.56m-131.16 1.46l0 1.25m0.14 10.23l0 0.07m-2.16 -7.24l0 0m0.42 1.67l0.21 0.56m-1.25 -8l0 0.56"/>
    </g>
   </g>
  </g>
 </g>
</svg>
