<?xml version="1.0" encoding="UTF-8"?>
<!DOCTYPE svg PUBLIC "-//W3C//DTD SVG 1.1//EN" "http://www.w3.org/Graphics/SVG/1.1/DTD/svg11.dtd">
<!-- Creator: CorelDRAW 2021 (64-Bit Not for commercial use) -->
<svg xmlns="http://www.w3.org/2000/svg" xml:space="preserve" width="1.05378in" height="0.433287in" version="1.1" style="shape-rendering:geometricPrecision; text-rendering:geometricPrecision; image-rendering:optimizeQuality; fill-rule:evenodd; clip-rule:evenodd"
viewBox="0 0 621.64 255.6"
 xmlns:xlink="http://www.w3.org/1999/xlink"
 xmlns:xodm="http://www.corel.com/coreldraw/odm/2003">
 <defs>
  <style type="text/css">
   <![CDATA[
    .fil0 {fill:black;fill-rule:nonzero}
    .fil2 {fill:#231F20;fill-rule:nonzero}
    .fil1 {fill:white;fill-rule:nonzero}
   ]]>
  </style>
 </defs>
 <g id="_0">
  <metadata id="CorelCorpID_0Corel-Layer"/>
  <g id="_2946739724672">
   <path class="fil0" d="M588.44 72.56l5.71 -0.1 0.31 18.58c0.03,1.16 0.4,2.18 2.03,2.15 1.64,-0.03 1.95,-1.32 1.93,-2.38l-0.31 -18.41 5.72 -0.09 0.29 17.69c0.08,4.13 -1.7,7.35 -7.57,7.45 -4.86,0.08 -7.72,-2.2 -7.8,-7.19l-0.3 -17.68z"/>
   <path class="fil0" d="M612 88.42l0.03 1.77c0.02,1.39 0.52,2.76 2.35,2.73 1.32,-0.03 1.89,-1.25 1.87,-2.47 -0.04,-2.06 -1.74,-2.75 -3.26,-3.69 -1.62,-0.8 -3.11,-1.87 -4.4,-3.14 -1.18,-1.34 -1.8,-3.07 -1.74,-4.85 -0.37,-3.53 2.18,-6.69 5.71,-7.09 0.45,-0.03 0.91,-0.04 1.38,-0.03 3.73,-0.26 6.99,2.49 7.35,6.21 0.07,0.48 0.08,0.98 0.03,1.47l-5.24 0.09c-0.03,-1.41 -0.07,-3.38 -1.95,-3.49 -0.92,-0.11 -1.79,0.52 -1.94,1.46l0 0.21c-0.14,1.48 0.62,2.21 1.79,2.97 1.88,1 3.69,2.12 5.41,3.38 1.31,1.25 2.1,2.94 2.21,4.72l0.01 0.68 -0.02 0.39 0.04 0.39 0.01 0.7c-0.11,3.19 -2.51,5.92 -5.78,6.34 -0.49,0.06 -1.01,0.07 -1.52,0.03 -5.27,0.09 -7.53,-2.82 -7.58,-6.06l-0.05 -2.61 5.32 -0.08 -0.03 -0z"/>
   <path class="fil0" d="M535.83 119.75c26.1,-0.36 46.98,-21.82 46.61,-47.92 -0.37,-26.1 -21.82,-46.98 -47.92,-46.61 -26.1,0.37 -46.98,21.82 -46.61,47.92l0 0.42c0.44,26.02 21.89,46.77 47.92,46.33l0.2 -0 -0.2 -0.14z"/>
   <path class="fil1" d="M535.68 110.88c21.26,-0.42 38.16,-18 37.74,-39.26 -0.42,-21.26 -18,-38.16 -39.26,-37.74 -21.26,0.42 -38.16,17.99 -37.74,39.26 0,0 0,0.02 -0,0.03 0.44,21.24 18.01,38.14 39.26,37.71z"/>
   <path class="fil0" d="M511.57 47.51l8.7 -0.15 0.48 28.28c0.03,1.78 0.62,3.32 3.08,3.28 2.47,-0.04 2.96,-2.05 2.93,-3.63l-0.46 -27.73 8.71 -0.14 0.45 26.94c0.1,6.29 -2.58,11.13 -11.57,11.28 -7.38,0.13 -11.73,-3.32 -11.87,-10.89l-0.46 -27.25z"/>
   <polygon class="fil0" points="539.29,97.84 538.67,60.59 547.37,60.44 547.87,90.24 558.54,90.06 558.67,97.52 "/>
   <g>
    <path class="fil0" d="M522.97 93.41l1.11 -0.02c0.77,-0.01 1,0.48 1.02,1.06 0,0.5 0.08,0.99 0.23,1.47l0.75 -0.01c-0.14,0 -0.2,-0.25 -0.23,-0.35 -0.03,-0.12 -0.02,-0.86 -0.03,-1.28 0,-0.57 -0.46,-1.05 -1.04,-1.09 0.63,-0.08 1.1,-0.63 1.09,-1.26 -0.03,-1.35 -0.79,-1.65 -1.97,-1.63l-1.61 0.02 0.09 5.8 0.65 -0.02 -0.04 -2.55 -0 -0.14zm-0.06 -2.8l0.92 -0.01c0.41,-0.02 1.19,-0.03 1.23,1 0.04,0.55 -0.36,1.04 -0.92,1.09l-1.2 0.02 -0.03 -2.08 -0.01 -0.03z"/>
   </g>
   <path class="fil0" d="M519.33 92.97c0.03,-2.61 2.18,-4.71 4.8,-4.68 2.62,0.02 4.71,2.18 4.68,4.79 -0.03,2.57 -2.09,4.64 -4.66,4.68 -2.62,0.03 -4.79,-2.08 -4.81,-4.71 -0.01,-0.03 -0.01,-0.06 -0.01,-0.09zm-0.55 0.01c0.04,2.92 2.45,5.25 5.38,5.2 2.92,-0.04 5.26,-2.45 5.21,-5.37 -0.05,-2.92 -2.46,-5.26 -5.38,-5.21 -2.91,0.08 -5.23,2.47 -5.2,5.39z"/>
   <path class="fil0" d="M475.87 83.02l-0.03 -1.63c-0.03,-2.08 -0.8,-3.15 -1.85,-3.13 -1.8,0.03 -2.19,0.98 -2.18,2.59l0.21 12.17c0.03,1.35 0.58,2.14 2.09,2.12 1.94,-0.03 2.07,-2.06 2.05,-3.53l-0.04 -2.21 5.71 -0.1 0.06 3.08c0.06,4.19 -2.3,7.16 -8.2,7.26 -5.1,0.08 -7.23,-2.48 -7.43,-7.2l-0 -0.23 -0 -0 -0.18 -10.35 -0 -0.25 0 -0.1c0.03,-5.06 2.48,-7.49 7.58,-7.57 5.22,-0.09 7.83,1.97 7.91,6.93l0.03 2.05 -5.71 0.1z"/>
   <path class="fil0" d="M481.37 33.66l-0.92 -0.64c-1.29,-1.04 -2.21,-1.02 -2.78,-0.3 -0.55,0.73 -0.39,1.75 0.33,2.3 0,0.02 0.03,0.03 0.03,0.03l0.17 0 7.22 5.22c0.55,0.54 1.42,0.53 1.96,-0.03 0,0 0,0 0,-0.01 0.85,-1.17 -0.31,-2.13 -1.21,-2.75l-1.31 -0.98 2.71 -3.53 1.77 1.28c2.53,1.81 3.24,4.51 0.69,8.02 -2.54,3.52 -5.15,3.28 -7.96,1.11l-5.62 -4.46c-2.45,-1.21 -3.45,-4.2 -2.25,-6.64 0.24,-0.47 0.55,-0.91 0.92,-1.29 2.11,-2.82 4.62,-3.76 7.59,-1.63l1.21 0.89 -2.41 3.4 -0.14 0z"/>
   <polygon class="fil0" points="494.55,35.96 482.6,22.51 485.76,19.72 495.32,30.46 499.18,27.03 501.54,29.7 "/>
   <g>
    <path class="fil0" d="M507.03 26.35l-1.47 -3.13 2.74 -1.69 2.29 2.73 3.67 -2.16 -12.45 -13.66 -4.39 2.57 5.67 17.51 3.62 -2.14 0.31 -0.03zm-0.43 -7.47l-2.11 1.21 -2.9 -7.58 5.01 6.36z"/>
   </g>
   <path class="fil0" d="M517.9 14.69l0.33 1.22c0.26,0.99 0.81,1.79 2.1,1.47 1.3,-0.34 1.15,-1.22 0.91,-2.11 -0.39,-1.46 -1.72,-1.72 -2.98,-2.08 -1.3,-0.28 -2.53,-0.78 -3.66,-1.47 -1.05,-0.72 -1.8,-1.8 -2.1,-3.04 -0.96,-2.43 0.24,-5.18 2.67,-6.14l0.17 -0c0.32,-0.11 0.64,-0.19 0.96,-0.24 2.62,-0.94 5.49,0.4 6.43,3.01 0,0 0,0 0.01,0.01 0.14,0.39 0.23,0.79 0.26,1.19l-3.86 0.97c-0.32,-0.99 -0.62,-2.39 -2,-2.16 -0.7,0.08 -1.21,0.71 -1.15,1.41 0.16,1.08 0.83,1.45 1.8,1.8 1.52,0.38 3.01,0.87 4.44,1.47 1.39,0.79 2.35,2.18 2.59,3.76 0.97,2.47 -0.23,5.26 -2.67,6.28 -0.36,0.14 -0.73,0.23 -1.1,0.27 -3.73,0.98 -5.84,-0.71 -6.47,-3l-0.46 -1.85 3.78 -0.9 0 0.11z"/>
   <path class="fil0" d="M531.45 12.44l0.02 1.25c0.02,1.05 0.4,1.93 1.75,1.87 1.36,-0.04 1.37,-0.93 1.33,-1.85 -0.03,-1.49 -1.32,-2.03 -2.46,-2.73 -1.15,-0.51 -2.21,-1.19 -3.14,-2.02 -0.91,-0.96 -1.39,-2.24 -1.36,-3.55 -0.36,-2.62 1.47,-5.01 4.09,-5.37 0,0 0,0 0.01,0.01l1.05 -0.02 0.06 -0.01 1.04 -0.02c2.28,0.2 4.19,1.97 4.51,4.33 0.07,0.44 0.07,0.88 0.03,1.31l-3.89 0.07c-0.02,-1.06 -0.04,-2.5 -1.49,-2.53 -0.66,-0.1 -1.28,0.35 -1.39,1.02 0,0 0,0 0,0l0.01 0.23c-0.06,0.94 0.5,1.81 1.37,2.17 1.37,0.72 2.69,1.54 3.94,2.43 1.17,1.08 1.8,2.62 1.71,4.22 0.46,2.63 -1.3,5.15 -3.95,5.62 0,0 0,0 0,0 -0.39,0.05 -0.78,0.06 -1.17,0.02 -3.87,0.06 -5.57,-1.96 -5.62,-4.32l-0.04 -1.94 3.91 -0.07 -0.33 -0.1z"/>
   <polygon class="fil0" points="540.95,18.54 544.29,0.88 548.47,1.67 545.1,19.34 "/>
   <polygon class="fil0" points="548.46,19.92 554.33,2.9 563.71,6.12 562.54,9.53 557.13,7.67 556.09,10.69 561.06,12.41 559.9,15.82 554.94,14.09 552.46,21.29 "/>
   <polygon class="fil0" points="559.37,23.94 568.35,8.35 572.01,10.45 563.04,26.05 "/>
   <polygon class="fil0" points="565.78,27.64 577.4,13.91 584.77,20.17 582.45,22.9 578.28,19.39 576.14,21.91 580.19,25.32 577.85,28.07 573.83,24.67 571.33,27.62 575.69,31.32 573.38,34.08 "/>
   <g>
    <path class="fil0" d="M578.42 40.4c0.68,1.06 1.66,1.9 2.82,2.42 1.47,0.43 3.05,0.05 4.16,-0.99l6.27 -4.95c1.51,-0.78 2.45,-2.35 2.45,-4.06 -0.39,-1.59 -1.17,-3.04 -2.26,-4.24l-2.84 -3.61 -14.13 10.94 3.52 4.47 -0 0.03zm10.67 -10.28c1.22,1.65 1.57,2.28 0.06,3.61l-4.6 3.62c-1.86,1.53 -2.73,2.24 -4.36,-0.12l8.9 -7.11z"/>
   </g>
   <polygon class="fil0" points="475.67,126.09 492.1,125.82 492.18,130.05 481.89,130.22 481.95,133.38 491.49,133.22 491.55,137.26 482.01,137.42 482.07,141.34 492.66,141.16 492.73,145.65 476,145.93 "/>
   <path class="fil0" d="M504.48 137.47l-0.11 -6.25 -5.2 6.34 5.31 -0.09zm0.08 4.28l-10.05 0.17 -0.08 -4.54 9.84 -12.11 4.81 -0.08 0.21 12.2 2.49 -0.04 0.08 4.28 -2.5 0.03 0.07 3.71 -4.81 0.08 -0.06 -3.71z"/>
   <path class="fil0" d="M523.81 131.82c-0.02,-1.07 -0.31,-1.9 -0.85,-2.51 -0.56,-0.6 -1.22,-0.9 -1.99,-0.89 -0.74,0.02 -1.33,0.3 -1.81,0.86 -0.48,0.56 -0.7,1.39 -0.68,2.49 0.01,1.11 0.28,1.95 0.79,2.53 0.51,0.58 1.14,0.87 1.89,0.85 0.78,-0.01 1.42,-0.31 1.93,-0.89 0.5,-0.58 0.75,-1.39 0.73,-2.45zm-10 9.02l5.46 -0.78c0.15,0.77 0.41,1.31 0.76,1.6 0.35,0.31 0.78,0.46 1.27,0.46 0.88,-0.01 1.57,-0.47 2.05,-1.37 0.36,-0.67 0.6,-2.06 0.75,-4.2 -0.65,0.7 -1.32,1.2 -2.01,1.53 -0.69,0.33 -1.5,0.5 -2.4,0.51 -1.78,0.03 -3.3,-0.58 -4.55,-1.82 -1.23,-1.24 -1.88,-2.82 -1.9,-4.76 -0.03,-1.33 0.26,-2.52 0.86,-3.62 0.61,-1.1 1.45,-1.93 2.53,-2.5 1.08,-0.57 2.45,-0.88 4.11,-0.9 1.99,-0.04 3.59,0.28 4.79,0.94 1.22,0.66 2.19,1.72 2.94,3.2 0.74,1.47 1.13,3.42 1.17,5.85 0.06,3.58 -0.65,6.22 -2.13,7.91 -1.48,1.69 -3.55,2.55 -6.22,2.6 -1.57,0.02 -2.83,-0.13 -3.74,-0.48 -0.92,-0.36 -1.69,-0.88 -2.29,-1.57 -0.63,-0.7 -1.1,-1.57 -1.44,-2.62z"/>
   <path class="fil0" d="M544.28 124.6l0.33 20.18 -5.57 0.1 -0.23 -13.23c-0.89,0.69 -1.75,1.27 -2.59,1.71 -0.84,0.45 -1.89,0.87 -3.15,1.27l-0.08 -4.51c1.87,-0.63 3.32,-1.38 4.34,-2.26 1.03,-0.87 1.82,-1.93 2.38,-3.18l4.57 -0.08z"/>
   <path class="fil0" d="M560.79 131.2c-0.02,-1.07 -0.31,-1.9 -0.85,-2.51 -0.56,-0.6 -1.22,-0.9 -1.99,-0.89 -0.74,0.02 -1.33,0.3 -1.81,0.86 -0.48,0.56 -0.7,1.39 -0.68,2.49 0.01,1.11 0.28,1.95 0.79,2.53 0.51,0.57 1.14,0.87 1.89,0.85 0.77,-0.01 1.42,-0.31 1.92,-0.89 0.5,-0.58 0.75,-1.39 0.73,-2.45zm-10 9.02l5.46 -0.78c0.15,0.77 0.42,1.31 0.76,1.6 0.35,0.31 0.78,0.46 1.27,0.46 0.88,-0.01 1.57,-0.48 2.04,-1.37 0.36,-0.67 0.6,-2.06 0.75,-4.2 -0.65,0.7 -1.32,1.2 -2.01,1.53 -0.69,0.33 -1.5,0.5 -2.4,0.51 -1.78,0.03 -3.3,-0.58 -4.55,-1.82 -1.23,-1.24 -1.88,-2.82 -1.9,-4.76 -0.03,-1.33 0.26,-2.52 0.87,-3.62 0.6,-1.09 1.44,-1.92 2.52,-2.49 1.08,-0.57 2.46,-0.88 4.11,-0.9 1.99,-0.04 3.59,0.27 4.79,0.94 1.22,0.66 2.19,1.73 2.93,3.2 0.75,1.48 1.14,3.43 1.18,5.86 0.06,3.58 -0.65,6.22 -2.13,7.91 -1.48,1.69 -3.55,2.56 -6.22,2.6 -1.59,0.03 -2.83,-0.13 -3.75,-0.48 -0.92,-0.36 -1.69,-0.88 -2.29,-1.57 -0.63,-0.7 -1.1,-1.57 -1.44,-2.62z"/>
   <path class="fil0" d="M568.87 124.52l16.09 -0.27 0.06 3.73c-1.38,1.29 -2.53,2.67 -3.44,4.15 -1.1,1.81 -1.97,3.82 -2.59,6.02 -0.5,1.71 -0.82,3.73 -0.95,6.06l-5.5 0.1c0.37,-3.25 1.01,-5.97 1.9,-8.19 0.89,-2.2 2.32,-4.58 4.3,-7.11l-9.8 0.16 -0.08 -4.65z"/>
   <path class="fil0" d="M592.89 133.98c0.04,2.53 0.29,4.25 0.76,5.17 0.46,0.92 1.12,1.37 1.96,1.35 0.56,-0.01 1.04,-0.22 1.44,-0.62 0.41,-0.4 0.7,-1.03 0.88,-1.89 0.18,-0.84 0.26,-2.16 0.23,-3.96 -0.04,-2.62 -0.3,-4.4 -0.77,-5.3 -0.46,-0.9 -1.13,-1.35 -2.03,-1.34 -0.9,0.02 -1.57,0.49 -1.96,1.43 -0.39,0.93 -0.56,2.64 -0.52,5.14zm-5.47 0.07c-0.07,-3.77 0.57,-6.41 1.9,-7.95 1.34,-1.52 3.4,-2.31 6.17,-2.37 1.34,-0.02 2.43,0.12 3.31,0.45 0.85,0.31 1.57,0.74 2.12,1.25 0.55,0.52 0.98,1.07 1.3,1.64 0.32,0.58 0.57,1.25 0.78,2.03 0.4,1.47 0.61,3.01 0.63,4.62 0.07,3.6 -0.5,6.24 -1.69,7.94 -1.2,1.69 -3.28,2.56 -6.25,2.61 -1.67,0.03 -3.02,-0.21 -4.06,-0.73 -1.04,-0.52 -1.9,-1.29 -2.57,-2.3 -0.5,-0.72 -0.88,-1.72 -1.18,-2.98 -0.29,-1.27 -0.44,-2.66 -0.47,-4.21z"/>
  </g>
  <g>
   <path class="fil0" d="M351.58 127.96l-74.25 0.73c-2.24,0.02 -4.09,-1.79 -4.11,-4.02l-1.02 -104.19c-0.02,-2.23 1.79,-4.09 4.02,-4.1l74.25 -0.73c2.24,-0.03 4.09,1.79 4.11,4.03l1.02 104.19c0.02,2.23 -1.79,4.09 -4.02,4.1z"/>
   <path class="fil0" d="M415.31 127.59l-49.52 0.48c-2.24,0.03 -4.08,-1.78 -4.1,-4.02l-1.02 -104.45c-0.03,-2.23 1.79,-4.07 4.02,-4.1l49.52 -0.48c2.24,-0.03 4.08,1.78 4.11,4.02l1.02 104.45c0.02,2.23 -1.79,4.09 -4.02,4.1z"/>
   <path class="fil0" d="M329.54 72.01c0.3,31.02 -24.9,56.4 -56.28,56.72 -31.38,0.3 -57.07,-24.59 -57.39,-55.61 -0.3,-31.01 24.89,-56.4 56.28,-56.71 31.4,-0.31 57.09,24.58 57.39,55.6z"/>
   <path class="fil1" d="M321.83 70.84c0.27,27.13 -21.52,49.34 -48.65,49.61 -27.13,0.27 -49.34,-21.52 -49.61,-48.65 -0.27,-27.13 21.52,-49.34 48.65,-49.61 27.13,-0.27 49.34,21.52 49.61,48.65z"/>
   <path class="fil0" d="M244.52 43.54c-0.08,0.31 -0.05,8.32 0.1,17.78l0.25 17.21 0.65 1.71c2.02,5.31 6.69,8.1 13.48,8.03 3.2,-0.01 5.1,-0.41 7.48,-1.58 2.23,-1.08 4.23,-2.97 5.21,-4.97 1.32,-2.69 1.37,-3.28 1.18,-21.89l-0.16 -17.14 -5.28 0.11 -5.3 0.13 0.12 17.26c0.11,18.49 0.14,18 -1.15,19.19 -0.73,0.66 -2.76,0.87 -3.79,0.33 -0.47,-0.22 -1.06,-0.85 -1.35,-1.41 -0.49,-0.96 -0.53,-1.47 -0.69,-18.23l-0.16 -17.22 -5.23 0.05c-5.2,0.04 -5.23,0.05 -5.35,0.63z"/>
   <path class="fil0" d="M279.91 60.08c-0.1,0.35 -0.05,10.51 0.07,22.58l0.24 21.92 11.47 -0.11 11.46 -0.1 -0.04 -4.93 -0.06 -4.9 -6.07 0.06 -6.04 0.06 -0.3 -17.6 -0.3 -17.59 -5.13 -0.01 -5.14 -0.02 -0.16 0.64z"/>
   <path class="fil1" d="M374.51 40.4c0.01,0.78 -0.62,1.42 -1.4,1.43 -0.78,0.01 -1.43,-0.62 -1.44,-1.41 0,-0.78 0.63,-1.42 1.41,-1.43 0.78,-0.01 1.42,0.62 1.43,1.41z"/>
   <path class="fil1" d="M338.93 111.46l0.99 -3.42c0.95,0.22 1.77,0.57 2.41,1.06 0.63,0.49 1.13,1.1 1.46,1.82 0.34,0.73 0.51,1.65 0.52,2.78 0.01,1.37 -0.17,2.49 -0.56,3.36 -0.39,0.87 -1.07,1.62 -2.07,2.26 -0.99,0.64 -2.27,0.96 -3.83,0.98 -2.07,0.02 -3.69,-0.52 -4.82,-1.61 -1.13,-1.1 -1.7,-2.65 -1.72,-4.68 -0.01,-1.58 0.29,-2.83 0.92,-3.75 0.63,-0.91 1.61,-1.59 2.93,-2.04l0.79 3.42c-0.38,0.12 -0.66,0.24 -0.83,0.38 -0.3,0.22 -0.53,0.49 -0.68,0.81 -0.16,0.31 -0.23,0.66 -0.23,1.06 0.01,0.88 0.37,1.56 1.08,2.02 0.53,0.34 1.36,0.51 2.48,0.5 1.4,-0.01 2.34,-0.23 2.86,-0.66 0.52,-0.42 0.77,-1.01 0.76,-1.79 -0.01,-0.75 -0.21,-1.3 -0.63,-1.67 -0.42,-0.38 -1.03,-0.65 -1.83,-0.81z"/>
   <polygon class="fil1" points="331.45,106.68 331.35,96.27 334.03,96.24 334.09,102.76 336.1,102.74 336.04,96.7 338.6,96.66 338.66,102.71 341.14,102.69 341.08,95.98 343.92,95.96 344.03,106.56 "/>
   <path class="fil1" d="M336.39 90.42l-0.02 -1.64c0,-0.17 -0.05,-0.52 -0.18,-1.03 -0.05,-0.25 -0.18,-0.46 -0.39,-0.62 -0.22,-0.17 -0.46,-0.25 -0.73,-0.24 -0.41,0 -0.73,0.14 -0.94,0.4 -0.22,0.26 -0.32,0.74 -0.32,1.45l0.02 1.71 2.56 -0.03zm7.52 3.83l-12.59 0.13 -0.07 -6.49c-0.01,-1.19 0.09,-2.11 0.28,-2.75 0.2,-0.64 0.58,-1.15 1.14,-1.55 0.56,-0.39 1.23,-0.59 2.03,-0.61 0.7,-0 1.31,0.14 1.82,0.43 0.51,0.29 0.92,0.7 1.24,1.22 0.2,0.32 0.37,0.78 0.5,1.36 0.15,-0.47 0.31,-0.8 0.46,-1.01 0.1,-0.15 0.33,-0.36 0.67,-0.63 0.33,-0.27 0.59,-0.46 0.76,-0.56l3.62 -1.91 0.05 4.39 -3.82 2.12c-0.5,0.27 -0.82,0.51 -0.96,0.71 -0.19,0.29 -0.29,0.6 -0.29,0.95l0 0.34 5.1 -0.04 0.05 3.9z"/>
   <polygon class="fil1" points="331.21,82.23 331.09,70.42 334.19,70.39 334.24,74.34 343.72,74.26 343.75,78.15 334.28,78.23 334.31,82.2 "/>
   <polygon class="fil1" points="331.08,68.94 331.04,65.04 343.62,64.93 343.66,68.83 "/>
   <polygon class="fil1" points="331.02,62.68 330.93,53.07 333.63,53.04 333.68,58.75 335.87,58.72 335.84,53.85 338.37,53.83 338.42,58.71 343.56,58.65 343.6,62.56 "/>
   <polygon class="fil1" points="330.91,51.26 330.87,47.36 343.45,47.24 343.49,51.15 "/>
   <polygon class="fil1" points="330.84,45.02 330.74,34.61 333.43,34.58 333.49,41.11 335.5,41.08 335.43,35.04 338,35 338.06,41.06 340.54,41.03 340.48,34.32 343.32,34.3 343.43,44.91 "/>
   <path class="fil1" d="M333.54 28.8l6.87 -0.07 0 -0.95c-0.01,-0.82 -0.11,-1.39 -0.29,-1.73 -0.2,-0.34 -0.51,-0.6 -0.96,-0.8 -0.44,-0.18 -1.17,-0.28 -2.18,-0.26 -1.34,0.01 -2.25,0.24 -2.73,0.68 -0.49,0.44 -0.73,1.16 -0.71,2.16l0 0.97zm-2.81 3.91l-0.07 -5.77c-0.01,-1.14 0.14,-2.05 0.44,-2.76 0.3,-0.71 0.74,-1.29 1.31,-1.75 0.57,-0.47 1.24,-0.8 2.01,-1.02 0.76,-0.22 1.57,-0.33 2.44,-0.33 1.34,-0.01 2.38,0.12 3.12,0.43 0.75,0.3 1.37,0.72 1.88,1.26 0.51,0.53 0.84,1.11 1.01,1.74 0.24,0.85 0.36,1.62 0.36,2.31l0.06 5.77 -12.57 0.12z"/>
   <path class="fil1" d="M314.39 21.25c-3.36,0.04 -6.08,2.68 -6.04,5.9 0.03,3.22 2.79,5.81 6.15,5.77 3.36,-0.03 6.08,-2.68 6.04,-5.9 -0.03,-3.21 -2.79,-5.81 -6.15,-5.77zm0.13 13.37c-4.31,0.04 -7.83,-3.3 -7.87,-7.46 -0.05,-4.15 3.41,-7.56 7.71,-7.61 4.3,-0.04 7.83,3.3 7.87,7.46 0.04,4.16 -3.42,7.56 -7.71,7.61z"/>
   <path class="fil1" d="M313.27 26.16l1.14 -0.01c0.13,-0.01 0.36,-0.05 0.71,-0.13 0.18,-0.04 0.32,-0.13 0.43,-0.28 0.12,-0.14 0.17,-0.31 0.17,-0.5 0,-0.28 -0.09,-0.5 -0.28,-0.64 -0.17,-0.15 -0.51,-0.23 -1,-0.23l-1.19 0.02 0.02 1.77zm-2.66 5.22l-0.09 -8.74 4.49 -0.03c0.84,-0.01 1.48,0.06 1.92,0.19 0.43,0.14 0.79,0.4 1.07,0.79 0.27,0.39 0.41,0.85 0.42,1.4 0,0.49 -0.1,0.91 -0.3,1.26 -0.2,0.35 -0.49,0.64 -0.85,0.86 -0.23,0.14 -0.55,0.26 -0.95,0.35 0.33,0.11 0.55,0.21 0.7,0.31 0.11,0.08 0.25,0.23 0.44,0.47 0.18,0.23 0.31,0.4 0.37,0.53l1.34 2.51 -3.05 0.03 -1.48 -2.65c-0.18,-0.34 -0.35,-0.57 -0.48,-0.67 -0.2,-0.13 -0.42,-0.19 -0.67,-0.19l-0.24 0 0.04 3.54 -2.71 0.03z"/>
   <path class="fil1" d="M375.81 122.56l-0.23 -2.8c0.52,-0.07 0.93,-0.2 1.2,-0.38 0.43,-0.32 0.65,-0.75 0.65,-1.31 -0.01,-0.42 -0.14,-0.74 -0.36,-0.98 -0.23,-0.22 -0.49,-0.33 -0.79,-0.33 -0.29,0.01 -0.54,0.12 -0.76,0.34 -0.22,0.21 -0.43,0.73 -0.62,1.51 -0.32,1.29 -0.75,2.22 -1.3,2.78 -0.55,0.56 -1.25,0.84 -2.11,0.85 -0.57,0.01 -1.09,-0.13 -1.61,-0.42 -0.5,-0.27 -0.89,-0.7 -1.18,-1.27 -0.3,-0.56 -0.45,-1.35 -0.46,-2.33 -0,-1.22 0.25,-2.15 0.75,-2.8 0.51,-0.64 1.34,-1.02 2.49,-1.16l0.21 2.78c-0.5,0.08 -0.86,0.24 -1.08,0.48 -0.23,0.24 -0.34,0.56 -0.33,0.98 0,0.34 0.08,0.6 0.26,0.77 0.17,0.16 0.37,0.25 0.61,0.24 0.17,0 0.34,-0.07 0.47,-0.22 0.15,-0.13 0.28,-0.46 0.4,-0.99 0.31,-1.28 0.62,-2.21 0.93,-2.77 0.33,-0.56 0.72,-0.98 1.2,-1.22 0.49,-0.26 1.03,-0.4 1.63,-0.4 0.7,-0.01 1.35,0.16 1.96,0.49 0.59,0.33 1.04,0.8 1.36,1.4 0.31,0.6 0.47,1.37 0.48,2.29 0.01,1.63 -0.33,2.75 -1.05,3.39 -0.71,0.63 -1.62,0.99 -2.72,1.08z"/>
   <path class="fil1" d="M375.11 107.52l-3.93 1.09 3.95 1.01 -0.02 -2.1zm2.36 -0.64l0.03 3.34 1.81 0.46 0.03 3.01 -10.99 -3.48 -0.03 -3.21 10.93 -3.68 0.03 3.08 -1.81 0.49z"/>
   <polygon class="fil1" points="368.28,102.8 368.21,95.52 370.57,95.5 370.6,99.82 372.52,99.81 372.49,96.11 374.69,96.09 374.73,99.79 379.22,99.73 379.25,102.7 "/>
   <polygon class="fil1" points="368.19,94.27 368.12,86.38 370.46,86.36 370.5,91.3 372.25,91.28 372.21,86.7 374.44,86.68 374.48,91.26 376.65,91.25 376.6,86.15 379.08,86.14 379.16,94.17 "/>
   <polygon class="fil1" points="368.11,85.66 368.02,76.7 370.73,76.68 370.76,79.69 379.01,79.6 379.05,82.54 370.79,82.62 370.82,85.63 "/>
   <polygon class="fil1" points="368.02,76.67 367.99,73.39 371.67,71.43 367.95,69.56 367.92,66.29 374.33,69.93 378.91,69.9 378.95,72.85 374.36,72.89 "/>
   <path class="fil1" d="M367.81 55.37l-0.03 -2.94 6.53 -0.06c0.65,-0 1.27,0.07 1.85,0.24 0.57,0.16 1.07,0.44 1.51,0.81 0.44,0.37 0.75,0.76 0.92,1.18 0.25,0.57 0.38,1.25 0.39,2.05 0.01,0.46 -0.03,0.98 -0.1,1.52 -0.07,0.56 -0.22,1.01 -0.43,1.39 -0.22,0.37 -0.53,0.72 -0.93,1.02 -0.42,0.31 -0.84,0.52 -1.26,0.65 -0.69,0.18 -1.31,0.28 -1.85,0.28l-6.54 0.06 -0.03 -2.94 6.68 -0.05c0.6,-0.01 1.07,-0.15 1.4,-0.44 0.33,-0.3 0.5,-0.7 0.49,-1.21 -0.01,-0.51 -0.18,-0.91 -0.5,-1.18 -0.33,-0.29 -0.81,-0.43 -1.42,-0.42l-6.69 0.07z"/>
   <path class="fil1" d="M375.11 51.25l-0.23 -2.8c0.52,-0.07 0.92,-0.2 1.19,-0.37 0.43,-0.32 0.65,-0.75 0.66,-1.32 -0.01,-0.42 -0.13,-0.74 -0.36,-0.97 -0.22,-0.22 -0.49,-0.33 -0.79,-0.33 -0.29,0.01 -0.54,0.11 -0.76,0.34 -0.22,0.21 -0.43,0.72 -0.62,1.51 -0.32,1.29 -0.75,2.22 -1.3,2.78 -0.55,0.56 -1.25,0.84 -2.11,0.85 -0.57,0.01 -1.1,-0.13 -1.61,-0.42 -0.5,-0.27 -0.89,-0.69 -1.18,-1.27 -0.3,-0.56 -0.45,-1.35 -0.46,-2.34 -0,-1.21 0.25,-2.14 0.76,-2.8 0.51,-0.64 1.34,-1.02 2.48,-1.16l0.21 2.78c-0.5,0.07 -0.86,0.23 -1.08,0.48 -0.23,0.23 -0.34,0.56 -0.33,0.98 0,0.34 0.08,0.6 0.25,0.77 0.17,0.16 0.38,0.25 0.61,0.25 0.18,0 0.34,-0.07 0.48,-0.22 0.15,-0.13 0.27,-0.46 0.4,-0.99 0.3,-1.28 0.62,-2.2 0.93,-2.77 0.33,-0.56 0.73,-0.98 1.2,-1.22 0.49,-0.26 1.03,-0.4 1.63,-0.4 0.7,-0.01 1.35,0.16 1.96,0.48 0.59,0.33 1.04,0.81 1.36,1.4 0.31,0.6 0.47,1.37 0.48,2.29 0.01,1.62 -0.33,2.75 -1.05,3.39 -0.71,0.63 -1.62,0.99 -2.72,1.08z"/>
   <path class="fil1" d="M374.05 31.02l0.88 -2.59c0.82,0.17 1.54,0.43 2.09,0.81 0.56,0.37 0.99,0.82 1.28,1.37 0.29,0.54 0.44,1.25 0.45,2.1 0,1.04 -0.16,1.88 -0.49,2.55 -0.33,0.66 -0.95,1.23 -1.81,1.72 -0.88,0.49 -1.98,0.73 -3.34,0.75 -1.81,0.02 -3.22,-0.39 -4.2,-1.22 -0.99,-0.83 -1.48,-2 -1.49,-3.54 -0.01,-1.19 0.26,-2.14 0.81,-2.83 0.55,-0.69 1.4,-1.21 2.56,-1.56l0.69 2.6c-0.33,0.09 -0.58,0.2 -0.74,0.3 -0.25,0.16 -0.45,0.37 -0.58,0.61 -0.13,0.23 -0.21,0.5 -0.2,0.8 0,0.66 0.32,1.17 0.94,1.52 0.46,0.26 1.18,0.39 2.16,0.39 1.22,-0.02 2.05,-0.18 2.5,-0.51 0.45,-0.33 0.66,-0.78 0.66,-1.36 0,-0.56 -0.18,-0.99 -0.56,-1.27 -0.36,-0.29 -0.89,-0.49 -1.59,-0.61z"/>
   <path class="fil1" d="M374.27 22.09l-3.93 1.09 3.94 1.01 -0.01 -2.1zm2.36 -0.64l0.03 3.34 1.81 0.46 0.03 3.01 -10.99 -3.48 -0.03 -3.21 10.93 -3.68 0.03 3.07 -1.81 0.49z"/>
   <polygon class="fil1" points="390.72,120.39 390.6,107.57 394.87,107.53 394.94,115.55 398.12,115.52 398.05,108.08 402.13,108.05 402.2,115.49 406.13,115.44 406.06,107.19 410.58,107.15 410.72,120.18 "/>
   <path class="fil1" d="M402.45 97.75l-6.3 0.06 6.34 4.08 -0.04 -4.13zm4.31 -0.04l0.07 7.83 -4.57 0.04 -12.1 -7.71 -0.04 -3.75 12.28 -0.12 -0.02 -1.94 4.32 -0.03 0.01 1.93 3.74 -0.03 0.04 3.74 -3.74 0.04z"/>
   <path class="fil1" d="M404.31 86.2c0.88,-0.01 1.6,-0.22 2.15,-0.64 0.55,-0.42 0.84,-0.91 0.84,-1.43 -0,-0.51 -0.3,-0.98 -0.87,-1.37 -0.57,-0.41 -1.29,-0.61 -2.16,-0.59 -0.88,0.01 -1.61,0.22 -2.16,0.64 -0.57,0.42 -0.84,0.89 -0.84,1.43 0,0.54 0.29,1 0.82,1.4 0.55,0.39 1.3,0.58 2.22,0.57zm-8.6 -0.14c0.69,-0.01 1.24,-0.18 1.67,-0.52 0.41,-0.34 0.63,-0.78 0.61,-1.34 -0,-0.49 -0.21,-0.89 -0.64,-1.21 -0.42,-0.31 -0.96,-0.46 -1.62,-0.46 -0.69,0 -1.25,0.18 -1.68,0.51 -0.43,0.33 -0.64,0.76 -0.64,1.28 0,0.52 0.22,0.94 0.65,1.26 0.43,0.33 0.97,0.48 1.65,0.48zm3.94 1.88c-0.45,0.69 -0.97,1.18 -1.54,1.5 -0.77,0.43 -1.68,0.65 -2.7,0.66 -1.67,0.02 -3.04,-0.58 -4.12,-1.79 -0.84,-0.94 -1.26,-2.2 -1.27,-3.75 -0.03,-2.06 0.47,-3.6 1.48,-4.6 1.01,-1.01 2.29,-1.51 3.84,-1.52 0.89,-0 1.74,0.17 2.52,0.57 0.59,0.28 1.16,0.74 1.71,1.37 0.51,-0.84 1.19,-1.47 2.04,-1.9 0.85,-0.41 1.8,-0.63 2.82,-0.64 1.01,-0.02 1.94,0.15 2.81,0.5 0.86,0.35 1.55,0.77 2.03,1.29 0.48,0.51 0.83,1.14 1.06,1.92 0.23,0.77 0.36,1.59 0.36,2.46 0.02,1.64 -0.22,2.88 -0.71,3.76 -0.49,0.86 -1.23,1.54 -2.2,1.99 -0.96,0.47 -2.05,0.69 -3.25,0.72 -1.18,0.01 -2.18,-0.19 -2.99,-0.61 -0.82,-0.41 -1.45,-1.06 -1.91,-1.94z"/>
   <path class="fil1" d="M396.79 67.82c-1.08,0.01 -1.92,0.23 -2.53,0.66 -0.61,0.43 -0.92,0.95 -0.91,1.55 0.01,0.57 0.29,1.04 0.85,1.41 0.56,0.38 1.4,0.55 2.51,0.55 1.11,-0.01 1.97,-0.21 2.55,-0.61 0.59,-0.41 0.88,-0.89 0.87,-1.48 0,-0.61 -0.29,-1.11 -0.86,-1.51 -0.58,-0.38 -1.4,-0.58 -2.46,-0.57zm8.99 7.82l-0.73 -4.26c0.78,-0.12 1.31,-0.32 1.63,-0.59 0.32,-0.26 0.48,-0.6 0.46,-0.99 -0.01,-0.68 -0.46,-1.21 -1.37,-1.59 -0.66,-0.28 -2.07,-0.48 -4.22,-0.59 0.69,0.49 1.2,1.03 1.52,1.56 0.32,0.54 0.48,1.17 0.49,1.88 0.02,1.38 -0.61,2.56 -1.87,3.53 -1.26,0.97 -2.87,1.46 -4.82,1.47 -1.33,0.01 -2.53,-0.22 -3.63,-0.7 -1.11,-0.46 -1.93,-1.13 -2.5,-1.97 -0.56,-0.85 -0.85,-1.91 -0.87,-3.2 -0.01,-1.56 0.32,-2.79 0.99,-3.73 0.68,-0.95 1.77,-1.71 3.25,-2.28 1.49,-0.57 3.45,-0.87 5.92,-0.89 3.6,-0.04 6.26,0.52 7.95,1.68 1.69,1.15 2.55,2.78 2.57,4.85 0.01,1.23 -0.16,2.2 -0.53,2.92 -0.36,0.71 -0.9,1.3 -1.6,1.79 -0.7,0.47 -1.59,0.84 -2.65,1.11z"/>
   <path class="fil1" d="M396.65 53.2c-1.08,0.01 -1.93,0.23 -2.53,0.66 -0.61,0.43 -0.92,0.94 -0.91,1.55 0.01,0.57 0.29,1.04 0.85,1.41 0.56,0.37 1.4,0.55 2.5,0.54 1.11,-0.01 1.97,-0.21 2.55,-0.61 0.59,-0.41 0.88,-0.89 0.86,-1.48 0,-0.6 -0.29,-1.11 -0.86,-1.5 -0.58,-0.39 -1.4,-0.58 -2.46,-0.57zm8.99 7.82l-0.73 -4.26c0.77,-0.12 1.31,-0.32 1.63,-0.59 0.32,-0.27 0.48,-0.6 0.47,-0.99 -0.01,-0.68 -0.46,-1.22 -1.37,-1.6 -0.66,-0.28 -2.07,-0.47 -4.21,-0.6 0.68,0.51 1.19,1.04 1.51,1.57 0.32,0.54 0.48,1.17 0.49,1.88 0.02,1.38 -0.61,2.56 -1.87,3.53 -1.26,0.97 -2.87,1.46 -4.82,1.47 -1.33,0.02 -2.53,-0.22 -3.63,-0.69 -1.1,-0.47 -1.92,-1.14 -2.49,-1.97 -0.57,-0.84 -0.86,-1.91 -0.88,-3.2 -0,-1.55 0.32,-2.79 1,-3.73 0.68,-0.95 1.76,-1.71 3.25,-2.28 1.49,-0.57 3.45,-0.87 5.92,-0.89 3.6,-0.04 6.26,0.52 7.95,1.68 1.69,1.15 2.55,2.78 2.57,4.85 0.01,1.23 -0.16,2.21 -0.53,2.92 -0.36,0.72 -0.89,1.31 -1.59,1.79 -0.71,0.47 -1.59,0.84 -2.66,1.11z"/>
   <path class="fil1" d="M395.74 42.51l-0.89 4.07c-1.69,-0.31 -2.98,-0.96 -3.87,-1.91 -0.91,-0.95 -1.36,-2.31 -1.39,-4.07 -0.02,-2.02 0.45,-3.48 1.42,-4.39 0.95,-0.9 2.17,-1.37 3.65,-1.38 0.86,-0 1.65,0.18 2.35,0.52 0.71,0.37 1.33,0.9 1.86,1.64 0.19,-0.59 0.41,-1.05 0.65,-1.37 0.4,-0.52 0.93,-0.92 1.6,-1.22 0.67,-0.3 1.47,-0.45 2.4,-0.45 1.15,-0.01 2.28,0.22 3.35,0.67 1.07,0.47 1.91,1.14 2.49,2.01 0.59,0.89 0.88,2.04 0.89,3.49 0.02,1.41 -0.19,2.52 -0.6,3.33 -0.42,0.82 -1.05,1.5 -1.86,2.02 -0.82,0.54 -1.85,0.95 -3.09,1.24l-0.78 -4.28c1.12,-0.18 1.89,-0.45 2.32,-0.81 0.42,-0.36 0.64,-0.82 0.63,-1.36 -0,-0.58 -0.28,-1.05 -0.83,-1.44 -0.55,-0.37 -1.28,-0.56 -2.19,-0.55 -0.92,0.01 -1.64,0.2 -2.15,0.57 -0.5,0.38 -0.74,0.88 -0.75,1.51 0,0.34 0.12,0.8 0.35,1.39l-3.97 -0.18c0.04,-0.24 0.06,-0.42 0.05,-0.56 0,-0.57 -0.24,-1.03 -0.7,-1.41 -0.48,-0.37 -1.03,-0.56 -1.66,-0.55 -0.61,0.01 -1.09,0.16 -1.46,0.44 -0.36,0.28 -0.54,0.67 -0.53,1.17 0,0.5 0.2,0.91 0.61,1.22 0.39,0.32 1.09,0.53 2.08,0.62z"/>
   <path class="fil1" d="M396.37 23.94c-1.08,0.01 -1.93,0.23 -2.53,0.66 -0.61,0.43 -0.92,0.94 -0.91,1.55 0.01,0.57 0.29,1.04 0.85,1.41 0.56,0.37 1.4,0.55 2.5,0.54 1.11,-0.02 1.97,-0.21 2.55,-0.61 0.59,-0.41 0.88,-0.89 0.86,-1.48 0,-0.6 -0.29,-1.11 -0.86,-1.5 -0.58,-0.39 -1.39,-0.58 -2.46,-0.58zm8.99 7.83l-0.73 -4.26c0.77,-0.12 1.31,-0.32 1.63,-0.58 0.32,-0.27 0.47,-0.6 0.46,-1 -0.01,-0.68 -0.46,-1.22 -1.37,-1.6 -0.66,-0.28 -2.07,-0.47 -4.22,-0.58 0.69,0.49 1.2,1.03 1.52,1.56 0.32,0.54 0.48,1.17 0.49,1.88 0.02,1.38 -0.61,2.56 -1.87,3.53 -1.27,0.97 -2.87,1.46 -4.82,1.47 -1.33,0.02 -2.54,-0.22 -3.63,-0.7 -1.1,-0.47 -1.92,-1.13 -2.49,-1.97 -0.57,-0.84 -0.85,-1.91 -0.88,-3.2 -0.01,-1.55 0.32,-2.79 1,-3.73 0.68,-0.95 1.76,-1.71 3.25,-2.28 1.49,-0.57 3.45,-0.87 5.92,-0.89 3.6,-0.04 6.26,0.52 7.95,1.69 1.69,1.15 2.55,2.78 2.57,4.85 0.01,1.23 -0.16,2.21 -0.53,2.92 -0.36,0.72 -0.89,1.31 -1.59,1.79 -0.71,0.47 -1.6,0.84 -2.65,1.11z"/>
  </g>
  <g>
   <path class="fil2" d="M0.3 87.17l-0.3 -45.51 23.31 -0.1c3.53,-0.26 6.57,0.18 9.92,1.07 2.22,0.72 3.96,2.14 5.64,3.97 1.23,2.14 1.98,4.99 2.02,7.34 0.04,2.36 -0.69,4.61 -1.73,6.41 -1.1,2.2 -2.46,3.56 -4.15,4.49 -1.68,0.92 -3.33,1.47 -4.96,2.01 1.15,0.17 2.62,0.78 3.63,1.72 0.71,0.49 1.74,1.44 2.38,2.31 0.64,0.88 1.3,1.76 1.88,3.02l6.61 13.12 -15.92 0.01 -7.26 -14c-0.59,-1.26 -1.56,-2.58 -2.59,-3.51 -1.02,-0.94 -2.17,-1.11 -3.3,-1.27l-1.19 0.21 0 18.43 -14.01 0.29zm13.72 -27.38l5.81 0.07c1.58,-0.16 2.77,-0.38 3.97,-0.59 0.82,-0.27 1.63,-0.54 2.18,-1.64 0.49,-0.72 0.99,-1.43 0.78,-2.62 0.17,-1.16 -0.42,-2.42 -1.46,-3.35 -1.4,-0.99 -3.3,-1.27 -5.26,-1.18l-5.86 0.32 -0.16 8.99z"/>
   <path class="fil2" d="M45.03 70.62c-0.08,-4.71 1.79,-9.53 4.95,-12.6 3.6,-3.39 8.56,-5.4 13.55,-5.06 5.49,-0.37 11.02,1.61 15.07,5.74 2.64,3.14 3.98,7.25 3.73,11.53 0.47,4.76 -1.34,9.21 -4.89,12.21 -3.6,3.39 -8.56,5.4 -13.93,5.01 -4.3,0.15 -8.74,-1.28 -12.58,-4.21 -3.84,-2.91 -6.2,-7.96 -5.91,-12.62zm12.43 -0.13c-0.34,2.3 0.53,4.39 1.76,6.52 0.97,1.32 2.83,1.98 4.39,1.82 1.91,0.28 3.59,-0.63 4.58,-2.06 1.42,-1.75 1.81,-4.45 1.77,-6.8 0.28,-1.92 -0.51,-4.38 -1.81,-6.14 -0.97,-1.33 -2.43,-1.93 -4.32,-2.21 -1.58,0.16 -3.27,1.08 -4.64,2.45 -1.04,1.8 -1.76,4.05 -1.73,6.41z"/>
   <polygon class="fil2" points="89.34,41.07 103.3,41.16 103.33,56.85 118.47,56.72 118.45,41.05 132.46,40.74 132.71,86.63 118.37,86.49 118.36,68.07 103.21,68.19 103.21,86.61 89.27,86.53 "/>
   <path class="fil2" d="M139.25 71.14l13.3 -0.78c0.16,1.58 1.01,3.67 2,4.98 1.29,1.76 3.83,2.92 6.17,2.86 1.53,0.23 3.16,-0.31 4.46,-1.3 1.75,-1.31 2.14,-3.99 0.84,-5.75 -0.31,-0.44 -0.69,-0.49 -1.02,-0.94 -2.17,-1.1 -4.34,-2.21 -7.05,-2.21 -4.49,-1.06 -9.26,-2.93 -13.11,-5.84 -2.43,-1.93 -3.88,-5.28 -3.81,-8.41 -0.04,-2.35 0.73,-4.98 1.78,-6.79 1.47,-2.14 3.71,-4.15 6.16,-4.97 3.71,-1.42 7.3,-2.07 11.15,-1.9 4.72,-0.47 9.23,0.57 13.13,3.11 3.14,2.42 5.29,6.26 5.49,10.21l-13.37 1.17c-0.1,-1.97 -0.63,-3.61 -2.04,-4.61 -1.4,-1 -2.86,-1.6 -4.44,-1.44 -1.51,-0.23 -2.77,0.38 -3.64,1.03 -0.87,0.66 -1.42,1.75 -1.54,2.51 0.26,0.83 0.54,1.66 1.23,2.15 1.41,0.98 2.93,1.21 4.83,1.49 4.56,0.67 9,2.1 13.01,3.88 2.55,1.16 4.22,2.97 5.83,5.17 1.24,2.14 1.72,4.17 1.76,6.52 -0.08,3.13 -0.84,5.76 -2.38,8.27 -1.54,2.52 -3.77,4.54 -6.65,5.69 -3.26,1.09 -7.29,2.07 -10.77,1.95 -7.77,0.03 -12.97,-1.52 -15.99,-4.69 -3.08,-2.81 -4.8,-6.98 -5.32,-11.37z"/>
  </g>
  <g id="IP65">
   <path class="fil0" d="M35.8 174.01c-2.24,0.16 -5,0.93 -6.83,2.08l-0.98 0.41 0.06 -0.79 -0.09 -1.13 -5.74 0.07 -5.74 0.08 0.36 29.38 -0.1 29.19 5.74 -0.08 5.74 -0.07 0.25 -11.37 -0.23 -11.56 1.08 0.72c2.46,1.3 4.84,1.47 7.68,1.83 4.96,-0.13 9.54,-2.05 12.78,-5.34 3.56,-3.43 5.12,-7.98 5.47,-13.57 0.2,-10.58 -5.83,-18.54 -14.83,-19.83 -1.25,-0.25 -3.64,-0.42 -4.62,-0.01zm2.61 9.01c2.66,0.83 4.89,3.39 5.81,6.5 0.42,0.99 0.35,4.52 0.24,6.12 -0.82,5.39 -3.86,8.23 -8.48,8.21 -1.59,-0.11 -2.85,-0.36 -3.92,-1.07 -1.26,-0.26 -2.88,-2.3 -3.43,-3.62l-0.61 -0.52 0.16 -5.12 -0.15 -4.99 0.7 -1.08c1.83,-3.87 5.77,-5.52 9.68,-4.43z"/>
   <path class="fil0" d="M72.63 173.76c-7.71,0.89 -10.23,3.11 -11.25,8.98 -0.29,2.07 -0.09,36.57 0.22,39.16 1.04,6.18 2.94,8.88 7.65,10.02 2.66,0.83 4.25,0.94 8.55,1.09 4.62,0.01 6.07,-0.21 8.49,-0.83 4.87,-1.26 6.93,-3.68 7.8,-9.87 0.29,-2.07 0.29,-12.18 0.09,-16.37 -0.36,-4.51 -0.58,-5.97 -1.94,-7.36 -2.08,-2.23 -4.41,-3.19 -8.23,-3.15 -3.5,-0.09 -5.47,0.73 -7.81,2.49 -0.98,0.41 -1.64,0.69 -1.64,0.69 -0.32,0.14 -0.22,-11.57 0.02,-12.82 0.29,-2.07 0.81,-2.68 3.05,-2.84 1.9,-0.03 2.52,0.51 3.06,1.83 0,0 0.23,1.46 0.33,2.59l0.03 1.93 5.87 0.26 6.08 -0.21 -0.21 -4.19c0.02,-2.72 -0.21,-4.17 -0.49,-4.84 -0.73,-3.58 -3.48,-5.54 -8.37,-6.22 -2.06,-0.3 -9.38,-0.35 -11.3,-0.33zm7.27 31.17c0.14,0.32 0.6,0.52 0.74,0.85 0.28,0.66 0.42,0.99 0.29,8.04 0.06,6.58 0.33,7.25 -0.03,8.18 -0.38,0.94 -1.05,1.21 -2.5,1.43 -1.58,-0.11 -2.37,-0.17 -2.97,-0.69 -0.75,-0.86 -0.7,-1.65 -1.04,-8.9 0.08,-6.24 0.27,-6.71 0.33,-7.51 0.36,-0.94 0.69,-1.07 1.68,-1.49 0.65,-0.27 2.7,0.04 3.5,0.1z"/>
   <path class="fil0" d="M96.81 174.53c0,0 0.2,6.91 0.29,15.42l-0.03 15.56 5.76 -0.07 5.41 0.06 0.24 -1.26c0.01,-2.73 0.52,-3.34 3.24,-3.3 1.91,-0.02 2.84,0.36 3.12,1.03l0.27 0.67 0.05 9.3 0.18 9.64 -0.18 0.47c-0.71,1.07 -1.05,1.21 -2.95,1.24 -2.39,-0.18 -2.84,-0.36 -3.17,-2.95 -0.13,-0.34 -0.17,-2.26 -0.26,-3.4l0.02 -2.72 -6.08 0.21 -6.07 0.21 -0.06 3.52c0.21,4.19 0.39,6.44 1.21,8.42 0.64,2.46 1.99,3.83 3.99,4.94 2.81,1.17 5.18,1.34 10.92,1.27 4.76,0.33 6.53,-0.02 8.96,-0.65 4.08,-1.31 5.81,-3.59 6.63,-8.99 0.43,-1.74 0.18,-17.95 -0.07,-21.34 -0.18,-2.26 -0.69,-4.38 -1.23,-5.7 -1.06,-3.45 -3.86,-4.61 -9.27,-4.67 -1.91,0.01 -2.71,-0.04 -3.7,0.37 -1.31,0.54 -2.94,1.23 -4.11,2.12l-1.17 0.88 0.17 -5.13 -0.31 -5.32 8.91 0.16 8.46 -0.03 -0.17 -4.99 0.17 -5.11 -14.52 0.25c-8.11,-0.1 -14.65,-0.09 -14.65,-0.09z"/>
   <polygon class="fil0" points="3.29,203.93 3.66,233.31 9.4,233.24 15.14,233.18 14.92,204.13 14.55,174.74 8.81,174.81 3.07,174.88 "/>
  </g>
  <g>
   <path class="fil0" d="M313.35 159.94c1.41,0.2 3.04,0.68 4.12,1.55 0.88,0.6 2.57,2.29 3.18,3.1 0.41,0.54 5.19,7.96 10.52,16.66 10.66,17.4 14.62,23.75 20.98,33.79 2.73,4.72 4.3,7.36 4.45,8.1 0.89,2.29 1.04,4.72 0.46,7.29 -1.44,3.64 -3.96,6.41 -7.73,7.55l-1.48 0.27 -35.58 0.2 -35.79 -0.06 -1.15 -0.41c-3.71,-1.01 -6.69,-3.85 -7.88,-7.62 -0.89,-2.29 -0.58,-4.65 0,-7.21 0.33,-0.68 3.11,-5.33 9.59,-16.2 4.97,-8.43 11.19,-19.08 13.97,-23.74 2.78,-4.65 6.49,-10.86 8.27,-13.49 3.17,-5.81 4.31,-7.09 6.12,-8.04 2.41,-1.82 5.1,-2.15 7.92,-1.75zm-4.07 -3.71c-3.42,0.47 -7.05,2.37 -9.11,5.2 -1.12,1.28 -35.09,58.01 -35.81,59.82 -2.38,5.2 -1.1,11.88 2.91,16.06 2.1,2.22 4.54,3.77 7.57,4.45l1.15 0.41 36.33 -0.35 36.25 0.14 1.48 -0.27c8.73,-2.36 13.41,-12.27 9.96,-20.71 -0.4,-0.53 -6.9,-11.34 -14.41,-23.47 -7.72,-12.42 -15.84,-25.37 -18.03,-28.8 -1.93,-3.64 -4.17,-6.61 -4.78,-7.42 -3.06,-4.05 -8.33,-6 -13.5,-5.07z"/>
   <path class="fil0" d="M318.04 220.52c3.07,4.05 5.46,7.75 5.46,7.75 0.2,0.28 -2.61,1.56 -4.35,2.03 -2.55,1.08 -3.76,1.15 -6.85,0.95 -3.16,0.27 -4.58,0.07 -6.87,-0.75 -1.83,-0.74 -4.52,-2.09 -4.73,-2.35 0.26,-0.2 10.02,-13.97 10.95,-15.53 0.33,-0.67 0.33,-0.67 0.74,-0.14 0,0 2.65,3.51 5.66,8.04zm-4.62 -26.65c1.89,0.27 4.99,2.16 4.93,2.63 -0.27,0.2 -6.24,8.97 -6.45,8.7 -0.26,0.2 -1.84,-2.42 -4.08,-5.39l-3.82 -5.61 0.73 -0.13c1.75,-0.47 2.75,-0.81 5.12,-0.47 1.68,0 2.88,-0.07 3.57,0.27zm14.18 -0.13c3.2,3.1 5.11,6.74 6.23,10.99 0.22,1.96 0.27,7.01 0.02,8.9 -0.64,3.04 -2.02,6.21 -3.55,8.64 -1.13,1.29 -3.4,3.85 -3.6,3.57 -0.27,0.21 -12.41,-16.92 -12.14,-17.13 -0.2,-0.27 6.04,-9.25 6.3,-9.45 0.27,-0.2 0.54,-0.4 0.67,0.34 1.23,1.62 2.12,3.91 2.69,6.88 0.2,0.26 0.14,0.74 0.42,0.54l5.64 -0.88c0,0 -0.14,-0.74 -0.28,-1.49 -0.5,-1.74 -1.39,-4.04 -2.41,-5.4 -0.54,-1.28 -2.65,-3.5 -3.07,-4.04 -0.47,-0.07 -0.47,-0.07 -0.67,-0.34 0.27,-0.21 2.06,-2.84 2.06,-2.84 0,0 1.08,0.88 1.69,1.69zm-28.79 -0.28l1.02 1.35 -1.13 1.29c-2.2,2.09 -3.52,4.79 -4.17,7.82 -0.45,1.62 -0.25,1.89 0.14,0.75 0.72,-1.83 1.44,-3.64 2.58,-4.92 0.6,-0.89 2.59,-3.24 3.33,-3.37 0,0 0.81,1.08 4.5,5.93 2.45,3.23 4.23,6.14 4.44,6.4 0.2,0.28 -0.99,2.03 -5.7,8.57 -3.53,4.79 -5.98,8.77 -6.18,8.5 -0.26,0.2 -2.37,-2.02 -3.6,-3.64 -1.84,-2.42 -3.08,-5.73 -3.85,-8.97 -0.29,-1.48 -0.34,-6.54 0.12,-8.16 0.37,-2.83 1.49,-5.8 3.02,-8.23 0.86,-1.07 3.99,-4.72 4.45,-4.65 0,0 0.42,0.54 1.03,1.34zm14.53 -6.33c2.15,0.07 4.24,0.6 6.06,1.34 1.62,0.48 3.19,1.42 3.38,1.69 0,0 -1.19,1.75 -1.79,2.63 0,0 -0.67,-0.34 -1.34,-0.68 -2.71,-1.35 -5.06,-1.69 -8.17,-1.89 -2.63,-0.13 -5.37,0.67 -7.92,1.75 -0.53,0.41 -0.8,0.61 -0.8,0.61 0,0 -0.42,-0.54 -0.82,-1.07 -0.61,-0.81 -1.02,-1.35 -1.02,-1.35 -0.21,-0.27 0.54,-0.4 1.07,-0.81 3.08,-1.48 5.09,-2.16 9.47,-2.5 0,0 0.93,0.13 1.88,0.28zm-4.06 -3.71c-3.17,0.27 -6.18,1.28 -8.99,2.57l-1.81 0.94 -1.02 -1.35c-0.95,-1.81 -1.42,-1.89 -2.37,-2.02 -0.47,-0.06 -0.74,0.14 -1.06,0.81 -0.53,0.4 -0.53,0.4 -0.39,1.15 -0.07,0.48 -0.13,0.95 0.69,2.03 0.61,0.81 1.03,1.34 1.23,1.62 0,0 -0.53,0.41 -0.8,0.6 -0.53,0.41 -1.4,1.49 -2.2,2.09 -9.05,10.25 -8.7,25.7 1.29,35.55 1.69,1.69 1.69,1.69 1.63,2.16 -1.13,1.29 -1.46,1.95 -1.31,2.7 -0.34,0.67 -0.13,0.95 0.34,1 0.41,0.55 0.61,0.81 1.08,0.88 1.01,-0.33 1.28,-0.54 2.14,-1.62 0.33,-0.68 0.87,-1.08 0.87,-1.08 0,0 0.46,0.07 1.15,0.41 1.76,1.21 4.73,2.37 7.56,2.76 1.62,0.48 2.08,0.54 4.98,0.48 2.63,0.13 3.63,-0.21 4.84,-0.27 2.49,-0.61 5.24,-1.41 7.3,-2.56 0.82,-0.61 1.34,-1.01 1.34,-1.01 0.21,0.27 0.41,0.54 0.82,1.09 1.03,1.34 1.23,1.62 2.44,1.55 0.94,0.13 1.8,-0.95 1.53,-2.43 0,0 -0.42,-0.54 -0.82,-1.08l-0.82 -1.07 1.93 -1.89c7.53,-7.82 9.09,-19.63 4.43,-29.68 -1.58,-2.63 -4.23,-6.14 -6.4,-7.9 -0.2,-0.26 -0.61,-0.81 -0.61,-0.81 0,0 0.32,-0.68 0.93,-1.55 0.87,-1.08 0.92,-1.55 0.99,-2.03 0.06,-0.47 -0.15,-0.73 -0.55,-1.28 -0.41,-0.55 -0.88,-0.61 -1.35,-0.67 -0.73,0.13 -1.28,0.54 -2.2,2.09l-1.13 1.27 -1.56 -0.93c-4.54,-2.1 -9.45,-3.03 -14.08,-2.5z"/>
  </g>
  <g id="DLC">
   <path class="fil2" d="M487.76 232.73l-7.06 0 0 -51.59 7.06 0c9.65,-14.31 25.81,-22.88 43.07,-22.84 16.31,0.53 31.34,9 40.24,22.68l6.74 0 0 51.62 -6.9 0c0,0 -12.98,23.01 -40.76,23.01 -17.1,0.1 -33.08,-8.51 -42.39,-22.86z"/>
   <polygon class="fil1" points="516.44,185.78 516.44,227.81 544.91,227.81 544.91,218.94 525.44,218.94 525.44,185.78 "/>
   <path class="fil1" d="M494.1 194.54l0 24.28 6.8 0c0,0 3.46,-0.12 4.19,-2.83l0 -17.26c0,0 0.49,-3.2 -3.93,-4.07l-7.06 -0.12zm7.06 -8.76c13.68,1.6 13.18,13.19 13.18,13.19l0 15.05c0,13.8 -13.68,13.68 -13.68,13.68l-15.54 0 0 -41.91 16.04 0z"/>
   <path class="fil1" d="M573.99 185.78l0 8.99 -14.29 0c0,0 -4.31,0.26 -4.31,3.58l0 15.9c0.06,2.36 1.85,4.31 4.19,4.57l14.41 0 0 9.11 -14.13 0c-6.93,-0.38 -12.59,-5.69 -13.42,-12.57l0 -16.48c-0.01,-6.78 5.2,-12.42 11.96,-12.95l15.59 -0.14z"/>
   <path class="fil2" d="M573.43 172.9l0.75 0c0.25,0.02 0.49,-0.04 0.71,-0.16 0.18,-0.21 0.18,-0.52 0,-0.73 0,-0.06 0,-0.13 0,-0.19 -0.21,-0.03 -0.43,-0.03 -0.64,0l-0.71 0 -0.12 1.08zm-0.61 2.16l0 -3.84 1.32 0c0.33,-0.05 0.66,-0.05 0.99,0 0.19,0.08 0.35,0.21 0.47,0.38 0.11,0.17 0.18,0.36 0.19,0.56 0,0.28 -0.11,0.54 -0.31,0.73 -0.21,0.22 -0.5,0.34 -0.8,0.35 0.12,0.05 0.23,0.12 0.33,0.21 0.22,0.22 0.42,0.48 0.57,0.75l0.47 0.75 -0.75 0 -0.4 -0.52c-0.18,-0.33 -0.4,-0.63 -0.66,-0.9 -0.15,-0.08 -0.32,-0.12 -0.49,-0.12l-0.38 0 0 1.62 -0.54 0zm1.58 -4.94c-0.52,0 -1.03,0.13 -1.48,0.38 -0.47,0.26 -0.85,0.64 -1.11,1.11 -0.53,0.92 -0.53,2.05 0,2.97 0.26,0.47 0.64,0.85 1.11,1.11 0.45,0.26 0.96,0.39 1.48,0.4 0.52,-0.01 1.03,-0.15 1.48,-0.4 0.46,-0.26 0.84,-0.64 1.08,-1.11 0.27,-0.45 0.41,-0.96 0.4,-1.48 -0,-0.52 -0.14,-1.03 -0.4,-1.48 -0.26,-0.47 -0.64,-0.85 -1.11,-1.11 -0.44,-0.26 -0.95,-0.41 -1.46,-0.42l0 0.05zm0 -0.61c0.61,0.01 1.21,0.17 1.74,0.47 0.56,0.31 1.03,0.76 1.34,1.32 0.3,0.55 0.46,1.16 0.47,1.79l0 0.09c-0.01,0.6 -0.17,1.18 -0.47,1.7 -0.3,0.56 -0.76,1.02 -1.32,1.32 -1.12,0.65 -2.51,0.65 -3.63,0 -0.55,-0.34 -0.98,-0.83 -1.25,-1.41 -0.31,-0.55 -0.48,-1.16 -0.47,-1.79 0.01,-0.63 0.17,-1.24 0.47,-1.79 0.32,-0.47 0.75,-0.86 1.25,-1.13 0.56,-0.35 1.2,-0.55 1.86,-0.56z"/>
   <polygon class="fil1" points="560.93,201.04 569.47,201.04 569.47,212.25 560.93,212.25 "/>
   <path class="fil1" d="M508.81 176.55l3.23 5.3c0,0 0.94,-0.33 0.38,-1.81 -0.53,-1.23 -1.27,-2.35 -2.19,-3.32 -0.38,-0.37 -0.96,-0.44 -1.41,-0.16zm-0.54 -1.77c0.87,-0.42 1.9,-0.33 2.68,0.23 1.46,1.15 2.56,2.71 3.16,4.47 0.89,3.09 -0.85,3.89 -0.85,3.89l-1.88 1.13 -5.11 -8.57 2 -1.15z"/>
   <polygon class="fil1" points="513.73,171.89 517.36,181.12 521.2,179.63 520.52,177.91 518.44,178.74 515.48,171.18 "/>
   <path class="fil1" d="M525.06 169.23l0.4 2.21c-0.43,-0.37 -0.94,-0.65 -1.48,-0.82 0,0 -0.56,-0.12 -0.78,0.82 -0.07,1.67 0.21,3.34 0.82,4.9 0,0 0.52,1.32 1.34,0.45 0.36,-0.32 0.67,-0.69 0.94,-1.08l0.4 2.21c-0.61,0.83 -1.67,1.2 -2.66,0.94 0,0 -0.87,-0.14 -1.79,-1.86 -0.7,-1.67 -1.02,-3.47 -0.92,-5.27 0,0 0,-2.17 1.58,-2.76 0.71,-0.31 1.53,-0.21 2.14,0.26z"/>
   <path class="fil1" d="M535.09 170.9c-1.01,1.62 -1.44,3.54 -1.22,5.44 0,0 0.12,1.2 0.73,0.71 0,0 0.87,-0.54 1.3,-4.5 0,0 0.12,-2.47 -0.8,-1.65zm-1.84 7.75c0,0 -1.62,-0.87 -1.29,-4.07 0.13,-1.81 0.79,-3.54 1.88,-4.99 0.64,-0.58 1.54,-0.77 2.35,-0.49 0,0 1.08,0.43 1.39,2.35 0.21,1.37 0.1,2.78 -0.33,4.1 -0.27,1.25 -0.99,2.35 -2.03,3.11l0.4 0.45c0.11,0.11 0.29,0.11 0.4,0 0,0 0,0 0,0l0.21 -0.16 0.68 0.61 -1.37 1.51c0,0 -1.3,-0.1 -2.31,-2.4z"/>
   <path class="fil1" d="M543.43 173.32l-0.82 2.03c0.34,0.21 0.79,0.1 1,-0.24 0.01,-0.02 0.02,-0.04 0.03,-0.06 0,0 0.47,-0.73 0.33,-1.18 -0.12,-0.25 -0.33,-0.44 -0.59,-0.54l0.05 0zm0.85 -1.58c0.9,0.38 1.5,1.24 1.55,2.21 0.07,1.19 -0.53,2.33 -1.55,2.94 -0.7,0.46 -1.58,0.55 -2.35,0.24l-1.65 3.72 -1.67 -0.73 3.89 -9.14 1.79 0.75z"/>
   <polygon class="fil1" points="549.46,174.38 544.16,182.81 547.6,184.98 548.61,183.45 546.75,182.2 551.06,175.42 "/>
   <path class="fil1" d="M501.21 186.08c1.21,-1.71 2.59,-3.28 4.12,-4.71l1.91 2.09c-1.24,1.11 -2.32,2.38 -3.2,3.79l-2.83 -1.18z"/>
   <path class="fil1" d="M553.32 181.16l-1.98 2.1c1.44,1.31 2.73,2.76 3.86,4.33l2.57 -1.34c-1.35,-1.8 -2.84,-3.5 -4.45,-5.09z"/>
   <path class="fil1" d="M492.47 186.84l-1.27 -0.61c3.54,-6.62 8.77,-12.19 15.14,-16.15 7.05,-4.54 15.29,-6.88 23.67,-6.74 9.64,0.11 18.97,3.43 26.52,9.42 4.58,3.63 8.37,8.16 11.14,13.3l-1.25 0.49c-2.71,-4.92 -6.37,-9.24 -10.79,-12.72 -7.33,-5.73 -16.32,-8.93 -25.62,-9.11 -15.66,-0.22 -30.14,8.31 -37.54,22.11z"/>
   <polygon class="fil1" points="515.1,230.83 516.82,231.7 513.1,238.9 515.08,239.94 514.25,241.57 510.56,239.66 "/>
   <polygon class="fil1" points="520.16,233.23 517.03,242.67 518.82,243.26 521.95,233.84 "/>
   <path class="fil1" d="M527.13 235.18l-0.31 1.98 -0.68 -0.56c0,0 -0.71,-0.42 -0.94,0 0,0 -0.16,0.24 0,1.13l0.82 2.61c0.35,0.96 0.35,2.01 0,2.97 -0.39,0.76 -1.17,1.25 -2.03,1.27 -0.65,-0.03 -1.27,-0.33 -1.7,-0.82l0.36 -2.22c0.28,0.47 0.67,0.86 1.13,1.15 0,0 0.57,0.24 0.68,-0.49 0.03,-0.44 -0.03,-0.88 -0.19,-1.29l-0.61 -1.74c-0.43,-1.1 -0.43,-2.33 0,-3.44 0.59,-1.07 1.94,-1.46 3.01,-0.87 0.16,0.09 0.32,0.2 0.46,0.33z"/>
   <polygon class="fil1" points="528.52,235.11 528.59,236.95 530.01,236.9 530.27,244.96 532.15,244.91 531.87,236.78 533.23,236.76 533.19,234.92 "/>
   <polygon class="fil1" points="534.39,234.69 538.2,233.82 538.65,235.54 536.65,236.01 537.12,237.96 538.95,237.56 539.43,239.35 537.59,239.8 538.18,242.11 540.27,241.61 540.75,243.38 536.81,244.37 "/>
   <path class="fil1" d="M542.49 234.01l2.73 5.56c0,0 0.87,-0.26 0.56,-1.58 -0.26,-1.03 -0.71,-2 -1.32,-2.87 0,0 -0.85,-1.72 -1.98,-1.11zm0.28 -1.91c1.16,-0.02 2.26,0.56 2.9,1.53 0.99,1.22 1.64,2.67 1.91,4.22 0.41,1.37 -0.25,2.84 -1.55,3.44l-1.7 0.8 -4.31 -8.88c2.12,-1.27 2.76,-1.11 2.76,-1.11z"/>
   <path class="fil1" d="M554.78 226.38c-1.89,2.41 -4.11,4.54 -6.59,6.33l1.65 2.21c3.09,-2.19 5.76,-4.92 7.89,-8.05l-2.94 -0.49z"/>
   <path class="fil1" d="M501.3 227.44c2.17,2.88 4.75,5.42 7.65,7.56l1.62 -2.35c-2.36,-1.68 -4.43,-3.72 -6.15,-6.05l-3.13 0.85z"/>
   <path class="fil1" d="M529.42 250.37c-2.55,0.02 -5.08,-0.2 -7.58,-0.66 -7.69,-1.35 -14.88,-4.75 -20.79,-9.84 -3.95,-3.46 -7.26,-7.59 -9.77,-12.2l1.2 -0.64c2.45,4.43 5.63,8.41 9.42,11.77 5.76,4.87 12.71,8.12 20.13,9.42 7.29,1.23 14.76,0.59 21.73,-1.86 5.08,-1.9 9.76,-4.73 13.8,-8.34 3.48,-3.19 6.42,-6.92 8.71,-11.05l1.3 0.57c-2.36,4.3 -5.41,8.19 -9.04,11.49 -4.15,3.8 -8.98,6.76 -14.25,8.73 -4.76,1.73 -9.79,2.62 -14.86,2.59z"/>
  </g>
 </g>
</svg>
